<svg width="64" height="64" viewBox="0 0 64 64" fill="none" xmlns="http://www.w3.org/2000/svg">
    <style>
        circle, path {
            fill: #404040;
        }

        @media (prefers-color-scheme: dark) {
            circle, path {
                fill: #BFBFBF;
            }
        }
    </style>

    <path fill-rule="evenodd" clip-rule="evenodd" d="M37.61 29C37.7033 29.3533 37.7766 29.7133 37.83 30.08C37.7766 29.7333 37.7033 29.3733 37.61 29Z"/>
    <path fill-rule="evenodd" clip-rule="evenodd" d="M38 32C37.9972 32.4949 37.9638 32.9892 37.9 33.48C37.9636 32.9892 37.997 32.4949 38 32Z"/>
    <path fill-rule="evenodd" clip-rule="evenodd" d="M36.3899 26C36.8733 26.8374 37.2528 27.7307 37.5199 28.66C37.2525 27.7308 36.8731 26.8376 36.3899 26Z"/>
    <path fill-rule="evenodd" clip-rule="evenodd" d="M35.4401 24.61C34.8211 23.8204 34.1055 23.1115 33.3101 22.5C34.1048 23.1123 34.8203 23.8211 35.4401 24.61Z"/>
    <path fill-rule="evenodd" clip-rule="evenodd" d="M37.9 30.52C37.9638 31.0108 37.9972 31.5051 38 32C37.997 31.5051 37.9636 31.0108 37.9 30.52Z"/>
    <path fill-rule="evenodd" clip-rule="evenodd" d="M32.0001 42.38C28.2992 40.2332 26.0213 36.2784 26.0213 32C26.0213 27.7216 28.2992 23.7668 32.0001 21.62C32.4338 21.8737 32.8513 22.1543 33.2501 22.46C28.3092 18.6954 21.3121 19.3235 17.1208 23.9079C12.9295 28.4924 12.9295 35.5176 17.1208 40.1021C21.3121 44.6865 28.3092 45.3146 33.2501 41.55C32.851 41.8523 32.4335 42.1295 32.0001 42.38Z"/>
    <path fill-rule="evenodd" clip-rule="evenodd" d="M36.3899 38C36.8731 37.1625 37.2526 36.2692 37.5199 35.34C37.2528 36.2693 36.8733 37.1626 36.3899 38H36.3899Z"/>
    <path fill-rule="evenodd" clip-rule="evenodd" d="M35.53 39.27C35.7927 38.9235 36.0364 38.563 36.26 38.19C36.0364 38.563 35.7927 38.9235 35.53 39.27Z"/>
    <path fill-rule="evenodd" clip-rule="evenodd" d="M33.3101 41.5C34.1051 40.8881 34.8207 40.1793 35.4401 39.39C34.8203 40.1789 34.1048 40.8877 33.3101 41.5Z"/>
    <path fill-rule="evenodd" clip-rule="evenodd" d="M37.61 35C37.7033 34.6467 37.7766 34.2867 37.83 33.92C37.7766 34.2667 37.7033 34.6267 37.61 35Z"/>
    <path fill-rule="evenodd" clip-rule="evenodd" d="M35.53 24.73C35.7924 25.0733 36.0361 25.4305 36.26 25.8C36.0361 25.4305 35.7924 25.0733 35.53 24.73V24.73Z"/>
    <path fill-rule="evenodd" clip-rule="evenodd" d="M27.74 25.8C27.9639 25.4305 28.2076 25.0733 28.47 24.73C28.2076 25.0733 27.9639 25.4305 27.74 25.8Z"/>
    <path fill-rule="evenodd" clip-rule="evenodd" d="M30.6901 22.5C29.8946 23.1115 29.1791 23.8204 28.5601 24.61C29.1798 23.8211 29.8953 23.1123 30.6901 22.5Z"/>
    <path fill-rule="evenodd" clip-rule="evenodd" d="M26 32C26.003 32.4949 26.0364 32.9892 26.1 33.48C26.0362 32.9892 26.0028 32.4949 26 32Z"/>
    <path fill-rule="evenodd" clip-rule="evenodd" d="M26 32C26.0028 31.5051 26.0362 31.0108 26.1 30.52C26.0364 31.0108 26.003 31.5051 26 32Z"/>
    <path fill-rule="evenodd" clip-rule="evenodd" d="M26.48 28.67C26.7463 27.7372 27.1258 26.8406 27.61 26C27.1261 26.8407 26.7466 27.7373 26.48 28.67H26.48Z"/>
    <path fill-rule="evenodd" clip-rule="evenodd" d="M28.47 39.27C28.2073 38.9235 27.9636 38.563 27.74 38.19C27.9636 38.563 28.2073 38.9235 28.47 39.27Z"/>
    <path fill-rule="evenodd" clip-rule="evenodd" d="M38 20C35.3787 20.0012 32.8308 20.8658 30.75 22.46C31.1488 22.1543 31.5663 21.8737 32 21.62C35.7008 23.7668 37.9787 27.7216 37.9787 32C37.9787 36.2784 35.7008 40.2332 32 42.38C31.5663 42.1263 31.1488 41.8457 30.75 41.54C34.9134 44.7167 40.656 44.8267 44.9379 41.8117C49.2199 38.7967 51.0521 33.3531 49.4647 28.3625C47.8773 23.372 43.2369 19.9872 38 20Z"/>
    <path fill-rule="evenodd" clip-rule="evenodd" d="M27.61 38C27.1266 37.1626 26.7471 36.2693 26.48 35.34C26.7473 36.2692 27.1267 37.1625 27.61 38Z"/>
    <path fill-rule="evenodd" clip-rule="evenodd" d="M26.16 30.11C26.22 29.7433 26.2934 29.3833 26.38 29.03C26.2934 29.3833 26.22 29.7433 26.16 30.11Z"/>
    <path fill-rule="evenodd" clip-rule="evenodd" d="M26.39 35C26.2967 34.6467 26.2234 34.2867 26.17 33.92C26.2234 34.2667 26.2967 34.6267 26.39 35Z"/>
    <path fill-rule="evenodd" clip-rule="evenodd" d="M28.5601 39.39C29.1795 40.1793 29.895 40.8881 30.6901 41.5C29.8953 40.8877 29.1798 40.1789 28.5601 39.39H28.5601Z"/>
    <path fill-rule="evenodd" clip-rule="evenodd" d="M10.3899 48.19C10.0585 47.7482 9.43173 47.6586 8.9899 47.99C8.54807 48.3214 8.45853 48.9482 8.7899 49.39C9.61873 50.4924 10.5243 51.535 11.4999 52.51C11.8967 52.8498 12.4881 52.8269 12.8575 52.4576C13.2268 52.0882 13.2497 51.4968 12.9099 51.1C12.0024 50.1906 11.1603 49.2182 10.3899 48.19Z"/>
    <path fill-rule="evenodd" clip-rule="evenodd" d="M5.61011 37.76C5.33705 36.5046 5.15326 35.2314 5.06011 33.95C5.02145 33.3977 4.54239 32.9813 3.99011 33.02C3.43782 33.0587 3.02145 33.5377 3.06011 34.09C3.16 35.4656 3.35716 36.8323 3.65011 38.18C3.75075 38.6491 4.17041 38.9807 4.65011 38.97H4.86011C5.12095 38.9106 5.34712 38.7492 5.48807 38.5218C5.62901 38.2944 5.67296 38.02 5.61011 37.76Z"/>
    <path fill-rule="evenodd" clip-rule="evenodd" d="M9.57006 16.24C9.88482 16.24 10.1812 16.0918 10.3701 15.84C11.1403 14.8117 11.9824 13.8393 12.8901 12.93C13.1419 12.6763 13.2394 12.3076 13.1456 11.9626C13.0519 11.6177 12.7812 11.3489 12.4356 11.2576C12.09 11.1663 11.7219 11.2663 11.4701 11.52C10.4942 12.4983 9.58862 13.5442 8.76006 14.65C8.5328 14.953 8.49625 15.3584 8.66564 15.6972C8.83503 16.036 9.18129 16.25 9.56006 16.25L9.57006 16.24Z"/>
    <path fill-rule="evenodd" clip-rule="evenodd" d="M4.00007 31H4.07007C4.59614 31.0013 5.03325 30.5948 5.07007 30.07C5.15923 28.7888 5.33968 27.5155 5.61007 26.26C5.72605 25.7077 5.37236 25.166 4.82007 25.05C4.26779 24.934 3.72605 25.2877 3.61007 25.84C3.32988 27.2118 3.14941 28.6021 3.07007 30C3.06878 30.5261 3.4753 30.9632 4.00007 31Z"/>
    <path fill-rule="evenodd" clip-rule="evenodd" d="M5.40001 23.17C5.64926 23.2637 5.92558 23.2541 6.16773 23.1433C6.40988 23.0326 6.59785 22.8298 6.69001 22.58C7.13941 21.3768 7.6741 20.2071 8.29001 19.08C8.46864 18.7656 8.46598 18.3798 8.28302 18.0679C8.10006 17.756 7.76461 17.5654 7.40302 17.5679C7.04143 17.5704 6.70864 17.7656 6.53001 18.08C5.86794 19.2908 5.29315 20.5473 4.81001 21.84C4.7035 22.0939 4.70642 22.3806 4.81808 22.6323C4.92975 22.884 5.14027 23.0785 5.40001 23.17Z"/>
    <path fill-rule="evenodd" clip-rule="evenodd" d="M6.70007 41.45C6.48614 40.965 5.93097 40.7312 5.43455 40.9171C4.93814 41.1029 4.67295 41.6438 4.83007 42.15C5.31339 43.4426 5.88818 44.6991 6.55007 45.91C6.72596 46.2315 7.06361 46.431 7.43007 46.43C7.59759 46.4308 7.76264 46.3896 7.91007 46.31C8.14393 46.1832 8.31762 45.9684 8.39269 45.7131C8.46776 45.4579 8.43802 45.1833 8.31007 44.95C7.69074 43.8232 7.15271 42.6535 6.70007 41.45Z"/>
    <path fill-rule="evenodd" clip-rule="evenodd" d="M15.19 10.6C15.4064 10.6 15.6169 10.5298 15.79 10.4C16.8096 9.62884 17.8823 8.93045 19 8.31C19.4833 8.03386 19.6511 7.41825 19.375 6.935C19.0989 6.45175 18.4833 6.28386 18 6.56C16.8124 7.22608 15.6729 7.97458 14.59 8.8C14.2457 9.05826 14.1052 9.50788 14.2413 9.91623C14.3774 10.3246 14.7596 10.6 15.19 10.6Z"/>
    <path fill-rule="evenodd" clip-rule="evenodd" d="M26.26 58.39C25.0024 58.1194 23.7658 57.7584 22.56 57.31C22.0538 57.1529 21.5129 57.4181 21.3271 57.9145C21.1413 58.4109 21.3751 58.9661 21.86 59.18C23.1634 59.6659 24.5003 60.0569 25.86 60.35H26.07C26.6223 60.408 27.1171 60.0073 27.175 59.455C27.233 58.9027 26.8323 58.408 26.28 58.35L26.26 58.39Z"/>
    <path fill-rule="evenodd" clip-rule="evenodd" d="M22.1699 6.77C22.2892 6.77104 22.4077 6.75072 22.5199 6.71C23.7221 6.25853 24.9553 5.89426 26.2099 5.62C26.5671 5.54319 26.8563 5.28161 26.9684 4.93381C27.0805 4.586 26.9986 4.2048 26.7534 3.93381C26.5083 3.66281 26.1371 3.54319 25.7799 3.62C24.42 3.91289 23.0832 4.30391 21.7799 4.79C21.3219 4.95616 21.0503 5.42815 21.1368 5.90759C21.2233 6.38702 21.6427 6.73435 22.1299 6.73L22.1699 6.77Z"/>
    <path fill-rule="evenodd" clip-rule="evenodd" d="M19.06 55.7C17.9324 55.0839 16.8497 54.3888 15.82 53.62C15.3782 53.2886 14.7514 53.3782 14.42 53.82C14.0887 54.2618 14.1782 54.8886 14.62 55.22C15.7253 56.0484 16.8883 56.797 18.1 57.46C18.3333 57.588 18.6079 57.6177 18.8632 57.5426C19.1184 57.4676 19.3332 57.2939 19.46 57.06C19.588 56.8267 19.6177 56.5521 19.5427 56.2969C19.4676 56.0416 19.2939 55.8268 19.06 55.7Z"/>
    <circle cx="32" cy="4" r="2"/>
    <circle cx="32" cy="60" r="2"/>
    <path fill-rule="evenodd" clip-rule="evenodd" d="M35.93 3.27C35.9757 3.51068 35.9991 3.75504 36 4C35.9926 4.43299 35.9149 4.86191 35.77 5.27C49.0758 7.16598 58.9612 18.5598 58.9612 32C58.9612 45.4402 49.0758 56.834 35.77 58.73C36.0053 59.3697 36.0572 60.0624 35.92 60.73C50.2595 58.7411 60.9358 46.4817 60.9358 32.005C60.9358 17.5283 50.2595 5.26894 35.92 3.28L35.93 3.27Z"/>
</svg>
