<svg xmlns="http://www.w3.org/2000/svg" viewBox="0 0 90.8 90.8"><defs><style>.a,.c{fill:#404040}.c{font-family:Georgia;font-size:6px}</style></defs><path class="a" d="M0 45.4a45.4 45.4 0 1 1 45.4 45.4A45.4 45.4 0 0 1 0 45.4m1.3 0A44.2 44.2 0 1 0 45.5 1.2 44.2 44.2 0 0 0 1.3 45.4z"/><path class="a" d="M32.3 31.4a13.3 13.3 0 0 0 3.8-2.4c.4 1.4 1.3 4.1 2.4 5.2a8.3 8.3 0 0 0-3 1.8 9.6 9.6 0 0 0-3.2-4.6m15.4-8.1a13 13 0 0 0-4.9.6 14.6 14.6 0 0 0-2.7-7c.2-.1 3.9-1.6 6.3-1.2s1.3 5.5 1.3 7.6zM50 68.6a4.9 4.9 0 0 0 1.5.9H39c1.2-.6 2.3-1.2 2.4-1.8a15.6 15.6 0 0 0 0-7.2c-.8-2.3-2.8-3.7-5.2-4.7a8.1 8.1 0 0 0-2.4.9l1.3 1s-2.5 1.7-3 3.2a11.2 11.2 0 0 0-2.3-2.1 8.3 8.3 0 0 1 3.1-3.2l.7.8a4 4 0 0 1 1.7-1 32 32 0 0 0-7.1-1.6v2.4a17 17 0 0 0-7.8 1c0-.2-.8-4.1.1-6.4 1.7-.6 6 .1 8.2.5a13.6 13.6 0 0 0-.4 1.7 22.6 22.6 0 0 1 5.1-.2 8.3 8.3 0 0 0-3.4-2.7 14.6 14.6 0 0 1-3.9-2.6 7.5 7.5 0 0 0-2 1.1c-.4-2.3-1.7-5.6-3.3-7 0 0 4-1 5.7-2.2.3 1.9.7 5.8 2 7.5a5.2 5.2 0 0 0-2.2.6 14.5 14.5 0 0 0 4.5 2.2 4.5 4.5 0 0 1 0-2h-.9a10 10 0 0 1 .1-3.5 6.2 6.2 0 0 1 2.7.2 6.8 6.8 0 0 0-.8 3.3h-1.1a4.3 4.3 0 0 0 .5 2.1 7.3 7.3 0 0 1 4.3 3.4 22.8 22.8 0 0 1 3.6 1 5 5 0 0 0-.4-1.9l-.9.3a6.7 6.7 0 0 0-1.5-3 8.2 8.2 0 0 1 2.6-.9 8.5 8.5 0 0 1 .9 3.4h-1a10.2 10.2 0 0 1 .8 2.1l2.2.9a11.9 11.9 0 0 0-2.8-8.9 15.2 15.2 0 0 0-2.1 1.9c-.7-2.8-4.8-6.4-4.8-6.4s3.4-1.8 4.5-3.2c2.6 1.4 4.5 5.3 4.9 6.3a10.7 10.7 0 0 0-2 1.1 16.3 16.3 0 0 1 2.1 1.9 7.1 7.1 0 0 1 1 1.4 5.6 5.6 0 0 0 1.3-1.6l-1.3-.4c1.2-1.3 1.7-4.5 1.7-4.5a7.9 7.9 0 0 0 3.1 1.2 9.1 9.1 0 0 1-1.6 4.6 3.7 3.7 0 0 0-1.3-.7 6 6 0 0 1-1.3 2.3c.8 1.7 1.4 3.8 2.1 5.7 4.6-4 3.2-11.6 2.2-15.1a14.7 14.7 0 0 0-2.3 1.8 18 18 0 0 0-6.3-6.1c.1-.2 3-3.6 5.6-4.3 1.7 1 4.1 5.3 5.2 7.5l-1.8.9a16.9 16.9 0 0 1 2.5 6 17.3 17.3 0 0 1 2.1-1.7 1.7 1.7 0 0 0-.7-.4 8.3 8.3 0 0 1 3.1-3.2 8.8 8.8 0 0 0 2.3 2s-2.5 1.7-3 3.2l-1.2-1.2a17.1 17.1 0 0 0-2.2 4.2 15.9 15.9 0 0 1-.4 5A10.9 10.9 0 0 1 55 53c.2-1.7 1.6-2.9 2.8-3.7l-1.6-1.6c1.6-1.6 4.7-4.6 6.5-5 2 1.4 3.6 5 3.6 5.2a16.9 16.9 0 0 0-7 3.5 14 14 0 0 0-1.2-1.8 6.6 6.6 0 0 0-1.5 3.2 31.6 31.6 0 0 1 6.2.2 7 7 0 0 0 .2-2.3c1.1-.1 5.4 0 7.8 1.7-.8 1.6-1 5.3-1 5.5s-5-2.2-7.8-1.6a15.1 15.1 0 0 0 .7-2.6c-4-.1-6.5.5-8.4 1.5a9.9 9.9 0 0 1 2.7.5 2.6 2.6 0 0 0 .3-1 7.5 7.5 0 0 1 3.9 2.1 8 8 0 0 0-1.3 2.8s-2.4-1.9-3.9-2l.9-1.5a15.1 15.1 0 0 0-3.7-.1l-2.1 1.6a7 7 0 0 0-1.9 2.8 3.8 3.8 0 0 1 .5 1.9c0 1.2-.5 2.3-1.2 2.5a6.4 6.4 0 0 0 1.5 3.8zm-1.3-7a1.2 1.2 0 0 0-.6-1.4 1.2 1.2 0 0 0-.8 1.2 1.2 1.2 0 0 0 .6 1.4c.4.1.8-.4.8-1.2zm-1-2.4c-.9.2-1.4 1.4-1.1 2.8.1-1.5.4-2.1 1-2.5s.1-.3.1-.3zm-8.2-28.4a17 17 0 0 0-5.1-6.2c.1-.1 3.1-2.9 5.5-3.4 1.4 1.1 3.2 5.2 3.9 7.3a10.9 10.9 0 0 0-2.3.9 4.7 4.7 0 0 1 0 2.4 10.8 10.8 0 0 0-.5-2.1 9.7 9.7 0 0 1-1.5 1.1zM21.2 44.5c-.5.7-.7 3.7-.6 5.7-3.3-1.3-8-.9-8-.9a13.8 13.8 0 0 0 .6-5.6c1.3.7 6.2.9 8 .8zM33.4 38a11.9 11.9 0 0 0-5.1 1.7c-.2-2.5-2.6-6.2-3.8-8.1 2.4-.1 6.7-2.3 6.7-2.3-.5 2.5.8 6.4 2.2 8.7zm20.2-11.8a10.7 10.7 0 0 0-4 0c-.2-1.8-.5-5.4.1-6.8s5.1.3 5.3.4a13.5 13.5 0 0 0-1.4 6.4zm-22.4 2.2s-2.3-3.3-4.2-4c.6-.5 2.5-2.3 2.7-3s3.3 2.1 4.1 4.1a11.9 11.9 0 0 0-2.6 2.9zm26.3 9.2c2.5-1.3 5.1-6.2 5.1-6.2s2.6 2.9 4.2 3.7c-.8 2.8-4.1 5.6-5 6.2a6 6 0 0 0-1.4-1.5 9.2 9.2 0 0 0-2.3 4.1 12.1 12.1 0 0 1 1.8-4.5zm12.1 13.8c.2-1-1-4.1-2-6.2 4.1-.1 8.7-2.8 8.7-2.8a17.4 17.4 0 0 0 2 6.2c-1.6-.2-6.8 1.8-8.7 2.8zm-4.2-11.5c2.2-1.4 5.1-4.2 5.8-6.5 0 0 2.8 3.7 4.9 4.9-1.9 1.1-5.6 3.3-6.9 5.4a11.5 11.5 0 0 0-3.8-3.8zM54.7 29.1c.8-1.6 2.5-6.2 2.4-7.6a14.9 14.9 0 0 0 5.4 1.7s-2.3 4.1-2.4 7.6c-1.8-.9-4.6-1.9-5.4-1.7zm-1.8 8.1a15.5 15.5 0 0 1-2.3 5 15 15 0 0 0 1.4-5.3 5.9 5.9 0 0 0-2.1-.4c1.2-1.8 1.5-5.7 1.7-7.6 1.7 1.2 5.8 2 5.8 2-1.6 1.4-2.7 4.8-3 7.2zm-8-10.6a9.2 9.2 0 0 0 3.8-.8c-.2.9.6 4.2 1.1 5.4s-2.5.3-3.8.8a15.9 15.9 0 0 0-1.1-5.4zm25.7 1.2a10.5 10.5 0 0 0-3.2 4.1 9.5 9.5 0 0 0-2.9-1.4c.5-1.4 1.5-4.1 2.4-4.8a9.3 9.3 0 0 1 3.7 2.1zM21.3 38.3c-.8-2.1-4.2-4.6-4.2-4.6a19.4 19.4 0 0 0 3.3-2.8c2.1.9 3.9 3.7 4.3 4.5a11.9 11.9 0 0 0-3.4 2.9z"/><path class="a" d="M22.2 69h46.5v.7H22.2zm-2.7 4.6h-.2a38 38 0 0 1-12-24.1.4.4 0 1 1 .7-.2A37.5 37.5 0 0 0 19.8 73a.5.5 0 0 1 0 .5h-.3zm51.9 0h-.3a.5.5 0 0 1 0-.5 37.5 37.5 0 0 0 11.8-23.9.4.4 0 0 1 .7.1 38.5 38.5 0 0 1-12 24.2h-.2z"/><text transform="translate(26.3 80.1)" style="font-family:Georgia;font-size:9.5px;fill:#404040">Est. 2002</text><text class="c" transform="rotate(-90.9 27.785 18.724)">I</text><text class="c" transform="rotate(-84 29.1 16.79)">N</text><text class="c" transform="matrix(.22 -.98 .98 .22 9.9 39.39)">T</text><text class="c" transform="matrix(.33 -.95 .95 .33 10.77 35.51)">E</text><text class="c" transform="rotate(-64 31.335 6.118)">R</text><text class="c" transform="rotate(-57.3 32.335 .91)">A</text><text class="c" transform="rotate(-50.4 33.751 -5.532)">C</text><text class="c" transform="rotate(-44 35.29 -13.237)">T</text><text class="c" transform="matrix(.78 -.63 .63 .78 22 18.08)">I</text><text class="c" transform="rotate(-32.9 39.772 -32.442)">O</text><text class="c" transform="rotate(-25.3 44.966 -55.427)">N</text><text class="c" transform="rotate(-20 49.944 -85.925)"> </text><text class="c" transform="rotate(-14.8 60.118 -125.293)">D</text><text class="c" transform="rotate(-7.7 93.598 -281.79)">E</text><text class="c" transform="rotate(-1.5 384.253 -1629.996)">S</text><text class="c" transform="translate(46.43 9.45)">I</text><text class="c" transform="rotate(9.2 -35.108 309.928)">G</text><text class="c" transform="matrix(.96 .29 -.29 .96 53.57 10.31)">N</text><text class="c" transform="rotate(22.1 -1.112 154.912)"> </text><text class="c" transform="rotate(26.6 3.722 132.897)">F</text><text class="c" transform="rotate(33.4 8.151 112.545)">O</text><text class="c" transform="rotate(41 11.125 97.707)">U</text><text class="c" transform="rotate(48.6 13.363 88.352)">N</text><text class="c" transform="rotate(56 14.761 81.368)">D</text><text class="c" transform="rotate(63.4 16.037 75.763)">A</text><text class="c" transform="rotate(70 16.95 71.776)">T</text><text class="c" transform="rotate(75.5 17.198 69.043)">I</text><text class="c" transform="rotate(81.1 18.327 65.902)">O</text><text class="c" transform="rotate(88.7 19.015 62.733)">N</text></svg>