<svg width="1920" height="782" viewBox="0 0 1920 782" fill="none" xmlns="http://www.w3.org/2000/svg">
<rect width="1920" height="782" fill="white"/>
<path d="M127.772 409.04L128.54 406.16C129.404 403.04 130.22 399.392 130.988 396.08H131.18C131.996 399.344 132.86 403.04 133.724 406.16L134.444 409.04H127.772ZM137.804 422H145.292L135.5 390.704H127.004L117.212 422H124.412L126.332 414.56H135.884L137.804 422ZM156.708 406.544C156.708 417.056 163.428 422.576 171.876 422.576C176.244 422.576 180.132 420.896 182.34 418.784V404.384H170.916V410.144H176.1V415.52C175.332 416.144 174.036 416.48 172.74 416.48C166.884 416.48 163.956 412.736 163.956 406.304C163.956 400.016 167.364 396.224 172.212 396.224C174.9 396.224 176.388 397.136 177.924 398.576L181.812 394.208C179.748 392.096 176.484 390.128 172.116 390.128C163.62 390.128 156.708 396.176 156.708 406.544ZM187.979 422H195.035V408.176C196.283 404.96 198.491 403.808 200.267 403.808C201.275 403.808 201.995 403.952 202.859 404.192L204.011 398.096C203.339 397.808 202.523 397.616 201.179 397.616C198.731 397.616 196.139 399.152 194.411 402.368H194.219L193.739 398.192H187.979V422ZM204.994 410.096C204.994 417.968 210.226 422.576 217.042 422.576C219.874 422.576 223.042 421.568 225.49 419.888L223.138 415.616C221.41 416.672 219.778 417.2 218.002 417.2C214.834 417.2 212.434 415.616 211.81 412.016H226.066C226.21 411.44 226.354 410.288 226.354 409.04C226.354 402.56 222.994 397.616 216.226 397.616C210.514 397.616 204.994 402.368 204.994 410.096ZM211.762 407.648C212.242 404.48 214.162 402.992 216.37 402.992C219.202 402.992 220.354 404.912 220.354 407.648H211.762ZM229.6 415.376C229.6 419.408 232.336 422.576 236.656 422.576C239.344 422.576 241.6 421.328 243.616 419.552H243.76L244.288 422H250.048V408.368C250.048 401.072 246.688 397.616 240.592 397.616C236.848 397.616 233.44 398.912 230.416 400.736L232.912 405.392C235.216 404.048 237.232 403.232 239.248 403.232C241.792 403.232 242.848 404.576 242.992 406.688C233.584 407.648 229.6 410.384 229.6 415.376ZM236.32 414.848C236.32 413.024 237.952 411.584 242.992 410.912V415.088C241.744 416.336 240.688 417.104 239.056 417.104C237.376 417.104 236.32 416.384 236.32 414.848ZM256.814 413.36C256.814 418.88 259.118 422.576 265.022 422.576C267.326 422.576 269.054 422.096 270.302 421.712L269.198 416.576C268.574 416.816 267.71 417.056 266.942 417.056C265.07 417.056 263.87 415.952 263.87 413.264V403.712H269.582V398.192H263.87V391.856H258.014L257.198 398.192L253.55 398.48V403.712H256.814V413.36ZM284.29 422H291.346V411.392H295.714C302.338 411.392 307.954 408.128 307.954 400.784C307.954 393.2 302.482 390.704 295.714 390.704H284.29V422ZM291.346 405.776V396.32H295.282C299.026 396.32 301.042 397.52 301.042 400.784C301.042 404.048 299.17 405.776 295.282 405.776H291.346ZM312.573 414.608C312.573 419.408 314.205 422.576 319.053 422.576C320.637 422.576 321.837 422.336 322.605 422L321.741 416.768C321.357 416.864 321.165 416.864 320.877 416.864C320.301 416.864 319.629 416.384 319.629 414.896V388.352H312.573V414.608ZM325.194 415.376C325.194 419.408 327.93 422.576 332.25 422.576C334.938 422.576 337.194 421.328 339.21 419.552H339.354L339.882 422H345.642V408.368C345.642 401.072 342.282 397.616 336.186 397.616C332.442 397.616 329.034 398.912 326.01 400.736L328.506 405.392C330.81 404.048 332.826 403.232 334.842 403.232C337.386 403.232 338.442 404.576 338.586 406.688C329.178 407.648 325.194 410.384 325.194 415.376ZM331.914 414.848C331.914 413.024 333.546 411.584 338.586 410.912V415.088C337.338 416.336 336.282 417.104 334.65 417.104C332.97 417.104 331.914 416.384 331.914 414.848ZM350.056 410.096C350.056 418.016 355.192 422.576 361.816 422.576C364.408 422.576 367.432 421.616 369.736 419.6L366.904 415.136C365.752 416.048 364.36 416.864 362.632 416.864C359.56 416.864 357.304 414.224 357.304 410.096C357.304 405.968 359.464 403.328 362.872 403.328C363.976 403.328 365.032 403.76 366.184 404.72L369.4 400.352C367.816 398.72 365.368 397.616 362.44 397.616C355.864 397.616 350.056 402.176 350.056 410.096ZM370.853 410.096C370.853 417.968 376.085 422.576 382.901 422.576C385.733 422.576 388.901 421.568 391.349 419.888L388.997 415.616C387.269 416.672 385.637 417.2 383.861 417.2C380.693 417.2 378.293 415.616 377.669 412.016H391.925C392.069 411.44 392.213 410.288 392.213 409.04C392.213 402.56 388.853 397.616 382.085 397.616C376.373 397.616 370.853 402.368 370.853 410.096ZM377.621 407.648C378.101 404.48 380.021 402.992 382.229 402.992C385.061 402.992 386.213 404.912 386.213 407.648H377.621ZM413.245 422H420.349V396.656H428.941V390.704H404.653V396.656H413.245V422ZM427.947 410.096C427.947 418.016 433.515 422.576 439.563 422.576C445.563 422.576 451.131 418.016 451.131 410.096C451.131 402.176 445.563 397.616 439.563 397.616C433.515 397.616 427.947 402.176 427.947 410.096ZM435.195 410.096C435.195 405.968 436.635 403.328 439.563 403.328C442.443 403.328 443.931 405.968 443.931 410.096C443.931 414.224 442.443 416.864 439.563 416.864C436.635 416.864 435.195 414.224 435.195 410.096ZM468.808 422H477.544L480.472 407.792C481 405.392 481.384 402.848 481.768 400.544H481.96C482.296 402.848 482.68 405.392 483.208 407.792L486.28 422H495.16L500.728 390.704H493.96L491.8 405.344C491.368 408.56 490.936 411.872 490.504 415.232H490.312C489.688 411.872 489.064 408.512 488.44 405.344L485.08 390.704H479.08L475.72 405.344C475.096 408.608 474.472 411.92 473.848 415.232H473.656C473.272 411.92 472.792 408.608 472.408 405.344L470.248 390.704H463L468.808 422ZM502.853 410.096C502.853 418.016 508.421 422.576 514.469 422.576C520.469 422.576 526.037 418.016 526.037 410.096C526.037 402.176 520.469 397.616 514.469 397.616C508.421 397.616 502.853 402.176 502.853 410.096ZM510.101 410.096C510.101 405.968 511.541 403.328 514.469 403.328C517.349 403.328 518.837 405.968 518.837 410.096C518.837 414.224 517.349 416.864 514.469 416.864C511.541 416.864 510.101 414.224 510.101 410.096ZM530.62 422H537.676V408.176C538.924 404.96 541.132 403.808 542.908 403.808C543.916 403.808 544.636 403.952 545.5 404.192L546.652 398.096C545.98 397.808 545.164 397.616 543.82 397.616C541.372 397.616 538.78 399.152 537.052 402.368H536.86L536.38 398.192H530.62V422ZM549.495 422H556.359V416.144L559.383 412.736L564.759 422H572.391L563.415 407.984L571.767 398.192H564.087L556.551 407.648H556.359V388.352H549.495V422ZM141.903 472.388L143.019 468.788C143.883 466.16 144.639 463.568 145.359 460.832H145.503C146.259 463.568 147.015 466.16 147.879 468.788L148.995 472.388H141.903ZM151.983 482H155.187L147.195 458.384H143.811L135.819 482H138.879L141.147 474.8H149.751L151.983 482ZM157.782 475.592C157.782 480.056 159.438 482.432 163.146 482.432C165.558 482.432 167.286 481.172 168.906 479.264H169.014L169.266 482H171.714V464.504H168.762V476.924C167.106 478.976 165.846 479.876 164.046 479.876C161.742 479.876 160.77 478.472 160.77 475.196V464.504H157.782V475.592ZM178.12 476.6C178.12 480.056 179.38 482.432 183.124 482.432C184.204 482.432 185.392 482.108 186.364 481.784L185.788 479.552C185.212 479.768 184.42 480.02 183.808 480.02C181.792 480.02 181.108 478.796 181.108 476.636V466.916H185.824V464.504H181.108V459.608H178.624L178.264 464.504L175.528 464.684V466.916H178.12V476.6ZM188.133 473.288C188.133 479.084 191.949 482.432 196.233 482.432C200.517 482.432 204.333 479.084 204.333 473.288C204.333 467.42 200.517 464.072 196.233 464.072C191.949 464.072 188.133 467.42 188.133 473.288ZM191.193 473.288C191.193 469.256 193.245 466.52 196.233 466.52C199.257 466.52 201.273 469.256 201.273 473.288C201.273 477.284 199.257 479.984 196.233 479.984C193.245 479.984 191.193 477.284 191.193 473.288ZM208.94 482H211.892V469.328C213.656 467.564 214.88 466.628 216.68 466.628C218.984 466.628 219.992 468.032 219.992 471.308V482H222.944V470.912C222.944 466.448 221.288 464.072 217.616 464.072C215.204 464.072 213.404 465.368 211.748 467.024H211.64L211.388 464.504H208.94V482ZM227.332 473.288C227.332 479.084 231.148 482.432 235.432 482.432C239.716 482.432 243.532 479.084 243.532 473.288C243.532 467.42 239.716 464.072 235.432 464.072C231.148 464.072 227.332 467.42 227.332 473.288ZM230.392 473.288C230.392 469.256 232.444 466.52 235.432 466.52C238.456 466.52 240.472 469.256 240.472 473.288C240.472 477.284 238.456 479.984 235.432 479.984C232.444 479.984 230.392 477.284 230.392 473.288ZM248.14 482H251.092V469.328C252.712 467.528 254.188 466.628 255.484 466.628C257.716 466.628 258.76 468.032 258.76 471.308V482H261.712V469.328C263.332 467.528 264.736 466.628 266.104 466.628C268.3 466.628 269.344 468.032 269.344 471.308V482H272.296V470.912C272.296 466.448 270.568 464.072 266.968 464.072C264.844 464.072 263.044 465.44 261.208 467.42C260.488 465.332 259.048 464.072 256.384 464.072C254.296 464.072 252.46 465.368 250.948 467.024H250.84L250.588 464.504H248.14V482ZM276.799 486.824L276.223 489.164C276.799 489.38 277.483 489.524 278.275 489.524C281.803 489.524 283.603 486.896 284.827 483.44L291.415 464.504H288.535L285.403 474.188C284.935 475.736 284.431 477.536 283.927 479.12H283.783C283.243 477.5 282.631 475.7 282.091 474.188L278.527 464.504H275.467L282.487 482.036L282.091 483.332C281.371 485.492 280.111 487.076 278.131 487.076C277.699 487.076 277.159 486.932 276.799 486.824ZM138.951 542H141.939V518.384H138.951V542ZM148.12 542H151.072V529.328C152.836 527.564 154.06 526.628 155.86 526.628C158.164 526.628 159.172 528.032 159.172 531.308V542H162.124V530.912C162.124 526.448 160.468 524.072 156.796 524.072C154.384 524.072 152.584 525.368 150.928 527.024H150.82L150.568 524.504H148.12V542ZM176.339 516.512C175.547 516.188 174.503 515.936 173.423 515.936C169.931 515.936 168.311 518.168 168.311 521.732V524.504L165.935 524.684V526.916H168.311V542H171.263V526.916H174.971V524.504H171.263V521.732C171.263 519.5 172.055 518.348 173.711 518.348C174.359 518.348 175.043 518.492 175.691 518.78L176.339 516.512ZM178.319 538.472C178.319 541.028 179.219 542.432 181.451 542.432C182.243 542.432 182.747 542.324 183.143 542.144L182.747 539.912C182.423 539.984 182.279 539.984 182.099 539.984C181.667 539.984 181.271 539.624 181.271 538.688V516.368H178.319V538.472ZM187.243 535.592C187.243 540.056 188.899 542.432 192.607 542.432C195.019 542.432 196.747 541.172 198.367 539.264H198.475L198.727 542H201.175V524.504H198.223V536.924C196.567 538.976 195.307 539.876 193.507 539.876C191.203 539.876 190.231 538.472 190.231 535.196V524.504H187.243V535.592ZM205.781 533.288C205.781 539.012 209.489 542.432 214.169 542.432C216.545 542.432 218.417 541.604 219.929 540.632L218.885 538.688C217.589 539.516 216.185 540.056 214.529 540.056C211.181 540.056 208.913 537.68 208.697 533.9H220.505C220.577 533.468 220.613 532.892 220.613 532.28C220.613 527.276 218.093 524.072 213.629 524.072C209.633 524.072 205.781 527.564 205.781 533.288ZM208.661 531.956C209.021 528.428 211.253 526.412 213.701 526.412C216.437 526.412 218.021 528.392 218.021 531.956H208.661ZM224.936 542H227.888V529.328C229.652 527.564 230.876 526.628 232.676 526.628C234.98 526.628 235.988 528.032 235.988 531.308V542H238.94V530.912C238.94 526.448 237.284 524.072 233.612 524.072C231.2 524.072 229.4 525.368 227.744 527.024H227.636L227.384 524.504H224.936V542ZM243.328 533.288C243.328 539.084 246.892 542.432 251.536 542.432C253.624 542.432 255.64 541.568 257.224 540.164L255.892 538.22C254.848 539.156 253.444 539.984 251.788 539.984C248.584 539.984 246.388 537.284 246.388 533.288C246.388 529.256 248.692 526.52 251.86 526.52C253.264 526.52 254.344 527.168 255.388 528.068L256.864 526.16C255.676 525.044 254.056 524.072 251.752 524.072C247.252 524.072 243.328 527.42 243.328 533.288ZM258.972 533.288C258.972 539.012 262.68 542.432 267.36 542.432C269.736 542.432 271.608 541.604 273.12 540.632L272.076 538.688C270.78 539.516 269.376 540.056 267.72 540.056C264.372 540.056 262.104 537.68 261.888 533.9H273.696C273.768 533.468 273.804 532.892 273.804 532.28C273.804 527.276 271.284 524.072 266.82 524.072C262.824 524.072 258.972 527.564 258.972 533.288ZM261.852 531.956C262.212 528.428 264.444 526.412 266.892 526.412C269.628 526.412 271.212 528.392 271.212 531.956H261.852ZM138.951 602H152.919V599.444H141.939V590.876H150.903V588.32H141.939V580.904H152.559V578.384H138.951V602ZM157.647 602H160.599V589.328C162.363 587.564 163.587 586.628 165.387 586.628C167.691 586.628 168.699 588.032 168.699 591.308V602H171.651V590.912C171.651 586.448 169.995 584.072 166.323 584.072C163.911 584.072 162.111 585.368 160.455 587.024H160.347L160.095 584.504H157.647V602ZM178.595 604.952C178.595 603.944 179.135 602.9 180.395 602C181.151 602.216 181.979 602.288 182.663 602.288H185.687C187.955 602.288 189.215 602.828 189.215 604.448C189.215 606.284 187.019 608.012 183.671 608.012C180.503 608.012 178.595 606.824 178.595 604.952ZM176.003 605.348C176.003 608.372 178.955 610.064 183.239 610.064C188.675 610.064 192.095 607.256 192.095 604.016C192.095 601.1 190.043 599.84 185.975 599.84H182.591C180.215 599.84 179.495 599.048 179.495 597.932C179.495 596.96 179.999 596.384 180.611 595.844C181.403 596.24 182.375 596.456 183.239 596.456C186.803 596.456 189.647 594.116 189.647 590.372C189.647 588.896 189.035 587.564 188.207 586.772H191.807V584.504H185.723C185.075 584.252 184.211 584.072 183.239 584.072C179.675 584.072 176.651 586.484 176.651 590.3C176.651 592.388 177.767 594.08 178.919 595.016V595.16C178.019 595.772 177.011 596.924 177.011 598.4C177.011 599.768 177.695 600.704 178.559 601.244V601.388C176.975 602.468 176.003 603.872 176.003 605.348ZM183.239 594.476C181.223 594.476 179.531 592.856 179.531 590.3C179.531 587.744 181.187 586.232 183.239 586.232C185.291 586.232 186.947 587.744 186.947 590.3C186.947 592.856 185.255 594.476 183.239 594.476ZM194.049 597.464C194.049 600.596 196.245 602.432 199.197 602.432C201.357 602.432 203.301 601.28 204.993 599.912H205.065L205.317 602H207.765V591.272C207.765 586.916 205.965 584.072 201.681 584.072C198.873 584.072 196.425 585.296 194.805 586.34L195.993 588.392C197.361 587.456 199.161 586.52 201.213 586.52C204.057 586.52 204.813 588.68 204.813 590.912C197.361 591.74 194.049 593.648 194.049 597.464ZM196.965 597.248C196.965 595.016 198.945 593.576 204.813 592.856V597.716C203.121 599.228 201.717 600.056 200.025 600.056C198.297 600.056 196.965 599.228 196.965 597.248ZM214.595 604.952C214.595 603.944 215.135 602.9 216.395 602C217.151 602.216 217.979 602.288 218.663 602.288H221.687C223.955 602.288 225.215 602.828 225.215 604.448C225.215 606.284 223.019 608.012 219.671 608.012C216.503 608.012 214.595 606.824 214.595 604.952ZM212.003 605.348C212.003 608.372 214.955 610.064 219.239 610.064C224.675 610.064 228.095 607.256 228.095 604.016C228.095 601.1 226.043 599.84 221.975 599.84H218.591C216.215 599.84 215.495 599.048 215.495 597.932C215.495 596.96 215.999 596.384 216.611 595.844C217.403 596.24 218.375 596.456 219.239 596.456C222.803 596.456 225.647 594.116 225.647 590.372C225.647 588.896 225.035 587.564 224.207 586.772H227.807V584.504H221.723C221.075 584.252 220.211 584.072 219.239 584.072C215.675 584.072 212.651 586.484 212.651 590.3C212.651 592.388 213.767 594.08 214.919 595.016V595.16C214.019 595.772 213.011 596.924 213.011 598.4C213.011 599.768 213.695 600.704 214.559 601.244V601.388C212.975 602.468 212.003 603.872 212.003 605.348ZM219.239 594.476C217.223 594.476 215.531 592.856 215.531 590.3C215.531 587.744 217.187 586.232 219.239 586.232C221.291 586.232 222.947 587.744 222.947 590.3C222.947 592.856 221.255 594.476 219.239 594.476ZM229.687 593.288C229.687 599.012 233.395 602.432 238.075 602.432C240.451 602.432 242.323 601.604 243.835 600.632L242.791 598.688C241.495 599.516 240.091 600.056 238.435 600.056C235.087 600.056 232.819 597.68 232.603 593.9H244.411C244.483 593.468 244.519 592.892 244.519 592.28C244.519 587.276 241.999 584.072 237.535 584.072C233.539 584.072 229.687 587.564 229.687 593.288ZM232.567 591.956C232.927 588.428 235.159 586.412 237.607 586.412C240.343 586.412 241.927 588.392 241.927 591.956H232.567ZM248.843 602H251.795V589.328C253.415 587.528 254.891 586.628 256.187 586.628C258.419 586.628 259.463 588.032 259.463 591.308V602H262.415V589.328C264.035 587.528 265.439 586.628 266.807 586.628C269.003 586.628 270.047 588.032 270.047 591.308V602H272.999V590.912C272.999 586.448 271.271 584.072 267.671 584.072C265.547 584.072 263.747 585.44 261.911 587.42C261.191 585.332 259.751 584.072 257.087 584.072C254.999 584.072 253.163 585.368 251.651 587.024H251.543L251.291 584.504H248.843V602ZM277.394 593.288C277.394 599.012 281.102 602.432 285.782 602.432C288.158 602.432 290.03 601.604 291.542 600.632L290.498 598.688C289.202 599.516 287.798 600.056 286.142 600.056C282.794 600.056 280.526 597.68 280.31 593.9H292.118C292.19 593.468 292.226 592.892 292.226 592.28C292.226 587.276 289.706 584.072 285.242 584.072C281.246 584.072 277.394 587.564 277.394 593.288ZM280.274 591.956C280.634 588.428 282.866 586.412 285.314 586.412C288.05 586.412 289.634 588.392 289.634 591.956H280.274ZM296.55 602H299.502V589.328C301.266 587.564 302.49 586.628 304.29 586.628C306.594 586.628 307.602 588.032 307.602 591.308V602H310.554V590.912C310.554 586.448 308.898 584.072 305.226 584.072C302.814 584.072 301.014 585.368 299.358 587.024H299.25L298.998 584.504H296.55V602ZM316.741 596.6C316.741 600.056 318.001 602.432 321.745 602.432C322.825 602.432 324.013 602.108 324.985 601.784L324.409 599.552C323.833 599.768 323.041 600.02 322.429 600.02C320.413 600.02 319.729 598.796 319.729 596.636V586.916H324.445V584.504H319.729V579.608H317.245L316.885 584.504L314.149 584.684V586.916H316.741V596.6Z" fill="#2B2B2B"/>
<path d="M122.972 476.852C125.132 476.852 127.004 475.124 127.004 472.532C127.004 469.94 125.132 468.176 122.972 468.176C120.812 468.176 118.94 469.94 118.94 472.532C118.94 475.124 120.812 476.852 122.972 476.852ZM122.972 536.852C125.132 536.852 127.004 535.124 127.004 532.532C127.004 529.94 125.132 528.176 122.972 528.176C120.812 528.176 118.94 529.94 118.94 532.532C118.94 535.124 120.812 536.852 122.972 536.852ZM122.972 596.852C125.132 596.852 127.004 595.124 127.004 592.532C127.004 589.94 125.132 588.176 122.972 588.176C120.812 588.176 118.94 589.94 118.94 592.532C118.94 595.124 120.812 596.852 122.972 596.852Z" fill="#009CDE"/>
<path d="M688.772 409.04L689.54 406.16C690.404 403.04 691.22 399.392 691.988 396.08H692.18C692.996 399.344 693.86 403.04 694.724 406.16L695.444 409.04H688.772ZM698.804 422H706.292L696.5 390.704H688.004L678.212 422H685.412L687.332 414.56H696.884L698.804 422ZM717.708 406.544C717.708 417.056 724.332 422.576 732.444 422.576C736.332 422.576 739.788 420.992 742.38 417.968L738.492 413.696C736.956 415.376 735.084 416.48 732.54 416.48C727.932 416.48 724.956 412.736 724.956 406.304C724.956 400.016 728.364 396.224 732.732 396.224C734.892 396.224 736.428 397.136 738.012 398.576L741.9 394.208C739.788 392.048 736.524 390.128 732.636 390.128C724.572 390.128 717.708 396.176 717.708 406.544ZM746.308 414.608C746.308 419.408 747.94 422.576 752.788 422.576C754.372 422.576 755.572 422.336 756.34 422L755.476 416.768C755.092 416.864 754.9 416.864 754.612 416.864C754.036 416.864 753.364 416.384 753.364 414.896V388.352H746.308V414.608ZM758.4 410.096C758.4 417.968 763.632 422.576 770.448 422.576C773.28 422.576 776.448 421.568 778.896 419.888L776.544 415.616C774.816 416.672 773.184 417.2 771.408 417.2C768.24 417.2 765.84 415.616 765.216 412.016H779.472C779.616 411.44 779.76 410.288 779.76 409.04C779.76 402.56 776.4 397.616 769.632 397.616C763.92 397.616 758.4 402.368 758.4 410.096ZM765.168 407.648C765.648 404.48 767.568 402.992 769.776 402.992C772.608 402.992 773.76 404.912 773.76 407.648H765.168ZM783.006 415.376C783.006 419.408 785.742 422.576 790.062 422.576C792.75 422.576 795.006 421.328 797.022 419.552H797.166L797.694 422H803.454V408.368C803.454 401.072 800.094 397.616 793.998 397.616C790.254 397.616 786.846 398.912 783.822 400.736L786.318 405.392C788.622 404.048 790.638 403.232 792.654 403.232C795.198 403.232 796.254 404.576 796.398 406.688C786.99 407.648 783.006 410.384 783.006 415.376ZM789.726 414.848C789.726 413.024 791.358 411.584 796.398 410.912V415.088C795.15 416.336 794.094 417.104 792.462 417.104C790.782 417.104 789.726 416.384 789.726 414.848ZM809.261 422H816.317V408.176C817.565 404.96 819.773 403.808 821.549 403.808C822.557 403.808 823.277 403.952 824.141 404.192L825.293 398.096C824.621 397.808 823.805 397.616 822.461 397.616C820.013 397.616 817.421 399.152 815.693 402.368H815.501L815.021 398.192H809.261V422ZM838.446 422H845.502V411.392H849.87C856.494 411.392 862.11 408.128 862.11 400.784C862.11 393.2 856.638 390.704 849.87 390.704H838.446V422ZM845.502 405.776V396.32H849.438C853.182 396.32 855.198 397.52 855.198 400.784C855.198 404.048 853.326 405.776 849.438 405.776H845.502ZM864.225 415.376C864.225 419.408 866.961 422.576 871.281 422.576C873.969 422.576 876.225 421.328 878.241 419.552H878.385L878.913 422H884.673V408.368C884.673 401.072 881.313 397.616 875.217 397.616C871.473 397.616 868.065 398.912 865.041 400.736L867.537 405.392C869.841 404.048 871.857 403.232 873.873 403.232C876.417 403.232 877.473 404.576 877.617 406.688C868.209 407.648 864.225 410.384 864.225 415.376ZM870.945 414.848C870.945 413.024 872.577 411.584 877.617 410.912V415.088C876.369 416.336 875.313 417.104 873.681 417.104C872.001 417.104 870.945 416.384 870.945 414.848ZM891.439 413.36C891.439 418.88 893.743 422.576 899.647 422.576C901.951 422.576 903.679 422.096 904.927 421.712L903.823 416.576C903.199 416.816 902.335 417.056 901.567 417.056C899.695 417.056 898.495 415.952 898.495 413.264V403.712H904.207V398.192H898.495V391.856H892.639L891.823 398.192L888.175 398.48V403.712H891.439V413.36ZM908.604 422H915.66V405.92C917.196 404.432 918.3 403.616 920.076 403.616C922.092 403.616 923.004 404.672 923.004 408.128V422H930.06V407.216C930.06 401.264 927.852 397.616 922.668 397.616C919.452 397.616 917.1 399.296 915.324 400.88L915.66 396.608V388.352H908.604V422ZM952.183 422H959.287V396.656H967.879V390.704H943.591V396.656H952.183V422ZM966.884 410.096C966.884 418.016 972.452 422.576 978.5 422.576C984.5 422.576 990.068 418.016 990.068 410.096C990.068 402.176 984.5 397.616 978.5 397.616C972.452 397.616 966.884 402.176 966.884 410.096ZM974.132 410.096C974.132 405.968 975.572 403.328 978.5 403.328C981.38 403.328 982.868 405.968 982.868 410.096C982.868 414.224 981.38 416.864 978.5 416.864C975.572 416.864 974.132 414.224 974.132 410.096ZM1002.95 418.064C1006.11 421.04 1010.43 422.576 1014.51 422.576C1022 422.576 1026.32 418.064 1026.32 412.88C1026.32 408.464 1023.92 405.92 1020.13 404.384L1016.1 402.752C1013.41 401.648 1011.35 400.976 1011.35 399.056C1011.35 397.28 1012.88 396.224 1015.33 396.224C1017.83 396.224 1019.75 397.136 1021.81 398.72L1025.41 394.256C1022.72 391.568 1018.93 390.128 1015.33 390.128C1008.8 390.128 1004.19 394.256 1004.19 399.44C1004.19 404 1007.27 406.688 1010.48 407.984L1014.56 409.712C1017.3 410.864 1019.07 411.488 1019.07 413.456C1019.07 415.328 1017.63 416.48 1014.71 416.48C1012.11 416.48 1009.23 415.136 1006.98 413.216L1002.95 418.064ZM1030.57 412.976C1030.57 418.928 1032.78 422.576 1037.96 422.576C1041.22 422.576 1043.43 421.088 1045.45 418.688H1045.59L1046.12 422H1051.88V398.192H1044.82V413.936C1043.43 415.808 1042.38 416.576 1040.6 416.576C1038.54 416.576 1037.62 415.472 1037.62 412.064V398.192H1030.57V412.976ZM1056.45 410.096C1056.45 418.016 1061.58 422.576 1068.21 422.576C1070.8 422.576 1073.82 421.616 1076.13 419.6L1073.29 415.136C1072.14 416.048 1070.75 416.864 1069.02 416.864C1065.95 416.864 1063.69 414.224 1063.69 410.096C1063.69 405.968 1065.85 403.328 1069.26 403.328C1070.37 403.328 1071.42 403.76 1072.57 404.72L1075.79 400.352C1074.21 398.72 1071.76 397.616 1068.83 397.616C1062.25 397.616 1056.45 402.176 1056.45 410.096ZM1077.24 410.096C1077.24 418.016 1082.38 422.576 1089 422.576C1091.6 422.576 1094.62 421.616 1096.92 419.6L1094.09 415.136C1092.94 416.048 1091.55 416.864 1089.82 416.864C1086.75 416.864 1084.49 414.224 1084.49 410.096C1084.49 405.968 1086.65 403.328 1090.06 403.328C1091.16 403.328 1092.22 403.76 1093.37 404.72L1096.59 400.352C1095 398.72 1092.56 397.616 1089.63 397.616C1083.05 397.616 1077.24 402.176 1077.24 410.096ZM1098.04 410.096C1098.04 417.968 1103.27 422.576 1110.09 422.576C1112.92 422.576 1116.09 421.568 1118.54 419.888L1116.18 415.616C1114.46 416.672 1112.82 417.2 1111.05 417.2C1107.88 417.2 1105.48 415.616 1104.86 412.016H1119.11C1119.26 411.44 1119.4 410.288 1119.4 409.04C1119.4 402.56 1116.04 397.616 1109.27 397.616C1103.56 397.616 1098.04 402.368 1098.04 410.096ZM1104.81 407.648C1105.29 404.48 1107.21 402.992 1109.42 402.992C1112.25 402.992 1113.4 404.912 1113.4 407.648H1104.81ZM1121.91 419.264C1124.31 421.232 1127.91 422.576 1131.03 422.576C1137.42 422.576 1140.83 419.216 1140.83 414.896C1140.83 410.528 1137.42 408.848 1134.39 407.744C1131.95 406.832 1129.74 406.256 1129.74 404.72C1129.74 403.52 1130.6 402.848 1132.43 402.848C1134.11 402.848 1135.74 403.616 1137.47 404.864L1140.63 400.64C1138.57 399.104 1135.88 397.616 1132.23 397.616C1126.71 397.616 1123.11 400.64 1123.11 405.056C1123.11 408.992 1126.52 410.96 1129.4 412.064C1131.85 413.024 1134.25 413.744 1134.25 415.328C1134.25 416.576 1133.34 417.344 1131.23 417.344C1129.21 417.344 1127.24 416.48 1125.08 414.848L1121.91 419.264ZM1142.95 419.264C1145.35 421.232 1148.95 422.576 1152.07 422.576C1158.45 422.576 1161.86 419.216 1161.86 414.896C1161.86 410.528 1158.45 408.848 1155.43 407.744C1152.98 406.832 1150.77 406.256 1150.77 404.72C1150.77 403.52 1151.63 402.848 1153.46 402.848C1155.14 402.848 1156.77 403.616 1158.5 404.864L1161.67 400.64C1159.6 399.104 1156.91 397.616 1153.27 397.616C1147.75 397.616 1144.15 400.64 1144.15 405.056C1144.15 408.992 1147.55 410.96 1150.43 412.064C1152.88 413.024 1155.28 413.744 1155.28 415.328C1155.28 416.576 1154.37 417.344 1152.26 417.344C1150.24 417.344 1148.27 416.48 1146.11 414.848L1142.95 419.264Z" fill="black"/>
<path d="M683.972 472.852C686.132 472.852 688.004 471.124 688.004 468.532C688.004 465.94 686.132 464.176 683.972 464.176C681.812 464.176 679.94 465.94 679.94 468.532C679.94 471.124 681.812 472.852 683.972 472.852ZM683.972 528.852C686.132 528.852 688.004 527.124 688.004 524.532C688.004 521.94 686.132 520.176 683.972 520.176C681.812 520.176 679.94 521.94 679.94 524.532C679.94 527.124 681.812 528.852 683.972 528.852ZM683.972 584.852C686.132 584.852 688.004 583.124 688.004 580.532C688.004 577.94 686.132 576.176 683.972 576.176C681.812 576.176 679.94 577.94 679.94 580.532C679.94 583.124 681.812 584.852 683.972 584.852Z" fill="#009CDE"/>
<path d="M698.083 466.192C698.083 473.896 702.475 478.432 708.415 478.432C711.439 478.432 713.743 477.172 715.615 475.012L713.923 473.176C712.411 474.868 710.755 475.804 708.487 475.804C704.023 475.804 701.179 472.06 701.179 466.12C701.179 460.252 704.131 456.58 708.631 456.58C710.611 456.58 712.123 457.444 713.347 458.776L715.039 456.868C713.671 455.32 711.439 453.952 708.595 453.952C702.547 453.952 698.083 458.596 698.083 466.192ZM719.479 474.472C719.479 477.028 720.379 478.432 722.611 478.432C723.403 478.432 723.907 478.324 724.303 478.144L723.907 475.912C723.583 475.984 723.439 475.984 723.259 475.984C722.827 475.984 722.431 475.624 722.431 474.688V452.368H719.479V474.472ZM727.541 473.464C727.541 476.596 729.737 478.432 732.689 478.432C734.849 478.432 736.793 477.28 738.485 475.912H738.557L738.809 478H741.257V467.272C741.257 462.916 739.457 460.072 735.173 460.072C732.365 460.072 729.917 461.296 728.297 462.34L729.485 464.392C730.853 463.456 732.653 462.52 734.705 462.52C737.549 462.52 738.305 464.68 738.305 466.912C730.853 467.74 727.541 469.648 727.541 473.464ZM730.457 473.248C730.457 471.016 732.437 469.576 738.305 468.856V473.716C736.613 475.228 735.209 476.056 733.517 476.056C731.789 476.056 730.457 475.228 730.457 473.248ZM746.577 478H749.529V466.768C750.717 463.816 752.481 462.736 753.957 462.736C754.677 462.736 755.073 462.844 755.649 463.024L756.225 460.432C755.649 460.18 755.109 460.072 754.353 460.072C752.373 460.072 750.573 461.476 749.385 463.672H749.277L749.025 460.504H746.577V478ZM760.319 456.904C761.471 456.904 762.371 456.112 762.371 454.996C762.371 453.844 761.471 453.088 760.319 453.088C759.167 453.088 758.267 453.844 758.267 454.996C758.267 456.112 759.167 456.904 760.319 456.904ZM758.807 478H761.759V460.504H758.807V478ZM767.921 472.6C767.921 476.056 769.181 478.432 772.925 478.432C774.005 478.432 775.193 478.108 776.165 477.784L775.589 475.552C775.013 475.768 774.221 476.02 773.609 476.02C771.593 476.02 770.909 474.796 770.909 472.636V462.916H775.625V460.504H770.909V455.608H768.425L768.065 460.504L765.329 460.684V462.916H767.921V472.6ZM778.143 482.824L777.567 485.164C778.143 485.38 778.827 485.524 779.619 485.524C783.147 485.524 784.947 482.896 786.171 479.44L792.759 460.504H789.879L786.747 470.188C786.279 471.736 785.775 473.536 785.271 475.12H785.127C784.587 473.5 783.975 471.7 783.435 470.188L779.871 460.504H776.811L783.831 478.036L783.435 479.332C782.715 481.492 781.455 483.076 779.475 483.076C779.043 483.076 778.503 482.932 778.143 482.824ZM704.347 534H707.371V512.904H714.499V510.384H697.219V512.904H704.347V534ZM716.561 534H719.513V522.768C720.701 519.816 722.465 518.736 723.941 518.736C724.661 518.736 725.057 518.844 725.633 519.024L726.209 516.432C725.633 516.18 725.093 516.072 724.337 516.072C722.357 516.072 720.557 517.476 719.369 519.672H719.261L719.009 516.504H716.561V534ZM727.014 529.464C727.014 532.596 729.21 534.432 732.162 534.432C734.322 534.432 736.266 533.28 737.958 531.912H738.03L738.282 534H740.73V523.272C740.73 518.916 738.93 516.072 734.646 516.072C731.838 516.072 729.39 517.296 727.77 518.34L728.958 520.392C730.326 519.456 732.126 518.52 734.178 518.52C737.022 518.52 737.778 520.68 737.778 522.912C730.326 523.74 727.014 525.648 727.014 529.464ZM729.93 529.248C729.93 527.016 731.91 525.576 737.778 524.856V529.716C736.086 531.228 734.682 532.056 732.99 532.056C731.262 532.056 729.93 531.228 729.93 529.248ZM746.05 534H749.002V521.328C750.766 519.564 751.99 518.628 753.79 518.628C756.094 518.628 757.102 520.032 757.102 523.308V534H760.054V522.912C760.054 518.448 758.398 516.072 754.726 516.072C752.314 516.072 750.514 517.368 748.858 519.024H748.75L748.498 516.504H746.05V534ZM763.543 532.02C765.199 533.388 767.575 534.432 770.059 534.432C774.199 534.432 776.467 532.056 776.467 529.212C776.467 525.9 773.659 524.856 771.139 523.92C769.159 523.164 767.251 522.552 767.251 520.896C767.251 519.564 768.259 518.376 770.455 518.376C772.003 518.376 773.263 519.024 774.451 519.924L775.855 518.052C774.523 516.972 772.615 516.072 770.419 516.072C766.639 516.072 764.407 518.232 764.407 521.04C764.407 523.992 767.143 525.18 769.627 526.08C771.535 526.8 773.623 527.592 773.623 529.392C773.623 530.904 772.471 532.128 770.167 532.128C768.079 532.128 766.531 531.264 765.019 530.04L763.543 532.02ZM783.199 532.416C784.819 533.676 786.439 534.432 788.059 534.432C792.055 534.432 795.619 530.94 795.619 525C795.619 519.564 793.207 516.072 788.707 516.072C786.655 516.072 784.711 517.188 783.127 518.52H783.019L782.767 516.504H780.319V541.38H783.271V535.476L783.199 532.416ZM783.271 530.112V520.932C784.999 519.384 786.475 518.556 787.951 518.556C791.263 518.556 792.559 521.148 792.559 525C792.559 529.32 790.435 531.948 787.555 531.948C786.403 531.948 784.855 531.444 783.271 530.112ZM798.682 529.464C798.682 532.596 800.878 534.432 803.83 534.432C805.99 534.432 807.934 533.28 809.626 531.912H809.698L809.95 534H812.398V523.272C812.398 518.916 810.598 516.072 806.314 516.072C803.506 516.072 801.058 517.296 799.438 518.34L800.626 520.392C801.994 519.456 803.794 518.52 805.846 518.52C808.69 518.52 809.446 520.68 809.446 522.912C801.994 523.74 798.682 525.648 798.682 529.464ZM801.598 529.248C801.598 527.016 803.578 525.576 809.446 524.856V529.716C807.754 531.228 806.35 532.056 804.658 532.056C802.93 532.056 801.598 531.228 801.598 529.248ZM817.718 534H820.67V522.768C821.858 519.816 823.622 518.736 825.098 518.736C825.818 518.736 826.214 518.844 826.79 519.024L827.366 516.432C826.79 516.18 826.25 516.072 825.494 516.072C823.514 516.072 821.714 517.476 820.526 519.672H820.418L820.166 516.504H817.718V534ZM828.301 525.288C828.301 531.012 832.009 534.432 836.689 534.432C839.065 534.432 840.937 533.604 842.449 532.632L841.405 530.688C840.109 531.516 838.705 532.056 837.049 532.056C833.701 532.056 831.433 529.68 831.217 525.9H843.025C843.097 525.468 843.133 524.892 843.133 524.28C843.133 519.276 840.613 516.072 836.149 516.072C832.153 516.072 828.301 519.564 828.301 525.288ZM831.181 523.956C831.541 520.428 833.773 518.412 836.221 518.412C838.957 518.412 840.541 520.392 840.541 523.956H831.181ZM847.206 534H850.158V521.328C851.922 519.564 853.146 518.628 854.946 518.628C857.25 518.628 858.258 520.032 858.258 523.308V534H861.21V522.912C861.21 518.448 859.554 516.072 855.882 516.072C853.47 516.072 851.67 517.368 850.014 519.024H849.906L849.654 516.504H847.206V534ZM865.347 525.288C865.347 531.084 868.911 534.432 873.555 534.432C875.643 534.432 877.659 533.568 879.243 532.164L877.911 530.22C876.867 531.156 875.463 531.984 873.807 531.984C870.603 531.984 868.407 529.284 868.407 525.288C868.407 521.256 870.711 518.52 873.879 518.52C875.283 518.52 876.363 519.168 877.407 520.068L878.883 518.16C877.695 517.044 876.075 516.072 873.771 516.072C869.271 516.072 865.347 519.42 865.347 525.288ZM881.834 538.824L881.258 541.164C881.834 541.38 882.518 541.524 883.31 541.524C886.838 541.524 888.638 538.896 889.862 535.44L896.45 516.504H893.57L890.438 526.188C889.97 527.736 889.466 529.536 888.962 531.12H888.818C888.278 529.5 887.666 527.7 887.126 526.188L883.562 516.504H880.502L887.522 534.036L887.126 535.332C886.406 537.492 885.146 539.076 883.166 539.076C882.734 539.076 882.194 538.932 881.834 538.824ZM699.451 590H702.439V579.416H711.439V576.896H702.439V568.904H713.059V566.384H699.451V590ZM714.914 581.288C714.914 587.084 718.73 590.432 723.014 590.432C727.298 590.432 731.114 587.084 731.114 581.288C731.114 575.42 727.298 572.072 723.014 572.072C718.73 572.072 714.914 575.42 714.914 581.288ZM717.974 581.288C717.974 577.256 720.026 574.52 723.014 574.52C726.038 574.52 728.054 577.256 728.054 581.288C728.054 585.284 726.038 587.984 723.014 587.984C720.026 587.984 717.974 585.284 717.974 581.288ZM734.176 581.288C734.176 587.084 737.74 590.432 742.384 590.432C744.472 590.432 746.488 589.568 748.072 588.164L746.74 586.22C745.696 587.156 744.292 587.984 742.636 587.984C739.432 587.984 737.236 585.284 737.236 581.288C737.236 577.256 739.54 574.52 742.708 574.52C744.112 574.52 745.192 575.168 746.236 576.068L747.712 574.16C746.524 573.044 744.904 572.072 742.6 572.072C738.1 572.072 734.176 575.42 734.176 581.288ZM751.388 583.592C751.388 588.056 753.044 590.432 756.752 590.432C759.164 590.432 760.892 589.172 762.512 587.264H762.62L762.872 590H765.32V572.504H762.368V584.924C760.712 586.976 759.452 587.876 757.652 587.876C755.348 587.876 754.376 586.472 754.376 583.196V572.504H751.388V583.592ZM769.028 588.02C770.684 589.388 773.06 590.432 775.544 590.432C779.684 590.432 781.952 588.056 781.952 585.212C781.952 581.9 779.144 580.856 776.624 579.92C774.644 579.164 772.736 578.552 772.736 576.896C772.736 575.564 773.744 574.376 775.94 574.376C777.488 574.376 778.748 575.024 779.936 575.924L781.34 574.052C780.008 572.972 778.1 572.072 775.904 572.072C772.124 572.072 769.892 574.232 769.892 577.04C769.892 579.992 772.628 581.18 775.112 582.08C777.02 582.8 779.108 583.592 779.108 585.392C779.108 586.904 777.956 588.128 775.652 588.128C773.564 588.128 772.016 587.264 770.504 586.04L769.028 588.02Z" fill="#2B2B2B"/>
<path d="M1241.71 406.544C1241.71 417.056 1248.33 422.576 1256.44 422.576C1260.33 422.576 1263.79 420.992 1266.38 417.968L1262.49 413.696C1260.96 415.376 1259.08 416.48 1256.54 416.48C1251.93 416.48 1248.96 412.736 1248.96 406.304C1248.96 400.016 1252.36 396.224 1256.73 396.224C1258.89 396.224 1260.43 397.136 1262.01 398.576L1265.9 394.208C1263.79 392.048 1260.52 390.128 1256.64 390.128C1248.57 390.128 1241.71 396.176 1241.71 406.544ZM1268.92 410.096C1268.92 418.016 1274.48 422.576 1280.53 422.576C1286.53 422.576 1292.1 418.016 1292.1 410.096C1292.1 402.176 1286.53 397.616 1280.53 397.616C1274.48 397.616 1268.92 402.176 1268.92 410.096ZM1276.16 410.096C1276.16 405.968 1277.6 403.328 1280.53 403.328C1283.41 403.328 1284.9 405.968 1284.9 410.096C1284.9 414.224 1283.41 416.864 1280.53 416.864C1277.6 416.864 1276.16 414.224 1276.16 410.096ZM1296.68 422H1303.74V405.92C1305.27 404.432 1306.38 403.616 1308.15 403.616C1310.17 403.616 1311.08 404.672 1311.08 408.128V422H1318.14V407.216C1318.14 401.264 1315.93 397.616 1310.75 397.616C1307.53 397.616 1305.13 399.296 1303.11 401.216H1302.92L1302.44 398.192H1296.68V422ZM1321.79 419.264C1324.19 421.232 1327.79 422.576 1330.91 422.576C1337.29 422.576 1340.7 419.216 1340.7 414.896C1340.7 410.528 1337.29 408.848 1334.27 407.744C1331.82 406.832 1329.61 406.256 1329.61 404.72C1329.61 403.52 1330.48 402.848 1332.3 402.848C1333.98 402.848 1335.61 403.616 1337.34 404.864L1340.51 400.64C1338.45 399.104 1335.76 397.616 1332.11 397.616C1326.59 397.616 1322.99 400.64 1322.99 405.056C1322.99 408.992 1326.4 410.96 1329.28 412.064C1331.73 413.024 1334.13 413.744 1334.13 415.328C1334.13 416.576 1333.21 417.344 1331.1 417.344C1329.09 417.344 1327.12 416.48 1324.96 414.848L1321.79 419.264ZM1348.44 394.688C1350.84 394.688 1352.52 393.152 1352.52 390.992C1352.52 388.832 1350.84 387.344 1348.44 387.344C1346.08 387.344 1344.36 388.832 1344.36 390.992C1344.36 393.152 1346.08 394.688 1348.44 394.688ZM1344.93 422H1351.99V398.192H1344.93V422ZM1355.84 419.264C1358.24 421.232 1361.84 422.576 1364.96 422.576C1371.34 422.576 1374.75 419.216 1374.75 414.896C1374.75 410.528 1371.34 408.848 1368.32 407.744C1365.87 406.832 1363.66 406.256 1363.66 404.72C1363.66 403.52 1364.52 402.848 1366.35 402.848C1368.03 402.848 1369.66 403.616 1371.39 404.864L1374.56 400.64C1372.49 399.104 1369.8 397.616 1366.16 397.616C1360.64 397.616 1357.04 400.64 1357.04 405.056C1357.04 408.992 1360.44 410.96 1363.32 412.064C1365.77 413.024 1368.17 413.744 1368.17 415.328C1368.17 416.576 1367.26 417.344 1365.15 417.344C1363.13 417.344 1361.16 416.48 1359 414.848L1355.84 419.264ZM1379.94 413.36C1379.94 418.88 1382.24 422.576 1388.15 422.576C1390.45 422.576 1392.18 422.096 1393.43 421.712L1392.32 416.576C1391.7 416.816 1390.84 417.056 1390.07 417.056C1388.2 417.056 1387 415.952 1387 413.264V403.712H1392.71V398.192H1387V391.856H1381.14L1380.32 398.192L1376.68 398.48V403.712H1379.94V413.36ZM1395.24 410.096C1395.24 417.968 1400.48 422.576 1407.29 422.576C1410.12 422.576 1413.29 421.568 1415.74 419.888L1413.39 415.616C1411.66 416.672 1410.03 417.2 1408.25 417.2C1405.08 417.2 1402.68 415.616 1402.06 412.016H1416.32C1416.46 411.44 1416.6 410.288 1416.6 409.04C1416.6 402.56 1413.24 397.616 1406.48 397.616C1400.76 397.616 1395.24 402.368 1395.24 410.096ZM1402.01 407.648C1402.49 404.48 1404.41 402.992 1406.62 402.992C1409.45 402.992 1410.6 404.912 1410.6 407.648H1402.01ZM1421.23 422H1428.29V405.92C1429.82 404.432 1430.93 403.616 1432.7 403.616C1434.72 403.616 1435.63 404.672 1435.63 408.128V422H1442.69V407.216C1442.69 401.264 1440.48 397.616 1435.29 397.616C1432.08 397.616 1429.68 399.296 1427.66 401.216H1427.47L1426.99 398.192H1421.23V422ZM1449.41 413.36C1449.41 418.88 1451.71 422.576 1457.62 422.576C1459.92 422.576 1461.65 422.096 1462.9 421.712L1461.79 416.576C1461.17 416.816 1460.3 417.056 1459.54 417.056C1457.66 417.056 1456.46 415.952 1456.46 413.264V403.712H1462.18V398.192H1456.46V391.856H1450.61L1449.79 398.192L1446.14 398.48V403.712H1449.41V413.36ZM1466.57 414.608C1466.57 419.408 1468.21 422.576 1473.05 422.576C1474.64 422.576 1475.84 422.336 1476.61 422L1475.74 416.768C1475.36 416.864 1475.17 416.864 1474.88 416.864C1474.3 416.864 1473.63 416.384 1473.63 414.896V388.352H1466.57V414.608ZM1480.59 425.456L1479.34 430.832C1480.3 431.12 1481.26 431.312 1482.7 431.312C1488.31 431.312 1490.86 428.24 1493.11 422.24L1501.37 398.192H1494.6L1491.72 408.416C1491.15 410.672 1490.62 412.928 1490.09 415.184H1489.9C1489.27 412.832 1488.7 410.576 1488.03 408.416L1484.62 398.192H1477.51L1486.68 421.376L1486.35 422.624C1485.72 424.496 1484.52 425.744 1482.17 425.744C1481.64 425.744 1481.02 425.552 1480.59 425.456ZM1515.15 422H1522.21V408.944H1533.01V422H1540.11V390.704H1533.01V402.752H1522.21V390.704H1515.15V422ZM1550.17 394.688C1552.57 394.688 1554.25 393.152 1554.25 390.992C1554.25 388.832 1552.57 387.344 1550.17 387.344C1547.82 387.344 1546.09 388.832 1546.09 390.992C1546.09 393.152 1547.82 394.688 1550.17 394.688ZM1546.67 422H1553.72V398.192H1546.67V422ZM1560.64 413.36C1560.64 418.88 1562.95 422.576 1568.85 422.576C1571.15 422.576 1572.88 422.096 1574.13 421.712L1573.03 416.576C1572.4 416.816 1571.54 417.056 1570.77 417.056C1568.9 417.056 1567.7 415.952 1567.7 413.264V403.712H1573.41V398.192H1567.7V391.856H1561.84L1561.03 398.192L1557.38 398.48V403.712H1560.64V413.36ZM1600.84 422.576C1609.29 422.576 1615.05 416.432 1615.05 406.208C1615.05 396.032 1609.29 390.128 1600.84 390.128C1592.39 390.128 1586.63 395.984 1586.63 406.208C1586.63 416.432 1592.39 422.576 1600.84 422.576ZM1600.84 416.48C1596.57 416.48 1593.88 412.496 1593.88 406.208C1593.88 399.968 1596.57 396.224 1600.84 396.224C1605.11 396.224 1607.8 399.968 1607.8 406.208C1607.8 412.496 1605.11 416.48 1600.84 416.48ZM1619.86 412.976C1619.86 418.928 1622.07 422.576 1627.26 422.576C1630.52 422.576 1632.73 421.088 1634.74 418.688H1634.89L1635.42 422H1641.18V398.192H1634.12V413.936C1632.73 415.808 1631.67 416.576 1629.9 416.576C1627.83 416.576 1626.92 415.472 1626.92 412.064V398.192H1619.86V412.976ZM1647.14 422H1654.19V408.176C1655.44 404.96 1657.65 403.808 1659.42 403.808C1660.43 403.808 1661.15 403.952 1662.02 404.192L1663.17 398.096C1662.5 397.808 1661.68 397.616 1660.34 397.616C1657.89 397.616 1655.3 399.152 1653.57 402.368H1653.38L1652.9 398.192H1647.14V422ZM1674.83 406.544C1674.83 417.056 1681.55 422.576 1690 422.576C1694.37 422.576 1698.26 420.896 1700.47 418.784V404.384H1689.04V410.144H1694.23V415.52C1693.46 416.144 1692.16 416.48 1690.87 416.48C1685.01 416.48 1682.08 412.736 1682.08 406.304C1682.08 400.016 1685.49 396.224 1690.34 396.224C1693.03 396.224 1694.51 397.136 1696.05 398.576L1699.94 394.208C1697.87 392.096 1694.61 390.128 1690.24 390.128C1681.75 390.128 1674.83 396.176 1674.83 406.544ZM1704.71 410.096C1704.71 418.016 1710.28 422.576 1716.33 422.576C1722.33 422.576 1727.9 418.016 1727.9 410.096C1727.9 402.176 1722.33 397.616 1716.33 397.616C1710.28 397.616 1704.71 402.176 1704.71 410.096ZM1711.96 410.096C1711.96 405.968 1713.4 403.328 1716.33 403.328C1719.21 403.328 1720.7 405.968 1720.7 410.096C1720.7 414.224 1719.21 416.864 1716.33 416.864C1713.4 416.864 1711.96 414.224 1711.96 410.096ZM1731.1 415.376C1731.1 419.408 1733.84 422.576 1738.16 422.576C1740.84 422.576 1743.1 421.328 1745.12 419.552H1745.26L1745.79 422H1751.55V408.368C1751.55 401.072 1748.19 397.616 1742.09 397.616C1738.35 397.616 1734.94 398.912 1731.92 400.736L1734.41 405.392C1736.72 404.048 1738.73 403.232 1740.75 403.232C1743.29 403.232 1744.35 404.576 1744.49 406.688C1735.08 407.648 1731.1 410.384 1731.1 415.376ZM1737.82 414.848C1737.82 413.024 1739.45 411.584 1744.49 410.912V415.088C1743.24 416.336 1742.19 417.104 1740.56 417.104C1738.88 417.104 1737.82 416.384 1737.82 414.848ZM1757.35 414.608C1757.35 419.408 1758.99 422.576 1763.83 422.576C1765.42 422.576 1766.62 422.336 1767.39 422L1766.52 416.768C1766.14 416.864 1765.95 416.864 1765.66 416.864C1765.08 416.864 1764.41 416.384 1764.41 414.896V388.352H1757.35V414.608ZM1768.73 419.264C1771.13 421.232 1774.73 422.576 1777.85 422.576C1784.23 422.576 1787.64 419.216 1787.64 414.896C1787.64 410.528 1784.23 408.848 1781.21 407.744C1778.76 406.832 1776.55 406.256 1776.55 404.72C1776.55 403.52 1777.41 402.848 1779.24 402.848C1780.92 402.848 1782.55 403.616 1784.28 404.864L1787.45 400.64C1785.38 399.104 1782.69 397.616 1779.05 397.616C1773.53 397.616 1769.93 400.64 1769.93 405.056C1769.93 408.992 1773.33 410.96 1776.21 412.064C1778.66 413.024 1781.06 413.744 1781.06 415.328C1781.06 416.576 1780.15 417.344 1778.04 417.344C1776.02 417.344 1774.05 416.48 1771.89 414.848L1768.73 419.264ZM1260.45 478H1267.97C1273.27 478 1276.94 475.732 1276.94 471.088C1276.94 467.848 1274.92 465.976 1271.47 465.436V465.292C1274.24 464.572 1275.57 462.484 1275.57 460.144C1275.57 456.004 1272.26 454.384 1267.47 454.384H1260.45V478ZM1263.44 464.464V456.76H1267.07C1270.75 456.76 1272.62 457.84 1272.62 460.396C1272.62 463.024 1270.96 464.464 1266.93 464.464H1263.44ZM1263.44 475.624V466.696H1267.54C1271.68 466.696 1273.99 468.028 1273.99 470.944C1273.99 474.148 1271.61 475.624 1267.54 475.624H1263.44ZM1279.78 469.288C1279.78 475.012 1283.49 478.432 1288.17 478.432C1290.55 478.432 1292.42 477.604 1293.93 476.632L1292.89 474.688C1291.59 475.516 1290.19 476.056 1288.53 476.056C1285.18 476.056 1282.91 473.68 1282.7 469.9H1294.51C1294.58 469.468 1294.61 468.892 1294.61 468.28C1294.61 463.276 1292.09 460.072 1287.63 460.072C1283.63 460.072 1279.78 463.564 1279.78 469.288ZM1282.66 467.956C1283.02 464.428 1285.25 462.412 1287.7 462.412C1290.44 462.412 1292.02 464.392 1292.02 467.956H1282.66ZM1308.95 468.388L1310.07 464.788C1310.93 462.16 1311.69 459.568 1312.41 456.832H1312.55C1313.31 459.568 1314.07 462.16 1314.93 464.788L1316.05 468.388H1308.95ZM1319.03 478H1322.24L1314.25 454.384H1310.86L1302.87 478H1305.93L1308.2 470.8H1316.8L1319.03 478ZM1325.05 474.472C1325.05 477.028 1325.95 478.432 1328.18 478.432C1328.97 478.432 1329.47 478.324 1329.87 478.144L1329.47 475.912C1329.15 475.984 1329.01 475.984 1328.83 475.984C1328.39 475.984 1328 475.624 1328 474.688V452.368H1325.05V474.472ZM1335.48 456.904C1336.64 456.904 1337.54 456.112 1337.54 454.996C1337.54 453.844 1336.64 453.088 1335.48 453.088C1334.33 453.088 1333.43 453.844 1333.43 454.996C1333.43 456.112 1334.33 456.904 1335.48 456.904ZM1333.97 478H1336.92V460.504H1333.97V478ZM1343.84 480.952C1343.84 479.944 1344.38 478.9 1345.64 478C1346.4 478.216 1347.22 478.288 1347.91 478.288H1350.93C1353.2 478.288 1354.46 478.828 1354.46 480.448C1354.46 482.284 1352.26 484.012 1348.92 484.012C1345.75 484.012 1343.84 482.824 1343.84 480.952ZM1341.25 481.348C1341.25 484.372 1344.2 486.064 1348.48 486.064C1353.92 486.064 1357.34 483.256 1357.34 480.016C1357.34 477.1 1355.29 475.84 1351.22 475.84H1347.84C1345.46 475.84 1344.74 475.048 1344.74 473.932C1344.74 472.96 1345.24 472.384 1345.86 471.844C1346.65 472.24 1347.62 472.456 1348.48 472.456C1352.05 472.456 1354.89 470.116 1354.89 466.372C1354.89 464.896 1354.28 463.564 1353.45 462.772H1357.05V460.504H1350.97C1350.32 460.252 1349.46 460.072 1348.48 460.072C1344.92 460.072 1341.9 462.484 1341.9 466.3C1341.9 468.388 1343.01 470.08 1344.16 471.016V471.16C1343.26 471.772 1342.26 472.924 1342.26 474.4C1342.26 475.768 1342.94 476.704 1343.8 477.244V477.388C1342.22 478.468 1341.25 479.872 1341.25 481.348ZM1348.48 470.476C1346.47 470.476 1344.78 468.856 1344.78 466.3C1344.78 463.744 1346.43 462.232 1348.48 462.232C1350.54 462.232 1352.19 463.744 1352.19 466.3C1352.19 468.856 1350.5 470.476 1348.48 470.476ZM1360.47 478H1363.42V465.328C1365.19 463.564 1366.41 462.628 1368.21 462.628C1370.52 462.628 1371.52 464.032 1371.52 467.308V478H1374.48V466.912C1374.48 462.448 1372.82 460.072 1369.15 460.072C1366.74 460.072 1364.94 461.368 1363.28 463.024H1363.17L1362.92 460.504H1360.47V478ZM1378.61 469.288C1378.61 475.012 1382.32 478.432 1387 478.432C1389.38 478.432 1391.25 477.604 1392.76 476.632L1391.72 474.688C1390.42 475.516 1389.02 476.056 1387.36 476.056C1384.01 476.056 1381.75 473.68 1381.53 469.9H1393.34C1393.41 469.468 1393.45 468.892 1393.45 468.28C1393.45 463.276 1390.93 460.072 1386.46 460.072C1382.47 460.072 1378.61 463.564 1378.61 469.288ZM1381.49 467.956C1381.85 464.428 1384.09 462.412 1386.53 462.412C1389.27 462.412 1390.85 464.392 1390.85 467.956H1381.49ZM1396.26 469.288C1396.26 475.12 1399.1 478.432 1403.49 478.432C1405.55 478.432 1407.42 477.28 1408.79 475.948H1408.89L1409.15 478H1411.59V452.368H1408.61V459.1L1408.75 462.088C1407.2 460.828 1405.87 460.072 1403.85 460.072C1399.86 460.072 1396.26 463.6 1396.26 469.288ZM1399.32 469.252C1399.32 465.256 1401.55 462.556 1404.36 462.556C1405.8 462.556 1407.13 463.06 1408.61 464.392V473.536C1407.17 475.156 1405.76 475.948 1404.14 475.948C1401.08 475.948 1399.32 473.428 1399.32 469.252ZM1260.45 534H1267.97C1273.27 534 1276.94 531.732 1276.94 527.088C1276.94 523.848 1274.92 521.976 1271.47 521.436V521.292C1274.24 520.572 1275.57 518.484 1275.57 516.144C1275.57 512.004 1272.26 510.384 1267.47 510.384H1260.45V534ZM1263.44 520.464V512.76H1267.07C1270.75 512.76 1272.62 513.84 1272.62 516.396C1272.62 519.024 1270.96 520.464 1266.93 520.464H1263.44ZM1263.44 531.624V522.696H1267.54C1271.68 522.696 1273.99 524.028 1273.99 526.944C1273.99 530.148 1271.61 531.624 1267.54 531.624H1263.44ZM1279.78 525.288C1279.78 531.012 1283.49 534.432 1288.17 534.432C1290.55 534.432 1292.42 533.604 1293.93 532.632L1292.89 530.688C1291.59 531.516 1290.19 532.056 1288.53 532.056C1285.18 532.056 1282.91 529.68 1282.7 525.9H1294.51C1294.58 525.468 1294.61 524.892 1294.61 524.28C1294.61 519.276 1292.09 516.072 1287.63 516.072C1283.63 516.072 1279.78 519.564 1279.78 525.288ZM1282.66 523.956C1283.02 520.428 1285.25 518.412 1287.7 518.412C1290.44 518.412 1292.02 520.392 1292.02 523.956H1282.66ZM1304.27 530.94C1306.33 533.064 1309.24 534.432 1312.55 534.432C1317.52 534.432 1320.58 531.444 1320.58 527.7C1320.58 524.208 1318.46 522.588 1315.72 521.4L1312.37 519.96C1310.5 519.168 1308.45 518.304 1308.45 516.036C1308.45 513.912 1310.21 512.58 1312.84 512.58C1315.04 512.58 1316.77 513.444 1318.21 514.812L1319.83 512.868C1318.13 511.14 1315.65 509.952 1312.84 509.952C1308.56 509.952 1305.43 512.616 1305.43 516.216C1305.43 519.672 1307.98 521.364 1310.21 522.3L1313.6 523.776C1315.83 524.784 1317.52 525.54 1317.52 527.952C1317.52 530.256 1315.69 531.804 1312.59 531.804C1310.14 531.804 1307.77 530.616 1306.07 528.852L1304.27 530.94ZM1325.2 528.6C1325.2 532.056 1326.46 534.432 1330.2 534.432C1331.28 534.432 1332.47 534.108 1333.44 533.784L1332.87 531.552C1332.29 531.768 1331.5 532.02 1330.89 532.02C1328.87 532.02 1328.19 530.796 1328.19 528.636V518.916H1332.9V516.504H1328.19V511.608H1325.7L1325.34 516.504L1322.61 516.684V518.916H1325.2V528.6ZM1336.61 534H1339.56V522.768C1340.75 519.816 1342.51 518.736 1343.99 518.736C1344.71 518.736 1345.1 518.844 1345.68 519.024L1346.26 516.432C1345.68 516.18 1345.14 516.072 1344.38 516.072C1342.4 516.072 1340.6 517.476 1339.42 519.672H1339.31L1339.06 516.504H1336.61V534ZM1348.59 527.592C1348.59 532.056 1350.24 534.432 1353.95 534.432C1356.36 534.432 1358.09 533.172 1359.71 531.264H1359.82L1360.07 534H1362.52V516.504H1359.57V528.924C1357.91 530.976 1356.65 531.876 1354.85 531.876C1352.55 531.876 1351.57 530.472 1351.57 527.196V516.504H1348.59V527.592ZM1366.87 525.288C1366.87 531.084 1370.44 534.432 1375.08 534.432C1377.17 534.432 1379.19 533.568 1380.77 532.164L1379.44 530.22C1378.39 531.156 1376.99 531.984 1375.33 531.984C1372.13 531.984 1369.93 529.284 1369.93 525.288C1369.93 521.256 1372.24 518.52 1375.41 518.52C1376.81 518.52 1377.89 519.168 1378.93 520.068L1380.41 518.16C1379.22 517.044 1377.6 516.072 1375.3 516.072C1370.8 516.072 1366.87 519.42 1366.87 525.288ZM1384.84 528.6C1384.84 532.056 1386.1 534.432 1389.85 534.432C1390.93 534.432 1392.11 534.108 1393.09 533.784L1392.51 531.552C1391.93 531.768 1391.14 532.02 1390.53 532.02C1388.51 532.02 1387.83 530.796 1387.83 528.636V518.916H1392.55V516.504H1387.83V511.608H1385.35L1384.99 516.504L1382.25 516.684V518.916H1384.84V528.6ZM1395.79 527.592C1395.79 532.056 1397.45 534.432 1401.15 534.432C1403.57 534.432 1405.29 533.172 1406.91 531.264H1407.02L1407.27 534H1409.72V516.504H1406.77V528.924C1405.11 530.976 1403.85 531.876 1402.05 531.876C1399.75 531.876 1398.78 530.472 1398.78 527.196V516.504H1395.79V527.592ZM1415.37 534H1418.33V522.768C1419.51 519.816 1421.28 518.736 1422.75 518.736C1423.47 518.736 1423.87 518.844 1424.45 519.024L1425.02 516.432C1424.45 516.18 1423.91 516.072 1423.15 516.072C1421.17 516.072 1419.37 517.476 1418.18 519.672H1418.07L1417.82 516.504H1415.37V534ZM1425.96 525.288C1425.96 531.012 1429.66 534.432 1434.34 534.432C1436.72 534.432 1438.59 533.604 1440.1 532.632L1439.06 530.688C1437.76 531.516 1436.36 532.056 1434.7 532.056C1431.36 532.056 1429.09 529.68 1428.87 525.9H1440.68C1440.75 525.468 1440.79 524.892 1440.79 524.28C1440.79 519.276 1438.27 516.072 1433.8 516.072C1429.81 516.072 1425.96 519.564 1425.96 525.288ZM1428.84 523.956C1429.2 520.428 1431.43 518.412 1433.88 518.412C1436.61 518.412 1438.2 520.392 1438.2 523.956H1428.84ZM1443.6 525.288C1443.6 531.12 1446.45 534.432 1450.84 534.432C1452.89 534.432 1454.76 533.28 1456.13 531.948H1456.24L1456.49 534H1458.94V508.368H1455.95V515.1L1456.09 518.088C1454.55 516.828 1453.21 516.072 1451.2 516.072C1447.2 516.072 1443.6 519.6 1443.6 525.288ZM1446.66 525.252C1446.66 521.256 1448.89 518.556 1451.7 518.556C1453.14 518.556 1454.47 519.06 1455.95 520.392V529.536C1454.51 531.156 1453.11 531.948 1451.49 531.948C1448.43 531.948 1446.66 529.428 1446.66 525.252ZM1260.45 590H1267.97C1273.27 590 1276.94 587.732 1276.94 583.088C1276.94 579.848 1274.92 577.976 1271.47 577.436V577.292C1274.24 576.572 1275.57 574.484 1275.57 572.144C1275.57 568.004 1272.26 566.384 1267.47 566.384H1260.45V590ZM1263.44 576.464V568.76H1267.07C1270.75 568.76 1272.62 569.84 1272.62 572.396C1272.62 575.024 1270.96 576.464 1266.93 576.464H1263.44ZM1263.44 587.624V578.696H1267.54C1271.68 578.696 1273.99 580.028 1273.99 582.944C1273.99 586.148 1271.61 587.624 1267.54 587.624H1263.44ZM1279.78 581.288C1279.78 587.012 1283.49 590.432 1288.17 590.432C1290.55 590.432 1292.42 589.604 1293.93 588.632L1292.89 586.688C1291.59 587.516 1290.19 588.056 1288.53 588.056C1285.18 588.056 1282.91 585.68 1282.7 581.9H1294.51C1294.58 581.468 1294.61 580.892 1294.61 580.28C1294.61 575.276 1292.09 572.072 1287.63 572.072C1283.63 572.072 1279.78 575.564 1279.78 581.288ZM1282.66 579.956C1283.02 576.428 1285.25 574.412 1287.7 574.412C1290.44 574.412 1292.02 576.392 1292.02 579.956H1282.66ZM1306 590H1312.05C1319.18 590 1323.07 585.608 1323.07 578.084C1323.07 570.596 1319.18 566.384 1311.91 566.384H1306V590ZM1308.99 587.552V568.832H1311.69C1317.2 568.832 1319.97 572.144 1319.97 578.084C1319.97 584.06 1317.2 587.552 1311.69 587.552H1308.99ZM1326.75 585.464C1326.75 588.596 1328.94 590.432 1331.9 590.432C1334.06 590.432 1336 589.28 1337.69 587.912H1337.76L1338.02 590H1340.46V579.272C1340.46 574.916 1338.66 572.072 1334.38 572.072C1331.57 572.072 1329.12 573.296 1327.5 574.34L1328.69 576.392C1330.06 575.456 1331.86 574.52 1333.91 574.52C1336.76 574.52 1337.51 576.68 1337.51 578.912C1330.06 579.74 1326.75 581.648 1326.75 585.464ZM1329.66 585.248C1329.66 583.016 1331.64 581.576 1337.51 580.856V585.716C1335.82 587.228 1334.42 588.056 1332.72 588.056C1331 588.056 1329.66 587.228 1329.66 585.248ZM1346.29 584.6C1346.29 588.056 1347.55 590.432 1351.29 590.432C1352.37 590.432 1353.56 590.108 1354.53 589.784L1353.96 587.552C1353.38 587.768 1352.59 588.02 1351.98 588.02C1349.96 588.02 1349.28 586.796 1349.28 584.636V574.916H1353.99V572.504H1349.28V567.608H1346.79L1346.43 572.504L1343.7 572.684V574.916H1346.29V584.6ZM1356.2 585.464C1356.2 588.596 1358.4 590.432 1361.35 590.432C1363.51 590.432 1365.45 589.28 1367.15 587.912H1367.22L1367.47 590H1369.92V579.272C1369.92 574.916 1368.12 572.072 1363.83 572.072C1361.03 572.072 1358.58 573.296 1356.96 574.34L1358.15 576.392C1359.51 575.456 1361.31 574.52 1363.37 574.52C1366.21 574.52 1366.97 576.68 1366.97 578.912C1359.51 579.74 1356.2 581.648 1356.2 585.464ZM1359.12 585.248C1359.12 583.016 1361.1 581.576 1366.97 580.856V585.716C1365.27 587.228 1363.87 588.056 1362.18 588.056C1360.45 588.056 1359.12 587.228 1359.12 585.248ZM1373.76 582.116H1382.04V579.848H1373.76V582.116ZM1386.45 590H1389.44V566.384H1386.45V590ZM1395.37 590H1398.33V577.328C1400.09 575.564 1401.31 574.628 1403.11 574.628C1405.42 574.628 1406.43 576.032 1406.43 579.308V590H1409.38V578.912C1409.38 574.448 1407.72 572.072 1404.05 572.072C1401.64 572.072 1399.84 573.368 1398.18 575.024H1398.07L1397.82 572.504H1395.37V590ZM1423.34 564.512C1422.55 564.188 1421.51 563.936 1420.43 563.936C1416.94 563.936 1415.32 566.168 1415.32 569.732V572.504L1412.94 572.684V574.916H1415.32V590H1418.27V574.916H1421.98V572.504H1418.27V569.732C1418.27 567.5 1419.06 566.348 1420.72 566.348C1421.36 566.348 1422.05 566.492 1422.7 566.78L1423.34 564.512ZM1423.43 581.288C1423.43 587.084 1427.24 590.432 1431.53 590.432C1435.81 590.432 1439.63 587.084 1439.63 581.288C1439.63 575.42 1435.81 572.072 1431.53 572.072C1427.24 572.072 1423.43 575.42 1423.43 581.288ZM1426.49 581.288C1426.49 577.256 1428.54 574.52 1431.53 574.52C1434.55 574.52 1436.57 577.256 1436.57 581.288C1436.57 585.284 1434.55 587.984 1431.53 587.984C1428.54 587.984 1426.49 585.284 1426.49 581.288ZM1443.98 590H1446.94V578.768C1448.12 575.816 1449.89 574.736 1451.36 574.736C1452.08 574.736 1452.48 574.844 1453.06 575.024L1453.63 572.432C1453.06 572.18 1452.52 572.072 1451.76 572.072C1449.78 572.072 1447.98 573.476 1446.79 575.672H1446.68L1446.43 572.504H1443.98V590ZM1456.21 590H1459.17V577.328C1460.79 575.528 1462.26 574.628 1463.56 574.628C1465.79 574.628 1466.83 576.032 1466.83 579.308V590H1469.79V577.328C1471.41 575.528 1472.81 574.628 1474.18 574.628C1476.37 574.628 1477.42 576.032 1477.42 579.308V590H1480.37V578.912C1480.37 574.448 1478.64 572.072 1475.04 572.072C1472.92 572.072 1471.12 573.44 1469.28 575.42C1468.56 573.332 1467.12 572.072 1464.46 572.072C1462.37 572.072 1460.53 573.368 1459.02 575.024H1458.91L1458.66 572.504H1456.21V590ZM1484.52 581.288C1484.52 587.012 1488.22 590.432 1492.9 590.432C1495.28 590.432 1497.15 589.604 1498.66 588.632L1497.62 586.688C1496.32 587.516 1494.92 588.056 1493.26 588.056C1489.92 588.056 1487.65 585.68 1487.43 581.9H1499.24C1499.31 581.468 1499.35 580.892 1499.35 580.28C1499.35 575.276 1496.83 572.072 1492.36 572.072C1488.37 572.072 1484.52 575.564 1484.52 581.288ZM1487.4 579.956C1487.76 576.428 1489.99 574.412 1492.44 574.412C1495.17 574.412 1496.76 576.392 1496.76 579.956H1487.4ZM1502.16 581.288C1502.16 587.12 1505 590.432 1509.4 590.432C1511.45 590.432 1513.32 589.28 1514.69 587.948H1514.8L1515.05 590H1517.5V564.368H1514.51V571.1L1514.65 574.088C1513.1 572.828 1511.77 572.072 1509.76 572.072C1505.76 572.072 1502.16 575.6 1502.16 581.288ZM1505.22 581.252C1505.22 577.256 1507.45 574.556 1510.26 574.556C1511.7 574.556 1513.03 575.06 1514.51 576.392V585.536C1513.07 587.156 1511.66 587.948 1510.04 587.948C1506.98 587.948 1505.22 585.428 1505.22 581.252Z" fill="#2B2B2B"/>
<path d="M1244.97 472.852C1247.13 472.852 1249 471.124 1249 468.532C1249 465.94 1247.13 464.176 1244.97 464.176C1242.81 464.176 1240.94 465.94 1240.94 468.532C1240.94 471.124 1242.81 472.852 1244.97 472.852ZM1244.97 528.852C1247.13 528.852 1249 527.124 1249 524.532C1249 521.94 1247.13 520.176 1244.97 520.176C1242.81 520.176 1240.94 521.94 1240.94 524.532C1240.94 527.124 1242.81 528.852 1244.97 528.852ZM1244.97 584.852C1247.13 584.852 1249 583.124 1249 580.532C1249 577.94 1247.13 576.176 1244.97 576.176C1242.81 576.176 1240.94 577.94 1240.94 580.532C1240.94 583.124 1242.81 584.852 1244.97 584.852Z" fill="#009CDE"/>
<path d="M217.5 328C272.728 328 317.5 283.228 317.5 228C317.5 172.772 272.728 128 217.5 128C162.272 128 117.5 172.772 117.5 228C117.5 283.228 162.272 328 217.5 328Z" stroke="#2B2B2B" stroke-width="6" stroke-miterlimit="10"/>
<path d="M219.146 194.973C230.796 183.043 249.426 181.667 261.313 191.718C276.974 204.982 274.747 226.661 263.523 238.203L223.445 279.273L223.444 279.274C221.72 281.043 219.455 282 217 282C214.58 282 212.288 281.028 210.556 279.251L210.555 279.25L170.475 238.178C159.234 226.64 157.045 204.962 172.687 191.719L172.688 191.718C184.572 181.647 203.201 183.04 214.854 194.973L217 197.171L219.146 194.973Z" stroke="#009CDE" stroke-width="6"/>
<path d="M778.5 328C833.728 328 878.5 283.228 878.5 228C878.5 172.772 833.728 128 778.5 128C723.272 128 678.5 172.772 678.5 228C678.5 283.228 723.272 328 778.5 328Z" stroke="#2B2B2B" stroke-width="6" stroke-miterlimit="10"/>
<path d="M751 289.5C787.5 292.5 796.5 264.5 792.5 248C788.5 231.5 794 215 814.5 211.5" stroke="#6A6A6A" stroke-width="3" stroke-linecap="round" stroke-dasharray="4 8"/>
<path d="M819.407 209.132C807.677 191.442 805.5 189.626 805.5 183.125C805.5 174.219 812.44 167 821 167C829.56 167 836.5 174.219 836.5 183.125C836.5 189.626 834.323 191.442 822.593 209.132C821.823 210.289 820.177 210.289 819.407 209.132ZM821 189.844C824.567 189.844 827.458 186.836 827.458 183.125C827.458 179.414 824.567 176.406 821 176.406C817.433 176.406 814.542 179.414 814.542 183.125C814.542 186.836 817.433 189.844 821 189.844Z" fill="#009CDE"/>
<path d="M741.585 285.689C723.801 258.947 720.5 256.203 720.5 246.375C720.5 232.913 731.021 222 744 222C756.979 222 767.5 232.913 767.5 246.375C767.5 256.203 764.199 258.947 746.415 285.689C745.248 287.437 742.752 287.437 741.585 285.689ZM744 256.531C749.408 256.531 753.792 251.984 753.792 246.375C753.792 240.766 749.408 236.219 744 236.219C738.592 236.219 734.208 240.766 734.208 246.375C734.208 251.984 738.592 256.531 744 256.531Z" fill="#2B2B2B"/>
<path d="M1339.5 328C1394.73 328 1439.5 283.228 1439.5 228C1439.5 172.772 1394.73 128 1339.5 128C1284.27 128 1239.5 172.772 1239.5 228C1239.5 283.228 1284.27 328 1339.5 328Z" stroke="#2B2B2B" stroke-width="6" stroke-miterlimit="10"/>
<path d="M1339.5 282.76C1369.74 282.76 1394.26 258.243 1394.26 228C1394.26 197.757 1369.74 173.24 1339.5 173.24C1309.26 173.24 1284.74 197.757 1284.74 228C1284.74 258.243 1309.26 282.76 1339.5 282.76Z" stroke="#2B2B2B" stroke-width="6" stroke-miterlimit="10"/>
<path d="M1471.9 254.764L1426.56 250.509L1418.95 236.119L1429.11 223.401L1474.45 227.654L1464.26 240.595L1471.9 254.764Z" fill="white" stroke="white" stroke-width="18" stroke-linecap="round" stroke-linejoin="round"/>
<path d="M1418.95 236.119L1339.5 228.665" stroke="white" stroke-width="18" stroke-linecap="round" stroke-linejoin="round"/>
<path d="M1460.46 168.169L1421.89 192.371L1407.09 185.584L1407.41 169.311L1445.99 145.1L1445.78 161.57L1460.46 168.169Z" fill="white" stroke="white" stroke-width="18" stroke-linecap="round" stroke-linejoin="round"/>
<path d="M1407.09 185.583L1339.5 228" stroke="white" stroke-width="18" stroke-linecap="round" stroke-linejoin="round"/>
<path d="M1339.5 245.855C1349.36 245.855 1357.36 237.861 1357.36 228C1357.36 218.139 1349.36 210.145 1339.5 210.145C1329.64 210.145 1321.65 218.139 1321.65 228C1321.65 237.861 1329.64 245.855 1339.5 245.855Z" fill="#009CDE"/>
<path d="M1460.46 168.169L1421.89 192.371L1407.09 185.584L1407.41 169.311L1445.99 145.1L1445.78 161.57L1460.46 168.169Z" fill="white" stroke="#2B2B2B" stroke-width="9" stroke-linecap="round" stroke-linejoin="round"/>
<path d="M1407.09 185.583L1339.5 228" stroke="#2B2B2B" stroke-width="9" stroke-linecap="round" stroke-linejoin="round"/>
<path d="M1471.9 254.764L1426.56 250.509L1418.95 236.119L1429.11 223.401L1474.45 227.654L1464.26 240.595L1471.9 254.764Z" fill="white" stroke="#2B2B2B" stroke-width="9" stroke-linecap="round" stroke-linejoin="round"/>
<path d="M1418.95 236.119L1339.5 228.665" stroke="#2B2B2B" stroke-width="9" stroke-linecap="round" stroke-linejoin="round"/>
</svg>
