<svg width="1920" height="864" viewBox="0 0 1920 864" fill="none" xmlns="http://www.w3.org/2000/svg">
<rect width="1920" height="864" fill="white"/>
<rect x="275" y="131" width="438" height="286" rx="21" fill="white" stroke="#2B2B2B" stroke-width="6"/>
<rect x="275" y="447" width="438" height="286" rx="21" fill="white" stroke="#2B2B2B" stroke-width="6"/>
<rect x="741" y="131" width="438" height="286" rx="21" fill="white" stroke="#2B2B2B" stroke-width="6"/>
<rect x="741" y="447" width="438" height="286" rx="21" fill="white" stroke="#2B2B2B" stroke-width="6"/>
<rect x="1207" y="131" width="438" height="286" rx="21" fill="white" stroke="#2B2B2B" stroke-width="6"/>
<rect x="1207" y="447" width="438" height="286" rx="21" fill="white" stroke="#2B2B2B" stroke-width="6"/>
<path d="M366.347 227.408C366.347 235.292 371.315 239.432 377.399 239.432C380.315 239.432 382.907 238.244 384.851 235.976L381.935 232.772C380.783 234.032 379.379 234.86 377.471 234.86C374.015 234.86 371.783 232.052 371.783 227.228C371.783 222.512 374.339 219.668 377.615 219.668C379.235 219.668 380.387 220.352 381.575 221.432L384.491 218.156C382.907 216.536 380.459 215.096 377.543 215.096C371.495 215.096 366.347 219.632 366.347 227.408ZM386.691 230.072C386.691 236.012 390.867 239.432 395.403 239.432C399.903 239.432 404.079 236.012 404.079 230.072C404.079 224.132 399.903 220.712 395.403 220.712C390.867 220.712 386.691 224.132 386.691 230.072ZM392.127 230.072C392.127 226.976 393.207 224.996 395.403 224.996C397.563 224.996 398.679 226.976 398.679 230.072C398.679 233.168 397.563 235.148 395.403 235.148C393.207 235.148 392.127 233.168 392.127 230.072ZM407.453 239H412.745V226.94C413.861 225.788 414.905 225.212 415.769 225.212C417.281 225.212 417.965 226.004 417.965 228.596V239H423.257V226.94C424.409 225.788 425.417 225.212 426.317 225.212C427.829 225.212 428.513 226.004 428.513 228.596V239H433.805V227.912C433.805 223.448 432.077 220.712 428.225 220.712C425.849 220.712 424.193 222.08 422.609 223.7C421.709 221.792 420.197 220.712 417.677 220.712C415.337 220.712 413.753 221.972 412.277 223.448H412.133L411.773 221.144H407.453V239ZM438.07 239H442.21L442.642 237.128H442.786C444.19 238.64 445.846 239.432 447.43 239.432C451.282 239.432 454.954 235.904 454.954 229.748C454.954 224.276 452.254 220.712 447.934 220.712C446.278 220.712 444.586 221.468 443.218 222.692L443.362 219.956V213.764H438.07V239ZM443.362 233.96V226.652C444.37 225.536 445.342 225.032 446.422 225.032C448.546 225.032 449.518 226.652 449.518 229.856C449.518 233.528 448.042 235.112 446.206 235.112C445.306 235.112 444.298 234.824 443.362 233.96ZM461.085 218.516C462.885 218.516 464.145 217.364 464.145 215.744C464.145 214.124 462.885 213.008 461.085 213.008C459.321 213.008 458.025 214.124 458.025 215.744C458.025 217.364 459.321 218.516 461.085 218.516ZM458.457 239H463.749V221.144H458.457V239ZM468.156 239H473.448V226.94C474.6 225.824 475.428 225.212 476.76 225.212C478.272 225.212 478.956 226.004 478.956 228.596V239H484.248V227.912C484.248 223.448 482.592 220.712 478.704 220.712C476.292 220.712 474.492 221.972 472.98 223.412H472.836L472.476 221.144H468.156V239ZM487.464 230.072C487.464 235.976 491.388 239.432 496.5 239.432C498.624 239.432 501 238.676 502.836 237.416L501.072 234.212C499.776 235.004 498.552 235.4 497.22 235.4C494.844 235.4 493.044 234.212 492.576 231.512H503.268C503.376 231.08 503.484 230.216 503.484 229.28C503.484 224.42 500.964 220.712 495.888 220.712C491.604 220.712 487.464 224.276 487.464 230.072ZM492.54 228.236C492.9 225.86 494.34 224.744 495.996 224.744C498.12 224.744 498.984 226.184 498.984 228.236H492.54ZM505.307 236.948C507.107 238.424 509.807 239.432 512.147 239.432C516.935 239.432 519.491 236.912 519.491 233.672C519.491 230.396 516.935 229.136 514.667 228.308C512.831 227.624 511.175 227.192 511.175 226.04C511.175 225.14 511.823 224.636 513.191 224.636C514.451 224.636 515.675 225.212 516.971 226.148L519.347 222.98C517.799 221.828 515.783 220.712 513.047 220.712C508.907 220.712 506.207 222.98 506.207 226.292C506.207 229.244 508.763 230.72 510.923 231.548C512.759 232.268 514.559 232.808 514.559 233.996C514.559 234.932 513.875 235.508 512.291 235.508C510.779 235.508 509.303 234.86 507.683 233.636L505.307 236.948Z" fill="#009CDE"/>
<path d="M534.021 239H537.477L543.669 221.504H540.753L537.441 231.44C536.937 233.168 536.361 234.932 535.857 236.588H535.713C535.173 234.932 534.597 233.168 534.093 231.44L530.781 221.504H527.721L534.021 239ZM548.308 217.904C549.46 217.904 550.36 217.112 550.36 215.996C550.36 214.844 549.46 214.088 548.308 214.088C547.156 214.088 546.256 214.844 546.256 215.996C546.256 217.112 547.156 217.904 548.308 217.904ZM546.796 239H549.748V221.504H546.796V239ZM553.461 237.02C555.117 238.388 557.493 239.432 559.977 239.432C564.117 239.432 566.385 237.056 566.385 234.212C566.385 230.9 563.577 229.856 561.057 228.92C559.077 228.164 557.169 227.552 557.169 225.896C557.169 224.564 558.177 223.376 560.373 223.376C561.921 223.376 563.181 224.024 564.369 224.924L565.773 223.052C564.441 221.972 562.533 221.072 560.337 221.072C556.557 221.072 554.325 223.232 554.325 226.04C554.325 228.992 557.061 230.18 559.545 231.08C561.453 231.8 563.541 232.592 563.541 234.392C563.541 235.904 562.389 237.128 560.085 237.128C557.997 237.128 556.449 236.264 554.937 235.04L553.461 237.02ZM571.749 217.904C572.901 217.904 573.801 217.112 573.801 215.996C573.801 214.844 572.901 214.088 571.749 214.088C570.597 214.088 569.697 214.844 569.697 215.996C569.697 217.112 570.597 217.904 571.749 217.904ZM570.237 239H573.189V221.504H570.237V239ZM577.551 230.288C577.551 236.084 581.367 239.432 585.651 239.432C589.935 239.432 593.751 236.084 593.751 230.288C593.751 224.42 589.935 221.072 585.651 221.072C581.367 221.072 577.551 224.42 577.551 230.288ZM580.611 230.288C580.611 226.256 582.663 223.52 585.651 223.52C588.675 223.52 590.691 226.256 590.691 230.288C590.691 234.284 588.675 236.984 585.651 236.984C582.663 236.984 580.611 234.284 580.611 230.288ZM598.108 239H601.06V226.328C602.824 224.564 604.048 223.628 605.848 223.628C608.152 223.628 609.16 225.032 609.16 228.308V239H612.112V227.912C612.112 223.448 610.456 221.072 606.784 221.072C604.372 221.072 602.572 222.368 600.916 224.024H600.808L600.556 221.504H598.108V239ZM617.006 245.12C619.922 243.896 621.722 241.484 621.722 238.388C621.722 236.228 620.786 234.896 619.238 234.896C618.05 234.896 617.042 235.688 617.042 236.984C617.042 238.316 618.014 239.036 619.166 239.036C619.274 239.036 619.418 239.036 619.526 239C619.526 240.944 618.302 242.492 616.286 243.392L617.006 245.12ZM306.579 287H309.531V274.328C311.151 272.528 312.627 271.628 313.923 271.628C316.155 271.628 317.199 273.032 317.199 276.308V287H320.151V274.328C321.771 272.528 323.175 271.628 324.543 271.628C326.739 271.628 327.783 273.032 327.783 276.308V287H330.735V275.912C330.735 271.448 329.007 269.072 325.407 269.072C323.283 269.072 321.483 270.44 319.647 272.42C318.927 270.332 317.487 269.072 314.823 269.072C312.735 269.072 310.899 270.368 309.387 272.024H309.279L309.027 269.504H306.579V287ZM337.689 265.904C338.841 265.904 339.741 265.112 339.741 263.996C339.741 262.844 338.841 262.088 337.689 262.088C336.537 262.088 335.637 262.844 335.637 263.996C335.637 265.112 336.537 265.904 337.689 265.904ZM336.177 287H339.129V269.504H336.177V287ZM342.842 285.02C344.498 286.388 346.874 287.432 349.358 287.432C353.498 287.432 355.766 285.056 355.766 282.212C355.766 278.9 352.958 277.856 350.438 276.92C348.458 276.164 346.55 275.552 346.55 273.896C346.55 272.564 347.558 271.376 349.754 271.376C351.302 271.376 352.562 272.024 353.75 272.924L355.154 271.052C353.822 269.972 351.914 269.072 349.718 269.072C345.938 269.072 343.706 271.232 343.706 274.04C343.706 276.992 346.442 278.18 348.926 279.08C350.834 279.8 352.922 280.592 352.922 282.392C352.922 283.904 351.77 285.128 349.466 285.128C347.378 285.128 345.83 284.264 344.318 283.04L342.842 285.02ZM357.674 285.02C359.33 286.388 361.706 287.432 364.19 287.432C368.33 287.432 370.598 285.056 370.598 282.212C370.598 278.9 367.79 277.856 365.27 276.92C363.29 276.164 361.382 275.552 361.382 273.896C361.382 272.564 362.39 271.376 364.586 271.376C366.134 271.376 367.394 272.024 368.582 272.924L369.986 271.052C368.654 269.972 366.746 269.072 364.55 269.072C360.77 269.072 358.538 271.232 358.538 274.04C358.538 276.992 361.274 278.18 363.758 279.08C365.666 279.8 367.754 280.592 367.754 282.392C367.754 283.904 366.602 285.128 364.298 285.128C362.21 285.128 360.662 284.264 359.15 283.04L357.674 285.02ZM375.962 265.904C377.114 265.904 378.014 265.112 378.014 263.996C378.014 262.844 377.114 262.088 375.962 262.088C374.81 262.088 373.91 262.844 373.91 263.996C373.91 265.112 374.81 265.904 375.962 265.904ZM374.45 287H377.402V269.504H374.45V287ZM381.763 278.288C381.763 284.084 385.579 287.432 389.863 287.432C394.147 287.432 397.963 284.084 397.963 278.288C397.963 272.42 394.147 269.072 389.863 269.072C385.579 269.072 381.763 272.42 381.763 278.288ZM384.823 278.288C384.823 274.256 386.875 271.52 389.863 271.52C392.887 271.52 394.903 274.256 394.903 278.288C394.903 282.284 392.887 284.984 389.863 284.984C386.875 284.984 384.823 282.284 384.823 278.288ZM402.321 287H405.273V274.328C407.037 272.564 408.261 271.628 410.061 271.628C412.365 271.628 413.373 273.032 413.373 276.308V287H416.325V275.912C416.325 271.448 414.669 269.072 410.997 269.072C408.585 269.072 406.785 270.368 405.129 272.024H405.021L404.769 269.504H402.321V287ZM421.219 293.12C424.135 291.896 425.935 289.484 425.935 286.388C425.935 284.228 424.999 282.896 423.451 282.896C422.263 282.896 421.255 283.688 421.255 284.984C421.255 286.316 422.227 287.036 423.379 287.036C423.487 287.036 423.631 287.036 423.739 287C423.739 288.944 422.515 290.492 420.499 291.392L421.219 293.12ZM441.281 287H444.737L450.929 269.504H448.013L444.701 279.44C444.197 281.168 443.621 282.932 443.117 284.588H442.973C442.433 282.932 441.857 281.168 441.353 279.44L438.041 269.504H434.981L441.281 287ZM452.488 282.464C452.488 285.596 454.684 287.432 457.636 287.432C459.796 287.432 461.74 286.28 463.432 284.912H463.504L463.756 287H466.204V276.272C466.204 271.916 464.404 269.072 460.12 269.072C457.312 269.072 454.864 270.296 453.244 271.34L454.432 273.392C455.8 272.456 457.6 271.52 459.652 271.52C462.496 271.52 463.252 273.68 463.252 275.912C455.8 276.74 452.488 278.648 452.488 282.464ZM455.404 282.248C455.404 280.016 457.384 278.576 463.252 277.856V282.716C461.56 284.228 460.156 285.056 458.464 285.056C456.736 285.056 455.404 284.228 455.404 282.248ZM471.524 283.472C471.524 286.028 472.424 287.432 474.656 287.432C475.448 287.432 475.952 287.324 476.348 287.144L475.952 284.912C475.628 284.984 475.484 284.984 475.304 284.984C474.872 284.984 474.476 284.624 474.476 283.688V261.368H471.524V283.472ZM480.198 280.592C480.198 285.056 481.854 287.432 485.562 287.432C487.974 287.432 489.702 286.172 491.322 284.264H491.43L491.682 287H494.13V269.504H491.178V281.924C489.522 283.976 488.262 284.876 486.462 284.876C484.158 284.876 483.186 283.472 483.186 280.196V269.504H480.198V280.592ZM498.486 278.288C498.486 284.012 502.194 287.432 506.874 287.432C509.25 287.432 511.122 286.604 512.634 285.632L511.59 283.688C510.294 284.516 508.89 285.056 507.234 285.056C503.886 285.056 501.618 282.68 501.402 278.9H513.21C513.282 278.468 513.318 277.892 513.318 277.28C513.318 272.276 510.798 269.072 506.334 269.072C502.338 269.072 498.486 272.564 498.486 278.288ZM501.366 276.956C501.726 273.428 503.958 271.412 506.406 271.412C509.142 271.412 510.726 273.392 510.726 276.956H501.366ZM515.447 285.02C517.103 286.388 519.479 287.432 521.963 287.432C526.103 287.432 528.371 285.056 528.371 282.212C528.371 278.9 525.563 277.856 523.043 276.92C521.063 276.164 519.155 275.552 519.155 273.896C519.155 272.564 520.163 271.376 522.359 271.376C523.907 271.376 525.167 272.024 526.355 272.924L527.759 271.052C526.427 269.972 524.519 269.072 522.323 269.072C518.543 269.072 516.311 271.232 516.311 274.04C516.311 276.992 519.047 278.18 521.531 279.08C523.439 279.8 525.527 280.592 525.527 282.392C525.527 283.904 524.375 285.128 522.071 285.128C519.983 285.128 518.435 284.264 516.923 283.04L515.447 285.02ZM540.331 280.7C540.331 278.864 541.627 277.46 543.283 276.128C544.939 278.648 547.171 281.132 549.475 283.148C548.107 284.336 546.595 285.056 544.975 285.056C542.383 285.056 540.331 283.328 540.331 280.7ZM543.103 268.496C543.103 266.552 544.255 265.076 546.019 265.076C547.603 265.076 548.251 266.3 548.251 267.668C548.251 269.756 546.379 271.196 544.219 272.636C543.535 271.196 543.103 269.792 543.103 268.496ZM557.683 284.984C556.387 284.624 554.875 283.832 553.255 282.716C555.127 280.232 556.459 277.352 557.395 274.256H554.623C553.903 276.956 552.751 279.296 551.311 281.24C549.079 279.368 546.883 277.028 545.335 274.616C547.963 272.708 550.663 270.728 550.663 267.632C550.663 264.86 548.935 262.952 546.019 262.952C542.743 262.952 540.547 265.4 540.547 268.532C540.547 270.26 541.123 272.132 542.095 274.076C539.683 275.732 537.451 277.712 537.451 280.88C537.451 284.696 540.367 287.432 544.651 287.432C547.423 287.432 549.655 286.352 551.455 284.732C553.363 286.064 555.235 286.964 556.891 287.432L557.683 284.984ZM566.022 285.02C567.678 286.388 570.054 287.432 572.538 287.432C576.678 287.432 578.946 285.056 578.946 282.212C578.946 278.9 576.138 277.856 573.618 276.92C571.638 276.164 569.73 275.552 569.73 273.896C569.73 272.564 570.738 271.376 572.934 271.376C574.482 271.376 575.742 272.024 576.93 272.924L578.334 271.052C577.002 269.972 575.094 269.072 572.898 269.072C569.118 269.072 566.886 271.232 566.886 274.04C566.886 276.992 569.622 278.18 572.106 279.08C574.014 279.8 576.102 280.592 576.102 282.392C576.102 283.904 574.95 285.128 572.646 285.128C570.558 285.128 569.01 284.264 567.498 283.04L566.022 285.02ZM583.302 281.6C583.302 285.056 584.562 287.432 588.306 287.432C589.386 287.432 590.574 287.108 591.546 286.784L590.97 284.552C590.394 284.768 589.602 285.02 588.99 285.02C586.974 285.02 586.29 283.796 586.29 281.636V271.916H591.006V269.504H586.29V264.608H583.806L583.446 269.504L580.71 269.684V271.916H583.302V281.6ZM594.712 287H597.664V275.768C598.852 272.816 600.616 271.736 602.092 271.736C602.812 271.736 603.208 271.844 603.784 272.024L604.36 269.432C603.784 269.18 603.244 269.072 602.488 269.072C600.508 269.072 598.708 270.476 597.52 272.672H597.412L597.16 269.504H594.712V287ZM605.164 282.464C605.164 285.596 607.36 287.432 610.312 287.432C612.472 287.432 614.416 286.28 616.108 284.912H616.18L616.432 287H618.88V276.272C618.88 271.916 617.08 269.072 612.796 269.072C609.988 269.072 607.54 270.296 605.92 271.34L607.108 273.392C608.476 272.456 610.276 271.52 612.328 271.52C615.172 271.52 615.928 273.68 615.928 275.912C608.476 276.74 605.164 278.648 605.164 282.464ZM608.08 282.248C608.08 280.016 610.06 278.576 615.928 277.856V282.716C614.236 284.228 612.832 285.056 611.14 285.056C609.412 285.056 608.08 284.228 608.08 282.248ZM624.704 281.6C624.704 285.056 625.964 287.432 629.708 287.432C630.788 287.432 631.976 287.108 632.948 286.784L632.372 284.552C631.796 284.768 631.004 285.02 630.392 285.02C628.376 285.02 627.692 283.796 627.692 281.636V271.916H632.408V269.504H627.692V264.608H625.208L624.848 269.504L622.112 269.684V271.916H624.704V281.6ZM634.467 278.288C634.467 284.012 638.175 287.432 642.855 287.432C645.231 287.432 647.103 286.604 648.615 285.632L647.571 283.688C646.275 284.516 644.871 285.056 643.215 285.056C639.867 285.056 637.599 282.68 637.383 278.9H649.191C649.263 278.468 649.299 277.892 649.299 277.28C649.299 272.276 646.779 269.072 642.315 269.072C638.319 269.072 634.467 272.564 634.467 278.288ZM637.347 276.956C637.707 273.428 639.939 271.412 642.387 271.412C645.123 271.412 646.707 273.392 646.707 276.956H637.347ZM654.28 289.952C654.28 288.944 654.82 287.9 656.08 287C656.836 287.216 657.664 287.288 658.348 287.288H661.372C663.64 287.288 664.9 287.828 664.9 289.448C664.9 291.284 662.704 293.012 659.356 293.012C656.188 293.012 654.28 291.824 654.28 289.952ZM651.688 290.348C651.688 293.372 654.64 295.064 658.924 295.064C664.36 295.064 667.78 292.256 667.78 289.016C667.78 286.1 665.728 284.84 661.66 284.84H658.276C655.9 284.84 655.18 284.048 655.18 282.932C655.18 281.96 655.684 281.384 656.296 280.844C657.088 281.24 658.06 281.456 658.924 281.456C662.488 281.456 665.332 279.116 665.332 275.372C665.332 273.896 664.72 272.564 663.892 271.772H667.492V269.504H661.408C660.76 269.252 659.896 269.072 658.924 269.072C655.36 269.072 652.336 271.484 652.336 275.3C652.336 277.388 653.452 279.08 654.604 280.016V280.16C653.704 280.772 652.696 281.924 652.696 283.4C652.696 284.768 653.38 285.704 654.244 286.244V286.388C652.66 287.468 651.688 288.872 651.688 290.348ZM658.924 279.476C656.908 279.476 655.216 277.856 655.216 275.3C655.216 272.744 656.872 271.232 658.924 271.232C660.976 271.232 662.632 272.744 662.632 275.3C662.632 277.856 660.94 279.476 658.924 279.476ZM669.582 291.824L669.006 294.164C669.582 294.38 670.266 294.524 671.058 294.524C674.586 294.524 676.386 291.896 677.61 288.44L684.198 269.504H681.318L678.186 279.188C677.718 280.736 677.214 282.536 676.71 284.12H676.566C676.026 282.5 675.414 280.7 674.874 279.188L671.31 269.504H668.25L675.27 287.036L674.874 288.332C674.154 290.492 672.894 292.076 670.914 292.076C670.482 292.076 669.942 291.932 669.582 291.824ZM341.699 335H345.155L347.603 325.64C348.071 323.984 348.431 322.328 348.827 320.564H348.971C349.403 322.328 349.727 323.948 350.159 325.604L352.679 335H356.279L360.959 317.504H358.151L355.595 327.62C355.235 329.276 354.911 330.86 354.515 332.48H354.371C353.975 330.86 353.579 329.276 353.147 327.62L350.411 317.504H347.531L344.831 327.62C344.399 329.24 344.039 330.86 343.643 332.48H343.499C343.175 330.86 342.851 329.276 342.455 327.62L339.863 317.504H336.839L341.699 335ZM366.028 313.904C367.18 313.904 368.08 313.112 368.08 311.996C368.08 310.844 367.18 310.088 366.028 310.088C364.876 310.088 363.976 310.844 363.976 311.996C363.976 313.112 364.876 313.904 366.028 313.904ZM364.516 335H367.468V317.504H364.516V335ZM373.63 329.6C373.63 333.056 374.89 335.432 378.634 335.432C379.714 335.432 380.902 335.108 381.874 334.784L381.298 332.552C380.722 332.768 379.93 333.02 379.318 333.02C377.302 333.02 376.618 331.796 376.618 329.636V319.916H381.334V317.504H376.618V312.608H374.134L373.774 317.504L371.038 317.684V319.916H373.63V329.6ZM385.04 335H387.992V322.328C389.756 320.564 390.98 319.628 392.78 319.628C395.084 319.628 396.092 321.032 396.092 324.308V335H399.044V323.912C399.044 319.448 397.388 317.072 393.716 317.072C391.304 317.072 389.54 318.368 387.884 319.952L387.992 316.352V309.368H385.04V335ZM410.139 326.288C410.139 332.12 412.983 335.432 417.375 335.432C419.427 335.432 421.299 334.28 422.667 332.948H422.775L423.027 335H425.475V309.368H422.487V316.1L422.631 319.088C421.083 317.828 419.751 317.072 417.735 317.072C413.739 317.072 410.139 320.6 410.139 326.288ZM413.199 326.252C413.199 322.256 415.431 319.556 418.239 319.556C419.679 319.556 421.011 320.06 422.487 321.392V330.536C421.047 332.156 419.643 332.948 418.023 332.948C414.963 332.948 413.199 330.428 413.199 326.252ZM430.254 330.464C430.254 333.596 432.45 335.432 435.402 335.432C437.562 335.432 439.506 334.28 441.198 332.912H441.27L441.522 335H443.97V324.272C443.97 319.916 442.17 317.072 437.886 317.072C435.078 317.072 432.63 318.296 431.01 319.34L432.198 321.392C433.566 320.456 435.366 319.52 437.418 319.52C440.262 319.52 441.018 321.68 441.018 323.912C433.566 324.74 430.254 326.648 430.254 330.464ZM433.17 330.248C433.17 328.016 435.15 326.576 441.018 325.856V330.716C439.326 332.228 437.922 333.056 436.23 333.056C434.502 333.056 433.17 332.228 433.17 330.248ZM448.102 339.824L447.526 342.164C448.102 342.38 448.786 342.524 449.578 342.524C453.106 342.524 454.906 339.896 456.13 336.44L462.718 317.504H459.838L456.706 327.188C456.238 328.736 455.734 330.536 455.23 332.12H455.086C454.546 330.5 453.934 328.7 453.394 327.188L449.83 317.504H446.77L453.79 335.036L453.394 336.332C452.674 338.492 451.414 340.076 449.434 340.076C449.002 340.076 448.462 339.932 448.102 339.824ZM464.369 327.116H472.649V324.848H464.369V327.116ZM477.278 329.6C477.278 333.056 478.538 335.432 482.282 335.432C483.362 335.432 484.55 335.108 485.522 334.784L484.946 332.552C484.37 332.768 483.578 333.02 482.966 333.02C480.95 333.02 480.266 331.796 480.266 329.636V319.916H484.982V317.504H480.266V312.608H477.782L477.422 317.504L474.686 317.684V319.916H477.278V329.6ZM487.041 326.288C487.041 332.084 490.857 335.432 495.141 335.432C499.425 335.432 503.241 332.084 503.241 326.288C503.241 320.42 499.425 317.072 495.141 317.072C490.857 317.072 487.041 320.42 487.041 326.288ZM490.101 326.288C490.101 322.256 492.153 319.52 495.141 319.52C498.165 319.52 500.181 322.256 500.181 326.288C500.181 330.284 498.165 332.984 495.141 332.984C492.153 332.984 490.101 330.284 490.101 326.288ZM506.333 327.116H514.613V324.848H506.333V327.116ZM517.479 326.288C517.479 332.12 520.323 335.432 524.715 335.432C526.767 335.432 528.639 334.28 530.007 332.948H530.115L530.367 335H532.815V309.368H529.827V316.1L529.971 319.088C528.423 317.828 527.091 317.072 525.075 317.072C521.079 317.072 517.479 320.6 517.479 326.288ZM520.539 326.252C520.539 322.256 522.771 319.556 525.579 319.556C527.019 319.556 528.351 320.06 529.827 321.392V330.536C528.387 332.156 526.983 332.948 525.363 332.948C522.303 332.948 520.539 330.428 520.539 326.252ZM537.594 330.464C537.594 333.596 539.79 335.432 542.742 335.432C544.902 335.432 546.846 334.28 548.538 332.912H548.61L548.862 335H551.31V324.272C551.31 319.916 549.51 317.072 545.226 317.072C542.418 317.072 539.97 318.296 538.35 319.34L539.538 321.392C540.906 320.456 542.706 319.52 544.758 319.52C547.602 319.52 548.358 321.68 548.358 323.912C540.906 324.74 537.594 326.648 537.594 330.464ZM540.51 330.248C540.51 328.016 542.49 326.576 548.358 325.856V330.716C546.666 332.228 545.262 333.056 543.57 333.056C541.842 333.056 540.51 332.228 540.51 330.248ZM555.442 339.824L554.866 342.164C555.442 342.38 556.126 342.524 556.918 342.524C560.446 342.524 562.246 339.896 563.47 336.44L570.058 317.504H567.178L564.046 327.188C563.578 328.736 563.074 330.536 562.57 332.12H562.426C561.886 330.5 561.274 328.7 560.734 327.188L557.17 317.504H554.11L561.13 335.036L560.734 336.332C560.014 338.492 558.754 340.076 556.774 340.076C556.342 340.076 555.802 339.932 555.442 339.824ZM582.984 335H586.44L588.888 325.64C589.356 323.984 589.716 322.328 590.112 320.564H590.256C590.688 322.328 591.012 323.948 591.444 325.604L593.964 335H597.564L602.244 317.504H599.436L596.88 327.62C596.52 329.276 596.196 330.86 595.8 332.48H595.656C595.26 330.86 594.864 329.276 594.432 327.62L591.696 317.504H588.816L586.116 327.62C585.684 329.24 585.324 330.86 584.928 332.48H584.784C584.46 330.86 584.136 329.276 583.74 327.62L581.148 317.504H578.124L582.984 335ZM604.365 326.288C604.365 332.084 608.181 335.432 612.465 335.432C616.749 335.432 620.565 332.084 620.565 326.288C620.565 320.42 616.749 317.072 612.465 317.072C608.181 317.072 604.365 320.42 604.365 326.288ZM607.425 326.288C607.425 322.256 609.477 319.52 612.465 319.52C615.489 319.52 617.505 322.256 617.505 326.288C617.505 330.284 615.489 332.984 612.465 332.984C609.477 332.984 607.425 330.284 607.425 326.288ZM624.923 335H627.875V323.768C629.063 320.816 630.827 319.736 632.303 319.736C633.023 319.736 633.419 319.844 633.995 320.024L634.571 317.432C633.995 317.18 633.455 317.072 632.699 317.072C630.719 317.072 628.919 318.476 627.731 320.672H627.623L627.371 317.504H624.923V335ZM637.153 335H640.069V330.392L643.345 326.576L648.457 335H651.697L645.037 324.524L650.905 317.504H647.629L640.177 326.72H640.069V309.368H637.153V335Z" fill="#2B2B2B"/>
<path d="M335.823 591.192C335.823 598.896 340.215 603.432 346.155 603.432C349.179 603.432 351.483 602.172 353.355 600.012L351.663 598.176C350.151 599.868 348.495 600.804 346.227 600.804C341.763 600.804 338.919 597.06 338.919 591.12C338.919 585.252 341.871 581.58 346.371 581.58C348.351 581.58 349.863 582.444 351.087 583.776L352.779 581.868C351.411 580.32 349.179 578.952 346.335 578.952C340.287 578.952 335.823 583.596 335.823 591.192ZM356.356 598.464C356.356 601.596 358.552 603.432 361.504 603.432C363.664 603.432 365.608 602.28 367.3 600.912H367.372L367.624 603H370.072V592.272C370.072 587.916 368.272 585.072 363.988 585.072C361.18 585.072 358.732 586.296 357.112 587.34L358.3 589.392C359.668 588.456 361.468 587.52 363.52 587.52C366.364 587.52 367.12 589.68 367.12 591.912C359.668 592.74 356.356 594.648 356.356 598.464ZM359.272 598.248C359.272 596.016 361.252 594.576 367.12 593.856V598.716C365.428 600.228 364.024 601.056 362.332 601.056C360.604 601.056 359.272 600.228 359.272 598.248ZM375.391 603H378.343V590.328C380.107 588.564 381.331 587.628 383.131 587.628C385.435 587.628 386.443 589.032 386.443 592.308V603H389.395V591.912C389.395 587.448 387.739 585.072 384.067 585.072C381.655 585.072 379.855 586.368 378.199 588.024H378.091L377.839 585.504H375.391V603ZM542.58 601.02C544.236 602.388 546.612 603.432 549.096 603.432C553.236 603.432 555.504 601.056 555.504 598.212C555.504 594.9 552.696 593.856 550.176 592.92C548.196 592.164 546.288 591.552 546.288 589.896C546.288 588.564 547.296 587.376 549.492 587.376C551.04 587.376 552.3 588.024 553.488 588.924L554.892 587.052C553.56 585.972 551.652 585.072 549.456 585.072C545.676 585.072 543.444 587.232 543.444 590.04C543.444 592.992 546.18 594.18 548.664 595.08C550.572 595.8 552.66 596.592 552.66 598.392C552.66 599.904 551.508 601.128 549.204 601.128C547.116 601.128 545.568 600.264 544.056 599.04L542.58 601.02ZM559.104 596.592C559.104 601.056 560.76 603.432 564.468 603.432C566.88 603.432 568.608 602.172 570.228 600.264H570.336L570.588 603H573.036V585.504H570.084V597.924C568.428 599.976 567.168 600.876 565.368 600.876C563.064 600.876 562.092 599.472 562.092 596.196V585.504H559.104V596.592ZM577.392 594.288C577.392 600.084 580.956 603.432 585.6 603.432C587.688 603.432 589.704 602.568 591.288 601.164L589.956 599.22C588.912 600.156 587.508 600.984 585.852 600.984C582.648 600.984 580.452 598.284 580.452 594.288C580.452 590.256 582.756 587.52 585.924 587.52C587.328 587.52 588.408 588.168 589.452 589.068L590.928 587.16C589.74 586.044 588.12 585.072 585.816 585.072C581.316 585.072 577.392 588.42 577.392 594.288ZM592.787 594.288C592.787 600.084 596.351 603.432 600.995 603.432C603.083 603.432 605.099 602.568 606.683 601.164L605.351 599.22C604.307 600.156 602.903 600.984 601.247 600.984C598.043 600.984 595.847 598.284 595.847 594.288C595.847 590.256 598.151 587.52 601.319 587.52C602.723 587.52 603.803 588.168 604.847 589.068L606.323 587.16C605.135 586.044 603.515 585.072 601.211 585.072C596.711 585.072 592.787 588.42 592.787 594.288ZM608.181 594.288C608.181 600.012 611.889 603.432 616.569 603.432C618.945 603.432 620.817 602.604 622.329 601.632L621.285 599.688C619.989 600.516 618.585 601.056 616.929 601.056C613.581 601.056 611.313 598.68 611.097 594.9H622.905C622.977 594.468 623.013 593.892 623.013 593.28C623.013 588.276 620.493 585.072 616.029 585.072C612.033 585.072 608.181 588.564 608.181 594.288ZM611.061 592.956C611.421 589.428 613.653 587.412 616.101 587.412C618.837 587.412 620.421 589.392 620.421 592.956H611.061ZM625.143 601.02C626.799 602.388 629.175 603.432 631.659 603.432C635.799 603.432 638.067 601.056 638.067 598.212C638.067 594.9 635.259 593.856 632.739 592.92C630.759 592.164 628.851 591.552 628.851 589.896C628.851 588.564 629.859 587.376 632.055 587.376C633.603 587.376 634.863 588.024 636.051 588.924L637.455 587.052C636.123 585.972 634.215 585.072 632.019 585.072C628.239 585.072 626.007 587.232 626.007 590.04C626.007 592.992 628.743 594.18 631.227 595.08C633.135 595.8 635.223 596.592 635.223 598.392C635.223 599.904 634.071 601.128 631.767 601.128C629.679 601.128 628.131 600.264 626.619 599.04L625.143 601.02ZM639.975 601.02C641.631 602.388 644.007 603.432 646.491 603.432C650.631 603.432 652.899 601.056 652.899 598.212C652.899 594.9 650.091 593.856 647.571 592.92C645.591 592.164 643.683 591.552 643.683 589.896C643.683 588.564 644.691 587.376 646.887 587.376C648.435 587.376 649.695 588.024 650.883 588.924L652.287 587.052C650.955 585.972 649.047 585.072 646.851 585.072C643.071 585.072 640.839 587.232 640.839 590.04C640.839 592.992 643.575 594.18 646.059 595.08C647.967 595.8 650.055 596.592 650.055 598.392C650.055 599.904 648.903 601.128 646.599 601.128C644.511 601.128 642.963 600.264 641.451 599.04L639.975 601.02Z" fill="#2B2B2B"/>
<path d="M401.244 603H406.536V590.94C407.652 589.788 408.696 589.212 409.56 589.212C411.072 589.212 411.756 590.004 411.756 592.596V603H417.048V590.94C418.2 589.788 419.208 589.212 420.108 589.212C421.62 589.212 422.304 590.004 422.304 592.596V603H427.596V591.912C427.596 587.448 425.868 584.712 422.016 584.712C419.64 584.712 417.984 586.08 416.4 587.7C415.5 585.792 413.988 584.712 411.468 584.712C409.128 584.712 407.544 585.972 406.068 587.448H405.924L405.564 585.144H401.244V603ZM430.817 594.072C430.817 599.976 434.741 603.432 439.853 603.432C441.977 603.432 444.353 602.676 446.189 601.416L444.425 598.212C443.129 599.004 441.905 599.4 440.573 599.4C438.197 599.4 436.397 598.212 435.929 595.512H446.621C446.729 595.08 446.837 594.216 446.837 593.28C446.837 588.42 444.317 584.712 439.241 584.712C434.957 584.712 430.817 588.276 430.817 594.072ZM435.893 592.236C436.253 589.86 437.693 588.744 439.349 588.744C441.473 588.744 442.337 590.184 442.337 592.236H435.893ZM449.21 598.032C449.21 601.056 451.262 603.432 454.502 603.432C456.518 603.432 458.21 602.496 459.722 601.164H459.83L460.226 603H464.546V592.776C464.546 587.304 462.026 584.712 457.454 584.712C454.646 584.712 452.09 585.684 449.822 587.052L451.694 590.544C453.422 589.536 454.934 588.924 456.446 588.924C458.354 588.924 459.146 589.932 459.254 591.516C452.198 592.236 449.21 594.288 449.21 598.032ZM454.25 597.636C454.25 596.268 455.474 595.188 459.254 594.684V597.816C458.318 598.752 457.526 599.328 456.302 599.328C455.042 599.328 454.25 598.788 454.25 597.636ZM467.254 600.948C469.054 602.424 471.754 603.432 474.094 603.432C478.882 603.432 481.438 600.912 481.438 597.672C481.438 594.396 478.882 593.136 476.614 592.308C474.778 591.624 473.122 591.192 473.122 590.04C473.122 589.14 473.77 588.636 475.138 588.636C476.398 588.636 477.622 589.212 478.918 590.148L481.294 586.98C479.746 585.828 477.73 584.712 474.994 584.712C470.854 584.712 468.154 586.98 468.154 590.292C468.154 593.244 470.71 594.72 472.87 595.548C474.706 596.268 476.506 596.808 476.506 597.996C476.506 598.932 475.822 599.508 474.238 599.508C472.726 599.508 471.25 598.86 469.63 597.636L467.254 600.948ZM484.369 596.232C484.369 600.696 486.025 603.432 489.913 603.432C492.361 603.432 494.017 602.316 495.529 600.516H495.637L496.033 603H500.353V585.144H495.061V596.952C494.017 598.356 493.225 598.932 491.893 598.932C490.345 598.932 489.661 598.104 489.661 595.548V585.144H484.369V596.232ZM504.76 603H510.052V592.632C510.988 590.22 512.644 589.356 513.976 589.356C514.732 589.356 515.272 589.464 515.92 589.644L516.784 585.072C516.28 584.856 515.668 584.712 514.66 584.712C512.824 584.712 510.88 585.864 509.584 588.276H509.44L509.08 585.144H504.76V603ZM517.458 594.072C517.458 599.976 521.382 603.432 526.494 603.432C528.618 603.432 530.994 602.676 532.83 601.416L531.066 598.212C529.77 599.004 528.546 599.4 527.214 599.4C524.838 599.4 523.038 598.212 522.57 595.512H533.262C533.37 595.08 533.478 594.216 533.478 593.28C533.478 588.42 530.958 584.712 525.882 584.712C521.598 584.712 517.458 588.276 517.458 594.072ZM522.534 592.236C522.894 589.86 524.334 588.744 525.99 588.744C528.114 588.744 528.978 590.184 528.978 592.236H522.534Z" fill="#009CDE"/>
<path d="M790.103 239H804.071V236.444H793.091V227.876H802.055V225.32H793.091V217.904H803.711V215.384H790.103V239ZM806.606 237.02C808.262 238.388 810.638 239.432 813.122 239.432C817.262 239.432 819.53 237.056 819.53 234.212C819.53 230.9 816.722 229.856 814.202 228.92C812.222 228.164 810.314 227.552 810.314 225.896C810.314 224.564 811.322 223.376 813.518 223.376C815.066 223.376 816.326 224.024 817.514 224.924L818.918 223.052C817.586 221.972 815.678 221.072 813.482 221.072C809.702 221.072 807.47 223.232 807.47 226.04C807.47 228.992 810.206 230.18 812.69 231.08C814.598 231.8 816.686 232.592 816.686 234.392C816.686 235.904 815.534 237.128 813.23 237.128C811.142 237.128 809.594 236.264 808.082 235.04L806.606 237.02ZM823.886 233.6C823.886 237.056 825.146 239.432 828.89 239.432C829.97 239.432 831.158 239.108 832.13 238.784L831.554 236.552C830.978 236.768 830.186 237.02 829.574 237.02C827.558 237.02 826.874 235.796 826.874 233.636V223.916H831.59V221.504H826.874V216.608H824.39L824.03 221.504L821.294 221.684V223.916H823.886V233.6ZM833.799 234.464C833.799 237.596 835.995 239.432 838.947 239.432C841.107 239.432 843.051 238.28 844.743 236.912H844.815L845.067 239H847.515V228.272C847.515 223.916 845.715 221.072 841.431 221.072C838.623 221.072 836.175 222.296 834.555 223.34L835.743 225.392C837.111 224.456 838.911 223.52 840.963 223.52C843.807 223.52 844.563 225.68 844.563 227.912C837.111 228.74 833.799 230.648 833.799 234.464ZM836.715 234.248C836.715 232.016 838.695 230.576 844.563 229.856V234.716C842.871 236.228 841.467 237.056 839.775 237.056C838.047 237.056 836.715 236.228 836.715 234.248ZM852.835 239H855.211L855.463 237.272H855.571C857.119 238.64 858.955 239.432 860.575 239.432C864.571 239.432 868.135 235.94 868.135 229.964C868.135 224.564 865.723 221.072 861.187 221.072C859.243 221.072 857.299 222.116 855.715 223.52L855.787 220.352V213.368H852.835V239ZM855.787 235.112V225.932C857.443 224.384 858.991 223.556 860.467 223.556C863.779 223.556 865.075 226.148 865.075 230C865.075 234.32 862.951 236.948 860.071 236.948C858.919 236.948 857.335 236.444 855.787 235.112ZM872.554 235.472C872.554 238.028 873.454 239.432 875.686 239.432C876.478 239.432 876.982 239.324 877.378 239.144L876.982 236.912C876.658 236.984 876.514 236.984 876.334 236.984C875.902 236.984 875.506 236.624 875.506 235.688V213.368H872.554V235.472ZM882.991 217.904C884.143 217.904 885.043 217.112 885.043 215.996C885.043 214.844 884.143 214.088 882.991 214.088C881.839 214.088 880.939 214.844 880.939 215.996C880.939 217.112 881.839 217.904 882.991 217.904ZM881.479 239H884.431V221.504H881.479V239ZM888.145 237.02C889.801 238.388 892.177 239.432 894.661 239.432C898.801 239.432 901.069 237.056 901.069 234.212C901.069 230.9 898.261 229.856 895.741 228.92C893.761 228.164 891.853 227.552 891.853 225.896C891.853 224.564 892.861 223.376 895.057 223.376C896.605 223.376 897.865 224.024 899.053 224.924L900.457 223.052C899.125 221.972 897.217 221.072 895.021 221.072C891.241 221.072 889.009 223.232 889.009 226.04C889.009 228.992 891.745 230.18 894.229 231.08C896.137 231.8 898.225 232.592 898.225 234.392C898.225 235.904 897.073 237.128 894.769 237.128C892.681 237.128 891.133 236.264 889.621 235.04L888.145 237.02ZM904.921 239H907.873V226.328C909.637 224.564 910.861 223.628 912.661 223.628C914.965 223.628 915.973 225.032 915.973 228.308V239H918.925V227.912C918.925 223.448 917.269 221.072 913.597 221.072C911.185 221.072 909.421 222.368 907.765 223.952L907.873 220.352V213.368H904.921V239ZM922.957 230.288C922.957 236.012 926.665 239.432 931.345 239.432C933.721 239.432 935.593 238.604 937.105 237.632L936.061 235.688C934.765 236.516 933.361 237.056 931.705 237.056C928.357 237.056 926.089 234.68 925.873 230.9H937.681C937.753 230.468 937.789 229.892 937.789 229.28C937.789 224.276 935.269 221.072 930.805 221.072C926.809 221.072 922.957 224.564 922.957 230.288ZM925.837 228.956C926.197 225.428 928.429 223.412 930.877 223.412C933.613 223.412 935.197 225.392 935.197 228.956H925.837ZM939.918 237.02C941.574 238.388 943.95 239.432 946.434 239.432C950.574 239.432 952.842 237.056 952.842 234.212C952.842 230.9 950.034 229.856 947.514 228.92C945.534 228.164 943.626 227.552 943.626 225.896C943.626 224.564 944.634 223.376 946.83 223.376C948.378 223.376 949.638 224.024 950.826 224.924L952.23 223.052C950.898 221.972 948.99 221.072 946.794 221.072C943.014 221.072 940.782 223.232 940.782 226.04C940.782 228.992 943.518 230.18 946.002 231.08C947.91 231.8 949.998 232.592 949.998 234.392C949.998 235.904 948.846 237.128 946.542 237.128C944.454 237.128 942.906 236.264 941.394 235.04L939.918 237.02ZM794.991 280.7C794.991 278.864 796.287 277.46 797.943 276.128C799.599 278.648 801.831 281.132 804.135 283.148C802.767 284.336 801.255 285.056 799.635 285.056C797.043 285.056 794.991 283.328 794.991 280.7ZM797.763 268.496C797.763 266.552 798.915 265.076 800.679 265.076C802.263 265.076 802.911 266.3 802.911 267.668C802.911 269.756 801.039 271.196 798.879 272.636C798.195 271.196 797.763 269.792 797.763 268.496ZM812.343 284.984C811.047 284.624 809.535 283.832 807.915 282.716C809.787 280.232 811.119 277.352 812.055 274.256H809.283C808.563 276.956 807.411 279.296 805.971 281.24C803.739 279.368 801.543 277.028 799.995 274.616C802.623 272.708 805.323 270.728 805.323 267.632C805.323 264.86 803.595 262.952 800.679 262.952C797.403 262.952 795.207 265.4 795.207 268.532C795.207 270.26 795.783 272.132 796.755 274.076C794.343 275.732 792.111 277.712 792.111 280.88C792.111 284.696 795.027 287.432 799.311 287.432C802.083 287.432 804.315 286.352 806.115 284.732C808.023 286.064 809.895 286.964 811.551 287.432L812.343 284.984ZM821.33 278.288C821.33 284.012 825.038 287.432 829.718 287.432C832.094 287.432 833.966 286.604 835.478 285.632L834.434 283.688C833.138 284.516 831.734 285.056 830.078 285.056C826.73 285.056 824.462 282.68 824.246 278.9H836.054C836.126 278.468 836.162 277.892 836.162 277.28C836.162 272.276 833.642 269.072 829.178 269.072C825.182 269.072 821.33 272.564 821.33 278.288ZM824.21 276.956C824.57 273.428 826.802 271.412 829.25 271.412C831.986 271.412 833.57 273.392 833.57 276.956H824.21ZM840.235 287H843.187V274.328C844.951 272.564 846.175 271.628 847.975 271.628C850.279 271.628 851.287 273.032 851.287 276.308V287H854.239V275.912C854.239 271.448 852.583 269.072 848.911 269.072C846.499 269.072 844.699 270.368 843.043 272.024H842.935L842.683 269.504H840.235V287ZM858.809 282.464C858.809 285.596 861.005 287.432 863.957 287.432C866.117 287.432 868.061 286.28 869.753 284.912H869.825L870.077 287H872.525V276.272C872.525 271.916 870.725 269.072 866.441 269.072C863.633 269.072 861.185 270.296 859.565 271.34L860.753 273.392C862.121 272.456 863.921 271.52 865.973 271.52C868.817 271.52 869.573 273.68 869.573 275.912C862.121 276.74 858.809 278.648 858.809 282.464ZM861.725 282.248C861.725 280.016 863.705 278.576 869.573 277.856V282.716C867.881 284.228 866.477 285.056 864.785 285.056C863.057 285.056 861.725 284.228 861.725 282.248ZM877.845 287H880.221L880.473 285.272H880.581C882.129 286.64 883.965 287.432 885.585 287.432C889.581 287.432 893.145 283.94 893.145 277.964C893.145 272.564 890.733 269.072 886.197 269.072C884.253 269.072 882.309 270.116 880.725 271.52L880.797 268.352V261.368H877.845V287ZM880.797 283.112V273.932C882.453 272.384 884.001 271.556 885.477 271.556C888.789 271.556 890.085 274.148 890.085 278C890.085 282.32 887.961 284.948 885.081 284.948C883.929 284.948 882.345 284.444 880.797 283.112ZM897.563 283.472C897.563 286.028 898.463 287.432 900.695 287.432C901.487 287.432 901.991 287.324 902.387 287.144L901.991 284.912C901.667 284.984 901.523 284.984 901.343 284.984C900.911 284.984 900.515 284.624 900.515 283.688V261.368H897.563V283.472ZM905.193 278.288C905.193 284.012 908.901 287.432 913.581 287.432C915.957 287.432 917.829 286.604 919.341 285.632L918.297 283.688C917.001 284.516 915.597 285.056 913.941 285.056C910.593 285.056 908.325 282.68 908.109 278.9H919.917C919.989 278.468 920.025 277.892 920.025 277.28C920.025 272.276 917.505 269.072 913.041 269.072C909.045 269.072 905.193 272.564 905.193 278.288ZM908.073 276.956C908.433 273.428 910.665 271.412 913.113 271.412C915.849 271.412 917.433 273.392 917.433 276.956H908.073ZM922.154 285.02C923.81 286.388 926.186 287.432 928.67 287.432C932.81 287.432 935.078 285.056 935.078 282.212C935.078 278.9 932.27 277.856 929.75 276.92C927.77 276.164 925.862 275.552 925.862 273.896C925.862 272.564 926.87 271.376 929.066 271.376C930.614 271.376 931.874 272.024 933.062 272.924L934.466 271.052C933.134 269.972 931.226 269.072 929.03 269.072C925.25 269.072 923.018 271.232 923.018 274.04C923.018 276.992 925.754 278.18 928.238 279.08C930.146 279.8 932.234 280.592 932.234 282.392C932.234 283.904 931.082 285.128 928.778 285.128C926.69 285.128 925.142 284.264 923.63 283.04L922.154 285.02ZM946.462 281.6C946.462 285.056 947.722 287.432 951.466 287.432C952.546 287.432 953.734 287.108 954.706 286.784L954.13 284.552C953.554 284.768 952.762 285.02 952.15 285.02C950.134 285.02 949.45 283.796 949.45 281.636V271.916H954.166V269.504H949.45V264.608H946.966L946.606 269.504L943.87 269.684V271.916H946.462V281.6ZM957.872 287H960.824V274.328C962.588 272.564 963.812 271.628 965.612 271.628C967.916 271.628 968.924 273.032 968.924 276.308V287H971.876V275.912C971.876 271.448 970.22 269.072 966.548 269.072C964.136 269.072 962.372 270.368 960.716 271.952L960.824 268.352V261.368H957.872V287ZM975.908 278.288C975.908 284.012 979.616 287.432 984.296 287.432C986.672 287.432 988.544 286.604 990.056 285.632L989.012 283.688C987.716 284.516 986.312 285.056 984.656 285.056C981.308 285.056 979.04 282.68 978.824 278.9H990.632C990.704 278.468 990.74 277.892 990.74 277.28C990.74 272.276 988.22 269.072 983.756 269.072C979.76 269.072 975.908 272.564 975.908 278.288ZM978.788 276.956C979.148 273.428 981.38 271.412 983.828 271.412C986.564 271.412 988.148 273.392 988.148 276.956H978.788ZM1001.84 287H1004.22L1004.47 285.272H1004.58C1006.12 286.64 1007.96 287.432 1009.58 287.432C1013.58 287.432 1017.14 283.94 1017.14 277.964C1017.14 272.564 1014.73 269.072 1010.19 269.072C1008.25 269.072 1006.3 270.116 1004.72 271.52L1004.79 268.352V261.368H1001.84V287ZM1004.79 283.112V273.932C1006.45 272.384 1008 271.556 1009.47 271.556C1012.78 271.556 1014.08 274.148 1014.08 278C1014.08 282.32 1011.96 284.948 1009.08 284.948C1007.92 284.948 1006.34 284.444 1004.79 283.112ZM1020.26 278.288C1020.26 284.012 1023.97 287.432 1028.65 287.432C1031.03 287.432 1032.9 286.604 1034.41 285.632L1033.37 283.688C1032.07 284.516 1030.67 285.056 1029.01 285.056C1025.66 285.056 1023.4 282.68 1023.18 278.9H1034.99C1035.06 278.468 1035.1 277.892 1035.1 277.28C1035.1 272.276 1032.58 269.072 1028.11 269.072C1024.12 269.072 1020.26 272.564 1020.26 278.288ZM1023.14 276.956C1023.5 273.428 1025.74 271.412 1028.18 271.412C1030.92 271.412 1032.5 273.392 1032.5 276.956H1023.14ZM1037.22 285.02C1038.88 286.388 1041.26 287.432 1043.74 287.432C1047.88 287.432 1050.15 285.056 1050.15 282.212C1050.15 278.9 1047.34 277.856 1044.82 276.92C1042.84 276.164 1040.93 275.552 1040.93 273.896C1040.93 272.564 1041.94 271.376 1044.14 271.376C1045.68 271.376 1046.94 272.024 1048.13 272.924L1049.54 271.052C1048.2 269.972 1046.3 269.072 1044.1 269.072C1040.32 269.072 1038.09 271.232 1038.09 274.04C1038.09 276.992 1040.82 278.18 1043.31 279.08C1045.22 279.8 1047.3 280.592 1047.3 282.392C1047.3 283.904 1046.15 285.128 1043.85 285.128C1041.76 285.128 1040.21 284.264 1038.7 283.04L1037.22 285.02ZM1054.5 281.6C1054.5 285.056 1055.76 287.432 1059.51 287.432C1060.59 287.432 1061.78 287.108 1062.75 286.784L1062.17 284.552C1061.6 284.768 1060.8 285.02 1060.19 285.02C1058.18 285.02 1057.49 283.796 1057.49 281.636V271.916H1062.21V269.504H1057.49V264.608H1055.01L1054.65 269.504L1051.91 269.684V271.916H1054.5V281.6ZM1072.69 280.592C1072.69 285.056 1074.35 287.432 1078.05 287.432C1080.47 287.432 1082.19 286.172 1083.81 284.264H1083.92L1084.17 287H1086.62V269.504H1083.67V281.924C1082.01 283.976 1080.75 284.876 1078.95 284.876C1076.65 284.876 1075.68 283.472 1075.68 280.196V269.504H1072.69V280.592ZM1090.33 285.02C1091.99 286.388 1094.36 287.432 1096.85 287.432C1100.99 287.432 1103.25 285.056 1103.25 282.212C1103.25 278.9 1100.45 277.856 1097.93 276.92C1095.95 276.164 1094.04 275.552 1094.04 273.896C1094.04 272.564 1095.05 271.376 1097.24 271.376C1098.79 271.376 1100.05 272.024 1101.24 272.924L1102.64 271.052C1101.31 269.972 1099.4 269.072 1097.21 269.072C1093.43 269.072 1091.19 271.232 1091.19 274.04C1091.19 276.992 1093.93 278.18 1096.41 279.08C1098.32 279.8 1100.41 280.592 1100.41 282.392C1100.41 283.904 1099.26 285.128 1096.95 285.128C1094.87 285.128 1093.32 284.264 1091.81 283.04L1090.33 285.02ZM1105.81 278.288C1105.81 284.012 1109.52 287.432 1114.2 287.432C1116.57 287.432 1118.45 286.604 1119.96 285.632L1118.91 283.688C1117.62 284.516 1116.21 285.056 1114.56 285.056C1111.21 285.056 1108.94 282.68 1108.73 278.9H1120.53C1120.61 278.468 1120.64 277.892 1120.64 277.28C1120.64 272.276 1118.12 269.072 1113.66 269.072C1109.66 269.072 1105.81 272.564 1105.81 278.288ZM1108.69 276.956C1109.05 273.428 1111.28 271.412 1113.73 271.412C1116.47 271.412 1118.05 273.392 1118.05 276.956H1108.69ZM871.941 326.288C871.941 332.084 875.757 335.432 880.041 335.432C884.325 335.432 888.141 332.084 888.141 326.288C888.141 320.42 884.325 317.072 880.041 317.072C875.757 317.072 871.941 320.42 871.941 326.288ZM875.001 326.288C875.001 322.256 877.053 319.52 880.041 319.52C883.065 319.52 885.081 322.256 885.081 326.288C885.081 330.284 883.065 332.984 880.041 332.984C877.053 332.984 875.001 330.284 875.001 326.288ZM901.031 309.512C900.239 309.188 899.195 308.936 898.115 308.936C894.623 308.936 893.003 311.168 893.003 314.732V317.504L890.627 317.684V319.916H893.003V335H895.955V319.916H899.663V317.504H895.955V314.732C895.955 312.5 896.747 311.348 898.403 311.348C899.051 311.348 899.735 311.492 900.383 311.78L901.031 309.512ZM909.788 335H912.74V323.768C913.928 320.816 915.692 319.736 917.168 319.736C917.888 319.736 918.284 319.844 918.86 320.024L919.436 317.432C918.86 317.18 918.32 317.072 917.564 317.072C915.584 317.072 913.784 318.476 912.596 320.672H912.488L912.236 317.504H909.788V335ZM920.371 326.288C920.371 332.012 924.079 335.432 928.759 335.432C931.135 335.432 933.007 334.604 934.519 333.632L933.475 331.688C932.179 332.516 930.775 333.056 929.119 333.056C925.771 333.056 923.503 330.68 923.287 326.9H935.095C935.167 326.468 935.203 325.892 935.203 325.28C935.203 320.276 932.683 317.072 928.219 317.072C924.223 317.072 920.371 320.564 920.371 326.288ZM923.251 324.956C923.611 321.428 925.843 319.412 928.291 319.412C931.027 319.412 932.611 321.392 932.611 324.956H923.251ZM937.332 333.02C938.988 334.388 941.364 335.432 943.848 335.432C947.988 335.432 950.256 333.056 950.256 330.212C950.256 326.9 947.448 325.856 944.928 324.92C942.948 324.164 941.04 323.552 941.04 321.896C941.04 320.564 942.048 319.376 944.244 319.376C945.792 319.376 947.052 320.024 948.24 320.924L949.644 319.052C948.312 317.972 946.404 317.072 944.208 317.072C940.428 317.072 938.196 319.232 938.196 322.04C938.196 324.992 940.932 326.18 943.416 327.08C945.324 327.8 947.412 328.592 947.412 330.392C947.412 331.904 946.26 333.128 943.956 333.128C941.868 333.128 940.32 332.264 938.808 331.04L937.332 333.02ZM952.812 326.288C952.812 332.084 956.628 335.432 960.912 335.432C965.196 335.432 969.012 332.084 969.012 326.288C969.012 320.42 965.196 317.072 960.912 317.072C956.628 317.072 952.812 320.42 952.812 326.288ZM955.872 326.288C955.872 322.256 957.924 319.52 960.912 319.52C963.936 319.52 965.952 322.256 965.952 326.288C965.952 330.284 963.936 332.984 960.912 332.984C957.924 332.984 955.872 330.284 955.872 326.288ZM973.118 328.592C973.118 333.056 974.774 335.432 978.482 335.432C980.894 335.432 982.622 334.172 984.242 332.264H984.35L984.602 335H987.05V317.504H984.098V329.924C982.442 331.976 981.182 332.876 979.382 332.876C977.078 332.876 976.106 331.472 976.106 328.196V317.504H973.118V328.592ZM992.702 335H995.654V323.768C996.842 320.816 998.606 319.736 1000.08 319.736C1000.8 319.736 1001.2 319.844 1001.77 320.024L1002.35 317.432C1001.77 317.18 1001.23 317.072 1000.48 317.072C998.498 317.072 996.698 318.476 995.51 320.672H995.402L995.15 317.504H992.702V335ZM1003.28 326.288C1003.28 332.084 1006.85 335.432 1011.49 335.432C1013.58 335.432 1015.6 334.568 1017.18 333.164L1015.85 331.22C1014.8 332.156 1013.4 332.984 1011.74 332.984C1008.54 332.984 1006.34 330.284 1006.34 326.288C1006.34 322.256 1008.65 319.52 1011.82 319.52C1013.22 319.52 1014.3 320.168 1015.34 321.068L1016.82 319.16C1015.63 318.044 1014.01 317.072 1011.71 317.072C1007.21 317.072 1003.28 320.42 1003.28 326.288ZM1018.68 326.288C1018.68 332.012 1022.39 335.432 1027.07 335.432C1029.44 335.432 1031.32 334.604 1032.83 333.632L1031.78 331.688C1030.49 332.516 1029.08 333.056 1027.43 333.056C1024.08 333.056 1021.81 330.68 1021.6 326.9H1033.4C1033.48 326.468 1033.51 325.892 1033.51 325.28C1033.51 320.276 1030.99 317.072 1026.53 317.072C1022.53 317.072 1018.68 320.564 1018.68 326.288ZM1021.56 324.956C1021.92 321.428 1024.15 319.412 1026.6 319.412C1029.34 319.412 1030.92 321.392 1030.92 324.956H1021.56ZM1035.64 333.02C1037.3 334.388 1039.67 335.432 1042.16 335.432C1046.3 335.432 1048.56 333.056 1048.56 330.212C1048.56 326.9 1045.76 325.856 1043.24 324.92C1041.26 324.164 1039.35 323.552 1039.35 321.896C1039.35 320.564 1040.36 319.376 1042.55 319.376C1044.1 319.376 1045.36 320.024 1046.55 320.924L1047.95 319.052C1046.62 317.972 1044.71 317.072 1042.52 317.072C1038.74 317.072 1036.5 319.232 1036.5 322.04C1036.5 324.992 1039.24 326.18 1041.72 327.08C1043.63 327.8 1045.72 328.592 1045.72 330.392C1045.72 331.904 1044.57 333.128 1042.26 333.128C1040.18 333.128 1038.63 332.264 1037.12 331.04L1035.64 333.02Z" fill="#2B2B2B"/>
<path d="M973.082 239.432C979.418 239.432 983.738 234.824 983.738 227.156C983.738 219.524 979.418 215.096 973.082 215.096C966.746 215.096 962.426 219.488 962.426 227.156C962.426 234.824 966.746 239.432 973.082 239.432ZM973.082 234.86C969.878 234.86 967.862 231.872 967.862 227.156C967.862 222.476 969.878 219.668 973.082 219.668C976.286 219.668 978.302 222.476 978.302 227.156C978.302 231.872 976.286 234.86 973.082 234.86ZM987.469 239H991.609L992.041 237.128H992.185C993.589 238.64 995.245 239.432 996.829 239.432C1000.68 239.432 1004.35 235.904 1004.35 229.748C1004.35 224.276 1001.65 220.712 997.333 220.712C995.677 220.712 993.985 221.468 992.617 222.692L992.761 219.956V213.764H987.469V239ZM992.761 233.96V226.652C993.769 225.536 994.741 225.032 995.821 225.032C997.945 225.032 998.917 226.652 998.917 229.856C998.917 233.528 997.441 235.112 995.605 235.112C994.705 235.112 993.697 234.824 992.761 233.96ZM1007.89 239.036C1007.89 241.016 1007.42 241.916 1006.02 241.916C1005.52 241.916 1005.08 241.808 1004.62 241.664L1003.68 245.552C1004.4 245.84 1005.34 246.056 1006.81 246.056C1011.67 246.056 1013.18 242.78 1013.18 238.892V221.144H1007.89V239.036ZM1010.56 218.516C1012.32 218.516 1013.62 217.364 1013.62 215.744C1013.62 214.124 1012.32 213.008 1010.56 213.008C1008.79 213.008 1007.5 214.124 1007.5 215.744C1007.5 217.364 1008.79 218.516 1010.56 218.516ZM1016.58 230.072C1016.58 235.976 1020.51 239.432 1025.62 239.432C1027.74 239.432 1030.12 238.676 1031.95 237.416L1030.19 234.212C1028.89 235.004 1027.67 235.4 1026.34 235.4C1023.96 235.4 1022.16 234.212 1021.69 231.512H1032.39C1032.49 231.08 1032.6 230.216 1032.6 229.28C1032.6 224.42 1030.08 220.712 1025.01 220.712C1020.72 220.712 1016.58 224.276 1016.58 230.072ZM1021.66 228.236C1022.02 225.86 1023.46 224.744 1025.11 224.744C1027.24 224.744 1028.1 226.184 1028.1 228.236H1021.66ZM1034.96 230.072C1034.96 236.012 1038.82 239.432 1043.78 239.432C1045.73 239.432 1048 238.712 1049.72 237.2L1047.6 233.852C1046.74 234.536 1045.69 235.148 1044.4 235.148C1042.09 235.148 1040.4 233.168 1040.4 230.072C1040.4 226.976 1042.02 224.996 1044.58 224.996C1045.4 224.996 1046.2 225.32 1047.06 226.04L1049.47 222.764C1048.28 221.54 1046.45 220.712 1044.25 220.712C1039.32 220.712 1034.96 224.132 1034.96 230.072ZM1053.28 232.52C1053.28 236.66 1055.01 239.432 1059.44 239.432C1061.17 239.432 1062.46 239.072 1063.4 238.784L1062.57 234.932C1062.1 235.112 1061.45 235.292 1060.88 235.292C1059.47 235.292 1058.57 234.464 1058.57 232.448V225.284H1062.86V221.144H1058.57V216.392H1054.18L1053.57 221.144L1050.83 221.36V225.284H1053.28V232.52ZM1068.72 218.516C1070.52 218.516 1071.78 217.364 1071.78 215.744C1071.78 214.124 1070.52 213.008 1068.72 213.008C1066.96 213.008 1065.66 214.124 1065.66 215.744C1065.66 217.364 1066.96 218.516 1068.72 218.516ZM1066.09 239H1071.39V221.144H1066.09V239ZM1079.9 239H1086.02L1091.85 221.144H1086.77L1084.43 229.568C1083.97 231.332 1083.5 233.204 1083.07 235.076H1082.92C1082.45 233.204 1081.99 231.332 1081.52 229.568L1079.21 221.144H1073.89L1079.9 239ZM1093.06 230.072C1093.06 235.976 1096.99 239.432 1102.1 239.432C1104.22 239.432 1106.6 238.676 1108.43 237.416L1106.67 234.212C1105.37 235.004 1104.15 235.4 1102.82 235.4C1100.44 235.4 1098.64 234.212 1098.17 231.512H1108.87C1108.97 231.08 1109.08 230.216 1109.08 229.28C1109.08 224.42 1106.56 220.712 1101.49 220.712C1097.2 220.712 1093.06 224.276 1093.06 230.072ZM1098.14 228.236C1098.5 225.86 1099.94 224.744 1101.59 224.744C1103.72 224.744 1104.58 226.184 1104.58 228.236H1098.14ZM1110.9 236.948C1112.7 238.424 1115.4 239.432 1117.74 239.432C1122.53 239.432 1125.09 236.912 1125.09 233.672C1125.09 230.396 1122.53 229.136 1120.26 228.308C1118.43 227.624 1116.77 227.192 1116.77 226.04C1116.77 225.14 1117.42 224.636 1118.79 224.636C1120.05 224.636 1121.27 225.212 1122.57 226.148L1124.94 222.98C1123.4 221.828 1121.38 220.712 1118.64 220.712C1114.5 220.712 1111.8 222.98 1111.8 226.292C1111.8 229.244 1114.36 230.72 1116.52 231.548C1118.36 232.268 1120.16 232.808 1120.16 233.996C1120.16 234.932 1119.47 235.508 1117.89 235.508C1116.38 235.508 1114.9 234.86 1113.28 233.636L1110.9 236.948Z" fill="#009CDE"/>
<path d="M784.183 567.192C784.183 574.896 788.575 579.432 794.515 579.432C797.539 579.432 799.843 578.172 801.715 576.012L800.023 574.176C798.511 575.868 796.855 576.804 794.587 576.804C790.123 576.804 787.279 573.06 787.279 567.12C787.279 561.252 790.231 557.58 794.731 557.58C796.711 557.58 798.223 558.444 799.447 559.776L801.139 557.868C799.771 556.32 797.539 554.952 794.695 554.952C788.647 554.952 784.183 559.596 784.183 567.192ZM805.579 579H808.531V567.768C809.719 564.816 811.483 563.736 812.959 563.736C813.679 563.736 814.075 563.844 814.651 564.024L815.227 561.432C814.651 561.18 814.111 561.072 813.355 561.072C811.375 561.072 809.575 562.476 808.387 564.672H808.279L808.027 561.504H805.579V579ZM816.162 570.288C816.162 576.012 819.87 579.432 824.55 579.432C826.926 579.432 828.798 578.604 830.31 577.632L829.266 575.688C827.97 576.516 826.566 577.056 824.91 577.056C821.562 577.056 819.294 574.68 819.078 570.9H830.886C830.958 570.468 830.994 569.892 830.994 569.28C830.994 564.276 828.474 561.072 824.01 561.072C820.014 561.072 816.162 564.564 816.162 570.288ZM819.042 568.956C819.402 565.428 821.634 563.412 824.082 563.412C826.818 563.412 828.402 565.392 828.402 568.956H819.042ZM833.711 574.464C833.711 577.596 835.907 579.432 838.859 579.432C841.019 579.432 842.963 578.28 844.655 576.912H844.727L844.979 579H847.427V568.272C847.427 563.916 845.627 561.072 841.343 561.072C838.535 561.072 836.087 562.296 834.467 563.34L835.655 565.392C837.023 564.456 838.823 563.52 840.875 563.52C843.719 563.52 844.475 565.68 844.475 567.912C837.023 568.74 833.711 570.648 833.711 574.464ZM836.627 574.248C836.627 572.016 838.607 570.576 844.475 569.856V574.716C842.783 576.228 841.379 577.056 839.687 577.056C837.959 577.056 836.627 576.228 836.627 574.248ZM853.251 573.6C853.251 577.056 854.511 579.432 858.255 579.432C859.335 579.432 860.523 579.108 861.495 578.784L860.919 576.552C860.343 576.768 859.551 577.02 858.939 577.02C856.923 577.02 856.239 575.796 856.239 573.636V563.916H860.955V561.504H856.239V556.608H853.755L853.395 561.504L850.659 561.684V563.916H853.251V573.6ZM863.013 570.288C863.013 576.012 866.721 579.432 871.401 579.432C873.777 579.432 875.649 578.604 877.161 577.632L876.117 575.688C874.821 576.516 873.417 577.056 871.761 577.056C868.413 577.056 866.145 574.68 865.929 570.9H877.737C877.809 570.468 877.845 569.892 877.845 569.28C877.845 564.276 875.325 561.072 870.861 561.072C866.865 561.072 863.013 564.564 863.013 570.288ZM865.893 568.956C866.253 565.428 868.485 563.412 870.933 563.412C873.669 563.412 875.253 565.392 875.253 568.956H865.893ZM879.975 577.02C881.631 578.388 884.007 579.432 886.491 579.432C890.631 579.432 892.899 577.056 892.899 574.212C892.899 570.9 890.091 569.856 887.571 568.92C885.591 568.164 883.683 567.552 883.683 565.896C883.683 564.564 884.691 563.376 886.887 563.376C888.435 563.376 889.695 564.024 890.883 564.924L892.287 563.052C890.955 561.972 889.047 561.072 886.851 561.072C883.071 561.072 880.839 563.232 880.839 566.04C880.839 568.992 883.575 570.18 886.059 571.08C887.967 571.8 890.055 572.592 890.055 574.392C890.055 575.904 888.903 577.128 886.599 577.128C884.511 577.128 882.963 576.264 881.451 575.04L879.975 577.02ZM1120.03 572.7C1120.03 570.864 1121.33 569.46 1122.99 568.128C1124.64 570.648 1126.87 573.132 1129.18 575.148C1127.81 576.336 1126.3 577.056 1124.68 577.056C1122.09 577.056 1120.03 575.328 1120.03 572.7ZM1122.81 560.496C1122.81 558.552 1123.96 557.076 1125.72 557.076C1127.31 557.076 1127.95 558.3 1127.95 559.668C1127.95 561.756 1126.08 563.196 1123.92 564.636C1123.24 563.196 1122.81 561.792 1122.81 560.496ZM1137.39 576.984C1136.09 576.624 1134.58 575.832 1132.96 574.716C1134.83 572.232 1136.16 569.352 1137.1 566.256H1134.33C1133.61 568.956 1132.45 571.296 1131.01 573.24C1128.78 571.368 1126.59 569.028 1125.04 566.616C1127.67 564.708 1130.37 562.728 1130.37 559.632C1130.37 556.86 1128.64 554.952 1125.72 554.952C1122.45 554.952 1120.25 557.4 1120.25 560.532C1120.25 562.26 1120.83 564.132 1121.8 566.076C1119.39 567.732 1117.15 569.712 1117.15 572.88C1117.15 576.696 1120.07 579.432 1124.35 579.432C1127.13 579.432 1129.36 578.352 1131.16 576.732C1133.07 578.064 1134.94 578.964 1136.59 579.432L1137.39 576.984ZM774.714 605.904C775.866 605.904 776.766 605.112 776.766 603.996C776.766 602.844 775.866 602.088 774.714 602.088C773.562 602.088 772.662 602.844 772.662 603.996C772.662 605.112 773.562 605.904 774.714 605.904ZM773.202 627H776.154V609.504H773.202V627ZM781.811 627H784.763V614.328C786.383 612.528 787.859 611.628 789.155 611.628C791.387 611.628 792.431 613.032 792.431 616.308V627H795.383V614.328C797.003 612.528 798.407 611.628 799.775 611.628C801.971 611.628 803.015 613.032 803.015 616.308V627H805.967V615.912C805.967 611.448 804.239 609.072 800.639 609.072C798.515 609.072 796.715 610.44 794.879 612.42C794.159 610.332 792.719 609.072 790.055 609.072C787.967 609.072 786.131 610.368 784.619 612.024H784.511L784.259 609.504H781.811V627ZM814.289 625.416C815.909 626.676 817.529 627.432 819.149 627.432C823.145 627.432 826.709 623.94 826.709 618C826.709 612.564 824.297 609.072 819.797 609.072C817.745 609.072 815.801 610.188 814.217 611.52H814.109L813.857 609.504H811.409V634.38H814.361V628.476L814.289 625.416ZM814.361 623.112V613.932C816.089 612.384 817.565 611.556 819.041 611.556C822.353 611.556 823.649 614.148 823.649 618C823.649 622.32 821.525 624.948 818.645 624.948C817.493 624.948 815.945 624.444 814.361 623.112ZM831.128 627H834.08V615.768C835.268 612.816 837.032 611.736 838.508 611.736C839.228 611.736 839.624 611.844 840.2 612.024L840.776 609.432C840.2 609.18 839.66 609.072 838.904 609.072C836.924 609.072 835.124 610.476 833.936 612.672H833.828L833.576 609.504H831.128V627ZM841.711 618.288C841.711 624.084 845.527 627.432 849.811 627.432C854.095 627.432 857.911 624.084 857.911 618.288C857.911 612.42 854.095 609.072 849.811 609.072C845.527 609.072 841.711 612.42 841.711 618.288ZM844.771 618.288C844.771 614.256 846.823 611.52 849.811 611.52C852.835 611.52 854.851 614.256 854.851 618.288C854.851 622.284 852.835 624.984 849.811 624.984C846.823 624.984 844.771 622.284 844.771 618.288ZM865.908 627H869.364L875.556 609.504H872.64L869.328 619.44C868.824 621.168 868.248 622.932 867.744 624.588H867.6C867.06 622.932 866.484 621.168 865.98 619.44L862.668 609.504H859.608L865.908 627ZM877.246 618.288C877.246 624.012 880.954 627.432 885.634 627.432C888.01 627.432 889.882 626.604 891.394 625.632L890.35 623.688C889.054 624.516 887.65 625.056 885.994 625.056C882.646 625.056 880.378 622.68 880.162 618.9H891.97C892.042 618.468 892.078 617.892 892.078 617.28C892.078 612.276 889.558 609.072 885.094 609.072C881.098 609.072 877.246 612.564 877.246 618.288ZM880.126 616.956C880.486 613.428 882.718 611.412 885.166 611.412C887.902 611.412 889.486 613.392 889.486 616.956H880.126ZM894.207 625.02C895.863 626.388 898.239 627.432 900.723 627.432C904.863 627.432 907.131 625.056 907.131 622.212C907.131 618.9 904.323 617.856 901.803 616.92C899.823 616.164 897.915 615.552 897.915 613.896C897.915 612.564 898.923 611.376 901.119 611.376C902.667 611.376 903.927 612.024 905.115 612.924L906.519 611.052C905.187 609.972 903.279 609.072 901.083 609.072C897.303 609.072 895.071 611.232 895.071 614.04C895.071 616.992 897.807 618.18 900.291 619.08C902.199 619.8 904.287 620.592 904.287 622.392C904.287 623.904 903.135 625.128 900.831 625.128C898.743 625.128 897.195 624.264 895.683 623.04L894.207 625.02ZM916.715 618.288C916.715 624.084 920.279 627.432 924.923 627.432C927.011 627.432 929.027 626.568 930.611 625.164L929.279 623.22C928.235 624.156 926.831 624.984 925.175 624.984C921.971 624.984 919.775 622.284 919.775 618.288C919.775 614.256 922.079 611.52 925.247 611.52C926.651 611.52 927.731 612.168 928.775 613.068L930.251 611.16C929.063 610.044 927.443 609.072 925.139 609.072C920.639 609.072 916.715 612.42 916.715 618.288ZM932.109 618.288C932.109 624.084 935.925 627.432 940.209 627.432C944.493 627.432 948.309 624.084 948.309 618.288C948.309 612.42 944.493 609.072 940.209 609.072C935.925 609.072 932.109 612.42 932.109 618.288ZM935.169 618.288C935.169 614.256 937.221 611.52 940.209 611.52C943.233 611.52 945.249 614.256 945.249 618.288C945.249 622.284 943.233 624.984 940.209 624.984C937.221 624.984 935.169 622.284 935.169 618.288ZM952.667 627H955.619V614.328C957.239 612.528 958.715 611.628 960.011 611.628C962.243 611.628 963.287 613.032 963.287 616.308V627H966.239V614.328C967.859 612.528 969.263 611.628 970.631 611.628C972.827 611.628 973.871 613.032 973.871 616.308V627H976.823V615.912C976.823 611.448 975.095 609.072 971.495 609.072C969.371 609.072 967.571 610.44 965.735 612.42C965.015 610.332 963.575 609.072 960.911 609.072C958.823 609.072 956.987 610.368 955.475 612.024H955.367L955.115 609.504H952.667V627ZM982.265 627H985.217V614.328C986.837 612.528 988.312 611.628 989.609 611.628C991.841 611.628 992.885 613.032 992.885 616.308V627H995.837V614.328C997.457 612.528 998.861 611.628 1000.23 611.628C1002.42 611.628 1003.47 613.032 1003.47 616.308V627H1006.42V615.912C1006.42 611.448 1004.69 609.072 1001.09 609.072C998.969 609.072 997.169 610.44 995.333 612.42C994.613 610.332 993.173 609.072 990.509 609.072C988.421 609.072 986.585 610.368 985.073 612.024H984.965L984.713 609.504H982.265V627ZM1011.61 620.592C1011.61 625.056 1013.27 627.432 1016.97 627.432C1019.39 627.432 1021.11 626.172 1022.73 624.264H1022.84L1023.09 627H1025.54V609.504H1022.59V621.924C1020.93 623.976 1019.67 624.876 1017.87 624.876C1015.57 624.876 1014.6 623.472 1014.6 620.196V609.504H1011.61V620.592ZM1031.19 627H1034.15V614.328C1035.91 612.564 1037.13 611.628 1038.93 611.628C1041.24 611.628 1042.25 613.032 1042.25 616.308V627H1045.2V615.912C1045.2 611.448 1043.54 609.072 1039.87 609.072C1037.46 609.072 1035.66 610.368 1034 612.024H1033.89L1033.64 609.504H1031.19V627ZM1052.14 605.904C1053.3 605.904 1054.2 605.112 1054.2 603.996C1054.2 602.844 1053.3 602.088 1052.14 602.088C1050.99 602.088 1050.09 602.844 1050.09 603.996C1050.09 605.112 1050.99 605.904 1052.14 605.904ZM1050.63 627H1053.58V609.504H1050.63V627ZM1057.95 618.288C1057.95 624.084 1061.51 627.432 1066.15 627.432C1068.24 627.432 1070.26 626.568 1071.84 625.164L1070.51 623.22C1069.47 624.156 1068.06 624.984 1066.41 624.984C1063.2 624.984 1061.01 622.284 1061.01 618.288C1061.01 614.256 1063.31 611.52 1066.48 611.52C1067.88 611.52 1068.96 612.168 1070.01 613.068L1071.48 611.16C1070.29 610.044 1068.67 609.072 1066.37 609.072C1061.87 609.072 1057.95 612.42 1057.95 618.288ZM1074.19 622.464C1074.19 625.596 1076.39 627.432 1079.34 627.432C1081.5 627.432 1083.45 626.28 1085.14 624.912H1085.21L1085.46 627H1087.91V616.272C1087.91 611.916 1086.11 609.072 1081.83 609.072C1079.02 609.072 1076.57 610.296 1074.95 611.34L1076.14 613.392C1077.51 612.456 1079.31 611.52 1081.36 611.52C1084.2 611.52 1084.96 613.68 1084.96 615.912C1077.51 616.74 1074.19 618.648 1074.19 622.464ZM1077.11 622.248C1077.11 620.016 1079.09 618.576 1084.96 617.856V622.716C1083.27 624.228 1081.86 625.056 1080.17 625.056C1078.44 625.056 1077.11 624.228 1077.11 622.248ZM1093.73 621.6C1093.73 625.056 1094.99 627.432 1098.74 627.432C1099.82 627.432 1101.01 627.108 1101.98 626.784L1101.4 624.552C1100.83 624.768 1100.03 625.02 1099.42 625.02C1097.41 625.02 1096.72 623.796 1096.72 621.636V611.916H1101.44V609.504H1096.72V604.608H1094.24L1093.88 609.504L1091.14 609.684V611.916H1093.73V621.6ZM1106.66 605.904C1107.81 605.904 1108.71 605.112 1108.71 603.996C1108.71 602.844 1107.81 602.088 1106.66 602.088C1105.5 602.088 1104.6 602.844 1104.6 603.996C1104.6 605.112 1105.5 605.904 1106.66 605.904ZM1105.14 627H1108.1V609.504H1105.14V627ZM1112.46 618.288C1112.46 624.084 1116.27 627.432 1120.56 627.432C1124.84 627.432 1128.66 624.084 1128.66 618.288C1128.66 612.42 1124.84 609.072 1120.56 609.072C1116.27 609.072 1112.46 612.42 1112.46 618.288ZM1115.52 618.288C1115.52 614.256 1117.57 611.52 1120.56 611.52C1123.58 611.52 1125.6 614.256 1125.6 618.288C1125.6 622.284 1123.58 624.984 1120.56 624.984C1117.57 624.984 1115.52 622.284 1115.52 618.288ZM1133.01 627H1135.97V614.328C1137.73 612.564 1138.95 611.628 1140.75 611.628C1143.06 611.628 1144.07 613.032 1144.07 616.308V627H1147.02V615.912C1147.02 611.448 1145.36 609.072 1141.69 609.072C1139.28 609.072 1137.48 610.368 1135.82 612.024H1135.71L1135.46 609.504H1133.01V627Z" fill="#2B2B2B"/>
<path d="M903.886 572.52C903.886 576.66 905.614 579.432 910.042 579.432C911.77 579.432 913.066 579.072 914.002 578.784L913.174 574.932C912.706 575.112 912.058 575.292 911.482 575.292C910.078 575.292 909.178 574.464 909.178 572.448V565.284H913.462V561.144H909.178V556.392H904.786L904.174 561.144L901.438 561.36V565.284H903.886V572.52ZM916.697 579H921.989V568.632C922.925 566.22 924.581 565.356 925.913 565.356C926.669 565.356 927.209 565.464 927.857 565.644L928.721 561.072C928.217 560.856 927.605 560.712 926.597 560.712C924.761 560.712 922.817 561.864 921.521 564.276H921.377L921.017 561.144H916.697V579ZM929.088 574.032C929.088 577.056 931.14 579.432 934.38 579.432C936.396 579.432 938.088 578.496 939.6 577.164H939.708L940.104 579H944.424V568.776C944.424 563.304 941.904 560.712 937.332 560.712C934.524 560.712 931.968 561.684 929.7 563.052L931.572 566.544C933.3 565.536 934.812 564.924 936.324 564.924C938.232 564.924 939.024 565.932 939.132 567.516C932.076 568.236 929.088 570.288 929.088 574.032ZM934.128 573.636C934.128 572.268 935.352 571.188 939.132 570.684V573.816C938.196 574.752 937.404 575.328 936.18 575.328C934.92 575.328 934.128 574.788 934.128 573.636ZM948.717 579H954.009V566.94C955.161 565.824 955.989 565.212 957.321 565.212C958.833 565.212 959.517 566.004 959.517 568.596V579H964.809V567.912C964.809 563.448 963.153 560.712 959.265 560.712C956.853 560.712 955.053 561.972 953.541 563.412H953.397L953.037 561.144H948.717V579ZM967.485 576.948C969.285 578.424 971.985 579.432 974.325 579.432C979.113 579.432 981.669 576.912 981.669 573.672C981.669 570.396 979.113 569.136 976.845 568.308C975.009 567.624 973.353 567.192 973.353 566.04C973.353 565.14 974.001 564.636 975.369 564.636C976.629 564.636 977.853 565.212 979.149 566.148L981.525 562.98C979.977 561.828 977.961 560.712 975.225 560.712C971.085 560.712 968.385 562.98 968.385 566.292C968.385 569.244 970.941 570.72 973.101 571.548C974.937 572.268 976.737 572.808 976.737 573.996C976.737 574.932 976.053 575.508 974.469 575.508C972.957 575.508 971.481 574.86 969.861 573.636L967.485 576.948ZM989.891 577.56C991.151 578.748 992.591 579.432 994.139 579.432C997.991 579.432 1001.66 575.904 1001.66 569.784C1001.66 564.276 998.999 560.712 994.679 560.712C992.807 560.712 991.007 561.648 989.603 562.908H989.459L989.099 561.144H984.779V585.624H990.071V580.404L989.891 577.56ZM990.071 573.96V566.652C991.115 565.536 992.051 565.032 993.131 565.032C995.255 565.032 996.227 566.652 996.227 569.856C996.227 573.528 994.751 575.112 992.915 575.112C992.015 575.112 991.007 574.824 990.071 573.96ZM1004.13 574.032C1004.13 577.056 1006.18 579.432 1009.42 579.432C1011.44 579.432 1013.13 578.496 1014.64 577.164H1014.75L1015.15 579H1019.47V568.776C1019.47 563.304 1016.95 560.712 1012.38 560.712C1009.57 560.712 1007.01 561.684 1004.74 563.052L1006.62 566.544C1008.34 565.536 1009.86 564.924 1011.37 564.924C1013.28 564.924 1014.07 565.932 1014.18 567.516C1007.12 568.236 1004.13 570.288 1004.13 574.032ZM1009.17 573.636C1009.17 572.268 1010.4 571.188 1014.18 570.684V573.816C1013.24 574.752 1012.45 575.328 1011.22 575.328C1009.96 575.328 1009.17 574.788 1009.17 573.636ZM1023.76 579H1029.05V568.632C1029.99 566.22 1031.64 565.356 1032.98 565.356C1033.73 565.356 1034.27 565.464 1034.92 565.644L1035.78 561.072C1035.28 560.856 1034.67 560.712 1033.66 560.712C1031.82 560.712 1029.88 561.864 1028.58 564.276H1028.44L1028.08 561.144H1023.76V579ZM1036.46 570.072C1036.46 575.976 1040.38 579.432 1045.49 579.432C1047.62 579.432 1049.99 578.676 1051.83 577.416L1050.07 574.212C1048.77 575.004 1047.55 575.4 1046.21 575.4C1043.84 575.4 1042.04 574.212 1041.57 571.512H1052.26C1052.37 571.08 1052.48 570.216 1052.48 569.28C1052.48 564.42 1049.96 560.712 1044.88 560.712C1040.6 560.712 1036.46 564.276 1036.46 570.072ZM1041.53 568.236C1041.89 565.86 1043.33 564.744 1044.99 564.744C1047.11 564.744 1047.98 566.184 1047.98 568.236H1041.53ZM1055.88 579H1061.18V566.94C1062.33 565.824 1063.16 565.212 1064.49 565.212C1066 565.212 1066.68 566.004 1066.68 568.596V579H1071.98V567.912C1071.98 563.448 1070.32 560.712 1066.43 560.712C1064.02 560.712 1062.22 561.972 1060.71 563.412H1060.56L1060.2 561.144H1055.88V579ZM1075.19 570.072C1075.19 576.012 1079.04 579.432 1084.01 579.432C1085.96 579.432 1088.22 578.712 1089.95 577.2L1087.83 573.852C1086.96 574.536 1085.92 575.148 1084.62 575.148C1082.32 575.148 1080.63 573.168 1080.63 570.072C1080.63 566.976 1082.25 564.996 1084.8 564.996C1085.63 564.996 1086.42 565.32 1087.29 566.04L1089.7 562.764C1088.51 561.54 1086.68 560.712 1084.48 560.712C1079.55 560.712 1075.19 564.132 1075.19 570.072ZM1093.19 581.592L1092.25 585.624C1092.97 585.84 1093.69 585.984 1094.77 585.984C1098.98 585.984 1100.89 583.68 1102.58 579.18L1108.78 561.144H1103.7L1101.54 568.812C1101.11 570.504 1100.71 572.196 1100.32 573.888H1100.17C1099.7 572.124 1099.27 570.432 1098.77 568.812L1096.21 561.144H1090.88L1097.76 578.532L1097.51 579.468C1097.04 580.872 1096.14 581.808 1094.38 581.808C1093.98 581.808 1093.51 581.664 1093.19 581.592Z" fill="#009CDE"/>
<path d="M1280.41 263H1283.4V251.876H1294.38V263H1297.4V239.384H1294.38V249.284H1283.4V239.384H1280.41V263ZM1302.06 254.288C1302.06 260.012 1305.77 263.432 1310.45 263.432C1312.82 263.432 1314.7 262.604 1316.21 261.632L1315.16 259.688C1313.87 260.516 1312.46 261.056 1310.81 261.056C1307.46 261.056 1305.19 258.68 1304.98 254.9H1316.78C1316.86 254.468 1316.89 253.892 1316.89 253.28C1316.89 248.276 1314.37 245.072 1309.91 245.072C1305.91 245.072 1302.06 248.564 1302.06 254.288ZM1304.94 252.956C1305.3 249.428 1307.53 247.412 1309.98 247.412C1312.72 247.412 1314.3 249.392 1314.3 252.956H1304.94ZM1320.97 259.472C1320.97 262.028 1321.87 263.432 1324.1 263.432C1324.89 263.432 1325.39 263.324 1325.79 263.144L1325.39 260.912C1325.07 260.984 1324.93 260.984 1324.75 260.984C1324.31 260.984 1323.92 260.624 1323.92 259.688V237.368H1320.97V259.472ZM1332.77 261.416C1334.39 262.676 1336.01 263.432 1337.63 263.432C1341.63 263.432 1345.19 259.94 1345.19 254C1345.19 248.564 1342.78 245.072 1338.28 245.072C1336.23 245.072 1334.28 246.188 1332.7 247.52H1332.59L1332.34 245.504H1329.89V270.38H1332.84V264.476L1332.77 261.416ZM1332.84 259.112V249.932C1334.57 248.384 1336.05 247.556 1337.52 247.556C1340.84 247.556 1342.13 250.148 1342.13 254C1342.13 258.32 1340.01 260.948 1337.13 260.948C1335.98 260.948 1334.43 260.444 1332.84 259.112ZM1347.67 261.02C1349.32 262.388 1351.7 263.432 1354.18 263.432C1358.32 263.432 1360.59 261.056 1360.59 258.212C1360.59 254.9 1357.78 253.856 1355.26 252.92C1353.28 252.164 1351.37 251.552 1351.37 249.896C1351.37 248.564 1352.38 247.376 1354.58 247.376C1356.13 247.376 1357.39 248.024 1358.57 248.924L1359.98 247.052C1358.65 245.972 1356.74 245.072 1354.54 245.072C1350.76 245.072 1348.53 247.232 1348.53 250.04C1348.53 252.992 1351.27 254.18 1353.75 255.08C1355.66 255.8 1357.75 256.592 1357.75 258.392C1357.75 259.904 1356.59 261.128 1354.29 261.128C1352.2 261.128 1350.65 260.264 1349.14 259.04L1347.67 261.02ZM1371.97 257.6C1371.97 261.056 1373.23 263.432 1376.98 263.432C1378.06 263.432 1379.25 263.108 1380.22 262.784L1379.64 260.552C1379.07 260.768 1378.27 261.02 1377.66 261.02C1375.65 261.02 1374.96 259.796 1374.96 257.636V247.916H1379.68V245.504H1374.96V240.608H1372.48L1372.12 245.504L1369.38 245.684V247.916H1371.97V257.6ZM1381.74 254.288C1381.74 260.084 1385.55 263.432 1389.84 263.432C1394.12 263.432 1397.94 260.084 1397.94 254.288C1397.94 248.42 1394.12 245.072 1389.84 245.072C1385.55 245.072 1381.74 248.42 1381.74 254.288ZM1384.8 254.288C1384.8 250.256 1386.85 247.52 1389.84 247.52C1392.86 247.52 1394.88 250.256 1394.88 254.288C1394.88 258.284 1392.86 260.984 1389.84 260.984C1386.85 260.984 1384.8 258.284 1384.8 254.288ZM1407.38 261.02C1409.03 262.388 1411.41 263.432 1413.89 263.432C1418.03 263.432 1420.3 261.056 1420.3 258.212C1420.3 254.9 1417.49 253.856 1414.97 252.92C1412.99 252.164 1411.09 251.552 1411.09 249.896C1411.09 248.564 1412.09 247.376 1414.29 247.376C1415.84 247.376 1417.1 248.024 1418.29 248.924L1419.69 247.052C1418.36 245.972 1416.45 245.072 1414.25 245.072C1410.47 245.072 1408.24 247.232 1408.24 250.04C1408.24 252.992 1410.98 254.18 1413.46 255.08C1415.37 255.8 1417.46 256.592 1417.46 258.392C1417.46 259.904 1416.31 261.128 1414 261.128C1411.91 261.128 1410.37 260.264 1408.85 259.04L1407.38 261.02ZM1422.86 254.288C1422.86 260.012 1426.57 263.432 1431.25 263.432C1433.62 263.432 1435.49 262.604 1437.01 261.632L1435.96 259.688C1434.67 260.516 1433.26 261.056 1431.61 261.056C1428.26 261.056 1425.99 258.68 1425.77 254.9H1437.58C1437.65 254.468 1437.69 253.892 1437.69 253.28C1437.69 248.276 1435.17 245.072 1430.71 245.072C1426.71 245.072 1422.86 248.564 1422.86 254.288ZM1425.74 252.956C1426.1 249.428 1428.33 247.412 1430.78 247.412C1433.51 247.412 1435.1 249.392 1435.1 252.956H1425.74ZM1441.77 257.6C1441.77 261.056 1443.03 263.432 1446.78 263.432C1447.86 263.432 1449.05 263.108 1450.02 262.784L1449.44 260.552C1448.87 260.768 1448.07 261.02 1447.46 261.02C1445.45 261.02 1444.76 259.796 1444.76 257.636V247.916H1449.48V245.504H1444.76V240.608H1442.28L1441.92 245.504L1439.18 245.684V247.916H1441.77V257.6ZM1461.29 256.7C1461.29 254.864 1462.59 253.46 1464.24 252.128C1465.9 254.648 1468.13 257.132 1470.44 259.148C1469.07 260.336 1467.56 261.056 1465.94 261.056C1463.34 261.056 1461.29 259.328 1461.29 256.7ZM1464.06 244.496C1464.06 242.552 1465.22 241.076 1466.98 241.076C1468.56 241.076 1469.21 242.3 1469.21 243.668C1469.21 245.756 1467.34 247.196 1465.18 248.636C1464.5 247.196 1464.06 245.792 1464.06 244.496ZM1478.64 260.984C1477.35 260.624 1475.84 259.832 1474.22 258.716C1476.09 256.232 1477.42 253.352 1478.36 250.256H1475.58C1474.86 252.956 1473.71 255.296 1472.27 257.24C1470.04 255.368 1467.84 253.028 1466.3 250.616C1468.92 248.708 1471.62 246.728 1471.62 243.632C1471.62 240.86 1469.9 238.952 1466.98 238.952C1463.7 238.952 1461.51 241.4 1461.51 244.532C1461.51 246.26 1462.08 248.132 1463.06 250.076C1460.64 251.732 1458.41 253.712 1458.41 256.88C1458.41 260.696 1461.33 263.432 1465.61 263.432C1468.38 263.432 1470.62 262.352 1472.42 260.732C1474.32 262.064 1476.2 262.964 1477.85 263.432L1478.64 260.984ZM1296.08 305.6C1296.08 309.056 1297.34 311.432 1301.08 311.432C1302.16 311.432 1303.35 311.108 1304.32 310.784L1303.74 308.552C1303.17 308.768 1302.38 309.02 1301.76 309.02C1299.75 309.02 1299.06 307.796 1299.06 305.636V295.916H1303.78V293.504H1299.06V288.608H1296.58L1296.22 293.504L1293.48 293.684V295.916H1296.08V305.6ZM1307.49 311H1310.44V298.328C1312.2 296.564 1313.43 295.628 1315.23 295.628C1317.53 295.628 1318.54 297.032 1318.54 300.308V311H1321.49V299.912C1321.49 295.448 1319.83 293.072 1316.16 293.072C1313.75 293.072 1311.99 294.368 1310.33 295.952L1310.44 292.352V285.368H1307.49V311ZM1325.52 302.288C1325.52 308.012 1329.23 311.432 1333.91 311.432C1336.29 311.432 1338.16 310.604 1339.67 309.632L1338.63 307.688C1337.33 308.516 1335.93 309.056 1334.27 309.056C1330.92 309.056 1328.65 306.68 1328.44 302.9H1340.25C1340.32 302.468 1340.35 301.892 1340.35 301.28C1340.35 296.276 1337.83 293.072 1333.37 293.072C1329.37 293.072 1325.52 296.564 1325.52 302.288ZM1328.4 300.956C1328.76 297.428 1330.99 295.412 1333.44 295.412C1336.18 295.412 1337.76 297.392 1337.76 300.956H1328.4ZM1351.45 311H1354.41V299.768C1355.59 296.816 1357.36 295.736 1358.83 295.736C1359.55 295.736 1359.95 295.844 1360.53 296.024L1361.1 293.432C1360.53 293.18 1359.99 293.072 1359.23 293.072C1357.25 293.072 1355.45 294.476 1354.26 296.672H1354.15L1353.9 293.504H1351.45V311ZM1365.2 289.904C1366.35 289.904 1367.25 289.112 1367.25 287.996C1367.25 286.844 1366.35 286.088 1365.2 286.088C1364.04 286.088 1363.14 286.844 1363.14 287.996C1363.14 289.112 1364.04 289.904 1365.2 289.904ZM1363.68 311H1366.64V293.504H1363.68V311ZM1373.55 313.952C1373.55 312.944 1374.09 311.9 1375.35 311C1376.11 311.216 1376.94 311.288 1377.62 311.288H1380.65C1382.91 311.288 1384.17 311.828 1384.17 313.448C1384.17 315.284 1381.98 317.012 1378.63 317.012C1375.46 317.012 1373.55 315.824 1373.55 313.952ZM1370.96 314.348C1370.96 317.372 1373.91 319.064 1378.2 319.064C1383.63 319.064 1387.05 316.256 1387.05 313.016C1387.05 310.1 1385 308.84 1380.93 308.84H1377.55C1375.17 308.84 1374.45 308.048 1374.45 306.932C1374.45 305.96 1374.96 305.384 1375.57 304.844C1376.36 305.24 1377.33 305.456 1378.2 305.456C1381.76 305.456 1384.61 303.116 1384.61 299.372C1384.61 297.896 1383.99 296.564 1383.17 295.772H1386.77V293.504H1380.68C1380.03 293.252 1379.17 293.072 1378.2 293.072C1374.63 293.072 1371.61 295.484 1371.61 299.3C1371.61 301.388 1372.73 303.08 1373.88 304.016V304.16C1372.98 304.772 1371.97 305.924 1371.97 307.4C1371.97 308.768 1372.65 309.704 1373.52 310.244V310.388C1371.93 311.468 1370.96 312.872 1370.96 314.348ZM1378.2 303.476C1376.18 303.476 1374.49 301.856 1374.49 299.3C1374.49 296.744 1376.15 295.232 1378.2 295.232C1380.25 295.232 1381.91 296.744 1381.91 299.3C1381.91 301.856 1380.21 303.476 1378.2 303.476ZM1390.18 311H1393.14V298.328C1394.9 296.564 1396.12 295.628 1397.92 295.628C1400.23 295.628 1401.24 297.032 1401.24 300.308V311H1404.19V299.912C1404.19 295.448 1402.53 293.072 1398.86 293.072C1396.45 293.072 1394.68 294.368 1393.03 295.952L1393.14 292.352V285.368H1390.18V311ZM1410.02 305.6C1410.02 309.056 1411.28 311.432 1415.02 311.432C1416.1 311.432 1417.29 311.108 1418.26 310.784L1417.69 308.552C1417.11 308.768 1416.32 309.02 1415.71 309.02C1413.69 309.02 1413.01 307.796 1413.01 305.636V295.916H1417.72V293.504H1413.01V288.608H1410.52L1410.16 293.504L1407.43 293.684V295.916H1410.02V305.6ZM1431.34 309.416C1432.96 310.676 1434.58 311.432 1436.2 311.432C1440.19 311.432 1443.76 307.94 1443.76 302C1443.76 296.564 1441.35 293.072 1436.85 293.072C1434.79 293.072 1432.85 294.188 1431.27 295.52H1431.16L1430.91 293.504H1428.46V318.38H1431.41V312.476L1431.34 309.416ZM1431.41 307.112V297.932C1433.14 296.384 1434.61 295.556 1436.09 295.556C1439.4 295.556 1440.7 298.148 1440.7 302C1440.7 306.32 1438.57 308.948 1435.69 308.948C1434.54 308.948 1432.99 308.444 1431.41 307.112ZM1448.18 311H1451.13V299.768C1452.32 296.816 1454.08 295.736 1455.56 295.736C1456.28 295.736 1456.67 295.844 1457.25 296.024L1457.82 293.432C1457.25 293.18 1456.71 293.072 1455.95 293.072C1453.97 293.072 1452.17 294.476 1450.98 296.672H1450.88L1450.62 293.504H1448.18V311ZM1461.92 289.904C1463.07 289.904 1463.97 289.112 1463.97 287.996C1463.97 286.844 1463.07 286.088 1461.92 286.088C1460.77 286.088 1459.87 286.844 1459.87 287.996C1459.87 289.112 1460.77 289.904 1461.92 289.904ZM1460.41 311H1463.36V293.504H1460.41V311ZM1467.72 302.288C1467.72 308.084 1471.54 311.432 1475.82 311.432C1480.1 311.432 1483.92 308.084 1483.92 302.288C1483.92 296.42 1480.1 293.072 1475.82 293.072C1471.54 293.072 1467.72 296.42 1467.72 302.288ZM1470.78 302.288C1470.78 298.256 1472.83 295.52 1475.82 295.52C1478.84 295.52 1480.86 298.256 1480.86 302.288C1480.86 306.284 1478.84 308.984 1475.82 308.984C1472.83 308.984 1470.78 306.284 1470.78 302.288ZM1488.28 311H1491.23V299.768C1492.42 296.816 1494.18 295.736 1495.66 295.736C1496.38 295.736 1496.77 295.844 1497.35 296.024L1497.93 293.432C1497.35 293.18 1496.81 293.072 1496.05 293.072C1494.07 293.072 1492.27 294.476 1491.09 296.672H1490.98L1490.73 293.504H1488.28V311ZM1502.02 289.904C1503.17 289.904 1504.07 289.112 1504.07 287.996C1504.07 286.844 1503.17 286.088 1502.02 286.088C1500.87 286.088 1499.97 286.844 1499.97 287.996C1499.97 289.112 1500.87 289.904 1502.02 289.904ZM1500.51 311H1503.46V293.504H1500.51V311ZM1509.62 305.6C1509.62 309.056 1510.88 311.432 1514.63 311.432C1515.71 311.432 1516.89 311.108 1517.87 310.784L1517.29 308.552C1516.71 308.768 1515.92 309.02 1515.31 309.02C1513.29 309.02 1512.61 307.796 1512.61 305.636V295.916H1517.33V293.504H1512.61V288.608H1510.13L1509.77 293.504L1507.03 293.684V295.916H1509.62V305.6ZM1522.54 289.904C1523.7 289.904 1524.6 289.112 1524.6 287.996C1524.6 286.844 1523.7 286.088 1522.54 286.088C1521.39 286.088 1520.49 286.844 1520.49 287.996C1520.49 289.112 1521.39 289.904 1522.54 289.904ZM1521.03 311H1523.98V293.504H1521.03V311ZM1528.35 302.288C1528.35 308.012 1532.05 311.432 1536.73 311.432C1539.11 311.432 1540.98 310.604 1542.49 309.632L1541.45 307.688C1540.15 308.516 1538.75 309.056 1537.09 309.056C1533.75 309.056 1531.48 306.68 1531.26 302.9H1543.07C1543.14 302.468 1543.18 301.892 1543.18 301.28C1543.18 296.276 1540.66 293.072 1536.19 293.072C1532.2 293.072 1528.35 296.564 1528.35 302.288ZM1531.23 300.956C1531.59 297.428 1533.82 295.412 1536.27 295.412C1539 295.412 1540.59 297.392 1540.59 300.956H1531.23ZM1545.31 309.02C1546.96 310.388 1549.34 311.432 1551.82 311.432C1555.96 311.432 1558.23 309.056 1558.23 306.212C1558.23 302.9 1555.42 301.856 1552.9 300.92C1550.92 300.164 1549.01 299.552 1549.01 297.896C1549.01 296.564 1550.02 295.376 1552.22 295.376C1553.77 295.376 1555.03 296.024 1556.21 296.924L1557.62 295.052C1556.29 293.972 1554.38 293.072 1552.18 293.072C1548.4 293.072 1546.17 295.232 1546.17 298.04C1546.17 300.992 1548.91 302.18 1551.39 303.08C1553.3 303.8 1555.39 304.592 1555.39 306.392C1555.39 307.904 1554.23 309.128 1551.93 309.128C1549.84 309.128 1548.29 308.264 1546.78 307.04L1545.31 309.02Z" fill="#2B2B2B"/>
<path d="M1489.03 256.52C1489.03 260.66 1490.76 263.432 1495.19 263.432C1496.92 263.432 1498.21 263.072 1499.15 262.784L1498.32 258.932C1497.85 259.112 1497.21 259.292 1496.63 259.292C1495.23 259.292 1494.33 258.464 1494.33 256.448V249.284H1498.61V245.144H1494.33V240.392H1489.93L1489.32 245.144L1486.59 245.36V249.284H1489.03V256.52ZM1501.85 263H1507.14V252.632C1508.07 250.22 1509.73 249.356 1511.06 249.356C1511.82 249.356 1512.36 249.464 1513.01 249.644L1513.87 245.072C1513.37 244.856 1512.75 244.712 1511.75 244.712C1509.91 244.712 1507.97 245.864 1506.67 248.276H1506.53L1506.17 245.144H1501.85V263ZM1514.24 258.032C1514.24 261.056 1516.29 263.432 1519.53 263.432C1521.54 263.432 1523.24 262.496 1524.75 261.164H1524.86L1525.25 263H1529.57V252.776C1529.57 247.304 1527.05 244.712 1522.48 244.712C1519.67 244.712 1517.12 245.684 1514.85 247.052L1516.72 250.544C1518.45 249.536 1519.96 248.924 1521.47 248.924C1523.38 248.924 1524.17 249.932 1524.28 251.516C1517.22 252.236 1514.24 254.288 1514.24 258.032ZM1519.28 257.636C1519.28 256.268 1520.5 255.188 1524.28 254.684V257.816C1523.34 258.752 1522.55 259.328 1521.33 259.328C1520.07 259.328 1519.28 258.788 1519.28 257.636ZM1532.82 254.072C1532.82 260.012 1536.67 263.432 1541.64 263.432C1543.59 263.432 1545.85 262.712 1547.58 261.2L1545.46 257.852C1544.59 258.536 1543.55 259.148 1542.25 259.148C1539.95 259.148 1538.26 257.168 1538.26 254.072C1538.26 250.976 1539.88 248.996 1542.43 248.996C1543.26 248.996 1544.05 249.32 1544.92 250.04L1547.33 246.764C1546.14 245.54 1544.31 244.712 1542.11 244.712C1537.18 244.712 1532.82 248.132 1532.82 254.072ZM1550.42 263H1555.57V258.608L1557.84 256.052L1561.87 263H1567.59L1560.86 252.488L1567.12 245.144H1561.36L1555.71 252.236H1555.57V237.764H1550.42V263Z" fill="#009CDE"/>
<path d="M1321.18 555H1335.15V552.444H1324.17V543.876H1333.13V541.32H1324.17V533.904H1334.79V531.384H1321.18V555ZM1339.62 555H1342.58V542.328C1344.34 540.564 1345.56 539.628 1347.36 539.628C1349.67 539.628 1350.68 541.032 1350.68 544.308V555H1353.63V543.912C1353.63 539.448 1351.97 537.072 1348.3 537.072C1345.89 537.072 1344.09 538.368 1342.43 540.024H1342.32L1342.07 537.504H1339.62V555ZM1357.77 546.288C1357.77 552.084 1361.33 555.432 1365.97 555.432C1368.06 555.432 1370.08 554.568 1371.66 553.164L1370.33 551.22C1369.29 552.156 1367.88 552.984 1366.23 552.984C1363.02 552.984 1360.83 550.284 1360.83 546.288C1360.83 542.256 1363.13 539.52 1366.3 539.52C1367.7 539.52 1368.78 540.168 1369.83 541.068L1371.3 539.16C1370.11 538.044 1368.49 537.072 1366.19 537.072C1361.69 537.072 1357.77 540.42 1357.77 546.288ZM1373.16 546.288C1373.16 552.084 1376.98 555.432 1381.26 555.432C1385.54 555.432 1389.36 552.084 1389.36 546.288C1389.36 540.42 1385.54 537.072 1381.26 537.072C1376.98 537.072 1373.16 540.42 1373.16 546.288ZM1376.22 546.288C1376.22 542.256 1378.27 539.52 1381.26 539.52C1384.28 539.52 1386.3 542.256 1386.3 546.288C1386.3 550.284 1384.28 552.984 1381.26 552.984C1378.27 552.984 1376.22 550.284 1376.22 546.288ZM1393.47 548.592C1393.47 553.056 1395.12 555.432 1398.83 555.432C1401.24 555.432 1402.97 554.172 1404.59 552.264H1404.7L1404.95 555H1407.4V537.504H1404.45V549.924C1402.79 551.976 1401.53 552.876 1399.73 552.876C1397.43 552.876 1396.45 551.472 1396.45 548.196V537.504H1393.47V548.592ZM1413.05 555H1416V543.768C1417.19 540.816 1418.95 539.736 1420.43 539.736C1421.15 539.736 1421.55 539.844 1422.12 540.024L1422.7 537.432C1422.12 537.18 1421.58 537.072 1420.83 537.072C1418.85 537.072 1417.05 538.476 1415.86 540.672H1415.75L1415.5 537.504H1413.05V555ZM1423.5 550.464C1423.5 553.596 1425.7 555.432 1428.65 555.432C1430.81 555.432 1432.75 554.28 1434.45 552.912H1434.52L1434.77 555H1437.22V544.272C1437.22 539.916 1435.42 537.072 1431.13 537.072C1428.33 537.072 1425.88 538.296 1424.26 539.34L1425.45 541.392C1426.81 540.456 1428.61 539.52 1430.67 539.52C1433.51 539.52 1434.27 541.68 1434.27 543.912C1426.81 544.74 1423.5 546.648 1423.5 550.464ZM1426.42 550.248C1426.42 548.016 1428.4 546.576 1434.27 545.856V550.716C1432.57 552.228 1431.17 553.056 1429.48 553.056C1427.75 553.056 1426.42 552.228 1426.42 550.248ZM1443.8 557.952C1443.8 556.944 1444.34 555.9 1445.6 555C1446.35 555.216 1447.18 555.288 1447.87 555.288H1450.89C1453.16 555.288 1454.42 555.828 1454.42 557.448C1454.42 559.284 1452.22 561.012 1448.87 561.012C1445.71 561.012 1443.8 559.824 1443.8 557.952ZM1441.21 558.348C1441.21 561.372 1444.16 563.064 1448.44 563.064C1453.88 563.064 1457.3 560.256 1457.3 557.016C1457.3 554.1 1455.25 552.84 1451.18 552.84H1447.79C1445.42 552.84 1444.7 552.048 1444.7 550.932C1444.7 549.96 1445.2 549.384 1445.81 548.844C1446.61 549.24 1447.58 549.456 1448.44 549.456C1452.01 549.456 1454.85 547.116 1454.85 543.372C1454.85 541.896 1454.24 540.564 1453.41 539.772H1457.01V537.504H1450.93C1450.28 537.252 1449.41 537.072 1448.44 537.072C1444.88 537.072 1441.85 539.484 1441.85 543.3C1441.85 545.388 1442.97 547.08 1444.12 548.016V548.16C1443.22 548.772 1442.21 549.924 1442.21 551.4C1442.21 552.768 1442.9 553.704 1443.76 554.244V554.388C1442.18 555.468 1441.21 556.872 1441.21 558.348ZM1448.44 547.476C1446.43 547.476 1444.73 545.856 1444.73 543.3C1444.73 540.744 1446.39 539.232 1448.44 539.232C1450.49 539.232 1452.15 540.744 1452.15 543.3C1452.15 545.856 1450.46 547.476 1448.44 547.476ZM1458.64 546.288C1458.64 552.012 1462.35 555.432 1467.03 555.432C1469.4 555.432 1471.28 554.604 1472.79 553.632L1471.74 551.688C1470.45 552.516 1469.04 553.056 1467.39 553.056C1464.04 553.056 1461.77 550.68 1461.56 546.9H1473.36C1473.44 546.468 1473.47 545.892 1473.47 545.28C1473.47 540.276 1470.95 537.072 1466.49 537.072C1462.49 537.072 1458.64 540.564 1458.64 546.288ZM1461.52 544.956C1461.88 541.428 1464.11 539.412 1466.56 539.412C1469.3 539.412 1470.88 541.392 1470.88 544.956H1461.52ZM1475.6 553.02C1477.26 554.388 1479.63 555.432 1482.12 555.432C1486.26 555.432 1488.53 553.056 1488.53 550.212C1488.53 546.9 1485.72 545.856 1483.2 544.92C1481.22 544.164 1479.31 543.552 1479.31 541.896C1479.31 540.564 1480.32 539.376 1482.51 539.376C1484.06 539.376 1485.32 540.024 1486.51 540.924L1487.91 539.052C1486.58 537.972 1484.67 537.072 1482.48 537.072C1478.7 537.072 1476.47 539.232 1476.47 542.04C1476.47 544.992 1479.2 546.18 1481.69 547.08C1483.59 547.8 1485.68 548.592 1485.68 550.392C1485.68 551.904 1484.53 553.128 1482.23 553.128C1480.14 553.128 1478.59 552.264 1477.08 551.04L1475.6 553.02ZM1498.54 550.464C1498.54 553.596 1500.74 555.432 1503.69 555.432C1505.85 555.432 1507.79 554.28 1509.49 552.912H1509.56L1509.81 555H1512.26V544.272C1512.26 539.916 1510.46 537.072 1506.17 537.072C1503.37 537.072 1500.92 538.296 1499.3 539.34L1500.49 541.392C1501.85 540.456 1503.65 539.52 1505.71 539.52C1508.55 539.52 1509.31 541.68 1509.31 543.912C1501.85 544.74 1498.54 546.648 1498.54 550.464ZM1501.46 550.248C1501.46 548.016 1503.44 546.576 1509.31 545.856V550.716C1507.61 552.228 1506.21 553.056 1504.52 553.056C1502.79 553.056 1501.46 552.228 1501.46 550.248ZM1517.58 555H1520.53V542.328C1522.29 540.564 1523.52 539.628 1525.32 539.628C1527.62 539.628 1528.63 541.032 1528.63 544.308V555H1531.58V543.912C1531.58 539.448 1529.93 537.072 1526.25 537.072C1523.84 537.072 1522.04 538.368 1520.39 540.024H1520.28L1520.03 537.504H1517.58V555ZM1497.19 603H1500.64L1503.09 593.64C1503.56 591.984 1503.92 590.328 1504.32 588.564H1504.46C1504.89 590.328 1505.22 591.948 1505.65 593.604L1508.17 603H1511.77L1516.45 585.504H1513.64L1511.08 595.62C1510.72 597.276 1510.4 598.86 1510 600.48H1509.86C1509.46 598.86 1509.07 597.276 1508.64 595.62L1505.9 585.504H1503.02L1500.32 595.62C1499.89 597.24 1499.53 598.86 1499.13 600.48H1498.99C1498.66 598.86 1498.34 597.276 1497.94 595.62L1495.35 585.504H1492.33L1497.19 603ZM1518.57 594.288C1518.57 600.084 1522.39 603.432 1526.67 603.432C1530.95 603.432 1534.77 600.084 1534.77 594.288C1534.77 588.42 1530.95 585.072 1526.67 585.072C1522.39 585.072 1518.57 588.42 1518.57 594.288ZM1521.63 594.288C1521.63 590.256 1523.68 587.52 1526.67 587.52C1529.69 587.52 1531.71 590.256 1531.71 594.288C1531.71 598.284 1529.69 600.984 1526.67 600.984C1523.68 600.984 1521.63 598.284 1521.63 594.288ZM1539.13 603H1542.08V591.768C1543.27 588.816 1545.03 587.736 1546.51 587.736C1547.23 587.736 1547.62 587.844 1548.2 588.024L1548.78 585.432C1548.2 585.18 1547.66 585.072 1546.9 585.072C1544.92 585.072 1543.12 586.476 1541.94 588.672H1541.83L1541.58 585.504H1539.13V603ZM1551.36 603H1554.27V598.392L1557.55 594.576L1562.66 603H1565.9L1559.24 592.524L1565.11 585.504H1561.83L1554.38 594.72H1554.27V577.368H1551.36V603ZM1331.86 642.288C1331.86 648.012 1335.57 651.432 1340.25 651.432C1342.62 651.432 1344.49 650.604 1346.01 649.632L1344.96 647.688C1343.67 648.516 1342.26 649.056 1340.61 649.056C1337.26 649.056 1334.99 646.68 1334.77 642.9H1346.58C1346.65 642.468 1346.69 641.892 1346.69 641.28C1346.69 636.276 1344.17 633.072 1339.71 633.072C1335.71 633.072 1331.86 636.564 1331.86 642.288ZM1334.74 640.956C1335.1 637.428 1337.33 635.412 1339.78 635.412C1342.51 635.412 1344.1 637.392 1344.1 640.956H1334.74ZM1350.76 651H1353.71V638.328C1355.48 636.564 1356.7 635.628 1358.5 635.628C1360.81 635.628 1361.81 637.032 1361.81 640.308V651H1364.77V639.912C1364.77 635.448 1363.11 633.072 1359.44 633.072C1357.03 633.072 1355.23 634.368 1353.57 636.024H1353.46L1353.21 633.504H1350.76V651ZM1373.98 651H1377.44L1383.63 633.504H1380.71L1377.4 643.44C1376.9 645.168 1376.32 646.932 1375.82 648.588H1375.67C1375.13 646.932 1374.56 645.168 1374.05 643.44L1370.74 633.504H1367.68L1373.98 651ZM1388.27 629.904C1389.42 629.904 1390.32 629.112 1390.32 627.996C1390.32 626.844 1389.42 626.088 1388.27 626.088C1387.11 626.088 1386.21 626.844 1386.21 627.996C1386.21 629.112 1387.11 629.904 1388.27 629.904ZM1386.75 651H1389.71V633.504H1386.75V651ZM1395.36 651H1398.32V639.768C1399.5 636.816 1401.27 635.736 1402.74 635.736C1403.46 635.736 1403.86 635.844 1404.44 636.024L1405.01 633.432C1404.44 633.18 1403.9 633.072 1403.14 633.072C1401.16 633.072 1399.36 634.476 1398.17 636.672H1398.06L1397.81 633.504H1395.36V651ZM1405.95 642.288C1405.95 648.084 1409.76 651.432 1414.05 651.432C1418.33 651.432 1422.15 648.084 1422.15 642.288C1422.15 636.42 1418.33 633.072 1414.05 633.072C1409.76 633.072 1405.95 636.42 1405.95 642.288ZM1409.01 642.288C1409.01 638.256 1411.06 635.52 1414.05 635.52C1417.07 635.52 1419.09 638.256 1419.09 642.288C1419.09 646.284 1417.07 648.984 1414.05 648.984C1411.06 648.984 1409.01 646.284 1409.01 642.288ZM1426.5 651H1429.46V638.328C1431.22 636.564 1432.44 635.628 1434.24 635.628C1436.55 635.628 1437.56 637.032 1437.56 640.308V651H1440.51V639.912C1440.51 635.448 1438.85 633.072 1435.18 633.072C1432.77 633.072 1430.97 634.368 1429.31 636.024H1429.2L1428.95 633.504H1426.5V651ZM1445.94 651H1448.89V638.328C1450.51 636.528 1451.99 635.628 1453.29 635.628C1455.52 635.628 1456.56 637.032 1456.56 640.308V651H1459.51V638.328C1461.13 636.528 1462.54 635.628 1463.91 635.628C1466.1 635.628 1467.15 637.032 1467.15 640.308V651H1470.1V639.912C1470.1 635.448 1468.37 633.072 1464.77 633.072C1462.65 633.072 1460.85 634.44 1459.01 636.42C1458.29 634.332 1456.85 633.072 1454.19 633.072C1452.1 633.072 1450.26 634.368 1448.75 636.024H1448.64L1448.39 633.504H1445.94V651ZM1474.24 642.288C1474.24 648.012 1477.95 651.432 1482.63 651.432C1485.01 651.432 1486.88 650.604 1488.39 649.632L1487.35 647.688C1486.05 648.516 1484.65 649.056 1482.99 649.056C1479.64 649.056 1477.38 646.68 1477.16 642.9H1488.97C1489.04 642.468 1489.08 641.892 1489.08 641.28C1489.08 636.276 1486.56 633.072 1482.09 633.072C1478.1 633.072 1474.24 636.564 1474.24 642.288ZM1477.12 640.956C1477.48 637.428 1479.72 635.412 1482.16 635.412C1484.9 635.412 1486.48 637.392 1486.48 640.956H1477.12ZM1493.15 651H1496.1V638.328C1497.87 636.564 1499.09 635.628 1500.89 635.628C1503.19 635.628 1504.2 637.032 1504.2 640.308V651H1507.15V639.912C1507.15 635.448 1505.5 633.072 1501.83 633.072C1499.41 633.072 1497.61 634.368 1495.96 636.024H1495.85L1495.6 633.504H1493.15V651ZM1513.09 645.6C1513.09 649.056 1514.35 651.432 1518.09 651.432C1519.17 651.432 1520.36 651.108 1521.33 650.784L1520.76 648.552C1520.18 648.768 1519.39 649.02 1518.78 649.02C1516.76 649.02 1516.08 647.796 1516.08 645.636V635.916H1520.79V633.504H1516.08V628.608H1513.59L1513.23 633.504L1510.5 633.684V635.916H1513.09V645.6Z" fill="#2B2B2B"/>
<path d="M1287.71 598.032C1287.71 601.056 1289.76 603.432 1293 603.432C1295.02 603.432 1296.71 602.496 1298.22 601.164H1298.33L1298.73 603H1303.05V592.776C1303.05 587.304 1300.53 584.712 1295.96 584.712C1293.15 584.712 1290.59 585.684 1288.32 587.052L1290.2 590.544C1291.92 589.536 1293.44 588.924 1294.95 588.924C1296.86 588.924 1297.65 589.932 1297.76 591.516C1290.7 592.236 1287.71 594.288 1287.71 598.032ZM1292.75 597.636C1292.75 596.268 1293.98 595.188 1297.76 594.684V597.816C1296.82 598.752 1296.03 599.328 1294.8 599.328C1293.54 599.328 1292.75 598.788 1292.75 597.636ZM1307.16 596.232C1307.16 600.696 1308.82 603.432 1312.7 603.432C1315.15 603.432 1316.81 602.316 1318.32 600.516H1318.43L1318.82 603H1323.14V585.144H1317.85V596.952C1316.81 598.356 1316.02 598.932 1314.68 598.932C1313.14 598.932 1312.45 598.104 1312.45 595.548V585.144H1307.16V596.232ZM1328.27 596.52C1328.27 600.66 1330 603.432 1334.43 603.432C1336.15 603.432 1337.45 603.072 1338.39 602.784L1337.56 598.932C1337.09 599.112 1336.44 599.292 1335.87 599.292C1334.46 599.292 1333.56 598.464 1333.56 596.448V589.284H1337.85V585.144H1333.56V580.392H1329.17L1328.56 585.144L1325.82 585.36V589.284H1328.27V596.52ZM1339.69 594.072C1339.69 600.012 1343.86 603.432 1348.4 603.432C1352.9 603.432 1357.07 600.012 1357.07 594.072C1357.07 588.132 1352.9 584.712 1348.4 584.712C1343.86 584.712 1339.69 588.132 1339.69 594.072ZM1345.12 594.072C1345.12 590.976 1346.2 588.996 1348.4 588.996C1350.56 588.996 1351.67 590.976 1351.67 594.072C1351.67 597.168 1350.56 599.148 1348.4 599.148C1346.2 599.148 1345.12 597.168 1345.12 594.072ZM1360.45 603H1365.74V590.94C1366.89 589.824 1367.72 589.212 1369.05 589.212C1370.57 589.212 1371.25 590.004 1371.25 592.596V603H1376.54V591.912C1376.54 587.448 1374.89 584.712 1371 584.712C1368.59 584.712 1366.79 585.972 1365.27 587.412H1365.13L1364.77 585.144H1360.45V603ZM1379.76 594.072C1379.76 600.012 1383.93 603.432 1388.47 603.432C1392.97 603.432 1397.14 600.012 1397.14 594.072C1397.14 588.132 1392.97 584.712 1388.47 584.712C1383.93 584.712 1379.76 588.132 1379.76 594.072ZM1385.19 594.072C1385.19 590.976 1386.27 588.996 1388.47 588.996C1390.63 588.996 1391.74 590.976 1391.74 594.072C1391.74 597.168 1390.63 599.148 1388.47 599.148C1386.27 599.148 1385.19 597.168 1385.19 594.072ZM1400.52 603H1405.81V590.94C1406.93 589.788 1407.97 589.212 1408.84 589.212C1410.35 589.212 1411.03 590.004 1411.03 592.596V603H1416.32V590.94C1417.48 589.788 1418.48 589.212 1419.38 589.212C1420.9 589.212 1421.58 590.004 1421.58 592.596V603H1426.87V591.912C1426.87 587.448 1425.14 584.712 1421.29 584.712C1418.92 584.712 1417.26 586.08 1415.68 587.7C1414.78 585.792 1413.26 584.712 1410.74 584.712C1408.4 584.712 1406.82 585.972 1405.34 587.448H1405.2L1404.84 585.144H1400.52V603ZM1430.09 594.072C1430.09 600.012 1434.27 603.432 1438.8 603.432C1443.3 603.432 1447.48 600.012 1447.48 594.072C1447.48 588.132 1443.3 584.712 1438.8 584.712C1434.27 584.712 1430.09 588.132 1430.09 594.072ZM1435.53 594.072C1435.53 590.976 1436.61 588.996 1438.8 588.996C1440.96 588.996 1442.08 590.976 1442.08 594.072C1442.08 597.168 1440.96 599.148 1438.8 599.148C1436.61 599.148 1435.53 597.168 1435.53 594.072ZM1450.68 596.232C1450.68 600.696 1452.33 603.432 1456.22 603.432C1458.67 603.432 1460.32 602.316 1461.84 600.516H1461.94L1462.34 603H1466.66V585.144H1461.37V596.952C1460.32 598.356 1459.53 598.932 1458.2 598.932C1456.65 598.932 1455.97 598.104 1455.97 595.548V585.144H1450.68V596.232ZM1469.48 600.948C1471.28 602.424 1473.98 603.432 1476.32 603.432C1481.11 603.432 1483.67 600.912 1483.67 597.672C1483.67 594.396 1481.11 593.136 1478.84 592.308C1477.01 591.624 1475.35 591.192 1475.35 590.04C1475.35 589.14 1476 588.636 1477.37 588.636C1478.63 588.636 1479.85 589.212 1481.15 590.148L1483.52 586.98C1481.97 585.828 1479.96 584.712 1477.22 584.712C1473.08 584.712 1470.38 586.98 1470.38 590.292C1470.38 593.244 1472.94 594.72 1475.1 595.548C1476.93 596.268 1478.73 596.808 1478.73 597.996C1478.73 598.932 1478.05 599.508 1476.47 599.508C1474.95 599.508 1473.48 598.86 1471.86 597.636L1469.48 600.948Z" fill="#009CDE"/>
</svg>
