<svg width="1920" height="890" viewBox="0 0 1920 890" fill="none" xmlns="http://www.w3.org/2000/svg">
<rect width="1920" height="890" fill="white"/>
<rect x="965" y="97" width="312" height="70" rx="14" fill="white" stroke="#2B2B2B" stroke-width="4"/>
<path d="M1017.17 141H1019.16V125.256H1017.17V141ZM1021.4 141H1023.46L1025.05 138.288C1025.43 137.568 1025.81 136.872 1026.22 136.2H1026.32C1026.75 136.872 1027.18 137.592 1027.59 138.288L1029.29 141H1031.43L1027.64 135.12L1031.17 129.336H1029.1L1027.69 131.904C1027.33 132.528 1026.97 133.2 1026.63 133.848H1026.53C1026.13 133.2 1025.74 132.528 1025.38 131.904L1023.82 129.336H1021.69L1025.21 134.904L1021.4 141ZM1033.68 141H1037.72C1042.47 141 1045.06 138.072 1045.06 133.056C1045.06 128.064 1042.47 125.256 1037.62 125.256H1033.68V141ZM1035.68 139.368V126.888H1037.48C1041.15 126.888 1043 129.096 1043 133.056C1043 137.04 1041.15 139.368 1037.48 139.368H1035.68ZM1048.2 141H1050.19V133.944H1056.19V132.264H1050.19V126.936H1057.27V125.256H1048.2V141ZM1132.33 136.8C1132.33 135.576 1133.19 134.64 1134.3 133.752C1135.4 135.432 1136.89 137.088 1138.42 138.432C1137.51 139.224 1136.5 139.704 1135.42 139.704C1133.7 139.704 1132.33 138.552 1132.33 136.8ZM1134.18 128.664C1134.18 127.368 1134.94 126.384 1136.12 126.384C1137.18 126.384 1137.61 127.2 1137.61 128.112C1137.61 129.504 1136.36 130.464 1134.92 131.424C1134.46 130.464 1134.18 129.528 1134.18 128.664ZM1143.9 139.656C1143.03 139.416 1142.02 138.888 1140.94 138.144C1142.19 136.488 1143.08 134.568 1143.7 132.504H1141.86C1141.38 134.304 1140.61 135.864 1139.65 137.16C1138.16 135.912 1136.7 134.352 1135.66 132.744C1137.42 131.472 1139.22 130.152 1139.22 128.088C1139.22 126.24 1138.06 124.968 1136.12 124.968C1133.94 124.968 1132.47 126.6 1132.47 128.688C1132.47 129.84 1132.86 131.088 1133.5 132.384C1131.9 133.488 1130.41 134.808 1130.41 136.92C1130.41 139.464 1132.35 141.288 1135.21 141.288C1137.06 141.288 1138.54 140.568 1139.74 139.488C1141.02 140.376 1142.26 140.976 1143.37 141.288L1143.9 139.656Z" fill="#2B2B2B"/>
<path d="M1066.81 141H1071.06L1075.76 125.352H1072.16L1070.31 132.648C1069.86 134.352 1069.52 135.936 1069.07 137.664H1068.97C1068.49 135.936 1068.18 134.352 1067.7 132.648L1065.83 125.352H1062.08L1066.81 141ZM1078.65 127.344C1079.85 127.344 1080.69 126.576 1080.69 125.496C1080.69 124.416 1079.85 123.672 1078.65 123.672C1077.47 123.672 1076.61 124.416 1076.61 125.496C1076.61 126.576 1077.47 127.344 1078.65 127.344ZM1076.9 141H1080.42V129.096H1076.9V141ZM1082.22 139.632C1083.42 140.616 1085.22 141.288 1086.78 141.288C1089.97 141.288 1091.68 139.608 1091.68 137.448C1091.68 135.264 1089.97 134.424 1088.46 133.872C1087.24 133.416 1086.13 133.128 1086.13 132.36C1086.13 131.76 1086.57 131.424 1087.48 131.424C1088.32 131.424 1089.13 131.808 1090 132.432L1091.58 130.32C1090.55 129.552 1089.21 128.808 1087.38 128.808C1084.62 128.808 1082.82 130.32 1082.82 132.528C1082.82 134.496 1084.53 135.48 1085.97 136.032C1087.19 136.512 1088.39 136.872 1088.39 137.664C1088.39 138.288 1087.93 138.672 1086.88 138.672C1085.87 138.672 1084.89 138.24 1083.81 137.424L1082.22 139.632ZM1095.42 127.344C1096.62 127.344 1097.46 126.576 1097.46 125.496C1097.46 124.416 1096.62 123.672 1095.42 123.672C1094.25 123.672 1093.38 124.416 1093.38 125.496C1093.38 126.576 1094.25 127.344 1095.42 127.344ZM1093.67 141H1097.2V129.096H1093.67V141ZM1099.36 135.048C1099.36 139.008 1102.14 141.288 1105.16 141.288C1108.16 141.288 1110.95 139.008 1110.95 135.048C1110.95 131.088 1108.16 128.808 1105.16 128.808C1102.14 128.808 1099.36 131.088 1099.36 135.048ZM1102.98 135.048C1102.98 132.984 1103.7 131.664 1105.16 131.664C1106.6 131.664 1107.35 132.984 1107.35 135.048C1107.35 137.112 1106.6 138.432 1105.16 138.432C1103.7 138.432 1102.98 137.112 1102.98 135.048ZM1113.11 141H1116.64V132.96C1117.41 132.216 1117.96 131.808 1118.85 131.808C1119.86 131.808 1120.31 132.336 1120.31 134.064V141H1123.84V133.608C1123.84 130.632 1122.74 128.808 1120.15 128.808C1118.54 128.808 1117.34 129.648 1116.33 130.608H1116.23L1115.99 129.096H1113.11V141ZM1150.47 141H1153.71V135.264C1153.71 133.728 1153.44 131.448 1153.27 129.936H1153.37L1154.62 133.56L1157.02 139.632H1158.43L1160.83 133.56L1162.13 129.936H1162.23C1162.06 131.448 1161.77 133.728 1161.77 135.264V141H1165.06V125.352H1161.34L1158.79 132.384L1157.86 135.12H1157.76L1156.83 132.384L1154.21 125.352H1150.47V141ZM1169.96 127.344C1171.16 127.344 1172 126.576 1172 125.496C1172 124.416 1171.16 123.672 1169.96 123.672C1168.78 123.672 1167.92 124.416 1167.92 125.496C1167.92 126.576 1168.78 127.344 1169.96 127.344ZM1168.21 141H1171.74V129.096H1168.21V141ZM1173.54 139.632C1174.74 140.616 1176.54 141.288 1178.1 141.288C1181.29 141.288 1182.99 139.608 1182.99 137.448C1182.99 135.264 1181.29 134.424 1179.78 133.872C1178.55 133.416 1177.45 133.128 1177.45 132.36C1177.45 131.76 1177.88 131.424 1178.79 131.424C1179.63 131.424 1180.45 131.808 1181.31 132.432L1182.9 130.32C1181.86 129.552 1180.52 128.808 1178.7 128.808C1175.94 128.808 1174.14 130.32 1174.14 132.528C1174.14 134.496 1175.84 135.48 1177.28 136.032C1178.5 136.512 1179.7 136.872 1179.7 137.664C1179.7 138.288 1179.25 138.672 1178.19 138.672C1177.18 138.672 1176.2 138.24 1175.12 137.424L1173.54 139.632ZM1183.93 139.632C1185.13 140.616 1186.93 141.288 1188.49 141.288C1191.68 141.288 1193.38 139.608 1193.38 137.448C1193.38 135.264 1191.68 134.424 1190.17 133.872C1188.94 133.416 1187.84 133.128 1187.84 132.36C1187.84 131.76 1188.27 131.424 1189.18 131.424C1190.02 131.424 1190.84 131.808 1191.7 132.432L1193.29 130.32C1192.25 129.552 1190.91 128.808 1189.09 128.808C1186.33 128.808 1184.53 130.32 1184.53 132.528C1184.53 134.496 1186.23 135.48 1187.67 136.032C1188.89 136.512 1190.09 136.872 1190.09 137.664C1190.09 138.288 1189.64 138.672 1188.58 138.672C1187.57 138.672 1186.59 138.24 1185.51 137.424L1183.93 139.632ZM1197.12 127.344C1198.32 127.344 1199.16 126.576 1199.16 125.496C1199.16 124.416 1198.32 123.672 1197.12 123.672C1195.95 123.672 1195.08 124.416 1195.08 125.496C1195.08 126.576 1195.95 127.344 1197.12 127.344ZM1195.37 141H1198.9V129.096H1195.37V141ZM1201.06 135.048C1201.06 139.008 1203.84 141.288 1206.87 141.288C1209.87 141.288 1212.65 139.008 1212.65 135.048C1212.65 131.088 1209.87 128.808 1206.87 128.808C1203.84 128.808 1201.06 131.088 1201.06 135.048ZM1204.68 135.048C1204.68 132.984 1205.4 131.664 1206.87 131.664C1208.31 131.664 1209.05 132.984 1209.05 135.048C1209.05 137.112 1208.31 138.432 1206.87 138.432C1205.4 138.432 1204.68 137.112 1204.68 135.048ZM1214.82 141H1218.35V132.96C1219.11 132.216 1219.67 131.808 1220.55 131.808C1221.56 131.808 1222.02 132.336 1222.02 134.064V141H1225.55V133.608C1225.55 130.632 1224.44 128.808 1221.85 128.808C1220.24 128.808 1219.04 129.648 1218.03 130.608H1217.94L1217.7 129.096H1214.82V141Z" fill="#009CDE"/>
<rect x="775" y="235" width="312" height="70" rx="14" fill="white" stroke="#2B2B2B" stroke-width="4"/>
<path d="M840.515 272.592L841.259 270.192C841.835 268.44 842.339 266.712 842.819 264.888H842.915C843.419 266.712 843.923 268.44 844.499 270.192L845.243 272.592H840.515ZM847.235 279H849.371L844.043 263.256H841.787L836.459 279H838.499L840.011 274.2H845.747L847.235 279ZM851.159 279H853.127V270.552C854.303 269.376 855.119 268.752 856.319 268.752C857.855 268.752 858.527 269.688 858.527 271.872V279H860.495V271.608C860.495 268.632 859.391 267.048 856.943 267.048C855.335 267.048 854.135 267.912 853.031 269.016H852.959L852.791 267.336H851.159V279ZM864.034 279H866.002V270.552C867.178 269.376 867.994 268.752 869.194 268.752C870.73 268.752 871.402 269.688 871.402 271.872V279H873.37V271.608C873.37 268.632 872.266 267.048 869.818 267.048C868.21 267.048 867.01 267.912 865.906 269.016H865.834L865.666 267.336H864.034V279ZM876.741 274.728C876.741 277.704 877.845 279.288 880.317 279.288C881.925 279.288 883.077 278.448 884.157 277.176H884.229L884.397 279H886.029V267.336H884.061V275.616C882.957 276.984 882.117 277.584 880.917 277.584C879.381 277.584 878.733 276.648 878.733 274.464V267.336H876.741V274.728ZM889.138 275.976C889.138 278.064 890.602 279.288 892.57 279.288C894.01 279.288 895.306 278.52 896.434 277.608H896.482L896.65 279H898.282V271.848C898.282 268.944 897.082 267.048 894.226 267.048C892.354 267.048 890.722 267.864 889.642 268.56L890.434 269.928C891.346 269.304 892.546 268.68 893.914 268.68C895.81 268.68 896.314 270.12 896.314 271.608C891.346 272.16 889.138 273.432 889.138 275.976ZM891.082 275.832C891.082 274.344 892.402 273.384 896.314 272.904V276.144C895.186 277.152 894.25 277.704 893.122 277.704C891.97 277.704 891.082 277.152 891.082 275.832ZM901.745 276.648C901.745 278.352 902.345 279.288 903.833 279.288C904.361 279.288 904.697 279.216 904.961 279.096L904.697 277.608C904.481 277.656 904.385 277.656 904.265 277.656C903.977 277.656 903.713 277.416 903.713 276.792V261.912H901.745V276.648ZM1015.58 279H1024.22V277.368H1021.05V263.688H1019.54C1018.7 264.192 1017.69 264.576 1016.3 264.816V266.088H1019.08V277.368H1015.58V279Z" fill="#2B2B2B"/>
<path d="M918.454 279.288C922.678 279.288 925.558 276.216 925.558 271.104C925.558 266.016 922.678 263.064 918.454 263.064C914.23 263.064 911.35 265.992 911.35 271.104C911.35 276.216 914.23 279.288 918.454 279.288ZM918.454 276.24C916.318 276.24 914.974 274.248 914.974 271.104C914.974 267.984 916.318 266.112 918.454 266.112C920.59 266.112 921.934 267.984 921.934 271.104C921.934 274.248 920.59 276.24 918.454 276.24ZM927.962 279H930.722L931.01 277.752H931.106C932.042 278.76 933.146 279.288 934.202 279.288C936.77 279.288 939.218 276.936 939.218 272.832C939.218 269.184 937.418 266.808 934.538 266.808C933.434 266.808 932.306 267.312 931.394 268.128L931.49 266.304V262.176H927.962V279ZM931.49 275.64V270.768C932.162 270.024 932.81 269.688 933.53 269.688C934.946 269.688 935.594 270.768 935.594 272.904C935.594 275.352 934.61 276.408 933.386 276.408C932.786 276.408 932.114 276.216 931.49 275.64ZM941.494 279.024C941.494 280.344 941.182 280.944 940.246 280.944C939.91 280.944 939.622 280.872 939.31 280.776L938.686 283.368C939.166 283.56 939.79 283.704 940.774 283.704C944.014 283.704 945.022 281.52 945.022 278.928V267.096H941.494V279.024ZM943.27 265.344C944.446 265.344 945.31 264.576 945.31 263.496C945.31 262.416 944.446 261.672 943.27 261.672C942.094 261.672 941.23 262.416 941.23 263.496C941.23 264.576 942.094 265.344 943.27 265.344ZM947.204 273.048C947.204 276.984 949.82 279.288 953.228 279.288C954.644 279.288 956.228 278.784 957.452 277.944L956.276 275.808C955.412 276.336 954.596 276.6 953.708 276.6C952.124 276.6 950.924 275.808 950.612 274.008H957.74C957.812 273.72 957.884 273.144 957.884 272.52C957.884 269.28 956.204 266.808 952.82 266.808C949.964 266.808 947.204 269.184 947.204 273.048ZM950.588 271.824C950.828 270.24 951.788 269.496 952.892 269.496C954.308 269.496 954.884 270.456 954.884 271.824H950.588ZM959.376 273.048C959.376 277.008 961.944 279.288 965.256 279.288C966.552 279.288 968.064 278.808 969.216 277.8L967.8 275.568C967.224 276.024 966.528 276.432 965.664 276.432C964.128 276.432 963 275.112 963 273.048C963 270.984 964.08 269.664 965.784 269.664C966.336 269.664 966.864 269.88 967.44 270.36L969.048 268.176C968.256 267.36 967.032 266.808 965.568 266.808C962.28 266.808 959.376 269.088 959.376 273.048ZM971.505 274.68C971.505 277.44 972.657 279.288 975.609 279.288C976.761 279.288 977.625 279.048 978.249 278.856L977.697 276.288C977.385 276.408 976.953 276.528 976.569 276.528C975.633 276.528 975.033 275.976 975.033 274.632V269.856H977.889V267.096H975.033V263.928H972.105L971.697 267.096L969.873 267.24V269.856H971.505V274.68ZM981.714 265.344C982.914 265.344 983.754 264.576 983.754 263.496C983.754 262.416 982.914 261.672 981.714 261.672C980.538 261.672 979.674 262.416 979.674 263.496C979.674 264.576 980.538 265.344 981.714 265.344ZM979.962 279H983.49V267.096H979.962V279ZM989.081 279H993.161L997.049 267.096H993.665L992.105 272.712C991.793 273.888 991.481 275.136 991.193 276.384H991.097C990.785 275.136 990.473 273.888 990.161 272.712L988.625 267.096H985.073L989.081 279ZM997.774 273.048C997.774 276.984 1000.39 279.288 1003.8 279.288C1005.21 279.288 1006.8 278.784 1008.02 277.944L1006.85 275.808C1005.98 276.336 1005.17 276.6 1004.28 276.6C1002.69 276.6 1001.49 275.808 1001.18 274.008H1008.31C1008.38 273.72 1008.45 273.144 1008.45 272.52C1008.45 269.28 1006.77 266.808 1003.39 266.808C1000.53 266.808 997.774 269.184 997.774 273.048ZM1001.16 271.824C1001.4 270.24 1002.36 269.496 1003.46 269.496C1004.88 269.496 1005.45 270.456 1005.45 271.824H1001.16Z" fill="#009CDE"/>
<rect x="775" y="511" width="312" height="70" rx="14" fill="white" stroke="#2B2B2B" stroke-width="4"/>
<path d="M871.582 555H873.574V550.008L876.286 546.816L880.99 555H883.222L877.534 545.256L882.454 539.256H880.198L873.646 547.152H873.574V539.256H871.582V555ZM884.01 549.192C884.01 553.008 886.482 555.288 889.602 555.288C891.186 555.288 892.434 554.736 893.442 554.088L892.746 552.792C891.882 553.344 890.946 553.704 889.842 553.704C887.61 553.704 886.098 552.12 885.954 549.6H893.826C893.874 549.312 893.898 548.928 893.898 548.52C893.898 545.184 892.218 543.048 889.242 543.048C886.578 543.048 884.01 545.376 884.01 549.192ZM885.93 548.304C886.17 545.952 887.658 544.608 889.29 544.608C891.114 544.608 892.17 545.928 892.17 548.304H885.93ZM895.856 558.216L895.472 559.776C895.856 559.92 896.312 560.016 896.84 560.016C899.192 560.016 900.392 558.264 901.208 555.96L905.6 543.336H903.68L901.592 549.792C901.28 550.824 900.944 552.024 900.608 553.08H900.512C900.152 552 899.744 550.8 899.384 549.792L897.008 543.336H894.968L899.648 555.024L899.384 555.888C898.904 557.328 898.064 558.384 896.744 558.384C896.456 558.384 896.096 558.288 895.856 558.216ZM982.544 555H991.184V553.368H988.016V539.688H986.504C985.664 540.192 984.656 540.576 983.264 540.816V542.088H986.048V553.368H982.544V555Z" fill="#2B2B2B"/>
<path d="M915.61 542.16H917.434C919.282 542.16 920.29 542.688 920.29 544.224C920.29 545.76 919.282 546.552 917.434 546.552H915.61V542.16ZM924.514 555L920.962 548.736C922.642 547.992 923.746 546.528 923.746 544.224C923.746 540.504 921.034 539.352 917.722 539.352H912.082V555H915.61V549.36H917.554L920.554 555H924.514ZM925.403 549.048C925.403 552.984 928.019 555.288 931.427 555.288C932.843 555.288 934.427 554.784 935.651 553.944L934.475 551.808C933.611 552.336 932.795 552.6 931.907 552.6C930.323 552.6 929.123 551.808 928.811 550.008H935.939C936.011 549.72 936.083 549.144 936.083 548.52C936.083 545.28 934.403 542.808 931.019 542.808C928.163 542.808 925.403 545.184 925.403 549.048ZM928.787 547.824C929.027 546.24 929.987 545.496 931.091 545.496C932.507 545.496 933.083 546.456 933.083 547.824H928.787ZM937.215 553.632C938.415 554.616 940.215 555.288 941.775 555.288C944.967 555.288 946.671 553.608 946.671 551.448C946.671 549.264 944.967 548.424 943.455 547.872C942.231 547.416 941.127 547.128 941.127 546.36C941.127 545.76 941.559 545.424 942.471 545.424C943.311 545.424 944.127 545.808 944.991 546.432L946.575 544.32C945.543 543.552 944.199 542.808 942.375 542.808C939.615 542.808 937.815 544.32 937.815 546.528C937.815 548.496 939.519 549.48 940.959 550.032C942.183 550.512 943.383 550.872 943.383 551.664C943.383 552.288 942.927 552.672 941.871 552.672C940.863 552.672 939.879 552.24 938.799 551.424L937.215 553.632ZM948.542 550.488C948.542 553.464 949.646 555.288 952.238 555.288C953.87 555.288 954.974 554.544 955.982 553.344H956.054L956.318 555H959.198V543.096H955.67V550.968C954.974 551.904 954.446 552.288 953.558 552.288C952.526 552.288 952.07 551.736 952.07 550.032V543.096H948.542V550.488ZM962.052 551.304C962.052 553.704 962.868 555.288 965.292 555.288C966.084 555.288 966.684 555.168 967.068 555L966.636 552.384C966.444 552.432 966.348 552.432 966.204 552.432C965.916 552.432 965.58 552.192 965.58 551.448V538.176H962.052V551.304ZM969.149 550.68C969.149 553.44 970.301 555.288 973.253 555.288C974.405 555.288 975.269 555.048 975.893 554.856L975.341 552.288C975.029 552.408 974.597 552.528 974.213 552.528C973.277 552.528 972.677 551.976 972.677 550.632V545.856H975.533V543.096H972.677V539.928H969.749L969.341 543.096L967.517 543.24V545.856H969.149V550.68Z" fill="#009CDE"/>
<rect x="775" y="617" width="312" height="70" rx="14" fill="white" stroke="#2B2B2B" stroke-width="4"/>
<path d="M903.931 661H907.483V648.328H911.779V645.352H899.635V648.328H903.931V661ZM911.702 657.688C911.702 659.704 913.07 661.288 915.23 661.288C916.574 661.288 917.702 660.664 918.71 659.776H918.782L919.046 661H921.926V654.184C921.926 650.536 920.246 648.808 917.198 648.808C915.326 648.808 913.622 649.456 912.11 650.368L913.358 652.696C914.51 652.024 915.518 651.616 916.526 651.616C917.798 651.616 918.326 652.288 918.398 653.344C913.694 653.824 911.702 655.192 911.702 657.688ZM915.062 657.424C915.062 656.512 915.878 655.792 918.398 655.456V657.544C917.774 658.168 917.246 658.552 916.43 658.552C915.59 658.552 915.062 658.192 915.062 657.424ZM923.649 659.632C924.849 660.616 926.649 661.288 928.209 661.288C931.401 661.288 933.105 659.608 933.105 657.448C933.105 655.264 931.401 654.424 929.889 653.872C928.665 653.416 927.561 653.128 927.561 652.36C927.561 651.76 927.993 651.424 928.905 651.424C929.745 651.424 930.561 651.808 931.425 652.432L933.009 650.32C931.977 649.552 930.633 648.808 928.809 648.808C926.049 648.808 924.249 650.32 924.249 652.528C924.249 654.496 925.953 655.48 927.393 656.032C928.617 656.512 929.817 656.872 929.817 657.664C929.817 658.288 929.361 658.672 928.305 658.672C927.297 658.672 926.313 658.24 925.233 657.424L923.649 659.632ZM935.095 661H938.527V658.072L940.039 656.368L942.727 661H946.543L942.055 653.992L946.231 649.096H942.391L938.623 653.824H938.527V644.176H935.095V661Z" fill="#009CDE"/>
<path d="M952.931 661H961.571V659.368H958.403V645.688H956.891C956.051 646.192 955.043 646.576 953.651 646.816V648.088H956.435V659.368H952.931V661Z" fill="#2B2B2B"/>
<rect x="775" y="723" width="312" height="70" rx="14" fill="white" stroke="#2B2B2B" stroke-width="4"/>
<path d="M903.931 767H907.483V754.328H911.779V751.352H899.635V754.328H903.931V767ZM911.702 763.688C911.702 765.704 913.07 767.288 915.23 767.288C916.574 767.288 917.702 766.664 918.71 765.776H918.782L919.046 767H921.926V760.184C921.926 756.536 920.246 754.808 917.198 754.808C915.326 754.808 913.622 755.456 912.11 756.368L913.358 758.696C914.51 758.024 915.518 757.616 916.526 757.616C917.798 757.616 918.326 758.288 918.398 759.344C913.694 759.824 911.702 761.192 911.702 763.688ZM915.062 763.424C915.062 762.512 915.878 761.792 918.398 761.456V763.544C917.774 764.168 917.246 764.552 916.43 764.552C915.59 764.552 915.062 764.192 915.062 763.424ZM923.649 765.632C924.849 766.616 926.649 767.288 928.209 767.288C931.401 767.288 933.105 765.608 933.105 763.448C933.105 761.264 931.401 760.424 929.889 759.872C928.665 759.416 927.561 759.128 927.561 758.36C927.561 757.76 927.993 757.424 928.905 757.424C929.745 757.424 930.561 757.808 931.425 758.432L933.009 756.32C931.977 755.552 930.633 754.808 928.809 754.808C926.049 754.808 924.249 756.32 924.249 758.528C924.249 760.496 925.953 761.48 927.393 762.032C928.617 762.512 929.817 762.872 929.817 763.664C929.817 764.288 929.361 764.672 928.305 764.672C927.297 764.672 926.313 764.24 925.233 763.424L923.649 765.632ZM935.095 767H938.527V764.072L940.039 762.368L942.727 767H946.543L942.055 759.992L946.231 755.096H942.391L938.623 759.824H938.527V750.176H935.095V767Z" fill="#009CDE"/>
<path d="M951.995 767H961.883V765.296H957.443C956.651 765.296 955.715 765.368 954.875 765.44C958.499 761.648 961.115 758.792 961.115 755.912C961.115 753.2 959.363 751.4 956.531 751.4C954.539 751.4 953.171 752.336 951.899 753.728L953.027 754.856C953.915 753.824 955.019 753.008 956.291 753.008C958.235 753.008 959.195 754.256 959.195 756.008C959.195 758.48 956.603 761.24 951.995 765.824V767Z" fill="#2B2B2B"/>
<rect x="965" y="373" width="312" height="70" rx="14" fill="white" stroke="#2B2B2B" stroke-width="4"/>
<path d="M1017.94 409.056C1017.94 405.144 1019.79 402.72 1022.6 402.72C1025.41 402.72 1027.26 405.144 1027.26 409.056C1027.26 413.088 1025.41 415.632 1022.6 415.632C1019.79 415.632 1017.94 413.088 1017.94 409.056ZM1029.3 419.016C1028.86 419.136 1028.34 419.256 1027.64 419.256C1025.94 419.256 1024.5 418.584 1023.78 417.192C1027.11 416.616 1029.34 413.592 1029.34 409.056C1029.34 404.04 1026.56 400.968 1022.6 400.968C1018.64 400.968 1015.88 404.016 1015.88 409.056C1015.88 413.688 1018.18 416.736 1021.62 417.216C1022.53 419.376 1024.52 420.936 1027.42 420.936C1028.36 420.936 1029.2 420.744 1029.68 420.576L1029.3 419.016ZM1032.12 412.728C1032.12 415.704 1033.22 417.288 1035.7 417.288C1037.3 417.288 1038.46 416.448 1039.54 415.176H1039.61L1039.78 417H1041.41V405.336H1039.44V413.616C1038.34 414.984 1037.5 415.584 1036.3 415.584C1034.76 415.584 1034.11 414.648 1034.11 412.464V405.336H1032.12V412.728ZM1044.52 413.976C1044.52 416.064 1045.98 417.288 1047.95 417.288C1049.39 417.288 1050.69 416.52 1051.81 415.608H1051.86L1052.03 417H1053.66V409.848C1053.66 406.944 1052.46 405.048 1049.61 405.048C1047.73 405.048 1046.1 405.864 1045.02 406.56L1045.81 407.928C1046.73 407.304 1047.93 406.68 1049.29 406.68C1051.19 406.68 1051.69 408.12 1051.69 409.608C1046.73 410.16 1044.52 411.432 1044.52 413.976ZM1046.46 413.832C1046.46 412.344 1047.78 411.384 1051.69 410.904V414.144C1050.57 415.152 1049.63 415.704 1048.5 415.704C1047.35 415.704 1046.46 415.152 1046.46 413.832ZM1057.12 417H1059.09V409.512C1059.88 407.544 1061.06 406.824 1062.04 406.824C1062.52 406.824 1062.79 406.896 1063.17 407.016L1063.56 405.288C1063.17 405.12 1062.81 405.048 1062.31 405.048C1060.99 405.048 1059.79 405.984 1059 407.448H1058.92L1058.76 405.336H1057.12V417ZM1065.53 413.4C1065.53 415.704 1066.37 417.288 1068.87 417.288C1069.59 417.288 1070.38 417.072 1071.03 416.856L1070.64 415.368C1070.26 415.512 1069.73 415.68 1069.32 415.68C1067.98 415.68 1067.52 414.864 1067.52 413.424V406.944H1070.67V405.336H1067.52V402.072H1065.87L1065.63 405.336L1063.8 405.456V406.944H1065.53V413.4ZM1071.96 411.192C1071.96 415.008 1074.43 417.288 1077.55 417.288C1079.13 417.288 1080.38 416.736 1081.39 416.088L1080.69 414.792C1079.83 415.344 1078.89 415.704 1077.79 415.704C1075.56 415.704 1074.04 414.12 1073.9 411.6H1081.77C1081.82 411.312 1081.84 410.928 1081.84 410.52C1081.84 407.184 1080.16 405.048 1077.19 405.048C1074.52 405.048 1071.96 407.376 1071.96 411.192ZM1073.88 410.304C1074.12 407.952 1075.6 406.608 1077.24 406.608C1079.06 406.608 1080.12 407.928 1080.12 410.304H1073.88ZM1084.48 417H1086.44V409.512C1087.24 407.544 1088.41 406.824 1089.4 406.824C1089.88 406.824 1090.14 406.896 1090.52 407.016L1090.91 405.288C1090.52 405.12 1090.16 405.048 1089.66 405.048C1088.34 405.048 1087.14 405.984 1086.35 407.448H1086.28L1086.11 405.336H1084.48V417ZM1092.55 414.648C1092.55 416.352 1093.15 417.288 1094.63 417.288C1095.16 417.288 1095.5 417.216 1095.76 417.096L1095.5 415.608C1095.28 415.656 1095.19 415.656 1095.07 415.656C1094.78 415.656 1094.51 415.416 1094.51 414.792V399.912H1092.55V414.648ZM1097.62 420.216L1097.24 421.776C1097.62 421.92 1098.08 422.016 1098.61 422.016C1100.96 422.016 1102.16 420.264 1102.97 417.96L1107.37 405.336H1105.45L1103.36 411.792C1103.05 412.824 1102.71 414.024 1102.37 415.08H1102.28C1101.92 414 1101.51 412.8 1101.15 411.792L1098.77 405.336H1096.73L1101.41 417.024L1101.15 417.888C1100.67 419.328 1099.83 420.384 1098.51 420.384C1098.22 420.384 1097.86 420.288 1097.62 420.216ZM1216.4 417H1226.29V415.296H1221.85C1221.05 415.296 1220.12 415.368 1219.28 415.44C1222.9 411.648 1225.52 408.792 1225.52 405.912C1225.52 403.2 1223.77 401.4 1220.93 401.4C1218.94 401.4 1217.57 402.336 1216.3 403.728L1217.43 404.856C1218.32 403.824 1219.42 403.008 1220.69 403.008C1222.64 403.008 1223.6 404.256 1223.6 406.008C1223.6 408.48 1221.01 411.24 1216.4 415.824V417Z" fill="#2B2B2B"/>
<path d="M1120.21 417.288C1124.43 417.288 1127.31 414.216 1127.31 409.104C1127.31 404.016 1124.43 401.064 1120.21 401.064C1115.98 401.064 1113.1 403.992 1113.1 409.104C1113.1 414.216 1115.98 417.288 1120.21 417.288ZM1120.21 414.24C1118.07 414.24 1116.73 412.248 1116.73 409.104C1116.73 405.984 1118.07 404.112 1120.21 404.112C1122.34 404.112 1123.69 405.984 1123.69 409.104C1123.69 412.248 1122.34 414.24 1120.21 414.24ZM1129.72 417H1132.48L1132.76 415.752H1132.86C1133.8 416.76 1134.9 417.288 1135.96 417.288C1138.52 417.288 1140.97 414.936 1140.97 410.832C1140.97 407.184 1139.17 404.808 1136.29 404.808C1135.19 404.808 1134.06 405.312 1133.15 406.128L1133.24 404.304V400.176H1129.72V417ZM1133.24 413.64V408.768C1133.92 408.024 1134.56 407.688 1135.28 407.688C1136.7 407.688 1137.35 408.768 1137.35 410.904C1137.35 413.352 1136.36 414.408 1135.14 414.408C1134.54 414.408 1133.87 414.216 1133.24 413.64ZM1143.25 417.024C1143.25 418.344 1142.94 418.944 1142 418.944C1141.66 418.944 1141.38 418.872 1141.06 418.776L1140.44 421.368C1140.92 421.56 1141.54 421.704 1142.53 421.704C1145.77 421.704 1146.78 419.52 1146.78 416.928V405.096H1143.25V417.024ZM1145.02 403.344C1146.2 403.344 1147.06 402.576 1147.06 401.496C1147.06 400.416 1146.2 399.672 1145.02 399.672C1143.85 399.672 1142.98 400.416 1142.98 401.496C1142.98 402.576 1143.85 403.344 1145.02 403.344ZM1148.96 411.048C1148.96 414.984 1151.57 417.288 1154.98 417.288C1156.4 417.288 1157.98 416.784 1159.21 415.944L1158.03 413.808C1157.17 414.336 1156.35 414.6 1155.46 414.6C1153.88 414.6 1152.68 413.808 1152.37 412.008H1159.49C1159.57 411.72 1159.64 411.144 1159.64 410.52C1159.64 407.28 1157.96 404.808 1154.57 404.808C1151.72 404.808 1148.96 407.184 1148.96 411.048ZM1152.34 409.824C1152.58 408.24 1153.54 407.496 1154.65 407.496C1156.06 407.496 1156.64 408.456 1156.64 409.824H1152.34ZM1161.13 411.048C1161.13 415.008 1163.7 417.288 1167.01 417.288C1168.31 417.288 1169.82 416.808 1170.97 415.8L1169.55 413.568C1168.98 414.024 1168.28 414.432 1167.42 414.432C1165.88 414.432 1164.75 413.112 1164.75 411.048C1164.75 408.984 1165.83 407.664 1167.54 407.664C1168.09 407.664 1168.62 407.88 1169.19 408.36L1170.8 406.176C1170.01 405.36 1168.79 404.808 1167.32 404.808C1164.03 404.808 1161.13 407.088 1161.13 411.048ZM1173.26 412.68C1173.26 415.44 1174.41 417.288 1177.36 417.288C1178.51 417.288 1179.38 417.048 1180 416.856L1179.45 414.288C1179.14 414.408 1178.71 414.528 1178.32 414.528C1177.39 414.528 1176.79 413.976 1176.79 412.632V407.856H1179.64V405.096H1176.79V401.928H1173.86L1173.45 405.096L1171.63 405.24V407.856H1173.26V412.68ZM1183.47 403.344C1184.67 403.344 1185.51 402.576 1185.51 401.496C1185.51 400.416 1184.67 399.672 1183.47 399.672C1182.29 399.672 1181.43 400.416 1181.43 401.496C1181.43 402.576 1182.29 403.344 1183.47 403.344ZM1181.72 417H1185.24V405.096H1181.72V417ZM1190.84 417H1194.92L1198.8 405.096H1195.42L1193.86 410.712C1193.55 411.888 1193.24 413.136 1192.95 414.384H1192.85C1192.54 413.136 1192.23 411.888 1191.92 410.712L1190.38 405.096H1186.83L1190.84 417ZM1199.53 411.048C1199.53 414.984 1202.14 417.288 1205.55 417.288C1206.97 417.288 1208.55 416.784 1209.78 415.944L1208.6 413.808C1207.74 414.336 1206.92 414.6 1206.03 414.6C1204.45 414.6 1203.25 413.808 1202.94 412.008H1210.06C1210.14 411.72 1210.21 411.144 1210.21 410.52C1210.21 407.28 1208.53 404.808 1205.14 404.808C1202.29 404.808 1199.53 407.184 1199.53 411.048ZM1202.91 409.824C1203.15 408.24 1204.11 407.496 1205.22 407.496C1206.63 407.496 1207.21 408.456 1207.21 409.824H1202.91Z" fill="#009CDE"/>
<rect x="1345" y="373" width="312" height="70" rx="14" fill="white" stroke="#2B2B2B" stroke-width="4"/>
<path d="M1397.94 409.056C1397.94 405.144 1399.79 402.72 1402.6 402.72C1405.41 402.72 1407.26 405.144 1407.26 409.056C1407.26 413.088 1405.41 415.632 1402.6 415.632C1399.79 415.632 1397.94 413.088 1397.94 409.056ZM1409.3 419.016C1408.86 419.136 1408.34 419.256 1407.64 419.256C1405.94 419.256 1404.5 418.584 1403.78 417.192C1407.11 416.616 1409.34 413.592 1409.34 409.056C1409.34 404.04 1406.56 400.968 1402.6 400.968C1398.64 400.968 1395.88 404.016 1395.88 409.056C1395.88 413.688 1398.18 416.736 1401.62 417.216C1402.53 419.376 1404.52 420.936 1407.42 420.936C1408.36 420.936 1409.2 420.744 1409.68 420.576L1409.3 419.016ZM1412.12 412.728C1412.12 415.704 1413.22 417.288 1415.7 417.288C1417.3 417.288 1418.46 416.448 1419.54 415.176H1419.61L1419.78 417H1421.41V405.336H1419.44V413.616C1418.34 414.984 1417.5 415.584 1416.3 415.584C1414.76 415.584 1414.11 414.648 1414.11 412.464V405.336H1412.12V412.728ZM1424.52 413.976C1424.52 416.064 1425.98 417.288 1427.95 417.288C1429.39 417.288 1430.69 416.52 1431.81 415.608H1431.86L1432.03 417H1433.66V409.848C1433.66 406.944 1432.46 405.048 1429.61 405.048C1427.73 405.048 1426.1 405.864 1425.02 406.56L1425.81 407.928C1426.73 407.304 1427.93 406.68 1429.29 406.68C1431.19 406.68 1431.69 408.12 1431.69 409.608C1426.73 410.16 1424.52 411.432 1424.52 413.976ZM1426.46 413.832C1426.46 412.344 1427.78 411.384 1431.69 410.904V414.144C1430.57 415.152 1429.63 415.704 1428.5 415.704C1427.35 415.704 1426.46 415.152 1426.46 413.832ZM1437.12 417H1439.09V409.512C1439.88 407.544 1441.06 406.824 1442.04 406.824C1442.52 406.824 1442.79 406.896 1443.17 407.016L1443.56 405.288C1443.17 405.12 1442.81 405.048 1442.31 405.048C1440.99 405.048 1439.79 405.984 1439 407.448H1438.92L1438.76 405.336H1437.12V417ZM1445.53 413.4C1445.53 415.704 1446.37 417.288 1448.87 417.288C1449.59 417.288 1450.38 417.072 1451.03 416.856L1450.64 415.368C1450.26 415.512 1449.73 415.68 1449.32 415.68C1447.98 415.68 1447.52 414.864 1447.52 413.424V406.944H1450.67V405.336H1447.52V402.072H1445.87L1445.63 405.336L1443.8 405.456V406.944H1445.53V413.4ZM1451.96 411.192C1451.96 415.008 1454.43 417.288 1457.55 417.288C1459.13 417.288 1460.38 416.736 1461.39 416.088L1460.69 414.792C1459.83 415.344 1458.89 415.704 1457.79 415.704C1455.56 415.704 1454.04 414.12 1453.9 411.6H1461.77C1461.82 411.312 1461.84 410.928 1461.84 410.52C1461.84 407.184 1460.16 405.048 1457.19 405.048C1454.52 405.048 1451.96 407.376 1451.96 411.192ZM1453.88 410.304C1454.12 407.952 1455.6 406.608 1457.24 406.608C1459.06 406.608 1460.12 407.928 1460.12 410.304H1453.88ZM1464.48 417H1466.44V409.512C1467.24 407.544 1468.41 406.824 1469.4 406.824C1469.88 406.824 1470.14 406.896 1470.52 407.016L1470.91 405.288C1470.52 405.12 1470.16 405.048 1469.66 405.048C1468.34 405.048 1467.14 405.984 1466.35 407.448H1466.28L1466.11 405.336H1464.48V417ZM1472.55 414.648C1472.55 416.352 1473.15 417.288 1474.63 417.288C1475.16 417.288 1475.5 417.216 1475.76 417.096L1475.5 415.608C1475.28 415.656 1475.19 415.656 1475.07 415.656C1474.78 415.656 1474.51 415.416 1474.51 414.792V399.912H1472.55V414.648ZM1477.62 420.216L1477.24 421.776C1477.62 421.92 1478.08 422.016 1478.61 422.016C1480.96 422.016 1482.16 420.264 1482.97 417.96L1487.37 405.336H1485.45L1483.36 411.792C1483.05 412.824 1482.71 414.024 1482.37 415.08H1482.28C1481.92 414 1481.51 412.8 1481.15 411.792L1478.77 405.336H1476.73L1481.41 417.024L1481.15 417.888C1480.67 419.328 1479.83 420.384 1478.51 420.384C1478.22 420.384 1477.86 420.288 1477.62 420.216ZM1596.06 415.128C1597.09 416.256 1598.65 417.288 1601.1 417.288C1603.91 417.288 1606.14 415.632 1606.14 412.92C1606.14 410.808 1604.68 409.464 1602.83 409.032V408.936C1604.49 408.312 1605.61 407.136 1605.61 405.288C1605.61 402.816 1603.69 401.4 1601.03 401.4C1599.23 401.4 1597.81 402.216 1596.64 403.32L1597.69 404.568C1598.61 403.656 1599.69 403.008 1600.96 403.008C1602.59 403.008 1603.6 403.944 1603.6 405.432C1603.6 407.04 1602.52 408.288 1599.25 408.288V409.8C1602.9 409.8 1604.15 411.024 1604.15 412.848C1604.15 414.552 1602.83 415.656 1600.98 415.656C1599.18 415.656 1597.98 414.792 1597.07 413.832L1596.06 415.128Z" fill="#2B2B2B"/>
<path d="M1500.21 417.288C1504.43 417.288 1507.31 414.216 1507.31 409.104C1507.31 404.016 1504.43 401.064 1500.21 401.064C1495.98 401.064 1493.1 403.992 1493.1 409.104C1493.1 414.216 1495.98 417.288 1500.21 417.288ZM1500.21 414.24C1498.07 414.24 1496.73 412.248 1496.73 409.104C1496.73 405.984 1498.07 404.112 1500.21 404.112C1502.34 404.112 1503.69 405.984 1503.69 409.104C1503.69 412.248 1502.34 414.24 1500.21 414.24ZM1509.72 417H1512.48L1512.76 415.752H1512.86C1513.8 416.76 1514.9 417.288 1515.96 417.288C1518.52 417.288 1520.97 414.936 1520.97 410.832C1520.97 407.184 1519.17 404.808 1516.29 404.808C1515.19 404.808 1514.06 405.312 1513.15 406.128L1513.24 404.304V400.176H1509.72V417ZM1513.24 413.64V408.768C1513.92 408.024 1514.56 407.688 1515.28 407.688C1516.7 407.688 1517.35 408.768 1517.35 410.904C1517.35 413.352 1516.36 414.408 1515.14 414.408C1514.54 414.408 1513.87 414.216 1513.24 413.64ZM1523.25 417.024C1523.25 418.344 1522.94 418.944 1522 418.944C1521.66 418.944 1521.38 418.872 1521.06 418.776L1520.44 421.368C1520.92 421.56 1521.54 421.704 1522.53 421.704C1525.77 421.704 1526.78 419.52 1526.78 416.928V405.096H1523.25V417.024ZM1525.02 403.344C1526.2 403.344 1527.06 402.576 1527.06 401.496C1527.06 400.416 1526.2 399.672 1525.02 399.672C1523.85 399.672 1522.98 400.416 1522.98 401.496C1522.98 402.576 1523.85 403.344 1525.02 403.344ZM1528.96 411.048C1528.96 414.984 1531.57 417.288 1534.98 417.288C1536.4 417.288 1537.98 416.784 1539.21 415.944L1538.03 413.808C1537.17 414.336 1536.35 414.6 1535.46 414.6C1533.88 414.6 1532.68 413.808 1532.37 412.008H1539.49C1539.57 411.72 1539.64 411.144 1539.64 410.52C1539.64 407.28 1537.96 404.808 1534.57 404.808C1531.72 404.808 1528.96 407.184 1528.96 411.048ZM1532.34 409.824C1532.58 408.24 1533.54 407.496 1534.65 407.496C1536.06 407.496 1536.64 408.456 1536.64 409.824H1532.34ZM1541.13 411.048C1541.13 415.008 1543.7 417.288 1547.01 417.288C1548.31 417.288 1549.82 416.808 1550.97 415.8L1549.55 413.568C1548.98 414.024 1548.28 414.432 1547.42 414.432C1545.88 414.432 1544.75 413.112 1544.75 411.048C1544.75 408.984 1545.83 407.664 1547.54 407.664C1548.09 407.664 1548.62 407.88 1549.19 408.36L1550.8 406.176C1550.01 405.36 1548.79 404.808 1547.32 404.808C1544.03 404.808 1541.13 407.088 1541.13 411.048ZM1553.26 412.68C1553.26 415.44 1554.41 417.288 1557.36 417.288C1558.51 417.288 1559.38 417.048 1560 416.856L1559.45 414.288C1559.14 414.408 1558.71 414.528 1558.32 414.528C1557.39 414.528 1556.79 413.976 1556.79 412.632V407.856H1559.64V405.096H1556.79V401.928H1553.86L1553.45 405.096L1551.63 405.24V407.856H1553.26V412.68ZM1563.47 403.344C1564.67 403.344 1565.51 402.576 1565.51 401.496C1565.51 400.416 1564.67 399.672 1563.47 399.672C1562.29 399.672 1561.43 400.416 1561.43 401.496C1561.43 402.576 1562.29 403.344 1563.47 403.344ZM1561.72 417H1565.24V405.096H1561.72V417ZM1570.84 417H1574.92L1578.8 405.096H1575.42L1573.86 410.712C1573.55 411.888 1573.24 413.136 1572.95 414.384H1572.85C1572.54 413.136 1572.23 411.888 1571.92 410.712L1570.38 405.096H1566.83L1570.84 417ZM1579.53 411.048C1579.53 414.984 1582.14 417.288 1585.55 417.288C1586.97 417.288 1588.55 416.784 1589.78 415.944L1588.6 413.808C1587.74 414.336 1586.92 414.6 1586.03 414.6C1584.45 414.6 1583.25 413.808 1582.94 412.008H1590.06C1590.14 411.72 1590.21 411.144 1590.21 410.52C1590.21 407.28 1588.53 404.808 1585.14 404.808C1582.29 404.808 1579.53 407.184 1579.53 411.048ZM1582.91 409.824C1583.15 408.24 1584.11 407.496 1585.22 407.496C1586.63 407.496 1587.21 408.456 1587.21 409.824H1582.91Z" fill="#009CDE"/>
<rect x="585" y="373" width="312" height="70" rx="14" fill="white" stroke="#2B2B2B" stroke-width="4"/>
<path d="M637.945 409.056C637.945 405.144 639.793 402.72 642.601 402.72C645.409 402.72 647.257 405.144 647.257 409.056C647.257 413.088 645.409 415.632 642.601 415.632C639.793 415.632 637.945 413.088 637.945 409.056ZM649.297 419.016C648.865 419.136 648.337 419.256 647.641 419.256C645.937 419.256 644.497 418.584 643.777 417.192C647.113 416.616 649.345 413.592 649.345 409.056C649.345 404.04 646.561 400.968 642.601 400.968C638.641 400.968 635.881 404.016 635.881 409.056C635.881 413.688 638.185 416.736 641.617 417.216C642.529 419.376 644.521 420.936 647.425 420.936C648.361 420.936 649.201 420.744 649.681 420.576L649.297 419.016ZM652.12 412.728C652.12 415.704 653.224 417.288 655.696 417.288C657.304 417.288 658.456 416.448 659.536 415.176H659.608L659.776 417H661.408V405.336H659.44V413.616C658.336 414.984 657.496 415.584 656.296 415.584C654.76 415.584 654.112 414.648 654.112 412.464V405.336H652.12V412.728ZM664.517 413.976C664.517 416.064 665.981 417.288 667.949 417.288C669.389 417.288 670.685 416.52 671.813 415.608H671.861L672.029 417H673.661V409.848C673.661 406.944 672.461 405.048 669.605 405.048C667.733 405.048 666.101 405.864 665.021 406.56L665.813 407.928C666.725 407.304 667.925 406.68 669.293 406.68C671.189 406.68 671.693 408.12 671.693 409.608C666.725 410.16 664.517 411.432 664.517 413.976ZM666.461 413.832C666.461 412.344 667.781 411.384 671.693 410.904V414.144C670.565 415.152 669.629 415.704 668.501 415.704C667.349 415.704 666.461 415.152 666.461 413.832ZM677.124 417H679.092V409.512C679.884 407.544 681.06 406.824 682.044 406.824C682.524 406.824 682.788 406.896 683.172 407.016L683.556 405.288C683.172 405.12 682.812 405.048 682.308 405.048C680.988 405.048 679.788 405.984 678.996 407.448H678.924L678.756 405.336H677.124V417ZM685.531 413.4C685.531 415.704 686.371 417.288 688.867 417.288C689.587 417.288 690.379 417.072 691.027 416.856L690.643 415.368C690.259 415.512 689.731 415.68 689.323 415.68C687.979 415.68 687.523 414.864 687.523 413.424V406.944H690.667V405.336H687.523V402.072H685.867L685.627 405.336L683.803 405.456V406.944H685.531V413.4ZM691.956 411.192C691.956 415.008 694.428 417.288 697.548 417.288C699.132 417.288 700.38 416.736 701.388 416.088L700.692 414.792C699.828 415.344 698.892 415.704 697.788 415.704C695.556 415.704 694.044 414.12 693.9 411.6H701.772C701.82 411.312 701.844 410.928 701.844 410.52C701.844 407.184 700.164 405.048 697.188 405.048C694.524 405.048 691.956 407.376 691.956 411.192ZM693.876 410.304C694.116 407.952 695.604 406.608 697.236 406.608C699.06 406.608 700.116 407.928 700.116 410.304H693.876ZM704.476 417H706.444V409.512C707.236 407.544 708.412 406.824 709.396 406.824C709.876 406.824 710.14 406.896 710.524 407.016L710.908 405.288C710.524 405.12 710.164 405.048 709.66 405.048C708.34 405.048 707.14 405.984 706.348 407.448H706.276L706.108 405.336H704.476V417ZM712.546 414.648C712.546 416.352 713.146 417.288 714.634 417.288C715.162 417.288 715.498 417.216 715.762 417.096L715.498 415.608C715.282 415.656 715.186 415.656 715.066 415.656C714.778 415.656 714.514 415.416 714.514 414.792V399.912H712.546V414.648ZM717.621 420.216L717.237 421.776C717.621 421.92 718.077 422.016 718.605 422.016C720.957 422.016 722.157 420.264 722.973 417.96L727.365 405.336H725.445L723.357 411.792C723.045 412.824 722.709 414.024 722.373 415.08H722.277C721.917 414 721.509 412.8 721.149 411.792L718.773 405.336H716.733L721.413 417.024L721.149 417.888C720.669 419.328 719.829 420.384 718.509 420.384C718.221 420.384 717.861 420.288 717.621 420.216ZM837.334 417H845.974V415.368H842.806V401.688H841.294C840.454 402.192 839.446 402.576 838.054 402.816V404.088H840.838V415.368H837.334V417Z" fill="#2B2B2B"/>
<path d="M740.208 417.288C744.432 417.288 747.312 414.216 747.312 409.104C747.312 404.016 744.432 401.064 740.208 401.064C735.984 401.064 733.104 403.992 733.104 409.104C733.104 414.216 735.984 417.288 740.208 417.288ZM740.208 414.24C738.072 414.24 736.728 412.248 736.728 409.104C736.728 405.984 738.072 404.112 740.208 404.112C742.344 404.112 743.688 405.984 743.688 409.104C743.688 412.248 742.344 414.24 740.208 414.24ZM749.716 417H752.476L752.764 415.752H752.86C753.796 416.76 754.9 417.288 755.956 417.288C758.524 417.288 760.972 414.936 760.972 410.832C760.972 407.184 759.172 404.808 756.292 404.808C755.188 404.808 754.06 405.312 753.148 406.128L753.244 404.304V400.176H749.716V417ZM753.244 413.64V408.768C753.916 408.024 754.564 407.688 755.284 407.688C756.7 407.688 757.348 408.768 757.348 410.904C757.348 413.352 756.364 414.408 755.14 414.408C754.54 414.408 753.868 414.216 753.244 413.64ZM763.248 417.024C763.248 418.344 762.936 418.944 762 418.944C761.664 418.944 761.376 418.872 761.064 418.776L760.44 421.368C760.92 421.56 761.544 421.704 762.528 421.704C765.768 421.704 766.776 419.52 766.776 416.928V405.096H763.248V417.024ZM765.024 403.344C766.2 403.344 767.064 402.576 767.064 401.496C767.064 400.416 766.2 399.672 765.024 399.672C763.848 399.672 762.984 400.416 762.984 401.496C762.984 402.576 763.848 403.344 765.024 403.344ZM768.958 411.048C768.958 414.984 771.574 417.288 774.982 417.288C776.398 417.288 777.982 416.784 779.206 415.944L778.03 413.808C777.166 414.336 776.35 414.6 775.462 414.6C773.878 414.6 772.678 413.808 772.366 412.008H779.494C779.566 411.72 779.638 411.144 779.638 410.52C779.638 407.28 777.958 404.808 774.574 404.808C771.718 404.808 768.958 407.184 768.958 411.048ZM772.342 409.824C772.582 408.24 773.542 407.496 774.646 407.496C776.062 407.496 776.638 408.456 776.638 409.824H772.342ZM781.13 411.048C781.13 415.008 783.698 417.288 787.01 417.288C788.306 417.288 789.818 416.808 790.97 415.8L789.554 413.568C788.978 414.024 788.282 414.432 787.418 414.432C785.882 414.432 784.754 413.112 784.754 411.048C784.754 408.984 785.834 407.664 787.538 407.664C788.09 407.664 788.618 407.88 789.194 408.36L790.802 406.176C790.01 405.36 788.786 404.808 787.322 404.808C784.034 404.808 781.13 407.088 781.13 411.048ZM793.259 412.68C793.259 415.44 794.411 417.288 797.363 417.288C798.515 417.288 799.379 417.048 800.003 416.856L799.451 414.288C799.139 414.408 798.707 414.528 798.323 414.528C797.387 414.528 796.787 413.976 796.787 412.632V407.856H799.643V405.096H796.787V401.928H793.859L793.451 405.096L791.627 405.24V407.856H793.259V412.68ZM803.468 403.344C804.668 403.344 805.508 402.576 805.508 401.496C805.508 400.416 804.668 399.672 803.468 399.672C802.292 399.672 801.428 400.416 801.428 401.496C801.428 402.576 802.292 403.344 803.468 403.344ZM801.716 417H805.244V405.096H801.716V417ZM810.835 417H814.915L818.803 405.096H815.419L813.859 410.712C813.547 411.888 813.235 413.136 812.947 414.384H812.851C812.539 413.136 812.227 411.888 811.915 410.712L810.379 405.096H806.827L810.835 417ZM819.528 411.048C819.528 414.984 822.144 417.288 825.552 417.288C826.968 417.288 828.552 416.784 829.776 415.944L828.6 413.808C827.736 414.336 826.92 414.6 826.032 414.6C824.448 414.6 823.248 413.808 822.936 412.008H830.064C830.136 411.72 830.208 411.144 830.208 410.52C830.208 407.28 828.528 404.808 825.144 404.808C822.288 404.808 819.528 407.184 819.528 411.048ZM822.912 409.824C823.152 408.24 824.112 407.496 825.216 407.496C826.632 407.496 827.208 408.456 827.208 409.824H822.912Z" fill="#009CDE"/>
<rect x="1155" y="235" width="312" height="70" rx="14" fill="white" stroke="#2B2B2B" stroke-width="4"/>
<path d="M1220.51 272.592L1221.26 270.192C1221.83 268.44 1222.34 266.712 1222.82 264.888H1222.91C1223.42 266.712 1223.92 268.44 1224.5 270.192L1225.24 272.592H1220.51ZM1227.23 279H1229.37L1224.04 263.256H1221.79L1216.46 279H1218.5L1220.01 274.2H1225.75L1227.23 279ZM1231.16 279H1233.13V270.552C1234.3 269.376 1235.12 268.752 1236.32 268.752C1237.86 268.752 1238.53 269.688 1238.53 271.872V279H1240.5V271.608C1240.5 268.632 1239.39 267.048 1236.94 267.048C1235.34 267.048 1234.14 267.912 1233.03 269.016H1232.96L1232.79 267.336H1231.16V279ZM1244.03 279H1246V270.552C1247.18 269.376 1247.99 268.752 1249.19 268.752C1250.73 268.752 1251.4 269.688 1251.4 271.872V279H1253.37V271.608C1253.37 268.632 1252.27 267.048 1249.82 267.048C1248.21 267.048 1247.01 267.912 1245.91 269.016H1245.83L1245.67 267.336H1244.03V279ZM1256.74 274.728C1256.74 277.704 1257.85 279.288 1260.32 279.288C1261.93 279.288 1263.08 278.448 1264.16 277.176H1264.23L1264.4 279H1266.03V267.336H1264.06V275.616C1262.96 276.984 1262.12 277.584 1260.92 277.584C1259.38 277.584 1258.73 276.648 1258.73 274.464V267.336H1256.74V274.728ZM1269.14 275.976C1269.14 278.064 1270.6 279.288 1272.57 279.288C1274.01 279.288 1275.31 278.52 1276.43 277.608H1276.48L1276.65 279H1278.28V271.848C1278.28 268.944 1277.08 267.048 1274.23 267.048C1272.35 267.048 1270.72 267.864 1269.64 268.56L1270.43 269.928C1271.35 269.304 1272.55 268.68 1273.91 268.68C1275.81 268.68 1276.31 270.12 1276.31 271.608C1271.35 272.16 1269.14 273.432 1269.14 275.976ZM1271.08 275.832C1271.08 274.344 1272.4 273.384 1276.31 272.904V276.144C1275.19 277.152 1274.25 277.704 1273.12 277.704C1271.97 277.704 1271.08 277.152 1271.08 275.832ZM1281.75 276.648C1281.75 278.352 1282.35 279.288 1283.83 279.288C1284.36 279.288 1284.7 279.216 1284.96 279.096L1284.7 277.608C1284.48 277.656 1284.39 277.656 1284.27 277.656C1283.98 277.656 1283.71 277.416 1283.71 276.792V261.912H1281.75V276.648ZM1394.64 279H1404.53V277.296H1400.09C1399.3 277.296 1398.36 277.368 1397.52 277.44C1401.15 273.648 1403.76 270.792 1403.76 267.912C1403.76 265.2 1402.01 263.4 1399.18 263.4C1397.19 263.4 1395.82 264.336 1394.55 265.728L1395.68 266.856C1396.56 265.824 1397.67 265.008 1398.94 265.008C1400.88 265.008 1401.84 266.256 1401.84 268.008C1401.84 270.48 1399.25 273.24 1394.64 277.824V279Z" fill="#2B2B2B"/>
<path d="M1298.45 279.288C1302.68 279.288 1305.56 276.216 1305.56 271.104C1305.56 266.016 1302.68 263.064 1298.45 263.064C1294.23 263.064 1291.35 265.992 1291.35 271.104C1291.35 276.216 1294.23 279.288 1298.45 279.288ZM1298.45 276.24C1296.32 276.24 1294.97 274.248 1294.97 271.104C1294.97 267.984 1296.32 266.112 1298.45 266.112C1300.59 266.112 1301.93 267.984 1301.93 271.104C1301.93 274.248 1300.59 276.24 1298.45 276.24ZM1307.96 279H1310.72L1311.01 277.752H1311.11C1312.04 278.76 1313.15 279.288 1314.2 279.288C1316.77 279.288 1319.22 276.936 1319.22 272.832C1319.22 269.184 1317.42 266.808 1314.54 266.808C1313.43 266.808 1312.31 267.312 1311.39 268.128L1311.49 266.304V262.176H1307.96V279ZM1311.49 275.64V270.768C1312.16 270.024 1312.81 269.688 1313.53 269.688C1314.95 269.688 1315.59 270.768 1315.59 272.904C1315.59 275.352 1314.61 276.408 1313.39 276.408C1312.79 276.408 1312.11 276.216 1311.49 275.64ZM1321.49 279.024C1321.49 280.344 1321.18 280.944 1320.25 280.944C1319.91 280.944 1319.62 280.872 1319.31 280.776L1318.69 283.368C1319.17 283.56 1319.79 283.704 1320.77 283.704C1324.01 283.704 1325.02 281.52 1325.02 278.928V267.096H1321.49V279.024ZM1323.27 265.344C1324.45 265.344 1325.31 264.576 1325.31 263.496C1325.31 262.416 1324.45 261.672 1323.27 261.672C1322.09 261.672 1321.23 262.416 1321.23 263.496C1321.23 264.576 1322.09 265.344 1323.27 265.344ZM1327.2 273.048C1327.2 276.984 1329.82 279.288 1333.23 279.288C1334.64 279.288 1336.23 278.784 1337.45 277.944L1336.28 275.808C1335.41 276.336 1334.6 276.6 1333.71 276.6C1332.12 276.6 1330.92 275.808 1330.61 274.008H1337.74C1337.81 273.72 1337.88 273.144 1337.88 272.52C1337.88 269.28 1336.2 266.808 1332.82 266.808C1329.96 266.808 1327.2 269.184 1327.2 273.048ZM1330.59 271.824C1330.83 270.24 1331.79 269.496 1332.89 269.496C1334.31 269.496 1334.88 270.456 1334.88 271.824H1330.59ZM1339.38 273.048C1339.38 277.008 1341.94 279.288 1345.26 279.288C1346.55 279.288 1348.06 278.808 1349.22 277.8L1347.8 275.568C1347.22 276.024 1346.53 276.432 1345.66 276.432C1344.13 276.432 1343 275.112 1343 273.048C1343 270.984 1344.08 269.664 1345.78 269.664C1346.34 269.664 1346.86 269.88 1347.44 270.36L1349.05 268.176C1348.26 267.36 1347.03 266.808 1345.57 266.808C1342.28 266.808 1339.38 269.088 1339.38 273.048ZM1351.5 274.68C1351.5 277.44 1352.66 279.288 1355.61 279.288C1356.76 279.288 1357.62 279.048 1358.25 278.856L1357.7 276.288C1357.38 276.408 1356.95 276.528 1356.57 276.528C1355.63 276.528 1355.03 275.976 1355.03 274.632V269.856H1357.89V267.096H1355.03V263.928H1352.1L1351.7 267.096L1349.87 267.24V269.856H1351.5V274.68ZM1361.71 265.344C1362.91 265.344 1363.75 264.576 1363.75 263.496C1363.75 262.416 1362.91 261.672 1361.71 261.672C1360.54 261.672 1359.67 262.416 1359.67 263.496C1359.67 264.576 1360.54 265.344 1361.71 265.344ZM1359.96 279H1363.49V267.096H1359.96V279ZM1369.08 279H1373.16L1377.05 267.096H1373.67L1372.11 272.712C1371.79 273.888 1371.48 275.136 1371.19 276.384H1371.1C1370.79 275.136 1370.47 273.888 1370.16 272.712L1368.63 267.096H1365.07L1369.08 279ZM1377.77 273.048C1377.77 276.984 1380.39 279.288 1383.8 279.288C1385.21 279.288 1386.8 278.784 1388.02 277.944L1386.85 275.808C1385.98 276.336 1385.17 276.6 1384.28 276.6C1382.69 276.6 1381.49 275.808 1381.18 274.008H1388.31C1388.38 273.72 1388.45 273.144 1388.45 272.52C1388.45 269.28 1386.77 266.808 1383.39 266.808C1380.53 266.808 1377.77 269.184 1377.77 273.048ZM1381.16 271.824C1381.4 270.24 1382.36 269.496 1383.46 269.496C1384.88 269.496 1385.45 270.456 1385.45 271.824H1381.16Z" fill="#009CDE"/>
<rect x="1155" y="511" width="312" height="70" rx="14" fill="white" stroke="#2B2B2B" stroke-width="4"/>
<path d="M1251.58 555H1253.57V550.008L1256.29 546.816L1260.99 555H1263.22L1257.53 545.256L1262.45 539.256H1260.2L1253.65 547.152H1253.57V539.256H1251.58V555ZM1264.01 549.192C1264.01 553.008 1266.48 555.288 1269.6 555.288C1271.19 555.288 1272.43 554.736 1273.44 554.088L1272.75 552.792C1271.88 553.344 1270.95 553.704 1269.84 553.704C1267.61 553.704 1266.1 552.12 1265.95 549.6H1273.83C1273.87 549.312 1273.9 548.928 1273.9 548.52C1273.9 545.184 1272.22 543.048 1269.24 543.048C1266.58 543.048 1264.01 545.376 1264.01 549.192ZM1265.93 548.304C1266.17 545.952 1267.66 544.608 1269.29 544.608C1271.11 544.608 1272.17 545.928 1272.17 548.304H1265.93ZM1275.86 558.216L1275.47 559.776C1275.86 559.92 1276.31 560.016 1276.84 560.016C1279.19 560.016 1280.39 558.264 1281.21 555.96L1285.6 543.336H1283.68L1281.59 549.792C1281.28 550.824 1280.94 552.024 1280.61 553.08H1280.51C1280.15 552 1279.74 550.8 1279.38 549.792L1277.01 543.336H1274.97L1279.65 555.024L1279.38 555.888C1278.9 557.328 1278.06 558.384 1276.74 558.384C1276.46 558.384 1276.1 558.288 1275.86 558.216ZM1361.61 555H1371.5V553.296H1367.06C1366.26 553.296 1365.33 553.368 1364.49 553.44C1368.11 549.648 1370.73 546.792 1370.73 543.912C1370.73 541.2 1368.98 539.4 1366.14 539.4C1364.15 539.4 1362.78 540.336 1361.51 541.728L1362.64 542.856C1363.53 541.824 1364.63 541.008 1365.9 541.008C1367.85 541.008 1368.81 542.256 1368.81 544.008C1368.81 546.48 1366.22 549.24 1361.61 553.824V555Z" fill="#2B2B2B"/>
<path d="M1295.61 542.16H1297.43C1299.28 542.16 1300.29 542.688 1300.29 544.224C1300.29 545.76 1299.28 546.552 1297.43 546.552H1295.61V542.16ZM1304.51 555L1300.96 548.736C1302.64 547.992 1303.75 546.528 1303.75 544.224C1303.75 540.504 1301.03 539.352 1297.72 539.352H1292.08V555H1295.61V549.36H1297.55L1300.55 555H1304.51ZM1305.4 549.048C1305.4 552.984 1308.02 555.288 1311.43 555.288C1312.84 555.288 1314.43 554.784 1315.65 553.944L1314.48 551.808C1313.61 552.336 1312.8 552.6 1311.91 552.6C1310.32 552.6 1309.12 551.808 1308.81 550.008H1315.94C1316.01 549.72 1316.08 549.144 1316.08 548.52C1316.08 545.28 1314.4 542.808 1311.02 542.808C1308.16 542.808 1305.4 545.184 1305.4 549.048ZM1308.79 547.824C1309.03 546.24 1309.99 545.496 1311.09 545.496C1312.51 545.496 1313.08 546.456 1313.08 547.824H1308.79ZM1317.21 553.632C1318.41 554.616 1320.21 555.288 1321.77 555.288C1324.97 555.288 1326.67 553.608 1326.67 551.448C1326.67 549.264 1324.97 548.424 1323.45 547.872C1322.23 547.416 1321.13 547.128 1321.13 546.36C1321.13 545.76 1321.56 545.424 1322.47 545.424C1323.31 545.424 1324.13 545.808 1324.99 546.432L1326.57 544.32C1325.54 543.552 1324.2 542.808 1322.37 542.808C1319.61 542.808 1317.81 544.32 1317.81 546.528C1317.81 548.496 1319.52 549.48 1320.96 550.032C1322.18 550.512 1323.38 550.872 1323.38 551.664C1323.38 552.288 1322.93 552.672 1321.87 552.672C1320.86 552.672 1319.88 552.24 1318.8 551.424L1317.21 553.632ZM1328.54 550.488C1328.54 553.464 1329.65 555.288 1332.24 555.288C1333.87 555.288 1334.97 554.544 1335.98 553.344H1336.05L1336.32 555H1339.2V543.096H1335.67V550.968C1334.97 551.904 1334.45 552.288 1333.56 552.288C1332.53 552.288 1332.07 551.736 1332.07 550.032V543.096H1328.54V550.488ZM1342.05 551.304C1342.05 553.704 1342.87 555.288 1345.29 555.288C1346.08 555.288 1346.68 555.168 1347.07 555L1346.64 552.384C1346.44 552.432 1346.35 552.432 1346.2 552.432C1345.92 552.432 1345.58 552.192 1345.58 551.448V538.176H1342.05V551.304ZM1349.15 550.68C1349.15 553.44 1350.3 555.288 1353.25 555.288C1354.41 555.288 1355.27 555.048 1355.89 554.856L1355.34 552.288C1355.03 552.408 1354.6 552.528 1354.21 552.528C1353.28 552.528 1352.68 551.976 1352.68 550.632V545.856H1355.53V543.096H1352.68V539.928H1349.75L1349.34 543.096L1347.52 543.24V545.856H1349.15V550.68Z" fill="#009CDE"/>
<path d="M1122.5 169C1122.5 168.172 1121.83 167.5 1121 167.5C1120.17 167.5 1119.5 168.172 1119.5 169L1122.5 169ZM1119.5 169L1119.5 201L1122.5 201L1122.5 169L1119.5 169Z" fill="#6A6A6A"/>
<path d="M1122.5 445C1122.5 444.172 1121.83 443.5 1121 443.5C1120.17 443.5 1119.5 444.172 1119.5 445L1122.5 445ZM1119.5 445L1119.5 477L1122.5 477L1122.5 445L1119.5 445Z" fill="#6A6A6A"/>
<path d="M919.5 583C919.5 582.172 918.828 581.5 918 581.5C917.172 581.5 916.5 582.172 916.5 583L919.5 583ZM916.5 583L916.5 615L919.5 615L919.5 583L916.5 583Z" fill="#6A6A6A"/>
<path d="M919.5 689C919.5 688.172 918.828 687.5 918 687.5C917.172 687.5 916.5 688.172 916.5 689L919.5 689ZM916.5 689L916.5 721L919.5 721L919.5 689L916.5 689Z" fill="#6A6A6A"/>
<path d="M1122.5 339C1122.5 338.172 1121.83 337.5 1121 337.5C1120.17 337.5 1119.5 338.172 1119.5 339L1122.5 339ZM1119.5 339L1119.5 371L1122.5 371L1122.5 339L1119.5 339Z" fill="#6A6A6A"/>
<path d="M919.5 307C919.5 306.172 918.828 305.5 918 305.5C917.172 305.5 916.5 306.172 916.5 307L919.5 307ZM916.5 307L916.5 339L919.5 339L919.5 307L916.5 307Z" fill="#6A6A6A"/>
<path d="M1324 233V201H918V233" stroke="#6A6A6A" stroke-width="3"/>
<path d="M1324 509V477H918V509" stroke="#6A6A6A" stroke-width="3"/>
<path d="M1506.5 371V339H715V371" stroke="#6A6A6A" stroke-width="3"/>
<path d="M583 201L574 201C547.49 201 526 179.51 526 153L526 143C526 116.49 547.49 95 574 95L583 95" stroke="#6A6A6A" stroke-width="3" stroke-linecap="round" stroke-linejoin="round" stroke-dasharray="4 8"/>
<path d="M583 339L574 339C547.49 339 526 317.51 526 291L526 249C526 222.49 547.49 201 574 201L583 201" stroke="#6A6A6A" stroke-width="3" stroke-linecap="round" stroke-linejoin="round" stroke-dasharray="4 8"/>
<path d="M583 477L574 477C547.49 477 526 455.51 526 429L526 387C526 360.49 547.49 339 574 339L583 339" stroke="#6A6A6A" stroke-width="3" stroke-linecap="round" stroke-linejoin="round" stroke-dasharray="4 8"/>
<path d="M583 795L574 795C547.49 795 526 773.51 526 747L526 525C526 498.49 547.49 477 574 477L583 477" stroke="#6A6A6A" stroke-width="3" stroke-linecap="round" stroke-linejoin="round" stroke-dasharray="4 8"/>
<path d="M264.772 161H279.352V156.536H270.064V137.528H264.772V161ZM281.187 152.072C281.187 158.012 285.363 161.432 289.899 161.432C294.399 161.432 298.575 158.012 298.575 152.072C298.575 146.132 294.399 142.712 289.899 142.712C285.363 142.712 281.187 146.132 281.187 152.072ZM286.623 152.072C286.623 148.976 287.703 146.996 289.899 146.996C292.059 146.996 293.175 148.976 293.175 152.072C293.175 155.168 292.059 157.148 289.899 157.148C287.703 157.148 286.623 155.168 286.623 152.072ZM301.949 161H307.241V148.94C308.393 147.824 309.221 147.212 310.553 147.212C312.065 147.212 312.749 148.004 312.749 150.596V161H318.041V149.912C318.041 145.448 316.385 142.712 312.497 142.712C310.085 142.712 308.285 143.972 306.773 145.412H306.629L306.269 143.144H301.949V161ZM325.541 163.232C325.541 162.584 325.865 162.044 326.513 161.468C327.089 161.612 327.809 161.684 329.033 161.684H330.869C332.633 161.684 333.605 161.972 333.605 163.088C333.605 164.312 331.877 165.284 329.501 165.284C327.125 165.284 325.541 164.564 325.541 163.232ZM321.185 164.06C321.185 167.228 324.497 168.596 328.673 168.596C334.793 168.596 338.645 165.896 338.645 162.188C338.645 158.984 336.233 157.652 331.841 157.652H328.961C326.981 157.652 326.261 157.22 326.261 156.32C326.261 155.708 326.441 155.384 326.909 154.988C327.701 155.24 328.421 155.348 329.069 155.348C332.993 155.348 336.089 153.44 336.089 149.336C336.089 148.4 335.837 147.536 335.513 146.996H338.357V143.144H331.841C331.049 142.856 330.077 142.712 329.069 142.712C325.217 142.712 321.689 144.872 321.689 149.156C321.689 151.244 322.841 152.936 324.101 153.8V153.944C322.949 154.736 322.085 155.996 322.085 157.292C322.085 158.768 322.805 159.704 323.741 160.316V160.46C322.085 161.396 321.185 162.584 321.185 164.06ZM329.069 152.144C327.665 152.144 326.621 151.136 326.621 149.156C326.621 147.248 327.665 146.276 329.069 146.276C330.473 146.276 331.517 147.284 331.517 149.156C331.517 151.136 330.473 152.144 329.069 152.144ZM340.489 153.764H349.345V150.02H340.489V153.764ZM357.742 161H363.07V141.992H369.514V137.528H351.298V141.992H357.742V161ZM368.706 152.072C368.706 157.976 372.63 161.432 377.742 161.432C379.866 161.432 382.242 160.676 384.078 159.416L382.314 156.212C381.018 157.004 379.794 157.4 378.462 157.4C376.086 157.4 374.286 156.212 373.818 153.512H384.51C384.618 153.08 384.726 152.216 384.726 151.28C384.726 146.42 382.206 142.712 377.13 142.712C372.846 142.712 368.706 146.276 368.706 152.072ZM373.782 150.236C374.142 147.86 375.582 146.744 377.238 146.744C379.362 146.744 380.226 148.184 380.226 150.236H373.782ZM388.133 161H393.425V150.632C394.361 148.22 396.017 147.356 397.349 147.356C398.105 147.356 398.645 147.464 399.293 147.644L400.157 143.072C399.653 142.856 399.041 142.712 398.033 142.712C396.197 142.712 394.253 143.864 392.957 146.276H392.813L392.453 143.144H388.133V161ZM402.227 161H407.519V148.94C408.635 147.788 409.679 147.212 410.543 147.212C412.055 147.212 412.739 148.004 412.739 150.596V161H418.031V148.94C419.183 147.788 420.191 147.212 421.091 147.212C422.603 147.212 423.287 148.004 423.287 150.596V161H428.579V149.912C428.579 145.448 426.851 142.712 422.999 142.712C420.623 142.712 418.967 144.08 417.383 145.7C416.483 143.792 414.971 142.712 412.451 142.712C410.111 142.712 408.527 143.972 407.051 145.448H406.907L406.547 143.144H402.227V161Z" fill="#2B2B2B"/>
<path d="M264.52 283H279.064V278.716H274.78V260.14H270.892C269.272 261.112 267.688 261.76 265.204 262.228V265.504H269.488V278.716H264.52V283ZM294.812 283H300.104V274.648L307.196 259.528H301.652L299.528 264.928C298.88 266.692 298.232 268.312 297.548 270.112H297.404C296.756 268.312 296.144 266.692 295.496 264.928L293.408 259.528H287.72L294.812 274.648V283ZM305.999 274.072C305.999 279.976 309.923 283.432 315.035 283.432C317.159 283.432 319.535 282.676 321.371 281.416L319.607 278.212C318.311 279.004 317.087 279.4 315.755 279.4C313.379 279.4 311.579 278.212 311.111 275.512H321.803C321.911 275.08 322.019 274.216 322.019 273.28C322.019 268.42 319.499 264.712 314.423 264.712C310.139 264.712 305.999 268.276 305.999 274.072ZM311.075 272.236C311.435 269.86 312.875 268.744 314.531 268.744C316.655 268.744 317.519 270.184 317.519 272.236H311.075ZM324.391 278.032C324.391 281.056 326.443 283.432 329.683 283.432C331.699 283.432 333.391 282.496 334.903 281.164H335.011L335.407 283H339.727V272.776C339.727 267.304 337.207 264.712 332.635 264.712C329.827 264.712 327.271 265.684 325.003 267.052L326.875 270.544C328.603 269.536 330.115 268.924 331.627 268.924C333.535 268.924 334.327 269.932 334.435 271.516C327.379 272.236 324.391 274.288 324.391 278.032ZM329.431 277.636C329.431 276.268 330.655 275.188 334.435 274.684V277.816C333.499 278.752 332.707 279.328 331.483 279.328C330.223 279.328 329.431 278.788 329.431 277.636ZM344.02 283H349.312V272.632C350.248 270.22 351.904 269.356 353.236 269.356C353.992 269.356 354.532 269.464 355.18 269.644L356.044 265.072C355.54 264.856 354.928 264.712 353.92 264.712C352.084 264.712 350.14 265.864 348.844 268.276H348.7L348.34 265.144H344.02V283Z" fill="#2B2B2B"/>
<path d="M269.092 409.156C269.092 404.476 271.108 401.668 274.312 401.668C277.516 401.668 279.532 404.476 279.532 409.156C279.532 414.16 277.516 417.112 274.312 417.112C271.108 417.112 269.092 414.16 269.092 409.156ZM285.256 422.764C284.572 423.016 283.672 423.196 282.664 423.196C280.684 423.196 278.596 422.62 277.516 421C282.052 419.704 284.968 415.456 284.968 409.156C284.968 401.524 280.648 397.096 274.312 397.096C267.976 397.096 263.656 401.488 263.656 409.156C263.656 415.78 266.896 420.136 271.9 421.18C273.556 424.852 277.084 427.408 282.052 427.408C283.852 427.408 285.328 427.084 286.192 426.652L285.256 422.764ZM288.519 414.232C288.519 418.696 290.175 421.432 294.063 421.432C296.511 421.432 298.167 420.316 299.679 418.516H299.787L300.183 421H304.503V403.144H299.211V414.952C298.167 416.356 297.375 416.932 296.043 416.932C294.495 416.932 293.811 416.104 293.811 413.548V403.144H288.519V414.232ZM308.262 416.032C308.262 419.056 310.314 421.432 313.554 421.432C315.57 421.432 317.262 420.496 318.774 419.164H318.882L319.278 421H323.598V410.776C323.598 405.304 321.078 402.712 316.506 402.712C313.698 402.712 311.142 403.684 308.874 405.052L310.746 408.544C312.474 407.536 313.986 406.924 315.498 406.924C317.406 406.924 318.198 407.932 318.306 409.516C311.25 410.236 308.262 412.288 308.262 416.032ZM313.302 415.636C313.302 414.268 314.526 413.188 318.306 412.684V415.816C317.37 416.752 316.578 417.328 315.354 417.328C314.094 417.328 313.302 416.788 313.302 415.636ZM327.891 421H333.183V410.632C334.119 408.22 335.775 407.356 337.107 407.356C337.863 407.356 338.403 407.464 339.051 407.644L339.915 403.072C339.411 402.856 338.799 402.712 337.791 402.712C335.955 402.712 334.011 403.864 332.715 406.276H332.571L332.211 403.144H327.891V421ZM342.705 414.52C342.705 418.66 344.433 421.432 348.861 421.432C350.589 421.432 351.885 421.072 352.821 420.784L351.993 416.932C351.525 417.112 350.877 417.292 350.301 417.292C348.897 417.292 347.997 416.464 347.997 414.448V407.284H352.281V403.144H347.997V398.392H343.605L342.993 403.144L340.257 403.36V407.284H342.705V414.52ZM354.12 412.072C354.12 417.976 358.044 421.432 363.156 421.432C365.28 421.432 367.656 420.676 369.492 419.416L367.728 416.212C366.432 417.004 365.208 417.4 363.876 417.4C361.5 417.4 359.7 416.212 359.232 413.512H369.924C370.032 413.08 370.14 412.216 370.14 411.28C370.14 406.42 367.62 402.712 362.544 402.712C358.26 402.712 354.12 406.276 354.12 412.072ZM359.196 410.236C359.556 407.86 360.996 406.744 362.652 406.744C364.776 406.744 365.64 408.184 365.64 410.236H359.196ZM373.547 421H378.839V410.632C379.775 408.22 381.431 407.356 382.763 407.356C383.519 407.356 384.059 407.464 384.707 407.644L385.571 403.072C385.067 402.856 384.455 402.712 383.447 402.712C381.611 402.712 379.667 403.864 378.371 406.276H378.227L377.867 403.144H373.547V421ZM387.641 415.456C387.641 419.056 388.865 421.432 392.501 421.432C393.689 421.432 394.589 421.252 395.165 421L394.517 417.076C394.229 417.148 394.085 417.148 393.869 417.148C393.437 417.148 392.933 416.788 392.933 415.672V395.764H387.641V415.456ZM398.088 423.592L397.152 427.624C397.872 427.84 398.592 427.984 399.672 427.984C403.884 427.984 405.792 425.68 407.484 421.18L413.676 403.144H408.6L406.44 410.812C406.008 412.504 405.612 414.196 405.216 415.888H405.072C404.604 414.124 404.172 412.432 403.668 410.812L401.112 403.144H395.784L402.66 420.532L402.408 421.468C401.94 422.872 401.04 423.808 399.276 423.808C398.88 423.808 398.412 423.664 398.088 423.592Z" fill="#2B2B2B"/>
<path d="M264.772 604H271.684C278.56 604 283.168 600.22 283.168 592.156C283.168 584.092 278.56 580.528 271.396 580.528H264.772V604ZM270.064 599.716V584.812H271.072C275.068 584.812 277.732 586.54 277.732 592.156C277.732 597.772 275.068 599.716 271.072 599.716H270.064ZM286.294 599.032C286.294 602.056 288.346 604.432 291.586 604.432C293.602 604.432 295.294 603.496 296.806 602.164H296.914L297.31 604H301.63V593.776C301.63 588.304 299.11 585.712 294.538 585.712C291.73 585.712 289.174 586.684 286.906 588.052L288.778 591.544C290.506 590.536 292.018 589.924 293.53 589.924C295.438 589.924 296.23 590.932 296.338 592.516C289.282 593.236 286.294 595.288 286.294 599.032ZM291.334 598.636C291.334 597.268 292.558 596.188 296.338 595.684V598.816C295.402 599.752 294.61 600.328 293.386 600.328C292.126 600.328 291.334 599.788 291.334 598.636ZM308.55 583.516C310.35 583.516 311.61 582.364 311.61 580.744C311.61 579.124 310.35 578.008 308.55 578.008C306.786 578.008 305.49 579.124 305.49 580.744C305.49 582.364 306.786 583.516 308.55 583.516ZM305.922 604H311.214V586.144H305.922V604ZM315.621 598.456C315.621 602.056 316.845 604.432 320.481 604.432C321.669 604.432 322.569 604.252 323.145 604L322.497 600.076C322.209 600.148 322.065 600.148 321.849 600.148C321.417 600.148 320.913 599.788 320.913 598.672V578.764H315.621V598.456ZM326.068 606.592L325.132 610.624C325.852 610.84 326.572 610.984 327.652 610.984C331.864 610.984 333.772 608.68 335.464 604.18L341.656 586.144H336.58L334.42 593.812C333.988 595.504 333.592 597.196 333.196 598.888H333.052C332.584 597.124 332.152 595.432 331.648 593.812L329.092 586.144H323.764L330.64 603.532L330.388 604.468C329.92 605.872 329.02 606.808 327.256 606.808C326.86 606.808 326.392 606.664 326.068 606.592ZM356.438 604H361.766V584.992H368.21V580.528H349.994V584.992H356.438V604ZM368.219 599.032C368.219 602.056 370.271 604.432 373.511 604.432C375.527 604.432 377.219 603.496 378.731 602.164H378.839L379.235 604H383.555V593.776C383.555 588.304 381.035 585.712 376.463 585.712C373.655 585.712 371.099 586.684 368.831 588.052L370.703 591.544C372.431 590.536 373.943 589.924 375.455 589.924C377.363 589.924 378.155 590.932 378.263 592.516C371.207 593.236 368.219 595.288 368.219 599.032ZM373.259 598.636C373.259 597.268 374.483 596.188 378.263 595.684V598.816C377.327 599.752 376.535 600.328 375.311 600.328C374.051 600.328 373.259 599.788 373.259 598.636ZM386.264 601.948C388.064 603.424 390.764 604.432 393.104 604.432C397.892 604.432 400.448 601.912 400.448 598.672C400.448 595.396 397.892 594.136 395.624 593.308C393.788 592.624 392.132 592.192 392.132 591.04C392.132 590.14 392.78 589.636 394.148 589.636C395.408 589.636 396.632 590.212 397.928 591.148L400.304 587.98C398.756 586.828 396.74 585.712 394.004 585.712C389.864 585.712 387.164 587.98 387.164 591.292C387.164 594.244 389.72 595.72 391.88 596.548C393.716 597.268 395.516 597.808 395.516 598.996C395.516 599.932 394.832 600.508 393.248 600.508C391.736 600.508 390.26 599.86 388.64 598.636L386.264 601.948ZM403.559 604H408.707V599.608L410.975 597.052L415.007 604H420.731L413.999 593.488L420.263 586.144H414.503L408.851 593.236H408.707V578.764H403.559V604ZM421.447 601.948C423.247 603.424 425.947 604.432 428.287 604.432C433.075 604.432 435.631 601.912 435.631 598.672C435.631 595.396 433.075 594.136 430.807 593.308C428.971 592.624 427.315 592.192 427.315 591.04C427.315 590.14 427.963 589.636 429.331 589.636C430.591 589.636 431.815 590.212 433.111 591.148L435.487 587.98C433.939 586.828 431.923 585.712 429.187 585.712C425.047 585.712 422.347 587.98 422.347 591.292C422.347 594.244 424.903 595.72 427.063 596.548C428.899 597.268 430.699 597.808 430.699 598.996C430.699 599.932 430.015 600.508 428.431 600.508C426.919 600.508 425.443 599.86 423.823 598.636L421.447 601.948ZM274.312 652.432C280.648 652.432 284.968 647.824 284.968 640.156C284.968 632.524 280.648 628.096 274.312 628.096C267.976 628.096 263.656 632.488 263.656 640.156C263.656 647.824 267.976 652.432 274.312 652.432ZM274.312 647.86C271.108 647.86 269.092 644.872 269.092 640.156C269.092 635.476 271.108 632.668 274.312 632.668C277.516 632.668 279.532 635.476 279.532 640.156C279.532 644.872 277.516 647.86 274.312 647.86ZM288.699 652H293.991V641.632C294.927 639.22 296.583 638.356 297.915 638.356C298.671 638.356 299.211 638.464 299.859 638.644L300.723 634.072C300.219 633.856 299.607 633.712 298.599 633.712C296.763 633.712 294.819 634.864 293.523 637.276H293.379L293.019 634.144H288.699V652ZM305.682 654.232C305.682 653.584 306.006 653.044 306.654 652.468C307.23 652.612 307.95 652.684 309.174 652.684H311.01C312.774 652.684 313.746 652.972 313.746 654.088C313.746 655.312 312.018 656.284 309.642 656.284C307.266 656.284 305.682 655.564 305.682 654.232ZM301.326 655.06C301.326 658.228 304.638 659.596 308.814 659.596C314.934 659.596 318.786 656.896 318.786 653.188C318.786 649.984 316.374 648.652 311.982 648.652H309.102C307.122 648.652 306.402 648.22 306.402 647.32C306.402 646.708 306.582 646.384 307.05 645.988C307.842 646.24 308.562 646.348 309.21 646.348C313.134 646.348 316.23 644.44 316.23 640.336C316.23 639.4 315.978 638.536 315.654 637.996H318.498V634.144H311.982C311.19 633.856 310.218 633.712 309.21 633.712C305.358 633.712 301.83 635.872 301.83 640.156C301.83 642.244 302.982 643.936 304.242 644.8V644.944C303.09 645.736 302.226 646.996 302.226 648.292C302.226 649.768 302.946 650.704 303.882 651.316V651.46C302.226 652.396 301.326 653.584 301.326 655.06ZM309.21 643.144C307.806 643.144 306.762 642.136 306.762 640.156C306.762 638.248 307.806 637.276 309.21 637.276C310.614 637.276 311.658 638.284 311.658 640.156C311.658 642.136 310.614 643.144 309.21 643.144ZM320.106 647.032C320.106 650.056 322.158 652.432 325.398 652.432C327.414 652.432 329.106 651.496 330.618 650.164H330.726L331.122 652H335.442V641.776C335.442 636.304 332.922 633.712 328.35 633.712C325.542 633.712 322.986 634.684 320.718 636.052L322.59 639.544C324.318 638.536 325.83 637.924 327.342 637.924C329.25 637.924 330.042 638.932 330.15 640.516C323.094 641.236 320.106 643.288 320.106 647.032ZM325.146 646.636C325.146 645.268 326.37 644.188 330.15 643.684V646.816C329.214 647.752 328.422 648.328 327.198 648.328C325.938 648.328 325.146 647.788 325.146 646.636ZM339.735 652H345.027V639.94C346.179 638.824 347.007 638.212 348.339 638.212C349.851 638.212 350.535 639.004 350.535 641.596V652H355.827V640.912C355.827 636.448 354.171 633.712 350.283 633.712C347.871 633.712 346.071 634.972 344.559 636.412H344.415L344.055 634.144H339.735V652ZM362.714 631.516C364.514 631.516 365.774 630.364 365.774 628.744C365.774 627.124 364.514 626.008 362.714 626.008C360.95 626.008 359.654 627.124 359.654 628.744C359.654 630.364 360.95 631.516 362.714 631.516ZM360.086 652H365.378V634.144H360.086V652ZM368.813 652H383.141V647.86H375.401L382.889 636.952V634.144H369.641V638.284H376.301L368.813 649.156V652ZM384.698 643.072C384.698 648.976 388.622 652.432 393.734 652.432C395.858 652.432 398.234 651.676 400.07 650.416L398.306 647.212C397.01 648.004 395.786 648.4 394.454 648.4C392.078 648.4 390.278 647.212 389.81 644.512H400.502C400.61 644.08 400.718 643.216 400.718 642.28C400.718 637.42 398.198 633.712 393.122 633.712C388.838 633.712 384.698 637.276 384.698 643.072ZM389.774 641.236C390.134 638.86 391.574 637.744 393.23 637.744C395.354 637.744 396.218 639.184 396.218 641.236H389.774ZM403.189 643.072C403.189 648.904 406.069 652.432 410.497 652.432C412.225 652.432 413.989 651.496 415.249 650.236H415.393L415.753 652H420.073V626.764H414.781V632.848L414.997 635.584C413.773 634.432 412.585 633.712 410.605 633.712C406.825 633.712 403.189 637.24 403.189 643.072ZM408.625 643C408.625 639.616 410.137 638.032 411.829 638.032C412.801 638.032 413.845 638.32 414.781 639.184V646.492C413.917 647.68 413.017 648.112 411.865 648.112C409.813 648.112 408.625 646.528 408.625 643ZM434.378 631.516C436.178 631.516 437.438 630.364 437.438 628.744C437.438 627.124 436.178 626.008 434.378 626.008C432.614 626.008 431.318 627.124 431.318 628.744C431.318 630.364 432.614 631.516 434.378 631.516ZM431.75 652H437.042V634.144H431.75V652ZM441.449 652H446.741V639.94C447.893 638.824 448.721 638.212 450.053 638.212C451.565 638.212 452.249 639.004 452.249 641.596V652H457.541V640.912C457.541 636.448 455.885 633.712 451.997 633.712C449.585 633.712 447.785 634.972 446.273 636.412H446.129L445.769 634.144H441.449V652ZM468.031 652H484.123V647.536H479.515C478.435 647.536 476.851 647.68 475.699 647.824C479.407 643.936 483.007 639.832 483.007 635.98C483.007 631.588 479.947 628.708 475.447 628.708C472.171 628.708 470.047 629.932 467.779 632.344L470.659 635.188C471.811 633.964 473.071 632.848 474.727 632.848C476.707 632.848 477.967 634.072 477.967 636.304C477.967 639.544 473.863 643.468 468.031 648.976V652ZM266.86 700H273.412L275.608 689.344C276.004 687.544 276.292 685.636 276.58 683.908H276.724C276.976 685.636 277.264 687.544 277.66 689.344L279.964 700H286.624L290.8 676.528H285.724L284.104 687.508C283.78 689.92 283.456 692.404 283.132 694.924H282.988C282.52 692.404 282.052 689.884 281.584 687.508L279.064 676.528H274.564L272.044 687.508C271.576 689.956 271.108 692.44 270.64 694.924H270.496C270.208 692.44 269.848 689.956 269.56 687.508L267.94 676.528H262.504L266.86 700ZM292.331 691.072C292.331 696.976 296.255 700.432 301.367 700.432C303.491 700.432 305.867 699.676 307.703 698.416L305.939 695.212C304.643 696.004 303.419 696.4 302.087 696.4C299.711 696.4 297.911 695.212 297.443 692.512H308.135C308.243 692.08 308.351 691.216 308.351 690.28C308.351 685.42 305.831 681.712 300.755 681.712C296.471 681.712 292.331 685.276 292.331 691.072ZM297.407 689.236C297.767 686.86 299.207 685.744 300.863 685.744C302.987 685.744 303.851 687.184 303.851 689.236H297.407ZM310.714 691.072C310.714 696.976 314.638 700.432 319.75 700.432C321.874 700.432 324.25 699.676 326.086 698.416L324.322 695.212C323.026 696.004 321.802 696.4 320.47 696.4C318.094 696.4 316.294 695.212 315.826 692.512H326.518C326.626 692.08 326.734 691.216 326.734 690.28C326.734 685.42 324.214 681.712 319.138 681.712C314.854 681.712 310.714 685.276 310.714 691.072ZM315.79 689.236C316.15 686.86 317.59 685.744 319.246 685.744C321.37 685.744 322.234 687.184 322.234 689.236H315.79ZM330.141 700H335.289V695.608L337.557 693.052L341.589 700H347.313L340.581 689.488L346.845 682.144H341.085L335.433 689.236H335.289V674.764H330.141V700ZM355.772 697.048C358.148 699.28 361.388 700.432 364.448 700.432C370.064 700.432 373.304 697.048 373.304 693.16C373.304 689.848 371.504 687.94 368.66 686.788L365.636 685.564C363.62 684.736 362.072 684.232 362.072 682.792C362.072 681.46 363.224 680.668 365.06 680.668C366.932 680.668 368.372 681.352 369.92 682.54L372.62 679.192C370.604 677.176 367.76 676.096 365.06 676.096C360.164 676.096 356.708 679.192 356.708 683.08C356.708 686.5 359.012 688.516 361.424 689.488L364.484 690.784C366.536 691.648 367.868 692.116 367.868 693.592C367.868 694.996 366.788 695.86 364.592 695.86C362.648 695.86 360.488 694.852 358.796 693.412L355.772 697.048ZM381.718 698.56C382.978 699.748 384.418 700.432 385.966 700.432C389.818 700.432 393.49 696.904 393.49 690.784C393.49 685.276 390.826 681.712 386.506 681.712C384.634 681.712 382.834 682.648 381.43 683.908H381.286L380.926 682.144H376.606V706.624H381.898V701.404L381.718 698.56ZM381.898 694.96V687.652C382.942 686.536 383.878 686.032 384.958 686.032C387.082 686.032 388.054 687.652 388.054 690.856C388.054 694.528 386.578 696.112 384.742 696.112C383.842 696.112 382.834 695.824 381.898 694.96ZM396.992 700H402.284V689.632C403.22 687.22 404.876 686.356 406.208 686.356C406.964 686.356 407.504 686.464 408.152 686.644L409.016 682.072C408.512 681.856 407.9 681.712 406.892 681.712C405.056 681.712 403.112 682.864 401.816 685.276H401.672L401.312 682.144H396.992V700ZM413.714 679.516C415.514 679.516 416.774 678.364 416.774 676.744C416.774 675.124 415.514 674.008 413.714 674.008C411.95 674.008 410.654 675.124 410.654 676.744C410.654 678.364 411.95 679.516 413.714 679.516ZM411.086 700H416.378V682.144H411.086V700ZM420.785 700H426.077V687.94C427.229 686.824 428.057 686.212 429.389 686.212C430.901 686.212 431.585 687.004 431.585 689.596V700H436.877V688.912C436.877 684.448 435.221 681.712 431.333 681.712C428.921 681.712 427.121 682.972 425.609 684.412H425.465L425.105 682.144H420.785V700ZM441.857 693.52C441.857 697.66 443.585 700.432 448.013 700.432C449.741 700.432 451.037 700.072 451.973 699.784L451.145 695.932C450.677 696.112 450.029 696.292 449.453 696.292C448.049 696.292 447.149 695.464 447.149 693.448V686.284H451.433V682.144H447.149V677.392H442.757L442.145 682.144L439.409 682.36V686.284H441.857V693.52ZM453.084 697.948C454.884 699.424 457.584 700.432 459.924 700.432C464.712 700.432 467.268 697.912 467.268 694.672C467.268 691.396 464.712 690.136 462.444 689.308C460.608 688.624 458.952 688.192 458.952 687.04C458.952 686.14 459.6 685.636 460.968 685.636C462.228 685.636 463.452 686.212 464.748 687.148L467.124 683.98C465.576 682.828 463.56 681.712 460.824 681.712C456.684 681.712 453.984 683.98 453.984 687.292C453.984 690.244 456.54 691.72 458.7 692.548C460.536 693.268 462.336 693.808 462.336 694.996C462.336 695.932 461.652 696.508 460.068 696.508C458.556 696.508 457.08 695.86 455.46 694.636L453.084 697.948Z" fill="#2B2B2B"/>
</svg>
