<svg width="1920" height="1080" viewBox="0 0 1920 1080" fill="none" xmlns="http://www.w3.org/2000/svg">
<rect width="1920" height="1080" fill="white"/>
<path d="M373.568 407H379.501V396.496C379.501 393.683 379.018 389.508 378.71 386.739H378.886L381.172 393.375L385.567 404.495H388.16L392.555 393.375L394.928 386.739H395.104C394.796 389.508 394.269 393.683 394.269 396.496V407H400.29V378.345H393.478L388.819 391.222L387.105 396.232H386.929L385.215 391.222L380.424 378.345H373.568V407ZM406.296 407H416.932C423.129 407 428.051 404.407 428.051 398.562C428.051 394.738 425.941 392.584 421.854 391.837V391.661C425.194 390.782 426.645 388.014 426.645 385.464C426.645 379.971 422.03 378.345 416.097 378.345H406.296V407ZM412.756 389.903V383.355H415.833C418.865 383.355 420.316 384.234 420.316 386.387C420.316 388.541 418.953 389.903 415.789 389.903H412.756ZM412.756 401.99V394.474H416.404C419.964 394.474 421.722 395.573 421.722 398.078C421.722 400.671 419.92 401.99 416.404 401.99H412.756ZM443.803 407.527C451.538 407.527 456.812 401.902 456.812 392.54C456.812 383.223 451.538 377.817 443.803 377.817C436.068 377.817 430.794 383.179 430.794 392.54C430.794 401.902 436.068 407.527 443.803 407.527ZM443.803 401.946C439.891 401.946 437.43 398.298 437.43 392.54C437.43 386.827 439.891 383.399 443.803 383.399C447.714 383.399 450.176 386.827 450.176 392.54C450.176 398.298 447.714 401.946 443.803 401.946Z" fill="#2B2B2B"/>
<path d="M376.328 453H378.68V436.592H384.224V434.632H370.784V436.592H376.328V453ZM387.308 453H389.604V443.144C390.976 441.772 391.928 441.044 393.328 441.044C395.12 441.044 395.904 442.136 395.904 444.684V453H398.2V444.376C398.2 440.904 396.912 439.056 394.056 439.056C392.18 439.056 390.808 440.064 389.52 441.296L389.604 438.496V433.064H387.308V453ZM401.53 446.224C401.53 450.676 404.414 453.336 408.054 453.336C409.902 453.336 411.358 452.692 412.534 451.936L411.722 450.424C410.714 451.068 409.622 451.488 408.334 451.488C405.73 451.488 403.966 449.64 403.798 446.7H412.982C413.038 446.364 413.066 445.916 413.066 445.44C413.066 441.548 411.106 439.056 407.634 439.056C404.526 439.056 401.53 441.772 401.53 446.224ZM403.77 445.188C404.05 442.444 405.786 440.876 407.69 440.876C409.818 440.876 411.05 442.416 411.05 445.188H403.77ZM422.313 453H424.637V445.72H427.941C431.973 445.72 434.717 443.9 434.717 440.036C434.717 436.004 432.001 434.632 427.941 434.632H422.313V453ZM424.637 443.816V436.508H427.661C430.825 436.508 432.393 437.376 432.393 440.036C432.393 442.64 430.853 443.816 427.661 443.816H424.637ZM438.222 453H440.518V444.264C441.442 441.968 442.814 441.128 443.962 441.128C444.522 441.128 444.83 441.212 445.278 441.352L445.726 439.336C445.278 439.14 444.858 439.056 444.27 439.056C442.73 439.056 441.33 440.148 440.406 441.856H440.322L440.126 439.392H438.222V453ZM446.546 449.472C446.546 451.908 448.254 453.336 450.55 453.336C452.23 453.336 453.742 452.44 455.058 451.376H455.114L455.31 453H457.214V444.656C457.214 441.268 455.814 439.056 452.482 439.056C450.298 439.056 448.394 440.008 447.134 440.82L448.058 442.416C449.122 441.688 450.522 440.96 452.118 440.96C454.33 440.96 454.918 442.64 454.918 444.376C449.122 445.02 446.546 446.504 446.546 449.472ZM448.814 449.304C448.814 447.568 450.354 446.448 454.918 445.888V449.668C453.602 450.844 452.51 451.488 451.194 451.488C449.85 451.488 448.814 450.844 448.814 449.304ZM460.538 446.224C460.538 450.732 463.31 453.336 466.922 453.336C468.546 453.336 470.114 452.664 471.346 451.572L470.31 450.06C469.498 450.788 468.406 451.432 467.118 451.432C464.626 451.432 462.918 449.332 462.918 446.224C462.918 443.088 464.71 440.96 467.174 440.96C468.266 440.96 469.106 441.464 469.918 442.164L471.066 440.68C470.142 439.812 468.882 439.056 467.09 439.056C463.59 439.056 460.538 441.66 460.538 446.224ZM474.708 448.8C474.708 451.488 475.688 453.336 478.6 453.336C479.44 453.336 480.364 453.084 481.12 452.832L480.672 451.096C480.224 451.264 479.608 451.46 479.132 451.46C477.564 451.46 477.032 450.508 477.032 448.828V441.268H480.7V439.392H477.032V435.584H475.1L474.82 439.392L472.692 439.532V441.268H474.708V448.8ZM484.952 436.592C485.848 436.592 486.548 435.976 486.548 435.108C486.548 434.212 485.848 433.624 484.952 433.624C484.056 433.624 483.356 434.212 483.356 435.108C483.356 435.976 484.056 436.592 484.952 436.592ZM483.776 453H486.072V439.392H483.776V453ZM489.659 446.224C489.659 450.732 492.431 453.336 496.043 453.336C497.667 453.336 499.235 452.664 500.467 451.572L499.431 450.06C498.619 450.788 497.527 451.432 496.239 451.432C493.747 451.432 492.039 449.332 492.039 446.224C492.039 443.088 493.831 440.96 496.295 440.96C497.387 440.96 498.227 441.464 499.039 442.164L500.187 440.68C499.263 439.812 498.003 439.056 496.211 439.056C492.711 439.056 489.659 441.66 489.659 446.224ZM501.827 446.224C501.827 450.676 504.711 453.336 508.351 453.336C510.199 453.336 511.655 452.692 512.831 451.936L512.019 450.424C511.011 451.068 509.919 451.488 508.631 451.488C506.027 451.488 504.263 449.64 504.095 446.7H513.279C513.335 446.364 513.363 445.916 513.363 445.44C513.363 441.548 511.403 439.056 507.931 439.056C504.823 439.056 501.827 441.772 501.827 446.224ZM504.067 445.188C504.347 442.444 506.083 440.876 507.987 440.876C510.115 440.876 511.347 442.416 511.347 445.188H504.067ZM521.378 446.224C521.378 450.732 524.346 453.336 527.678 453.336C531.01 453.336 533.978 450.732 533.978 446.224C533.978 441.66 531.01 439.056 527.678 439.056C524.346 439.056 521.378 441.66 521.378 446.224ZM523.758 446.224C523.758 443.088 525.354 440.96 527.678 440.96C530.03 440.96 531.598 443.088 531.598 446.224C531.598 449.332 530.03 451.432 527.678 451.432C525.354 451.432 523.758 449.332 523.758 446.224ZM544.198 433.176C543.582 432.924 542.77 432.728 541.93 432.728C539.214 432.728 537.954 434.464 537.954 437.236V439.392L536.106 439.532V441.268H537.954V453H540.25V441.268H543.134V439.392H540.25V437.236C540.25 435.5 540.866 434.604 542.154 434.604C542.658 434.604 543.19 434.716 543.694 434.94L544.198 433.176ZM372.52 488H374.676V477.892C374.676 476.268 374.48 474.084 374.368 472.46H374.48L375.936 476.548L379.492 486.152H380.808L384.336 476.548L385.82 472.46H385.932C385.792 474.084 385.624 476.268 385.624 477.892V488H387.836V469.632H385.092L381.564 479.488L380.276 483.24H380.164L378.82 479.488L375.264 469.632H372.52V488ZM391.968 484.472C391.968 486.908 393.676 488.336 395.972 488.336C397.652 488.336 399.164 487.44 400.48 486.376H400.536L400.732 488H402.636V479.656C402.636 476.268 401.236 474.056 397.904 474.056C395.72 474.056 393.816 475.008 392.556 475.82L393.48 477.416C394.544 476.688 395.944 475.96 397.54 475.96C399.752 475.96 400.34 477.64 400.34 479.376C394.544 480.02 391.968 481.504 391.968 484.472ZM394.236 484.304C394.236 482.568 395.776 481.448 400.34 480.888V484.668C399.024 485.844 397.932 486.488 396.616 486.488C395.272 486.488 394.236 485.844 394.236 484.304ZM406.968 488H409.264V478.144C410.636 476.772 411.588 476.044 412.988 476.044C414.78 476.044 415.564 477.136 415.564 479.684V488H417.86V479.376C417.86 475.904 416.572 474.056 413.716 474.056C411.84 474.056 410.44 475.064 409.152 476.352H409.068L408.872 474.392H406.968V488ZM421.608 484.472C421.608 486.908 423.316 488.336 425.612 488.336C427.292 488.336 428.804 487.44 430.12 486.376H430.176L430.372 488H432.276V479.656C432.276 476.268 430.876 474.056 427.544 474.056C425.36 474.056 423.456 475.008 422.196 475.82L423.12 477.416C424.184 476.688 425.584 475.96 427.18 475.96C429.392 475.96 429.98 477.64 429.98 479.376C424.184 480.02 421.608 481.504 421.608 484.472ZM423.876 484.304C423.876 482.568 425.416 481.448 429.98 480.888V484.668C428.664 485.844 427.572 486.488 426.256 486.488C424.912 486.488 423.876 485.844 423.876 484.304ZM437.589 490.296C437.589 489.512 438.008 488.7 438.989 488C439.577 488.168 440.221 488.224 440.753 488.224H443.105C444.869 488.224 445.849 488.644 445.849 489.904C445.849 491.332 444.141 492.676 441.537 492.676C439.073 492.676 437.589 491.752 437.589 490.296ZM435.573 490.604C435.573 492.956 437.869 494.272 441.201 494.272C445.429 494.272 448.089 492.088 448.089 489.568C448.089 487.3 446.493 486.32 443.329 486.32H440.697C438.849 486.32 438.289 485.704 438.289 484.836C438.289 484.08 438.681 483.632 439.157 483.212C439.773 483.52 440.529 483.688 441.201 483.688C443.973 483.688 446.185 481.868 446.185 478.956C446.185 477.808 445.709 476.772 445.065 476.156H447.865V474.392H443.133C442.629 474.196 441.957 474.056 441.201 474.056C438.428 474.056 436.077 475.932 436.077 478.9C436.077 480.524 436.945 481.84 437.841 482.568V482.68C437.141 483.156 436.357 484.052 436.357 485.2C436.357 486.264 436.889 486.992 437.561 487.412V487.524C436.329 488.364 435.573 489.456 435.573 490.604ZM441.201 482.148C439.633 482.148 438.317 480.888 438.317 478.9C438.317 476.912 439.605 475.736 441.201 475.736C442.797 475.736 444.085 476.912 444.085 478.9C444.085 480.888 442.769 482.148 441.201 482.148ZM449.327 481.224C449.327 485.676 452.211 488.336 455.851 488.336C457.699 488.336 459.155 487.692 460.331 486.936L459.519 485.424C458.511 486.068 457.419 486.488 456.131 486.488C453.527 486.488 451.763 484.64 451.595 481.7H460.779C460.835 481.364 460.863 480.916 460.863 480.44C460.863 476.548 458.903 474.056 455.431 474.056C452.323 474.056 449.327 476.772 449.327 481.224ZM451.567 480.188C451.847 477.444 453.583 475.876 455.487 475.876C457.615 475.876 458.847 477.416 458.847 480.188H451.567ZM464.226 488H466.522V478.144C467.782 476.744 468.93 476.044 469.938 476.044C471.674 476.044 472.486 477.136 472.486 479.684V488H474.782V478.144C476.042 476.744 477.134 476.044 478.198 476.044C479.906 476.044 480.718 477.136 480.718 479.684V488H483.014V479.376C483.014 475.904 481.67 474.056 478.87 474.056C477.218 474.056 475.818 475.12 474.39 476.66C473.83 475.036 472.71 474.056 470.638 474.056C469.014 474.056 467.586 475.064 466.41 476.352H466.326L466.13 474.392H464.226V488ZM486.433 481.224C486.433 485.676 489.317 488.336 492.957 488.336C494.805 488.336 496.261 487.692 497.437 486.936L496.625 485.424C495.617 486.068 494.525 486.488 493.237 486.488C490.633 486.488 488.869 484.64 488.701 481.7H497.885C497.941 481.364 497.969 480.916 497.969 480.44C497.969 476.548 496.009 474.056 492.537 474.056C489.429 474.056 486.433 476.772 486.433 481.224ZM488.673 480.188C488.953 477.444 490.689 475.876 492.593 475.876C494.721 475.876 495.953 477.416 495.953 480.188H488.673ZM501.331 488H503.627V478.144C504.999 476.772 505.951 476.044 507.351 476.044C509.143 476.044 509.927 477.136 509.927 479.684V488H512.223V479.376C512.223 475.904 510.935 474.056 508.079 474.056C506.203 474.056 504.803 475.064 503.515 476.352H503.431L503.235 474.392H501.331V488ZM517.036 483.8C517.036 486.488 518.016 488.336 520.928 488.336C521.768 488.336 522.692 488.084 523.448 487.832L523 486.096C522.552 486.264 521.936 486.46 521.46 486.46C519.892 486.46 519.36 485.508 519.36 483.828V476.268H523.028V474.392H519.36V470.584H517.428L517.148 474.392L515.02 474.532V476.268H517.036V483.8ZM531.765 488H533.613L533.809 486.656H533.893C535.097 487.72 536.525 488.336 537.785 488.336C540.893 488.336 543.665 485.62 543.665 480.972C543.665 476.772 541.789 474.056 538.261 474.056C536.749 474.056 535.237 474.868 534.005 475.96L534.061 473.496V468.064H531.765V488ZM534.061 484.976V477.836C535.349 476.632 536.553 475.988 537.701 475.988C540.277 475.988 541.285 478.004 541.285 481C541.285 484.36 539.633 486.404 537.393 486.404C536.497 486.404 535.265 486.012 534.061 484.976ZM546.263 491.752L545.815 493.572C546.263 493.74 546.795 493.852 547.411 493.852C550.155 493.852 551.555 491.808 552.507 489.12L557.631 474.392H555.391L552.955 481.924C552.591 483.128 552.199 484.528 551.807 485.76H551.695C551.275 484.5 550.799 483.1 550.379 481.924L547.607 474.392H545.227L550.687 488.028L550.379 489.036C549.819 490.716 548.839 491.948 547.299 491.948C546.963 491.948 546.543 491.836 546.263 491.752ZM372.52 523H374.844V515.72H378.148C382.18 515.72 384.924 513.9 384.924 510.036C384.924 506.004 382.208 504.632 378.148 504.632H372.52V523ZM374.844 513.816V506.508H377.868C381.032 506.508 382.6 507.376 382.6 510.036C382.6 512.64 381.06 513.816 377.868 513.816H374.844ZM386.737 516.224C386.737 520.676 389.621 523.336 393.261 523.336C395.109 523.336 396.565 522.692 397.741 521.936L396.929 520.424C395.921 521.068 394.829 521.488 393.541 521.488C390.937 521.488 389.173 519.64 389.005 516.7H398.189C398.245 516.364 398.273 515.916 398.273 515.44C398.273 511.548 396.313 509.056 392.841 509.056C389.733 509.056 386.737 511.772 386.737 516.224ZM388.977 515.188C389.257 512.444 390.993 510.876 392.897 510.876C395.025 510.876 396.257 512.416 396.257 515.188H388.977ZM401.645 518.8C401.645 521.488 402.625 523.336 405.537 523.336C406.377 523.336 407.301 523.084 408.057 522.832L407.609 521.096C407.161 521.264 406.545 521.46 406.069 521.46C404.501 521.46 403.969 520.508 403.969 518.828V511.268H407.637V509.392H403.969V505.584H402.037L401.757 509.392L399.629 509.532V511.268H401.645V518.8ZM409.433 516.224C409.433 520.676 412.317 523.336 415.957 523.336C417.805 523.336 419.261 522.692 420.437 521.936L419.625 520.424C418.617 521.068 417.525 521.488 416.237 521.488C413.633 521.488 411.869 519.64 411.701 516.7H420.885C420.941 516.364 420.969 515.916 420.969 515.44C420.969 511.548 419.009 509.056 415.537 509.056C412.429 509.056 409.433 511.772 409.433 516.224ZM411.673 515.188C411.953 512.444 413.689 510.876 415.593 510.876C417.721 510.876 418.953 512.416 418.953 515.188H411.673ZM424.331 523H426.627V514.264C427.551 511.968 428.923 511.128 430.071 511.128C430.631 511.128 430.939 511.212 431.387 511.352L431.835 509.336C431.387 509.14 430.967 509.056 430.379 509.056C428.839 509.056 427.439 510.148 426.515 511.856H426.431L426.235 509.392H424.331V523ZM439.922 523H444.626C450.17 523 453.194 519.584 453.194 513.732C453.194 507.908 450.17 504.632 444.514 504.632H439.922V523ZM442.246 521.096V506.536H444.346C448.63 506.536 450.786 509.112 450.786 513.732C450.786 518.38 448.63 521.096 444.346 521.096H442.246ZM456.925 523H459.221V514.264C460.145 511.968 461.517 511.128 462.665 511.128C463.225 511.128 463.533 511.212 463.981 511.352L464.429 509.336C463.981 509.14 463.561 509.056 462.973 509.056C461.433 509.056 460.033 510.148 459.109 511.856H459.025L458.829 509.392H456.925V523ZM466.436 518.016C466.436 521.488 467.724 523.336 470.608 523.336C472.484 523.336 473.828 522.356 475.088 520.872H475.172L475.368 523H477.272V509.392H474.976V519.052C473.688 520.648 472.708 521.348 471.308 521.348C469.516 521.348 468.76 520.256 468.76 517.708V509.392H466.436V518.016ZM480.854 516.224C480.854 520.732 483.626 523.336 487.238 523.336C488.862 523.336 490.43 522.664 491.662 521.572L490.626 520.06C489.814 520.788 488.722 521.432 487.434 521.432C484.942 521.432 483.234 519.332 483.234 516.224C483.234 513.088 485.026 510.96 487.49 510.96C488.582 510.96 489.422 511.464 490.234 512.164L491.382 510.68C490.458 509.812 489.198 509.056 487.406 509.056C483.906 509.056 480.854 511.66 480.854 516.224ZM494.632 523H496.9V519.416L499.448 516.448L503.424 523H505.944L500.764 514.852L505.328 509.392H502.78L496.984 516.56H496.9V503.064H494.632V523ZM506.995 516.224C506.995 520.676 509.879 523.336 513.519 523.336C515.367 523.336 516.823 522.692 517.999 521.936L517.187 520.424C516.179 521.068 515.087 521.488 513.799 521.488C511.195 521.488 509.431 519.64 509.263 516.7H518.447C518.503 516.364 518.531 515.916 518.531 515.44C518.531 511.548 516.571 509.056 513.099 509.056C509.991 509.056 506.995 511.772 506.995 516.224ZM509.235 515.188C509.515 512.444 511.251 510.876 513.155 510.876C515.283 510.876 516.515 512.416 516.515 515.188H509.235ZM521.894 523H524.19V514.264C525.114 511.968 526.486 511.128 527.634 511.128C528.194 511.128 528.502 511.212 528.95 511.352L529.398 509.336C528.95 509.14 528.53 509.056 527.942 509.056C526.402 509.056 525.002 510.148 524.078 511.856H523.994L523.798 509.392H521.894V523Z" fill="#2B2B2B"/>
<path d="M1007.83 511H1014.29V503.309L1017.63 498.914L1024.62 511H1031.7L1021.46 493.772L1030.11 482.345H1022.99L1014.47 494.079H1014.29V482.345H1007.83V511ZM1034.08 511H1040.54V501.287H1044.54C1050.6 501.287 1055.75 498.298 1055.75 491.574C1055.75 484.63 1050.74 482.345 1044.54 482.345H1034.08V511ZM1040.54 496.145V487.487H1044.14C1047.57 487.487 1049.42 488.585 1049.42 491.574C1049.42 494.563 1047.7 496.145 1044.14 496.145H1040.54ZM1059.98 511H1066.44V482.345H1059.98V511ZM1069.99 508.495C1072.19 510.297 1075.48 511.527 1078.34 511.527C1084.19 511.527 1087.31 508.451 1087.31 504.495C1087.31 500.496 1084.19 498.958 1081.42 497.947C1079.18 497.112 1077.15 496.584 1077.15 495.178C1077.15 494.079 1077.94 493.464 1079.61 493.464C1081.15 493.464 1082.65 494.167 1084.23 495.31L1087.13 491.442C1085.24 490.036 1082.78 488.673 1079.44 488.673C1074.38 488.673 1071.09 491.442 1071.09 495.486C1071.09 499.09 1074.21 500.891 1076.85 501.902C1079.09 502.781 1081.28 503.441 1081.28 504.891C1081.28 506.034 1080.45 506.737 1078.52 506.737C1076.67 506.737 1074.87 505.946 1072.89 504.451L1069.99 508.495Z" fill="#2B2B2B"/>
<path d="M1006.52 557H1008.84V551.176L1012.01 547.452L1017.5 557H1020.1L1013.46 545.632L1019.2 538.632H1016.57L1008.93 547.844H1008.84V538.632H1006.52V557ZM1021.31 550.224C1021.31 554.676 1024.2 557.336 1027.84 557.336C1029.68 557.336 1031.14 556.692 1032.32 555.936L1031.5 554.424C1030.5 555.068 1029.4 555.488 1028.12 555.488C1025.51 555.488 1023.75 553.64 1023.58 550.7H1032.76C1032.82 550.364 1032.85 549.916 1032.85 549.44C1032.85 545.548 1030.89 543.056 1027.42 543.056C1024.31 543.056 1021.31 545.772 1021.31 550.224ZM1023.55 549.188C1023.83 546.444 1025.57 544.876 1027.47 544.876C1029.6 544.876 1030.83 546.416 1030.83 549.188H1023.55ZM1035.42 560.752L1034.97 562.572C1035.42 562.74 1035.95 562.852 1036.57 562.852C1039.31 562.852 1040.71 560.808 1041.67 558.12L1046.79 543.392H1044.55L1042.11 550.924C1041.75 552.128 1041.36 553.528 1040.97 554.76H1040.85C1040.43 553.5 1039.96 552.1 1039.54 550.924L1036.77 543.392H1034.39L1039.85 557.028L1039.54 558.036C1038.98 559.716 1038 560.948 1036.46 560.948C1036.12 560.948 1035.7 560.836 1035.42 560.752ZM1006.52 592H1008.84V584.72H1012.15C1016.18 584.72 1018.92 582.9 1018.92 579.036C1018.92 575.004 1016.21 573.632 1012.15 573.632H1006.52V592ZM1008.84 582.816V575.508H1011.87C1015.03 575.508 1016.6 576.376 1016.6 579.036C1016.6 581.64 1015.06 582.816 1011.87 582.816H1008.84ZM1020.74 585.224C1020.74 589.676 1023.62 592.336 1027.26 592.336C1029.11 592.336 1030.57 591.692 1031.74 590.936L1030.93 589.424C1029.92 590.068 1028.83 590.488 1027.54 590.488C1024.94 590.488 1023.17 588.64 1023.01 585.7H1032.19C1032.25 585.364 1032.27 584.916 1032.27 584.44C1032.27 580.548 1030.31 578.056 1026.84 578.056C1023.73 578.056 1020.74 580.772 1020.74 585.224ZM1022.98 584.188C1023.26 581.444 1024.99 579.876 1026.9 579.876C1029.03 579.876 1030.26 581.416 1030.26 584.188H1022.98ZM1035.64 592H1037.93V583.264C1038.86 580.968 1040.23 580.128 1041.38 580.128C1041.94 580.128 1042.24 580.212 1042.69 580.352L1043.14 578.336C1042.69 578.14 1042.27 578.056 1041.68 578.056C1040.14 578.056 1038.74 579.148 1037.82 580.856H1037.74L1037.54 578.392H1035.64V592ZM1051.98 572.176C1051.36 571.924 1050.55 571.728 1049.71 571.728C1046.99 571.728 1045.73 573.464 1045.73 576.236V578.392L1043.89 578.532V580.268H1045.73V592H1048.03V580.268H1050.91V578.392H1048.03V576.236C1048.03 574.5 1048.65 573.604 1049.93 573.604C1050.44 573.604 1050.97 573.716 1051.47 573.94L1051.98 572.176ZM1052.24 585.224C1052.24 589.732 1055.21 592.336 1058.54 592.336C1061.87 592.336 1064.84 589.732 1064.84 585.224C1064.84 580.66 1061.87 578.056 1058.54 578.056C1055.21 578.056 1052.24 580.66 1052.24 585.224ZM1054.62 585.224C1054.62 582.088 1056.21 579.96 1058.54 579.96C1060.89 579.96 1062.46 582.088 1062.46 585.224C1062.46 588.332 1060.89 590.432 1058.54 590.432C1056.21 590.432 1054.62 588.332 1054.62 585.224ZM1068.42 592H1070.72V583.264C1071.64 580.968 1073.01 580.128 1074.16 580.128C1074.72 580.128 1075.03 580.212 1075.48 580.352L1075.93 578.336C1075.48 578.14 1075.06 578.056 1074.47 578.056C1072.93 578.056 1071.53 579.148 1070.61 580.856H1070.52L1070.33 578.392H1068.42V592ZM1078.13 592H1080.42V582.144C1081.68 580.744 1082.83 580.044 1083.84 580.044C1085.58 580.044 1086.39 581.136 1086.39 583.684V592H1088.68V582.144C1089.94 580.744 1091.04 580.044 1092.1 580.044C1093.81 580.044 1094.62 581.136 1094.62 583.684V592H1096.92V583.376C1096.92 579.904 1095.57 578.056 1092.77 578.056C1091.12 578.056 1089.72 579.12 1088.29 580.66C1087.73 579.036 1086.61 578.056 1084.54 578.056C1082.92 578.056 1081.49 579.064 1080.31 580.352H1080.23L1080.03 578.392H1078.13V592ZM1100.67 588.472C1100.67 590.908 1102.38 592.336 1104.67 592.336C1106.35 592.336 1107.87 591.44 1109.18 590.376H1109.24L1109.43 592H1111.34V583.656C1111.34 580.268 1109.94 578.056 1106.61 578.056C1104.42 578.056 1102.52 579.008 1101.26 579.82L1102.18 581.416C1103.25 580.688 1104.65 579.96 1106.24 579.96C1108.45 579.96 1109.04 581.64 1109.04 583.376C1103.25 584.02 1100.67 585.504 1100.67 588.472ZM1102.94 588.304C1102.94 586.568 1104.48 585.448 1109.04 584.888V588.668C1107.73 589.844 1106.63 590.488 1105.32 590.488C1103.97 590.488 1102.94 589.844 1102.94 588.304ZM1115.67 592H1117.97V582.144C1119.34 580.772 1120.29 580.044 1121.69 580.044C1123.48 580.044 1124.27 581.136 1124.27 583.684V592H1126.56V583.376C1126.56 579.904 1125.28 578.056 1122.42 578.056C1120.54 578.056 1119.14 579.064 1117.86 580.352H1117.77L1117.58 578.392H1115.67V592ZM1129.98 585.224C1129.98 589.732 1132.75 592.336 1136.36 592.336C1137.98 592.336 1139.55 591.664 1140.78 590.572L1139.75 589.06C1138.94 589.788 1137.84 590.432 1136.56 590.432C1134.06 590.432 1132.36 588.332 1132.36 585.224C1132.36 582.088 1134.15 579.96 1136.61 579.96C1137.7 579.96 1138.54 580.464 1139.36 581.164L1140.5 579.68C1139.58 578.812 1138.32 578.056 1136.53 578.056C1133.03 578.056 1129.98 580.66 1129.98 585.224ZM1142.14 585.224C1142.14 589.676 1145.03 592.336 1148.67 592.336C1150.52 592.336 1151.97 591.692 1153.15 590.936L1152.34 589.424C1151.33 590.068 1150.24 590.488 1148.95 590.488C1146.34 590.488 1144.58 588.64 1144.41 585.7H1153.6C1153.65 585.364 1153.68 584.916 1153.68 584.44C1153.68 580.548 1151.72 578.056 1148.25 578.056C1145.14 578.056 1142.14 580.772 1142.14 585.224ZM1144.38 584.188C1144.66 581.444 1146.4 579.876 1148.3 579.876C1150.43 579.876 1151.66 581.416 1151.66 584.188H1144.38ZM1006.52 627H1008.84V608.632H1006.52V627ZM1013.65 627H1015.95V617.144C1017.32 615.772 1018.27 615.044 1019.67 615.044C1021.46 615.044 1022.25 616.136 1022.25 618.684V627H1024.54V618.376C1024.54 614.904 1023.26 613.056 1020.4 613.056C1018.52 613.056 1017.12 614.064 1015.84 615.352H1015.75L1015.56 613.392H1013.65V627ZM1027.98 620.224C1027.98 624.76 1030.2 627.336 1033.61 627.336C1035.21 627.336 1036.66 626.44 1037.73 625.404H1037.81L1038.01 627H1039.91V607.064H1037.59V612.3L1037.7 614.624C1036.5 613.644 1035.46 613.056 1033.89 613.056C1030.78 613.056 1027.98 615.8 1027.98 620.224ZM1030.36 620.196C1030.36 617.088 1032.1 614.988 1034.28 614.988C1035.4 614.988 1036.44 615.38 1037.59 616.416V623.528C1036.47 624.788 1035.38 625.404 1034.12 625.404C1031.74 625.404 1030.36 623.444 1030.36 620.196ZM1045.67 610.592C1046.57 610.592 1047.27 609.976 1047.27 609.108C1047.27 608.212 1046.57 607.624 1045.67 607.624C1044.78 607.624 1044.08 608.212 1044.08 609.108C1044.08 609.976 1044.78 610.592 1045.67 610.592ZM1044.5 627H1046.79V613.392H1044.5V627ZM1050.38 620.224C1050.38 624.732 1053.15 627.336 1056.76 627.336C1058.39 627.336 1059.95 626.664 1061.19 625.572L1060.15 624.06C1059.34 624.788 1058.25 625.432 1056.96 625.432C1054.47 625.432 1052.76 623.332 1052.76 620.224C1052.76 617.088 1054.55 614.96 1057.01 614.96C1058.11 614.96 1058.95 615.464 1059.76 616.164L1060.91 614.68C1059.98 613.812 1058.72 613.056 1056.93 613.056C1053.43 613.056 1050.38 615.66 1050.38 620.224ZM1063.21 623.472C1063.21 625.908 1064.92 627.336 1067.21 627.336C1068.89 627.336 1070.41 626.44 1071.72 625.376H1071.78L1071.97 627H1073.88V618.656C1073.88 615.268 1072.48 613.056 1069.15 613.056C1066.96 613.056 1065.06 614.008 1063.8 614.82L1064.72 616.416C1065.79 615.688 1067.19 614.96 1068.78 614.96C1070.99 614.96 1071.58 616.64 1071.58 618.376C1065.79 619.02 1063.21 620.504 1063.21 623.472ZM1065.48 623.304C1065.48 621.568 1067.02 620.448 1071.58 619.888V623.668C1070.27 624.844 1069.17 625.488 1067.86 625.488C1066.51 625.488 1065.48 624.844 1065.48 623.304ZM1078.6 622.8C1078.6 625.488 1079.58 627.336 1082.49 627.336C1083.33 627.336 1084.26 627.084 1085.01 626.832L1084.57 625.096C1084.12 625.264 1083.5 625.46 1083.03 625.46C1081.46 625.46 1080.93 624.508 1080.93 622.828V615.268H1084.59V613.392H1080.93V609.584H1078.99L1078.71 613.392L1076.59 613.532V615.268H1078.6V622.8ZM1086.39 620.224C1086.39 624.732 1089.36 627.336 1092.69 627.336C1096.02 627.336 1098.99 624.732 1098.99 620.224C1098.99 615.66 1096.02 613.056 1092.69 613.056C1089.36 613.056 1086.39 615.66 1086.39 620.224ZM1088.77 620.224C1088.77 617.088 1090.37 614.96 1092.69 614.96C1095.04 614.96 1096.61 617.088 1096.61 620.224C1096.61 623.332 1095.04 625.432 1092.69 625.432C1090.37 625.432 1088.77 623.332 1088.77 620.224ZM1102.57 627H1104.87V618.264C1105.79 615.968 1107.17 615.128 1108.31 615.128C1108.87 615.128 1109.18 615.212 1109.63 615.352L1110.08 613.336C1109.63 613.14 1109.21 613.056 1108.62 613.056C1107.08 613.056 1105.68 614.148 1104.76 615.856H1104.67L1104.48 613.392H1102.57V627ZM1110.49 625.46C1111.78 626.524 1113.63 627.336 1115.56 627.336C1118.78 627.336 1120.55 625.488 1120.55 623.276C1120.55 620.7 1118.36 619.888 1116.4 619.16C1114.86 618.572 1113.38 618.096 1113.38 616.808C1113.38 615.772 1114.16 614.848 1115.87 614.848C1117.07 614.848 1118.05 615.352 1118.98 616.052L1120.07 614.596C1119.03 613.756 1117.55 613.056 1115.84 613.056C1112.9 613.056 1111.17 614.736 1111.17 616.92C1111.17 619.216 1113.29 620.14 1115.23 620.84C1116.71 621.4 1118.33 622.016 1118.33 623.416C1118.33 624.592 1117.44 625.544 1115.65 625.544C1114.02 625.544 1112.82 624.872 1111.64 623.92L1110.49 625.46Z" fill="#2B2B2B"/>
<path d="M733.781 403.396C736.682 406.121 740.637 407.527 744.373 407.527C751.229 407.527 755.185 403.396 755.185 398.649C755.185 394.606 752.987 392.277 749.515 390.87L745.824 389.376C743.362 388.365 741.472 387.75 741.472 385.992C741.472 384.366 742.879 383.399 745.12 383.399C747.406 383.399 749.164 384.234 751.054 385.684L754.35 381.597C751.889 379.136 748.417 377.817 745.12 377.817C739.143 377.817 734.924 381.597 734.924 386.343C734.924 390.519 737.737 392.98 740.681 394.167L744.417 395.749C746.922 396.804 748.548 397.375 748.548 399.177C748.548 400.891 747.23 401.946 744.549 401.946C742.176 401.946 739.539 400.715 737.473 398.957L733.781 403.396ZM758.595 403.484C758.595 405.769 760.265 407.527 762.507 407.527C764.748 407.527 766.418 405.769 766.418 403.484C766.418 401.155 764.748 399.397 762.507 399.397C760.265 399.397 758.595 401.155 758.595 403.484ZM771.725 407H777.658V396.496C777.658 393.683 777.175 389.508 776.867 386.739H777.043L779.328 393.375L783.723 404.495H786.316L790.711 393.375L793.085 386.739H793.26C792.953 389.508 792.425 393.683 792.425 396.496V407H798.447V378.345H791.634L786.976 391.222L785.262 396.232H785.086L783.372 391.222L778.581 378.345H771.725V407ZM803.749 403.484C803.749 405.769 805.419 407.527 807.661 407.527C809.902 407.527 811.572 405.769 811.572 403.484C811.572 401.155 809.902 399.397 807.661 399.397C805.419 399.397 803.749 401.155 803.749 403.484ZM822.9 395.133L823.603 392.496C824.394 389.64 825.142 386.3 825.845 383.267H826.021C826.768 386.256 827.559 389.64 828.35 392.496L829.009 395.133H822.9ZM832.086 407H838.942L829.976 378.345H822.197L813.231 407H819.824L821.582 400.188H830.328L832.086 407ZM840.62 403.484C840.62 405.769 842.29 407.527 844.531 407.527C846.773 407.527 848.443 405.769 848.443 403.484C848.443 401.155 846.773 399.397 844.531 399.397C842.29 399.397 840.62 401.155 840.62 403.484ZM860.21 383.487H863.55C866.934 383.487 868.78 384.454 868.78 387.266C868.78 390.079 866.934 391.53 863.55 391.53H860.21V383.487ZM876.515 407L870.011 395.529C873.087 394.167 875.109 391.486 875.109 387.266C875.109 380.454 870.143 378.345 864.078 378.345H853.749V407H860.21V396.672H863.77L869.264 407H876.515ZM879.379 403.484C879.379 405.769 881.049 407.527 883.29 407.527C885.532 407.527 887.202 405.769 887.202 403.484C887.202 401.155 885.532 399.397 883.29 399.397C881.049 399.397 879.379 401.155 879.379 403.484ZM892.982 407H899.487V383.794H907.354V378.345H885.115V383.794H892.982V407ZM905.262 403.484C905.262 405.769 906.932 407.527 909.173 407.527C911.415 407.527 913.085 405.769 913.085 403.484C913.085 401.155 911.415 399.397 909.173 399.397C906.932 399.397 905.262 401.155 905.262 403.484Z" fill="#2B2B2B"/>
<path d="M733.456 443.816C733.456 449.808 736.9 453.336 741.716 453.336C744.18 453.336 746.196 452.44 747.4 451.208V443.48H741.38V445.412H745.272V450.2C744.544 450.872 743.284 451.292 741.968 451.292C738.048 451.292 735.864 448.38 735.864 443.76C735.864 439.196 738.244 436.34 741.94 436.34C743.788 436.34 744.936 437.068 745.86 438.048L747.176 436.564C746.112 435.444 744.432 434.296 741.912 434.296C737.012 434.296 733.456 437.908 733.456 443.816ZM750.569 446.224C750.569 450.676 753.453 453.336 757.093 453.336C758.941 453.336 760.397 452.692 761.573 451.936L760.761 450.424C759.753 451.068 758.661 451.488 757.373 451.488C754.769 451.488 753.005 449.64 752.837 446.7H762.021C762.077 446.364 762.105 445.916 762.105 445.44C762.105 441.548 760.145 439.056 756.673 439.056C753.565 439.056 750.569 441.772 750.569 446.224ZM752.809 445.188C753.089 442.444 754.825 440.876 756.729 440.876C758.857 440.876 760.089 442.416 760.089 445.188H752.809ZM764.46 446.224C764.46 450.732 767.428 453.336 770.76 453.336C774.092 453.336 777.06 450.732 777.06 446.224C777.06 441.66 774.092 439.056 770.76 439.056C767.428 439.056 764.46 441.66 764.46 446.224ZM766.84 446.224C766.84 443.088 768.436 440.96 770.76 440.96C773.112 440.96 774.68 443.088 774.68 446.224C774.68 449.332 773.112 451.432 770.76 451.432C768.436 451.432 766.84 449.332 766.84 446.224ZM780.644 453H782.94V444.264C783.864 441.968 785.236 441.128 786.384 441.128C786.944 441.128 787.252 441.212 787.7 441.352L788.148 439.336C787.7 439.14 787.28 439.056 786.692 439.056C785.152 439.056 783.752 440.148 782.828 441.856H782.744L782.548 439.392H780.644V453ZM791.057 455.296C791.057 454.512 791.477 453.7 792.457 453C793.045 453.168 793.689 453.224 794.221 453.224H796.573C798.337 453.224 799.317 453.644 799.317 454.904C799.317 456.332 797.609 457.676 795.005 457.676C792.541 457.676 791.057 456.752 791.057 455.296ZM789.041 455.604C789.041 457.956 791.337 459.272 794.669 459.272C798.897 459.272 801.557 457.088 801.557 454.568C801.557 452.3 799.961 451.32 796.797 451.32H794.165C792.317 451.32 791.757 450.704 791.757 449.836C791.757 449.08 792.149 448.632 792.625 448.212C793.241 448.52 793.997 448.688 794.669 448.688C797.441 448.688 799.653 446.868 799.653 443.956C799.653 442.808 799.177 441.772 798.533 441.156H801.333V439.392H796.601C796.097 439.196 795.425 439.056 794.669 439.056C791.897 439.056 789.545 440.932 789.545 443.9C789.545 445.524 790.413 446.84 791.309 447.568V447.68C790.609 448.156 789.825 449.052 789.825 450.2C789.825 451.264 790.357 451.992 791.029 452.412V452.524C789.797 453.364 789.041 454.456 789.041 455.604ZM794.669 447.148C793.101 447.148 791.785 445.888 791.785 443.9C791.785 441.912 793.073 440.736 794.669 440.736C796.265 440.736 797.553 441.912 797.553 443.9C797.553 445.888 796.237 447.148 794.669 447.148ZM802.796 446.224C802.796 450.676 805.68 453.336 809.32 453.336C811.168 453.336 812.624 452.692 813.8 451.936L812.988 450.424C811.98 451.068 810.888 451.488 809.6 451.488C806.996 451.488 805.232 449.64 805.064 446.7H814.248C814.304 446.364 814.332 445.916 814.332 445.44C814.332 441.548 812.372 439.056 808.9 439.056C805.792 439.056 802.796 441.772 802.796 446.224ZM805.036 445.188C805.316 442.444 807.052 440.876 808.956 440.876C811.084 440.876 812.316 442.416 812.316 445.188H805.036ZM823.579 453H828.283C833.827 453 836.851 449.584 836.851 443.732C836.851 437.908 833.827 434.632 828.171 434.632H823.579V453ZM825.903 451.096V436.536H828.003C832.287 436.536 834.443 439.112 834.443 443.732C834.443 448.38 832.287 451.096 828.003 451.096H825.903ZM839.573 446.224C839.573 450.732 842.541 453.336 845.873 453.336C849.205 453.336 852.173 450.732 852.173 446.224C852.173 441.66 849.205 439.056 845.873 439.056C842.541 439.056 839.573 441.66 839.573 446.224ZM841.953 446.224C841.953 443.088 843.549 440.96 845.873 440.96C848.225 440.96 849.793 443.088 849.793 446.224C849.793 449.332 848.225 451.432 845.873 451.432C843.549 451.432 841.953 449.332 841.953 446.224ZM855.757 453H858.053V444.264C858.977 441.968 860.349 441.128 861.497 441.128C862.057 441.128 862.365 441.212 862.813 441.352L863.261 439.336C862.813 439.14 862.393 439.056 861.805 439.056C860.265 439.056 858.865 440.148 857.941 441.856H857.857L857.661 439.392H855.757V453ZM864.081 449.472C864.081 451.908 865.789 453.336 868.085 453.336C869.765 453.336 871.277 452.44 872.593 451.376H872.649L872.845 453H874.749V444.656C874.749 441.268 873.349 439.056 870.017 439.056C867.833 439.056 865.929 440.008 864.669 440.82L865.593 442.416C866.657 441.688 868.057 440.96 869.653 440.96C871.865 440.96 872.453 442.64 872.453 444.376C866.657 445.02 864.081 446.504 864.081 449.472ZM866.349 449.304C866.349 447.568 867.889 446.448 872.453 445.888V449.668C871.137 450.844 870.045 451.488 868.729 451.488C867.385 451.488 866.349 450.844 866.349 449.304ZM879.081 453H881.377V443.144C882.749 441.772 883.701 441.044 885.101 441.044C886.893 441.044 887.677 442.136 887.677 444.684V453H889.973V444.376C889.973 440.904 888.685 439.056 885.829 439.056C883.953 439.056 882.553 440.064 881.265 441.352H881.181L880.985 439.392H879.081V453ZM894.506 440.932C896.438 439.812 897.502 438.216 897.502 435.976C897.502 434.352 896.83 433.428 895.738 433.428C894.87 433.428 894.254 434.016 894.254 434.996C894.254 435.892 894.954 436.396 895.738 436.396C895.822 436.396 895.878 436.396 895.962 436.368C895.962 437.992 895.262 438.944 893.862 439.868L894.506 440.932ZM898.487 451.46C899.775 452.524 901.623 453.336 903.555 453.336C906.775 453.336 908.539 451.488 908.539 449.276C908.539 446.7 906.355 445.888 904.395 445.16C902.855 444.572 901.371 444.096 901.371 442.808C901.371 441.772 902.155 440.848 903.863 440.848C905.067 440.848 906.047 441.352 906.971 442.052L908.063 440.596C907.027 439.756 905.543 439.056 903.835 439.056C900.895 439.056 899.159 440.736 899.159 442.92C899.159 445.216 901.287 446.14 903.219 446.84C904.703 447.4 906.327 448.016 906.327 449.416C906.327 450.592 905.431 451.544 903.639 451.544C902.015 451.544 900.811 450.872 899.635 449.92L898.487 451.46ZM736.564 468.512C734.632 469.632 733.596 471.256 733.596 473.496C733.596 475.12 734.24 476.016 735.36 476.016C736.228 476.016 736.844 475.428 736.844 474.476C736.844 473.552 736.116 473.048 735.36 473.048C735.276 473.048 735.192 473.048 735.108 473.076C735.108 471.48 735.808 470.528 737.236 469.604L736.564 468.512ZM741.52 468.512C739.56 469.632 738.524 471.256 738.524 473.496C738.524 475.12 739.168 476.016 740.288 476.016C741.156 476.016 741.772 475.428 741.772 474.476C741.772 473.552 741.072 473.048 740.288 473.048C740.204 473.048 740.12 473.048 740.036 473.076C740.036 471.48 740.764 470.528 742.164 469.604L741.52 468.512ZM745.098 485.62C746.694 487.272 748.962 488.336 751.538 488.336C755.402 488.336 757.782 486.012 757.782 483.1C757.782 480.384 756.13 479.124 754.002 478.2L751.398 477.08C749.942 476.464 748.346 475.792 748.346 474.028C748.346 472.376 749.718 471.34 751.762 471.34C753.47 471.34 754.814 472.012 755.934 473.076L757.194 471.564C755.878 470.22 753.946 469.296 751.762 469.296C748.43 469.296 745.994 471.368 745.994 474.168C745.994 476.856 747.982 478.172 749.718 478.9L752.35 480.048C754.086 480.832 755.402 481.42 755.402 483.296C755.402 485.088 753.974 486.292 751.566 486.292C749.662 486.292 747.814 485.368 746.498 483.996L745.098 485.62ZM760.699 486.6C760.699 487.608 761.455 488.336 762.379 488.336C763.275 488.336 764.031 487.608 764.031 486.6C764.031 485.536 763.275 484.808 762.379 484.808C761.455 484.808 760.699 485.536 760.699 486.6ZM768.372 488H770.528V477.892C770.528 476.268 770.332 474.084 770.22 472.46H770.332L771.788 476.548L775.344 486.152H776.66L780.188 476.548L781.672 472.46H781.784C781.644 474.084 781.476 476.268 781.476 477.892V488H783.688V469.632H780.944L777.416 479.488L776.128 483.24H776.016L774.672 479.488L771.116 469.632H768.372V488ZM788.015 486.6C788.015 487.608 788.771 488.336 789.695 488.336C790.591 488.336 791.347 487.608 791.347 486.6C791.347 485.536 790.591 484.808 789.695 484.808C788.771 484.808 788.015 485.536 788.015 486.6ZM797.984 480.524L798.852 477.724C799.524 475.68 800.112 473.664 800.672 471.536H800.784C801.372 473.664 801.96 475.68 802.632 477.724L803.5 480.524H797.984ZM805.824 488H808.316L802.1 469.632H799.468L793.252 488H795.632L797.396 482.4H804.088L805.824 488ZM810.218 486.6C810.218 487.608 810.974 488.336 811.898 488.336C812.794 488.336 813.55 487.608 813.55 486.6C813.55 485.536 812.794 484.808 811.898 484.808C810.974 484.808 810.218 485.536 810.218 486.6ZM820.215 471.508H823.295C826.151 471.508 827.747 472.376 827.747 474.784C827.747 477.164 826.151 478.34 823.295 478.34H820.215V471.508ZM830.603 488L825.955 479.992C828.447 479.376 830.071 477.64 830.071 474.784C830.071 470.976 827.383 469.632 823.631 469.632H817.891V488H820.215V480.244H823.547L827.971 488H830.603ZM833.461 486.6C833.461 487.608 834.217 488.336 835.141 488.336C836.037 488.336 836.793 487.608 836.793 486.6C836.793 485.536 836.037 484.808 835.141 484.808C834.217 484.808 833.461 485.536 833.461 486.6ZM841.961 488H844.313V471.592H849.857V469.632H836.417V471.592H841.961V488ZM849.484 486.6C849.484 487.608 850.24 488.336 851.164 488.336C852.06 488.336 852.816 487.608 852.816 486.6C852.816 485.536 852.06 484.808 851.164 484.808C850.24 484.808 849.484 485.536 849.484 486.6ZM864.749 488H867.437L869.341 480.72C869.705 479.432 869.985 478.144 870.293 476.772H870.405C870.741 478.144 870.993 479.404 871.329 480.692L873.289 488H876.089L879.729 474.392H877.545L875.557 482.26C875.277 483.548 875.025 484.78 874.717 486.04H874.605C874.297 484.78 873.989 483.548 873.653 482.26L871.525 474.392H869.285L867.185 482.26C866.849 483.52 866.569 484.78 866.261 486.04H866.149C865.897 484.78 865.645 483.548 865.337 482.26L863.321 474.392H860.969L864.749 488ZM881.745 484.472C881.745 486.908 883.453 488.336 885.749 488.336C887.429 488.336 888.941 487.44 890.257 486.376H890.313L890.509 488H892.413V479.656C892.413 476.268 891.013 474.056 887.681 474.056C885.497 474.056 883.593 475.008 882.333 475.82L883.257 477.416C884.321 476.688 885.721 475.96 887.317 475.96C889.529 475.96 890.117 477.64 890.117 479.376C884.321 480.02 881.745 481.504 881.745 484.472ZM884.013 484.304C884.013 482.568 885.553 481.448 890.117 480.888V484.668C888.801 485.844 887.709 486.488 886.393 486.488C885.049 486.488 884.013 485.844 884.013 484.304ZM895.821 491.752L895.373 493.572C895.821 493.74 896.353 493.852 896.969 493.852C899.713 493.852 901.113 491.808 902.065 489.12L907.189 474.392H904.949L902.513 481.924C902.149 483.128 901.757 484.528 901.365 485.76H901.253C900.833 484.5 900.357 483.1 899.937 481.924L897.165 474.392H894.785L900.245 488.028L899.937 489.036C899.377 490.716 898.397 491.948 896.857 491.948C896.521 491.948 896.101 491.836 895.821 491.752ZM909.928 475.932C911.86 474.812 912.924 473.216 912.924 470.976C912.924 469.352 912.252 468.428 911.16 468.428C910.292 468.428 909.676 469.016 909.676 469.996C909.676 470.892 910.376 471.396 911.16 471.396C911.244 471.396 911.3 471.396 911.384 471.368C911.384 472.992 910.684 473.944 909.284 474.868L909.928 475.932ZM914.884 475.932C916.816 474.812 917.852 473.216 917.852 470.976C917.852 469.352 917.208 468.428 916.088 468.428C915.22 468.428 914.604 469.016 914.604 469.996C914.604 470.892 915.304 471.396 916.088 471.396C916.172 471.396 916.256 471.396 916.34 471.368C916.34 472.992 915.612 473.944 914.212 474.868L914.884 475.932Z" fill="#2B2B2B"/>
<path d="M1143.71 335H1154.35C1160.55 335 1165.47 332.407 1165.47 326.562C1165.47 322.738 1163.36 320.584 1159.27 319.837V319.661C1162.61 318.782 1164.06 316.014 1164.06 313.464C1164.06 307.971 1159.45 306.345 1153.52 306.345H1143.71V335ZM1150.18 317.903V311.355H1153.25C1156.28 311.355 1157.73 312.234 1157.73 314.387C1157.73 316.541 1156.37 317.903 1153.21 317.903H1150.18ZM1150.18 329.99V322.474H1153.82C1157.38 322.474 1159.14 323.573 1159.14 326.078C1159.14 328.671 1157.34 329.99 1153.82 329.99H1150.18ZM1166.96 331.396C1169.86 334.121 1173.81 335.527 1177.55 335.527C1184.4 335.527 1188.36 331.396 1188.36 326.649C1188.36 322.606 1186.16 320.277 1182.69 318.87L1179 317.376C1176.54 316.365 1174.65 315.75 1174.65 313.992C1174.65 312.366 1176.05 311.399 1178.3 311.399C1180.58 311.399 1182.34 312.234 1184.23 313.684L1187.52 309.597C1185.06 307.136 1181.59 305.817 1178.3 305.817C1172.32 305.817 1168.1 309.597 1168.1 314.343C1168.1 318.519 1170.91 320.98 1173.86 322.167L1177.59 323.749C1180.1 324.804 1181.72 325.375 1181.72 327.177C1181.72 328.891 1180.4 329.946 1177.72 329.946C1175.35 329.946 1172.71 328.715 1170.65 326.957L1166.96 331.396ZM1191.11 320.848C1191.11 330.473 1197.18 335.527 1204.6 335.527C1208.16 335.527 1211.33 334.077 1213.7 331.308L1210.14 327.397C1208.74 328.935 1207.02 329.946 1204.69 329.946C1200.47 329.946 1197.75 326.518 1197.75 320.628C1197.75 314.871 1200.87 311.399 1204.87 311.399C1206.85 311.399 1208.25 312.234 1209.7 313.552L1213.26 309.553C1211.33 307.575 1208.34 305.817 1204.78 305.817C1197.4 305.817 1191.11 311.355 1191.11 320.848Z" fill="#2B2B2B"/>
<path d="M1146.33 381H1148.68V364.592H1154.22V362.632H1140.78V364.592H1146.33V381ZM1157.31 381H1159.6V371.144C1160.98 369.772 1161.93 369.044 1163.33 369.044C1165.12 369.044 1165.9 370.136 1165.9 372.684V381H1168.2V372.376C1168.2 368.904 1166.91 367.056 1164.06 367.056C1162.18 367.056 1160.81 368.064 1159.52 369.296L1159.6 366.496V361.064H1157.31V381ZM1171.53 374.224C1171.53 378.676 1174.41 381.336 1178.05 381.336C1179.9 381.336 1181.36 380.692 1182.53 379.936L1181.72 378.424C1180.71 379.068 1179.62 379.488 1178.33 379.488C1175.73 379.488 1173.97 377.64 1173.8 374.7H1182.98C1183.04 374.364 1183.07 373.916 1183.07 373.44C1183.07 369.548 1181.11 367.056 1177.63 367.056C1174.53 367.056 1171.53 369.772 1171.53 374.224ZM1173.77 373.188C1174.05 370.444 1175.79 368.876 1177.69 368.876C1179.82 368.876 1181.05 370.416 1181.05 373.188H1173.77ZM1192.31 381H1198.16C1202.28 381 1205.14 379.236 1205.14 375.624C1205.14 373.104 1203.57 371.648 1200.88 371.228V371.116C1203.04 370.556 1204.07 368.932 1204.07 367.112C1204.07 363.892 1201.5 362.632 1197.77 362.632H1192.31V381ZM1194.64 370.472V364.48H1197.46C1200.32 364.48 1201.78 365.32 1201.78 367.308C1201.78 369.352 1200.49 370.472 1197.35 370.472H1194.64ZM1194.64 379.152V372.208H1197.83C1201.05 372.208 1202.84 373.244 1202.84 375.512C1202.84 378.004 1200.99 379.152 1197.83 379.152H1194.64ZM1207.88 377.472C1207.88 379.908 1209.59 381.336 1211.88 381.336C1213.56 381.336 1215.07 380.44 1216.39 379.376H1216.45L1216.64 381H1218.55V372.656C1218.55 369.268 1217.15 367.056 1213.81 367.056C1211.63 367.056 1209.73 368.008 1208.47 368.82L1209.39 370.416C1210.45 369.688 1211.85 368.96 1213.45 368.96C1215.66 368.96 1216.25 370.64 1216.25 372.376C1210.45 373.02 1207.88 374.504 1207.88 377.472ZM1210.15 377.304C1210.15 375.568 1211.69 374.448 1216.25 373.888V377.668C1214.93 378.844 1213.84 379.488 1212.53 379.488C1211.18 379.488 1210.15 378.844 1210.15 377.304ZM1222.88 378.256C1222.88 380.244 1223.58 381.336 1225.31 381.336C1225.93 381.336 1226.32 381.252 1226.63 381.112L1226.32 379.376C1226.07 379.432 1225.96 379.432 1225.82 379.432C1225.48 379.432 1225.17 379.152 1225.17 378.424V361.064H1222.88V378.256ZM1229.34 377.472C1229.34 379.908 1231.05 381.336 1233.35 381.336C1235.03 381.336 1236.54 380.44 1237.85 379.376H1237.91L1238.11 381H1240.01V372.656C1240.01 369.268 1238.61 367.056 1235.28 367.056C1233.09 367.056 1231.19 368.008 1229.93 368.82L1230.85 370.416C1231.92 369.688 1233.32 368.96 1234.91 368.96C1237.13 368.96 1237.71 370.64 1237.71 372.376C1231.92 373.02 1229.34 374.504 1229.34 377.472ZM1231.61 377.304C1231.61 375.568 1233.15 374.448 1237.71 373.888V377.668C1236.4 378.844 1235.31 379.488 1233.99 379.488C1232.65 379.488 1231.61 378.844 1231.61 377.304ZM1244.34 381H1246.64V371.144C1248.01 369.772 1248.96 369.044 1250.36 369.044C1252.15 369.044 1252.94 370.136 1252.94 372.684V381H1255.23V372.376C1255.23 368.904 1253.95 367.056 1251.09 367.056C1249.21 367.056 1247.81 368.064 1246.53 369.352H1246.44L1246.25 367.392H1244.34V381ZM1258.65 374.224C1258.65 378.732 1261.42 381.336 1265.03 381.336C1266.66 381.336 1268.22 380.664 1269.46 379.572L1268.42 378.06C1267.61 378.788 1266.52 379.432 1265.23 379.432C1262.74 379.432 1261.03 377.332 1261.03 374.224C1261.03 371.088 1262.82 368.96 1265.28 368.96C1266.38 368.96 1267.22 369.464 1268.03 370.164L1269.18 368.68C1268.25 367.812 1266.99 367.056 1265.2 367.056C1261.7 367.056 1258.65 369.66 1258.65 374.224ZM1270.82 374.224C1270.82 378.676 1273.7 381.336 1277.34 381.336C1279.19 381.336 1280.64 380.692 1281.82 379.936L1281.01 378.424C1280 379.068 1278.91 379.488 1277.62 379.488C1275.02 379.488 1273.25 377.64 1273.08 374.7H1282.27C1282.32 374.364 1282.35 373.916 1282.35 373.44C1282.35 369.548 1280.39 367.056 1276.92 367.056C1273.81 367.056 1270.82 369.772 1270.82 374.224ZM1273.06 373.188C1273.34 370.444 1275.07 368.876 1276.98 368.876C1279.1 368.876 1280.34 370.416 1280.34 373.188H1273.06ZM1284.73 374.224C1284.73 378.76 1286.95 381.336 1290.36 381.336C1291.96 381.336 1293.41 380.44 1294.48 379.404H1294.56L1294.76 381H1296.66V361.064H1294.34V366.3L1294.45 368.624C1293.25 367.644 1292.21 367.056 1290.64 367.056C1287.53 367.056 1284.73 369.8 1284.73 374.224ZM1287.11 374.196C1287.11 371.088 1288.85 368.988 1291.03 368.988C1292.15 368.988 1293.19 369.38 1294.34 370.416V377.528C1293.22 378.788 1292.13 379.404 1290.87 379.404C1288.49 379.404 1287.11 377.444 1287.11 374.196ZM1305.79 378.62C1307.38 380.272 1309.65 381.336 1312.23 381.336C1316.09 381.336 1318.47 379.012 1318.47 376.1C1318.47 373.384 1316.82 372.124 1314.69 371.2L1312.09 370.08C1310.63 369.464 1309.03 368.792 1309.03 367.028C1309.03 365.376 1310.41 364.34 1312.45 364.34C1314.16 364.34 1315.5 365.012 1316.62 366.076L1317.88 364.564C1316.57 363.22 1314.63 362.296 1312.45 362.296C1309.12 362.296 1306.68 364.368 1306.68 367.168C1306.68 369.856 1308.67 371.172 1310.41 371.9L1313.04 373.048C1314.77 373.832 1316.09 374.42 1316.09 376.296C1316.09 378.088 1314.66 379.292 1312.25 379.292C1310.35 379.292 1308.5 378.368 1307.19 376.996L1305.79 378.62ZM1320.85 374.224C1320.85 378.732 1323.63 381.336 1327.24 381.336C1328.86 381.336 1330.43 380.664 1331.66 379.572L1330.63 378.06C1329.81 378.788 1328.72 379.432 1327.43 379.432C1324.94 379.432 1323.23 377.332 1323.23 374.224C1323.23 371.088 1325.03 368.96 1327.49 368.96C1328.58 368.96 1329.42 369.464 1330.23 370.164L1331.38 368.68C1330.46 367.812 1329.2 367.056 1327.41 367.056C1323.91 367.056 1320.85 369.66 1320.85 374.224ZM1333.02 374.224C1333.02 378.732 1335.99 381.336 1339.32 381.336C1342.65 381.336 1345.62 378.732 1345.62 374.224C1345.62 369.66 1342.65 367.056 1339.32 367.056C1335.99 367.056 1333.02 369.66 1333.02 374.224ZM1335.4 374.224C1335.4 371.088 1337 368.96 1339.32 368.96C1341.67 368.96 1343.24 371.088 1343.24 374.224C1343.24 377.332 1341.67 379.432 1339.32 379.432C1337 379.432 1335.4 377.332 1335.4 374.224ZM1349.21 381H1351.5V372.264C1352.43 369.968 1353.8 369.128 1354.95 369.128C1355.51 369.128 1355.81 369.212 1356.26 369.352L1356.71 367.336C1356.26 367.14 1355.84 367.056 1355.25 367.056C1353.71 367.056 1352.31 368.148 1351.39 369.856H1351.31L1351.11 367.392H1349.21V381ZM1357.63 374.224C1357.63 378.676 1360.52 381.336 1364.16 381.336C1366 381.336 1367.46 380.692 1368.64 379.936L1367.82 378.424C1366.82 379.068 1365.72 379.488 1364.44 379.488C1361.83 379.488 1360.07 377.64 1359.9 374.7H1369.08C1369.14 374.364 1369.17 373.916 1369.17 373.44C1369.17 369.548 1367.21 367.056 1363.74 367.056C1360.63 367.056 1357.63 369.772 1357.63 374.224ZM1359.87 373.188C1360.15 370.444 1361.89 368.876 1363.79 368.876C1365.92 368.876 1367.15 370.416 1367.15 373.188H1359.87ZM1371.52 374.224C1371.52 378.732 1374.29 381.336 1377.91 381.336C1379.53 381.336 1381.1 380.664 1382.33 379.572L1381.29 378.06C1380.48 378.788 1379.39 379.432 1378.1 379.432C1375.61 379.432 1373.9 377.332 1373.9 374.224C1373.9 371.088 1375.69 368.96 1378.16 368.96C1379.25 368.96 1380.09 369.464 1380.9 370.164L1382.05 368.68C1381.13 367.812 1379.87 367.056 1378.07 367.056C1374.57 367.056 1371.52 369.66 1371.52 374.224ZM1384.35 377.472C1384.35 379.908 1386.06 381.336 1388.36 381.336C1390.04 381.336 1391.55 380.44 1392.87 379.376H1392.92L1393.12 381H1395.02V372.656C1395.02 369.268 1393.62 367.056 1390.29 367.056C1388.11 367.056 1386.2 368.008 1384.94 368.82L1385.87 370.416C1386.93 369.688 1388.33 368.96 1389.93 368.96C1392.14 368.96 1392.73 370.64 1392.73 372.376C1386.93 373.02 1384.35 374.504 1384.35 377.472ZM1386.62 377.304C1386.62 375.568 1388.16 374.448 1392.73 373.888V377.668C1391.41 378.844 1390.32 379.488 1389 379.488C1387.66 379.488 1386.62 378.844 1386.62 377.304ZM1399.35 381H1401.65V372.264C1402.57 369.968 1403.95 369.128 1405.09 369.128C1405.65 369.128 1405.96 369.212 1406.41 369.352L1406.86 367.336C1406.41 367.14 1405.99 367.056 1405.4 367.056C1403.86 367.056 1402.46 368.148 1401.54 369.856H1401.45L1401.26 367.392H1399.35V381ZM1407.81 374.224C1407.81 378.76 1410.02 381.336 1413.44 381.336C1415.03 381.336 1416.49 380.44 1417.55 379.404H1417.64L1417.83 381H1419.74V361.064H1417.41V366.3L1417.52 368.624C1416.32 367.644 1415.28 367.056 1413.72 367.056C1410.61 367.056 1407.81 369.8 1407.81 374.224ZM1410.19 374.196C1410.19 371.088 1411.92 368.988 1414.11 368.988C1415.23 368.988 1416.26 369.38 1417.41 370.416V377.528C1416.29 378.788 1415.2 379.404 1413.94 379.404C1411.56 379.404 1410.19 377.444 1410.19 374.196ZM1142.3 416H1144.14L1144.34 414.656H1144.42C1145.63 415.72 1147.06 416.336 1148.32 416.336C1151.42 416.336 1154.2 413.62 1154.2 408.972C1154.2 404.772 1152.32 402.056 1148.79 402.056C1147.28 402.056 1145.77 402.868 1144.54 403.96L1144.59 401.496V396.064H1142.3V416ZM1144.59 412.976V405.836C1145.88 404.632 1147.08 403.988 1148.23 403.988C1150.81 403.988 1151.82 406.004 1151.82 409C1151.82 412.36 1150.16 414.404 1147.92 414.404C1147.03 414.404 1145.8 414.012 1144.59 412.976ZM1156.79 419.752L1156.35 421.572C1156.79 421.74 1157.33 421.852 1157.94 421.852C1160.69 421.852 1162.09 419.808 1163.04 417.12L1168.16 402.392H1165.92L1163.49 409.924C1163.12 411.128 1162.73 412.528 1162.34 413.76H1162.23C1161.81 412.5 1161.33 411.1 1160.91 409.924L1158.14 402.392H1155.76L1161.22 416.028L1160.91 417.036C1160.35 418.716 1159.37 419.948 1157.83 419.948C1157.49 419.948 1157.07 419.836 1156.79 419.752ZM1176.67 416H1179V410.176L1182.16 406.452L1187.65 416H1190.25L1183.62 404.632L1189.36 397.632H1186.72L1179.08 406.844H1179V397.632H1176.67V416ZM1191.99 412.472C1191.99 414.908 1193.7 416.336 1196 416.336C1197.68 416.336 1199.19 415.44 1200.5 414.376H1200.56L1200.76 416H1202.66V407.656C1202.66 404.268 1201.26 402.056 1197.93 402.056C1195.74 402.056 1193.84 403.008 1192.58 403.82L1193.5 405.416C1194.57 404.688 1195.97 403.96 1197.56 403.96C1199.78 403.96 1200.36 405.64 1200.36 407.376C1194.57 408.02 1191.99 409.504 1191.99 412.472ZM1194.26 412.304C1194.26 410.568 1195.8 409.448 1200.36 408.888V412.668C1199.05 413.844 1197.96 414.488 1196.64 414.488C1195.3 414.488 1194.26 413.844 1194.26 412.304ZM1209.23 414.768C1210.49 415.748 1211.75 416.336 1213.01 416.336C1216.12 416.336 1218.89 413.62 1218.89 409C1218.89 404.772 1217.02 402.056 1213.52 402.056C1211.92 402.056 1210.41 402.924 1209.18 403.96H1209.09L1208.9 402.392H1206.99V421.74H1209.29V417.148L1209.23 414.768ZM1209.29 412.976V405.836C1210.63 404.632 1211.78 403.988 1212.93 403.988C1215.5 403.988 1216.51 406.004 1216.51 409C1216.51 412.36 1214.86 414.404 1212.62 414.404C1211.72 414.404 1210.52 414.012 1209.29 412.976ZM1222.52 413.256C1222.52 415.244 1223.22 416.336 1224.96 416.336C1225.57 416.336 1225.97 416.252 1226.27 416.112L1225.97 414.376C1225.71 414.432 1225.6 414.432 1225.46 414.432C1225.13 414.432 1224.82 414.152 1224.82 413.424V396.064H1222.52V413.256ZM1228.99 412.472C1228.99 414.908 1230.7 416.336 1232.99 416.336C1234.67 416.336 1236.18 415.44 1237.5 414.376H1237.56L1237.75 416H1239.66V407.656C1239.66 404.268 1238.26 402.056 1234.92 402.056C1232.74 402.056 1230.84 403.008 1229.58 403.82L1230.5 405.416C1231.56 404.688 1232.96 403.96 1234.56 403.96C1236.77 403.96 1237.36 405.64 1237.36 407.376C1231.56 408.02 1228.99 409.504 1228.99 412.472ZM1231.26 412.304C1231.26 410.568 1232.8 409.448 1237.36 408.888V412.668C1236.04 413.844 1234.95 414.488 1233.64 414.488C1232.29 414.488 1231.26 413.844 1231.26 412.304ZM1243.99 416H1246.28V406.144C1247.66 404.772 1248.61 404.044 1250.01 404.044C1251.8 404.044 1252.58 405.136 1252.58 407.684V416H1254.88V407.376C1254.88 403.904 1253.59 402.056 1250.74 402.056C1248.86 402.056 1247.46 403.064 1246.17 404.352H1246.09L1245.89 402.392H1243.99V416ZM1264.29 412.472C1264.29 414.908 1266 416.336 1268.29 416.336C1269.97 416.336 1271.48 415.44 1272.8 414.376H1272.86L1273.05 416H1274.96V407.656C1274.96 404.268 1273.56 402.056 1270.22 402.056C1268.04 402.056 1266.14 403.008 1264.88 403.82L1265.8 405.416C1266.86 404.688 1268.26 403.96 1269.86 403.96C1272.07 403.96 1272.66 405.64 1272.66 407.376C1266.86 408.02 1264.29 409.504 1264.29 412.472ZM1266.56 412.304C1266.56 410.568 1268.1 409.448 1272.66 408.888V412.668C1271.34 413.844 1270.25 414.488 1268.94 414.488C1267.59 414.488 1266.56 413.844 1266.56 412.304ZM1279.29 416H1281.58V406.144C1282.96 404.772 1283.91 404.044 1285.31 404.044C1287.1 404.044 1287.88 405.136 1287.88 407.684V416H1290.18V407.376C1290.18 403.904 1288.89 402.056 1286.04 402.056C1284.16 402.056 1282.76 403.064 1281.47 404.352H1281.39L1281.19 402.392H1279.29V416ZM1293.62 409.224C1293.62 413.76 1295.83 416.336 1299.25 416.336C1300.84 416.336 1302.3 415.44 1303.36 414.404H1303.45L1303.64 416H1305.55V396.064H1303.22V401.3L1303.34 403.624C1302.13 402.644 1301.1 402.056 1299.53 402.056C1296.42 402.056 1293.62 404.8 1293.62 409.224ZM1296 409.196C1296 406.088 1297.74 403.988 1299.92 403.988C1301.04 403.988 1302.08 404.38 1303.22 405.416V412.528C1302.1 413.788 1301.01 414.404 1299.75 414.404C1297.37 414.404 1296 412.444 1296 409.196ZM1316.02 416H1318.23V406.396C1318.23 404.464 1318.06 402.504 1317.92 400.656H1318.03L1320.02 404.436L1326.68 416H1329.09V397.632H1326.88V407.124C1326.88 409.056 1327.05 411.128 1327.16 412.976H1327.05L1325.06 409.168L1318.42 397.632H1316.02V416ZM1332.91 409.224C1332.91 413.732 1335.88 416.336 1339.21 416.336C1342.55 416.336 1345.51 413.732 1345.51 409.224C1345.51 404.66 1342.55 402.056 1339.21 402.056C1335.88 402.056 1332.91 404.66 1332.91 409.224ZM1335.29 409.224C1335.29 406.088 1336.89 403.96 1339.21 403.96C1341.57 403.96 1343.13 406.088 1343.13 409.224C1343.13 412.332 1341.57 414.432 1339.21 414.432C1336.89 414.432 1335.29 412.332 1335.29 409.224ZM1349.1 416H1351.39V407.264C1352.32 404.968 1353.69 404.128 1354.84 404.128C1355.4 404.128 1355.7 404.212 1356.15 404.352L1356.6 402.336C1356.15 402.14 1355.73 402.056 1355.14 402.056C1353.6 402.056 1352.2 403.148 1351.28 404.856H1351.2L1351 402.392H1349.1V416ZM1359.2 411.8C1359.2 414.488 1360.18 416.336 1363.09 416.336C1363.93 416.336 1364.85 416.084 1365.61 415.832L1365.16 414.096C1364.71 414.264 1364.1 414.46 1363.62 414.46C1362.05 414.46 1361.52 413.508 1361.52 411.828V404.268H1365.19V402.392H1361.52V398.584H1359.59L1359.31 402.392L1357.18 402.532V404.268H1359.2V411.8ZM1366.98 409.224C1366.98 413.732 1369.95 416.336 1373.28 416.336C1376.62 416.336 1379.58 413.732 1379.58 409.224C1379.58 404.66 1376.62 402.056 1373.28 402.056C1369.95 402.056 1366.98 404.66 1366.98 409.224ZM1369.36 409.224C1369.36 406.088 1370.96 403.96 1373.28 403.96C1375.64 403.96 1377.2 406.088 1377.2 409.224C1377.2 412.332 1375.64 414.432 1373.28 414.432C1370.96 414.432 1369.36 412.332 1369.36 409.224ZM1383.17 416H1385.46V406.144C1386.84 404.772 1387.79 404.044 1389.19 404.044C1390.98 404.044 1391.76 405.136 1391.76 407.684V416H1394.06V407.376C1394.06 403.904 1392.77 402.056 1389.92 402.056C1388.04 402.056 1386.64 403.064 1385.35 404.352H1385.27L1385.07 402.392H1383.17V416Z" fill="#2B2B2B"/>
<path d="M1305.35 510.527C1313.09 510.527 1318.36 504.902 1318.36 495.54C1318.36 486.223 1313.09 480.817 1305.35 480.817C1297.62 480.817 1292.34 486.179 1292.34 495.54C1292.34 504.902 1297.62 510.527 1305.35 510.527ZM1305.35 504.946C1301.44 504.946 1298.98 501.298 1298.98 495.54C1298.98 489.827 1301.44 486.399 1305.35 486.399C1309.26 486.399 1311.72 489.827 1311.72 495.54C1311.72 501.298 1309.26 504.946 1305.35 504.946ZM1323 510H1329.46V502.309L1332.8 497.914L1339.79 510H1346.86L1336.62 492.772L1345.28 481.345H1338.16L1329.64 493.079H1329.46V481.345H1323V510ZM1355.71 486.487H1359.05C1362.43 486.487 1364.28 487.454 1364.28 490.266C1364.28 493.079 1362.43 494.53 1359.05 494.53H1355.71V486.487ZM1372.01 510L1365.51 498.529C1368.58 497.167 1370.61 494.486 1370.61 490.266C1370.61 483.454 1365.64 481.345 1359.57 481.345H1349.25V510H1355.71V499.672H1359.27L1364.76 510H1372.01ZM1373.12 507.495C1375.31 509.297 1378.61 510.527 1381.47 510.527C1387.31 510.527 1390.43 507.451 1390.43 503.495C1390.43 499.496 1387.31 497.958 1384.54 496.947C1382.3 496.112 1380.28 495.584 1380.28 494.178C1380.28 493.079 1381.07 492.464 1382.74 492.464C1384.28 492.464 1385.77 493.167 1387.36 494.31L1390.26 490.442C1388.37 489.036 1385.91 487.673 1382.57 487.673C1377.51 487.673 1374.22 490.442 1374.22 494.486C1374.22 498.09 1377.34 499.891 1379.97 500.902C1382.21 501.781 1384.41 502.441 1384.41 503.891C1384.41 505.034 1383.58 505.737 1381.64 505.737C1379.8 505.737 1378 504.946 1376.02 503.451L1373.12 507.495Z" fill="#2B2B2B"/>
<path d="M1290.87 553.396C1291.93 555.328 1293.61 556.336 1295.94 556.336C1299.52 556.336 1301 553.76 1301 550.596V537.632H1298.65V550.372C1298.65 553.172 1297.67 554.292 1295.71 554.292C1294.4 554.292 1293.36 553.676 1292.55 552.22L1290.87 553.396ZM1304.74 549.224C1304.74 553.732 1307.71 556.336 1311.04 556.336C1314.37 556.336 1317.34 553.732 1317.34 549.224C1317.34 544.66 1314.37 542.056 1311.04 542.056C1307.71 542.056 1304.74 544.66 1304.74 549.224ZM1307.12 549.224C1307.12 546.088 1308.72 543.96 1311.04 543.96C1313.39 543.96 1314.96 546.088 1314.96 549.224C1314.96 552.332 1313.39 554.432 1311.04 554.432C1308.72 554.432 1307.12 552.332 1307.12 549.224ZM1320.92 556H1323.22V546.144C1324.59 544.772 1325.54 544.044 1326.94 544.044C1328.74 544.044 1329.52 545.136 1329.52 547.684V556H1331.82V547.376C1331.82 543.904 1330.53 542.056 1327.67 542.056C1325.8 542.056 1324.42 543.064 1323.14 544.296L1323.22 541.496V536.064H1320.92V556ZM1336.16 556H1338.45V546.144C1339.82 544.772 1340.78 544.044 1342.18 544.044C1343.97 544.044 1344.75 545.136 1344.75 547.684V556H1347.05V547.376C1347.05 543.904 1345.76 542.056 1342.9 542.056C1341.03 542.056 1339.63 543.064 1338.34 544.352H1338.26L1338.06 542.392H1336.16V556ZM1357.35 556H1362.06C1367.6 556 1370.62 552.584 1370.62 546.732C1370.62 540.908 1367.6 537.632 1361.94 537.632H1357.35V556ZM1359.68 554.096V539.536H1361.78C1366.06 539.536 1368.22 542.112 1368.22 546.732C1368.22 551.38 1366.06 554.096 1361.78 554.096H1359.68ZM1373.35 549.224C1373.35 553.732 1376.31 556.336 1379.65 556.336C1382.98 556.336 1385.95 553.732 1385.95 549.224C1385.95 544.66 1382.98 542.056 1379.65 542.056C1376.31 542.056 1373.35 544.66 1373.35 549.224ZM1375.73 549.224C1375.73 546.088 1377.32 543.96 1379.65 543.96C1382 543.96 1383.57 546.088 1383.57 549.224C1383.57 552.332 1382 554.432 1379.65 554.432C1377.32 554.432 1375.73 552.332 1375.73 549.224ZM1388.52 549.224C1388.52 553.676 1391.41 556.336 1395.05 556.336C1396.89 556.336 1398.35 555.692 1399.53 554.936L1398.71 553.424C1397.71 554.068 1396.61 554.488 1395.33 554.488C1392.72 554.488 1390.96 552.64 1390.79 549.7H1399.97C1400.03 549.364 1400.06 548.916 1400.06 548.44C1400.06 544.548 1398.1 542.056 1394.63 542.056C1391.52 542.056 1388.52 544.772 1388.52 549.224ZM1390.76 548.188C1391.04 545.444 1392.78 543.876 1394.68 543.876C1396.81 543.876 1398.04 545.416 1398.04 548.188H1390.76ZM1403.42 556H1405.72V547.264C1406.64 544.968 1408.01 544.128 1409.16 544.128C1409.72 544.128 1410.03 544.212 1410.48 544.352L1410.93 542.336C1410.48 542.14 1410.06 542.056 1409.47 542.056C1407.93 542.056 1406.53 543.148 1405.61 544.856H1405.52L1405.33 542.392H1403.42V556ZM1413.13 556H1415.42V547.264C1416.35 544.968 1417.72 544.128 1418.87 544.128C1419.43 544.128 1419.74 544.212 1420.18 544.352L1420.63 542.336C1420.18 542.14 1419.76 542.056 1419.18 542.056C1417.64 542.056 1416.24 543.148 1415.31 544.856H1415.23L1415.03 542.392H1413.13V556ZM1293.47 574.592C1294.37 574.592 1295.07 573.976 1295.07 573.108C1295.07 572.212 1294.37 571.624 1293.47 571.624C1292.58 571.624 1291.88 572.212 1291.88 573.108C1291.88 573.976 1292.58 574.592 1293.47 574.592ZM1292.3 591H1294.59V577.392H1292.3V591ZM1299.19 591H1301.48V581.144C1302.85 579.772 1303.81 579.044 1305.21 579.044C1307 579.044 1307.78 580.136 1307.78 582.684V591H1310.08V582.376C1310.08 578.904 1308.79 577.056 1305.93 577.056C1304.06 577.056 1302.66 578.064 1301.37 579.352H1301.29L1301.09 577.392H1299.19V591ZM1314.89 586.8C1314.89 589.488 1315.87 591.336 1318.78 591.336C1319.62 591.336 1320.55 591.084 1321.3 590.832L1320.86 589.096C1320.41 589.264 1319.79 589.46 1319.32 589.46C1317.75 589.46 1317.22 588.508 1317.22 586.828V579.268H1320.88V577.392H1317.22V573.584H1315.28L1315 577.392L1312.88 577.532V579.268H1314.89V586.8ZM1323.96 591H1326.26V582.264C1327.18 579.968 1328.55 579.128 1329.7 579.128C1330.26 579.128 1330.57 579.212 1331.02 579.352L1331.46 577.336C1331.02 577.14 1330.6 577.056 1330.01 577.056C1328.47 577.056 1327.07 578.148 1326.14 579.856H1326.06L1325.86 577.392H1323.96V591ZM1332.39 584.224C1332.39 588.732 1335.35 591.336 1338.69 591.336C1342.02 591.336 1344.99 588.732 1344.99 584.224C1344.99 579.66 1342.02 577.056 1338.69 577.056C1335.35 577.056 1332.39 579.66 1332.39 584.224ZM1334.77 584.224C1334.77 581.088 1336.36 578.96 1338.69 578.96C1341.04 578.96 1342.61 581.088 1342.61 584.224C1342.61 587.332 1341.04 589.432 1338.69 589.432C1336.36 589.432 1334.77 587.332 1334.77 584.224ZM1347.59 584.224C1347.59 588.76 1349.8 591.336 1353.22 591.336C1354.81 591.336 1356.27 590.44 1357.33 589.404H1357.42L1357.61 591H1359.52V571.064H1357.19V576.3L1357.31 578.624C1356.1 577.644 1355.07 577.056 1353.5 577.056C1350.39 577.056 1347.59 579.8 1347.59 584.224ZM1349.97 584.196C1349.97 581.088 1351.71 578.988 1353.89 578.988C1355.01 578.988 1356.05 579.38 1357.19 580.416V587.528C1356.07 588.788 1354.98 589.404 1353.72 589.404C1351.34 589.404 1349.97 587.444 1349.97 584.196ZM1363.9 586.016C1363.9 589.488 1365.19 591.336 1368.08 591.336C1369.95 591.336 1371.3 590.356 1372.56 588.872H1372.64L1372.84 591H1374.74V577.392H1372.44V587.052C1371.16 588.648 1370.18 589.348 1368.78 589.348C1366.98 589.348 1366.23 588.256 1366.23 585.708V577.392H1363.9V586.016ZM1378.32 584.224C1378.32 588.732 1381.1 591.336 1384.71 591.336C1386.33 591.336 1387.9 590.664 1389.13 589.572L1388.1 588.06C1387.28 588.788 1386.19 589.432 1384.9 589.432C1382.41 589.432 1380.7 587.332 1380.7 584.224C1380.7 581.088 1382.5 578.96 1384.96 578.96C1386.05 578.96 1386.89 579.464 1387.7 580.164L1388.85 578.68C1387.93 577.812 1386.67 577.056 1384.88 577.056C1381.38 577.056 1378.32 579.66 1378.32 584.224ZM1390.49 584.224C1390.49 588.676 1393.38 591.336 1397.02 591.336C1398.86 591.336 1400.32 590.692 1401.5 589.936L1400.68 588.424C1399.68 589.068 1398.58 589.488 1397.3 589.488C1394.69 589.488 1392.93 587.64 1392.76 584.7H1401.94C1402 584.364 1402.03 583.916 1402.03 583.44C1402.03 579.548 1400.07 577.056 1396.6 577.056C1393.49 577.056 1390.49 579.772 1390.49 584.224ZM1392.73 583.188C1393.01 580.444 1394.75 578.876 1396.65 578.876C1398.78 578.876 1400.01 580.416 1400.01 583.188H1392.73ZM1403.88 589.46C1405.17 590.524 1407.01 591.336 1408.95 591.336C1412.17 591.336 1413.93 589.488 1413.93 587.276C1413.93 584.7 1411.75 583.888 1409.79 583.16C1408.25 582.572 1406.76 582.096 1406.76 580.808C1406.76 579.772 1407.55 578.848 1409.25 578.848C1410.46 578.848 1411.44 579.352 1412.36 580.052L1413.45 578.596C1412.42 577.756 1410.93 577.056 1409.23 577.056C1406.29 577.056 1404.55 578.736 1404.55 580.92C1404.55 583.216 1406.68 584.14 1408.61 584.84C1410.09 585.4 1411.72 586.016 1411.72 587.416C1411.72 588.592 1410.82 589.544 1409.03 589.544C1407.41 589.544 1406.2 588.872 1405.03 587.92L1403.88 589.46ZM1429.78 591.336C1434.4 591.336 1437.65 587.64 1437.65 581.732C1437.65 575.88 1434.4 572.296 1429.78 572.296C1425.16 572.296 1421.94 575.852 1421.94 581.732C1421.94 587.64 1425.16 591.336 1429.78 591.336ZM1429.78 589.292C1426.5 589.292 1424.35 586.324 1424.35 581.732C1424.35 577.168 1426.5 574.34 1429.78 574.34C1433.06 574.34 1435.21 577.168 1435.21 581.732C1435.21 586.324 1433.06 589.292 1429.78 589.292ZM1441.6 591H1443.92V585.176L1447.09 581.452L1452.57 591H1455.18L1448.54 579.632L1454.28 572.632H1451.65L1444.01 581.844H1443.92V572.632H1441.6V591ZM1460.14 574.508H1463.22C1466.07 574.508 1467.67 575.376 1467.67 577.784C1467.67 580.164 1466.07 581.34 1463.22 581.34H1460.14V574.508ZM1470.52 591L1465.88 582.992C1468.37 582.376 1469.99 580.64 1469.99 577.784C1469.99 573.976 1467.3 572.632 1463.55 572.632H1457.81V591H1460.14V583.244H1463.47L1467.89 591H1470.52ZM1472.35 589.46C1473.63 590.524 1475.48 591.336 1477.41 591.336C1480.63 591.336 1482.4 589.488 1482.4 587.276C1482.4 584.7 1480.21 583.888 1478.25 583.16C1476.71 582.572 1475.23 582.096 1475.23 580.808C1475.23 579.772 1476.01 578.848 1477.72 578.848C1478.93 578.848 1479.91 579.352 1480.83 580.052L1481.92 578.596C1480.89 577.756 1479.4 577.056 1477.69 577.056C1474.75 577.056 1473.02 578.736 1473.02 580.92C1473.02 583.216 1475.15 584.14 1477.08 584.84C1478.56 585.4 1480.19 586.016 1480.19 587.416C1480.19 588.592 1479.29 589.544 1477.5 589.544C1475.87 589.544 1474.67 588.872 1473.49 587.92L1472.35 589.46ZM1292.69 621.8C1292.69 624.488 1293.67 626.336 1296.58 626.336C1297.42 626.336 1298.34 626.084 1299.1 625.832L1298.65 624.096C1298.2 624.264 1297.59 624.46 1297.11 624.46C1295.54 624.46 1295.01 623.508 1295.01 621.828V614.268H1298.68V612.392H1295.01V608.584H1293.08L1292.8 612.392L1290.67 612.532V614.268H1292.69V621.8ZM1300.48 619.224C1300.48 623.732 1303.44 626.336 1306.78 626.336C1310.11 626.336 1313.08 623.732 1313.08 619.224C1313.08 614.66 1310.11 612.056 1306.78 612.056C1303.44 612.056 1300.48 614.66 1300.48 619.224ZM1302.86 619.224C1302.86 616.088 1304.45 613.96 1306.78 613.96C1309.13 613.96 1310.7 616.088 1310.7 619.224C1310.7 622.332 1309.13 624.432 1306.78 624.432C1304.45 624.432 1302.86 622.332 1302.86 619.224ZM1321.48 616.816C1321.48 622.808 1324.92 626.336 1329.74 626.336C1332.2 626.336 1334.22 625.44 1335.42 624.208V616.48H1329.4V618.412H1333.3V623.2C1332.57 623.872 1331.31 624.292 1329.99 624.292C1326.07 624.292 1323.89 621.38 1323.89 616.76C1323.89 612.196 1326.27 609.34 1329.96 609.34C1331.81 609.34 1332.96 610.068 1333.88 611.048L1335.2 609.564C1334.14 608.444 1332.46 607.296 1329.94 607.296C1325.04 607.296 1321.48 610.908 1321.48 616.816ZM1338.59 619.224C1338.59 623.732 1341.56 626.336 1344.89 626.336C1348.22 626.336 1351.19 623.732 1351.19 619.224C1351.19 614.66 1348.22 612.056 1344.89 612.056C1341.56 612.056 1338.59 614.66 1338.59 619.224ZM1340.97 619.224C1340.97 616.088 1342.57 613.96 1344.89 613.96C1347.24 613.96 1348.81 616.088 1348.81 619.224C1348.81 622.332 1347.24 624.432 1344.89 624.432C1342.57 624.432 1340.97 622.332 1340.97 619.224ZM1353.77 619.224C1353.77 623.732 1356.74 626.336 1360.07 626.336C1363.4 626.336 1366.37 623.732 1366.37 619.224C1366.37 614.66 1363.4 612.056 1360.07 612.056C1356.74 612.056 1353.77 614.66 1353.77 619.224ZM1356.15 619.224C1356.15 616.088 1357.74 613.96 1360.07 613.96C1362.42 613.96 1363.99 616.088 1363.99 619.224C1363.99 622.332 1362.42 624.432 1360.07 624.432C1357.74 624.432 1356.15 622.332 1356.15 619.224ZM1370.93 628.296C1370.93 627.512 1371.35 626.7 1372.33 626C1372.92 626.168 1373.56 626.224 1374.1 626.224H1376.45C1378.21 626.224 1379.19 626.644 1379.19 627.904C1379.19 629.332 1377.48 630.676 1374.88 630.676C1372.42 630.676 1370.93 629.752 1370.93 628.296ZM1368.92 628.604C1368.92 630.956 1371.21 632.272 1374.54 632.272C1378.77 632.272 1381.43 630.088 1381.43 627.568C1381.43 625.3 1379.84 624.32 1376.67 624.32H1374.04C1372.19 624.32 1371.63 623.704 1371.63 622.836C1371.63 622.08 1372.02 621.632 1372.5 621.212C1373.12 621.52 1373.87 621.688 1374.54 621.688C1377.32 621.688 1379.53 619.868 1379.53 616.956C1379.53 615.808 1379.05 614.772 1378.41 614.156H1381.21V612.392H1376.48C1375.97 612.196 1375.3 612.056 1374.54 612.056C1371.77 612.056 1369.42 613.932 1369.42 616.9C1369.42 618.524 1370.29 619.84 1371.18 620.568V620.68C1370.48 621.156 1369.7 622.052 1369.7 623.2C1369.7 624.264 1370.23 624.992 1370.9 625.412V625.524C1369.67 626.364 1368.92 627.456 1368.92 628.604ZM1374.54 620.148C1372.98 620.148 1371.66 618.888 1371.66 616.9C1371.66 614.912 1372.95 613.736 1374.54 613.736C1376.14 613.736 1377.43 614.912 1377.43 616.9C1377.43 618.888 1376.11 620.148 1374.54 620.148ZM1384.06 623.256C1384.06 625.244 1384.76 626.336 1386.5 626.336C1387.11 626.336 1387.51 626.252 1387.81 626.112L1387.51 624.376C1387.25 624.432 1387.14 624.432 1387 624.432C1386.67 624.432 1386.36 624.152 1386.36 623.424V606.064H1384.06V623.256ZM1390.19 619.224C1390.19 623.676 1393.07 626.336 1396.71 626.336C1398.56 626.336 1400.02 625.692 1401.19 624.936L1400.38 623.424C1399.37 624.068 1398.28 624.488 1396.99 624.488C1394.39 624.488 1392.63 622.64 1392.46 619.7H1401.64C1401.7 619.364 1401.73 618.916 1401.73 618.44C1401.73 614.548 1399.77 612.056 1396.29 612.056C1393.19 612.056 1390.19 614.772 1390.19 619.224ZM1392.43 618.188C1392.71 615.444 1394.45 613.876 1396.35 613.876C1398.48 613.876 1399.71 615.416 1399.71 618.188H1392.43Z" fill="#2B2B2B"/>
<line x1="1180" y1="692" x2="1180" y2="427" stroke="#6A6A6A" stroke-width="4" stroke-dasharray="8 8"/>
<line x1="1320" y1="692" x2="1320" y2="641" stroke="#6A6A6A" stroke-width="4" stroke-dasharray="8 8"/>
<line x1="1040" y1="692" x2="1040" y2="641" stroke="#6A6A6A" stroke-width="4" stroke-dasharray="8 8"/>
<line x1="778" y1="692" x2="778" y2="496" stroke="#6A6A6A" stroke-width="4" stroke-dasharray="8 8"/>
<line x1="416" y1="692" x2="416" y2="531" stroke="#6A6A6A" stroke-width="4" stroke-dasharray="8 8"/>
<path d="M296 695L1612 695" stroke="#BCBCBC" stroke-width="6"/>
<path d="M373.077 772H390.832V766.77H385.602V744.092H380.856C378.878 745.278 376.944 746.069 373.912 746.641V750.64H379.142V766.77H373.077V772ZM403.545 756.969C401.435 756.969 399.853 755.87 399.853 752.926C399.853 749.761 401.479 748.399 403.369 748.399C405.347 748.399 407.149 749.805 407.72 754.2C406.49 756.222 404.951 756.969 403.545 756.969ZM394.36 769.187C396.118 770.945 398.842 772.527 402.534 772.527C408.38 772.527 413.829 767.825 413.829 757.409C413.829 747.608 408.643 743.564 403.237 743.564C398.183 743.564 393.964 747.124 393.964 752.926C393.964 758.815 397.524 761.54 402.271 761.54C403.985 761.54 406.402 760.441 407.852 758.595C407.632 765.1 405.215 767.297 402.095 767.297C400.469 767.297 398.711 766.374 397.788 765.32L394.36 769.187ZM427.157 767.693C425.224 767.693 423.378 766.286 422.806 761.891C424.081 759.87 425.619 759.123 427.026 759.123C429.135 759.123 430.673 760.221 430.673 763.166C430.673 766.33 429.091 767.693 427.157 767.693ZM436.167 746.905C434.409 745.103 431.728 743.564 428.036 743.564C422.147 743.564 416.741 748.267 416.741 758.683C416.741 768.484 421.883 772.527 427.289 772.527C432.344 772.527 436.563 768.967 436.563 763.166C436.563 757.277 433.047 754.552 428.256 754.552C426.542 754.552 424.125 755.651 422.675 757.496C422.894 750.992 425.356 748.794 428.432 748.794C430.058 748.794 431.816 749.717 432.783 750.772L436.167 746.905ZM444.397 772H450.902C451.385 761.1 452.308 755.87 458.769 748.047V744.092H439.343V749.542H451.869C446.595 756.837 444.924 762.727 444.397 772Z" fill="#2B2B2B"/>
<path d="M415.5 681L428.923 704.25H402.077L415.5 681Z" fill="#009CDE"/>
<path d="M554.077 772H571.832V766.77H566.602V744.092H561.856C559.878 745.278 557.944 746.069 554.912 746.641V750.64H560.142V766.77H554.077V772ZM584.545 756.969C582.435 756.969 580.853 755.87 580.853 752.926C580.853 749.761 582.479 748.399 584.369 748.399C586.347 748.399 588.149 749.805 588.72 754.2C587.49 756.222 585.951 756.969 584.545 756.969ZM575.36 769.187C577.118 770.945 579.842 772.527 583.534 772.527C589.38 772.527 594.829 767.825 594.829 757.409C594.829 747.608 589.643 743.564 584.237 743.564C579.183 743.564 574.964 747.124 574.964 752.926C574.964 758.815 578.524 761.54 583.271 761.54C584.985 761.54 587.402 760.441 588.852 758.595C588.632 765.1 586.215 767.297 583.095 767.297C581.469 767.297 579.711 766.374 578.788 765.32L575.36 769.187ZM602.927 772H609.432C609.915 761.1 610.838 755.87 617.299 748.047V744.092H597.873V749.542H610.399C605.125 756.837 603.455 762.727 602.927 772ZM619.376 768.572C621.398 770.945 624.562 772.527 629.089 772.527C634.714 772.527 639.461 769.583 639.461 764.397C639.461 760.793 637.132 758.507 633.923 757.584V757.409C636.912 756.134 638.582 754.112 638.582 751.212C638.582 746.333 634.714 743.564 628.957 743.564C625.529 743.564 622.716 744.927 620.167 747.124L623.419 751.08C625.177 749.542 626.672 748.619 628.649 748.619C630.847 748.619 632.077 749.761 632.077 751.695C632.077 753.937 630.495 755.431 625.485 755.431V760.002C631.55 760.002 633 761.54 633 764.001C633 766.111 631.198 767.297 628.474 767.297C626.1 767.297 624.035 766.111 622.365 764.485L619.376 768.572Z" fill="#2B2B2B"/>
<path d="M596.5 681L609.923 704.25H583.077L596.5 681Z" fill="#009CDE"/>
<path d="M735.077 772H752.832V766.77H747.602V744.092H742.856C740.878 745.278 738.944 746.069 735.912 746.641V750.64H741.142V766.77H735.077V772ZM765.545 756.969C763.435 756.969 761.853 755.87 761.853 752.926C761.853 749.761 763.479 748.399 765.369 748.399C767.347 748.399 769.149 749.805 769.72 754.2C768.49 756.222 766.951 756.969 765.545 756.969ZM756.36 769.187C758.118 770.945 760.842 772.527 764.534 772.527C770.38 772.527 775.829 767.825 775.829 757.409C775.829 747.608 770.643 743.564 765.237 743.564C760.183 743.564 755.964 747.124 755.964 752.926C755.964 758.815 759.524 761.54 764.271 761.54C765.985 761.54 768.402 760.441 769.852 758.595C769.632 765.1 767.215 767.297 764.095 767.297C762.469 767.297 760.711 766.374 759.788 765.32L756.36 769.187ZM784.323 764.133C784.323 762.419 785.246 760.837 786.477 759.694C789.993 761.188 792.366 762.111 792.366 764.572C792.366 766.902 790.784 768.044 788.63 768.044C786.301 768.044 784.323 766.594 784.323 764.133ZM790.256 755.738C787.399 754.64 785.466 753.541 785.466 751.256C785.466 749.102 786.872 748.047 788.586 748.047C790.696 748.047 791.97 749.498 791.97 751.651C791.97 753.101 791.355 754.464 790.256 755.738ZM778.785 764.88C778.785 769.407 782.917 772.527 788.498 772.527C794.431 772.527 798.387 769.187 798.387 764.792C798.387 761.1 796.233 758.947 793.552 757.496V757.321C795.486 756.046 797.2 753.893 797.2 751.212C797.2 746.597 793.816 743.564 788.718 743.564C783.532 743.564 779.796 746.509 779.796 751.256C779.796 754.2 781.378 756.222 783.532 757.848V758.024C780.895 759.43 778.785 761.496 778.785 764.88ZM802.486 772H820.241V766.77H815.011V744.092H810.265C808.287 745.278 806.353 746.069 803.321 746.641V750.64H808.551V766.77H802.486V772Z" fill="#2B2B2B"/>
<path d="M777.5 681L790.923 704.25H764.077L777.5 681Z" fill="#009CDE"/>
<path d="M916.077 772H933.832V766.77H928.602V744.092H923.856C921.878 745.278 919.944 746.069 916.912 746.641V750.64H922.142V766.77H916.077V772ZM946.545 756.969C944.435 756.969 942.853 755.87 942.853 752.926C942.853 749.761 944.479 748.399 946.369 748.399C948.347 748.399 950.149 749.805 950.72 754.2C949.49 756.222 947.951 756.969 946.545 756.969ZM937.36 769.187C939.118 770.945 941.842 772.527 945.534 772.527C951.38 772.527 956.829 767.825 956.829 757.409C956.829 747.608 951.643 743.564 946.237 743.564C941.183 743.564 936.964 747.124 936.964 752.926C936.964 758.815 940.524 761.54 945.271 761.54C946.985 761.54 949.402 760.441 950.852 758.595C950.632 765.1 948.215 767.297 945.095 767.297C943.469 767.297 941.711 766.374 940.788 765.32L937.36 769.187ZM965.323 764.133C965.323 762.419 966.246 760.837 967.477 759.694C970.993 761.188 973.366 762.111 973.366 764.572C973.366 766.902 971.784 768.044 969.63 768.044C967.301 768.044 965.323 766.594 965.323 764.133ZM971.256 755.738C968.399 754.64 966.466 753.541 966.466 751.256C966.466 749.102 967.872 748.047 969.586 748.047C971.696 748.047 972.97 749.498 972.97 751.651C972.97 753.101 972.355 754.464 971.256 755.738ZM959.785 764.88C959.785 769.407 963.917 772.527 969.498 772.527C975.431 772.527 979.387 769.187 979.387 764.792C979.387 761.1 977.233 758.947 974.552 757.496V757.321C976.486 756.046 978.2 753.893 978.2 751.212C978.2 746.597 974.816 743.564 969.718 743.564C964.532 743.564 960.796 746.509 960.796 751.256C960.796 754.2 962.378 756.222 964.532 757.848V758.024C961.895 759.43 959.785 761.496 959.785 764.88ZM987.441 760.397L991.133 754.332C991.924 752.75 992.715 751.168 993.418 749.629H993.594C993.506 751.387 993.33 754.068 993.33 755.87V760.397H987.441ZM1002.56 760.397H999.351V744.092H991.44L981.244 760.881V765.32H993.33V772H999.351V765.32H1002.56V760.397Z" fill="#2B2B2B"/>
<path d="M958.5 681L971.923 704.25H945.077L958.5 681Z" fill="#009CDE"/>
<path d="M1097.08 772H1114.83V766.77H1109.6V744.092H1104.86C1102.88 745.278 1100.94 746.069 1097.91 746.641V750.64H1103.14V766.77H1097.08V772ZM1127.55 756.969C1125.44 756.969 1123.85 755.87 1123.85 752.926C1123.85 749.761 1125.48 748.399 1127.37 748.399C1129.35 748.399 1131.15 749.805 1131.72 754.2C1130.49 756.222 1128.95 756.969 1127.55 756.969ZM1118.36 769.187C1120.12 770.945 1122.84 772.527 1126.53 772.527C1132.38 772.527 1137.83 767.825 1137.83 757.409C1137.83 747.608 1132.64 743.564 1127.24 743.564C1122.18 743.564 1117.96 747.124 1117.96 752.926C1117.96 758.815 1121.52 761.54 1126.27 761.54C1127.98 761.54 1130.4 760.441 1131.85 758.595C1131.63 765.1 1129.22 767.297 1126.09 767.297C1124.47 767.297 1122.71 766.374 1121.79 765.32L1118.36 769.187ZM1150.01 756.969C1147.91 756.969 1146.32 755.87 1146.32 752.926C1146.32 749.761 1147.95 748.399 1149.84 748.399C1151.82 748.399 1153.62 749.805 1154.19 754.2C1152.96 756.222 1151.42 756.969 1150.01 756.969ZM1140.83 769.187C1142.59 770.945 1145.31 772.527 1149 772.527C1154.85 772.527 1160.3 767.825 1160.3 757.409C1160.3 747.608 1155.11 743.564 1149.71 743.564C1144.65 743.564 1140.43 747.124 1140.43 752.926C1140.43 758.815 1143.99 761.54 1148.74 761.54C1150.45 761.54 1152.87 760.441 1154.32 758.595C1154.1 765.1 1151.68 767.297 1148.56 767.297C1146.94 767.297 1145.18 766.374 1144.26 765.32L1140.83 769.187ZM1173.01 772.527C1178.99 772.527 1182.99 767.429 1182.99 757.936C1182.99 748.443 1178.99 743.564 1173.01 743.564C1167.03 743.564 1163.04 748.443 1163.04 757.936C1163.04 767.429 1167.03 772.527 1173.01 772.527ZM1173.01 767.517C1170.86 767.517 1169.14 765.539 1169.14 757.936C1169.14 750.289 1170.86 748.575 1173.01 748.575C1175.21 748.575 1176.88 750.289 1176.88 757.936C1176.88 765.539 1175.21 767.517 1173.01 767.517Z" fill="#2B2B2B"/>
<path d="M1139.5 681L1152.92 704.25H1126.08L1139.5 681Z" fill="#009CDE"/>
<path d="M1278.08 772H1295.83V766.77H1290.6V744.092H1285.86C1283.88 745.278 1281.94 746.069 1278.91 746.641V750.64H1284.14V766.77H1278.08V772ZM1308.55 756.969C1306.44 756.969 1304.85 755.87 1304.85 752.926C1304.85 749.761 1306.48 748.399 1308.37 748.399C1310.35 748.399 1312.15 749.805 1312.72 754.2C1311.49 756.222 1309.95 756.969 1308.55 756.969ZM1299.36 769.187C1301.12 770.945 1303.84 772.527 1307.53 772.527C1313.38 772.527 1318.83 767.825 1318.83 757.409C1318.83 747.608 1313.64 743.564 1308.24 743.564C1303.18 743.564 1298.96 747.124 1298.96 752.926C1298.96 758.815 1302.52 761.54 1307.27 761.54C1308.98 761.54 1311.4 760.441 1312.85 758.595C1312.63 765.1 1310.22 767.297 1307.09 767.297C1305.47 767.297 1303.71 766.374 1302.79 765.32L1299.36 769.187ZM1331.01 756.969C1328.91 756.969 1327.32 755.87 1327.32 752.926C1327.32 749.761 1328.95 748.399 1330.84 748.399C1332.82 748.399 1334.62 749.805 1335.19 754.2C1333.96 756.222 1332.42 756.969 1331.01 756.969ZM1321.83 769.187C1323.59 770.945 1326.31 772.527 1330 772.527C1335.85 772.527 1341.3 767.825 1341.3 757.409C1341.3 747.608 1336.11 743.564 1330.71 743.564C1325.65 743.564 1321.43 747.124 1321.43 752.926C1321.43 758.815 1324.99 761.54 1329.74 761.54C1331.45 761.54 1333.87 760.441 1335.32 758.595C1335.1 765.1 1332.68 767.297 1329.56 767.297C1327.94 767.297 1326.18 766.374 1325.26 765.32L1321.83 769.187ZM1353.48 756.969C1351.37 756.969 1349.79 755.87 1349.79 752.926C1349.79 749.761 1351.42 748.399 1353.31 748.399C1355.29 748.399 1357.09 749.805 1357.66 754.2C1356.43 756.222 1354.89 756.969 1353.48 756.969ZM1344.3 769.187C1346.06 770.945 1348.78 772.527 1352.47 772.527C1358.32 772.527 1363.77 767.825 1363.77 757.409C1363.77 747.608 1358.58 743.564 1353.18 743.564C1348.12 743.564 1343.9 747.124 1343.9 752.926C1343.9 758.815 1347.46 761.54 1352.21 761.54C1353.92 761.54 1356.34 760.441 1357.79 758.595C1357.57 765.1 1355.15 767.297 1352.03 767.297C1350.41 767.297 1348.65 766.374 1347.73 765.32L1344.3 769.187Z" fill="#2B2B2B"/>
<path d="M1320.5 681L1333.92 704.25H1307.08L1320.5 681Z" fill="#009CDE"/>
<path d="M1457.63 772H1477.27V766.55H1471.65C1470.33 766.55 1468.39 766.726 1466.99 766.902C1471.51 762.155 1475.91 757.145 1475.91 752.442C1475.91 747.08 1472.17 743.564 1466.68 743.564C1462.68 743.564 1460.09 745.059 1457.32 748.003L1460.83 751.475C1462.24 749.981 1463.78 748.619 1465.8 748.619C1468.22 748.619 1469.76 750.113 1469.76 752.838C1469.76 756.793 1464.75 761.584 1457.63 768.308V772ZM1490.07 772.527C1496.05 772.527 1500.05 767.429 1500.05 757.936C1500.05 748.443 1496.05 743.564 1490.07 743.564C1484.1 743.564 1480.1 748.443 1480.1 757.936C1480.1 767.429 1484.1 772.527 1490.07 772.527ZM1490.07 767.517C1487.92 767.517 1486.2 765.539 1486.2 757.936C1486.2 750.289 1487.92 748.575 1490.07 748.575C1492.27 748.575 1493.94 750.289 1493.94 757.936C1493.94 765.539 1492.27 767.517 1490.07 767.517ZM1504.02 772H1521.77V766.77H1516.54V744.092H1511.8C1509.82 745.278 1507.88 746.069 1504.85 746.641V750.64H1510.08V766.77H1504.02V772ZM1525.04 772H1544.68V766.55H1539.06C1537.74 766.55 1535.8 766.726 1534.4 766.902C1538.92 762.155 1543.32 757.145 1543.32 752.442C1543.32 747.08 1539.58 743.564 1534.09 743.564C1530.09 743.564 1527.5 745.059 1524.73 748.003L1528.24 751.475C1529.65 749.981 1531.19 748.619 1533.21 748.619C1535.63 748.619 1537.17 750.113 1537.17 752.838C1537.17 756.793 1532.16 761.584 1525.04 768.308V772Z" fill="#2B2B2B"/>
<path d="M1501.5 681L1514.92 704.25H1488.08L1501.5 681Z" fill="#009CDE"/>
</svg>
