<svg width="1920" height="1080" viewBox="0 0 1920 1080" fill="none" xmlns="http://www.w3.org/2000/svg">
<rect width="1920" height="1080" fill="white"/>
<path d="M1288.28 295H710.82V619.73H1288.28V295Z" fill="white" stroke="#2B2B2B" stroke-width="4.5" stroke-miterlimit="10" stroke-linecap="round"/>
<path d="M956.97 562.24V347.14" stroke="#2B2B2B" stroke-width="6.23" stroke-miterlimit="10"/>
<path d="M1043.86 562.24V347.14" stroke="#2B2B2B" stroke-width="6.23" stroke-miterlimit="10"/>
<path d="M869.05 562.24V347.14" stroke="#2B2B2B" stroke-width="6.23" stroke-miterlimit="10"/>
<path d="M1131.1 561.98V346.88" stroke="#2B2B2B" stroke-width="6.23" stroke-miterlimit="10"/>
<path d="M906.29 391.27H884.22V413.34H906.29V391.27Z" fill="white"/>
<path d="M906.29 391.27H884.22V413.34H906.29V391.27Z" stroke="#6A6A6A" stroke-width="3.12" stroke-miterlimit="10"/>
<path d="M940.77 391.27H918.7V413.34H940.77V391.27Z" fill="white"/>
<path d="M940.77 391.27H918.7V413.34H940.77V391.27Z" stroke="#6A6A6A" stroke-width="3.12" stroke-miterlimit="10"/>
<path d="M994.21 391.27H972.14V413.34H994.21V391.27Z" fill="white"/>
<path d="M994.21 391.27H972.14V413.34H994.21V391.27Z" stroke="#6A6A6A" stroke-width="3.12" stroke-miterlimit="10"/>
<path d="M1028.69 391.27H1006.62V413.34H1028.69V391.27Z" fill="white"/>
<path d="M1028.69 391.27H1006.62V413.34H1028.69V391.27Z" stroke="#6A6A6A" stroke-width="3.12" stroke-miterlimit="10"/>
<path d="M1081.45 391.27H1059.38V413.34H1081.45V391.27Z" fill="white"/>
<path d="M1081.45 391.27H1059.38V413.34H1081.45V391.27Z" stroke="#6A6A6A" stroke-width="3.12" stroke-miterlimit="10"/>
<path d="M1115.93 391.27H1093.86V413.34H1115.93V391.27Z" fill="white"/>
<path d="M1115.93 391.27H1093.86V413.34H1115.93V391.27Z" stroke="#6A6A6A" stroke-width="3.12" stroke-miterlimit="10"/>
<path d="M1081.45 424.7H1059.38V446.77H1081.45V424.7Z" fill="white"/>
<path d="M1081.45 424.7H1059.38V446.77H1081.45V424.7Z" stroke="#6A6A6A" stroke-width="3.12" stroke-miterlimit="10"/>
<path d="M1081.45 458.12H1059.38V480.19H1081.45V458.12Z" fill="white"/>
<path d="M1081.45 458.12H1059.38V480.19H1081.45V458.12Z" stroke="#6A6A6A" stroke-width="3.12" stroke-miterlimit="10"/>
<path d="M1115.93 424.7H1093.86V446.77H1115.93V424.7Z" fill="white"/>
<path d="M1115.93 424.7H1093.86V446.77H1115.93V424.7Z" stroke="#6A6A6A" stroke-width="3.12" stroke-miterlimit="10"/>
<path d="M1168.52 391.27H1146.45V413.34H1168.52V391.27Z" fill="white"/>
<path d="M1168.52 391.27H1146.45V413.34H1168.52V391.27Z" stroke="#6A6A6A" stroke-width="3.12" stroke-miterlimit="10"/>
<path d="M1203 391.27H1180.93V413.34H1203V391.27Z" fill="white"/>
<path d="M1203 391.27H1180.93V413.34H1203V391.27Z" stroke="#6A6A6A" stroke-width="3.12" stroke-miterlimit="10"/>
<path d="M1168.52 424.7H1146.45V446.77H1168.52V424.7Z" fill="white"/>
<path d="M1168.52 424.7H1146.45V446.77H1168.52V424.7Z" stroke="#6A6A6A" stroke-width="3.12" stroke-miterlimit="10"/>
<path d="M1168.52 458.12H1146.45V480.19H1168.52V458.12Z" fill="white"/>
<path d="M1168.52 458.12H1146.45V480.19H1168.52V458.12Z" stroke="#6A6A6A" stroke-width="3.12" stroke-miterlimit="10"/>
<path d="M1203 424.7H1180.93V446.77H1203V424.7Z" fill="white"/>
<path d="M1203 424.7H1180.93V446.77H1203V424.7Z" stroke="#6A6A6A" stroke-width="3.12" stroke-miterlimit="10"/>
<path d="M1203 458.12H1180.93V480.19H1203V458.12Z" fill="white"/>
<path d="M1203 458.12H1180.93V480.19H1203V458.12Z" stroke="#6A6A6A" stroke-width="3.12" stroke-miterlimit="10"/>
<path d="M906.29 424.7H884.22V446.77H906.29V424.7Z" fill="white"/>
<path d="M906.29 424.7H884.22V446.77H906.29V424.7Z" stroke="#6A6A6A" stroke-width="3.12" stroke-miterlimit="10"/>
<g style="mix-blend-mode:multiply" opacity="0.2">
<g style="mix-blend-mode:multiply" opacity="0.2">
<path d="M943.57 425.912L940.59 447.78L962.457 450.76L965.437 428.892L943.57 425.912Z" fill="black"/>
</g>
<g style="mix-blend-mode:multiply" opacity="0.2">
<path d="M943.57 425.912L940.59 447.78L962.457 450.76L965.437 428.892L943.57 425.912Z" stroke="black" stroke-width="3.12" stroke-miterlimit="10"/>
</g>
</g>
<path d="M940.983 423.308L938.003 445.176L959.871 448.156L962.851 426.288L940.983 423.308Z" fill="white"/>
<path d="M940.983 423.308L938.003 445.176L959.871 448.156L962.851 426.288L940.983 423.308Z" stroke="#6A6A6A" stroke-width="3.12" stroke-miterlimit="10"/>
<path d="M906.29 458.12H884.22V480.19H906.29V458.12Z" fill="white"/>
<path d="M906.29 458.12H884.22V480.19H906.29V458.12Z" stroke="#6A6A6A" stroke-width="3.12" stroke-miterlimit="10"/>
<path d="M940.77 458.12H918.7V480.19H940.77V458.12Z" fill="white"/>
<path d="M940.77 458.12H918.7V480.19H940.77V458.12Z" stroke="#6A6A6A" stroke-width="3.12" stroke-miterlimit="10"/>
<path d="M818 391.27H795.93V413.34H818V391.27Z" fill="white"/>
<path d="M818 391.27H795.93V413.34H818V391.27Z" stroke="#6A6A6A" stroke-width="3.12" stroke-miterlimit="10"/>
<path d="M852.48 391.27H830.41V413.34H852.48V391.27Z" fill="white"/>
<path d="M852.48 391.27H830.41V413.34H852.48V391.27Z" stroke="#6A6A6A" stroke-width="3.12" stroke-miterlimit="10"/>
<path d="M818 424.7H795.93V446.77H818V424.7Z" fill="white"/>
<path d="M818 424.7H795.93V446.77H818V424.7Z" stroke="#6A6A6A" stroke-width="3.12" stroke-miterlimit="10"/>
<path d="M852.48 424.7H830.41V446.77H852.48V424.7Z" fill="white"/>
<path d="M852.48 424.7H830.41V446.77H852.48V424.7Z" stroke="#6A6A6A" stroke-width="3.12" stroke-miterlimit="10"/>
<path d="M940.77 349.07H884.22V357.96H940.77V349.07Z" fill="#6A6A6A" stroke="#6A6A6A" stroke-width="3.12" stroke-miterlimit="10"/>
<path d="M1028.69 349.07H972.14V357.96H1028.69V349.07Z" fill="#6A6A6A" stroke="#6A6A6A" stroke-width="3.12" stroke-miterlimit="10"/>
<path d="M1115.93 349.07H1059.38V357.96H1115.93V349.07Z" fill="#6A6A6A" stroke="#6A6A6A" stroke-width="3.12" stroke-miterlimit="10"/>
<path d="M1203.18 349.07H1146.63V357.96H1203.18V349.07Z" fill="#6A6A6A" stroke="#6A6A6A" stroke-width="3.12" stroke-miterlimit="10"/>
<path d="M852.48 349.07H795.93V357.96H852.48V349.07Z" fill="#6A6A6A" stroke="#6A6A6A" stroke-width="3.12" stroke-miterlimit="10"/>
<path d="M1048.41 723.06C1047.34 714.86 1048.41 714.49 1046.09 697.48C1038.44 640.41 1037.09 633.31 1039.61 621.75C1044.61 598.83 1062.2 571.27 1083.14 570.37C1113.53 569.05 1133.83 628.28 1135.44 633.14C1150.53 678.56 1138.77 706.14 1132.33 723.06C1105.75 722.75 1074.91 723.42 1048.41 723.06Z" fill="#2B2B2B" stroke="#2B2B2B" stroke-width="6.5" stroke-linecap="round" stroke-linejoin="round"/>
<path d="M1035.49 560.651C1030.48 560.963 1025.48 559.84 1021.08 557.413C1016.69 554.986 1013.07 551.356 1010.67 546.949C1008.26 542.541 1007.16 537.539 1007.5 532.528C1007.83 527.518 1009.59 522.707 1012.56 518.659C1015.53 514.612 1019.6 511.496 1024.28 509.676C1028.96 507.857 1034.06 507.41 1038.99 508.387C1043.91 509.364 1048.46 511.726 1052.09 515.194C1055.72 518.663 1058.29 523.095 1059.49 527.971" fill="white"/>
<path d="M1035.49 560.651C1030.48 560.963 1025.48 559.84 1021.08 557.413C1016.69 554.986 1013.07 551.356 1010.67 546.949C1008.26 542.541 1007.16 537.539 1007.5 532.528C1007.83 527.518 1009.59 522.707 1012.56 518.659C1015.53 514.612 1019.6 511.496 1024.28 509.676C1028.96 507.857 1034.06 507.41 1038.99 508.387C1043.91 509.364 1048.46 511.726 1052.09 515.194C1055.72 518.663 1058.29 523.095 1059.49 527.971" stroke="#2B2B2B" stroke-width="5.45" stroke-linecap="round" stroke-linejoin="round"/>
<path d="M982.99 631.23H992.86V537.46H982.99V631.23Z" fill="#6A6A6A" stroke="#2B2B2B" stroke-width="5.99" stroke-linecap="round" stroke-linejoin="round"/>
<path d="M987.52 614.001C1000.29 614.001 1010.64 602.848 1010.64 589.091C1010.64 575.333 1000.29 564.181 987.52 564.181C974.751 564.181 964.4 575.333 964.4 589.091C964.4 602.848 974.751 614.001 987.52 614.001Z" fill="white" stroke="#2B2B2B" stroke-width="5.99" stroke-linecap="round" stroke-linejoin="round"/>
<path d="M1072.73 492.871C1079.49 493.59 1086 495.858 1091.75 499.5C1097.49 503.142 1102.32 508.06 1105.86 513.871C1109.94 512.241 1119.22 550.191 1119.07 582.681C1116.56 614.341 1085.12 632.441 1056.28 632.441C1044.82 632.44 1033.64 628.824 1024.36 622.106C1015.07 615.388 1008.13 605.911 1004.54 595.024C1000.95 584.138 1000.89 572.395 1004.36 561.47C1007.83 550.544 1014.66 540.991 1023.87 534.171C1024.75 519.711 1034.22 504.781 1044.05 499.701C1044.05 499.701 1052.94 492.241 1072.73 492.891" fill="white"/>
<path d="M1072.73 492.871C1079.49 493.59 1086 495.858 1091.75 499.5C1097.49 503.142 1102.32 508.06 1105.86 513.871C1109.94 512.241 1119.22 550.191 1119.07 582.681C1116.56 614.341 1085.12 632.441 1056.28 632.441C1044.82 632.44 1033.64 628.824 1024.36 622.106C1015.07 615.388 1008.13 605.911 1004.54 595.024C1000.95 584.138 1000.89 572.395 1004.36 561.47C1007.83 550.544 1014.66 540.991 1023.87 534.171C1024.75 519.711 1034.22 504.781 1044.05 499.701C1044.05 499.701 1052.94 492.241 1072.73 492.891" stroke="#2B2B2B" stroke-width="5.45" stroke-linecap="round" stroke-linejoin="round"/>
<path d="M1096.02 592.09C1096.09 594.793 1095.47 597.469 1094.22 599.868C1092.98 602.268 1091.14 604.312 1088.89 605.81C1086.64 607.308 1084.04 608.211 1081.35 608.435C1078.65 608.659 1075.95 608.196 1073.48 607.09" stroke="#2B2B2B" stroke-width="5.99" stroke-linecap="round" stroke-linejoin="round"/>
<path d="M1093.32 524.03C1098.95 513.87 1111.41 507.75 1122.08 507.75C1127.59 507.747 1133.02 509.017 1137.95 511.462C1142.88 513.907 1147.18 517.461 1150.51 521.844C1153.84 526.228 1156.11 531.323 1157.15 536.73C1158.18 542.138 1157.95 547.711 1156.47 553.014C1154.99 558.317 1152.31 563.206 1148.62 567.298C1144.94 571.39 1140.36 574.574 1135.24 576.602C1130.12 578.63 1124.61 579.445 1119.12 578.985C1113.63 578.525 1108.33 576.802 1103.62 573.95" fill="white"/>
<path d="M1093.32 524.03C1098.95 513.87 1111.41 507.75 1122.08 507.75C1127.59 507.747 1133.02 509.017 1137.95 511.462C1142.88 513.907 1147.18 517.461 1150.51 521.844C1153.84 526.228 1156.11 531.323 1157.15 536.73C1158.18 542.138 1157.95 547.711 1156.47 553.014C1154.99 558.317 1152.31 563.206 1148.62 567.298C1144.94 571.39 1140.36 574.574 1135.24 576.602C1130.12 578.63 1124.61 579.445 1119.12 578.985C1113.63 578.525 1108.33 576.802 1103.62 573.95" stroke="#2B2B2B" stroke-width="5.45" stroke-linecap="round" stroke-linejoin="round"/>
<path d="M1123.34 529.67C1126.76 529.67 1130.04 531.029 1132.46 533.448C1134.88 535.867 1136.24 539.149 1136.24 542.57" stroke="#2B2B2B" stroke-width="3.63" stroke-linecap="round" stroke-linejoin="round"/>
<path d="M1048.55 570.42C1047.1 570.783 1045.76 571.494 1044.65 572.491C1043.54 573.487 1042.69 574.74 1042.17 576.14" stroke="#2B2B2B" stroke-width="5.99" stroke-linecap="round" stroke-linejoin="round"/>
<path d="M1021.34 569.88C1022.79 570.242 1024.12 570.952 1025.24 571.947C1026.35 572.941 1027.2 574.192 1027.72 575.59" stroke="#2B2B2B" stroke-width="5.99" stroke-linecap="round" stroke-linejoin="round"/>
<path d="M1070.54 549.031C1072.82 549.031 1074.67 547.181 1074.67 544.9C1074.67 542.62 1072.82 540.771 1070.54 540.771C1068.26 540.771 1066.41 542.62 1066.41 544.9C1066.41 547.181 1068.26 549.031 1070.54 549.031Z" fill="#2B2B2B" stroke="#2B2B2B" stroke-width="5.99" stroke-miterlimit="10" stroke-linecap="round"/>
<path d="M1038.19 549.031C1040.47 549.031 1042.32 547.181 1042.32 544.9C1042.32 542.62 1040.47 540.771 1038.19 540.771C1035.91 540.771 1034.06 542.62 1034.06 544.9C1034.06 547.181 1035.91 549.031 1038.19 549.031Z" fill="#2B2B2B" stroke="#2B2B2B" stroke-width="5.99" stroke-miterlimit="10" stroke-linecap="round"/>
<path d="M1072.73 492.87C1079.49 493.589 1086 495.858 1091.75 499.5C1097.49 503.142 1102.32 508.059 1105.86 513.87C1106.01 513.82 1106.17 513.82 1106.32 513.87C1102.53 515.674 1099.13 518.205 1096.32 521.32C1096.05 521.618 1095.73 521.86 1095.37 522.031C1095.01 522.203 1094.62 522.301 1094.22 522.319C1093.82 522.338 1093.43 522.277 1093.05 522.14C1092.68 522.002 1092.33 521.792 1092.04 521.52C1086.83 516.743 1080.18 513.838 1073.14 513.265C1066.1 512.693 1059.07 514.486 1053.16 518.36C1052.06 519.087 1050.74 519.405 1049.43 519.259C1048.13 519.112 1046.91 518.511 1046 517.56C1042.54 513.92 1036.23 512.66 1030.63 519.17C1030.43 516.526 1030.9 513.874 1031.98 511.452C1033.06 509.031 1034.73 506.917 1036.83 505.3C1044.05 499.68 1053.13 492.03 1072.73 492.87Z" fill="#2B2B2B"/>
<path d="M982.99 631.23H992.86V621.36H982.99V631.23Z" fill="white" stroke="#2B2B2B" stroke-width="5.99" stroke-linecap="round" stroke-linejoin="round"/>
<path d="M992.86 537.47H982.99L987.92 524.74L992.86 537.47Z" fill="white" stroke="#2B2B2B" stroke-width="5.99" stroke-linecap="round" stroke-linejoin="round"/>
<path d="M1212.91 432.18C1198.75 429.65 1199.67 420.5 1201.77 414.72C1193.11 415.34 1187.85 423.23 1192.51 430.62C1174.86 428.88 1165.71 422.11 1162.64 413.41C1153.19 422.41 1154.54 434.8 1166.99 438.93C1142.18 443.55 1120.67 429.08 1120.67 429.08C1120.67 429.08 1101.41 453.75 1130.41 484.38" fill="#6A6A6A"/>
<path d="M1212.91 432.18C1198.75 429.65 1199.67 420.5 1201.77 414.72C1193.11 415.34 1187.85 423.23 1192.51 430.62C1174.86 428.88 1165.71 422.11 1162.64 413.41C1153.19 422.41 1154.54 434.8 1166.99 438.93C1142.18 443.55 1120.67 429.08 1120.67 429.08C1120.67 429.08 1101.41 453.75 1130.41 484.38" stroke="#2B2B2B" stroke-width="9" stroke-linecap="round" stroke-linejoin="round"/>
<path d="M1305.21 700.47C1306.8 690.99 1305.21 690.56 1308.65 670.89C1320 604.89 1322.02 596.64 1318.26 583.27C1310.79 556.75 1284.76 524.87 1253.71 523.82C1208.64 522.3 1178.54 590.82 1176.15 596.45C1153.78 648.99 1171.22 680.88 1180.76 700.45C1220.12 700.06 1265.85 700.89 1305.21 700.47Z" fill="#6A6A6A" stroke="#2B2B2B" stroke-width="9" stroke-linecap="round" stroke-linejoin="round"/>
<path d="M1207.62 525.33C1164.88 528.69 1126.04 530.16 1115.39 572.45C1130.25 562.25 1138.78 572.2 1138.78 572.2" fill="#6A6A6A"/>
<path d="M1207.62 525.33C1164.88 528.69 1126.04 530.16 1115.39 572.45C1130.25 562.25 1138.78 572.2 1138.78 572.2" stroke="#2B2B2B" stroke-width="9" stroke-linecap="round" stroke-linejoin="round"/>
<path d="M1131.66 495.1C1131.31 502.96 1131.66 516.59 1115.99 512.47C1114.9 522.52 1126.6 539.15 1151.78 533.37" fill="#6A6A6A"/>
<path d="M1131.66 495.1C1131.31 502.96 1131.66 516.59 1115.99 512.47C1114.9 522.52 1126.6 539.15 1151.78 533.37" stroke="#2B2B2B" stroke-width="9" stroke-linecap="round" stroke-linejoin="round"/>
<path d="M1202.07 567.25C1239.4 567.25 1269.67 536.984 1269.67 499.65C1269.67 462.315 1239.4 432.05 1202.07 432.05C1164.74 432.05 1134.47 462.315 1134.47 499.65C1134.47 536.984 1164.74 567.25 1202.07 567.25Z" fill="#6A6A6A" stroke="#2B2B2B" stroke-width="9" stroke-miterlimit="10" stroke-linecap="round"/>
<path d="M1229.07 441.84C1240.14 421.43 1262.88 401.55 1285.42 410.96C1274.42 449.96 1285.73 462.22 1264.12 503.19C1271.92 513.02 1291.29 510.63 1291.29 510.63C1292.37 520.68 1282.06 543.51 1249.05 537.94C1252.74 542.699 1257.56 546.457 1263.08 548.87C1268.6 551.283 1274.63 552.273 1280.63 551.75C1254.4 589.5 1218.33 571.99 1177.5 559.13" fill="#6A6A6A"/>
<path d="M1229.07 441.84C1240.14 421.43 1262.88 401.55 1285.42 410.96C1274.42 449.96 1285.73 462.22 1264.12 503.19C1271.92 513.02 1291.29 510.63 1291.29 510.63C1292.37 520.68 1282.06 543.51 1249.05 537.94C1252.74 542.699 1257.56 546.457 1263.08 548.87C1268.6 551.283 1274.63 552.273 1280.63 551.75C1254.4 589.5 1218.33 571.99 1177.5 559.13" stroke="#2B2B2B" stroke-width="9" stroke-linecap="round" stroke-linejoin="round"/>
<path d="M1143.9 551.75C1155.03 520.41 1169.98 497.92 1173.02 471.18C1173.02 467.405 1174.41 463.761 1176.91 460.932C1179.41 458.103 1182.85 456.284 1186.6 455.817C1190.35 455.349 1194.13 456.265 1197.25 458.392C1200.37 460.519 1202.61 463.711 1203.54 467.37C1215.37 493.52 1225.28 546.52 1225.37 572.18C1225.37 572.76 1225.37 573.31 1225.37 573.84C1225.37 600.71 1211.08 609.84 1182.12 606.91C1148.97 603.53 1137.06 589.64 1138.82 572.18C1139.52 564.85 1140.64 557.86 1143.9 551.75Z" fill="white" stroke="#2B2B2B" stroke-width="6" stroke-linecap="round" stroke-linejoin="round"/>
<path d="M1167.47 570.97L1173.73 564.28C1174.4 563.567 1175.22 563.021 1176.14 562.689C1177.06 562.356 1178.04 562.246 1179.01 562.367C1179.98 562.488 1180.91 562.837 1181.71 563.385C1182.52 563.933 1183.19 564.665 1183.66 565.52L1188.12 573.64C1188.67 574.641 1188.93 575.775 1188.87 576.914C1188.81 578.054 1188.44 579.155 1187.79 580.097C1187.15 581.038 1186.26 581.782 1185.21 582.247C1184.17 582.712 1183.02 582.879 1181.89 582.73L1171.18 581.32C1170.05 581.172 1168.99 580.717 1168.1 580.004C1167.22 579.291 1166.55 578.347 1166.17 577.278C1165.78 576.208 1165.7 575.053 1165.93 573.94C1166.16 572.828 1166.69 571.8 1167.47 570.97Z" fill="#2B2B2B" stroke="#2B2B2B" stroke-width="8.84" stroke-linecap="round" stroke-linejoin="round"/>
<path d="M1221.2 517.583C1236.72 515.526 1248.05 504.459 1246.51 492.863C1244.98 481.267 1231.15 473.533 1215.64 475.59C1200.12 477.646 1188.79 488.714 1190.32 500.31C1191.86 511.906 1205.68 519.639 1221.2 517.583Z" fill="white" stroke="#2B2B2B" stroke-width="6" stroke-linecap="round" stroke-linejoin="round"/>
<path d="M1179.1 500.424C1180.64 488.828 1169.99 477.851 1155.31 475.906C1140.64 473.962 1127.5 481.786 1125.96 493.382C1124.43 504.978 1135.07 515.954 1149.75 517.899C1164.42 519.844 1177.56 512.02 1179.1 500.424Z" fill="white" stroke="#2B2B2B" stroke-width="6" stroke-linecap="round" stroke-linejoin="round"/>
<path d="M1207.13 502.59C1209.37 502.59 1211.19 500.772 1211.19 498.53C1211.19 496.287 1209.37 494.47 1207.13 494.47C1204.89 494.47 1203.07 496.287 1203.07 498.53C1203.07 500.772 1204.89 502.59 1207.13 502.59Z" fill="#6A6A6A" stroke="#2B2B2B" stroke-width="6" stroke-miterlimit="10" stroke-linecap="round"/>
<path d="M1148.93 502.59C1151.17 502.59 1152.99 500.772 1152.99 498.53C1152.99 496.287 1151.17 494.47 1148.93 494.47C1146.69 494.47 1144.87 496.287 1144.87 498.53C1144.87 500.772 1146.69 502.59 1148.93 502.59Z" fill="#6A6A6A" stroke="#2B2B2B" stroke-width="6" stroke-miterlimit="10" stroke-linecap="round"/>
<path d="M1440.61 595.11C1417.93 553.86 1359.74 515.72 1336.48 529.3C1336.48 529.3 1294.96 559.22 1324.76 629.53C1354.56 699.84 1483.41 742.91 1483.41 742.91C1483.41 742.91 1474.79 732.17 1468.14 713.02C1461.49 693.87 1482.7 717.33 1482.7 717.33C1482.7 717.33 1476.18 691.14 1463.58 682.83C1450.98 674.52 1478.12 677.74 1478.12 677.74C1478.12 677.74 1470.44 659.74 1460.22 654.46C1450 649.18 1455.22 632.81 1464.12 627.66C1467.38 625.78 1464.54 622.22 1460.32 618.82C1452.27 612.279 1445.57 604.224 1440.61 595.11Z" fill="white" stroke="#2B2B2B" stroke-width="6.75" stroke-linecap="round" stroke-linejoin="round"/>
<path d="M1474.28 753.37C1504.16 736.12 1500.21 673.335 1465.45 613.137C1430.7 552.939 1378.3 518.124 1348.42 535.374C1318.55 552.625 1322.5 615.409 1357.25 675.607C1392.01 735.805 1444.41 770.621 1474.28 753.37Z" fill="white" stroke="#2B2B2B" stroke-width="6.75" stroke-linecap="round" stroke-linejoin="round"/>
<path d="M1406.5 390.41C1414.62 480.29 1335.98 448.76 1358.55 548.86L1406.5 390.41Z" fill="white"/>
<path d="M1406.5 390.41C1414.62 480.29 1335.98 448.76 1358.55 548.86" stroke="#2B2B2B" stroke-width="41.55" stroke-miterlimit="10"/>
<path d="M1406.5 390.41C1414.62 480.29 1335.98 448.76 1358.55 548.86" stroke="white" stroke-width="27.7" stroke-miterlimit="10" stroke-linecap="round"/>
<path d="M1393.52 437.39C1385.96 440.15 1377.81 440.91 1369.87 439.596C1361.92 438.283 1354.45 434.94 1348.18 429.893C1341.91 424.845 1337.05 418.263 1334.07 410.785C1331.09 403.307 1330.09 395.185 1331.17 387.207C1332.24 379.229 1335.37 371.665 1340.23 365.247C1345.09 358.829 1351.52 353.775 1358.91 350.575C1366.3 347.375 1374.39 346.136 1382.39 346.98C1390.4 347.824 1398.05 350.72 1404.61 355.39C1413.23 356.3 1415.76 347.04 1415.76 347.04C1423.58 351.4 1425.65 359.73 1416.29 367.39C1421.47 375.091 1424.24 384.167 1424.22 393.45V402.51" fill="white"/>
<path d="M1376.64 497.63C1365.03 490.977 1351.42 488.69 1338.27 491.18L1334.86 513.58C1346.16 508.89 1362.13 508.58 1373.94 516.15L1376.64 497.63Z" fill="#2B2B2B"/>
<path d="M1393.52 437.39C1385.96 440.15 1377.81 440.91 1369.87 439.596C1361.92 438.283 1354.45 434.94 1348.18 429.893C1341.91 424.845 1337.05 418.263 1334.07 410.785C1331.09 403.307 1330.09 395.185 1331.17 387.207C1332.24 379.229 1335.37 371.665 1340.23 365.247C1345.09 358.829 1351.52 353.775 1358.91 350.575C1366.3 347.375 1374.39 346.136 1382.39 346.98C1390.4 347.824 1398.05 350.72 1404.61 355.39C1413.23 356.3 1415.76 347.04 1415.76 347.04C1423.58 351.4 1425.65 359.73 1416.29 367.39C1421.47 375.091 1424.24 384.167 1424.22 393.45V407.88" stroke="#2B2B2B" stroke-width="6.75" stroke-linecap="round" stroke-linejoin="round"/>
<path d="M1389.01 393.48C1391.64 393.48 1393.78 391.345 1393.78 388.71C1393.78 386.076 1391.64 383.94 1389.01 383.94C1386.38 383.94 1384.24 386.076 1384.24 388.71C1384.24 391.345 1386.38 393.48 1389.01 393.48Z" fill="#2B2B2B" stroke="#2B2B2B" stroke-width="6.92" stroke-miterlimit="10" stroke-linecap="round"/>
<path d="M1335.26 379.01C1338.67 377.51 1342.4 376.896 1346.11 377.227C1349.82 377.557 1353.39 378.821 1356.48 380.9" stroke="#2B2B2B" stroke-width="6.75" stroke-miterlimit="10" stroke-linecap="round"/>
<path d="M1333.63 380.64C1305.36 419.64 1275.88 462.93 1246.41 524.18C1246.41 524.18 1295.62 478.92 1365.25 422.4" fill="white"/>
<path d="M1333.63 380.64C1305.36 419.64 1275.88 462.93 1246.41 524.18C1246.41 524.18 1295.62 478.92 1365.25 422.4" stroke="#2B2B2B" stroke-width="6.75" stroke-linecap="round" stroke-linejoin="round"/>
<path d="M1479.6 588.2C1453.87 548.78 1392.96 515.2 1370.8 530.46C1370.8 530.46 1331.65 563.46 1366.68 631.28C1401.71 699.1 1533.41 732.35 1533.41 732.35C1533.41 732.35 1524 722.29 1515.92 703.7C1507.84 685.11 1530.77 706.89 1530.77 706.89C1530.77 706.89 1522.29 681.27 1509.09 673.94C1495.89 666.61 1523.21 667.76 1523.21 667.76C1523.21 667.76 1514.21 650.37 1503.61 645.9C1493.01 641.43 1496.96 624.69 1505.46 618.9C1508.58 616.77 1505.46 613.44 1501 610.37C1492.49 604.443 1485.22 596.912 1479.6 588.2Z" fill="white" stroke="#2B2B2B" stroke-width="6.75" stroke-linecap="round" stroke-linejoin="round"/>
<path d="M1343.26 502.41L1333.18 556.04L1348.6 573.67L1364.01 556.04L1353.93 502.41" fill="#2B2B2B"/>
<path d="M1343.26 502.41L1333.18 556.04L1348.6 573.67L1364.01 556.04L1353.93 502.41" stroke="#2B2B2B" stroke-width="6.23" stroke-linecap="round" stroke-linejoin="round"/>
<path d="M1476.11 767.94C1474.56 758.46 1476.11 758.03 1472.75 738.35C1461.66 672.35 1459.68 664.1 1463.36 650.74C1470.66 624.21 1496.09 592.34 1526.42 591.29C1570.42 589.77 1599.85 658.29 1602.19 663.91C1624.04 716.46 1607 748.35 1597.68 767.91C1559.24 767.52 1514.56 768.36 1476.11 767.94Z" fill="#2B2B2B" stroke="#2B2B2B" stroke-width="8.41" stroke-linecap="round" stroke-linejoin="round"/>
<path d="M415.25 742.08C418.94 755.87 430.67 765.49 443.67 764.39C450.09 763.793 456.029 760.732 460.24 755.85C465.82 763.93 474.69 768.85 484.24 768.04C490.707 767.445 496.696 764.379 500.96 759.48C504.43 768.61 512.69 774.73 521.77 773.96C532.58 773.04 540.6 762.72 540.34 750.52C543.784 751.858 547.488 752.392 551.17 752.08C562.05 751.16 570.8 743.08 574.28 732.14C578.49 737.93 584.99 741.42 591.97 740.83C602.33 739.95 610.13 730.43 610.53 718.9C614.051 721.295 618.285 722.414 622.53 722.07C633.84 721.12 642.12 709.87 641.02 696.95C640.08 685.8 632.47 677.07 623.13 675.49C623.383 673.319 623.419 671.128 623.24 668.95C621.87 652.77 609.24 640.63 595.13 641.82C591.642 642.118 588.268 643.212 585.27 645.02C586.253 641.281 586.591 637.402 586.27 633.55C584.87 616.97 571.97 604.55 557.46 605.74C553.87 606.092 550.399 607.223 547.291 609.054C544.182 610.885 541.51 613.371 539.46 616.34C534.98 604.6 524.41 596.75 512.71 597.75C503.94 598.49 496.61 604.07 492.48 612.02C487.07 604.88 478.91 600.6 470.14 601.35C455.65 602.57 445.04 616.96 446.4 633.51C441.14 629.299 434.479 627.241 427.76 627.75C411.84 629.09 400.19 644.93 401.76 663.12C402.329 670.326 405.054 677.194 409.58 682.83C409.58 682.83 394.94 684.02 387.58 703.11C380.22 722.2 391.41 743.52 415.25 742.08Z" fill="white" stroke="#2B2B2B" stroke-width="6.75" stroke-linecap="round" stroke-linejoin="round"/>
<path d="M708.04 548.49C744.51 514.9 793.33 487.66 815.92 475.91C838.25 464.28 855.68 458.02 874.04 462.99C889.04 466.99 899.67 477.22 903.11 480.75C911.87 489.75 915.72 498.75 920.87 512.24C938.29 557.8 946.87 580.94 941.05 598.62C939.05 604.62 934.67 617.99 923.29 622.84C906.89 629.84 881.23 616.84 861.13 588.12C844.78 592.38 827.75 587.36 817.53 575.21C806 561.51 808.24 544.83 808.65 542.11" fill="white"/>
<path d="M808.65 542.11C808.24 544.83 806 561.51 817.53 575.21C827.75 587.36 844.78 592.38 861.13 588.12C881.23 616.8 906.89 629.83 923.29 622.84C934.67 617.99 939.09 604.58 941.05 598.62C946.88 580.94 938.29 557.8 920.87 512.24C915.72 498.75 911.87 489.75 903.11 480.75C899.67 477.22 889.02 467.04 874.04 462.99C855.68 457.99 838.25 464.28 815.92 475.91C793.33 487.66 744.51 514.91 708.04 548.49V646.66H796.04C816.848 633.818 831.927 613.473 838.16 589.83" fill="white"/>
<path d="M808.65 542.11C808.24 544.83 806 561.51 817.53 575.21C827.75 587.36 844.78 592.38 861.13 588.12C881.23 616.8 906.89 629.83 923.29 622.84C934.67 617.99 939.09 604.58 941.05 598.62C946.88 580.94 938.29 557.8 920.87 512.24C915.72 498.75 911.87 489.75 903.11 480.75C899.67 477.22 889.02 467.04 874.04 462.99C855.68 457.99 838.25 464.28 815.92 475.91C793.33 487.66 744.51 514.91 708.04 548.49V646.66H796.04C816.848 633.818 831.927 613.473 838.16 589.83" stroke="#2B2B2B" stroke-width="6.47" stroke-miterlimit="10"/>
<path d="M839.33 584.9C836.69 597.596 831.49 609.621 824.047 620.24C816.604 630.858 807.074 639.848 796.04 646.66" fill="white"/>
<path d="M796.04 646.66C807.074 639.848 816.604 630.858 824.047 620.24C831.49 609.621 836.69 597.596 839.33 584.9" fill="white"/>
<path d="M796.04 646.66C807.074 639.848 816.604 630.858 824.047 620.24C831.49 609.621 836.69 597.596 839.33 584.9" stroke="#2B2B2B" stroke-width="6.47" stroke-miterlimit="10"/>
<path d="M850.03 518.39C850.028 519.081 850.231 519.757 850.613 520.332C850.996 520.907 851.54 521.356 852.178 521.622C852.815 521.887 853.517 521.958 854.195 521.824C854.872 521.691 855.495 521.359 855.984 520.871C856.473 520.384 856.807 519.762 856.942 519.085C857.078 518.407 857.009 517.705 856.745 517.067C856.481 516.429 856.034 515.883 855.46 515.499C854.886 515.115 854.211 514.91 853.52 514.91C852.596 514.91 851.71 515.276 851.056 515.929C850.402 516.581 850.033 517.466 850.03 518.39Z" fill="white"/>
<path d="M850.03 518.39C850.028 519.081 850.231 519.757 850.613 520.332C850.996 520.907 851.54 521.356 852.178 521.622C852.815 521.887 853.517 521.958 854.195 521.824C854.872 521.691 855.495 521.359 855.984 520.871C856.473 520.384 856.807 519.762 856.942 519.085C857.078 518.407 857.009 517.705 856.745 517.067C856.481 516.429 856.034 515.883 855.46 515.499C854.886 515.115 854.211 514.91 853.52 514.91C852.596 514.91 851.71 515.276 851.056 515.929C850.402 516.581 850.033 517.466 850.03 518.39V518.39Z" stroke="#2B2B2B" stroke-width="6.47" stroke-miterlimit="10"/>
<path d="M814.41 480.39C809.95 486.11 806.07 491.09 803.81 497.8C800.28 508.3 802.91 516.51 801.66 516.8C800.66 517.01 798.25 512.23 791.84 490.51C786.468 496.33 782.454 503.271 780.09 510.83C778.003 517.563 777.322 524.653 778.09 531.66C772.669 528.005 768.705 522.561 766.89 516.28C765.959 512.773 765.785 509.109 766.38 505.53C760.886 511.209 757.336 518.485 756.24 526.31C755.449 532.563 756.325 538.915 758.78 544.72C747 533.23 746.06 524 746.22 519.64C747.01 497.29 780.56 482.85 806.22 471.79C807.71 471.15 823.75 464.31 825.3 466.73C826.22 468.17 821.43 471.35 814.35 480.42" fill="white"/>
<path d="M814.41 480.39C809.95 486.11 806.07 491.09 803.81 497.8C800.28 508.3 802.91 516.51 801.66 516.8C800.66 517.01 798.25 512.23 791.84 490.51C786.468 496.33 782.454 503.271 780.09 510.83C778.003 517.563 777.322 524.653 778.09 531.66C772.669 528.005 768.705 522.561 766.89 516.28C765.959 512.773 765.785 509.109 766.38 505.53C760.886 511.209 757.336 518.485 756.24 526.31C755.449 532.563 756.325 538.915 758.78 544.72C747 533.23 746.06 524 746.22 519.64C747.01 497.29 780.56 482.85 806.22 471.79C807.71 471.15 823.75 464.31 825.3 466.73C826.26 468.14 821.47 471.32 814.41 480.39Z" stroke="#2B2B2B" stroke-width="6.47" stroke-miterlimit="10"/>
<path d="M879.22 462.44C882.97 464.73 892.09 470.29 895.37 481.84C898.65 493.39 893.93 503.01 892.66 505.44C904.19 500.92 912.3 491.21 913.66 480.04C915.13 468.12 908.44 458.34 902.9 453.49C889.34 441.62 863.99 442.95 841.53 458.91C844.95 457.82 862.89 452.48 879.21 462.44" fill="white"/>
<path d="M879.22 462.44C882.97 464.73 892.09 470.29 895.37 481.84C898.65 493.39 893.93 503.01 892.66 505.44C904.19 500.92 912.3 491.21 913.66 480.04C915.13 468.12 908.44 458.34 902.9 453.49C889.34 441.62 863.99 442.95 841.53 458.91C844.96 457.82 862.9 452.48 879.22 462.44Z" stroke="#2B2B2B" stroke-width="6.47" stroke-miterlimit="10"/>
<path d="M918.03 360.17L889.67 470.32C889.08 470.78 882.26 475.81 874.17 473.13C870.952 471.996 868.146 469.925 866.113 467.185C864.08 464.445 862.913 461.159 862.76 457.75L918.03 360.15" fill="white"/>
<path d="M898.92 387.86C898.768 391.314 899.34 394.761 900.6 397.98C902.538 402.811 905.9 406.937 910.24 409.81" stroke="#6A6A6A" stroke-width="4.85" stroke-linejoin="round"/>
<path d="M892.41 407.341C892.258 410.794 892.83 414.242 894.09 417.461C896.027 422.294 899.394 426.422 903.74 429.291" stroke="#6A6A6A" stroke-width="4.85" stroke-linejoin="round"/>
<path d="M880.97 423C880.781 427.532 881.534 432.054 883.18 436.28C885.725 442.603 890.138 448 895.83 451.75" stroke="#6A6A6A" stroke-width="4.85" stroke-linejoin="round"/>
<path d="M918.03 360.17L889.67 470.32C889.08 470.78 882.26 475.81 874.17 473.13C870.952 471.995 868.146 469.925 866.113 467.184C864.08 464.444 862.913 461.159 862.76 457.75L918.03 360.17Z" stroke="#2B2B2B" stroke-width="6.47" stroke-linecap="round" stroke-linejoin="round"/>
<path d="M842.01 467.51C842.92 467.33 852.01 465.7 858.88 472.17C861.616 474.874 863.486 478.331 864.251 482.101C865.017 485.871 864.644 489.783 863.18 493.34C873.04 489.15 878.79 479.8 877.54 471.1C876.09 461.1 866.02 456.45 863.81 455.52C851.39 450.3 839.81 457.9 838.81 458.58L842.05 467.51" fill="white"/>
<path d="M842.01 467.51C842.92 467.33 852.01 465.7 858.88 472.17C861.616 474.874 863.486 478.331 864.251 482.101C865.017 485.871 864.644 489.783 863.18 493.34C873.04 489.15 878.79 479.8 877.54 471.1C876.09 461.1 866.02 456.45 863.81 455.52C851.39 450.3 839.81 457.9 838.81 458.58L842.01 467.51Z" stroke="#2B2B2B" stroke-width="6.47" stroke-miterlimit="10"/>
<path d="M824.25 440.06C830.6 437.76 839.55 446.71 843.43 454.29C848.52 464.21 846.14 474.15 845.29 477.18L832.29 482.13C829.89 480.52 819.98 473.52 818.06 461.13C816.93 453.82 818.19 442.28 824.25 440.13" fill="white"/>
<path d="M824.25 440.06C830.6 437.76 839.55 446.71 843.43 454.29C848.52 464.21 846.14 474.15 845.29 477.18L832.29 482.13C829.89 480.52 819.98 473.52 818.06 461.13C816.93 453.75 818.19 442.24 824.25 440.06Z" stroke="#2B2B2B" stroke-width="6.47" stroke-miterlimit="10"/>
<path d="M910.89 572.96C911.961 576.519 913.268 580.003 914.8 583.39C916.241 586.602 917.888 589.719 919.73 592.72C915.08 596.21 908.9 594.05 906.31 588.93C903.55 583.46 905.36 575.54 910.89 572.93" fill="#2B2B2B"/>
<path d="M754.41 701.63C769.85 683.14 771.57 670.98 755.22 645.34C731.47 608.13 658.22 622.76 652.22 624.02C596.43 635.82 579.77 668.02 568.89 686.82" fill="white"/>
<path d="M754.41 701.63C769.85 683.14 771.57 670.98 755.22 645.34C731.47 608.13 658.22 622.76 652.22 624.02C596.43 635.82 579.77 668.02 568.89 686.82" stroke="#2B2B2B" stroke-width="6.75" stroke-linecap="round" stroke-linejoin="round"/>
<path d="M596.98 545.52C599.55 558.36 607.98 572.04 605.2 580.65C602.42 589.26 589.46 611.44 589.46 611.44C589.46 611.44 620.46 617.92 623.82 618.44C627.18 618.96 750.3 555.44 750.3 555.44L751.41 523.21L721.26 504.75L683.33 500.75L620.41 512.39L596.98 545.52Z" fill="white"/>
<path d="M716.25 508C727.25 494.28 754.42 496.65 754.42 496.65C754.42 496.65 750.29 519.96 751.23 538.75" fill="white"/>
<path d="M716.25 508C727.25 494.28 754.42 496.65 754.42 496.65C754.42 496.65 750.29 519.96 751.23 538.75" stroke="#2B2B2B" stroke-width="6.75" stroke-linecap="round" stroke-linejoin="round"/>
<path d="M716.25 508C699.357 500.389 680.382 498.735 662.428 503.309C644.473 507.883 628.602 518.415 617.41 533.18" fill="#ECECEC"/>
<path d="M716.25 508C699.357 500.389 680.382 498.735 662.428 503.309C644.473 507.883 628.602 518.415 617.41 533.18" stroke="#2B2B2B" stroke-width="6.75" stroke-linecap="round" stroke-linejoin="round"/>
<path d="M751.12 537.94C759.746 551.182 764.329 566.648 764.31 582.45C767.653 582.771 770.886 583.813 773.788 585.503C776.69 587.193 779.191 589.491 781.12 592.24C775.172 592.437 769.323 593.825 763.92 596.32C763.63 596.45 763.36 596.6 763.08 596.74C762.84 598.12 762.56 599.49 762.25 600.85C766.508 600.227 770.856 600.799 774.808 602.503C778.76 604.207 782.16 606.976 784.63 610.5C778.208 610.721 771.909 612.32 766.16 615.189C760.411 618.059 755.347 622.131 751.31 627.13L751.41 626.6C745.133 636.4 736.834 644.746 727.071 651.08C717.307 657.414 706.304 661.59 694.796 663.328C683.289 665.067 671.543 664.327 660.344 661.159C649.145 657.992 638.752 652.469 629.86 644.96L630.7 645.96C624.454 640.683 616.882 637.219 608.805 635.945C600.729 634.67 592.457 635.634 584.89 638.73C585.861 633.667 588.489 629.071 592.36 625.665C596.231 622.26 601.124 620.239 606.27 619.92C599.501 615.777 591.49 614.149 583.64 615.32C585.335 611.606 588.278 608.604 591.958 606.837C595.639 605.07 599.822 604.65 603.78 605.65" fill="white"/>
<path d="M751.12 537.94C759.746 551.182 764.329 566.648 764.31 582.45C767.653 582.771 770.886 583.813 773.788 585.503C776.69 587.193 779.191 589.491 781.12 592.24C775.172 592.437 769.323 593.825 763.92 596.32C763.63 596.45 763.36 596.6 763.08 596.74C762.84 598.12 762.56 599.49 762.25 600.85C766.508 600.227 770.856 600.799 774.808 602.503C778.76 604.207 782.16 606.976 784.63 610.5C778.208 610.721 771.909 612.32 766.16 615.189C760.411 618.059 755.347 622.131 751.31 627.13L751.41 626.6C745.133 636.4 736.834 644.746 727.071 651.08C717.307 657.414 706.304 661.59 694.796 663.328C683.289 665.067 671.543 664.327 660.344 661.159C649.145 657.992 638.752 652.469 629.86 644.96L630.7 645.96C624.454 640.683 616.882 637.219 608.805 635.945C600.729 634.67 592.457 635.634 584.89 638.73C585.861 633.667 588.489 629.071 592.36 625.665C596.231 622.26 601.124 620.239 606.27 619.92C599.501 615.777 591.49 614.149 583.64 615.32C585.335 611.606 588.278 608.604 591.958 606.837C595.639 605.07 599.822 604.65 603.78 605.65" stroke="#2B2B2B" stroke-width="6.75" stroke-linecap="round" stroke-linejoin="round"/>
<path d="M685.41 613.14L689.12 617.34C689.517 617.787 690.014 618.133 690.571 618.351C691.128 618.569 691.728 618.652 692.323 618.593C692.917 618.535 693.49 618.336 693.994 618.014C694.497 617.692 694.917 617.256 695.22 616.74L698.08 611.85C698.431 611.247 698.608 610.558 698.591 609.861C698.575 609.163 698.365 608.483 697.987 607.897C697.608 607.311 697.074 606.842 696.444 606.54C695.815 606.239 695.114 606.118 694.42 606.19L687.84 606.87C687.149 606.943 686.491 607.205 685.939 607.627C685.387 608.049 684.962 608.616 684.711 609.264C684.46 609.912 684.392 610.616 684.516 611.3C684.639 611.984 684.948 612.621 685.41 613.14Z" fill="#6A6A6A" stroke="#2B2B2B" stroke-width="6.75" stroke-linecap="round" stroke-linejoin="round"/>
<path d="M675.48 639.19C677.877 638.937 680.2 638.216 682.318 637.066C684.436 635.916 686.306 634.36 687.823 632.487C689.339 630.614 690.472 628.46 691.156 626.15C691.84 623.839 692.062 621.416 691.81 619.02" fill="#ECECEC"/>
<path d="M675.48 639.19C677.877 638.937 680.2 638.216 682.318 637.066C684.436 635.916 686.306 634.36 687.823 632.487C689.339 630.614 690.472 628.46 691.156 626.15C691.84 623.839 692.062 621.416 691.81 619.02" stroke="#2B2B2B" stroke-width="6.75" stroke-linecap="round" stroke-linejoin="round"/>
<path d="M711.98 635.36C707.139 635.866 702.295 634.429 698.512 631.365C694.73 628.301 692.319 623.861 691.81 619.02" fill="#ECECEC"/>
<path d="M711.98 635.36C707.139 635.866 702.295 634.429 698.512 631.365C694.73 628.301 692.319 623.861 691.81 619.02" stroke="#2B2B2B" stroke-width="6.75" stroke-linecap="round" stroke-linejoin="round"/>
<path d="M656.41 509.85C639 492.35 593.57 479.3 593.57 479.3C593.57 479.3 598.65 541.36 606.16 570.69" fill="white"/>
<path d="M656.41 509.85C639 492.35 593.57 479.3 593.57 479.3C593.57 479.3 598.65 541.36 606.16 570.69" stroke="#2B2B2B" stroke-width="6.75" stroke-linecap="round" stroke-linejoin="round"/>
<path d="M649.41 579.07C650.418 580.401 651.744 581.457 653.268 582.141C654.791 582.825 656.462 583.114 658.126 582.983C659.791 582.851 661.395 582.303 662.792 581.389C664.189 580.474 665.334 579.223 666.12 577.75" stroke="#2B2B2B" stroke-width="6.75" stroke-linecap="round" stroke-linejoin="round"/>
<path d="M706.8 573.04C707.803 574.382 709.129 575.448 710.654 576.14C712.179 576.832 713.855 577.127 715.525 576.999C717.195 576.87 718.805 576.321 720.207 575.404C721.608 574.486 722.754 573.229 723.54 571.75" stroke="#2B2B2B" stroke-width="6.75" stroke-linecap="round" stroke-linejoin="round"/>
<path d="M606.11 575.75C604.11 592.08 592.39 606.65 592.39 606.65L606.11 575.75Z" fill="#ECECEC"/>
<path d="M606.11 575.75C604.11 592.08 592.39 606.65 592.39 606.65" stroke="#2B2B2B" stroke-width="6.75" stroke-linecap="round" stroke-linejoin="round"/>
<path d="M674.421 591.852L647.098 594.156C644.054 594.413 641.795 597.088 642.052 600.132L642.376 603.978C642.633 607.021 645.308 609.28 648.351 609.024L675.674 606.72C678.718 606.463 680.977 603.788 680.72 600.745L680.396 596.898C680.139 593.855 677.464 591.596 674.421 591.852Z" fill="#ECECEC" stroke="#2B2B2B" stroke-width="6.75" stroke-linecap="round" stroke-linejoin="round"/>
<path d="M733.473 586.868L706.15 589.172C703.107 589.429 700.848 592.104 701.105 595.147L701.429 598.994C701.686 602.037 704.361 604.296 707.404 604.039L734.727 601.735C737.77 601.479 740.029 598.804 739.773 595.76L739.448 591.914C739.192 588.871 736.517 586.611 733.473 586.868Z" fill="#ECECEC" stroke="#2B2B2B" stroke-width="6.75" stroke-linecap="round" stroke-linejoin="round"/>
<path d="M701.17 595.88C699.841 594.395 698.197 593.226 696.358 592.456C694.52 591.687 692.533 591.338 690.542 591.433C688.551 591.529 686.607 592.068 684.851 593.01C683.095 593.952 681.571 595.275 680.39 596.88" stroke="#2B2B2B" stroke-width="6.75" stroke-linecap="round" stroke-linejoin="round"/>
<path d="M1515.41 754.87L1454.76 647.93H544.35L483.7 754.87C482.121 757.654 481.299 760.803 481.317 764.004C481.335 767.205 482.193 770.345 483.804 773.111C485.415 775.877 487.724 778.172 490.499 779.766C493.274 781.361 496.419 782.2 499.62 782.2H1499.49C1502.69 782.2 1505.84 781.361 1508.61 779.766C1511.39 778.172 1513.69 775.877 1515.31 773.111C1516.92 770.345 1517.77 767.205 1517.79 764.004C1517.81 760.803 1516.99 757.654 1515.41 754.87Z" fill="white" stroke="#2B2B2B" stroke-width="9" stroke-linecap="round" stroke-linejoin="round"/>
<path d="M468.67 637.28C471.762 634.424 474.008 630.771 475.162 626.722C476.316 622.674 476.334 618.386 475.212 614.328C474.091 610.271 471.874 606.6 468.804 603.719C465.735 600.838 461.932 598.857 457.812 597.994C453.691 597.131 449.413 597.419 445.445 598.826C441.478 600.233 437.974 602.706 435.319 605.972C432.663 609.239 430.958 613.173 430.39 617.344C429.822 621.516 430.414 625.763 432.1 629.62C430.155 630.385 428.414 631.59 427.013 633.141C425.612 634.691 424.588 636.545 424.023 638.557C423.458 640.569 423.366 642.684 423.754 644.738C424.143 646.791 425.001 648.726 426.263 650.393C427.524 652.059 429.154 653.41 431.025 654.341C432.896 655.273 434.957 655.758 437.047 655.76C439.137 655.761 441.199 655.279 443.071 654.351C444.944 653.423 446.576 652.074 447.84 650.41C448.141 652.659 449.002 654.795 450.345 656.624C451.687 658.453 453.467 659.915 455.522 660.877C457.577 661.838 459.84 662.268 462.105 662.126C464.369 661.985 466.561 661.277 468.48 660.067C470.399 658.857 471.984 657.185 473.088 655.203C474.192 653.221 474.781 650.994 474.8 648.725C474.818 646.457 474.267 644.22 473.196 642.22C472.125 640.22 470.569 638.522 468.67 637.28Z" fill="white" stroke="#2B2B2B" stroke-width="6.72" stroke-linecap="round" stroke-linejoin="round"/>
<path d="M456.63 540.58C443.83 545.58 427.87 564.92 444.05 580.84C460.23 596.76 526.35 593.72 535.83 570.84C545.31 547.96 542.18 527.67 514.99 530.05C487.8 532.43 456.63 540.58 456.63 540.58Z" fill="#2B2B2B" stroke="#2B2B2B" stroke-width="7.19" stroke-linecap="round" stroke-linejoin="round"/>
<path d="M463.26 560.11C458.93 591.6 457.69 620.69 460.01 631.82C461.24 640.162 464.224 648.149 468.766 655.253C473.308 662.358 479.305 668.419 486.36 673.037C493.416 677.654 501.37 680.724 509.698 682.043C518.027 683.363 526.54 682.901 534.678 680.69C542.815 678.479 550.391 674.568 556.906 669.214C563.421 663.861 568.728 657.188 572.476 649.634C576.223 642.08 578.327 633.818 578.649 625.392C578.97 616.966 577.502 608.567 574.34 600.75C573.299 598.158 572.073 595.645 570.67 593.23C564.073 580.095 556.592 567.422 548.28 555.3" fill="#2B2B2B"/>
<path d="M463.26 560.11C458.93 591.6 457.69 620.69 460.01 631.82C461.24 640.162 464.224 648.149 468.766 655.253C473.308 662.358 479.305 668.419 486.36 673.037C493.416 677.654 501.37 680.724 509.698 682.043C518.027 683.363 526.54 682.901 534.678 680.69C542.815 678.479 550.391 674.568 556.906 669.214C563.421 663.861 568.728 657.188 572.476 649.634C576.223 642.08 578.327 633.818 578.649 625.392C578.97 616.966 577.502 608.567 574.34 600.75V600.75C573.299 598.158 572.073 595.645 570.67 593.23V593.23C564.073 580.095 556.592 567.422 548.28 555.3" stroke="#2B2B2B" stroke-width="7.19" stroke-linecap="round" stroke-linejoin="round"/>
<path d="M521.2 530.35C565.57 535.66 612.6 562.35 616.32 594.19C620.04 626.03 557.32 612.26 516.94 562.27" fill="#2B2B2B"/>
<path d="M521.2 530.35C565.57 535.66 612.6 562.35 616.32 594.19C620.04 626.03 557.32 612.26 516.94 562.27" stroke="#2B2B2B" stroke-width="7.19" stroke-linecap="round" stroke-linejoin="round"/>
<path d="M487.47 577.76C490.215 577.76 492.44 575.535 492.44 572.79C492.44 570.045 490.215 567.82 487.47 567.82C484.725 567.82 482.5 570.045 482.5 572.79C482.5 575.535 484.725 577.76 487.47 577.76Z" fill="white" stroke="white" stroke-width="2.67" stroke-miterlimit="10"/>
<path d="M540.73 574.46C543.475 574.46 545.7 572.234 545.7 569.49C545.7 566.745 543.475 564.52 540.73 564.52C537.985 564.52 535.76 566.745 535.76 569.49C535.76 572.234 537.985 574.46 540.73 574.46Z" fill="white" stroke="white" stroke-width="2.67" stroke-miterlimit="10"/>
<path d="M553.91 519.65C554.131 518.689 554.245 517.706 554.25 516.72C554.248 514.534 553.705 512.382 552.668 510.456C551.631 508.531 550.134 506.893 548.309 505.689C546.484 504.484 544.389 503.75 542.211 503.553C540.034 503.357 537.841 503.702 535.83 504.56C536.495 502.942 536.835 501.209 536.83 499.46C536.83 496.77 536.028 494.14 534.528 491.907C533.028 489.673 530.897 487.937 528.406 486.919C525.916 485.901 523.179 485.648 520.543 486.191C517.908 486.735 515.495 488.05 513.61 489.97C512.835 487.592 511.417 485.476 509.513 483.855C507.609 482.234 505.293 481.171 502.822 480.786C500.351 480.401 497.822 480.708 495.514 481.672C493.207 482.637 491.212 484.221 489.75 486.25C488.078 483.926 485.712 482.193 482.992 481.298C480.273 480.403 477.34 480.393 474.614 481.269C471.889 482.146 469.511 483.864 467.823 486.177C466.135 488.489 465.224 491.277 465.22 494.14C462.38 491.869 458.806 490.719 455.174 490.908C451.543 491.097 448.107 492.611 445.518 495.165C442.929 497.718 441.367 501.132 441.128 504.761C440.889 508.389 441.989 511.979 444.22 514.85C443.619 514.778 443.015 514.745 442.41 514.75C438.816 514.75 435.37 516.178 432.829 518.719C430.288 521.26 428.86 524.707 428.86 528.3C428.86 528.73 428.86 529.16 428.92 529.58C426.274 529.756 423.738 530.705 421.627 532.31C419.516 533.914 417.923 536.104 417.046 538.607C416.169 541.109 416.047 543.815 416.695 546.386C417.343 548.957 418.732 551.282 420.69 553.07C418.262 554.549 416.36 556.755 415.255 559.375C414.149 561.995 413.896 564.897 414.531 567.668C415.166 570.44 416.657 572.942 418.793 574.819C420.929 576.697 423.601 577.855 426.431 578.129C429.261 578.404 432.106 577.781 434.563 576.349C437.02 574.916 438.964 572.748 440.119 570.15C441.275 567.552 441.584 564.656 441.003 561.872C440.421 559.089 438.979 556.559 436.88 554.64C438.865 553.436 440.506 551.741 441.645 549.718C442.784 547.695 443.381 545.412 443.38 543.09C443.38 542.65 443.38 542.23 443.32 541.81C443.75 541.81 444.18 541.73 444.6 541.66C445.083 544.007 446.166 546.188 447.742 547.991C449.319 549.795 451.336 551.16 453.597 551.952C455.857 552.745 458.285 552.938 460.642 552.514C463 552.089 465.208 551.061 467.05 549.53C468.124 551.19 469.538 552.604 471.199 553.678C472.859 554.752 474.728 555.463 476.683 555.762C478.638 556.062 480.634 555.944 482.54 555.416C484.445 554.888 486.218 553.963 487.74 552.7C488.496 555.03 490.038 557.025 492.104 558.342C494.169 559.658 496.628 560.216 499.059 559.918C501.49 559.62 503.742 558.485 505.428 556.708C507.114 554.932 508.13 552.624 508.3 550.18C511.637 551.582 515.387 551.637 518.763 550.334C522.14 549.03 524.88 546.47 526.41 543.19C527.616 544.944 529.325 546.292 531.311 547.056C533.297 547.82 535.469 547.965 537.539 547.471C539.609 546.978 541.482 545.869 542.91 544.291C544.338 542.713 545.255 540.739 545.54 538.63C546.822 539.51 548.281 540.096 549.816 540.347C551.35 540.597 552.92 540.506 554.415 540.08C555.91 539.653 557.292 538.902 558.463 537.879C559.634 536.857 560.565 535.589 561.189 534.165C561.813 532.741 562.115 531.197 562.074 529.643C562.032 528.09 561.648 526.564 560.949 525.176C560.25 523.787 559.253 522.57 558.029 521.612C556.806 520.653 555.385 519.977 553.87 519.63L553.91 519.65Z" fill="white" stroke="#2B2B2B" stroke-width="6.72" stroke-linecap="round" stroke-linejoin="round"/>
<path d="M443.35 543.05C404.03 553.14 366.55 613.78 386.75 636.9C406.95 660.02 453.17 624.67 465.93 582.43" fill="#2B2B2B"/>
<path d="M443.35 543.05C404.03 553.14 366.55 613.78 386.75 636.9C406.95 660.02 453.17 624.67 465.93 582.43" stroke="#2B2B2B" stroke-width="7.19" stroke-linecap="round" stroke-linejoin="round"/>
<path d="M553.41 613.1C550.109 613.95 547.28 616.075 545.546 619.01C543.811 621.945 543.313 625.448 544.16 628.75" stroke="white" stroke-width="5.64" stroke-linecap="round" stroke-linejoin="round"/>
<path d="M528.5 619.56C531.795 618.705 535.295 619.193 538.231 620.916C541.167 622.639 543.299 625.457 544.16 628.75" stroke="white" stroke-width="5.64" stroke-linecap="round" stroke-linejoin="round"/>
<path d="M657.687 657.206C661.224 649.502 655.421 639.276 644.725 634.365C634.029 629.455 622.491 631.72 618.954 639.424C615.417 647.128 621.22 657.355 631.916 662.265C642.612 667.176 654.15 664.911 657.687 657.206Z" fill="white" stroke="#2B2B2B" stroke-width="6.75" stroke-linecap="round" stroke-linejoin="round"/>
<path d="M627.33 657.94C627.44 653.84 630.74 647.94 630.74 647.94" stroke="#2B2B2B" stroke-width="4.84" stroke-linecap="round" stroke-linejoin="round"/>
<path d="M644.72 664.84C645.914 661.508 646.674 658.036 646.98 654.51" stroke="#2B2B2B" stroke-width="4.84" stroke-linecap="round" stroke-linejoin="round"/>
<path d="M748.14 661.814C759.576 658.657 767.002 649.418 764.727 641.177C762.453 632.935 751.338 628.813 739.903 631.97C728.467 635.126 721.041 644.365 723.316 652.607C725.59 660.848 736.705 664.97 748.14 661.814Z" fill="white" stroke="#2B2B2B" stroke-width="6.75" stroke-linecap="round" stroke-linejoin="round"/>
<path d="M741.77 661.42C739.19 658.18 737.89 651.48 737.89 651.48" stroke="#2B2B2B" stroke-width="4.84" stroke-linecap="round" stroke-linejoin="round"/>
<path d="M759.66 655.45C758.41 652.099 756.729 648.926 754.66 646.01" stroke="#2B2B2B" stroke-width="4.84" stroke-linecap="round" stroke-linejoin="round"/>
<path d="M1417.6 564.561C1417.25 572.421 1417.6 586.061 1401.93 581.941C1400.84 591.941 1412.55 608.621 1437.72 602.831" fill="#2B2B2B"/>
<path d="M1417.6 564.561C1417.25 572.421 1417.6 586.061 1401.93 581.941C1400.84 591.941 1412.55 608.621 1437.72 602.831" stroke="#2B2B2B" stroke-width="8.84" stroke-linecap="round" stroke-linejoin="round"/>
<path d="M1502.08 627.42C1460.03 635.42 1422.25 644.11 1400.53 608C1417.6 613.52 1421.53 599.57 1421.53 599.57" fill="#2B2B2B"/>
<path d="M1502.08 627.42C1460.03 635.42 1422.25 644.11 1400.53 608C1417.6 613.52 1421.53 599.57 1421.53 599.57" stroke="#2B2B2B" stroke-width="8.84" stroke-linecap="round" stroke-linejoin="round"/>
<path d="M1456.53 507.82C1419.77 487.13 1400.53 511.87 1400.53 511.87C1406.17 516.618 1410.79 522.467 1414.1 529.059C1417.41 535.651 1419.34 542.847 1419.77 550.21" fill="#2B2B2B"/>
<path d="M1456.53 507.82C1419.77 487.13 1400.53 511.87 1400.53 511.87C1406.17 516.618 1410.79 522.467 1414.1 529.059C1417.41 535.651 1419.34 542.847 1419.77 550.21" stroke="#2B2B2B" stroke-width="8.84" stroke-linecap="round" stroke-linejoin="round"/>
<path d="M1556.61 569.75C1556.96 577.61 1556.61 591.25 1572.28 587.12C1573.37 597.12 1567.17 614.67 1536.49 608.02" fill="#2B2B2B"/>
<path d="M1556.61 569.75C1556.96 577.61 1556.61 591.25 1572.28 587.12C1573.37 597.12 1567.17 614.67 1536.49 608.02" stroke="#2B2B2B" stroke-width="8.84" stroke-linecap="round" stroke-linejoin="round"/>
<path d="M1489.01 634.71C1526.34 634.71 1556.61 604.444 1556.61 567.11C1556.61 529.775 1526.34 499.51 1489.01 499.51C1451.68 499.51 1421.41 529.775 1421.41 567.11C1421.41 604.444 1451.68 634.71 1489.01 634.71Z" fill="#2B2B2B" stroke="#2B2B2B" stroke-width="8.84" stroke-miterlimit="10" stroke-linecap="round"/>
<path d="M1491.92 499.51C1474.28 497.77 1465.13 491 1462.06 482.3C1452.6 491.3 1453.96 503.69 1466.4 507.82" fill="#2B2B2B"/>
<path d="M1491.92 499.51C1474.28 497.77 1465.13 491 1462.06 482.3C1452.6 491.3 1453.96 503.69 1466.4 507.82" stroke="#2B2B2B" stroke-width="8.84" stroke-linecap="round" stroke-linejoin="round"/>
<path d="M1499.34 500.301C1485.18 497.771 1486.1 488.621 1488.2 482.851C1479.54 483.461 1474.98 490.431 1479.64 497.851" fill="#2B2B2B"/>
<path d="M1499.34 500.301C1485.18 497.771 1486.1 488.621 1488.2 482.851C1479.54 483.461 1474.98 490.431 1479.64 497.851" stroke="#2B2B2B" stroke-width="8.84" stroke-linecap="round" stroke-linejoin="round"/>
<path d="M1472.13 632.59C1514.13 640.59 1551.97 649.28 1573.69 613.17C1556.61 618.69 1552.69 604.74 1552.69 604.74" fill="#2B2B2B"/>
<path d="M1472.13 632.59C1514.13 640.59 1551.97 649.28 1573.69 613.17C1556.61 618.69 1552.69 604.74 1552.69 604.74" stroke="#2B2B2B" stroke-width="8.84" stroke-linecap="round" stroke-linejoin="round"/>
<path d="M1430.85 619.24C1441.97 587.9 1456.93 565.41 1459.96 538.66C1459.97 534.886 1461.35 531.243 1463.85 528.417C1466.35 525.59 1469.8 523.773 1473.55 523.306C1477.29 522.84 1481.08 523.756 1484.2 525.884C1487.31 528.011 1489.55 531.203 1490.48 534.86C1502.31 561.01 1512.22 614.01 1512.31 639.67C1512.31 640.24 1512.31 640.79 1512.31 641.33C1512.06 647.838 1510.35 654.205 1507.3 659.958C1504.25 665.712 1499.94 670.703 1494.69 674.559C1489.44 678.416 1483.39 681.04 1476.99 682.234C1470.59 683.428 1464 683.163 1457.72 681.458C1451.43 679.753 1445.61 676.652 1440.69 672.386C1435.77 668.119 1431.88 662.798 1429.3 656.818C1426.72 650.838 1425.53 644.354 1425.8 637.847C1426.08 631.341 1427.82 624.981 1430.89 619.24H1430.85Z" fill="white" stroke="#2B2B2B" stroke-width="4.42" stroke-linecap="round" stroke-linejoin="round"/>
<path d="M1474.21 639.53L1468.88 646.99C1468.31 647.783 1467.57 648.43 1466.7 648.879C1465.83 649.328 1464.87 649.566 1463.9 649.573C1462.92 649.58 1461.96 649.355 1461.09 648.919C1460.22 648.482 1459.46 647.845 1458.88 647.06L1453.4 639.6C1452.72 638.678 1452.31 637.586 1452.22 636.445C1452.13 635.305 1452.35 634.16 1452.87 633.14C1453.39 632.12 1454.18 631.264 1455.16 630.667C1456.13 630.07 1457.26 629.756 1458.4 629.76H1469.21C1470.34 629.765 1471.45 630.082 1472.42 630.675C1473.38 631.269 1474.17 632.116 1474.68 633.124C1475.2 634.133 1475.43 635.263 1475.34 636.393C1475.26 637.523 1474.87 638.608 1474.21 639.53Z" fill="#2B2B2B" stroke="#2B2B2B" stroke-width="8.84" stroke-linecap="round" stroke-linejoin="round"/>
<path d="M1513.24 588.61H1501.74C1495.79 588.61 1490.08 586.246 1485.87 582.038C1481.66 577.829 1479.3 572.122 1479.3 566.17V565.99C1479.3 560.588 1481.45 555.407 1485.27 551.587C1489.09 547.766 1494.27 545.62 1499.67 545.62H1515.31C1520.71 545.62 1525.89 547.766 1529.71 551.587C1533.53 555.407 1535.68 560.588 1535.68 565.99V566.17C1535.68 572.122 1533.32 577.829 1529.11 582.038C1524.9 586.246 1519.19 588.61 1513.24 588.61Z" fill="white" stroke="#2B2B2B" stroke-width="8.84" stroke-linecap="round" stroke-linejoin="round"/>
<path d="M1441.33 588.61H1438C1432.05 588.61 1426.34 586.246 1422.13 582.038C1417.92 577.829 1415.56 572.122 1415.56 566.17V565.99C1415.56 560.59 1417.7 555.41 1421.52 551.59C1425.34 547.77 1430.52 545.623 1435.92 545.62H1443.39C1448.79 545.62 1453.97 547.766 1457.79 551.587C1461.61 555.407 1463.76 560.588 1463.76 565.99V566.17C1463.76 569.117 1463.18 572.035 1462.05 574.758C1460.92 577.48 1459.27 579.954 1457.19 582.038C1455.1 584.122 1452.63 585.774 1449.91 586.902C1447.18 588.03 1444.27 588.61 1441.32 588.61H1441.33Z" fill="white" stroke="#2B2B2B" stroke-width="8.84" stroke-linecap="round" stroke-linejoin="round"/>
<path d="M1463.78 568.16C1463.78 566.102 1464.6 564.129 1466.05 562.673C1467.51 561.218 1469.48 560.4 1471.54 560.4C1473.6 560.4 1475.57 561.218 1477.03 562.673C1478.48 564.129 1479.3 566.102 1479.3 568.16" stroke="#2B2B2B" stroke-width="8.84" stroke-linecap="round" stroke-linejoin="round"/>
<path d="M1494.07 570.05C1496.31 570.05 1498.13 568.232 1498.13 565.99C1498.13 563.747 1496.31 561.93 1494.07 561.93C1491.83 561.93 1490.01 563.747 1490.01 565.99C1490.01 568.232 1491.83 570.05 1494.07 570.05Z" fill="#6A6A6A" stroke="#2B2B2B" stroke-width="6.47" stroke-miterlimit="10" stroke-linecap="round"/>
<path d="M1435.87 570.05C1438.11 570.05 1439.93 568.232 1439.93 565.99C1439.93 563.747 1438.11 561.93 1435.87 561.93C1433.63 561.93 1431.81 563.747 1431.81 565.99C1431.81 568.232 1433.63 570.05 1435.87 570.05Z" fill="#6A6A6A" stroke="#2B2B2B" stroke-width="6.47" stroke-miterlimit="10" stroke-linecap="round"/>
<path d="M1514.41 504.44C1522.93 482.85 1537.16 452.84 1560.68 459.44C1573.68 495.04 1563.68 512.37 1556.68 561.08" fill="#2B2B2B"/>
<path d="M1514.41 504.44C1522.93 482.85 1537.16 452.84 1560.68 459.44C1573.68 495.04 1563.68 512.37 1556.68 561.08" stroke="#2B2B2B" stroke-width="8.84" stroke-linecap="round" stroke-linejoin="round"/>
<path d="M1597.23 586.07H1604.14C1611.27 586.07 1616.14 589.38 1616.14 597.66C1616.14 605.94 1611.25 609.47 1604.48 609.47H1597.21L1597.23 586.07ZM1603.78 604.5C1607.16 604.5 1609.83 603.13 1609.83 597.66C1609.83 592.19 1607.16 591.04 1603.78 591.04H1603.41V604.5H1603.78Z" fill="#2B2B2B"/>
<path d="M1618.9 600.47C1618.9 594.64 1623.15 591.04 1627.54 591.04C1632.87 591.04 1635.38 594.93 1635.38 599.75C1635.39 600.62 1635.3 601.488 1635.13 602.34H1624.87C1625.45 604.5 1627.03 605.22 1629.05 605.22C1630.37 605.19 1631.66 604.818 1632.79 604.14L1634.74 607.81C1632.8 609.123 1630.53 609.849 1628.19 609.9C1622.93 609.9 1618.9 606.45 1618.9 600.47ZM1630.13 598.31C1630.13 596.94 1629.55 595.72 1627.68 595.72C1626.96 595.709 1626.27 595.97 1625.73 596.451C1625.2 596.931 1624.87 597.595 1624.8 598.31H1630.13Z" fill="#2B2B2B"/>
<path d="M1637.33 607.17L1639.92 603.71C1641.2 604.76 1642.8 605.345 1644.46 605.37C1645.75 605.37 1646.26 605.01 1646.26 604.29C1646.26 603.35 1644.85 602.99 1642.95 602.29C1640.43 601.35 1638.34 599.63 1638.34 596.89C1638.34 593.36 1641.22 591.06 1645.47 591.06C1647.89 591.035 1650.24 591.879 1652.09 593.44L1649.5 596.89C1648.4 596.06 1647.06 595.607 1645.68 595.6C1644.6 595.6 1644.1 595.96 1644.1 596.6C1644.1 597.39 1644.96 597.76 1647.27 598.47C1650 599.34 1652.02 601.07 1652.02 603.95C1652.02 607.33 1649.35 609.95 1644.31 609.95C1641.72 609.911 1639.24 608.922 1637.33 607.17Z" fill="#2B2B2B"/>
<path d="M1654.75 586.14C1654.69 585.458 1654.84 584.773 1655.17 584.176C1655.51 583.578 1656.02 583.096 1656.63 582.793C1657.24 582.489 1657.94 582.378 1658.61 582.474C1659.29 582.57 1659.93 582.869 1660.43 583.331C1660.94 583.794 1661.29 584.398 1661.45 585.065C1661.6 585.732 1661.55 586.431 1661.31 587.07C1661.06 587.708 1660.62 588.257 1660.06 588.645C1659.49 589.032 1658.83 589.24 1658.14 589.24C1657.71 589.286 1657.27 589.239 1656.86 589.103C1656.45 588.967 1656.07 588.746 1655.75 588.453C1655.43 588.16 1655.17 587.802 1655 587.404C1654.83 587.005 1654.74 586.575 1654.75 586.14ZM1655.04 591.47H1661.23V609.47H1655.04V591.47Z" fill="#2B2B2B"/>
<path d="M1664.41 612.42C1664.41 610.95 1665.28 609.83 1666.93 608.97V608.82C1666.41 608.492 1665.99 608.035 1665.7 607.493C1665.41 606.952 1665.26 606.344 1665.28 605.73C1665.33 605.049 1665.53 604.389 1665.88 603.8C1666.23 603.212 1666.71 602.713 1667.28 602.34V602.2C1666.53 601.688 1665.91 601.001 1665.49 600.198C1665.06 599.395 1664.83 598.5 1664.83 597.59C1664.83 593.13 1668.58 591.04 1672.54 591.04C1673.52 591.031 1674.49 591.177 1675.42 591.47H1682.11V595.94H1679.52C1679.71 596.546 1679.81 597.176 1679.81 597.81C1679.81 602.05 1676.57 603.81 1672.54 603.81C1671.87 603.802 1671.2 603.718 1670.54 603.56C1670.39 603.677 1670.27 603.83 1670.2 604.005C1670.12 604.18 1670.09 604.371 1670.11 604.56C1670.11 605.36 1670.83 605.64 1672.63 605.64H1675.33C1679.83 605.64 1682.42 607.01 1682.42 610.32C1682.42 614.21 1678.42 616.87 1671.98 616.87C1667.86 616.88 1664.41 615.66 1664.41 612.42ZM1676.51 611.42C1676.51 610.49 1675.64 610.34 1674.1 610.34H1672.69C1671.82 610.386 1670.95 610.316 1670.1 610.13C1669.91 610.286 1669.75 610.482 1669.64 610.705C1669.52 610.927 1669.46 611.171 1669.45 611.42C1669.45 612.58 1670.89 613.08 1672.98 613.08C1675.07 613.08 1676.5 612.42 1676.5 611.41L1676.51 611.42ZM1674.51 597.6C1674.51 595.95 1673.72 595.15 1672.57 595.15C1671.42 595.15 1670.57 595.95 1670.57 597.6C1670.57 599.25 1671.37 600.12 1672.57 600.12C1673.77 600.12 1674.48 599.32 1674.48 597.59L1674.51 597.6Z" fill="#2B2B2B"/>
<path d="M1685.07 591.47H1690.07L1690.5 593.63H1690.64C1691.37 592.844 1692.25 592.21 1693.23 591.765C1694.2 591.321 1695.26 591.074 1696.33 591.04C1700.33 591.04 1701.94 593.92 1701.94 598.38V609.47H1695.75V599.17C1695.75 596.87 1695.18 596.3 1693.95 596.3C1693.42 596.322 1692.91 596.454 1692.44 596.688C1691.97 596.923 1691.55 597.254 1691.22 597.66V609.47H1685.03L1685.07 591.47Z" fill="#2B2B2B"/>
<path d="M218 493.58H224.62L228.15 503.15C228.58 504.45 228.95 505.89 229.38 507.25H229.52C229.95 505.89 230.31 504.45 230.74 503.15L234.13 493.58H240.75V516.97H235.14V510.06C235.14 507.69 235.64 503.37 235.93 500.99H235.78L233.84 507.33L230.96 515.07H227.65L224.77 507.33L222.9 500.99H222.75C223.04 503.37 223.54 507.69 223.54 510.06V516.97H218V493.58Z" fill="#2B2B2B"/>
<path d="M244.5 507.97C244.5 502.14 248.75 498.54 253.14 498.54C258.46 498.54 260.98 502.43 260.98 507.25C260.985 508.123 260.901 508.994 260.73 509.85H250.47C251.05 512.01 252.63 512.73 254.65 512.73C255.976 512.703 257.272 512.331 258.41 511.65L260.41 515.32C258.474 516.633 256.199 517.359 253.86 517.41C248.53 517.41 244.5 513.95 244.5 507.97ZM255.73 505.82C255.73 504.45 255.15 503.22 253.28 503.22C252.561 503.212 251.865 503.475 251.332 503.957C250.798 504.439 250.465 505.104 250.4 505.82H255.73Z" fill="#2B2B2B"/>
<path d="M264.41 498.98H269.41L269.84 501.17H269.98C271.42 499.77 272.98 498.54 275.38 498.54C276.407 498.459 277.434 498.691 278.326 499.205C279.219 499.719 279.935 500.491 280.38 501.42C281.86 499.91 283.48 498.54 285.92 498.54C289.92 498.54 291.61 501.42 291.61 505.89V516.97H285.41V506.68C285.41 504.37 284.83 503.8 283.61 503.8C282.624 503.914 281.721 504.405 281.09 505.17V516.97H274.88V506.68C274.88 504.37 274.3 503.8 273.08 503.8C272.094 503.914 271.191 504.405 270.56 505.17V516.97H264.41V498.98Z" fill="#2B2B2B"/>
<path d="M301.09 515.03H300.94L300.44 516.97H295.62V491.92H301.81V497.75L301.66 500.34C302.863 499.211 304.441 498.57 306.09 498.54C310.34 498.54 313.09 502.14 313.09 507.65C313.09 513.88 309.42 517.41 305.6 517.41C304.721 517.363 303.862 517.127 303.084 516.716C302.305 516.305 301.625 515.73 301.09 515.03ZM306.78 507.75C306.78 504.8 305.91 503.57 304.26 503.57C303.777 503.573 303.302 503.693 302.876 503.92C302.449 504.146 302.084 504.472 301.81 504.87V511.49C302.436 512.065 303.26 512.377 304.11 512.36C305.55 512.37 306.78 511.21 306.78 507.75Z" fill="#2B2B2B"/>
<path d="M315.56 507.97C315.56 502.14 319.81 498.54 324.2 498.54C329.53 498.54 332.05 502.43 332.05 507.25C332.053 508.123 331.965 508.995 331.79 509.85H321.54C322.11 512.01 323.7 512.73 325.71 512.73C327.016 512.694 328.29 512.322 329.41 511.65L331.36 515.32C329.424 516.633 327.149 517.359 324.81 517.41C319.59 517.41 315.56 513.95 315.56 507.97ZM326.79 505.82C326.79 504.45 326.22 503.22 324.34 503.22C323.621 503.212 322.925 503.475 322.392 503.957C321.858 504.439 321.525 505.104 321.46 505.82H326.79Z" fill="#2B2B2B"/>
<path d="M335.41 498.98H340.41L340.84 502.07H340.99C342.32 499.62 344.33 498.54 346.1 498.54C346.86 498.503 347.62 498.625 348.33 498.9L347.18 504.16C346.568 504.009 345.94 503.935 345.31 503.94C344.01 503.94 342.43 504.74 341.56 506.94V516.94H335.41V498.98Z" fill="#2B2B2B"/>
<path d="M218 529.58H233.12V534.75H224.19V538.42H231.82V543.61H224.19V547.75H233.48V552.93H218V529.58Z" fill="#2B2B2B"/>
<path d="M239.53 543.62L234.41 534.98H241.03L242.33 537.5L243.77 540.59H243.91C244.24 539.59 244.67 538.5 244.99 537.5L245.86 534.98H252.26L247.15 544.33L252.55 552.97H245.94L244.5 550.45C243.96 549.45 243.45 548.37 242.91 547.36H242.77C242.37 548.36 241.94 549.41 241.55 550.45L240.55 552.97H234.13L239.53 543.62Z" fill="#2B2B2B"/>
<path d="M255.15 534.98H260.15L260.59 536.63H260.73C262.051 535.356 263.795 534.612 265.63 534.54C269.87 534.54 272.63 538.14 272.63 543.69C272.63 549.88 268.96 553.41 265.14 553.41C264.387 553.392 263.645 553.223 262.958 552.914C262.271 552.605 261.653 552.162 261.14 551.61L261.36 554.34V559.34H255.16L255.15 534.98ZM266.31 543.75C266.31 540.8 265.45 539.57 263.79 539.57C263.309 539.575 262.836 539.696 262.411 539.922C261.987 540.148 261.623 540.474 261.35 540.87V547.49C261.976 548.066 262.8 548.377 263.65 548.36C265.09 548.37 266.31 547.21 266.31 543.75Z" fill="#2B2B2B"/>
<path d="M275.1 543.97C275.1 538.14 279.35 534.54 283.74 534.54C289.06 534.54 291.58 538.43 291.58 543.25C291.585 544.123 291.501 544.994 291.33 545.85H281.07C281.65 548.01 283.23 548.73 285.25 548.73C286.569 548.7 287.858 548.328 288.99 547.65L290.99 551.32C289.045 552.639 286.759 553.365 284.41 553.41C279.13 553.41 275.1 549.95 275.1 543.97ZM286.33 541.82C286.33 540.45 285.75 539.22 283.88 539.22C283.161 539.212 282.465 539.475 281.932 539.957C281.398 540.439 281.065 541.104 281 541.82H286.33Z" fill="#2B2B2B"/>
<path d="M294.97 534.98H299.97L300.4 538.07H300.54C301.88 535.62 303.89 534.54 305.66 534.54C306.42 534.504 307.18 534.627 307.89 534.9L306.74 540.16C306.125 540.009 305.493 539.935 304.86 539.94C303.57 539.94 301.99 540.74 301.12 542.94V552.94H294.97V534.98Z" fill="#2B2B2B"/>
<path d="M309.73 529.65C309.67 528.967 309.817 528.282 310.153 527.684C310.489 527.087 310.997 526.605 311.612 526.301C312.227 525.998 312.919 525.887 313.598 525.984C314.276 526.081 314.91 526.381 315.415 526.844C315.92 527.308 316.274 527.913 316.429 528.581C316.584 529.249 316.533 529.948 316.284 530.586C316.035 531.225 315.598 531.773 315.032 532.159C314.466 532.546 313.796 532.752 313.11 532.75C312.679 532.794 312.244 532.746 311.833 532.61C311.421 532.473 311.044 532.251 310.725 531.958C310.405 531.666 310.152 531.309 309.98 530.911C309.809 530.513 309.724 530.083 309.73 529.65ZM310.02 534.98H316.21V552.98H310.02V534.98Z" fill="#2B2B2B"/>
<path d="M319.41 543.97C319.41 538.14 323.66 534.54 328.05 534.54C333.38 534.54 335.9 538.43 335.9 543.25C335.902 544.123 335.815 544.995 335.64 545.85H325.41C325.99 548.01 327.57 548.73 329.59 548.73C330.909 548.7 332.198 548.328 333.33 547.65L335.28 551.32C333.344 552.633 331.069 553.359 328.73 553.41C323.48 553.41 319.41 549.95 319.41 543.97ZM330.64 541.82C330.64 540.45 330.06 539.22 328.19 539.22C327.471 539.212 326.775 539.475 326.242 539.957C325.708 540.439 325.375 541.104 325.31 541.82H330.64Z" fill="#2B2B2B"/>
<path d="M339.32 534.98H344.32L344.75 537.14H344.9C345.629 536.354 346.506 535.719 347.48 535.273C348.455 534.827 349.509 534.578 350.58 534.54C354.58 534.54 356.2 537.42 356.2 541.89V552.97H350.01V542.68C350.01 540.37 349.43 539.8 348.21 539.8C347.682 539.822 347.166 539.956 346.693 540.192C346.221 540.428 345.804 540.761 345.47 541.17V552.97H339.28L339.32 534.98Z" fill="#2B2B2B"/>
<path d="M359.34 543.97C359.34 537.97 363.87 534.54 368.98 534.54C370.904 534.506 372.774 535.174 374.24 536.42L371.41 540.23C370.846 539.768 370.14 539.514 369.41 539.51C367.11 539.51 365.74 541.24 365.74 543.97C365.74 546.7 367.25 548.44 369.2 548.44C370.245 548.439 371.259 548.086 372.08 547.44L374.45 551.33C372.767 552.728 370.637 553.47 368.45 553.42C363.3 553.41 359.34 549.95 359.34 543.97Z" fill="#2B2B2B"/>
<path d="M375.25 543.97C375.25 538.14 379.5 534.54 383.89 534.54C389.21 534.54 391.73 538.43 391.73 543.25C391.735 544.123 391.651 544.994 391.48 545.85H381.22C381.8 548.01 383.38 548.73 385.4 548.73C386.719 548.7 388.008 548.328 389.14 547.65L391.14 551.32C389.201 552.635 386.923 553.361 384.58 553.41C379.28 553.41 375.25 549.95 375.25 543.97ZM386.48 541.82C386.48 540.45 385.9 539.22 384.03 539.22C383.311 539.212 382.615 539.475 382.082 539.957C381.548 540.439 381.215 541.104 381.15 541.82H386.48Z" fill="#2B2B2B"/>
<path d="M1013.48 673.37H1028.59V678.55H1019.67V682.22H1027.3V687.4H1019.67V691.58H1028.95V696.75H1013.48V673.37Z" fill="#2B2B2B"/>
<path d="M1031.84 687.75C1031.84 681.85 1035.51 678.32 1039.18 678.32C1039.97 678.299 1040.75 678.449 1041.47 678.76C1042.19 679.071 1042.84 679.535 1043.36 680.12L1043.14 677.53V671.75H1049.33V696.75H1044.33L1043.9 695.1H1043.75C1042.56 696.341 1040.94 697.084 1039.22 697.18C1034.72 697.19 1031.84 693.6 1031.84 687.75ZM1043.14 690.85V684.23C1042.46 683.65 1041.59 683.34 1040.69 683.36C1039.4 683.36 1038.17 684.51 1038.17 687.68C1038.17 690.85 1039.17 692.15 1040.84 692.15C1041.31 692.174 1041.77 692.066 1042.18 691.838C1042.58 691.609 1042.92 691.27 1043.14 690.86V690.85Z" fill="#2B2B2B"/>
<path d="M1053.22 673.44C1053.16 672.757 1053.3 672.071 1053.64 671.473C1053.97 670.874 1054.48 670.39 1055.09 670.085C1055.71 669.78 1056.4 669.668 1057.08 669.764C1057.76 669.859 1058.39 670.158 1058.9 670.621C1059.41 671.084 1059.76 671.689 1059.92 672.357C1060.07 673.025 1060.02 673.724 1059.77 674.364C1059.53 675.003 1059.09 675.552 1058.52 675.939C1057.96 676.325 1057.29 676.532 1056.6 676.53C1056.17 676.574 1055.74 676.526 1055.32 676.391C1054.91 676.255 1054.54 676.034 1054.22 675.742C1053.9 675.45 1053.65 675.095 1053.47 674.698C1053.3 674.301 1053.21 673.873 1053.22 673.44ZM1053.51 678.77H1059.7V696.77H1053.51V678.77Z" fill="#2B2B2B"/>
<path d="M1064.67 689.85V683.59H1062.29V678.98L1065.03 678.77L1065.75 673.37H1070.86V678.75H1074.96V683.57H1070.86V689.75C1070.86 691.75 1071.86 692.38 1073.02 692.38C1073.55 692.389 1074.09 692.318 1074.6 692.17L1075.54 696.48C1074.18 696.975 1072.74 697.219 1071.29 697.2C1066.61 697.19 1064.67 694.24 1064.67 689.85Z" fill="#2B2B2B"/>
<path d="M1076.62 687.75C1076.62 681.75 1080.94 678.32 1085.55 678.32C1090.16 678.32 1094.47 681.78 1094.47 687.75C1094.47 693.72 1090.15 697.18 1085.55 697.18C1080.95 697.18 1076.62 693.75 1076.62 687.75ZM1088.14 687.75C1088.14 685.02 1087.42 683.29 1085.55 683.29C1083.68 683.29 1082.95 685.02 1082.95 687.75C1082.95 690.48 1083.68 692.22 1085.55 692.22C1087.42 692.22 1088.14 690.5 1088.14 687.75Z" fill="#2B2B2B"/>
<path d="M1097.72 678.75H1102.72L1103.15 681.84H1103.29C1104.62 679.39 1106.64 678.31 1108.4 678.31C1109.16 678.271 1109.92 678.394 1110.63 678.67L1109.48 683.93C1108.87 683.774 1108.24 683.7 1107.61 683.71C1106.32 683.71 1104.73 684.5 1103.87 686.71V696.71H1097.68L1097.72 678.75Z" fill="#2B2B2B"/>
<path d="M1112.48 673.44C1112.42 672.76 1112.57 672.077 1112.9 671.481C1113.23 670.885 1113.74 670.404 1114.35 670.101C1114.97 669.799 1115.66 669.688 1116.33 669.783C1117.01 669.879 1117.64 670.177 1118.14 670.638C1118.65 671.099 1119 671.701 1119.16 672.367C1119.31 673.032 1119.26 673.728 1119.02 674.365C1118.77 675.002 1118.34 675.55 1117.77 675.936C1117.21 676.322 1116.54 676.529 1115.86 676.53C1115.43 676.574 1115 676.526 1114.59 676.39C1114.17 676.254 1113.8 676.033 1113.48 675.742C1113.16 675.45 1112.91 675.094 1112.73 674.697C1112.56 674.301 1112.48 673.872 1112.48 673.44ZM1112.76 678.77H1118.95V696.77H1112.76V678.77Z" fill="#2B2B2B"/>
<path d="M1122.41 691.65C1122.41 687.91 1125.29 685.82 1132.2 685.1C1132.06 683.8 1131.27 683.23 1129.68 683.23C1128.07 683.321 1126.51 683.816 1125.15 684.67L1122.99 680.67C1125.36 679.16 1128.1 678.336 1130.91 678.29C1135.59 678.29 1138.39 680.81 1138.39 686.72V696.72H1133.39L1132.96 695H1132.82C1131.49 696.332 1129.7 697.102 1127.82 697.15C1127.1 697.167 1126.38 697.036 1125.71 696.764C1125.04 696.493 1124.43 696.087 1123.92 695.571C1123.42 695.056 1123.02 694.442 1122.76 693.767C1122.5 693.093 1122.38 692.372 1122.41 691.65ZM1132.2 691.22V688.75C1129.25 689.18 1128.31 690.12 1128.31 691.13C1128.31 691.95 1128.89 692.42 1129.97 692.42C1130.41 692.407 1130.84 692.292 1131.23 692.083C1131.61 691.875 1131.95 691.579 1132.2 691.22Z" fill="#2B2B2B"/>
<path d="M1142.41 690.43V671.75H1148.6V690.68C1148.6 691.91 1149.18 692.27 1149.6 692.27C1149.82 692.278 1150.03 692.254 1150.24 692.2L1150.96 696.73C1150 697.098 1148.98 697.268 1147.96 697.23C1143.79 697.19 1142.41 694.46 1142.41 690.43Z" fill="#2B2B2B"/>
<path d="M1193.12 673.37H1199.68L1201.98 683.59C1202.56 686.07 1203.06 688.48 1203.71 691H1203.85C1204.5 688.48 1204.97 686.07 1205.58 683.59L1208.1 673.37H1214.41L1207.41 696.75H1199.92L1193.12 673.37Z" fill="#2B2B2B"/>
<path d="M1215.88 673.44C1215.82 672.76 1215.97 672.077 1216.3 671.481C1216.63 670.885 1217.14 670.404 1217.75 670.101C1218.37 669.799 1219.06 669.688 1219.73 669.783C1220.41 669.879 1221.04 670.177 1221.54 670.638C1222.05 671.099 1222.4 671.701 1222.56 672.367C1222.71 673.032 1222.66 673.728 1222.42 674.365C1222.17 675.002 1221.74 675.55 1221.17 675.936C1220.61 676.322 1219.94 676.529 1219.26 676.53C1218.83 676.574 1218.4 676.526 1217.98 676.39C1217.57 676.254 1217.2 676.033 1216.88 675.742C1216.56 675.45 1216.31 675.094 1216.13 674.697C1215.96 674.301 1215.87 673.872 1215.88 673.44ZM1216.16 678.77H1222.36V696.77H1216.16V678.77Z" fill="#2B2B2B"/>
<path d="M1225.74 687.75C1225.74 681.85 1229.41 678.32 1233.08 678.32C1233.87 678.298 1234.65 678.447 1235.37 678.758C1236.09 679.069 1236.74 679.534 1237.26 680.12L1237.04 677.53V671.75H1243.23V696.75H1238.23L1237.79 695.1H1237.65C1236.45 696.343 1234.83 697.087 1233.11 697.18C1228.62 697.19 1225.74 693.6 1225.74 687.75ZM1237.04 690.85V684.23C1236.36 683.65 1235.49 683.34 1234.6 683.36C1233.3 683.36 1232.08 684.51 1232.08 687.68C1232.08 690.85 1233.08 692.15 1234.74 692.15C1235.21 692.177 1235.67 692.069 1236.08 691.841C1236.49 691.612 1236.82 691.272 1237.04 690.86V690.85Z" fill="#2B2B2B"/>
<path d="M1246.48 687.75C1246.48 681.92 1250.72 678.32 1255.12 678.32C1260.44 678.32 1262.96 682.21 1262.96 687.03C1262.96 687.903 1262.88 688.774 1262.71 689.63H1252.41C1252.99 691.79 1254.57 692.51 1256.59 692.51C1257.91 692.479 1259.2 692.107 1260.33 691.43L1262.27 695.1C1260.33 696.41 1258.06 697.132 1255.72 697.18C1250.51 697.19 1246.48 693.75 1246.48 687.75ZM1257.71 685.59C1257.76 685.251 1257.73 684.904 1257.63 684.577C1257.53 684.25 1257.35 683.95 1257.11 683.701C1256.88 683.452 1256.59 683.259 1256.27 683.138C1255.95 683.017 1255.6 682.969 1255.26 683C1254.54 682.99 1253.85 683.251 1253.31 683.731C1252.78 684.211 1252.45 684.875 1252.38 685.59H1257.71Z" fill="#2B2B2B"/>
<path d="M1265.41 687.75C1265.41 681.75 1269.73 678.32 1274.34 678.32C1278.95 678.32 1283.27 681.78 1283.27 687.75C1283.27 693.72 1278.95 697.18 1274.34 697.18C1269.73 697.18 1265.41 693.75 1265.41 687.75ZM1276.93 687.75C1276.93 685.02 1276.21 683.29 1274.34 683.29C1272.47 683.29 1271.75 685.02 1271.75 687.75C1271.75 690.48 1272.47 692.22 1274.34 692.22C1276.21 692.22 1276.93 690.5 1276.93 687.75Z" fill="#2B2B2B"/>
<path d="M545.35 450.08C545.35 442.24 550.75 437.77 557.01 437.77C558.427 437.731 559.837 437.987 561.15 438.52C562.463 439.054 563.652 439.854 564.64 440.87L561.41 444.61C560.849 444.094 560.19 443.694 559.472 443.434C558.754 443.175 557.992 443.062 557.23 443.1C554.06 443.1 551.69 445.62 551.69 449.87C551.69 454.12 553.63 456.7 557.81 456.7C558.438 456.72 559.059 456.571 559.61 456.27V453.03H556.15V448.03H565.08V459.15C562.885 461.053 560.065 462.078 557.16 462.03C550.61 462.03 545.35 458.07 545.35 450.08Z" fill="#2B2B2B"/>
<path d="M569.11 443.6H574.11L574.54 446.7H574.69C576.02 444.25 578.03 443.17 579.8 443.17C580.56 443.132 581.32 443.255 582.03 443.53L580.92 448.75C580.309 448.594 579.68 448.52 579.05 448.53C577.75 448.53 576.17 449.32 575.3 451.53V461.53H569.11V443.6Z" fill="#2B2B2B"/>
<path d="M582.86 452.6C582.86 446.6 587.18 443.17 591.79 443.17C596.4 443.17 600.72 446.63 600.72 452.6C600.72 458.57 596.4 462.03 591.79 462.03C587.18 462.03 582.86 458.58 582.86 452.6ZM594.38 452.6C594.38 449.87 593.66 448.14 591.79 448.14C589.92 448.14 589.2 449.87 589.2 452.6C589.2 455.33 589.92 457.07 591.79 457.07C593.66 457.07 594.41 455.34 594.41 452.6H594.38Z" fill="#2B2B2B"/>
<path d="M602.41 443.6H608.53L609.9 451.16C610.19 452.96 610.33 454.76 610.62 456.63H610.77C611.05 454.76 611.34 452.89 611.77 451.16L613.43 443.6H618.69L620.41 451.16C620.84 452.96 621.13 454.76 621.49 456.63H621.64C621.92 454.76 622.07 452.96 622.36 451.16L623.73 443.6H629.41L625.31 461.6H618.11L616.81 455.34C616.53 453.68 616.24 452.03 615.95 450.05H615.81C615.52 452.05 615.3 453.68 615.01 455.34L613.79 461.6H606.79L602.41 443.6Z" fill="#2B2B2B"/>
<path d="M633.12 454.69V448.43H630.74V443.82L633.48 443.6L634.2 438.2H639.31V443.6H643.41V448.43H639.31V454.58C639.31 456.58 640.31 457.21 641.47 457.21C642.005 457.222 642.539 457.148 643.05 456.99L643.99 461.31C642.628 461.805 641.189 462.049 639.74 462.03C635.06 462.03 633.12 459.08 633.12 454.69Z" fill="#2B2B2B"/>
<path d="M646.73 436.55H652.92V442.38L652.63 445.47C654.074 444.047 656.004 443.225 658.03 443.17C662.03 443.17 663.64 446.05 663.64 450.51V461.6H657.41V451.31C657.41 449 656.84 448.43 655.61 448.43C655.085 448.451 654.57 448.584 654.1 448.818C653.629 449.052 653.213 449.384 652.88 449.79V461.6H646.69L646.73 436.55Z" fill="#2B2B2B"/>
<path d="M1448.41 360.54H1456.98C1462.09 360.54 1466.48 362.41 1466.48 368.31C1466.48 374.04 1462.02 376.52 1457.12 376.52H1454.6V383.93H1448.41V360.54ZM1456.83 371.62C1459.28 371.62 1460.43 370.4 1460.43 368.31C1460.43 366.22 1459.07 365.43 1456.69 365.43H1454.6V371.62H1456.83Z" fill="#2B2B2B"/>
<path d="M1469.84 365.94H1474.84L1475.28 369.03H1475.42C1476.75 366.58 1478.77 365.5 1480.53 365.5C1481.29 365.462 1482.05 365.584 1482.76 365.86L1481.61 371.12C1481 370.97 1480.37 370.896 1479.74 370.9C1478.44 370.9 1476.86 371.7 1476 373.9V383.9H1469.81L1469.84 365.94Z" fill="#2B2B2B"/>
<path d="M1483.59 374.94C1483.59 368.94 1487.91 365.5 1492.52 365.5C1497.13 365.5 1501.44 368.96 1501.44 374.94C1501.44 380.92 1497.12 384.37 1492.52 384.37C1487.92 384.37 1483.59 380.91 1483.59 374.94ZM1495.11 374.94C1495.11 372.2 1494.39 370.47 1492.52 370.47C1490.65 370.47 1489.92 372.2 1489.92 374.94C1489.92 377.68 1490.64 379.4 1492.52 379.4C1494.4 379.4 1495.11 377.67 1495.11 374.94Z" fill="#2B2B2B"/>
<path d="M1503.89 374.94C1503.89 369.03 1507.56 365.5 1511.23 365.5C1512.02 365.478 1512.8 365.627 1513.52 365.938C1514.24 366.249 1514.89 366.714 1515.41 367.3L1515.2 364.71V358.88H1521.41V383.93H1516.41L1515.97 382.28H1515.83C1514.64 383.525 1513.01 384.272 1511.29 384.37C1506.77 384.37 1503.89 380.75 1503.89 374.94ZM1515.2 378.03V371.41C1514.52 370.831 1513.65 370.521 1512.75 370.54C1511.45 370.54 1510.23 371.7 1510.23 374.86C1510.23 378.02 1511.23 379.33 1512.89 379.33C1513.36 379.355 1513.83 379.246 1514.23 379.016C1514.64 378.786 1514.98 378.444 1515.2 378.03Z" fill="#2B2B2B"/>
<path d="M1525.41 377.02V365.94H1531.6V376.23C1531.6 378.54 1532.18 379.11 1533.4 379.11C1533.94 379.12 1534.47 378.977 1534.92 378.697C1535.38 378.417 1535.75 378.012 1535.99 377.53V365.94H1542.18V383.94H1537.18L1536.75 381.57H1536.61C1535.97 382.445 1535.14 383.156 1534.17 383.645C1533.21 384.134 1532.14 384.386 1531.06 384.38C1527.08 384.37 1525.41 381.49 1525.41 377.02Z" fill="#2B2B2B"/>
<path d="M1545.41 374.94C1545.41 368.94 1549.94 365.5 1555.05 365.5C1556.97 365.466 1558.84 366.134 1560.31 367.38L1557.43 371.19C1556.87 370.728 1556.16 370.474 1555.43 370.47C1553.13 370.47 1551.76 372.2 1551.76 374.94C1551.76 377.68 1553.27 379.4 1555.22 379.4C1556.27 379.399 1557.28 379.046 1558.1 378.4L1560.47 382.29C1558.79 383.688 1556.66 384.43 1554.47 384.38C1549.41 384.37 1545.41 380.91 1545.41 374.94Z" fill="#2B2B2B"/>
<path d="M1563.79 377.02V370.75H1561.41V366.15L1564.14 365.94L1564.86 360.54H1569.98V365.94H1574.08V370.75H1569.98V376.9C1569.98 378.9 1570.98 379.53 1572.14 379.53C1572.67 379.539 1573.21 379.468 1573.72 379.32L1574.66 383.64C1573.3 384.135 1571.86 384.379 1570.41 384.36C1565.74 384.37 1563.79 381.41 1563.79 377.02Z" fill="#2B2B2B"/>
<path d="M1584.1 372.13C1584.1 364.42 1588.49 360.13 1594.97 360.13C1601.45 360.13 1605.84 364.48 1605.84 372.13C1605.84 379.78 1601.45 384.37 1594.97 384.37C1588.49 384.37 1584.1 379.83 1584.1 372.13ZM1599.5 372.13C1599.5 367.88 1597.78 365.43 1594.97 365.43C1592.16 365.43 1590.43 367.88 1590.43 372.13C1590.43 376.38 1592.16 379.04 1594.97 379.04C1597.78 379.04 1599.5 376.37 1599.5 372.13Z" fill="#2B2B2B"/>
<path d="M1608.29 365.94H1614.41L1615.78 373.5C1616.06 375.3 1616.21 377.09 1616.5 378.97H1616.64C1616.93 377.09 1617.22 375.22 1617.64 373.5L1619.29 365.94H1624.55L1626.28 373.5C1626.71 375.3 1627 377.09 1627.36 378.97H1627.5C1627.79 377.09 1627.93 375.3 1628.22 373.5L1629.59 365.94H1635.28L1631.17 383.94H1623.97L1622.68 377.68C1622.39 376.03 1622.1 374.37 1621.81 372.39H1621.67C1621.38 374.39 1621.17 376.03 1620.88 377.68L1619.65 383.94H1612.65L1608.29 365.94Z" fill="#2B2B2B"/>
<path d="M1638.24 365.94H1643.24L1643.67 368.1H1643.82C1644.55 367.314 1645.43 366.679 1646.4 366.233C1647.38 365.786 1648.43 365.537 1649.5 365.5C1653.5 365.5 1655.12 368.38 1655.12 372.85V383.93H1648.93V373.64C1648.93 371.34 1648.35 370.76 1647.13 370.76C1646.6 370.782 1646.09 370.915 1645.61 371.152C1645.14 371.388 1644.72 371.721 1644.39 372.13V383.93H1638.2L1638.24 365.94Z" fill="#2B2B2B"/>
<path d="M1658.26 374.94C1658.26 369.1 1662.5 365.5 1666.9 365.5C1672.22 365.5 1674.74 369.39 1674.74 374.22C1674.74 375.09 1674.66 375.957 1674.49 376.81H1664.23C1664.81 378.97 1666.39 379.69 1668.41 379.69C1669.73 379.66 1671.02 379.288 1672.15 378.61L1674.15 382.28C1672.21 383.595 1669.93 384.321 1667.59 384.37C1662.29 384.37 1658.26 380.91 1658.26 374.94ZM1669.49 372.75C1669.49 371.38 1668.91 370.15 1667.04 370.15C1666.32 370.142 1665.63 370.405 1665.09 370.887C1664.56 371.369 1664.23 372.034 1664.16 372.75H1669.49Z" fill="#2B2B2B"/>
<path d="M1678.13 365.94H1683.13L1683.56 369.03H1683.7C1685.04 366.58 1687.05 365.5 1688.82 365.5C1689.58 365.464 1690.34 365.587 1691.05 365.86L1689.9 371.12C1689.28 370.969 1688.65 370.895 1688.02 370.9C1686.73 370.9 1685.14 371.7 1684.28 373.9V383.9H1678.09L1678.13 365.94Z" fill="#2B2B2B"/>
<path d="M747.8 673.37H754.71C761.84 673.37 766.71 676.68 766.71 684.96C766.71 693.24 761.81 696.76 755.04 696.76H747.77L747.8 673.37ZM754.41 691.8C757.79 691.8 760.41 690.43 760.41 684.96C760.41 679.49 757.75 678.33 754.41 678.33H754.04V691.8H754.41Z" fill="#2B2B2B"/>
<path d="M769.48 687.75C769.48 681.92 773.72 678.32 778.11 678.32C783.44 678.32 785.96 682.21 785.96 687.03C785.965 687.903 785.881 688.774 785.71 689.63H775.41C775.99 691.79 777.57 692.51 779.59 692.51C780.909 692.479 782.197 692.107 783.33 691.43L785.27 695.1C783.333 696.412 781.059 697.138 778.72 697.19C773.51 697.2 769.48 693.75 769.48 687.75ZM780.71 685.59C780.76 685.251 780.732 684.904 780.628 684.577C780.525 684.25 780.349 683.95 780.113 683.701C779.877 683.452 779.588 683.259 779.267 683.138C778.946 683.017 778.602 682.969 778.26 683C777.542 682.99 776.846 683.251 776.312 683.731C775.778 684.211 775.445 684.875 775.38 685.59H780.71Z" fill="#2B2B2B"/>
<path d="M787.33 678.75H793.52L795.47 686.59C795.903 688.39 796.333 690.263 796.76 692.21H796.91C797.337 690.257 797.767 688.383 798.2 686.59L800.2 678.75H806.1L800.41 696.75H793.28L787.33 678.75Z" fill="#2B2B2B"/>
<path d="M807.28 687.75C807.28 681.92 811.52 678.32 815.91 678.32C821.24 678.32 823.76 682.21 823.76 687.03C823.765 687.903 823.681 688.774 823.51 689.63H813.25C813.83 691.79 815.41 692.51 817.43 692.51C818.749 692.479 820.037 692.107 821.17 691.43L823.11 695.1C821.173 696.412 818.899 697.138 816.56 697.19C811.31 697.2 807.28 693.75 807.28 687.75ZM818.51 685.59C818.56 685.251 818.532 684.904 818.429 684.577C818.325 684.25 818.149 683.95 817.913 683.701C817.677 683.452 817.388 683.259 817.067 683.138C816.746 683.017 816.402 682.969 816.06 683C815.342 682.99 814.646 683.251 814.112 683.731C813.578 684.211 813.245 684.875 813.18 685.59H818.51Z" fill="#2B2B2B"/>
<path d="M827.15 690.43V671.75H833.34V690.68C833.34 691.91 833.91 692.27 834.34 692.27C834.556 692.278 834.771 692.254 834.98 692.2L835.7 696.73C834.745 697.102 833.724 697.275 832.7 697.24C828.51 697.2 827.15 694.46 827.15 690.43Z" fill="#2B2B2B"/>
<path d="M836.94 687.75C836.94 681.75 841.26 678.32 845.87 678.32C850.48 678.32 854.79 681.78 854.79 687.75C854.79 693.72 850.47 697.19 845.87 697.19C841.27 697.19 836.94 693.75 836.94 687.75ZM848.46 687.75C848.46 685.02 847.74 683.29 845.87 683.29C844 683.29 843.27 685.02 843.27 687.75C843.27 690.48 843.99 692.22 845.87 692.22C847.75 692.22 848.46 690.5 848.46 687.75Z" fill="#2B2B2B"/>
<path d="M858.03 678.75H863.03L863.47 680.4H863.61C864.928 679.126 866.669 678.382 868.5 678.31C872.75 678.31 875.5 681.91 875.5 687.46C875.5 693.65 871.83 697.18 868.01 697.18C867.257 697.161 866.515 696.993 865.828 696.684C865.141 696.374 864.523 695.931 864.01 695.38L864.22 698.11V703.11H858.03V678.75ZM869.19 687.53C869.19 684.58 868.33 683.35 866.67 683.35C866.187 683.353 865.712 683.473 865.286 683.699C864.859 683.926 864.494 684.252 864.22 684.65V691.27C864.851 691.844 865.677 692.155 866.53 692.14C867.97 692.16 869.19 691 869.19 687.55V687.53Z" fill="#2B2B2B"/>
<path d="M878.91 678.75H883.91L884.34 680.94H884.49C885.93 679.54 887.49 678.31 889.89 678.31C890.917 678.229 891.944 678.461 892.836 678.975C893.729 679.489 894.445 680.261 894.89 681.19C896.36 679.68 897.98 678.31 900.43 678.31C904.43 678.31 906.12 681.19 906.12 685.66V696.75H899.93V686.47C899.93 684.16 899.35 683.59 898.13 683.59C897.144 683.702 896.24 684.193 895.61 684.96V696.75H889.41V686.47C889.41 684.16 888.84 683.59 887.61 683.59C886.627 683.702 885.726 684.194 885.1 684.96V696.75H878.9L878.91 678.75Z" fill="#2B2B2B"/>
<path d="M909.23 687.75C909.23 681.92 913.47 678.32 917.86 678.32C923.19 678.32 925.71 682.21 925.71 687.03C925.715 687.903 925.631 688.774 925.46 689.63H915.2C915.78 691.79 917.36 692.51 919.38 692.51C920.699 692.479 921.987 692.107 923.12 691.43L925.06 695.1C923.123 696.412 920.849 697.138 918.51 697.19C913.26 697.2 909.23 693.75 909.23 687.75ZM920.46 685.59C920.51 685.251 920.482 684.904 920.378 684.577C920.275 684.25 920.099 683.95 919.863 683.701C919.627 683.452 919.338 683.259 919.017 683.138C918.696 683.017 918.352 682.969 918.01 683C917.292 682.99 916.596 683.251 916.062 683.731C915.528 684.211 915.195 684.875 915.13 685.59H920.46Z" fill="#2B2B2B"/>
<path d="M929.1 678.75H934.1L934.53 680.91H934.67C935.4 680.122 936.278 679.487 937.255 679.04C938.232 678.594 939.287 678.346 940.36 678.31C944.36 678.31 945.97 681.19 945.97 685.66V696.75H939.78V686.47C939.78 684.16 939.21 683.59 937.98 683.59C937.454 683.611 936.938 683.744 936.468 683.981C935.997 684.217 935.582 684.551 935.25 684.96V696.75H929.06L929.1 678.75Z" fill="#2B2B2B"/>
<path d="M950.84 689.85V683.59H948.46V678.98L951.2 678.77L951.92 673.37H957.03V678.75H961.13V683.57H957.03V689.75C957.03 691.75 958.03 692.38 959.19 692.38C959.727 692.389 960.263 692.318 960.78 692.17L961.71 696.48C960.35 696.982 958.909 697.229 957.46 697.21C952.78 697.2 950.84 694.24 950.84 689.85Z" fill="#2B2B2B"/>
</svg>
