<svg width="1920" height="1080" viewBox="0 0 1920 1080" fill="none" xmlns="http://www.w3.org/2000/svg">
<rect width="1920" height="1080" fill="white"/>
<path d="M695.87 643.56H686.95L685.18 651H678.46L687.6 619.7H695.53L704.67 651H697.67L695.87 643.56ZM694.53 638.04L693.85 635.16C693.05 632.04 692.24 628.34 691.48 625.08H691.3C690.58 628.39 689.82 632.08 689.01 635.16L688.3 638.04H694.53Z" fill="#2B2B2B"/>
<path d="M707.1 619.99C707.076 619.231 707.279 618.482 707.684 617.84C708.088 617.198 708.675 616.691 709.369 616.384C710.064 616.078 710.834 615.985 711.581 616.119C712.328 616.253 713.018 616.607 713.562 617.136C714.107 617.665 714.481 618.344 714.637 619.087C714.793 619.83 714.723 620.602 714.437 621.305C714.151 622.009 713.662 622.61 713.031 623.033C712.401 623.456 711.659 623.681 710.9 623.68C710.403 623.709 709.905 623.634 709.438 623.461C708.971 623.287 708.545 623.018 708.187 622.671C707.83 622.324 707.549 621.907 707.362 621.445C707.174 620.983 707.085 620.488 707.1 619.99ZM707.63 627.19H714.18V651H707.59L707.63 627.19Z" fill="#2B2B2B"/>
<path d="M719.68 627.19H725.06L725.51 631.37H725.69C727.3 628.15 729.69 626.61 732 626.61C732.908 626.567 733.815 626.731 734.65 627.09L733.57 633.19C732.789 632.936 731.972 632.808 731.15 632.81C729.5 632.81 727.43 633.96 726.27 637.17V651H719.68V627.19Z" fill="#2B2B2B"/>
<path d="M740.61 625.65H732.61V619.7H755.28V625.65H747.28V651H740.65L740.61 625.65Z" fill="#2B2B2B"/>
<path d="M767.36 635.69C767.22 633.57 766.24 632.23 763.86 632.23C761.726 632.38 759.677 633.129 757.95 634.39L755.62 629.73C758.416 627.79 761.717 626.706 765.12 626.61C770.8 626.61 773.94 630.07 773.94 637.37V651H768.57L768.07 648.55H767.94C766.249 650.362 763.916 651.439 761.44 651.55C757.44 651.55 754.86 648.38 754.86 644.34C754.86 639.38 758.58 636.65 767.36 635.69ZM763.68 646.1C765.21 646.1 766.19 645.33 767.36 644.1V639.92C762.65 640.59 761.13 642.03 761.13 643.86C761.18 645.38 762.11 646.1 763.68 646.1Z" fill="#2B2B2B"/>
<path d="M779.31 617.35H785.89V625.6L785.71 629.25C787.261 627.657 789.359 626.713 791.58 626.61C796.96 626.61 800.32 631.37 800.32 638.66C800.32 646.87 795.75 651.58 790.96 651.58C789.832 651.513 788.731 651.203 787.734 650.671C786.736 650.14 785.865 649.399 785.18 648.5H785L784.46 651H779.31V617.35ZM789.43 645.81C791.72 645.81 793.55 643.7 793.55 638.81C793.55 634.53 792.34 632.37 789.7 632.37C788.36 632.37 787.15 633.04 785.89 634.53V644.28C786.347 644.759 786.896 645.141 787.505 645.404C788.113 645.667 788.768 645.805 789.43 645.81Z" fill="#2B2B2B"/>
<path d="M804.75 617.35H811.33V643.89C811.33 645.38 811.96 645.89 812.5 645.89C812.77 645.899 813.039 645.869 813.3 645.8L814.11 651.03C813.055 651.451 811.925 651.648 810.79 651.61C806.27 651.61 804.79 648.44 804.79 643.61L804.75 617.35Z" fill="#2B2B2B"/>
<path d="M826.46 626.61C832.78 626.61 835.92 631.56 835.92 638.04C835.93 639.047 835.84 640.052 835.65 641.04H822.34C822.93 644.64 825.17 646.23 828.12 646.23C829.844 646.197 831.517 645.643 832.92 644.64L835.11 648.92C832.821 650.603 830.07 651.543 827.23 651.61C820.86 651.61 815.98 647 815.98 639.12C815.98 631.37 821.18 626.61 826.46 626.61ZM830.32 636.61C830.32 633.87 829.24 631.95 826.6 631.95C824.54 631.95 822.75 633.44 822.3 636.61H830.32Z" fill="#2B2B2B"/>
<path d="M619.18 681.39H624.69C631.48 681.39 635.11 685.6 635.11 693.08C635.11 700.56 631.48 705 624.83 705H619.18V681.39ZM624.49 702.55C629.63 702.55 632.22 699.06 632.22 693.08C632.22 687.1 629.63 683.83 624.49 683.83H621.97V702.55H624.49Z" fill="#2B2B2B"/>
<path d="M638.86 682C638.895 681.516 639.112 681.064 639.467 680.733C639.822 680.402 640.29 680.219 640.775 680.219C641.26 680.219 641.727 680.402 642.083 680.733C642.438 681.064 642.655 681.516 642.69 682C642.655 682.484 642.438 682.937 642.083 683.268C641.727 683.598 641.26 683.782 640.775 683.782C640.29 683.782 639.822 683.598 639.467 683.268C639.112 682.937 638.895 682.484 638.86 682ZM639.37 687.5H642.12V705H639.37V687.5Z" fill="#2B2B2B"/>
<path d="M646.83 701.04C648.109 702.323 649.829 703.071 651.64 703.13C653.79 703.13 654.86 701.9 654.86 700.39C654.86 698.59 652.91 697.8 651.13 697.08C648.81 696.18 646.26 694.99 646.26 692.08C646.26 689.17 648.34 687.08 651.87 687.08C653.748 687.119 655.55 687.829 656.95 689.08L655.64 690.95C654.619 690.011 653.297 689.465 651.91 689.41C649.86 689.41 648.91 690.59 648.91 691.93C648.91 693.58 650.69 694.19 652.53 694.93C654.89 695.87 657.53 696.93 657.53 700.22C657.53 703.06 655.41 705.44 651.53 705.44C649.281 705.389 647.124 704.534 645.45 703.03L646.83 701.04Z" fill="#2B2B2B"/>
<path d="M668.04 687.07C668.938 687.071 669.826 687.258 670.648 687.617C671.47 687.977 672.21 688.502 672.82 689.16L671.44 691.07C670.6 690.142 669.43 689.578 668.18 689.5C665.18 689.5 663.08 692.24 663.08 696.27C663.08 700.3 665.08 702.96 668.08 702.96C669.536 702.89 670.908 702.259 671.91 701.2L673.15 703.14C671.737 704.55 669.836 705.363 667.84 705.41C663.51 705.41 660.18 702.06 660.18 696.27C660.18 690.48 663.84 687.07 668.04 687.07Z" fill="#2B2B2B"/>
<path d="M682.44 687.07C686.44 687.07 690 690.42 690 696.29C690 702.16 686.44 705.43 682.44 705.43C678.44 705.43 674.88 702.08 674.88 696.29C674.88 690.5 678.45 687.07 682.44 687.07ZM682.44 702.98C685.27 702.98 687.15 700.28 687.15 696.29C687.15 692.3 685.27 689.52 682.44 689.52C679.61 689.52 677.74 692.26 677.74 696.29C677.74 700.32 679.66 702.98 682.44 702.98Z" fill="#2B2B2B"/>
<path d="M691.44 687.5H694.3L697.39 697.44C697.86 699.17 698.39 700.93 698.9 702.59H699.03C699.5 700.93 700.03 699.17 700.51 697.44L703.6 687.5H706.32L700.55 705H697.32L691.44 687.5Z" fill="#2B2B2B"/>
<path d="M715.08 687.07C719.25 687.07 721.6 690.28 721.6 695.28C721.607 695.822 721.574 696.364 721.5 696.9H710.5C710.7 700.68 712.82 703.05 715.94 703.05C717.405 703.028 718.826 702.553 720.01 701.69L721.01 703.63C719.451 704.774 717.574 705.403 715.64 705.43C711.27 705.43 707.81 702.01 707.81 696.29C707.81 690.57 711.35 687.07 715.08 687.07ZM719.18 694.96C719.18 691.39 717.7 689.41 715.18 689.41C712.9 689.41 710.81 691.41 710.48 694.96H719.18Z" fill="#2B2B2B"/>
<path d="M725.54 687.5H727.82L728.06 690.67H728.16C729.26 688.48 730.94 687.07 732.79 687.07C733.393 687.052 733.993 687.175 734.54 687.43L734 690.02C733.496 689.828 732.96 689.733 732.42 689.74C731.05 689.74 729.42 690.82 728.29 693.74V705H725.54V687.5Z" fill="#2B2B2B"/>
<path d="M738.7 710.07C740.54 710.07 741.7 708.49 742.39 706.33L742.76 705.04L736.18 687.5H739.04L742.36 697.19C742.87 698.7 743.44 700.5 743.94 702.12H744.08C744.55 700.54 745.02 698.74 745.45 697.19L748.38 687.5H751.06L744.92 706.44C743.77 709.89 742.09 712.52 738.8 712.52C738.146 712.526 737.497 712.404 736.89 712.16L737.42 709.82C737.832 709.965 738.264 710.05 738.7 710.07Z" fill="#2B2B2B"/>
<path d="M751.44 709.39C752.315 709.034 753.067 708.427 753.6 707.646C754.133 706.866 754.426 705.946 754.44 705C754.331 705.02 754.219 705.02 754.11 705C753.839 705.012 753.568 704.967 753.316 704.867C753.064 704.767 752.836 704.614 752.647 704.42C752.458 704.225 752.313 703.993 752.22 703.738C752.127 703.483 752.09 703.211 752.11 702.94C752.099 702.671 752.143 702.402 752.239 702.15C752.334 701.898 752.48 701.668 752.667 701.474C752.853 701.28 753.078 701.125 753.326 701.02C753.574 700.914 753.84 700.86 754.11 700.86C755.55 700.86 756.42 702.19 756.42 704.35C756.445 705.784 756.038 707.191 755.254 708.391C754.469 709.591 753.343 710.528 752.02 711.08L751.44 709.39Z" fill="#2B2B2B"/>
<path d="M780.47 705L775.16 695H771.16V705H768.37V681.39H775.26C779.76 681.39 782.99 683.11 782.99 688.01C782.99 691.68 781.04 693.91 778.05 694.7L783.63 705H780.47ZM771.18 692.58H774.88C778.31 692.58 780.22 691.07 780.22 688.01C780.22 684.95 778.31 683.8 774.88 683.8H771.18V692.58Z" fill="#2B2B2B"/>
<path d="M793.4 687.07C797.4 687.07 800.96 690.42 800.96 696.29C800.96 702.16 797.4 705.43 793.4 705.43C789.4 705.43 785.84 702.08 785.84 696.29C785.84 690.5 789.4 687.07 793.4 687.07ZM793.4 702.98C796.22 702.98 798.1 700.28 798.1 696.29C798.1 692.3 796.18 689.5 793.4 689.5C790.62 689.5 788.7 692.24 788.7 696.27C788.7 700.3 790.61 702.98 793.4 702.98Z" fill="#2B2B2B"/>
<path d="M814.07 693.91C814.07 691.68 813.37 689.52 810.71 689.52C808.931 689.617 807.227 690.271 805.84 691.39L804.73 689.34C806.596 687.96 808.832 687.17 811.15 687.07C815.15 687.07 816.83 689.92 816.83 694.27V705H814.54L814.31 702.91H814.24C812.796 704.371 810.877 705.265 808.83 705.43C808.175 705.46 807.521 705.349 806.911 705.105C806.302 704.862 805.752 704.491 805.298 704.018C804.843 703.544 804.495 702.979 804.277 702.361C804.058 701.742 803.974 701.084 804.03 700.43C804.03 696.65 807.12 694.74 814.07 693.91ZM809.6 703.05C811.18 703.05 812.49 702.23 814.07 700.71V695.86C808.6 696.58 806.75 698.02 806.75 700.25C806.713 700.631 806.762 701.016 806.893 701.376C807.024 701.736 807.234 702.062 807.507 702.33C807.78 702.599 808.11 702.803 808.472 702.927C808.834 703.052 809.22 703.094 809.6 703.05Z" fill="#2B2B2B"/>
<path d="M827.8 687.07C829.528 687.104 831.172 687.824 832.37 689.07L832.23 686.07V679.34H835.02V705H832.74L832.5 702.95H832.4C831.782 703.67 831.027 704.26 830.179 704.686C829.331 705.112 828.407 705.364 827.46 705.43C823.36 705.43 820.71 702.12 820.71 696.29C820.71 690.46 824.07 687.07 827.8 687.07ZM828.07 702.95C829.58 702.95 830.89 702.16 832.23 700.54V691.39C831.726 690.825 831.11 690.371 830.422 690.056C829.733 689.741 828.987 689.572 828.23 689.56C825.61 689.56 823.53 692.26 823.53 696.25C823.57 700.43 825.18 702.95 828.07 702.95Z" fill="#2B2B2B"/>
<path d="M840.06 687.5H842.35L842.58 690.02H842.68C844.09 688.37 845.81 687.07 847.76 687.07C848.786 687.002 849.803 687.301 850.628 687.915C851.453 688.529 852.031 689.418 852.26 690.42C853.97 688.42 855.65 687.07 857.63 687.07C861 687.07 862.63 689.45 862.63 693.91V705H859.87V694.31C859.87 691.03 858.87 689.63 856.87 689.63C855.59 689.63 854.28 690.53 852.77 692.33V705H850.01V694.31C850.01 691.03 849.01 689.63 847.01 689.63C845.8 689.63 844.42 690.53 842.91 692.33V705H840.15L840.06 687.5Z" fill="#2B2B2B"/>
<path d="M876.62 693.91C876.62 691.68 875.91 689.52 873.26 689.52C871.477 689.615 869.77 690.269 868.38 691.39L867.27 689.34C869.137 687.962 871.372 687.171 873.69 687.07C877.69 687.07 879.37 689.92 879.37 694.27V705H877.09L876.85 702.91H876.78C875.336 704.371 873.417 705.265 871.37 705.43C870.715 705.46 870.061 705.349 869.451 705.105C868.842 704.862 868.292 704.491 867.838 704.018C867.383 703.544 867.035 702.979 866.817 702.361C866.598 701.742 866.514 701.084 866.57 700.43C866.57 696.65 869.66 694.74 876.62 693.91ZM872.18 703.05C873.76 703.05 875.07 702.23 876.65 700.71V695.86C871.17 696.58 869.32 698.02 869.32 700.25C869.283 700.632 869.332 701.018 869.464 701.379C869.595 701.739 869.806 702.066 870.08 702.335C870.355 702.603 870.686 702.807 871.049 702.931C871.412 703.055 871.799 703.095 872.18 703.05Z" fill="#2B2B2B"/>
<path d="M886.99 706.5V712.41H884.24V687.5H886.52L886.76 689.5H886.86C888.241 688.082 890.088 687.212 892.06 687.05C896.26 687.05 898.52 690.54 898.52 695.98C898.52 701.92 895.19 705.41 891.46 705.41C889.762 705.286 888.158 704.58 886.92 703.41L886.99 706.5ZM890.99 702.98C893.68 702.98 895.66 700.35 895.66 696.03C895.66 692.18 894.45 689.59 891.36 689.59C889.98 689.59 888.6 690.41 886.99 691.96V701.14C888.061 702.206 889.482 702.849 890.99 702.95V702.98Z" fill="#2B2B2B"/>
<path d="M1124.78 642.21C1126.72 644.123 1129.28 645.282 1132 645.48C1134.73 645.48 1136.07 644.33 1136.07 642.48C1136.07 640.63 1134.41 639.89 1131.86 638.74L1128.05 637.01C1126.31 636.359 1124.82 635.191 1123.77 633.664C1122.72 632.136 1122.17 630.324 1122.18 628.47C1122.18 623.28 1126.49 619.15 1132.58 619.15C1134.35 619.167 1136.09 619.542 1137.71 620.252C1139.33 620.962 1140.78 621.992 1141.99 623.28L1138.63 627.75C1136.99 626.195 1134.84 625.304 1132.58 625.25C1130.29 625.25 1128.86 626.31 1128.86 628.08C1128.86 629.85 1130.79 630.68 1133.3 631.78L1137.06 633.41C1140.6 634.95 1142.84 637.49 1142.84 641.91C1142.84 647.09 1138.84 651.61 1131.84 651.61C1127.79 651.582 1123.91 649.958 1121.04 647.09L1124.78 642.21Z" fill="#2B2B2B"/>
<path d="M1147.06 617.35H1153.65V643.89C1153.65 645.38 1154.27 645.89 1154.81 645.89C1155.08 645.9 1155.36 645.869 1155.62 645.8L1156.43 651.03C1155.38 651.451 1154.24 651.648 1153.11 651.61C1148.59 651.61 1147.11 648.44 1147.11 643.61L1147.06 617.35Z" fill="#2B2B2B"/>
<path d="M1171.26 635.69C1171.12 633.57 1170.14 632.23 1167.76 632.23C1165.63 632.38 1163.58 633.129 1161.85 634.39L1159.52 629.73C1162.32 627.79 1165.62 626.706 1169.02 626.61C1174.71 626.61 1177.84 630.07 1177.84 637.37V651H1172.47L1171.97 648.55H1171.84C1170.15 650.362 1167.82 651.439 1165.34 651.55C1161.34 651.55 1158.76 648.38 1158.76 644.34C1158.76 639.38 1162.48 636.65 1171.26 635.69ZM1167.58 646.1C1169.11 646.1 1170.09 645.33 1171.26 644.1V639.92C1166.55 640.59 1165.03 642.03 1165.03 643.86C1165.03 645.38 1166.02 646.1 1167.58 646.1Z" fill="#2B2B2B"/>
<path d="M1193.45 626.61C1194.66 626.587 1195.87 626.819 1196.99 627.291C1198.1 627.763 1199.11 628.464 1199.94 629.35L1196.94 633.72C1196.13 632.879 1195.02 632.381 1193.85 632.33C1190.67 632.33 1188.65 634.97 1188.65 639.09C1188.65 643.21 1190.76 645.86 1193.65 645.86C1195.15 645.794 1196.57 645.178 1197.65 644.13L1200.3 648.6C1198.29 650.484 1195.65 651.553 1192.9 651.6C1186.72 651.6 1181.9 647.03 1181.9 639.11C1181.9 631.19 1187.31 626.61 1193.45 626.61Z" fill="#2B2B2B"/>
<path d="M1203.59 617.35H1209.99V636.65H1210.17L1217.17 627.19H1224.34L1216.55 636.98L1224.92 650.98H1217.8L1212.8 641.71L1209.98 645.12V650.98H1203.58L1203.59 617.35Z" fill="#2B2B2B"/>
<path d="M1006.73 680.95C1007.88 680.964 1009.02 681.233 1010.06 681.738C1011.09 682.243 1012.01 682.971 1012.73 683.87L1011.18 685.78C1010.66 685.104 1010 684.555 1009.23 684.174C1008.47 683.793 1007.63 683.59 1006.78 683.58C1002.58 683.58 999.78 687.25 999.78 693.12C999.78 698.99 1002.44 702.8 1006.6 702.8C1007.59 702.795 1008.57 702.555 1009.45 702.099C1010.34 701.644 1011.1 700.986 1011.68 700.18L1013.26 702.01C1012.49 703.07 1011.48 703.932 1010.31 704.526C1009.14 705.121 1007.85 705.43 1006.54 705.43C1000.99 705.43 996.89 700.9 996.89 693.19C996.89 685.48 1001.09 680.95 1006.73 680.95Z" fill="#2B2B2B"/>
<path d="M1023.12 687.07C1027.12 687.07 1030.68 690.42 1030.68 696.29C1030.68 702.16 1027.12 705.43 1023.12 705.43C1019.12 705.43 1015.56 702.08 1015.56 696.29C1015.56 690.5 1019.12 687.07 1023.12 687.07ZM1023.12 702.98C1025.94 702.98 1027.83 700.28 1027.83 696.29C1027.83 692.3 1025.94 689.52 1023.12 689.52C1020.3 689.52 1018.42 692.26 1018.42 696.29C1018.42 700.32 1020.33 702.98 1023.12 702.98Z" fill="#2B2B2B"/>
<path d="M1034.74 687.5H1037.03L1037.26 690.02H1037.36C1038.78 688.37 1040.49 687.07 1042.44 687.07C1043.47 687.002 1044.48 687.301 1045.31 687.915C1046.13 688.529 1046.71 689.418 1046.94 690.42C1048.65 688.42 1050.33 687.07 1052.32 687.07C1055.68 687.07 1057.32 689.45 1057.32 693.91V705H1054.56V694.31C1054.56 691.03 1053.56 689.63 1051.56 689.63C1050.28 689.63 1048.97 690.53 1047.46 692.33V705H1044.71V694.31C1044.71 691.03 1043.71 689.63 1041.65 689.63C1040.44 689.63 1039.06 690.53 1037.55 692.33V705H1034.79L1034.74 687.5Z" fill="#2B2B2B"/>
<path d="M1062.25 687.5H1064.53L1064.77 690.02H1064.87C1066.28 688.37 1067.99 687.07 1069.94 687.07C1070.97 686.999 1071.98 687.298 1072.81 687.912C1073.63 688.527 1074.21 689.416 1074.44 690.42C1076.16 688.42 1077.84 687.07 1079.82 687.07C1083.18 687.07 1084.82 689.45 1084.82 693.91V705H1082.07V694.31C1082.07 691.03 1081.07 689.63 1079.07 689.63C1077.8 689.63 1076.49 690.53 1074.98 692.33V705H1072.18V694.31C1072.18 691.03 1071.18 689.63 1069.12 689.63C1067.91 689.63 1066.53 690.53 1065.02 692.33V705H1062.27L1062.25 687.5Z" fill="#2B2B2B"/>
<path d="M1089.55 687.5H1092.34V698.2C1092.34 701.47 1093.24 702.88 1095.39 702.88C1097.07 702.88 1098.25 701.98 1099.8 699.88V687.5H1102.55V705H1100.27L1100.03 702.26H1099.93C1098.42 704.17 1096.8 705.43 1094.55 705.43C1091.09 705.43 1089.55 703.05 1089.55 698.59V687.5Z" fill="#2B2B2B"/>
<path d="M1107.59 687.5H1109.88L1110.11 690.02H1110.21C1111.76 688.37 1113.44 687.07 1115.69 687.07C1119.11 687.07 1120.69 689.45 1120.69 693.91V705H1117.94V694.31C1117.94 691.03 1116.94 689.63 1114.84 689.63C1113.16 689.63 1112.02 690.56 1110.37 692.33V705H1107.62L1107.59 687.5Z" fill="#2B2B2B"/>
<path d="M1125.02 682C1125.06 681.516 1125.27 681.064 1125.63 680.733C1125.98 680.402 1126.45 680.219 1126.93 680.219C1127.42 680.219 1127.89 680.402 1128.24 680.733C1128.6 681.064 1128.81 681.516 1128.85 682C1128.81 682.484 1128.6 682.937 1128.24 683.268C1127.89 683.598 1127.42 683.782 1126.93 683.782C1126.45 683.782 1125.98 683.598 1125.63 683.268C1125.27 682.937 1125.06 682.484 1125.02 682ZM1125.52 687.5H1128.28V705H1125.52V687.5Z" fill="#2B2B2B"/>
<path d="M1140.09 687.07C1140.99 687.071 1141.87 687.257 1142.69 687.617C1143.51 687.976 1144.25 688.502 1144.86 689.16L1143.48 691.07C1142.63 690.131 1141.44 689.566 1140.18 689.5C1137.18 689.5 1135.07 692.24 1135.07 696.27C1135.07 700.3 1137.12 702.96 1140.07 702.96C1141.53 702.895 1142.9 702.263 1143.9 701.2L1145.14 703.14C1143.73 704.55 1141.83 705.362 1139.84 705.41C1135.5 705.41 1132.17 702.06 1132.17 696.27C1132.17 690.48 1135.89 687.07 1140.09 687.07Z" fill="#2B2B2B"/>
<path d="M1157.93 693.91C1157.93 691.68 1157.23 689.52 1154.58 689.52C1152.8 689.615 1151.09 690.269 1149.7 691.39L1148.59 689.34C1150.46 687.962 1152.69 687.171 1155.01 687.07C1159.01 687.07 1160.69 689.92 1160.69 694.27V705H1158.41L1158.17 702.91H1158.1C1156.66 704.371 1154.74 705.265 1152.69 705.43C1152.03 705.46 1151.38 705.349 1150.77 705.105C1150.16 704.862 1149.61 704.491 1149.16 704.018C1148.7 703.544 1148.35 702.979 1148.14 702.361C1147.92 701.742 1147.83 701.084 1147.89 700.43C1147.89 696.65 1150.98 694.74 1157.93 693.91ZM1153.47 703.05C1155.05 703.05 1156.36 702.23 1157.93 700.71V695.86C1152.46 696.58 1150.61 698.02 1150.61 700.25C1150.57 700.632 1150.62 701.018 1150.75 701.379C1150.89 701.739 1151.1 702.066 1151.37 702.335C1151.64 702.603 1151.98 702.807 1152.34 702.931C1152.7 703.055 1153.09 703.095 1153.47 703.05Z" fill="#2B2B2B"/>
<path d="M1165.89 689.92H1163.47V687.68L1166.03 687.5L1166.36 682.61H1168.68V687.5H1173.08V689.92H1168.68V699.64C1168.68 701.79 1169.32 703.02 1171.2 703.02C1171.84 702.972 1172.46 702.813 1173.05 702.55L1173.59 704.78C1172.63 705.16 1171.62 705.38 1170.59 705.43C1167.1 705.43 1165.92 703.05 1165.92 699.6L1165.89 689.92Z" fill="#2B2B2B"/>
<path d="M1176.18 682C1176.22 681.516 1176.43 681.064 1176.79 680.733C1177.14 680.402 1177.61 680.219 1178.1 680.219C1178.58 680.219 1179.05 680.402 1179.4 680.733C1179.76 681.064 1179.98 681.516 1180.01 682C1179.98 682.484 1179.76 682.937 1179.4 683.268C1179.05 683.598 1178.58 683.782 1178.1 683.782C1177.61 683.782 1177.14 683.598 1176.79 683.268C1176.43 682.937 1176.22 682.484 1176.18 682ZM1176.69 687.5H1179.44V705H1176.69V687.5Z" fill="#2B2B2B"/>
<path d="M1190.91 687.07C1194.91 687.07 1198.47 690.42 1198.47 696.29C1198.47 702.16 1194.91 705.43 1190.91 705.43C1186.91 705.43 1183.35 702.08 1183.35 696.29C1183.35 690.5 1186.91 687.07 1190.91 687.07ZM1190.91 702.98C1193.73 702.98 1195.61 700.28 1195.61 696.29C1195.61 692.3 1193.73 689.52 1190.91 689.52C1188.09 689.52 1186.21 692.26 1186.21 696.29C1186.21 700.32 1188.12 702.98 1190.91 702.98Z" fill="#2B2B2B"/>
<path d="M1202.53 687.5H1204.82L1205.05 690.02H1205.15C1206.7 688.37 1208.38 687.07 1210.63 687.07C1214.06 687.07 1215.63 689.45 1215.63 693.91V705H1212.88V694.31C1212.88 691.03 1211.94 689.63 1209.79 689.63C1208.11 689.63 1206.96 690.56 1205.32 692.33V705H1202.56L1202.53 687.5Z" fill="#2B2B2B"/>
<path d="M1219.43 709.39C1220.31 709.034 1221.06 708.427 1221.59 707.646C1222.12 706.866 1222.42 705.946 1222.43 705C1222.32 705.02 1222.21 705.02 1222.1 705C1221.83 705.012 1221.56 704.967 1221.31 704.867C1221.05 704.767 1220.83 704.614 1220.64 704.42C1220.45 704.225 1220.3 703.993 1220.21 703.738C1220.12 703.483 1220.08 703.211 1220.1 702.94C1220.09 702.671 1220.13 702.402 1220.23 702.15C1220.32 701.898 1220.47 701.668 1220.66 701.474C1220.84 701.28 1221.07 701.125 1221.32 701.02C1221.56 700.914 1221.83 700.86 1222.1 700.86C1223.55 700.86 1224.42 702.19 1224.42 704.35C1224.44 705.784 1224.04 707.191 1223.25 708.391C1222.47 709.591 1221.34 710.528 1220.02 711.08L1219.43 709.39Z" fill="#2B2B2B"/>
<path d="M1236.26 681.39H1239.05V695.32C1239.05 701 1241.3 702.8 1244.19 702.8C1247.08 702.8 1249.4 701 1249.4 695.32V681.39H1252.09V695.24C1252.09 702.84 1248.69 705.43 1244.19 705.43C1239.69 705.43 1236.26 702.84 1236.26 695.24V681.39Z" fill="#2B2B2B"/>
<path d="M1260.01 706.5V712.41H1257.26V687.5H1259.54L1259.77 689.5H1259.88C1261.26 688.081 1263.11 687.21 1265.08 687.05C1269.28 687.05 1271.53 690.54 1271.53 695.98C1271.53 701.92 1268.21 705.41 1264.53 705.41C1262.83 705.289 1261.23 704.582 1259.99 703.41L1260.01 706.5ZM1264.01 702.98C1266.7 702.98 1268.68 700.35 1268.68 696.03C1268.68 692.18 1267.47 689.59 1264.38 689.59C1263 689.59 1261.62 690.41 1260.01 691.96V701.14C1261.08 702.206 1262.5 702.849 1264.01 702.95V702.98Z" fill="#2B2B2B"/>
<path d="M1281.85 687.07C1283.58 687.104 1285.22 687.824 1286.42 689.07L1286.28 686.07V679.34H1289.07V705H1286.79L1286.55 702.95H1286.45C1285.83 703.67 1285.08 704.26 1284.23 704.686C1283.38 705.112 1282.46 705.364 1281.51 705.43C1277.41 705.43 1274.76 702.12 1274.76 696.29C1274.76 690.46 1278.12 687.07 1281.85 687.07ZM1282.12 702.95C1283.63 702.95 1284.94 702.16 1286.28 700.54V691.39C1285.78 690.825 1285.16 690.371 1284.47 690.056C1283.78 689.741 1283.04 689.572 1282.28 689.56C1279.66 689.56 1277.58 692.26 1277.58 696.25C1277.62 700.43 1279.26 702.95 1282.12 702.95Z" fill="#2B2B2B"/>
<path d="M1303.18 693.91C1303.18 691.68 1302.48 689.52 1299.82 689.52C1298.04 689.617 1296.34 690.271 1294.95 691.39L1293.84 689.34C1295.71 687.962 1297.94 687.171 1300.26 687.07C1304.26 687.07 1305.94 689.92 1305.94 694.27V705H1303.66L1303.42 702.91H1303.35C1301.91 704.371 1299.99 705.265 1297.94 705.43C1297.28 705.46 1296.63 705.349 1296.02 705.105C1295.41 704.862 1294.86 704.491 1294.41 704.018C1293.95 703.544 1293.61 702.979 1293.39 702.361C1293.17 701.742 1293.08 701.084 1293.14 700.43C1293.18 696.65 1296.25 694.74 1303.18 693.91ZM1298.72 703.05C1300.29 703.05 1301.61 702.23 1303.18 700.71V695.86C1297.71 696.58 1295.86 698.02 1295.86 700.25C1295.82 700.634 1295.87 701.022 1296 701.384C1296.14 701.747 1296.35 702.074 1296.63 702.343C1296.9 702.612 1297.24 702.815 1297.6 702.938C1297.97 703.06 1298.36 703.099 1298.74 703.05H1298.72Z" fill="#2B2B2B"/>
<path d="M1311.18 689.92H1308.76V687.68L1311.32 687.5L1311.65 682.61H1313.97V687.5H1318.37V689.92H1313.97V699.64C1313.97 701.79 1314.61 703.02 1316.49 703.02C1317.13 702.972 1317.75 702.813 1318.34 702.55L1318.88 704.78C1317.92 705.16 1316.91 705.38 1315.88 705.43C1312.39 705.43 1311.21 703.05 1311.21 699.6L1311.18 689.92Z" fill="#2B2B2B"/>
<path d="M1327.58 687.07C1331.75 687.07 1334.1 690.28 1334.1 695.28C1334.11 695.822 1334.07 696.364 1334 696.9H1323C1323.2 700.68 1325.32 703.05 1328.44 703.05C1329.9 703.028 1331.33 702.553 1332.51 701.69L1333.51 703.63C1331.95 704.774 1330.07 705.403 1328.14 705.43C1323.77 705.43 1320.31 702.01 1320.31 696.29C1320.31 690.57 1323.85 687.07 1327.58 687.07ZM1331.68 694.96C1331.68 691.39 1330.2 689.41 1327.68 689.41C1325.39 689.41 1323.31 691.41 1322.97 694.96H1331.68Z" fill="#2B2B2B"/>
<path d="M1337.74 701.04C1339.02 702.323 1340.73 703.07 1342.54 703.13C1344.69 703.13 1345.77 701.9 1345.77 700.39C1345.77 698.59 1343.82 697.8 1342.04 697.08C1339.72 696.18 1337.17 694.99 1337.17 692.08C1337.17 689.17 1339.25 687.08 1342.78 687.08C1344.66 687.117 1346.45 687.827 1347.85 689.08L1346.54 690.95C1345.52 690.008 1344.2 689.462 1342.81 689.41C1340.76 689.41 1339.81 690.59 1339.81 691.93C1339.81 693.58 1341.59 694.19 1343.44 694.93C1345.79 695.87 1348.44 696.93 1348.44 700.22C1348.44 703.06 1346.33 705.44 1342.44 705.44C1340.19 705.387 1338.04 704.532 1336.36 703.03L1337.74 701.04Z" fill="#2B2B2B"/>
<path d="M1531.58 619.7H1538.58L1543.46 633.77L1545.21 639.24H1545.39L1547.14 633.77L1551.89 619.7H1558.83V651H1552.69V639.5C1552.69 636.42 1553.23 631.86 1553.54 628.84H1553.36L1550.94 636.09L1546.46 648.23H1543.82L1539.34 636.09L1537.01 628.84H1536.83C1537.15 631.84 1537.64 636.42 1537.64 639.5V651H1531.64L1531.58 619.7Z" fill="#2B2B2B"/>
<path d="M1565.49 619.7H1572.07V651H1565.49V619.7Z" fill="#2B2B2B"/>
<path d="M1594.49 651L1588.89 639.72H1585.26V651H1578.67V619.7H1589.18C1595.36 619.7 1600.43 622 1600.43 629.45C1600.43 634.05 1598.36 636.98 1595.23 638.45L1601.86 650.98L1594.49 651ZM1585.26 634.1H1588.66C1592.11 634.1 1593.99 632.52 1593.99 629.45C1593.99 626.38 1592.11 625.32 1588.66 625.32H1585.26V634.1Z" fill="#2B2B2B"/>
<path d="M1604.34 635.21C1604.34 624.98 1609.72 619.12 1617.6 619.12C1625.48 619.12 1630.86 625.03 1630.86 635.21C1630.86 645.39 1625.48 651.58 1617.6 651.58C1609.72 651.58 1604.34 645.43 1604.34 635.21ZM1624.1 635.21C1624.1 628.96 1621.59 625.21 1617.6 625.21C1613.61 625.21 1611.1 628.95 1611.1 635.21C1611.1 641.47 1613.61 645.48 1617.6 645.48C1621.59 645.48 1624.1 641.5 1624.1 635.21Z" fill="#2B2B2B"/>
<path d="M1468.56 681.39H1471.35V705H1468.56V681.39Z" fill="#2B2B2B"/>
<path d="M1482.8 687.07C1483.66 687.086 1484.5 687.271 1485.28 687.614C1486.07 687.957 1486.78 688.452 1487.37 689.07L1487.24 686.07V679.34H1490.03V705H1487.74L1487.51 702.95H1487.41C1486.79 703.668 1486.04 704.257 1485.19 704.683C1484.34 705.108 1483.42 705.362 1482.47 705.43C1478.37 705.43 1475.71 702.12 1475.71 696.29C1475.71 690.46 1479.07 687.07 1482.8 687.07ZM1483.07 702.95C1484.58 702.95 1485.89 702.16 1487.24 700.54V691.39C1486.74 690.826 1486.12 690.372 1485.43 690.058C1484.74 689.743 1484 689.573 1483.24 689.56C1480.62 689.56 1478.54 692.26 1478.54 696.25C1478.57 700.43 1480.18 702.95 1483.07 702.95Z" fill="#2B2B2B"/>
<path d="M1501.42 687.07C1505.58 687.07 1507.94 690.28 1507.94 695.28C1507.94 695.822 1507.91 696.364 1507.83 696.9H1496.83C1497.04 700.68 1499.15 703.05 1502.28 703.05C1503.74 703.026 1505.16 702.551 1506.34 701.69L1507.34 703.63C1505.78 704.776 1503.9 705.405 1501.96 705.43C1497.59 705.43 1494.13 702.01 1494.13 696.29C1494.13 690.57 1497.69 687.07 1501.42 687.07ZM1505.52 694.96C1505.52 691.39 1504.04 689.41 1501.52 689.41C1499.24 689.41 1497.16 691.41 1496.82 694.96H1505.52Z" fill="#2B2B2B"/>
<path d="M1520.65 693.91C1520.65 691.68 1519.94 689.52 1517.29 689.52C1515.51 689.613 1513.8 690.268 1512.42 691.39L1511.31 689.34C1513.17 687.96 1515.4 687.17 1517.72 687.07C1521.72 687.07 1523.4 689.92 1523.4 694.27V705H1521.12L1520.88 702.91H1520.82C1519.38 704.369 1517.46 705.263 1515.41 705.43C1514.75 705.461 1514.1 705.352 1513.49 705.109C1512.88 704.866 1512.33 704.495 1511.87 704.021C1511.42 703.548 1511.07 702.983 1510.85 702.363C1510.63 701.744 1510.54 701.085 1510.6 700.43C1510.6 696.65 1513.69 694.74 1520.65 693.91ZM1516.18 703.05C1517.76 703.05 1519.07 702.23 1520.65 700.71V695.86C1515.17 696.58 1513.32 698.02 1513.32 700.25C1513.28 700.632 1513.34 701.017 1513.47 701.377C1513.6 701.736 1513.81 702.062 1514.08 702.33C1514.36 702.598 1514.69 702.802 1515.05 702.927C1515.41 703.051 1515.8 703.094 1516.18 703.05Z" fill="#2B2B2B"/>
<path d="M1528.61 689.92H1526.18V687.68L1528.73 687.5L1529.07 682.61H1531.38V687.5H1535.79V689.92H1531.38V699.64C1531.38 701.79 1532.02 703.02 1533.9 703.02C1534.54 702.972 1535.17 702.813 1535.75 702.55L1536.29 704.78C1535.33 705.16 1534.32 705.38 1533.29 705.43C1529.79 705.43 1528.62 703.05 1528.62 699.6L1528.61 689.92Z" fill="#2B2B2B"/>
<path d="M1538.86 682C1538.9 681.516 1539.11 681.064 1539.47 680.733C1539.82 680.402 1540.29 680.219 1540.78 680.219C1541.26 680.219 1541.73 680.402 1542.08 680.733C1542.44 681.064 1542.66 681.516 1542.69 682C1542.66 682.484 1542.44 682.937 1542.08 683.268C1541.73 683.598 1541.26 683.782 1540.78 683.782C1540.29 683.782 1539.82 683.598 1539.47 683.268C1539.11 682.937 1538.9 682.484 1538.86 682ZM1539.36 687.5H1542.12V705H1539.36V687.5Z" fill="#2B2B2B"/>
<path d="M1553.62 687.07C1557.62 687.07 1561.18 690.42 1561.18 696.29C1561.18 702.16 1557.62 705.43 1553.62 705.43C1549.62 705.43 1546.06 702.08 1546.06 696.29C1546.06 690.5 1549.63 687.07 1553.62 687.07ZM1553.62 702.98C1556.45 702.98 1558.33 700.28 1558.33 696.29C1558.33 692.3 1556.45 689.52 1553.62 689.52C1550.79 689.52 1548.92 692.26 1548.92 696.29C1548.92 700.32 1550.83 702.98 1553.62 702.98Z" fill="#2B2B2B"/>
<path d="M1565.25 687.5H1567.53L1567.77 690.02H1567.87C1569.41 688.37 1571.09 687.07 1573.34 687.07C1576.77 687.07 1578.34 689.45 1578.34 693.91V705H1575.58V694.31C1575.58 691.03 1574.64 689.63 1572.49 689.63C1570.81 689.63 1569.67 690.56 1568.02 692.33V705H1565.27L1565.25 687.5Z" fill="#2B2B2B"/>
<path d="M1582.18 709.39C1583.05 709.032 1583.81 708.426 1584.34 707.645C1584.87 706.865 1585.16 705.945 1585.18 705C1585.07 705.02 1584.95 705.02 1584.84 705C1584.57 705.012 1584.3 704.967 1584.05 704.867C1583.79 704.767 1583.57 704.614 1583.38 704.42C1583.19 704.225 1583.04 703.993 1582.95 703.738C1582.86 703.483 1582.82 703.211 1582.84 702.94C1582.83 702.671 1582.87 702.402 1582.97 702.15C1583.06 701.898 1583.21 701.668 1583.4 701.474C1583.58 701.28 1583.81 701.125 1584.06 701.02C1584.3 700.914 1584.57 700.86 1584.84 700.86C1586.28 700.86 1587.16 702.19 1587.16 704.35C1587.19 705.785 1586.78 707.194 1585.99 708.395C1585.21 709.595 1584.08 710.531 1582.75 711.08L1582.18 709.39Z" fill="#2B2B2B"/>
<path d="M1611.18 705L1605.87 695H1601.87V705H1599.08V681.39H1605.97C1610.47 681.39 1613.69 683.11 1613.69 688.01C1613.69 691.68 1611.69 693.91 1608.75 694.7L1614.33 705H1611.18ZM1601.88 692.58H1605.57C1609 692.58 1610.91 691.07 1610.91 688.01C1610.91 684.95 1609 683.8 1605.57 683.8H1601.88V692.58Z" fill="#2B2B2B"/>
<path d="M1623.87 687.07C1628.03 687.07 1630.38 690.28 1630.38 695.28C1630.39 695.822 1630.35 696.364 1630.28 696.9H1619.28C1619.49 700.68 1621.6 703.05 1624.73 703.05C1626.19 703.026 1627.61 702.551 1628.79 701.69L1629.79 703.63C1628.23 704.776 1626.35 705.405 1624.41 705.43C1620.04 705.43 1616.58 702.01 1616.58 696.29C1616.58 690.57 1620.18 687.07 1623.87 687.07ZM1627.97 694.96C1627.97 691.39 1626.49 689.41 1623.97 689.41C1621.69 689.41 1619.6 691.41 1619.27 694.96H1627.97Z" fill="#2B2B2B"/>
<path d="M1631.88 687.5H1634.74L1637.83 697.44C1638.3 699.17 1638.83 700.93 1639.34 702.59H1639.47C1639.94 700.93 1640.47 699.17 1640.95 697.44L1644.04 687.5H1646.76L1640.98 705H1637.76L1631.88 687.5Z" fill="#2B2B2B"/>
<path d="M1649.32 682C1649.36 681.516 1649.57 681.064 1649.93 680.733C1650.28 680.402 1650.75 680.219 1651.24 680.219C1651.72 680.219 1652.19 680.402 1652.54 680.733C1652.9 681.064 1653.12 681.516 1653.15 682C1653.12 682.484 1652.9 682.937 1652.54 683.268C1652.19 683.598 1651.72 683.782 1651.24 683.782C1650.75 683.782 1650.28 683.598 1649.93 683.268C1649.57 682.937 1649.36 682.484 1649.32 682ZM1649.82 687.5H1652.58V705H1649.82V687.5Z" fill="#2B2B2B"/>
<path d="M1663.85 687.07C1668.02 687.07 1670.37 690.28 1670.37 695.28C1670.38 695.822 1670.34 696.364 1670.27 696.9H1659.27C1659.47 700.68 1661.59 703.05 1664.71 703.05C1666.17 703.028 1667.6 702.553 1668.78 701.69L1669.78 703.63C1668.22 704.774 1666.34 705.403 1664.41 705.43C1660.04 705.43 1656.58 702.01 1656.58 696.29C1656.58 690.57 1660.12 687.07 1663.85 687.07ZM1667.95 694.96C1667.95 691.39 1666.47 689.41 1663.95 689.41C1661.66 689.41 1659.58 691.41 1659.25 694.96H1667.95Z" fill="#2B2B2B"/>
<path d="M1672.18 687.5H1675L1677.42 697.62C1677.79 699.28 1678.1 700.86 1678.42 702.48H1678.55C1678.92 700.86 1679.26 699.24 1679.66 697.62L1682.18 687.5H1684.87L1687.42 697.62C1687.82 699.28 1688.19 700.86 1688.56 702.48H1688.7C1689.07 700.86 1689.37 699.28 1689.7 697.62L1692.08 687.5H1694.7L1690.33 705H1686.97L1684.62 695.6C1684.22 693.95 1683.92 692.33 1683.51 690.6H1683.38C1683.01 692.37 1682.67 694.02 1682.24 695.68L1679.95 705.04H1676.73L1672.18 687.5Z" fill="#2B2B2B"/>
<path d="M293.11 619.12C294.812 619.132 296.493 619.502 298.043 620.205C299.594 620.908 300.979 621.928 302.11 623.2L298.48 627.57C297.823 626.806 297.004 626.198 296.081 625.792C295.159 625.385 294.158 625.19 293.15 625.22C288.62 625.22 285.44 629.01 285.44 635.3C285.44 641.59 288.18 645.48 293.64 645.48C294.77 645.511 295.877 645.159 296.78 644.48V639.1H291.94V633.34H302.6V647.74C299.959 650.224 296.456 651.587 292.83 651.54C284.95 651.54 278.68 646.01 278.68 635.54C278.68 625.07 285.18 619.12 293.11 619.12Z" fill="#2B2B2B"/>
<path d="M307.49 619.99C307.466 619.231 307.669 618.483 308.073 617.841C308.477 617.199 309.063 616.692 309.757 616.385C310.451 616.078 311.22 615.986 311.967 616.119C312.714 616.252 313.404 616.605 313.949 617.133C314.494 617.66 314.869 618.339 315.026 619.081C315.183 619.823 315.115 620.595 314.83 621.299C314.546 622.002 314.058 622.604 313.429 623.028C312.8 623.452 312.059 623.679 311.3 623.68C310.802 623.71 310.303 623.637 309.835 623.464C309.367 623.291 308.94 623.022 308.581 622.675C308.222 622.328 307.94 621.91 307.752 621.447C307.565 620.985 307.475 620.488 307.49 619.99ZM308.03 627.19H314.62V651H308.03V627.19Z" fill="#2B2B2B"/>
<path d="M320.99 632.71H317.94V627.5L321.35 627.21L322.11 620.87H327.57V627.21H332.9V632.73H327.57V642.28C327.57 644.97 328.69 646.07 330.44 646.07C331.167 646.039 331.882 645.877 332.55 645.59L333.55 650.73C331.966 651.291 330.3 651.585 328.62 651.6C323.11 651.6 320.96 647.9 320.96 642.38L320.99 632.71Z" fill="#2B2B2B"/>
<path d="M337.76 619.7H344.35V631.75H354.43V619.7H361.06V651H354.43V637.94H344.35V651H337.76V619.7Z" fill="#2B2B2B"/>
<path d="M367.02 627.19H373.61V641.06C373.61 644.47 374.46 645.57 376.39 645.57C378.04 645.57 379.03 644.81 380.33 642.93V627.19H386.91V651H381.54L381.05 647.69H380.91C379.03 650.09 376.97 651.58 373.91 651.58C369.07 651.58 367.01 647.93 367.01 641.97L367.02 627.19Z" fill="#2B2B2B"/>
<path d="M392.41 617.35H398.99V625.6L398.81 629.25C400.36 627.655 402.459 626.711 404.68 626.61C410.06 626.61 413.42 631.37 413.42 638.66C413.42 646.87 408.85 651.58 404.05 651.58C402.922 651.511 401.822 651.2 400.825 650.669C399.828 650.137 398.956 649.397 398.27 648.5H398.1L397.56 651H392.41V617.35ZM402.53 645.81C404.82 645.81 406.65 643.7 406.65 638.81C406.65 634.53 405.44 632.37 402.8 632.37C401.46 632.37 400.25 633.04 398.99 634.53V644.28C399.447 644.759 399.997 645.141 400.605 645.404C401.213 645.667 401.868 645.805 402.53 645.81Z" fill="#2B2B2B"/>
<path d="M226 681.39H231.51C238.3 681.39 241.93 685.6 241.93 693.08C241.93 700.56 238.3 705 231.65 705H226V681.39ZM231.31 702.55C236.45 702.55 239.04 699.06 239.04 693.08C239.04 687.1 236.45 683.83 231.31 683.83H228.79V702.55H231.31Z" fill="#2B2B2B"/>
<path d="M252.45 687.07C256.62 687.07 258.97 690.28 258.97 695.28C258.973 695.822 258.939 696.363 258.87 696.9H247.87C248.07 700.68 250.19 703.05 253.31 703.05C254.775 703.028 256.196 702.553 257.38 701.69L258.38 703.63C256.818 704.776 254.937 705.405 253 705.43C248.64 705.43 245.18 702.01 245.18 696.29C245.18 690.57 248.72 687.07 252.45 687.07ZM256.55 694.96C256.55 691.39 255.07 689.41 252.55 689.41C250.26 689.41 248.18 691.41 247.84 694.96H256.55Z" fill="#2B2B2B"/>
<path d="M262.85 679.37H265.6V701.69C265.6 702.62 265.97 702.98 266.38 702.98C266.582 702.985 266.784 702.961 266.98 702.91L267.35 705.14C266.853 705.358 266.312 705.458 265.77 705.43C263.69 705.43 262.85 704.03 262.85 701.43V679.37Z" fill="#2B2B2B"/>
<path d="M270.41 682C270.445 681.516 270.662 681.064 271.017 680.733C271.373 680.402 271.84 680.219 272.325 680.219C272.81 680.219 273.278 680.402 273.633 680.733C273.988 681.064 274.205 681.516 274.24 682C274.205 682.484 273.988 682.937 273.633 683.268C273.278 683.598 272.81 683.782 272.325 683.782C271.84 683.782 271.373 683.598 271.017 683.268C270.662 682.937 270.445 682.484 270.41 682ZM270.92 687.5H273.67V705H270.92V687.5Z" fill="#2B2B2B"/>
<path d="M276.7 687.5H279.55L282.65 697.44C283.12 699.17 283.65 700.93 284.16 702.59H284.29C284.76 700.93 285.29 699.17 285.77 697.44L288.86 687.5H291.58L285.8 705H282.58L276.7 687.5Z" fill="#2B2B2B"/>
<path d="M300.34 687.07C304.51 687.07 306.86 690.28 306.86 695.28C306.867 695.822 306.834 696.364 306.76 696.9H295.76C295.96 700.68 298.08 703.05 301.2 703.05C302.664 703.028 304.086 702.553 305.27 701.69L306.27 703.63C304.71 704.774 302.833 705.403 300.9 705.43C296.53 705.43 293.07 702.01 293.07 696.29C293.07 690.57 296.61 687.07 300.34 687.07ZM304.44 694.96C304.44 691.39 302.96 689.41 300.44 689.41C298.15 689.41 296.07 691.41 295.74 694.96H304.44Z" fill="#2B2B2B"/>
<path d="M310.8 687.5H313.08L313.31 690.67H313.42C314.52 688.48 316.2 687.07 318.05 687.07C318.653 687.052 319.253 687.175 319.8 687.43L319.26 690.02C318.755 689.829 318.219 689.734 317.68 689.74C316.3 689.74 314.68 690.82 313.55 693.74V705H310.8V687.5Z" fill="#2B2B2B"/>
<path d="M323.96 710.07C325.8 710.07 326.96 708.49 327.65 706.33L328.02 705.04L321.47 687.5H324.32L327.65 697.19C328.15 698.7 328.73 700.5 329.23 702.12H329.36C329.84 700.54 330.3 698.74 330.74 697.19L333.67 687.5H336.35L330.18 706.44C329.04 709.89 327.36 712.52 324.07 712.52C323.413 712.526 322.761 712.404 322.15 712.16L322.69 709.82C323.099 709.965 323.527 710.049 323.96 710.07Z" fill="#2B2B2B"/>
<path d="M336.7 709.39C337.576 709.033 338.327 708.427 338.86 707.646C339.394 706.866 339.686 705.945 339.7 705C339.591 705.02 339.479 705.02 339.37 705C339.099 705.012 338.829 704.967 338.577 704.866C338.324 704.766 338.096 704.614 337.907 704.419C337.718 704.225 337.573 703.992 337.48 703.737C337.388 703.482 337.35 703.211 337.37 702.94C337.359 702.666 337.404 702.394 337.503 702.138C337.602 701.883 337.752 701.65 337.944 701.456C338.136 701.261 338.366 701.107 338.62 701.005C338.874 700.902 339.147 700.853 339.42 700.86C340.87 700.86 341.74 702.19 341.74 704.35C341.765 705.783 341.359 707.191 340.574 708.391C339.79 709.591 338.663 710.528 337.34 711.08L336.7 709.39Z" fill="#2B2B2B"/>
<path d="M358.18 683.91H351.53V681.39H367.68V683.91H361.03V705H358.18V683.91Z" fill="#2B2B2B"/>
<path d="M368.63 687.5H370.92L371.15 690.67H371.25C372.36 688.48 374.04 687.07 375.89 687.07C376.493 687.052 377.093 687.176 377.64 687.43L377.1 690.02C376.595 689.829 376.059 689.734 375.52 689.74C374.14 689.74 372.52 690.82 371.39 693.74V705H368.63V687.5Z" fill="#2B2B2B"/>
<path d="M389.57 693.91C389.57 691.68 388.87 689.52 386.22 689.52C384.437 689.615 382.73 690.269 381.34 691.39L380.23 689.34C382.097 687.962 384.332 687.171 386.65 687.07C390.65 687.07 392.33 689.92 392.33 694.27V705H390.05L389.81 702.91H389.74C388.296 704.371 386.377 705.265 384.33 705.43C383.675 705.46 383.02 705.349 382.411 705.105C381.802 704.862 381.252 704.491 380.798 704.018C380.343 703.544 379.995 702.979 379.777 702.361C379.558 701.742 379.474 701.084 379.53 700.43C379.53 696.65 382.62 694.74 389.57 693.91ZM385.11 703.05C386.68 703.05 388 702.23 389.57 700.71V695.86C384.1 696.58 382.25 698.02 382.25 700.25C382.213 700.632 382.262 701.018 382.394 701.379C382.525 701.739 382.736 702.066 383.01 702.335C383.285 702.603 383.616 702.807 383.979 702.931C384.342 703.055 384.729 703.095 385.11 703.05Z" fill="#2B2B2B"/>
<path d="M404 687.07C404.896 687.071 405.783 687.257 406.604 687.617C407.424 687.976 408.162 688.502 408.77 689.16L407.39 691.07C406.54 690.14 405.358 689.583 404.1 689.52C401.1 689.52 398.99 692.26 398.99 696.29C398.99 700.32 401.04 702.98 403.99 702.98C405.447 702.915 406.821 702.283 407.82 701.22L409.07 703.16C407.657 704.57 405.756 705.383 403.76 705.43C399.42 705.43 396.1 702.08 396.1 696.29C396.1 690.5 399.8 687.07 404 687.07Z" fill="#2B2B2B"/>
<path d="M412.36 679.37H415.08V696.72H415.18L422.18 687.5H425.18L419.7 694.5L425.92 704.98H422.92L418.18 696.58L415.12 700.39V705H412.4L412.36 679.37Z" fill="#2B2B2B"/>
<path d="M428.45 682C428.485 681.516 428.702 681.064 429.057 680.733C429.413 680.402 429.88 680.219 430.365 680.219C430.85 680.219 431.318 680.402 431.673 680.733C432.028 681.064 432.245 681.516 432.28 682C432.245 682.484 432.028 682.937 431.673 683.268C431.318 683.598 430.85 683.782 430.365 683.782C429.88 683.782 429.413 683.598 429.057 683.268C428.702 682.937 428.485 682.484 428.45 682ZM428.95 687.5H431.71V705H428.95V687.5Z" fill="#2B2B2B"/>
<path d="M436.71 687.5H439L439.23 690.02H439.33C440.88 688.37 442.56 687.07 444.81 687.07C448.24 687.07 449.81 689.45 449.81 693.91V705H447.06V694.31C447.06 691.03 446.12 689.63 443.96 689.63C442.29 689.63 441.14 690.56 439.5 692.33V705H436.74L436.71 687.5Z" fill="#2B2B2B"/>
<path d="M455.82 704.39V704.24C455.356 703.93 454.979 703.506 454.726 703.009C454.472 702.512 454.349 701.958 454.37 701.4C454.396 700.759 454.57 700.133 454.878 699.571C455.187 699.008 455.623 698.526 456.15 698.16V698.02C455.487 697.425 454.956 696.697 454.591 695.885C454.226 695.072 454.035 694.191 454.03 693.3C453.998 692.48 454.135 691.663 454.432 690.898C454.729 690.133 455.179 689.437 455.756 688.853C456.332 688.269 457.022 687.81 457.783 687.503C458.544 687.197 459.36 687.049 460.18 687.07C460.974 687.063 461.762 687.209 462.5 687.5H468.18V689.77H464.82C465.703 690.76 466.181 692.045 466.16 693.37C466.202 694.174 466.077 694.977 465.792 695.729C465.506 696.481 465.067 697.165 464.503 697.738C463.938 698.311 463.261 698.76 462.513 699.057C461.765 699.353 460.964 699.491 460.16 699.46C459.306 699.452 458.466 699.239 457.71 698.84C457.4 699.094 457.149 699.412 456.977 699.774C456.804 700.135 456.713 700.53 456.71 700.93C456.71 702.05 457.38 702.84 459.6 702.84H462.76C466.55 702.84 468.47 704.1 468.47 707.01C468.47 710.25 465.28 713.06 460.2 713.06C456.2 713.06 453.45 711.37 453.45 708.35C453.505 707.55 453.749 706.774 454.161 706.086C454.572 705.398 455.141 704.817 455.82 704.39ZM460.59 711.01C463.71 711.01 465.76 709.28 465.76 707.45C465.76 705.83 464.59 705.29 462.47 705.29H459.65C458.933 705.293 458.22 705.196 457.53 705C457.036 705.323 456.626 705.76 456.334 706.273C456.042 706.785 455.876 707.361 455.85 707.95C455.85 709.82 457.63 711.01 460.59 711.01ZM463.59 693.3C463.59 690.74 462.05 689.23 460.13 689.23C458.21 689.23 456.67 690.74 456.67 693.3C456.67 695.86 458.3 697.5 460.18 697.5C462.06 697.5 463.64 695.86 463.64 693.3H463.59Z" fill="#2B2B2B"/>
<path d="M546.68 752.07V328" stroke="#2B2B2B" stroke-width="3" stroke-linecap="round" stroke-linejoin="round"/>
<path d="M969.6 752.07V328" stroke="#2B2B2B" stroke-width="3" stroke-linecap="round" stroke-linejoin="round"/>
<path d="M1374.75 752.07V328" stroke="#2B2B2B" stroke-width="3" stroke-linecap="round" stroke-linejoin="round"/>
<path d="M745.71 358.4L663.71 392.31C662.695 392.725 661.828 393.434 661.221 394.347C660.613 395.259 660.292 396.332 660.299 397.428C660.307 398.524 660.642 399.593 661.263 400.497C661.883 401.401 662.76 402.098 663.78 402.5L746.18 435.14C753.41 438.04 761.48 438.04 768.71 435.14L851.01 402.5C852.027 402.096 852.899 401.397 853.516 400.494C854.133 399.591 854.466 398.524 854.473 397.43C854.479 396.336 854.159 395.265 853.552 394.355C852.946 393.444 852.082 392.735 851.07 392.32L769.07 358.41C765.369 356.86 761.397 356.062 757.385 356.062C753.373 356.062 749.401 356.86 745.7 358.41" fill="#FFBF00"/>
<path d="M764.68 452.98V534.5C764.686 535.396 764.909 536.277 765.331 537.067C765.753 537.857 766.36 538.533 767.101 539.037C767.841 539.541 768.694 539.857 769.584 539.958C770.474 540.06 771.375 539.944 772.21 539.62L863.96 504.02C864.991 503.618 865.875 502.914 866.498 502C867.121 501.087 867.453 500.006 867.45 498.9V417.37C867.442 416.475 867.217 415.595 866.795 414.806C866.373 414.017 865.766 413.342 865.025 412.839C864.285 412.335 863.434 412.019 862.545 411.916C861.656 411.814 860.755 411.928 859.92 412.25L768.18 447.86C767.149 448.261 766.263 448.964 765.638 449.878C765.013 450.792 764.679 451.873 764.68 452.98Z" fill="#26B5F8"/>
<path d="M743.24 457.19L716.01 470.33L713.24 471.65L655.77 499.18C652.15 500.93 647.45 498.28 647.45 494.24V417.67C647.472 416.972 647.637 416.287 647.935 415.655C648.232 415.024 648.656 414.461 649.18 414C649.587 413.594 650.056 413.256 650.57 413C651.322 412.565 652.162 412.306 653.028 412.242C653.894 412.178 654.763 412.311 655.57 412.63L742.73 447.15C743.731 447.528 744.6 448.19 745.23 449.055C745.86 449.92 746.223 450.95 746.275 452.019C746.327 453.088 746.066 454.149 745.523 455.071C744.98 455.993 744.18 456.736 743.22 457.21" fill="#ED3049"/>
<path d="M653.6 412.19C652.582 412.18 651.581 412.454 650.71 412.98C650.208 413.257 649.742 413.592 649.32 413.98L716.01 470.31L743.24 457.17C744.159 456.728 744.934 456.035 745.477 455.172C746.021 454.309 746.309 453.31 746.31 452.29C746.314 451.175 745.983 450.084 745.359 449.16C744.734 448.236 743.846 447.522 742.81 447.11L655.65 412.61C655.003 412.328 654.305 412.185 653.6 412.19Z" fill="#B22437"/>
<path fill-rule="evenodd" clip-rule="evenodd" d="M345.92 350.5C322.158 350.478 299.165 358.917 281.061 374.307C262.956 389.697 250.923 411.03 247.118 434.485C243.313 457.94 247.984 481.984 260.294 502.308C272.605 522.632 291.75 537.908 314.3 545.4C319.3 546.329 321.13 543.23 321.13 540.59C321.13 538.21 321.04 530.33 321 521.97C293.18 528.02 287.31 510.17 287.31 510.17C282.76 498.61 276.18 495.5 276.18 495.5C267.1 489.29 276.86 489.42 276.86 489.42C286.86 490.13 292.19 499.73 292.19 499.73C301.11 515.01 315.58 510.6 321.29 508.04C322.19 501.579 324.78 497.16 327.64 494.67C305.43 492.14 282.08 483.56 282.08 445.25C281.968 435.339 285.666 425.763 292.41 418.5C291.41 415.98 287.95 405.81 293.41 392.03C293.41 392.03 301.81 389.34 320.92 402.28C337.313 397.8 354.607 397.8 371 402.28C390.08 389.34 398.47 392.03 398.47 392.03C403.91 405.81 400.47 416.03 399.47 418.5C406.226 425.789 409.911 435.402 409.76 445.34C409.76 483.75 386.37 492.2 364.1 494.68C367.69 497.78 370.88 503.87 370.88 513.2C370.88 526.58 370.77 537.35 370.77 540.64C370.77 543.3 372.57 546.42 377.64 545.44C400.228 537.968 419.412 522.687 431.746 502.342C444.081 481.997 448.757 457.922 444.936 434.439C441.115 410.956 429.047 389.604 410.899 374.22C392.75 358.835 369.712 350.425 345.92 350.5Z" fill="#181616"/>
<path d="M283.79 494.09C283.57 494.59 282.79 494.74 282.08 494.39C281.37 494.04 280.95 493.39 281.18 492.89C281.41 492.39 282.18 492.24 282.9 492.58C283.62 492.92 284.04 493.58 283.79 494.09Z" fill="#181616"/>
<path d="M287.84 498.61C287.37 499.05 286.43 498.84 285.84 498.14C285.25 497.44 285.06 496.51 285.55 496.07C286.04 495.63 286.94 495.83 287.55 496.53C288.16 497.23 288.33 498.16 287.83 498.61H287.84Z" fill="#181616"/>
<path d="M291.79 504.37C291.17 504.79 290.17 504.37 289.55 503.5C288.93 502.63 288.94 501.55 289.55 501.12C290.16 500.69 291.16 501.12 291.79 501.96C292.092 502.289 292.26 502.719 292.26 503.165C292.26 503.612 292.092 504.042 291.79 504.37Z" fill="#181616"/>
<path d="M297.18 509.93C296.63 510.53 295.46 510.37 294.61 509.55C293.76 508.73 293.49 507.55 294.04 506.99C294.59 506.43 295.77 506.56 296.63 507.37C297.49 508.18 297.76 509.37 297.18 509.93Z" fill="#181616"/>
<path d="M304.64 513.16C304.4 513.94 303.27 514.3 302.14 513.97C301.01 513.64 300.27 512.71 300.5 511.92C300.73 511.13 301.86 510.76 303 511.11C304.14 511.46 304.87 512.36 304.64 513.11V513.16Z" fill="#181616"/>
<path d="M312.82 513.76C312.82 514.58 311.89 515.27 310.7 515.28C309.51 515.29 308.54 514.64 308.52 513.83C308.5 513.02 309.46 512.32 310.66 512.3C311.86 512.28 312.82 512.94 312.82 513.76Z" fill="#181616"/>
<path d="M320.44 512.5C320.58 513.31 319.75 514.13 318.57 514.35C317.39 514.57 316.34 514.07 316.19 513.27C316.04 512.47 316.89 511.62 318.05 511.41C319.21 511.2 320.29 511.69 320.44 512.5Z" fill="#181616"/>
<path d="M1480.53 348.04H1680.53V548.04H1480.53V348.04Z" fill="#FFD02F"/>
<path d="M1616.81 374.71H1595.46L1614.46 404.08L1574.39 374.71H1553.04L1572.04 413.2L1531.88 374.71H1510.53L1529.18 424.4L1510.54 521.4H1531.89L1571.96 417.4L1552.96 521.4H1574.31L1614.38 408.3L1595.38 521.4H1616.73L1657.18 397.15L1616.81 374.71Z" fill="#050038"/>
<path d="M1111.01 474.43C1111.01 478.583 1109.78 482.643 1107.47 486.097C1105.16 489.55 1101.88 492.242 1098.05 493.831C1094.21 495.421 1089.99 495.836 1085.91 495.026C1081.84 494.216 1078.1 492.216 1075.16 489.279C1072.22 486.342 1070.22 482.6 1069.41 478.527C1068.6 474.453 1069.02 470.231 1070.61 466.393C1072.2 462.556 1074.89 459.276 1078.34 456.969C1081.8 454.661 1085.86 453.43 1090.01 453.43H1111.01V474.43Z" fill="#E01E5A"/>
<path d="M1121.6 474.43C1121.6 468.86 1123.81 463.519 1127.75 459.58C1131.69 455.642 1137.03 453.43 1142.6 453.43C1148.17 453.43 1153.51 455.642 1157.45 459.58C1161.39 463.519 1163.6 468.86 1163.6 474.43V527.03C1163.6 532.599 1161.39 537.941 1157.45 541.879C1153.51 545.817 1148.17 548.03 1142.6 548.03C1137.03 548.03 1131.69 545.817 1127.75 541.879C1123.81 537.941 1121.6 532.599 1121.6 527.03V474.43Z" fill="#E01E5A"/>
<path d="M1142.6 390.06C1138.45 390.06 1134.39 388.828 1130.93 386.52C1127.48 384.213 1124.79 380.933 1123.2 377.096C1121.61 373.259 1121.19 369.036 1122 364.963C1122.81 360.889 1124.81 357.147 1127.75 354.21C1130.69 351.273 1134.43 349.273 1138.5 348.463C1142.58 347.653 1146.8 348.069 1150.64 349.658C1154.47 351.248 1157.75 353.939 1160.06 357.393C1162.37 360.846 1163.6 364.906 1163.6 369.06V390.06H1142.6Z" fill="#36C5F0"/>
<path d="M1142.6 400.65C1148.17 400.65 1153.51 402.863 1157.45 406.801C1161.39 410.739 1163.6 416.081 1163.6 421.65C1163.6 427.22 1161.39 432.561 1157.45 436.5C1153.51 440.438 1148.17 442.65 1142.6 442.65H1090C1084.43 442.65 1079.09 440.438 1075.15 436.5C1071.21 432.561 1069 427.22 1069 421.65C1069 416.081 1071.21 410.739 1075.15 406.801C1079.09 402.863 1084.43 400.65 1090 400.65H1142.6Z" fill="#36C5F0"/>
<path d="M1226.97 421.66C1226.97 417.507 1228.2 413.447 1230.51 409.993C1232.82 406.54 1236.1 403.848 1239.93 402.259C1243.77 400.669 1247.99 400.253 1252.07 401.064C1256.14 401.874 1259.88 403.874 1262.82 406.811C1265.76 409.748 1267.76 413.49 1268.57 417.563C1269.38 421.637 1268.96 425.859 1267.37 429.697C1265.78 433.534 1263.09 436.814 1259.64 439.121C1256.18 441.429 1252.12 442.66 1247.97 442.66H1226.97V421.66Z" fill="#2EB67D"/>
<path d="M1216.38 421.66C1216.38 427.229 1214.17 432.571 1210.23 436.509C1206.29 440.447 1200.95 442.66 1195.38 442.66C1189.81 442.66 1184.47 440.447 1180.53 436.509C1176.59 432.571 1174.38 427.229 1174.38 421.66V369.05C1174.38 363.48 1176.59 358.139 1180.53 354.201C1184.47 350.262 1189.81 348.05 1195.38 348.05C1200.95 348.05 1206.29 350.262 1210.23 354.201C1214.17 358.139 1216.38 363.48 1216.38 369.05V421.66Z" fill="#2EB67D"/>
<path d="M1195.37 506.02C1199.52 506.02 1203.58 507.251 1207.04 509.559C1210.49 511.866 1213.18 515.146 1214.77 518.983C1216.36 522.82 1216.78 527.043 1215.97 531.116C1215.16 535.19 1213.16 538.932 1210.22 541.869C1207.28 544.806 1203.54 546.806 1199.47 547.616C1195.39 548.426 1191.17 548.01 1187.33 546.421C1183.5 544.832 1180.22 542.14 1177.91 538.687C1175.6 535.233 1174.37 531.173 1174.37 527.02V506.02H1195.37Z" fill="#ECB22E"/>
<path d="M1195.37 495.44C1189.8 495.44 1184.46 493.228 1180.52 489.29C1176.58 485.351 1174.37 480.01 1174.37 474.44C1174.37 468.871 1176.58 463.529 1180.52 459.591C1184.46 455.653 1189.8 453.44 1195.37 453.44H1247.98C1253.55 453.44 1258.89 455.653 1262.83 459.591C1266.77 463.529 1268.98 468.871 1268.98 474.44C1268.98 480.01 1266.77 485.351 1262.83 489.29C1258.89 493.228 1253.55 495.44 1247.98 495.44H1195.37Z" fill="#ECB22E"/>
</svg>
