<svg width="1920" height="1080" viewBox="0 0 1920 1080" fill="none" xmlns="http://www.w3.org/2000/svg">
<rect width="1920" height="1080" fill="white"/>
<path d="M506.8 261H514L522.2 276.6L525.3 283.5H525.5C525.2 280.2 524.6 275.8 524.6 272.1V261H531.3V292.3H524L515.8 276.7L512.7 269.9H512.5C512.8 273.4 513.4 277.5 513.4 281.2V292.3H506.7L506.8 261Z" fill="black"/>
<path d="M548.3 267.9C554.3 267.9 559.9 272.5 559.9 280.4C559.9 288.3 554.3 292.9 548.3 292.9C542.3 292.9 536.7 288.3 536.7 280.4C536.7 272.5 542.3 267.9 548.3 267.9ZM548.3 287.2C551.2 287.2 552.7 284.6 552.7 280.4C552.7 276.2 551.2 273.6 548.3 273.6C545.4 273.6 544 276.2 544 280.4C544 284.5 545.4 287.2 548.3 287.2Z" fill="black"/>
<path d="M562.4 268.5H569.4L571.7 279.5C572.1 281.9 572.4 284.2 572.8 286.6H573C573.4 284.2 573.8 281.8 574.4 279.5L577 268.5H583.1L585.8 279.5C586.4 281.9 586.8 284.2 587.3 286.6H587.5C587.9 284.2 588.2 281.9 588.6 279.5L590.9 268.5H597.4L591.7 292.3H583.5L581.3 282.8C580.8 280.6 580.4 278.4 580 275.8H579.8C579.4 278.3 579 280.5 578.6 282.8L576.5 292.3H568.4L562.4 268.5Z" fill="black"/>
<path d="M914.6 261H921.8L930 276.6L933.1 283.5H933.3C933 280.2 932.4 275.8 932.4 272.1V261H939.1V292.3H931.9L923.7 276.7L920.6 269.9H920.4C920.7 273.4 921.3 277.5 921.3 281.2V292.3H914.6V261Z" fill="black"/>
<path d="M955.8 267.9C962.6 267.9 965.9 272.8 965.9 279.3C965.9 280.3 965.8 281.3 965.6 282.3H951.3C951.6 285.4 954.4 287.7 957.5 287.4C959.3 287.4 961.1 286.8 962.6 285.8L964.9 290.1C962.4 291.8 959.5 292.7 956.4 292.8C949.6 292.8 944.4 288.2 944.4 280.3C944.5 272.7 950.1 267.9 955.8 267.9ZM959.9 277.9C959.9 275.2 958.7 273.2 955.9 273.2C953.7 273.2 951.8 274.7 951.3 277.9H959.9Z" fill="black"/>
<path d="M974.9 279.9L968 268.5H975.6L977.7 272.3C978.3 273.6 979 275 979.7 276.4H979.9C980.4 275.1 981 273.7 981.5 272.3L983.2 268.5H990.5L983.6 280.7L990.9 292.3H983.3L981 288.4C980.2 287.1 979.5 285.6 978.7 284.3H978.5C977.9 285.6 977.3 287 976.7 288.4L974.8 292.3H967.5L974.9 279.9Z" fill="black"/>
<path d="M995.7 274H992.4V268.8L996.1 268.5L996.9 262.2H1002.7V268.5H1008.4V274H1002.7V283.6C1002.7 286.3 1003.9 287.4 1005.8 287.4C1006.6 287.4 1007.3 287.2 1008.1 286.9L1009.2 292C1007.5 292.6 1005.7 292.9 1003.9 292.9C998 292.9 995.7 289.2 995.7 283.7V274Z" fill="black"/>
<path d="M1317.6 261H1324.7V286.3H1337V292.3H1317.6V261Z" fill="black"/>
<path d="M1354.4 277C1354.2 274.9 1353.2 273.5 1350.6 273.5C1348.3 273.6 1346.2 274.4 1344.3 275.7L1341.8 271C1344.8 269 1348.4 268 1352 267.9C1358.1 267.9 1361.5 271.4 1361.5 278.7V292.3H1355.7L1355.2 289.8H1355C1353.1 291.6 1350.6 292.7 1348 292.8C1344.2 292.9 1341.1 289.9 1341 286.1C1341 285.9 1341 285.8 1341 285.6C1341 280.7 1345 278 1354.4 277ZM1350.5 287.4C1352.1 287.4 1353.2 286.6 1354.4 285.4V281.2C1349.4 281.9 1347.7 283.3 1347.7 285.1C1347.7 286.7 1348.8 287.4 1350.5 287.4Z" fill="black"/>
<path d="M1368.5 274H1365.2V268.8L1368.9 268.5L1369.7 262.2H1375.6V268.5H1381.3V274H1375.6V283.6C1375.6 286.3 1376.8 287.4 1378.7 287.4C1379.5 287.4 1380.2 287.2 1381 286.9L1382 292C1380.3 292.6 1378.5 292.9 1376.7 292.9C1370.8 292.9 1368.5 289.2 1368.5 283.7V274Z" fill="black"/>
<path d="M1395.2 267.9C1402 267.9 1405.3 272.8 1405.3 279.3C1405.3 280.3 1405.2 281.3 1405 282.3H1390.7C1391.3 285.9 1393.7 287.5 1396.9 287.5C1398.7 287.5 1400.5 286.9 1402 285.9L1404.3 290.2C1401.8 291.9 1398.9 292.8 1395.8 292.9C1389 292.9 1383.8 288.3 1383.8 280.4C1384 272.7 1389.5 267.9 1395.2 267.9ZM1399.4 277.9C1399.4 275.2 1398.2 273.2 1395.4 273.2C1393.2 273.2 1391.3 274.7 1390.8 277.9H1399.4Z" fill="black"/>
<path d="M1410.3 268.5H1416L1416.5 272.7H1416.7C1418.4 269.5 1421 267.9 1423.5 267.9C1424.5 267.9 1425.4 268 1426.3 268.4L1425.1 274.5C1424.3 274.2 1423.4 274.1 1422.5 274.1C1420.7 274.1 1418.5 275.2 1417.3 278.5V292.4H1410.2L1410.3 268.5Z" fill="black"/>
<path d="M493.4 479.4H395V344.7H529.7V443.1L493.4 479.4Z" fill="white" stroke="black" stroke-width="6" stroke-miterlimit="10"/>
<path d="M529.7 441.601L495.3 445.001L491.9 479.401" fill="white"/>
<path d="M529.7 441.601L495.3 445.001L491.9 479.401" stroke="black" stroke-width="6" stroke-miterlimit="10"/>
<path d="M670.3 479.4H571.8V344.7H706.5V443.1L670.3 479.4Z" fill="white" stroke="black" stroke-width="6" stroke-miterlimit="10"/>
<path d="M706.5 441.601L672.1 445.001L668.8 479.401" fill="white"/>
<path d="M706.5 441.601L672.1 445.001L668.8 479.401" stroke="black" stroke-width="6" stroke-miterlimit="10"/>
<path d="M493.4 671.3H395V536.6H529.7V635L493.4 671.3Z" fill="white" stroke="black" stroke-width="6" stroke-miterlimit="10"/>
<path d="M529.7 633.5L495.3 636.9L491.9 671.3" fill="white"/>
<path d="M529.7 633.5L495.3 636.9L491.9 671.3" stroke="black" stroke-width="6" stroke-miterlimit="10"/>
<path d="M903.1 479.4H804.7V344.7H939.4V443.1L903.1 479.4Z" fill="white" stroke="black" stroke-width="6" stroke-miterlimit="10"/>
<path d="M939.401 441.601L904.901 445.001L901.601 479.401" fill="white"/>
<path d="M939.401 441.601L904.901 445.001L901.601 479.401" stroke="black" stroke-width="6" stroke-miterlimit="10"/>
<path d="M1079.9 479.4H981.5V344.7H1116.2V443.1L1079.9 479.4Z" fill="white" stroke="black" stroke-width="6" stroke-miterlimit="10"/>
<path d="M1116.2 441.601L1081.8 445.001L1078.4 479.401" fill="white"/>
<path d="M1116.2 441.601L1081.8 445.001L1078.4 479.401" stroke="black" stroke-width="6" stroke-miterlimit="10"/>
<path d="M1312.7 479.4H1214.3V344.7H1349V443.1L1312.7 479.4Z" fill="white" stroke="black" stroke-width="6" stroke-miterlimit="10"/>
<path d="M1349 441.601L1314.6 445.001L1311.2 479.401" fill="white"/>
<path d="M1349 441.601L1314.6 445.001L1311.2 479.401" stroke="black" stroke-width="6" stroke-miterlimit="10"/>
<path d="M1489.6 479.4H1391.1V344.7H1525.8V443.1L1489.6 479.4Z" fill="white" stroke="black" stroke-width="6" stroke-miterlimit="10"/>
<path d="M1525.8 441.601L1491.4 445.001L1488 479.401" fill="white"/>
<path d="M1525.8 441.601L1491.4 445.001L1488 479.401" stroke="black" stroke-width="6" stroke-miterlimit="10"/>
<path d="M755.6 269.6V818.8" stroke="#BCBCBC" stroke-width="5.66" stroke-linecap="round" stroke-linejoin="round"/>
<path d="M1165.3 269.6V818.8" stroke="#BCBCBC" stroke-width="5.66" stroke-linecap="round" stroke-linejoin="round"/>
<path d="M903.1 671.3H804.7V536.6H939.4V635L903.1 671.3Z" fill="white" stroke="black" stroke-width="6" stroke-miterlimit="10"/>
<path d="M939.401 633.5L904.901 636.9L901.601 671.3" fill="white"/>
<path d="M939.401 633.5L904.901 636.9L901.601 671.3" stroke="black" stroke-width="6" stroke-miterlimit="10"/>
<path d="M1079.9 671.3H981.5V536.6H1116.2V635L1079.9 671.3Z" fill="white" stroke="black" stroke-width="6" stroke-miterlimit="10"/>
<path d="M1116.2 633.5L1081.8 636.9L1078.4 671.3" fill="white"/>
<path d="M1116.2 633.5L1081.8 636.9L1078.4 671.3" stroke="black" stroke-width="6" stroke-miterlimit="10"/>
<path d="M1312.7 671.3H1214.3V536.6H1349V635L1312.7 671.3Z" fill="white" stroke="black" stroke-width="6" stroke-miterlimit="10"/>
<path d="M1349 633.5L1314.6 636.9L1311.2 671.3" fill="white"/>
<path d="M1349 633.5L1314.6 636.9L1311.2 671.3" stroke="black" stroke-width="6" stroke-miterlimit="10"/>
</svg>
