<svg width="1920" height="1080" viewBox="0 0 1920 1080" fill="none" xmlns="http://www.w3.org/2000/svg">
<rect width="1920" height="1080" fill="white"/>
<path d="M597.68 525.53H605.92C614.83 525.53 620.57 530.28 620.57 541.03C620.57 551.78 614.83 556.82 606.28 556.82H597.68V525.53ZM605.52 551.11C610.52 551.11 613.8 548.52 613.8 541.03C613.8 533.54 610.49 531.24 605.52 531.24H604.26V551.11H605.52Z" fill="#2B2B2B"/>
<path d="M624.84 525.811C624.819 525.053 625.023 524.306 625.428 523.665C625.834 523.024 626.421 522.519 627.115 522.213C627.809 521.908 628.578 521.817 629.324 521.951C630.07 522.085 630.759 522.439 631.303 522.967C631.847 523.496 632.221 524.174 632.377 524.916C632.533 525.658 632.465 526.429 632.18 527.132C631.895 527.835 631.407 528.436 630.778 528.86C630.149 529.284 629.409 529.51 628.65 529.511C628.153 529.535 627.656 529.458 627.189 529.282C626.723 529.106 626.298 528.836 625.941 528.489C625.583 528.142 625.301 527.725 625.112 527.264C624.923 526.804 624.83 526.309 624.84 525.811ZM625.38 533.011H632V556.821H625.42L625.38 533.011Z" fill="#2B2B2B"/>
<path d="M638.44 549.67C640.44 551.3 642.29 552.17 644.17 552.17C646.05 552.17 647 551.4 647 550.17C647 548.59 644.76 547.87 642.47 546.91C639.78 545.8 636.6 543.84 636.6 539.91C636.6 535.49 639.96 532.47 645.11 532.47C647.995 532.519 650.77 533.581 652.95 535.47L650 539.69C648.695 538.52 647.038 537.817 645.29 537.69C643.59 537.69 642.79 538.36 642.79 539.56C642.79 541.1 644.85 541.68 647.13 542.56C649.95 543.66 653.13 545.34 653.13 549.71C653.13 554.08 650 557.4 644 557.4C640.869 557.297 637.867 556.13 635.49 554.09L638.44 549.67Z" fill="#2B2B2B"/>
<path d="M667.39 532.44C668.602 532.415 669.807 532.645 670.925 533.115C672.043 533.585 673.05 534.286 673.88 535.17L670.88 539.54C670.065 538.699 668.959 538.202 667.79 538.15C664.61 538.15 662.59 540.79 662.59 544.92C662.59 549.05 664.7 551.69 667.59 551.69C669.089 551.619 670.511 551.004 671.59 549.96L674.24 554.42C672.235 556.304 669.6 557.373 666.85 557.42C660.66 557.42 655.85 552.86 655.85 544.94C655.85 537.02 661.25 532.44 667.39 532.44Z" fill="#2B2B2B"/>
<path d="M686.73 532.44C692.33 532.44 697.53 537 697.53 544.92C697.53 552.84 692.33 557.4 686.73 557.4C681.13 557.4 675.89 552.84 675.89 544.92C675.89 537 681.09 532.44 686.73 532.44ZM686.73 551.69C689.42 551.69 690.81 549.05 690.81 544.92C690.81 540.79 689.42 538.15 686.73 538.15C684.04 538.15 682.66 540.79 682.66 544.92C682.66 549.05 684 551.69 686.73 551.69Z" fill="#2B2B2B"/>
<path d="M698.73 533H705.36L708.23 544.24C708.81 546.59 709.39 549.09 709.97 551.58H710.15C710.69 549.09 711.27 546.58 711.86 544.24L714.77 533H721.08L713.83 556.81H706.21L698.73 533Z" fill="#2B2B2B"/>
<path d="M732.77 532.44C739.09 532.44 742.22 537.38 742.22 543.86C742.234 544.867 742.143 545.872 741.95 546.86H728.65C729.23 550.46 731.47 552.04 734.43 552.04C736.15 552.011 737.82 551.46 739.22 550.46L741.41 554.73C739.121 556.414 736.37 557.353 733.53 557.42C727.17 557.42 722.29 552.81 722.29 544.94C722.29 537.07 727.44 532.44 732.77 532.44ZM736.62 542.44C736.62 539.7 735.55 537.78 732.9 537.78C730.84 537.78 729.05 539.27 728.6 542.44H736.62Z" fill="#2B2B2B"/>
<path d="M746.61 533H752L752.45 537.18H752.63C754.24 533.96 756.63 532.43 758.95 532.43C759.855 532.389 760.758 532.553 761.59 532.91L760.5 539C759.719 538.747 758.902 538.619 758.08 538.62C756.42 538.62 754.36 539.77 753.19 542.99V556.81H746.61V533Z" fill="#2B2B2B"/>
<path d="M767.64 560.57C769.83 560.57 770.95 559.32 771.53 557.45L771.85 556.2L763.29 533H769.92L773.1 543.23C773.73 545.39 774.27 547.65 774.85 550H775C775.49 547.74 776 545.49 776.52 543.23L779.24 533H785.56L777.85 557.05C775.75 563.05 773.37 566.13 768.13 566.13C767.064 566.147 766.002 565.985 764.99 565.65L766.16 560.27C766.64 560.427 767.137 560.528 767.64 560.57Z" fill="#2B2B2B"/>
<path d="M1150.59 525.53H1158.83C1167.75 525.53 1173.48 530.28 1173.48 541.03C1173.48 551.78 1167.75 556.82 1159.19 556.82H1150.59V525.53ZM1158.43 551.11C1163.43 551.11 1166.72 548.52 1166.72 541.03C1166.72 533.54 1163.4 531.24 1158.43 531.24H1157.17V551.11H1158.43Z" fill="#2B2B2B"/>
<path d="M1187.57 532.44C1193.88 532.44 1197.02 537.38 1197.02 543.86C1197.03 544.867 1196.94 545.872 1196.75 546.86H1183.44C1184.03 550.46 1186.27 552.04 1189.22 552.04C1190.94 552.011 1192.62 551.46 1194.02 550.46L1196.21 554.73C1193.92 556.414 1191.17 557.353 1188.33 557.42C1181.97 557.42 1177.08 552.81 1177.08 544.94C1177.08 537.07 1182.23 532.44 1187.57 532.44ZM1191.42 542.44C1191.42 539.7 1190.34 537.78 1187.7 537.78C1185.64 537.78 1183.85 539.27 1183.4 542.44H1191.42Z" fill="#2B2B2B"/>
<path d="M1201.33 523.17H1207.92V549.72C1207.92 551.21 1208.54 551.72 1209.08 551.72C1209.35 551.731 1209.63 551.697 1209.89 551.62L1210.7 556.85C1209.65 557.277 1208.52 557.475 1207.38 557.43C1202.85 557.43 1201.38 554.26 1201.38 549.43L1201.33 523.17Z" fill="#2B2B2B"/>
<path d="M1213.54 525.811C1213.52 525.052 1213.72 524.305 1214.13 523.664C1214.53 523.023 1215.12 522.517 1215.82 522.212C1216.51 521.907 1217.28 521.816 1218.03 521.952C1218.77 522.087 1219.46 522.442 1220.01 522.971C1220.55 523.5 1220.92 524.179 1221.08 524.922C1221.23 525.665 1221.16 526.437 1220.88 527.139C1220.59 527.841 1220.1 528.442 1219.47 528.865C1218.84 529.287 1218.1 529.512 1217.34 529.511C1216.84 529.534 1216.35 529.455 1215.88 529.279C1215.42 529.102 1214.99 528.832 1214.64 528.485C1214.28 528.138 1214 527.722 1213.81 527.262C1213.62 526.802 1213.53 526.308 1213.54 525.811ZM1214.07 533.011H1220.66V556.821H1214.07V533.011Z" fill="#2B2B2B"/>
<path d="M1223.73 533H1230.36L1233.23 544.24C1233.81 546.59 1234.39 549.09 1234.98 551.58H1235.16C1235.69 549.09 1236.28 546.58 1236.86 544.24L1239.77 533H1246.09L1238.83 556.81H1231.21L1223.73 533Z" fill="#2B2B2B"/>
<path d="M1257.77 532.44C1264.09 532.44 1267.22 537.38 1267.22 543.86C1267.23 544.867 1267.14 545.872 1266.95 546.86H1253.65C1254.23 550.46 1256.47 552.04 1259.43 552.04C1261.15 552.012 1262.82 551.461 1264.22 550.46L1266.42 554.73C1264.13 556.412 1261.37 557.351 1258.53 557.42C1252.17 557.42 1247.29 552.81 1247.29 544.94C1247.29 537.07 1252.44 532.44 1257.77 532.44ZM1261.62 542.44C1261.62 539.7 1260.55 537.78 1257.9 537.78C1255.84 537.78 1254.05 539.27 1253.6 542.44H1261.62Z" fill="#2B2B2B"/>
<path d="M1271.61 533H1277L1277.45 537.18H1277.63C1279.24 533.96 1281.63 532.43 1283.95 532.43C1284.86 532.389 1285.76 532.553 1286.59 532.91L1285.5 539C1284.72 538.747 1283.9 538.619 1283.08 538.62C1281.42 538.62 1279.36 539.77 1278.19 542.99V556.81H1271.61V533Z" fill="#2B2B2B"/>
<path d="M1292.64 560.57C1294.83 560.57 1295.95 559.32 1296.53 557.45L1296.85 556.2L1288.29 533H1294.92L1298.1 543.23C1298.73 545.39 1299.27 547.65 1299.85 550H1300C1300.49 547.74 1301 545.49 1301.52 543.23L1304.24 533H1310.56L1302.85 557.05C1300.75 563.05 1298.37 566.13 1293.13 566.13C1292.06 566.147 1291 565.985 1289.99 565.65L1291.16 560.27C1291.64 560.427 1292.14 560.528 1292.64 560.57Z" fill="#2B2B2B"/>
<path d="M946.63 526.82L818.39 398.58C799.842 379.984 777.803 365.236 753.539 355.184C729.275 345.131 703.264 339.971 677 340H677.53C573.46 340 488 419.44 478.39 521" stroke="#2B2B2B" stroke-width="12" stroke-miterlimit="10"/>
<path d="M1442.65 540C1442.65 650.46 1353.11 740 1242.65 740C1216.38 740.033 1190.36 734.875 1166.09 724.822C1141.82 714.769 1119.78 700.019 1101.23 681.42L972.83 553" stroke="#2B2B2B" stroke-width="12" stroke-miterlimit="10"/>
<path d="M440 577.5L477.5 540L515 577.5" stroke="#2B2B2B" stroke-width="12" stroke-linecap="round" stroke-linejoin="round"/>
<path d="M1441.78 521.15C1432.28 419.53 1346.75 340 1242.65 340C1216.38 339.967 1190.36 345.125 1166.09 355.178C1141.83 365.231 1119.78 379.981 1101.23 398.58L959.81 540L818.39 681.42C799.843 700.016 777.804 714.764 753.54 724.817C729.276 734.87 703.264 740.03 677 740H677.53C567.07 740 477.53 650.46 477.53 540" stroke="#2B2B2B" stroke-width="12" stroke-miterlimit="10"/>
<path d="M1405.15 577.5L1442.65 540L1480.15 577.5" stroke="#2B2B2B" stroke-width="12" stroke-linecap="round" stroke-linejoin="round"/>
</svg>
