<svg width="1920" height="1080" viewBox="0 0 1920 1080" fill="none" xmlns="http://www.w3.org/2000/svg">
<rect width="1920" height="1080" fill="white"/>
<path d="M495 780.19L1161.5 780.19V287.79L495 287.79L495 780.19Z" fill="white" stroke="#2B2B2B" stroke-width="9" stroke-linejoin="round"/>
<path d="M509.561 765.64L1176.06 765.64V273.24L509.561 273.24L509.561 765.64Z" fill="white" stroke="#2B2B2B" stroke-width="9" stroke-linejoin="round"/>
<path d="M524.109 751.07L1190.61 751.07V258.67L524.109 258.67L524.109 751.07Z" fill="white" stroke="#2B2B2B" stroke-width="9" stroke-linejoin="round"/>
<path d="M538.67 736.51L1205.17 736.51V244.11L538.67 244.11L538.67 736.51Z" fill="white" stroke="#2B2B2B" stroke-width="9" stroke-linejoin="round"/>
<path d="M553.24 721.96L1219.74 721.96V229.56L553.24 229.56L553.24 721.96Z" fill="white" stroke="#2B2B2B" stroke-width="9" stroke-linejoin="round"/>
<path d="M567.801 707.4L1234.3 707.4V215L567.801 215L567.801 707.4Z" fill="white" stroke="#2B2B2B" stroke-width="9" stroke-linejoin="round"/>
<path d="M694.85 294.98H702.33C710.04 294.98 715.33 298.57 715.33 307.53C715.33 316.49 710.03 320.31 702.71 320.31H694.84L694.85 294.98ZM701.94 314.98C705.6 314.98 708.48 313.5 708.48 307.58C708.48 301.66 705.6 300.41 701.94 300.41H701.55V314.98H701.94Z" fill="#2B2B2B"/>
<path d="M718.301 310.57C718.301 304.26 722.901 300.36 727.651 300.36C733.421 300.36 736.141 304.57 736.141 309.79C736.148 310.731 736.057 311.669 735.871 312.59H724.771C725.391 314.93 727.111 315.71 729.291 315.71C730.719 315.677 732.115 315.274 733.341 314.54L735.441 318.54C733.345 319.962 730.883 320.747 728.351 320.8C722.661 320.77 718.301 317.03 718.301 310.57ZM730.501 308.23C730.501 306.75 729.871 305.43 727.851 305.43C727.073 305.417 726.32 305.698 725.741 306.218C725.162 306.737 724.801 307.456 724.731 308.23H730.501Z" fill="#2B2B2B"/>
<path d="M739.811 313.5V293.19H746.501V313.68C746.501 315.01 747.121 315.4 747.591 315.4C747.827 315.409 748.063 315.382 748.291 315.32L749.071 320.23C748.028 320.628 746.916 320.812 745.801 320.77C741.291 320.77 739.811 317.81 739.811 313.5Z" fill="#2B2B2B"/>
<path d="M751.109 295.06C751.109 293.06 752.589 291.71 754.769 291.71C756.949 291.71 758.429 293.04 758.429 295.06C758.429 297.08 756.949 298.41 754.769 298.41C752.589 298.41 751.109 297.09 751.109 295.06ZM751.419 300.83H758.119V320.31H751.419V300.83Z" fill="#2B2B2B"/>
<path d="M760.85 300.83H767.55L769.65 309.32C770.12 311.32 770.59 313.32 771.05 315.4H771.21C771.68 313.29 772.14 311.27 772.61 309.32L774.72 300.83H781.1L774.95 320.31H767.24L760.85 300.83Z" fill="#2B2B2B"/>
<path d="M782.43 310.57C782.43 304.26 787.03 300.36 791.78 300.36C797.55 300.36 800.27 304.57 800.27 309.79C800.277 310.731 800.186 311.669 800 312.59H788.9C789.52 314.93 791.24 315.71 793.42 315.71C794.862 315.67 796.269 315.253 797.5 314.5L799.6 318.5C797.504 319.922 795.042 320.707 792.51 320.76C786.79 320.77 782.43 317.03 782.43 310.57ZM794.59 308.23C794.59 306.75 793.96 305.43 791.94 305.43C791.162 305.417 790.409 305.698 789.83 306.218C789.251 306.737 788.89 307.456 788.82 308.23H794.59Z" fill="#2B2B2B"/>
<path d="M803.939 300.83H809.389L809.859 304.18H810.019C811.459 301.53 813.639 300.36 815.549 300.36C816.371 300.318 817.193 300.451 817.959 300.75L816.719 306.44C816.066 306.275 815.394 306.194 814.719 306.2C813.319 306.2 811.599 307.06 810.669 309.48V320.31H803.969L803.939 300.83Z" fill="#2B2B2B"/>
<path d="M820.151 327.16L821.311 322.25C821.716 322.368 822.138 322.422 822.561 322.41C823.216 322.484 823.877 322.323 824.425 321.957C824.974 321.592 825.376 321.044 825.561 320.41L825.791 319.56L818.391 300.78H825.091L827.501 308.31C828.051 310.1 828.431 311.89 828.901 313.84H829.061C829.451 311.97 829.841 310.18 830.301 308.31L832.301 300.83H838.691L832.151 319.99C830.151 325.25 828.021 327.63 823.151 327.63C822.13 327.671 821.11 327.511 820.151 327.16Z" fill="#2B2B2B"/>
<path d="M848.59 307.84C848.59 299.35 854.43 294.52 860.82 294.52C862.29 294.516 863.746 294.811 865.099 295.387C866.451 295.963 867.673 296.808 868.69 297.87L865.18 301.87C864.05 300.791 862.541 300.202 860.98 300.23C857.98 300.23 855.44 302.96 855.44 307.56C855.44 312.31 857.63 314.96 860.9 314.96C861.763 314.969 862.618 314.795 863.409 314.45C864.2 314.106 864.909 313.598 865.49 312.96L869 316.96C867.973 318.161 866.692 319.12 865.25 319.767C863.808 320.414 862.24 320.732 860.66 320.7C854.2 320.77 848.59 316.5 848.59 307.84Z" fill="#2B2B2B"/>
<path d="M871.961 300.83H877.421L877.891 304.18H878.041C879.481 301.53 881.661 300.36 883.571 300.36C884.396 300.318 885.221 300.451 885.991 300.75L884.741 306.44C884.087 306.274 883.415 306.193 882.741 306.2C881.331 306.2 879.621 307.06 878.681 309.48V320.31H871.981L871.961 300.83Z" fill="#2B2B2B"/>
<path d="M887.939 295.06C887.939 293.06 889.419 291.71 891.599 291.71C893.779 291.71 895.259 293.04 895.259 295.06C895.259 297.08 893.779 298.41 891.599 298.41C889.419 298.41 887.939 297.09 887.939 295.06ZM888.249 300.83H894.949V320.31H888.249V300.83Z" fill="#2B2B2B"/>
<path d="M900.33 312.83V306.05H897.76V301.05L900.76 300.82L901.54 294.97H907.07V300.82H911.5V306.04H907.06V312.7C907.06 314.84 908.15 315.54 909.4 315.54C909.978 315.552 910.555 315.475 911.11 315.31L912.11 319.98C910.64 320.517 909.084 320.781 907.52 320.76C902.43 320.77 900.33 317.58 900.33 312.83Z" fill="#2B2B2B"/>
<path d="M913.26 310.57C913.26 304.26 917.86 300.36 922.61 300.36C928.38 300.36 931.11 304.57 931.11 309.79C931.115 310.731 931.021 311.669 930.83 312.59H919.73C920.35 314.93 922.07 315.71 924.25 315.71C925.682 315.665 927.078 315.248 928.3 314.5L930.4 318.5C928.305 319.924 925.842 320.709 923.31 320.76C917.63 320.77 913.26 317.03 913.26 310.57ZM925.42 308.23C925.42 306.75 924.79 305.43 922.77 305.43C921.992 305.417 921.239 305.698 920.66 306.218C920.081 306.737 919.72 307.456 919.65 308.23H925.42Z" fill="#2B2B2B"/>
<path d="M934.77 300.83H940.22L940.69 304.18H940.85C942.29 301.53 944.47 300.36 946.38 300.36C947.201 300.318 948.023 300.451 948.79 300.75L947.55 306.44C946.896 306.275 946.224 306.194 945.55 306.2C944.15 306.2 942.43 307.06 941.55 309.48V320.31H934.85L934.77 300.83Z" fill="#2B2B2B"/>
<path d="M950.74 295.06C950.74 293.06 952.22 291.71 954.41 291.71C956.6 291.71 958.07 293.04 958.07 295.06C958.07 297.08 956.59 298.41 954.41 298.41C952.23 298.41 950.74 297.09 950.74 295.06ZM951.06 300.83H957.76V320.31H951.06V300.83Z" fill="#2B2B2B"/>
<path d="M961.499 314.77C961.499 310.77 964.609 308.46 972.089 307.68C971.939 306.28 971.089 305.68 969.369 305.68C967.643 305.778 965.968 306.308 964.499 307.22L962.159 302.93C964.724 301.299 967.69 300.41 970.729 300.36C975.799 300.36 978.829 303.09 978.829 309.48V320.31H973.379L972.909 318.44H972.759C971.33 319.877 969.405 320.71 967.379 320.77C966.591 320.793 965.806 320.653 965.074 320.358C964.342 320.063 963.679 319.62 963.127 319.056C962.575 318.493 962.145 317.821 961.865 317.084C961.585 316.346 961.46 315.558 961.499 314.77ZM972.089 314.31V311.66C968.899 312.13 967.889 313.14 967.889 314.23C967.889 315.13 968.509 315.63 969.679 315.63C970.156 315.614 970.623 315.486 971.041 315.257C971.46 315.028 971.819 314.704 972.089 314.31Z" fill="#2B2B2B"/>
<path d="M992.82 313.29H990.02V309.09H993.29L993.76 305.35H990.76V301.14H994.26L995.04 294.98H998.78L998.08 301.14H1001.66L1002.44 294.98H1006.18L1005.48 301.14H1008.48V305.35H1004.9L1004.5 309.09H1007.77V313.29H1004.03L1003.17 320.29H999.36L1000.21 313.29H996.63L995.77 320.29H991.96L992.82 313.29ZM1000.69 309.09L1001.16 305.35H997.57L997.11 309.09H1000.69Z" fill="#2B2B2B"/>
<path d="M1012.3 314.93H1017.6V302.15H1012.93V298.02C1015.22 297.656 1017.42 296.837 1019.39 295.61H1024.3V314.93H1028.74V320.31H1012.3V314.93Z" fill="#2B2B2B"/>
<path d="M695.699 349.19H1172.62" stroke="#6A6A6A" stroke-width="6" stroke-miterlimit="10" stroke-linecap="round"/>
<path d="M695.699 388.34H1049.79" stroke="#6A6A6A" stroke-width="6" stroke-miterlimit="10" stroke-linecap="round"/>
<path d="M694.85 433.17H702.33C710.04 433.17 715.33 436.75 715.33 445.71C715.33 454.67 710.04 458.5 702.72 458.5H694.85V433.17ZM701.94 453.11C705.6 453.11 708.48 451.63 708.48 445.71C708.48 439.79 705.6 438.5 701.94 438.5H701.55V453.07L701.94 453.11Z" fill="#2B2B2B"/>
<path d="M718.301 448.75C718.301 442.44 722.901 438.54 727.651 438.54C733.421 438.54 736.141 442.75 736.141 447.97C736.147 448.913 736.056 449.855 735.871 450.78H724.771C725.391 453.11 727.111 453.89 729.291 453.89C730.719 453.857 732.115 453.454 733.341 452.72L735.441 456.72C733.345 458.142 730.883 458.927 728.351 458.98C722.661 458.96 718.301 455.22 718.301 448.75ZM730.501 446.41C730.501 444.93 729.871 443.61 727.851 443.61C727.073 443.597 726.32 443.878 725.741 444.397C725.162 444.917 724.801 445.636 724.731 446.41H730.501Z" fill="#2B2B2B"/>
<path d="M739.811 451.63V431.38H746.501V451.87C746.501 453.19 747.121 453.58 747.591 453.58C747.827 453.589 748.063 453.562 748.291 453.5L749.071 458.41C748.029 458.812 746.916 458.999 745.801 458.96C741.291 458.96 739.811 456 739.811 451.63Z" fill="#2B2B2B"/>
<path d="M751.109 433.25C751.109 431.25 752.589 429.9 754.769 429.9C756.949 429.9 758.429 431.22 758.429 433.25C758.429 435.28 756.949 436.6 754.769 436.6C752.589 436.6 751.109 435.27 751.109 433.25ZM751.419 439.01H758.119V458.5H751.419V439.01Z" fill="#2B2B2B"/>
<path d="M760.85 439.01H767.55L769.65 447.5C770.123 449.446 770.59 451.473 771.05 453.58H771.21C771.68 451.48 772.14 449.45 772.61 447.5L774.72 439.01H781.1L774.95 458.5H767.24L760.85 439.01Z" fill="#2B2B2B"/>
<path d="M782.43 448.75C782.43 442.44 787.03 438.54 791.78 438.54C797.55 438.54 800.27 442.75 800.27 447.97C800.276 448.913 800.185 449.855 800 450.78H788.9C789.52 453.11 791.24 453.89 793.42 453.89C794.848 453.857 796.244 453.454 797.47 452.72L799.57 456.72C797.474 458.142 795.012 458.927 792.48 458.98C786.79 458.96 782.43 455.22 782.43 448.75ZM794.59 446.41C794.59 444.93 793.96 443.61 791.94 443.61C791.162 443.597 790.409 443.878 789.83 444.397C789.251 444.917 788.89 445.636 788.82 446.41H794.59Z" fill="#2B2B2B"/>
<path d="M803.939 439.01H809.389L809.859 442.36H810.019C811.459 439.71 813.639 438.54 815.549 438.54C816.371 438.498 817.193 438.631 817.959 438.93L816.719 444.62C816.065 444.458 815.393 444.381 814.719 444.39C813.319 444.39 811.599 445.24 810.669 447.66V458.5H803.969L803.939 439.01Z" fill="#2B2B2B"/>
<path d="M820.151 465.35L821.311 460.44C821.718 460.551 822.139 460.601 822.561 460.59C823.208 460.666 823.863 460.515 824.41 460.16C824.958 459.806 825.365 459.272 825.561 458.65L825.791 457.79L818.391 439.01H825.091L827.501 446.5C828.051 448.29 828.431 450.08 828.901 452.03H829.061C829.451 450.16 829.841 448.37 830.301 446.5L832.301 439.02H838.691L832.151 458.19C830.151 463.45 828.021 465.82 823.151 465.82C822.13 465.86 821.11 465.7 820.151 465.35Z" fill="#2B2B2B"/>
<path d="M848.59 446.02C848.59 437.53 854.43 432.7 860.82 432.7C862.29 432.697 863.746 432.992 865.099 433.568C866.451 434.144 867.673 434.988 868.69 436.05L865.18 440.05C864.049 438.976 862.54 438.39 860.98 438.42C857.98 438.42 855.44 441.14 855.44 445.74C855.44 450.49 857.63 453.14 860.9 453.14C861.759 453.156 862.612 452.99 863.402 452.654C864.193 452.318 864.905 451.819 865.49 451.19L869 455.19C867.972 456.39 866.691 457.348 865.249 457.995C863.807 458.641 862.24 458.961 860.66 458.93C854.2 458.96 848.59 454.67 848.59 446.02Z" fill="#2B2B2B"/>
<path d="M871.961 439.01H877.421L877.891 442.36H878.041C879.481 439.71 881.661 438.54 883.571 438.54C884.396 438.498 885.221 438.631 885.991 438.93L884.741 444.62C884.087 444.457 883.415 444.38 882.741 444.39C881.331 444.39 879.621 445.24 878.681 447.66V458.5H871.981L871.961 439.01Z" fill="#2B2B2B"/>
<path d="M887.939 433.25C887.939 431.25 889.419 429.9 891.599 429.9C893.779 429.9 895.259 431.22 895.259 433.25C895.259 435.28 893.779 436.6 891.599 436.6C889.419 436.6 887.939 435.27 887.939 433.25ZM888.249 439.01H894.949V458.5H888.249V439.01Z" fill="#2B2B2B"/>
<path d="M900.33 451.01V444.23H897.76V439.23L900.76 439L901.54 433.16H907.07V439H911.5V444.22H907.06V450.88C907.06 453.02 908.15 453.73 909.4 453.73C909.979 453.74 910.556 453.659 911.11 453.49L912.11 458.17C910.64 458.707 909.084 458.972 907.52 458.95C902.43 458.96 900.33 455.76 900.33 451.01Z" fill="#2B2B2B"/>
<path d="M913.26 448.75C913.26 442.44 917.86 438.54 922.61 438.54C928.38 438.54 931.11 442.75 931.11 447.97C931.114 448.914 931.02 449.856 930.83 450.78H919.73C920.35 453.11 922.07 453.89 924.25 453.89C925.678 453.857 927.074 453.454 928.3 452.72L930.4 456.72C928.305 458.143 925.842 458.928 923.31 458.98C917.63 458.96 913.26 455.22 913.26 448.75ZM925.42 446.41C925.42 444.93 924.79 443.61 922.77 443.61C921.992 443.597 921.239 443.878 920.66 444.397C920.081 444.917 919.72 445.636 919.65 446.41H925.42Z" fill="#2B2B2B"/>
<path d="M934.77 439.01H940.22L940.69 442.36H940.85C942.29 439.71 944.47 438.54 946.38 438.54C947.201 438.497 948.023 438.63 948.79 438.93L947.55 444.62C946.895 444.458 946.223 444.381 945.55 444.39C944.15 444.39 942.43 445.24 941.55 447.66V458.5H934.85L934.77 439.01Z" fill="#2B2B2B"/>
<path d="M950.74 433.25C950.74 431.25 952.22 429.9 954.41 429.9C956.6 429.9 958.07 431.22 958.07 433.25C958.07 435.28 956.59 436.6 954.41 436.6C952.23 436.6 950.74 435.27 950.74 433.25ZM951.06 439.01H957.76V458.5H951.06V439.01Z" fill="#2B2B2B"/>
<path d="M961.499 452.96C961.499 448.91 964.609 446.65 972.089 445.87C971.939 444.46 971.089 443.87 969.369 443.87C967.643 443.965 965.969 444.491 964.499 445.4L962.159 441.11C964.724 439.479 967.69 438.59 970.729 438.54C975.799 438.54 978.829 441.27 978.829 447.66V458.5H973.379L972.909 456.63H972.759C971.331 458.069 969.406 458.907 967.379 458.97C966.59 458.992 965.805 458.85 965.073 458.554C964.341 458.258 963.678 457.814 963.126 457.249C962.574 456.685 962.145 456.013 961.865 455.275C961.585 454.537 961.46 453.749 961.499 452.96ZM972.089 452.49V449.84C968.899 450.31 967.889 451.32 967.889 452.41C967.889 453.31 968.509 453.81 969.679 453.81C970.155 453.795 970.621 453.669 971.04 453.441C971.458 453.214 971.818 452.891 972.089 452.5V452.49Z" fill="#2B2B2B"/>
<path d="M992.82 451.5H990.02V447.29H993.29L993.76 443.55H990.76V439.34H994.26L995.04 433.19H998.78L998.08 439.34H1001.66L1002.44 433.19H1006.18L1005.48 439.34H1008.48V443.5H1004.9L1004.43 447.24H1007.7V451.5H1003.96L1003.1 458.5H999.29L1000.14 451.5H996.56L995.7 458.5H991.89L992.82 451.5ZM1000.69 447.29L1001.16 443.55H997.57L997.11 447.29H1000.69Z" fill="#2B2B2B"/>
<path d="M1011.13 454.36C1016.9 449.5 1021.5 445.09 1021.5 441.82C1021.5 439.6 1020.25 438.54 1018.5 438.54C1016.75 438.54 1015.62 439.71 1014.45 440.88L1010.98 437.5C1013.47 434.7 1015.81 433.37 1019.39 433.37C1024.39 433.37 1027.89 436.57 1027.89 441.37C1027.89 445.73 1023.89 449.63 1020.17 453.21C1021.54 453.033 1022.92 452.93 1024.3 452.9H1029.05V458.5H1011.13V454.36Z" fill="#2B2B2B"/>
<path d="M695.699 487.37H1119.92" stroke="#6A6A6A" stroke-width="6" stroke-miterlimit="10" stroke-linecap="round"/>
<path d="M695.699 526.52H857.889" stroke="#6A6A6A" stroke-width="6" stroke-miterlimit="10" stroke-linecap="round"/>
<path d="M694.85 571.35H702.33C710.04 571.35 715.33 574.93 715.33 583.89C715.33 592.85 710.03 596.67 702.71 596.67H694.84L694.85 571.35ZM701.94 591.29C705.6 591.29 708.48 589.81 708.48 583.89C708.48 577.97 705.6 576.72 701.94 576.72H701.55V591.29H701.94Z" fill="#2B2B2B"/>
<path d="M718.301 586.93C718.301 580.62 722.901 576.72 727.651 576.72C733.421 576.72 736.141 580.93 736.141 586.15C736.147 587.093 736.056 588.035 735.871 588.96H724.771C725.391 591.29 727.111 592.07 729.291 592.07C730.719 592.037 732.115 591.633 733.341 590.9L735.441 594.9C733.345 596.322 730.883 597.106 728.351 597.16C722.661 597.14 718.301 593.4 718.301 586.93ZM730.501 584.59C730.501 583.11 729.871 581.79 727.851 581.79C727.074 581.779 726.322 582.061 725.743 582.58C725.165 583.099 724.804 583.816 724.731 584.59H730.501Z" fill="#2B2B2B"/>
<path d="M739.811 589.81V569.56H746.501V590.05C746.501 591.37 747.121 591.76 747.591 591.76C747.827 591.768 748.063 591.741 748.291 591.68L749.071 596.59C748.029 596.991 746.916 597.178 745.801 597.14C741.291 597.14 739.811 594.18 739.811 589.81Z" fill="#2B2B2B"/>
<path d="M751.109 571.43C751.109 569.43 752.589 568.08 754.769 568.08C756.949 568.08 758.429 569.4 758.429 571.43C758.429 573.46 756.949 574.78 754.769 574.78C752.589 574.78 751.109 573.5 751.109 571.43ZM751.419 577.19H758.119V596.67H751.419V577.19Z" fill="#2B2B2B"/>
<path d="M760.85 577.19H767.55L769.65 585.68C770.123 587.634 770.59 589.66 771.05 591.76H771.21C771.68 589.66 772.14 587.63 772.61 585.68L774.72 577.19H781.1L774.95 596.67H767.24L760.85 577.19Z" fill="#2B2B2B"/>
<path d="M782.43 586.93C782.43 580.62 787.03 576.72 791.78 576.72C797.55 576.72 800.27 580.93 800.27 586.15C800.276 587.093 800.185 588.035 800 588.96H788.9C789.52 591.29 791.24 592.07 793.42 592.07C794.858 592.042 796.265 591.638 797.5 590.9L799.6 594.9C797.504 596.322 795.042 597.106 792.51 597.16C786.79 597.14 782.43 593.4 782.43 586.93ZM794.59 584.59C794.59 583.11 793.96 581.79 791.94 581.79C791.163 581.779 790.41 582.061 789.832 582.58C789.254 583.099 788.893 583.816 788.82 584.59H794.59Z" fill="#2B2B2B"/>
<path d="M803.939 577.19H809.389L809.859 580.54H810.019C811.459 577.89 813.639 576.72 815.549 576.72C816.371 576.679 817.193 576.812 817.959 577.11L816.719 582.8C816.064 582.644 815.393 582.567 814.719 582.57C813.319 582.57 811.599 583.42 810.669 585.84V596.67H803.969L803.939 577.19Z" fill="#2B2B2B"/>
<path d="M820.151 603.5L821.311 598.59C821.718 598.701 822.139 598.752 822.561 598.74C823.208 598.817 823.863 598.665 824.41 598.311C824.958 597.957 825.365 597.422 825.561 596.8L825.791 595.94L818.391 577.16H825.091L827.431 584.64C827.981 586.43 828.361 588.23 828.831 590.17H828.991C829.381 588.3 829.771 586.51 830.231 584.64L832.231 577.16H838.621L832.081 596.33C830.081 601.59 827.951 603.96 823.081 603.96C822.084 603.994 821.089 603.838 820.151 603.5Z" fill="#2B2B2B"/>
<path d="M848.59 584.2C848.59 575.71 854.43 570.88 860.82 570.88C862.29 570.876 863.746 571.172 865.099 571.747C866.451 572.323 867.673 573.168 868.69 574.23L865.18 578.23C864.049 577.155 862.54 576.57 860.98 576.6C857.98 576.6 855.44 579.32 855.44 583.92C855.44 588.52 857.63 591.32 860.9 591.32C861.759 591.335 862.612 591.17 863.402 590.834C864.193 590.498 864.905 589.999 865.49 589.37L869 593.37C867.972 594.57 866.691 595.528 865.249 596.174C863.807 596.821 862.24 597.14 860.66 597.11C854.2 597.14 848.59 592.85 848.59 584.2Z" fill="#2B2B2B"/>
<path d="M871.961 577.19H877.421L877.891 580.54H878.041C879.481 577.89 881.661 576.72 883.571 576.72C884.396 576.679 885.221 576.812 885.991 577.11L884.741 582.8C884.086 582.643 883.414 582.566 882.741 582.57C881.331 582.57 879.621 583.42 878.681 585.84V596.67H871.981L871.961 577.19Z" fill="#2B2B2B"/>
<path d="M887.939 571.43C887.939 569.43 889.419 568.08 891.599 568.08C893.779 568.08 895.259 569.4 895.259 571.43C895.259 573.46 893.779 574.78 891.599 574.78C889.419 574.78 887.939 573.5 887.939 571.43ZM888.249 577.19H894.949V596.67H888.249V577.19Z" fill="#2B2B2B"/>
<path d="M900.33 589.19V582.41H897.76V577.41L900.76 577.17L901.54 571.33H907.07V577.17H911.5V582.39H907.06V589.05C907.06 591.2 908.15 591.9 909.4 591.9C909.979 591.91 910.556 591.829 911.11 591.66L912.11 596.34C910.64 596.877 909.084 597.142 907.52 597.12C902.43 597.14 900.33 593.94 900.33 589.19Z" fill="#2B2B2B"/>
<path d="M913.26 586.93C913.26 580.62 917.86 576.72 922.61 576.72C928.38 576.72 931.11 580.93 931.11 586.15C931.114 587.094 931.02 588.035 930.83 588.96H919.73C920.35 591.29 922.07 592.07 924.25 592.07C925.678 592.037 927.074 591.633 928.3 590.9L930.4 594.9C928.305 596.323 925.842 597.108 923.31 597.16C917.63 597.14 913.26 593.4 913.26 586.93ZM925.42 584.59C925.42 583.11 924.79 581.79 922.77 581.79C921.993 581.779 921.24 582.061 920.662 582.58C920.084 583.099 919.723 583.816 919.65 584.59H925.42Z" fill="#2B2B2B"/>
<path d="M934.77 577.19H940.22L940.69 580.54H940.85C942.29 577.89 944.47 576.72 946.38 576.72C947.201 576.677 948.023 576.81 948.79 577.11L947.55 582.8C946.895 582.642 946.223 582.565 945.55 582.57C944.15 582.57 942.43 583.42 941.55 585.84V596.67H934.85L934.77 577.19Z" fill="#2B2B2B"/>
<path d="M950.74 571.43C950.74 569.43 952.22 568.08 954.41 568.08C956.6 568.08 958.07 569.4 958.07 571.43C958.07 573.46 956.59 574.78 954.41 574.78C952.23 574.78 950.74 573.5 950.74 571.43ZM951.06 577.19H957.76V596.67H951.06V577.19Z" fill="#2B2B2B"/>
<path d="M961.5 591.14C961.5 587.09 964.61 584.83 972.09 584.05C971.94 582.65 971.09 582.05 969.37 582.05C967.628 582.147 965.939 582.684 964.46 583.61L962.12 579.33C964.682 577.692 967.649 576.798 970.69 576.75C975.76 576.75 978.79 579.48 978.79 585.87V596.7H973.34L972.87 594.83H972.72C971.292 596.269 969.367 597.106 967.34 597.17C966.553 597.186 965.77 597.04 965.042 596.74C964.313 596.44 963.654 595.993 963.106 595.428C962.558 594.862 962.133 594.189 961.856 593.451C961.58 592.713 961.459 591.927 961.5 591.14ZM972.09 590.67V588.02C968.9 588.49 967.89 589.5 967.89 590.59C967.89 591.49 968.51 591.99 969.68 591.99C970.157 591.974 970.624 591.846 971.042 591.617C971.461 591.388 971.82 591.063 972.09 590.67Z" fill="#2B2B2B"/>
<path d="M992.82 589.66H990.02V585.5H993.29L993.76 581.76H990.76V577.5H994.26L995.04 571.35H998.78L998.08 577.5H1001.66L1002.44 571.35H1006.18L1005.5 577.5H1008.5V581.71H1004.92L1004.5 585.5H1007.77V589.71H1004.03L1003.17 596.71H999.36L1000.21 589.71H996.63L995.77 596.71H991.96L992.82 589.66ZM1000.69 585.45L1001.16 581.71H997.57L997.11 585.45H1000.69Z" fill="#2B2B2B"/>
<path d="M1010.5 593.63L1013.5 589.42C1014.84 590.799 1016.64 591.632 1018.56 591.76C1020.75 591.76 1022.15 590.98 1022.15 589.42C1022.15 587.55 1021.15 586.42 1015.99 586.42V581.75C1020.12 581.75 1021.37 580.66 1021.37 578.94C1021.37 577.46 1020.47 576.68 1018.8 576.68C1017.13 576.68 1015.99 577.39 1014.43 578.68L1011.08 574.63C1013.27 572.623 1016.11 571.485 1019.08 571.43C1024.53 571.43 1028.08 573.93 1028.08 578.43C1028.08 580.8 1026.75 582.6 1024.08 583.76V583.92C1026.88 584.78 1028.83 586.72 1028.83 589.84C1028.83 594.52 1024.39 597.09 1019.24 597.09C1015.3 597.14 1012.38 595.81 1010.5 593.63Z" fill="#2B2B2B"/>
<path d="M695.699 625.55H1012.56" stroke="#6A6A6A" stroke-width="6" stroke-miterlimit="10" stroke-linecap="round"/>
<path fill-rule="evenodd" clip-rule="evenodd" d="M663.031 303.93L649.501 317.42C649.354 317.569 649.178 317.687 648.985 317.768C648.792 317.849 648.585 317.89 648.376 317.89C648.166 317.89 647.959 317.849 647.766 317.768C647.573 317.687 647.398 317.569 647.251 317.42L640.501 310.67C640.353 310.522 640.236 310.347 640.156 310.154C640.076 309.961 640.035 309.754 640.035 309.545C640.035 309.336 640.076 309.129 640.156 308.936C640.236 308.743 640.353 308.568 640.501 308.42C640.648 308.272 640.824 308.155 641.017 308.075C641.21 307.995 641.417 307.954 641.626 307.954C641.835 307.954 642.041 307.995 642.234 308.075C642.428 308.155 642.603 308.272 642.751 308.42L648.371 314.05L660.751 301.68C660.898 301.531 661.073 301.412 661.266 301.332C661.459 301.251 661.666 301.209 661.876 301.209C662.085 301.209 662.292 301.251 662.485 301.332C662.678 301.412 662.854 301.531 663.001 301.68C663.148 301.828 663.266 302.003 663.346 302.196C663.426 302.389 663.467 302.596 663.467 302.805C663.467 303.014 663.426 303.221 663.346 303.414C663.266 303.607 663.148 303.782 663.001 303.93H663.031ZM651.781 287.09C647.692 287.098 643.698 288.317 640.302 290.594C636.907 292.872 634.262 296.104 632.703 299.884C631.144 303.663 630.74 307.82 631.543 311.829C632.345 315.838 634.318 319.519 637.212 322.407C640.106 325.295 643.79 327.261 647.801 328.055C651.811 328.85 655.967 328.438 659.744 326.872C663.52 325.305 666.748 322.655 669.018 319.255C671.289 315.855 672.501 311.858 672.501 307.77C672.498 302.286 670.318 297.027 666.441 293.15C662.563 289.272 657.305 287.092 651.821 287.09" fill="#009CDE"/>
<path fill-rule="evenodd" clip-rule="evenodd" d="M663.031 442.8L649.501 456.3C649.2 456.594 648.796 456.758 648.376 456.758C647.955 456.758 647.551 456.594 647.251 456.3L640.501 449.55C640.202 449.252 640.035 448.847 640.035 448.425C640.035 448.003 640.202 447.598 640.501 447.3C640.799 447.002 641.204 446.834 641.626 446.834C642.048 446.834 642.452 447.002 642.751 447.3L648.371 452.92L660.751 440.55C660.898 440.402 661.074 440.285 661.267 440.205C661.46 440.125 661.667 440.084 661.876 440.084C662.085 440.084 662.291 440.125 662.484 440.205C662.678 440.285 662.853 440.402 663.001 440.55C663.148 440.698 663.266 440.873 663.346 441.066C663.425 441.259 663.467 441.466 663.467 441.675C663.467 441.884 663.425 442.091 663.346 442.284C663.266 442.477 663.148 442.652 663.001 442.8H663.031ZM651.751 425.96C647.664 425.974 643.672 427.198 640.281 429.479C636.889 431.76 634.249 434.994 632.695 438.774C631.14 442.554 630.741 446.71 631.547 450.717C632.352 454.724 634.327 458.402 637.222 461.287C640.117 464.173 643.802 466.135 647.812 466.928C651.821 467.72 655.976 467.306 659.751 465.739C663.525 464.172 666.751 461.521 669.02 458.122C671.289 454.723 672.501 450.727 672.501 446.64C672.495 441.157 670.315 435.9 666.438 432.023C662.561 428.146 657.304 425.965 651.821 425.96" fill="#009CDE"/>
<path fill-rule="evenodd" clip-rule="evenodd" d="M651.781 606.4C647.692 606.392 643.698 605.173 640.302 602.895C636.907 600.618 634.262 597.386 632.703 593.606C631.144 589.827 630.74 585.67 631.543 581.661C632.345 577.652 634.318 573.971 637.212 571.083C640.106 568.195 643.79 566.229 647.801 565.434C651.811 564.64 655.967 565.052 659.744 566.618C663.52 568.184 666.748 570.835 669.018 574.235C671.289 577.635 672.501 581.632 672.501 585.72C672.506 588.437 671.975 591.129 670.937 593.64C669.9 596.152 668.377 598.433 666.455 600.355C664.534 602.276 662.252 603.799 659.741 604.837C657.229 605.874 654.538 606.405 651.821 606.4H651.781ZM651.781 568.22C648.319 568.22 644.936 569.246 642.058 571.169C639.18 573.092 636.937 575.825 635.613 579.023C634.288 582.221 633.942 585.739 634.617 589.134C635.292 592.529 636.959 595.647 639.406 598.094C641.854 600.542 644.972 602.208 648.367 602.884C651.761 603.559 655.28 603.212 658.478 601.888C661.675 600.563 664.408 598.32 666.331 595.442C668.254 592.565 669.281 589.181 669.281 585.72C669.23 581.085 667.409 576.646 664.191 573.31C662.568 571.674 660.634 570.381 658.502 569.506C656.37 568.632 654.085 568.195 651.781 568.22Z" fill="#2B2B2B"/>
<path d="M1375.14 690.81C1375.14 665.191 1367.55 640.146 1353.32 618.844C1339.08 597.541 1318.85 580.938 1295.19 571.132C1271.52 561.327 1245.47 558.76 1220.35 563.757C1195.22 568.754 1172.14 581.09 1154.02 599.205C1135.91 617.319 1123.57 640.399 1118.57 665.526C1113.57 690.652 1116.14 716.697 1125.94 740.366C1135.74 764.035 1152.34 784.266 1173.65 798.499C1194.95 812.733 1219.99 820.33 1245.61 820.33C1279.96 820.33 1312.91 806.684 1337.2 782.395C1361.49 758.105 1375.14 725.161 1375.14 690.81Z" fill="white"/>
<path d="M1365.29 740.385C1392.66 674.293 1361.28 598.522 1295.19 571.146C1229.09 543.77 1153.32 575.155 1125.95 641.247C1098.57 707.339 1129.96 783.11 1196.05 810.486C1262.14 837.862 1337.91 806.477 1365.29 740.385Z" stroke="#2B2B2B" stroke-width="13.08" stroke-miterlimit="10"/>
<path d="M1172.1 577.33C1159.32 718.78 1283.1 669.16 1247.57 826.69L1172.1 577.33Z" fill="white"/>
<path d="M1172.1 577.33C1159.32 718.78 1283.1 669.16 1247.57 826.69" stroke="#2B2B2B" stroke-width="65.39" stroke-miterlimit="10"/>
<path d="M1172.1 577.33C1159.32 718.78 1283.1 669.16 1247.57 826.69" stroke="white" stroke-width="43.59" stroke-miterlimit="10" stroke-linecap="round"/>
<path d="M1192.5 651.28C1204.41 655.64 1217.24 656.849 1229.75 654.791C1242.26 652.732 1254.03 647.476 1263.91 639.531C1273.79 631.587 1281.46 621.223 1286.15 609.446C1290.85 597.669 1292.43 584.878 1290.73 572.312C1289.03 559.747 1284.11 547.834 1276.45 537.728C1268.79 527.622 1258.65 519.667 1247.02 514.634C1235.38 509.6 1222.64 507.659 1210.03 508.999C1197.42 510.338 1185.37 514.913 1175.05 522.28C1161.5 523.7 1157.5 509.12 1157.5 509.12C1145.19 515.98 1141.94 529.12 1156.67 541.12C1148.51 553.236 1144.17 567.514 1144.19 582.12V596.37" fill="white"/>
<path d="M1116.09 690.81C1116.82 724.672 1130.78 756.903 1154.99 780.594C1179.2 804.285 1211.72 817.552 1245.59 817.552C1279.46 817.552 1311.98 804.285 1336.19 780.594C1360.4 756.903 1374.36 724.672 1375.09 690.81" stroke="#2B2B2B" stroke-width="13.08" stroke-miterlimit="10"/>
<path d="M1219.09 746.07C1237.37 735.596 1258.8 732 1279.5 735.93L1284.87 771.18C1267.08 763.8 1241.95 763.27 1223.36 775.18L1219.09 746.07Z" fill="#2B2B2B"/>
<path d="M1271.63 753.59L1287.48 838L1263.23 865.75L1238.98 838L1254.83 753.59" fill="#2B2B2B"/>
<path d="M1271.63 753.59L1287.48 838L1263.23 865.75L1238.98 838L1254.83 753.59" stroke="#2B2B2B" stroke-width="9.81" stroke-linecap="round" stroke-linejoin="round"/>
<path d="M1192.5 651.28C1204.41 655.64 1217.24 656.849 1229.75 654.791C1242.26 652.732 1254.03 647.476 1263.91 639.531C1273.79 631.587 1281.46 621.223 1286.15 609.446C1290.85 597.669 1292.43 584.878 1290.73 572.312C1289.03 559.747 1284.11 547.834 1276.45 537.728C1268.79 527.622 1258.65 519.667 1247.02 514.634C1235.38 509.6 1222.64 507.659 1210.03 508.999C1197.42 510.338 1185.37 514.913 1175.05 522.28C1161.5 523.7 1157.5 509.12 1157.5 509.12C1145.19 515.98 1141.94 529.12 1156.67 541.12C1148.51 553.236 1144.17 567.514 1144.19 582.12V604.83" stroke="#2B2B2B" stroke-width="13.08" stroke-linecap="round" stroke-linejoin="round"/>
<path d="M1207.13 574.65C1207.13 573.164 1206.69 571.712 1205.86 570.477C1205.04 569.242 1203.87 568.28 1202.49 567.711C1201.12 567.143 1199.61 566.994 1198.15 567.284C1196.7 567.574 1195.36 568.289 1194.31 569.339C1193.26 570.39 1192.54 571.728 1192.25 573.185C1191.96 574.641 1192.11 576.151 1192.68 577.524C1193.25 578.896 1194.21 580.069 1195.45 580.894C1196.68 581.719 1198.13 582.16 1199.62 582.16C1201.61 582.16 1203.52 581.368 1204.93 579.96C1206.34 578.552 1207.13 576.641 1207.13 574.65Z" fill="#2B2B2B"/>
<path d="M1207.13 574.65C1207.13 573.164 1206.69 571.712 1205.86 570.477C1205.04 569.242 1203.87 568.28 1202.49 567.711C1201.12 567.143 1199.61 566.994 1198.15 567.284C1196.7 567.574 1195.36 568.289 1194.31 569.339C1193.26 570.39 1192.54 571.728 1192.25 573.185C1191.96 574.641 1192.11 576.151 1192.68 577.524C1193.25 578.896 1194.21 580.069 1195.45 580.894C1196.68 581.719 1198.13 582.16 1199.62 582.16C1201.61 582.16 1203.52 581.368 1204.93 579.96C1206.34 578.552 1207.13 576.641 1207.13 574.65V574.65Z" stroke="#2B2B2B" stroke-width="10.9" stroke-miterlimit="10" stroke-linecap="round"/>
<path d="M1284.21 559.4C1278.84 557.039 1272.97 556.077 1267.13 556.601C1261.29 557.126 1255.68 559.121 1250.82 562.4" stroke="#2B2B2B" stroke-width="13.08" stroke-miterlimit="10" stroke-linecap="round"/>
<path d="M1286.79 561.96C1331.28 623.33 1377.67 691.46 1424.06 787.86C1424.06 787.86 1346.6 716.63 1237.06 627.68" fill="white"/>
<path d="M1286.79 561.96C1331.28 623.33 1377.67 691.46 1424.06 787.86C1424.06 787.86 1346.6 716.63 1237.06 627.68" stroke="#2B2B2B" stroke-width="13.08" stroke-linecap="round" stroke-linejoin="round"/>
</svg>
