<svg width="1920" height="1080" viewBox="0 0 1920 1080" fill="none" xmlns="http://www.w3.org/2000/svg">
<rect width="1920" height="1080" fill="white"/>
<path d="M1598.71 263H1409.71C1392.31 263 1378.21 277.103 1378.21 294.5C1378.21 311.897 1392.31 326 1409.71 326H1598.71C1616.11 326 1630.21 311.897 1630.21 294.5C1630.21 277.103 1616.11 263 1598.71 263Z" fill="white" stroke="#2B2B2B" stroke-width="5.4" stroke-miterlimit="10"/>
<path d="M1485.08 300.13H1479.73L1478.66 304.6H1474.66L1480.14 285.82H1484.9L1490.38 304.6H1486.19L1485.08 300.13ZM1484.28 296.82L1483.87 295.09C1483.39 293.22 1482.87 291 1482.45 289.09H1482.34C1481.91 291.09 1481.46 293.26 1480.97 295.09L1480.54 296.82H1484.28Z" fill="#2B2B2B"/>
<path d="M1493.3 304.16V304.05C1492.9 303.786 1492.58 303.425 1492.36 303.001C1492.15 302.577 1492.04 302.105 1492.06 301.63C1492.09 301.098 1492.24 300.58 1492.5 300.115C1492.77 299.651 1493.13 299.252 1493.57 298.95V298.84C1493 298.4 1492.55 297.836 1492.23 297.191C1491.92 296.545 1491.76 295.837 1491.77 295.12C1491.77 291.7 1494.4 289.97 1497.28 289.97C1497.98 289.957 1498.69 290.072 1499.35 290.31H1504.21V293.39H1502.09C1502.38 293.973 1502.53 294.618 1502.52 295.27C1502.52 298.55 1500.21 300.07 1497.28 300.07C1496.73 300.066 1496.18 299.972 1495.66 299.79C1495.5 299.912 1495.37 300.074 1495.28 300.259C1495.2 300.444 1495.16 300.647 1495.18 300.85C1495.18 301.57 1495.72 301.92 1497.18 301.92H1499.33C1502.61 301.92 1504.41 302.98 1504.41 305.55C1504.41 308.55 1501.53 310.67 1496.96 310.67C1493.84 310.67 1491.37 309.58 1491.37 307.04C1491.4 306.43 1491.59 305.839 1491.93 305.332C1492.27 304.824 1492.75 304.419 1493.3 304.16ZM1497.6 308.02C1499.37 308.02 1500.66 307.24 1500.66 306.26C1500.66 305.28 1499.94 305.14 1498.66 305.14H1497.29C1496.66 305.162 1496.03 305.105 1495.41 304.97C1495.19 305.138 1495.01 305.351 1494.89 305.594C1494.76 305.838 1494.69 306.106 1494.68 306.38C1494.64 307.45 1495.83 308.02 1497.6 308.02ZM1499.11 295.12C1499.11 293.62 1498.33 292.82 1497.28 292.82C1496.23 292.82 1495.45 293.6 1495.45 295.12C1495.45 296.64 1496.23 297.51 1497.28 297.51C1498.33 297.51 1499.11 296.71 1499.11 295.12Z" fill="#2B2B2B"/>
<path d="M1506.16 285.99C1506.15 285.534 1506.27 285.085 1506.51 284.699C1506.75 284.313 1507.11 284.009 1507.52 283.825C1507.94 283.641 1508.4 283.585 1508.85 283.666C1509.3 283.746 1509.71 283.958 1510.04 284.276C1510.37 284.593 1510.59 285.001 1510.69 285.447C1510.78 285.893 1510.74 286.357 1510.57 286.779C1510.4 287.202 1510.11 287.564 1509.73 287.819C1509.35 288.073 1508.91 288.21 1508.45 288.21C1508.15 288.225 1507.85 288.179 1507.57 288.073C1507.29 287.968 1507.04 287.806 1506.82 287.598C1506.61 287.39 1506.44 287.139 1506.32 286.863C1506.21 286.586 1506.15 286.289 1506.16 285.99ZM1506.49 290.31H1510.49V304.6H1506.49V290.31Z" fill="#2B2B2B"/>
<path d="M1513.79 284.41H1517.79V300.3C1517.79 301.2 1518.17 301.48 1518.49 301.48C1518.65 301.486 1518.82 301.469 1518.98 301.43L1519.46 304.57C1518.82 304.822 1518.14 304.938 1517.46 304.91C1514.75 304.91 1513.83 303.01 1513.83 300.13L1513.79 284.41Z" fill="#2B2B2B"/>
<path d="M1526.95 289.97C1530.74 289.97 1532.62 292.97 1532.62 296.82C1532.63 297.42 1532.57 298.02 1532.46 298.61H1524.46C1524.51 299.482 1524.9 300.299 1525.55 300.882C1526.2 301.465 1527.06 301.766 1527.93 301.72C1528.97 301.685 1529.97 301.336 1530.8 300.72L1532.15 303.3C1530.78 304.308 1529.12 304.87 1527.42 304.91C1523.6 304.91 1520.67 302.15 1520.67 297.42C1520.67 292.69 1523.76 289.97 1526.95 289.97ZM1529.26 295.97C1529.26 294.33 1528.62 293.17 1527.03 293.17C1525.8 293.17 1524.72 294.07 1524.45 295.97H1529.26Z" fill="#2B2B2B"/>
<path d="M1410.59 754.62H1221.59C1204.19 754.62 1190.09 768.723 1190.09 786.12C1190.09 803.517 1204.19 817.62 1221.59 817.62H1410.59C1427.99 817.62 1442.09 803.517 1442.09 786.12C1442.09 768.723 1427.99 754.62 1410.59 754.62Z" fill="white" stroke="#2B2B2B" stroke-width="5.4" stroke-miterlimit="10"/>
<path d="M1259.14 777.44H1270.14V781.01H1263.14V784.78H1269.14V788.3H1263.14V792.62H1270.42V796.19H1259.18L1259.14 777.44Z" fill="#2B2B2B"/>
<path d="M1276.48 788.78L1272.64 781.93H1276.88L1278.07 784.23C1278.42 785.04 1278.82 785.87 1279.2 786.68H1279.3C1279.57 785.87 1279.92 785.04 1280.22 784.23L1281.13 781.93H1285.22L1281.35 789.3L1285.46 796.24H1281.21L1279.92 793.88C1279.49 793.07 1279.09 792.21 1278.66 791.4H1278.55C1278.23 792.21 1277.85 793.04 1277.55 793.88L1276.55 796.24H1272.46L1276.48 788.78Z" fill="#2B2B2B"/>
<path d="M1292.65 781.58C1296.44 781.58 1298.32 784.58 1298.32 788.44C1298.33 789.037 1298.27 789.633 1298.16 790.22H1290.16C1290.21 791.092 1290.6 791.909 1291.25 792.492C1291.9 793.075 1292.76 793.376 1293.63 793.33C1294.66 793.31 1295.67 792.979 1296.51 792.38L1297.82 794.94C1296.45 795.953 1294.8 796.518 1293.09 796.56C1289.28 796.56 1286.34 793.79 1286.34 789.07C1286.34 784.35 1289.45 781.58 1292.65 781.58ZM1294.96 787.58C1294.96 785.94 1294.31 784.79 1292.73 784.79C1291.49 784.79 1290.41 785.68 1290.15 787.58H1294.96Z" fill="#2B2B2B"/>
<path d="M1307.28 781.58C1308.01 781.567 1308.73 781.706 1309.4 781.989C1310.07 782.271 1310.68 782.69 1311.18 783.22L1309.38 785.85C1308.89 785.342 1308.22 785.042 1307.52 785.01C1305.61 785.01 1304.4 786.59 1304.4 789.07C1304.4 791.55 1305.67 793.13 1307.4 793.13C1308.29 793.097 1309.14 792.742 1309.79 792.13L1311.38 794.81C1310.17 795.935 1308.59 796.573 1306.94 796.6C1303.23 796.6 1300.35 793.86 1300.35 789.11C1300.35 784.36 1303.6 781.58 1307.28 781.58Z" fill="#2B2B2B"/>
<path d="M1313.34 781.93H1317.29V790.3C1317.29 792.3 1317.8 793.01 1318.96 793.01C1319.96 793.01 1320.55 792.55 1321.33 791.42V781.98H1325.28V796.26H1322.05L1321.76 794.26H1321.68C1321.22 794.964 1320.6 795.545 1319.87 795.953C1319.14 796.361 1318.32 796.583 1317.48 796.6C1314.58 796.6 1313.34 794.41 1313.34 790.84V781.93Z" fill="#2B2B2B"/>
<path d="M1329.35 785.24H1327.53V782.1L1329.53 781.93L1329.99 778.13H1333.27V781.93H1336.46V785.24H1333.27V790.97C1333.27 792.58 1333.94 793.24 1334.99 793.24C1335.42 793.223 1335.85 793.128 1336.25 792.96L1336.87 796.04C1335.91 796.381 1334.89 796.557 1333.87 796.56C1330.56 796.56 1329.27 794.34 1329.27 791.03L1329.35 785.24Z" fill="#2B2B2B"/>
<path d="M1338.88 777.61C1338.87 777.154 1338.99 776.705 1339.23 776.319C1339.47 775.934 1339.83 775.629 1340.24 775.445C1340.66 775.261 1341.12 775.206 1341.57 775.286C1342.02 775.366 1342.44 775.578 1342.76 775.896C1343.09 776.213 1343.32 776.621 1343.41 777.067C1343.5 777.513 1343.46 777.977 1343.29 778.399C1343.12 778.822 1342.83 779.184 1342.45 779.439C1342.07 779.694 1341.63 779.83 1341.17 779.83C1340.87 779.845 1340.57 779.799 1340.29 779.693C1340.01 779.588 1339.76 779.426 1339.54 779.218C1339.33 779.01 1339.16 778.76 1339.04 778.483C1338.93 778.206 1338.87 777.909 1338.88 777.61ZM1339.21 781.93H1343.21V796.21H1339.21V781.93Z" fill="#2B2B2B"/>
<path d="M1352.29 781.58C1355.65 781.58 1358.77 784.32 1358.77 789.07C1358.77 793.82 1355.65 796.56 1352.29 796.56C1348.93 796.56 1345.78 793.82 1345.78 789.07C1345.78 784.32 1348.95 781.58 1352.29 781.58ZM1352.29 793.13C1353.9 793.13 1354.73 791.55 1354.73 789.07C1354.73 786.59 1353.9 785.01 1352.29 785.01C1350.68 785.01 1349.84 786.59 1349.84 789.07C1349.84 791.55 1350.65 793.13 1352.29 793.13Z" fill="#2B2B2B"/>
<path d="M1361.48 781.93H1364.7L1364.97 783.74H1365.08C1365.61 783.106 1366.26 782.588 1366.99 782.216C1367.73 781.844 1368.53 781.628 1369.35 781.58C1372.26 781.58 1373.49 783.77 1373.49 787.34V796.21H1369.49V787.89C1369.49 785.82 1368.98 785.18 1367.85 785.18C1367.36 785.213 1366.89 785.354 1366.46 785.593C1366.03 785.831 1365.66 786.162 1365.38 786.56V796.21H1361.38L1361.48 781.93Z" fill="#2B2B2B"/>
<path d="M654.369 754.62H465.369C447.972 754.62 433.869 768.723 433.869 786.12C433.869 803.517 447.972 817.62 465.369 817.62H654.369C671.766 817.62 685.869 803.517 685.869 786.12C685.869 768.723 671.766 754.62 654.369 754.62Z" fill="white" stroke="#2B2B2B" stroke-width="5.4" stroke-miterlimit="10"/>
<path d="M511.55 790.94C512.711 792.099 514.245 792.808 515.88 792.94C517.52 792.94 518.33 792.25 518.33 791.13C518.33 790.01 517.33 789.57 515.8 788.88L513.52 787.88C512.481 787.488 511.587 786.787 510.957 785.872C510.328 784.957 509.994 783.871 510 782.76C510 779.65 512.58 777.17 516.23 777.17C517.291 777.181 518.338 777.407 519.309 777.833C520.279 778.259 521.154 778.877 521.88 779.65L519.88 782.33C518.898 781.397 517.604 780.862 516.25 780.83C514.88 780.83 514.02 781.46 514.02 782.53C514.02 783.6 515.18 784.08 516.68 784.74L518.94 785.74C519.992 786.102 520.898 786.794 521.523 787.713C522.149 788.632 522.46 789.729 522.41 790.84C522.41 793.95 519.99 796.66 515.8 796.66C513.368 796.642 511.041 795.668 509.32 793.95L511.55 790.94Z" fill="#2B2B2B"/>
<path d="M525.4 785.24H523.58V782.1L525.58 781.93L526.04 778.13H529.32V781.93H532.51V785.24H529.32V790.97C529.32 792.58 529.99 793.24 531.04 793.24C531.473 793.223 531.9 793.128 532.3 792.96L532.92 796.04C531.957 796.381 530.942 796.557 529.92 796.56C526.61 796.56 525.32 794.34 525.32 791.03L525.4 785.24Z" fill="#2B2B2B"/>
<path d="M535.26 781.929H538.49L538.76 784.429H538.86C539.86 782.499 541.28 781.58 542.65 781.58C543.195 781.556 543.738 781.655 544.24 781.87L543.59 785.529C543.123 785.373 542.633 785.295 542.14 785.299C541.14 785.299 539.91 785.989 539.21 787.919V796.209H535.26V781.929Z" fill="#2B2B2B"/>
<path d="M552.95 787.02C552.975 786.74 552.938 786.458 552.841 786.195C552.745 785.931 552.591 785.691 552.392 785.494C552.192 785.296 551.951 785.145 551.687 785.051C551.422 784.957 551.14 784.922 550.86 784.95C549.578 785.041 548.348 785.492 547.31 786.25L545.91 783.45C547.589 782.287 549.569 781.638 551.61 781.58C555.02 781.58 556.91 783.66 556.91 788.03V796.21H553.68L553.38 794.74H553.3C552.292 795.833 550.895 796.487 549.41 796.56C546.99 796.56 545.41 794.66 545.41 792.24C545.49 789.24 547.72 787.6 552.95 787.02ZM550.75 793.27C551.184 793.245 551.607 793.124 551.987 792.915C552.368 792.705 552.697 792.413 552.95 792.06V789.56C550.13 789.96 549.22 790.83 549.22 791.92C549.26 792.84 549.85 793.3 550.79 793.3L550.75 793.27Z" fill="#2B2B2B"/>
<path d="M560.68 785.24H558.85V782.1L560.85 781.93L561.31 778.13H564.59V781.93H567.79V785.24H564.59V790.97C564.59 792.58 565.26 793.24 566.31 793.24C566.746 793.222 567.176 793.128 567.58 792.96L568.19 796.04C567.243 796.378 566.245 796.554 565.24 796.56C561.93 796.56 560.64 794.34 560.64 791.03L560.68 785.24Z" fill="#2B2B2B"/>
<path d="M575.861 781.58C579.651 781.58 581.541 784.58 581.541 788.44C581.55 789.038 581.493 789.635 581.371 790.22H573.371C573.42 791.092 573.813 791.909 574.463 792.492C575.114 793.075 575.969 793.376 576.841 793.33C577.871 793.31 578.872 792.978 579.711 792.38L581.031 794.94C579.658 795.953 578.006 796.518 576.301 796.56C572.481 796.56 569.551 793.79 569.551 789.07C569.551 784.35 572.661 781.58 575.861 781.58ZM578.171 787.58C578.171 785.94 577.531 784.79 575.941 784.79C574.711 784.79 573.631 785.68 573.361 787.58H578.171Z" fill="#2B2B2B"/>
<path d="M585.32 795.78V795.66C584.924 795.396 584.601 795.035 584.384 794.612C584.167 794.188 584.063 793.716 584.08 793.24C584.11 792.71 584.261 792.194 584.521 791.731C584.781 791.268 585.143 790.871 585.58 790.57V790.45C585.016 790.011 584.56 789.448 584.248 788.805C583.936 788.161 583.776 787.455 583.78 786.74C583.78 783.31 586.42 781.58 589.29 781.58C589.996 781.569 590.697 781.688 591.36 781.93H596.23V785.01H594.11C594.403 785.589 594.551 786.231 594.54 786.88C594.54 790.16 592.22 791.69 589.29 791.69C588.741 791.682 588.197 791.584 587.68 791.4C587.519 791.525 587.391 791.688 587.307 791.875C587.223 792.061 587.187 792.266 587.2 792.47C587.2 793.19 587.74 793.53 589.2 793.53H591.35C594.63 793.53 596.44 794.6 596.44 797.16C596.44 800.16 593.56 802.29 588.99 802.29C585.87 802.29 583.4 801.19 583.4 798.66C583.429 798.051 583.623 797.461 583.961 796.953C584.299 796.446 584.769 796.04 585.32 795.78ZM589.62 799.64C591.39 799.64 592.68 798.86 592.68 797.88C592.68 796.9 591.96 796.76 590.68 796.76H589.31C588.678 796.786 588.046 796.725 587.43 796.58C587.214 796.751 587.038 796.966 586.912 797.211C586.786 797.456 586.714 797.725 586.7 798C586.66 799.06 587.84 799.64 589.62 799.64ZM591.12 786.74C591.12 785.24 590.34 784.43 589.29 784.43C588.24 784.43 587.47 785.21 587.47 786.74C587.47 788.27 588.25 789.13 589.29 789.13C590.33 789.13 591.12 788.3 591.12 786.74Z" fill="#2B2B2B"/>
<path d="M600.309 798.46C600.86 798.478 601.399 798.299 601.828 797.954C602.258 797.609 602.549 797.121 602.649 796.58L602.829 795.84L597.699 781.93H601.699L603.609 788.06C603.979 789.36 604.309 790.71 604.609 792.12H604.719C605.019 790.77 605.309 789.42 605.639 788.06L607.249 781.93H611.039L606.419 796.35C605.149 799.95 603.729 801.8 600.579 801.8C599.941 801.807 599.306 801.709 598.699 801.51L599.399 798.28C599.694 798.376 600 798.436 600.309 798.46Z" fill="#2B2B2B"/>
<path d="M1000.47 540.13H874.74" stroke="#6A6A6A" stroke-width="5.4" stroke-linecap="round" stroke-linejoin="round"/>
<path d="M892.501 552.5L880.141 540.13L892.501 527.77" stroke="#6A6A6A" stroke-width="5.4" stroke-linecap="round" stroke-linejoin="round"/>
<path d="M622.74 540.13H497" stroke="#6A6A6A" stroke-width="5.4" stroke-linecap="round" stroke-linejoin="round"/>
<path d="M514.77 552.5L502.4 540.13L514.77 527.77" stroke="#6A6A6A" stroke-width="5.4" stroke-linecap="round" stroke-linejoin="round"/>
<path d="M1378.21 540.13H1252.47" stroke="#6A6A6A" stroke-width="5.4" stroke-linecap="round" stroke-linejoin="round"/>
<path d="M1270.24 552.5L1257.87 540.13L1270.24 527.77" stroke="#6A6A6A" stroke-width="5.4" stroke-linecap="round" stroke-linejoin="round"/>
<path d="M1512.84 627.83V657.83C1512.84 660.078 1513.73 662.233 1515.32 663.823C1516.91 665.413 1519.06 666.308 1521.31 666.31H1666.36C1668.61 666.31 1670.77 665.417 1672.36 663.827C1673.95 662.236 1674.84 660.079 1674.84 657.83V422.83C1674.84 420.583 1673.94 418.429 1672.35 416.841C1670.76 415.252 1668.61 414.36 1666.36 414.36H1521.31C1519.06 414.36 1516.91 415.253 1515.32 416.841C1513.73 418.43 1512.84 420.584 1512.84 422.83V455.07" stroke="#009CDE" stroke-width="2.7" stroke-linecap="round" stroke-linejoin="round" stroke-dasharray="8.1 8.1"/>
<path d="M1501.79 636.78L1503.77 638.62L1512.83 628.87L1521.9 638.62L1523.88 636.78L1512.83 624.9L1501.79 636.78Z" fill="#009CDE"/>
<path d="M1135.29 627.83V657.83C1135.29 660.078 1136.18 662.233 1137.77 663.823C1139.36 665.413 1141.51 666.308 1143.76 666.31H1288.76C1291.01 666.31 1293.17 665.417 1294.76 663.827C1296.35 662.236 1297.24 660.079 1297.24 657.83V422.83C1297.24 420.583 1296.34 418.429 1294.75 416.841C1293.16 415.252 1291.01 414.36 1288.76 414.36H1143.76C1141.51 414.36 1139.36 415.253 1137.77 416.841C1136.18 418.43 1135.29 420.584 1135.29 422.83V455.07" stroke="#009CDE" stroke-width="2.7" stroke-linecap="round" stroke-linejoin="round" stroke-dasharray="8.1 8.1"/>
<path d="M1124.24 636.78L1126.22 638.62L1135.28 628.87L1144.35 638.62L1146.33 636.78L1135.28 624.9L1124.24 636.78Z" fill="#009CDE"/>
<path d="M757.74 627.83V657.83C757.74 660.078 758.632 662.233 760.22 663.823C761.809 665.413 763.963 666.308 766.21 666.31H911.21C912.324 666.31 913.427 666.091 914.455 665.665C915.484 665.239 916.419 664.614 917.207 663.827C917.994 663.039 918.619 662.104 919.045 661.076C919.471 660.047 919.69 658.944 919.69 657.83V422.83C919.688 420.583 918.793 418.429 917.203 416.841C915.613 415.252 913.458 414.36 911.21 414.36H766.21C765.098 414.36 763.997 414.579 762.969 415.005C761.941 415.431 761.008 416.055 760.221 416.841C759.435 417.628 758.811 418.561 758.385 419.589C757.959 420.617 757.74 421.718 757.74 422.83V455.07" stroke="#009CDE" stroke-width="2.7" stroke-linecap="round" stroke-linejoin="round" stroke-dasharray="8.1 8.1"/>
<path d="M746.689 636.78L748.669 638.62L757.729 628.87L766.799 638.62L768.779 636.78L757.729 624.9L746.689 636.78Z" fill="#009CDE"/>
<path d="M1032.1 263H843.1C825.703 263 811.6 277.103 811.6 294.5C811.6 311.897 825.703 326 843.1 326H1032.1C1049.5 326 1063.6 311.897 1063.6 294.5C1063.6 277.103 1049.5 263 1032.1 263Z" fill="white" stroke="#2B2B2B" stroke-width="5.4" stroke-miterlimit="10"/>
<path d="M912.949 295.12C912.949 288.99 916.179 285.48 920.949 285.48C925.719 285.48 928.949 289.02 928.949 295.12C928.949 301.22 925.719 304.94 920.949 304.94C916.179 304.94 912.949 301.3 912.949 295.12ZM924.809 295.12C924.809 291.38 923.309 289.12 920.909 289.12C918.509 289.12 917.009 291.37 917.009 295.12C917.009 298.87 918.509 301.3 920.949 301.3C923.389 301.3 924.799 298.89 924.799 295.12H924.809Z" fill="#2B2B2B"/>
<path d="M932.211 285.82H936.211V293.51H936.321L941.541 285.82H945.891L940.541 293.3L946.811 304.59H942.481L938.211 296.67L936.211 299.55V304.55H932.211V285.82Z" fill="#2B2B2B"/>
<path d="M958.499 304.6L955.139 297.83H952.949V304.6H948.949V285.82H955.269C958.979 285.82 962.019 287.2 962.019 291.67C962.109 292.776 961.865 293.883 961.317 294.848C960.77 295.813 959.945 296.59 958.949 297.08L962.949 304.6H958.499ZM952.949 294.46H954.949C957.019 294.46 958.149 293.51 958.149 291.67C958.149 289.83 957.019 289.19 954.949 289.19H952.949V294.46Z" fill="#2B2B2B"/>
<path d="M622.74 388V360.79C622.738 359.676 622.955 358.572 623.379 357.542C623.804 356.512 624.427 355.576 625.214 354.788C626.001 353.999 626.935 353.373 627.964 352.946C628.993 352.52 630.096 352.3 631.21 352.3H1244C1246.25 352.3 1248.4 353.192 1249.99 354.781C1251.58 356.369 1252.47 358.523 1252.47 360.77V388" stroke="#2B2B2B" stroke-width="5.4" stroke-linecap="round" stroke-linejoin="round"/>
<path d="M937.6 326V352.32" stroke="#2B2B2B" stroke-width="5.4" stroke-linecap="round" stroke-linejoin="round"/>
<path d="M1378.21 388V360.79C1378.21 358.544 1379.1 356.39 1380.69 354.801C1382.28 353.213 1384.43 352.32 1386.68 352.32H1621.68C1623.93 352.32 1626.08 353.212 1627.67 354.801C1629.26 356.389 1630.16 358.543 1630.16 360.79V388" stroke="#2B2B2B" stroke-width="5.4" stroke-linecap="round" stroke-linejoin="round"/>
<path d="M1504.21 326V352.32" stroke="#2B2B2B" stroke-width="5.4" stroke-linecap="round" stroke-linejoin="round"/>
<path d="M1630.21 692.61V719.82C1630.21 722.069 1629.32 724.226 1627.73 725.817C1626.14 727.407 1623.98 728.3 1621.73 728.3H1008.95C1006.7 728.3 1004.54 727.407 1002.95 725.817C1001.36 724.226 1000.47 722.069 1000.47 719.82V692.61" stroke="#2B2B2B" stroke-width="5.4" stroke-linecap="round" stroke-linejoin="round"/>
<path d="M1315.34 754.62V728.3" stroke="#2B2B2B" stroke-width="5.4" stroke-linecap="round" stroke-linejoin="round"/>
<path d="M874.74 692.61V719.82C874.74 722.069 873.847 724.226 872.256 725.817C870.666 727.407 868.509 728.3 866.26 728.3H253.47C251.223 728.298 249.068 727.403 247.48 725.813C245.892 724.223 245 722.068 245 719.82V692.61" stroke="#2B2B2B" stroke-width="5.4" stroke-linecap="round" stroke-linejoin="round"/>
<path d="M559.869 754.62V728.3" stroke="#2B2B2B" stroke-width="5.4" stroke-linecap="round" stroke-linejoin="round"/>
<path d="M488.53 459.31H253.47C248.792 459.31 245 463.102 245 467.78V612.84C245 617.517 248.792 621.31 253.47 621.31H488.53C493.208 621.31 497 617.517 497 612.84V467.78C497 463.102 493.208 459.31 488.53 459.31Z" fill="white" stroke="#2B2B2B" stroke-width="8.1" stroke-miterlimit="10"/>
<path d="M866.27 459.31H631.21C626.532 459.31 622.74 463.102 622.74 467.78V612.84C622.74 617.517 626.532 621.31 631.21 621.31H866.27C870.948 621.31 874.74 617.517 874.74 612.84V467.78C874.74 463.102 870.948 459.31 866.27 459.31Z" fill="white" stroke="#2B2B2B" stroke-width="8.1" stroke-miterlimit="10"/>
<path d="M1244 459.31H1008.94C1004.26 459.31 1000.47 463.102 1000.47 467.78V612.84C1000.47 617.517 1004.26 621.31 1008.94 621.31H1244C1248.68 621.31 1252.47 617.517 1252.47 612.84V467.78C1252.47 463.102 1248.68 459.31 1244 459.31Z" fill="white" stroke="#2B2B2B" stroke-width="8.1" stroke-miterlimit="10"/>
<path d="M1621.74 459.31H1386.68C1382 459.31 1378.21 463.102 1378.21 467.78V612.84C1378.21 617.517 1382 621.31 1386.68 621.31H1621.74C1626.42 621.31 1630.21 617.517 1630.21 612.84V467.78C1630.21 463.102 1626.42 459.31 1621.74 459.31Z" fill="white" stroke="#2B2B2B" stroke-width="8.1" stroke-miterlimit="10"/>
<path d="M265.74 530.54H270.46L273.76 540.03L274.94 543.73H275.06L276.24 540.03L279.44 530.54H284.13V551.66H279.95V543.92C279.95 541.85 280.31 538.77 280.52 536.73H280.4L278.77 541.62L275.77 549.82H274L271 541.62L269.43 536.73H269.31C269.52 538.73 269.85 541.85 269.85 543.92V551.66H265.74V530.54Z" fill="#2B2B2B"/>
<path d="M288.05 530.74C288.034 530.228 288.171 529.724 288.444 529.291C288.716 528.858 289.112 528.516 289.58 528.309C290.048 528.102 290.567 528.04 291.071 528.13C291.574 528.22 292.04 528.458 292.407 528.814C292.775 529.17 293.027 529.628 293.133 530.128C293.239 530.629 293.193 531.15 293.001 531.624C292.809 532.098 292.48 532.504 292.056 532.791C291.632 533.077 291.132 533.23 290.62 533.23C290.284 533.251 289.947 533.202 289.631 533.085C289.315 532.968 289.027 532.787 288.785 532.553C288.543 532.318 288.353 532.036 288.226 531.724C288.1 531.412 288.04 531.077 288.05 530.74ZM288.41 535.6H292.86V551.66H288.41V535.6Z" fill="#2B2B2B"/>
<path d="M297.35 546.84C298.405 547.834 299.773 548.428 301.22 548.52C302.55 548.52 303.13 548 303.13 547.16C303.13 546.09 301.62 545.61 300.07 544.96C298.26 544.21 296.07 542.89 296.07 540.23C296.07 537.23 298.34 535.23 301.82 535.23C303.763 535.254 305.636 535.962 307.11 537.23L305.11 540.08C304.233 539.298 303.122 538.826 301.95 538.74C300.8 538.74 300.25 539.19 300.25 540C300.25 541 301.65 541.43 303.19 542C305.09 542.75 307.19 543.88 307.19 546.83C307.19 549.78 305.04 552.01 301.02 552.01C298.905 551.943 296.877 551.156 295.27 549.78L297.35 546.84Z" fill="#2B2B2B"/>
<path d="M310.801 546.84C311.856 547.834 313.225 548.428 314.671 548.52C316.001 548.52 316.581 548 316.581 547.16C316.581 546.09 315.071 545.61 313.521 544.96C311.711 544.21 309.521 542.89 309.521 540.23C309.521 537.23 311.791 535.23 315.271 535.23C317.214 535.254 319.088 535.962 320.561 537.23L318.561 540.08C317.685 539.287 316.569 538.808 315.391 538.72C314.241 538.72 313.701 539.17 313.701 539.98C313.701 540.98 315.091 541.41 316.631 541.98C318.531 542.73 320.631 543.86 320.631 546.81C320.631 549.76 318.481 551.99 314.461 551.99C312.349 551.923 310.324 551.136 308.721 549.76L310.801 546.84Z" fill="#2B2B2B"/>
<path d="M323.21 530.74C323.195 530.228 323.332 529.724 323.604 529.291C323.877 528.858 324.272 528.516 324.74 528.309C325.208 528.102 325.727 528.04 326.231 528.13C326.735 528.22 327.2 528.458 327.568 528.814C327.935 529.17 328.188 529.628 328.294 530.128C328.4 530.629 328.353 531.15 328.162 531.624C327.97 532.098 327.64 532.504 327.216 532.791C326.792 533.077 326.292 533.23 325.78 533.23C325.444 533.252 325.106 533.204 324.79 533.088C324.473 532.972 324.184 532.791 323.942 532.556C323.7 532.321 323.509 532.038 323.383 531.726C323.257 531.413 323.199 531.077 323.21 530.74ZM323.57 535.6H328.01V551.66H323.57V535.6Z" fill="#2B2B2B"/>
<path d="M338.249 535.21C342.029 535.21 345.539 538.29 345.539 543.63C345.539 548.97 342.029 552.05 338.249 552.05C334.469 552.05 330.949 548.98 330.949 543.63C330.949 538.28 334.439 535.21 338.249 535.21ZM338.249 548.21C340.069 548.21 340.999 546.43 340.999 543.64C340.999 540.85 340.069 539.07 338.249 539.07C336.429 539.07 335.499 540.86 335.499 543.64C335.499 546.42 336.409 548.2 338.249 548.2V548.21Z" fill="#2B2B2B"/>
<path d="M348.561 535.6H352.191L352.491 537.6H352.611C353.201 536.885 353.933 536.3 354.761 535.882C355.589 535.463 356.495 535.221 357.421 535.17C360.691 535.17 362.081 537.63 362.081 541.65V551.65H357.631V542.3C357.631 539.97 357.061 539.3 355.791 539.3C354.521 539.3 353.971 539.85 353.001 540.85V551.7H348.561V535.6Z" fill="#2B2B2B"/>
<path d="M389.049 552.05C387.278 551.616 385.589 550.897 384.049 549.92C382.291 551.326 380.1 552.078 377.849 552.05C373.559 552.05 371.289 549.27 371.289 546.05C371.289 543.05 372.949 541.42 374.889 540.05C374.162 538.699 373.749 537.202 373.679 535.67C373.642 534.949 373.753 534.228 374.007 533.551C374.26 532.875 374.65 532.258 375.151 531.738C375.653 531.219 376.256 530.808 376.923 530.531C377.59 530.255 378.307 530.118 379.029 530.13C379.674 530.079 380.322 530.169 380.93 530.392C381.537 530.614 382.089 530.965 382.549 531.421C383.008 531.877 383.364 532.426 383.592 533.031C383.82 533.637 383.914 534.285 383.869 534.93C383.869 537.68 381.809 539.43 379.759 540.93C380.942 542.364 382.284 543.659 383.759 544.79C384.83 543.263 385.601 541.545 386.029 539.73H390.029C389.331 542.273 388.215 544.682 386.729 546.86C387.789 547.487 388.944 547.936 390.149 548.19L389.049 552.05ZM378.379 548.43C379.28 548.394 380.152 548.099 380.889 547.58C379.359 546.279 377.977 544.814 376.769 543.21C376.384 543.516 376.066 543.899 375.837 544.335C375.608 544.77 375.473 545.249 375.439 545.74C375.437 546.115 375.514 546.487 375.665 546.831C375.815 547.174 376.036 547.483 376.313 547.736C376.59 547.99 376.917 548.182 377.273 548.302C377.629 548.421 378.005 548.465 378.379 548.43ZM377.949 538.19C379.369 537.28 380.459 536.37 380.459 534.95C380.459 533.95 380.039 533.3 379.099 533.3C378.159 533.3 377.319 534.2 377.319 535.66C377.354 536.537 377.569 537.398 377.949 538.19Z" fill="#2B2B2B"/>
<path d="M397.029 530.54H401.749L404.109 540.39C404.709 542.69 405.109 544.83 405.709 547.16H405.829C406.409 544.83 406.829 542.69 407.409 540.39L409.739 530.54H414.269L408.339 551.66H402.949L397.029 530.54Z" fill="#2B2B2B"/>
<path d="M416.2 530.74C416.185 530.228 416.322 529.724 416.594 529.291C416.867 528.858 417.262 528.516 417.73 528.309C418.198 528.102 418.717 528.04 419.221 528.13C419.725 528.22 420.19 528.458 420.558 528.814C420.925 529.17 421.178 529.628 421.284 530.128C421.389 530.629 421.343 531.15 421.152 531.624C420.96 532.098 420.63 532.504 420.206 532.791C419.782 533.077 419.282 533.23 418.77 533.23C418.434 533.251 418.097 533.202 417.781 533.085C417.465 532.968 417.177 532.787 416.935 532.553C416.693 532.318 416.503 532.036 416.377 531.724C416.25 531.412 416.19 531.077 416.2 530.74ZM416.56 535.6H421V551.66H416.56V535.6Z" fill="#2B2B2B"/>
<path d="M425.501 546.84C426.556 547.834 427.925 548.428 429.371 548.52C430.701 548.52 431.281 548 431.281 547.16C431.281 546.09 429.771 545.61 428.221 544.96C426.411 544.21 424.221 542.89 424.221 540.23C424.221 537.23 426.491 535.23 429.971 535.23C431.915 535.254 433.788 535.962 435.261 537.23L433.261 540.08C432.384 539.288 431.269 538.81 430.091 538.72C428.941 538.72 428.391 539.17 428.391 539.98C428.391 540.98 429.791 541.41 431.331 541.98C433.231 542.73 435.381 543.86 435.381 546.81C435.381 549.76 433.231 551.99 429.211 551.99C427.097 551.921 425.069 551.135 423.461 549.76L425.501 546.84Z" fill="#2B2B2B"/>
<path d="M437.951 530.74C437.935 530.228 438.072 529.724 438.344 529.291C438.617 528.858 439.013 528.516 439.481 528.309C439.949 528.102 440.468 528.04 440.971 528.13C441.475 528.22 441.94 528.458 442.308 528.814C442.675 529.17 442.928 529.628 443.034 530.128C443.14 530.629 443.094 531.15 442.902 531.624C442.71 532.098 442.381 532.504 441.957 532.791C441.532 533.077 441.032 533.23 440.521 533.23C440.184 533.252 439.847 533.204 439.53 533.088C439.213 532.972 438.924 532.791 438.682 532.556C438.44 532.321 438.25 532.038 438.124 531.726C437.998 531.413 437.939 531.077 437.951 530.74ZM438.311 535.6H442.751V551.66H438.311V535.6Z" fill="#2B2B2B"/>
<path d="M452.951 535.21C456.731 535.21 460.241 538.29 460.241 543.63C460.241 548.97 456.731 552.05 452.951 552.05C449.171 552.05 445.631 548.98 445.631 543.63C445.631 538.28 449.141 535.21 452.951 535.21ZM452.951 548.21C454.761 548.21 455.701 546.43 455.701 543.64C455.701 540.85 454.761 539.07 452.951 539.07C451.141 539.07 450.201 540.86 450.201 543.64C450.201 546.42 451.111 548.2 452.951 548.2V548.21Z" fill="#2B2B2B"/>
<path d="M463.26 535.6H466.89L467.19 537.6H467.31C467.9 536.885 468.633 536.3 469.461 535.882C470.288 535.463 471.194 535.221 472.12 535.17C475.39 535.17 476.78 537.63 476.78 541.65V551.65H472.33V542.3C472.33 539.97 471.76 539.3 470.49 539.3C469.37 539.3 468.67 539.85 467.7 540.85V551.7H463.26V535.6Z" fill="#2B2B2B"/>
<path d="M682.211 514.3H686.651V535.42H682.211V514.3Z" fill="#2B2B2B"/>
<path d="M693.799 527.11L689.479 519.4H694.259L695.589 521.99C695.979 522.89 696.439 523.83 696.859 524.74H696.949C697.249 523.83 697.649 522.89 697.949 521.99L698.949 519.4H703.539L699.189 527.66L703.819 535.46H699.039L697.589 532.81C697.099 531.9 696.649 530.93 696.159 530.02H696.039C695.679 530.93 695.259 531.87 694.889 532.81L693.709 535.46H689.119L693.799 527.11Z" fill="#2B2B2B"/>
<path d="M706.49 514.3H712.05C718.05 514.3 721.94 517.51 721.94 524.77C721.94 532.03 718.07 535.42 712.3 535.42H706.49V514.3ZM711.78 531.57C715.14 531.57 717.38 529.82 717.38 524.77C717.38 519.72 715.14 518.16 711.78 518.16H710.95V531.57H711.78Z" fill="#2B2B2B"/>
<path d="M725.641 514.3H738.071V518.3H730.071V523.3H736.951V527.3H730.111V535.49H725.671L725.641 514.3Z" fill="#2B2B2B"/>
<path d="M747.141 524.81C747.141 517.91 750.771 513.95 756.091 513.95C761.411 513.95 765.091 517.95 765.091 524.81C765.091 531.67 761.461 535.81 756.091 535.81C750.721 535.81 747.141 531.71 747.141 524.81ZM760.471 524.81C760.471 520.6 758.781 518.07 756.091 518.07C753.401 518.07 751.701 520.6 751.701 524.81C751.701 529.02 753.401 531.74 756.091 531.74C758.781 531.74 760.471 529.05 760.471 524.81Z" fill="#2B2B2B"/>
<path d="M768.77 514.3H773.22V522.95H773.34L779.21 514.3H784.11L778.11 522.73L785.11 535.42H780.24L775.43 526.52L773.13 529.76V535.42H768.68L768.77 514.3Z" fill="#2B2B2B"/>
<path d="M798.321 535.46L794.541 527.85H792.091V535.46H787.641V514.3H794.751C798.921 514.3 802.341 515.86 802.341 520.88C802.341 523.99 800.951 525.97 798.831 526.97L803.311 535.42L798.321 535.46ZM792.091 524.06H794.391C796.721 524.06 797.991 522.99 797.991 520.92C797.991 518.85 796.721 518.13 794.391 518.13H792.091V524.06Z" fill="#2B2B2B"/>
<path d="M806.83 530.64C807.886 531.633 809.254 532.227 810.7 532.32C812.03 532.32 812.61 531.8 812.61 530.96C812.61 529.89 811.1 529.41 809.55 528.76C807.74 528.01 805.55 526.68 805.55 524.03C805.55 521.03 807.82 519.03 811.3 519.03C813.244 519.054 815.117 519.762 816.59 521.03L814.59 523.88C813.714 523.088 812.598 522.61 811.42 522.52C810.27 522.52 809.72 522.97 809.72 523.78C809.72 524.78 811.12 525.21 812.66 525.78C814.56 526.53 816.66 527.66 816.66 530.61C816.66 533.56 814.51 535.79 810.49 535.79C808.376 535.721 806.348 534.935 804.74 533.56L806.83 530.64Z" fill="#2B2B2B"/>
<path d="M693.95 558.86C693.915 553.652 695.298 548.532 697.95 544.05L700.74 545.28C698.648 549.499 697.559 554.145 697.559 558.855C697.559 563.564 698.648 568.21 700.74 572.43L697.95 573.66C695.298 569.181 693.915 564.065 693.95 558.86Z" fill="#2B2B2B"/>
<path d="M713.61 562.84H707.61L706.4 567.84H701.85L708.02 546.72H713.37L719.54 567.84H714.82L713.61 562.84ZM712.71 559.12L712.25 557.17C711.71 555.07 711.16 552.57 710.65 550.37H710.53C710.05 552.61 709.53 555.07 708.99 557.17L708.5 559.12H712.71Z" fill="#2B2B2B"/>
<path d="M721.67 551.8H725.3L725.6 553.8H725.72C726.311 553.086 727.044 552.502 727.871 552.083C728.699 551.665 729.604 551.423 730.53 551.37C733.8 551.37 735.19 553.83 735.19 557.85V567.85H730.75V558.5C730.75 556.17 730.17 555.5 728.9 555.5C727.78 555.5 727.08 556.05 726.12 557.05V567.9H721.67V551.8Z" fill="#2B2B2B"/>
<path d="M738.949 551.8H742.579L742.879 553.8H742.949C743.538 553.085 744.268 552.5 745.095 552.082C745.921 551.664 746.825 551.421 747.749 551.37C751.019 551.37 752.409 553.83 752.409 557.85V567.85H747.969V558.5C747.969 556.17 747.389 555.5 746.119 555.5C744.999 555.5 744.309 556.05 743.339 557.05V567.9H738.949V551.8Z" fill="#2B2B2B"/>
<path d="M756.051 551.8H760.491V561.16C760.491 563.46 761.071 564.16 762.371 564.16C763.491 564.16 764.151 563.64 765.031 562.38V551.8H769.481V567.86H765.851L765.511 565.63H765.421C764.911 566.419 764.214 567.071 763.393 567.528C762.572 567.985 761.651 568.233 760.711 568.25C757.441 568.25 756.051 565.79 756.051 561.77V551.8Z" fill="#2B2B2B"/>
<path d="M781.08 557.53C781.108 557.215 781.066 556.897 780.957 556.599C780.848 556.301 780.675 556.032 780.449 555.809C780.224 555.586 779.952 555.416 779.653 555.311C779.354 555.206 779.035 555.168 778.72 555.2C777.276 555.301 775.89 555.807 774.72 556.66L773.14 553.51C775.031 552.203 777.262 551.473 779.56 551.41C783.4 551.41 785.56 553.74 785.56 558.66V567.86H781.93L781.6 566.21H781.51C780.367 567.422 778.795 568.14 777.13 568.21C774.4 568.21 772.68 566.07 772.68 563.35C772.64 560.02 775.15 558.18 781.08 557.53ZM778.6 564.53C779.089 564.503 779.565 564.367 779.994 564.131C780.423 563.896 780.794 563.568 781.08 563.17V560.35C777.9 560.8 776.87 561.78 776.87 563.01C776.87 564.07 777.54 564.56 778.6 564.56V564.53Z" fill="#2B2B2B"/>
<path d="M789.21 545.16H793.65V563.07C793.65 564.07 794.08 564.4 794.44 564.4C794.614 564.393 794.786 564.36 794.95 564.3L795.49 567.83C794.779 568.118 794.016 568.251 793.25 568.22C790.2 568.22 789.17 566.08 789.17 562.85L789.21 545.16Z" fill="#2B2B2B"/>
<path d="M799.95 558.86C799.998 554.141 798.9 549.481 796.75 545.28L799.53 544.05C802.144 548.546 803.52 553.654 803.52 558.855C803.52 564.056 802.144 569.164 799.53 573.66L796.75 572.43C798.901 568.233 799.999 563.576 799.95 558.86Z" fill="#2B2B2B"/>
<path d="M1057.4 518.36H1051.95V514.36H1067.25V518.36H1061.84V535.46H1057.36L1057.4 518.36Z" fill="#2B2B2B"/>
<path d="M1074.12 519.01C1078.38 519.01 1080.5 522.34 1080.5 526.72C1080.51 527.391 1080.44 528.061 1080.32 528.72H1071.32C1071.38 529.699 1071.82 530.616 1072.55 531.27C1073.28 531.924 1074.24 532.262 1075.22 532.21C1076.38 532.19 1077.51 531.821 1078.46 531.15L1079.94 534.03C1078.39 535.162 1076.54 535.794 1074.62 535.84C1070.32 535.84 1067.03 532.73 1067.03 527.42C1067.03 522.11 1070.52 519.01 1074.12 519.01ZM1076.72 525.78C1076.72 523.93 1075.99 522.64 1074.21 522.64C1072.82 522.64 1071.61 523.64 1071.3 525.78H1076.72Z" fill="#2B2B2B"/>
<path d="M1091.13 525.13C1091.16 524.815 1091.11 524.497 1091 524.201C1090.89 523.904 1090.72 523.635 1090.49 523.413C1090.27 523.19 1090 523.02 1089.7 522.914C1089.4 522.809 1089.08 522.769 1088.77 522.8C1087.33 522.9 1085.94 523.406 1084.77 524.26L1083.2 521.11C1085.09 519.801 1087.31 519.071 1089.61 519.01C1093.45 519.01 1095.61 521.34 1095.61 526.26V535.46H1091.95L1091.61 533.81H1091.52C1090.38 535.022 1088.8 535.74 1087.14 535.81C1084.41 535.81 1082.69 533.68 1082.69 530.95C1082.69 527.62 1085.2 525.78 1091.13 525.13ZM1088.65 532.13C1089.14 532.102 1089.61 531.966 1090.04 531.731C1090.47 531.496 1090.84 531.167 1091.13 530.77V527.95C1087.95 528.4 1086.92 529.38 1086.92 530.61C1086.95 531.67 1087.59 532.16 1088.65 532.16V532.13Z" fill="#2B2B2B"/>
<path d="M1099.32 519.4H1102.95L1103.25 521.47H1103.37C1104.61 520.14 1105.94 519.01 1107.91 519.01C1108.8 518.951 1109.68 519.181 1110.43 519.666C1111.17 520.151 1111.74 520.865 1112.05 521.7C1113.38 520.24 1114.77 519.01 1116.77 519.01C1120.01 519.01 1121.46 521.47 1121.46 525.49V535.49H1117.01V526.1C1117.01 523.77 1116.44 523.1 1115.17 523.1C1114.66 523.175 1114.17 523.351 1113.73 523.617C1113.29 523.883 1112.9 524.234 1112.6 524.65V535.5H1108.15V526.1C1108.15 523.77 1107.58 523.1 1106.31 523.1C1105.81 523.176 1105.32 523.353 1104.88 523.619C1104.45 523.885 1104.07 524.236 1103.77 524.65V535.5H1099.32V519.4Z" fill="#2B2B2B"/>
<path d="M1131.25 524.81C1131.25 517.91 1134.88 513.95 1140.25 513.95C1145.62 513.95 1149.25 517.95 1149.25 524.81C1149.25 531.67 1145.62 535.81 1140.25 535.81C1134.88 535.81 1131.25 531.71 1131.25 524.81ZM1144.59 524.81C1144.59 520.6 1142.9 518.07 1140.21 518.07C1137.52 518.07 1135.82 520.6 1135.82 524.81C1135.82 529.02 1137.51 531.74 1140.21 531.74C1142.91 531.74 1144.59 529.05 1144.59 524.81Z" fill="#2B2B2B"/>
<path d="M1152.89 514.3H1157.33V522.95H1157.46L1163.32 514.3H1168.22L1162.22 522.73L1169.27 535.42H1164.4L1159.59 526.52L1157.29 529.76V535.42H1152.85L1152.89 514.3Z" fill="#2B2B2B"/>
<path d="M1182.44 535.46L1178.65 527.85H1176.21V535.46H1171.76V514.3H1178.87C1183.04 514.3 1186.46 515.86 1186.46 520.88C1186.46 523.99 1185.07 525.97 1182.95 526.97L1187.42 535.42L1182.44 535.46ZM1176.21 524.06H1178.5C1180.83 524.06 1182.1 522.99 1182.1 520.92C1182.1 518.85 1180.83 518.13 1178.5 518.13H1176.21V524.06Z" fill="#2B2B2B"/>
<path d="M1190.95 530.64C1192.01 531.633 1193.37 532.227 1194.82 532.32C1196.15 532.32 1196.72 531.8 1196.72 530.96C1196.72 529.89 1195.21 529.41 1193.72 528.76C1191.9 528.01 1189.72 526.68 1189.72 524.03C1189.72 521.03 1191.98 519.03 1195.46 519.03C1197.41 519.054 1199.28 519.762 1200.76 521.03L1198.76 523.88C1197.88 523.088 1196.76 522.61 1195.58 522.52C1194.43 522.52 1193.89 522.97 1193.89 523.78C1193.89 524.78 1195.28 525.21 1196.82 525.78C1198.73 526.53 1200.88 527.66 1200.88 530.61C1200.88 533.56 1198.73 535.79 1194.71 535.79C1192.6 535.724 1190.57 534.937 1188.96 533.56L1190.95 530.64Z" fill="#2B2B2B"/>
<path d="M1054.21 558.86C1054.18 553.652 1055.56 548.532 1058.21 544.05L1060.95 545.3C1058.86 549.521 1057.78 554.166 1057.78 558.875C1057.78 563.583 1058.86 568.228 1060.95 572.45L1058.17 573.68C1055.53 569.191 1054.16 564.068 1054.21 558.86Z" fill="#2B2B2B"/>
<path d="M1081.73 572.95C1080.64 573.443 1079.45 573.675 1078.25 573.63C1076.43 573.684 1074.63 573.176 1073.11 572.174C1071.58 571.172 1070.4 569.725 1069.73 568.03C1065.52 567.09 1062.8 563.17 1062.8 557.21C1062.8 550.31 1066.43 546.35 1071.75 546.35C1077.07 546.35 1080.75 550.35 1080.75 557.21C1080.75 562.88 1078.3 566.7 1074.49 567.86C1074.98 568.533 1075.64 569.07 1076.4 569.419C1077.15 569.769 1077.99 569.921 1078.82 569.86C1079.57 569.866 1080.3 569.734 1081 569.47L1081.73 572.95ZM1071.73 564.36C1074.42 564.36 1076.12 561.71 1076.12 557.21C1076.12 552.99 1074.42 550.47 1071.73 550.47C1069.04 550.47 1067.35 552.99 1067.35 557.21C1067.37 561.71 1069.06 564.36 1071.75 564.36H1071.73Z" fill="#2B2B2B"/>
<path d="M1083.95 551.8H1088.39V561.16C1088.39 563.46 1088.97 564.16 1090.27 564.16C1091.38 564.16 1092.05 563.64 1092.93 562.38V551.8H1097.37V567.86H1093.74L1093.41 565.63H1093.32C1092.81 566.437 1092.11 567.104 1091.27 567.57C1090.44 568.037 1089.5 568.287 1088.55 568.3C1085.29 568.3 1083.9 565.84 1083.9 561.82L1083.95 551.8Z" fill="#2B2B2B"/>
<path d="M1108.95 557.53C1108.85 556.1 1108.19 555.2 1106.59 555.2C1105.15 555.304 1103.76 555.81 1102.59 556.66L1101.02 553.51C1102.91 552.203 1105.13 551.473 1107.43 551.41C1111.27 551.41 1113.43 553.74 1113.43 558.66V567.86H1109.8L1109.47 566.21H1109.38C1108.23 567.425 1106.66 568.143 1104.99 568.21C1102.27 568.21 1100.55 566.07 1100.55 563.35C1100.49 560.02 1103 558.18 1108.95 557.53ZM1106.47 564.53C1106.96 564.505 1107.43 564.373 1107.86 564.143C1108.29 563.913 1108.66 563.591 1108.95 563.2V560.38C1105.77 560.83 1104.74 561.81 1104.74 563.04C1104.72 564.07 1105.39 564.56 1106.45 564.56L1106.47 564.53Z" fill="#2B2B2B"/>
<path d="M1117.12 551.8H1120.75L1121.05 554.61H1121.17C1122.26 552.44 1123.89 551.41 1125.43 551.41C1126.04 551.384 1126.65 551.493 1127.22 551.73L1126.49 555.85C1125.96 555.674 1125.41 555.586 1124.86 555.59C1123.74 555.59 1122.35 556.36 1121.56 558.53V567.86H1117.12V551.8Z" fill="#2B2B2B"/>
<path d="M1130.61 555.52H1128.55V551.99L1130.85 551.8L1131.36 547.52H1135.05V551.8H1138.65V555.52H1135.05V561.97C1135.05 563.78 1135.81 564.53 1136.99 564.53C1137.48 564.506 1137.96 564.395 1138.41 564.2L1139.11 567.67C1138.04 568.047 1136.92 568.243 1135.78 568.25C1132.06 568.25 1130.61 565.76 1130.61 562.03V555.52Z" fill="#2B2B2B"/>
<path d="M1147.66 551.41C1151.92 551.41 1154.04 554.74 1154.04 559.12C1154.05 559.791 1153.99 560.461 1153.86 561.12H1144.86C1144.92 562.1 1145.36 563.017 1146.1 563.671C1146.83 564.324 1147.79 564.662 1148.77 564.61C1149.93 564.59 1151.06 564.217 1152 563.54L1153.48 566.43C1151.93 567.564 1150.08 568.196 1148.16 568.24C1143.87 568.24 1140.57 565.13 1140.57 559.82C1140.57 554.51 1144.06 551.41 1147.66 551.41ZM1150.26 558.18C1150.26 556.33 1149.53 555.04 1147.75 555.04C1146.36 555.04 1145.15 556.04 1144.84 558.18H1150.26Z" fill="#2B2B2B"/>
<path d="M1157.12 551.8H1160.75L1161.05 554.61H1161.17C1162.26 552.44 1163.9 551.41 1165.44 551.41C1166.05 551.383 1166.66 551.492 1167.22 551.73L1166.5 555.85C1165.97 555.674 1165.42 555.587 1164.86 555.59C1163.74 555.59 1162.35 556.36 1161.57 558.53V567.86H1157.12V551.8Z" fill="#2B2B2B"/>
<path d="M1169.26 545.16H1173.7V563.07C1173.7 564.07 1174.12 564.4 1174.49 564.4C1174.67 564.408 1174.86 564.384 1175.03 564.33L1175.58 567.86C1174.87 568.147 1174.11 568.28 1173.34 568.25C1170.28 568.25 1169.26 566.11 1169.26 562.88V545.16Z" fill="#2B2B2B"/>
<path d="M1178.95 570.39C1179.57 570.412 1180.17 570.211 1180.66 569.824C1181.14 569.437 1181.47 568.889 1181.58 568.28L1181.79 567.44L1176.01 551.8H1180.49L1182.64 558.7C1183.06 560.15 1183.42 561.7 1183.82 563.26H1183.95C1184.28 561.74 1184.61 560.26 1184.95 558.7L1186.76 551.8H1191.03L1185.82 568.03C1184.4 572.03 1182.82 574.15 1179.26 574.15C1178.54 574.162 1177.82 574.05 1177.14 573.82L1177.93 570.2C1178.26 570.299 1178.6 570.363 1178.95 570.39Z" fill="#2B2B2B"/>
<path d="M1195.16 558.86C1195.21 554.147 1194.11 549.492 1191.95 545.3L1194.73 544.07C1197.34 548.567 1198.72 553.675 1198.72 558.875C1198.72 564.076 1197.34 569.184 1194.73 573.68L1191.95 572.43C1194.11 568.235 1195.21 563.577 1195.16 558.86Z" fill="#2B2B2B"/>
<path d="M1473.21 534.56H1467.79V530.56H1483.09V534.56H1477.68V551.66H1473.21V534.56Z" fill="#2B2B2B"/>
<path d="M1491.44 541.3C1491.47 540.984 1491.43 540.666 1491.32 540.368C1491.21 540.071 1491.03 539.801 1490.81 539.579C1490.58 539.356 1490.31 539.186 1490.01 539.081C1489.71 538.975 1489.39 538.937 1489.08 538.97C1487.64 539.07 1486.25 539.576 1485.08 540.43L1483.51 537.28C1485.4 535.971 1487.62 535.241 1489.92 535.18C1493.76 535.18 1495.92 537.51 1495.92 542.43V551.63H1492.29L1491.95 549.98H1491.86C1490.72 551.192 1489.14 551.91 1487.48 551.98C1484.76 551.98 1483.03 549.85 1483.03 547.12C1483 543.82 1485.51 541.98 1491.44 541.3ZM1488.96 548.3C1489.45 548.273 1489.93 548.137 1490.35 547.902C1490.78 547.666 1491.15 547.338 1491.44 546.94V544.12C1488.27 544.58 1487.24 545.55 1487.24 546.78C1487.24 547.87 1487.95 548.36 1488.95 548.36L1488.96 548.3Z" fill="#2B2B2B"/>
<path d="M1500.27 546.84C1501.32 547.834 1502.69 548.428 1504.14 548.52C1505.47 548.52 1506.04 548 1506.04 547.16C1506.04 546.09 1504.53 545.61 1503.04 544.96C1501.22 544.21 1499.04 542.89 1499.04 540.23C1499.04 537.23 1501.31 535.23 1504.78 535.23C1506.73 535.254 1508.6 535.962 1510.08 537.23L1508.08 540.08C1507.2 539.288 1506.08 538.81 1504.9 538.72C1503.76 538.72 1503.21 539.17 1503.21 539.98C1503.21 540.98 1504.6 541.41 1506.14 541.98C1508.05 542.73 1510.2 543.86 1510.2 546.81C1510.2 549.76 1508.05 551.99 1504.03 551.99C1501.91 551.924 1499.89 551.138 1498.28 549.76L1500.27 546.84Z" fill="#2B2B2B"/>
<path d="M1513.07 528.96H1517.4V541.96H1517.52L1522.27 535.58H1527.11L1521.84 542.19L1527.5 551.64H1522.69L1519.3 545.39L1517.4 547.69V551.64H1513.07V528.96Z" fill="#2B2B2B"/>
<path d="M1530.61 546.84C1531.66 547.834 1533.03 548.428 1534.48 548.52C1535.82 548.52 1536.39 548 1536.39 547.16C1536.39 546.09 1534.88 545.61 1533.33 544.96C1531.52 544.21 1529.33 542.89 1529.33 540.23C1529.33 537.23 1531.6 535.23 1535.08 535.23C1537.02 535.254 1538.9 535.962 1540.37 537.23L1538.37 540.08C1537.49 539.288 1536.37 538.81 1535.19 538.72C1534.04 538.72 1533.5 539.17 1533.5 539.98C1533.5 540.98 1534.89 541.41 1536.43 541.98C1538.34 542.73 1540.43 543.86 1540.43 546.81C1540.43 549.76 1538.29 551.99 1534.26 551.99C1532.15 551.923 1530.12 551.136 1528.52 549.76L1530.61 546.84Z" fill="#2B2B2B"/>
</svg>
