<svg width="1920" height="1080" viewBox="0 0 1920 1080" fill="none" xmlns="http://www.w3.org/2000/svg">
<rect width="1920" height="1080" fill="white"/>
<mask id="mask0" style="mask-type:alpha" maskUnits="userSpaceOnUse" x="393" y="75" width="1134" height="953">
<rect x="1527" y="1028" width="1134" height="953" transform="rotate(180 1527 1028)" fill="url(#paint0_linear)"/>
</mask>
<g mask="url(#mask0)">
<path d="M630.643 104.18H654.643C668.283 104.18 679.973 108.86 679.973 124.64C679.973 133.7 675.883 139.64 669.743 142.96L683.483 167.51H664.743L653.833 146.27H647.403V167.51H630.643V104.18ZM653.443 133.02C660.073 133.02 663.583 130.1 663.583 124.64C663.583 119.18 660.073 117.43 653.443 117.43H647.443V133.02H653.443Z" fill="#2B2B2B"/>
<path d="M687.133 143.15C687.133 127.37 698.633 117.63 710.523 117.63C724.933 117.63 731.753 128.15 731.753 141.21C731.762 143.56 731.534 145.905 731.073 148.21H703.333C704.883 154.06 709.173 156.01 714.633 156.01C718.206 155.925 721.696 154.916 724.763 153.08L730.023 163.02C724.782 166.574 718.624 168.537 712.293 168.67C698.063 168.68 687.133 159.33 687.133 143.15ZM717.533 137.31C717.533 133.61 715.973 130.31 710.903 130.31C707.203 130.31 704.083 132.46 703.113 137.31H717.533Z" fill="#2B2B2B"/>
<path d="M740.932 150.33V99.7002H757.692V150.95C757.692 154.26 759.252 155.24 760.422 155.24C761.012 155.262 761.602 155.195 762.172 155.04L764.132 167.33C761.525 168.331 758.742 168.793 755.952 168.69C744.632 168.68 740.932 161.33 740.932 150.33Z" fill="#2B2B2B"/>
<path d="M767.432 143.15C767.432 127.37 778.932 117.63 790.812 117.63C805.232 117.63 812.052 128.15 812.052 141.21C812.061 143.56 811.833 145.905 811.372 148.21H783.602C785.162 154.06 789.452 156.01 794.912 156.01C798.485 155.925 801.975 154.916 805.042 153.08L810.302 163.02C805.06 166.573 798.903 168.535 792.572 168.67C778.342 168.68 767.432 159.33 767.432 143.15ZM797.832 137.33C797.832 133.63 796.272 130.33 791.202 130.33C787.502 130.33 784.382 132.48 783.412 137.33H797.832Z" fill="#2B2B2B"/>
<path d="M818.291 153.68C818.291 143.54 826.081 137.89 844.791 135.94C844.401 132.44 842.251 130.88 837.971 130.88C834.461 130.88 830.761 132.05 825.691 134.78L819.851 124.06C826.671 119.97 833.681 117.63 841.281 117.63C853.951 117.63 861.551 124.45 861.551 140.43V167.51H847.911L846.741 162.83H846.351C842.451 166.34 838.161 168.68 832.901 168.68C823.741 168.68 818.291 161.67 818.291 153.68ZM844.791 152.51V145.88C836.791 147.05 834.261 149.58 834.261 152.31C834.261 154.55 835.821 155.82 838.751 155.82C841.471 155.82 843.031 154.46 844.791 152.51Z" fill="#2B2B2B"/>
<path d="M868.562 161.33L875.562 151.97C879.035 154.804 883.362 156.382 887.843 156.45C891.353 156.45 892.713 155.45 892.713 153.53C892.713 151 888.913 150.02 883.713 148.08C876.893 145.54 871.242 140.87 871.242 133.46C871.242 123.91 879.033 117.68 890.533 117.68C897.083 117.61 903.441 119.892 908.453 124.11L901.453 133.46C898.486 131.192 894.866 129.943 891.133 129.9C888.213 129.9 886.852 130.9 886.852 132.63C886.852 134.78 889.182 135.75 895.422 137.7C902.822 140.04 908.283 144.7 908.283 152.51C908.283 161.67 901.072 168.68 887.432 168.68C880.456 168.615 873.745 166.001 868.562 161.33Z" fill="#2B2B2B"/>
<path d="M913.963 143.15C913.963 127.37 925.463 117.63 937.343 117.63C951.763 117.63 958.583 128.15 958.583 141.21C958.592 143.56 958.364 145.905 957.903 148.21H930.133C931.693 154.06 935.983 156.01 941.433 156.01C945.009 155.926 948.503 154.917 951.573 153.08L956.833 163.02C951.601 166.571 945.455 168.537 939.133 168.68C924.873 168.68 913.963 159.33 913.963 143.15ZM944.363 137.31C944.363 133.61 942.803 130.31 937.733 130.31C934.033 130.31 930.913 132.46 929.943 137.31H944.363Z" fill="#2B2B2B"/>
<path d="M988.592 104.18H1011.78C1025.61 104.18 1037.5 109.25 1037.5 125.23C1037.5 140.72 1025.42 147.44 1012.17 147.44H1005.35V167.51H988.592V104.18ZM1011.39 134.18C1018.01 134.18 1021.13 130.87 1021.13 125.18C1021.13 119.49 1017.43 117.38 1011 117.38H1005.35V134.14L1011.39 134.18Z" fill="#2B2B2B"/>
<path d="M1046.46 150.33V99.7002H1063.22V150.95C1063.22 154.26 1064.77 155.24 1065.94 155.24C1066.54 155.263 1067.13 155.195 1067.7 155.04L1069.65 167.32C1067.04 168.319 1064.26 168.782 1061.46 168.68C1050.13 168.68 1046.46 161.33 1046.46 150.33Z" fill="#2B2B2B"/>
<path d="M1073.54 153.68C1073.54 143.54 1081.34 137.89 1100.04 135.94C1099.65 132.44 1097.51 130.88 1093.22 130.88C1089.71 130.88 1086.01 132.05 1080.95 134.78L1075.13 124.06C1081.95 119.97 1088.97 117.63 1096.57 117.63C1109.23 117.63 1116.83 124.45 1116.83 140.43V167.51H1103.13L1101.96 162.83H1101.57C1097.67 166.34 1093.39 168.68 1088.13 168.68C1079 168.68 1073.54 161.67 1073.54 153.68ZM1100.04 152.51V145.88C1092.04 147.05 1089.52 149.58 1089.52 152.31C1089.52 154.55 1091.08 155.82 1094 155.82C1096.73 155.82 1098.29 154.46 1100.04 152.51Z" fill="#2B2B2B"/>
<path d="M1127.71 118.8H1141.35L1142.52 124.64H1142.91C1146.81 120.94 1151.68 117.64 1158.3 117.64C1169.02 117.64 1173.5 125.43 1173.5 137.51V167.51H1156.75V139.65C1156.75 133.41 1155.19 131.85 1151.87 131.85C1148.76 131.85 1147 133.22 1144.47 135.56V167.56H1127.71V118.8Z" fill="#2B2B2B"/>
<path d="M1184.41 118.8H1198.05L1199.22 124.64H1199.61C1203.51 120.94 1208.38 117.64 1215.01 117.64C1225.72 117.64 1230.2 125.43 1230.2 137.51V167.51H1213.45V139.65C1213.45 133.41 1211.89 131.85 1208.58 131.85C1205.46 131.85 1203.7 133.22 1201.17 135.56V167.56H1184.41V118.8Z" fill="#2B2B2B"/>
<path d="M1240.34 104.38C1240.34 99.31 1244.04 96 1249.49 96C1254.94 96 1258.65 99.31 1258.65 104.38C1258.65 109.45 1254.95 112.76 1249.49 112.76C1244.03 112.76 1240.34 109.44 1240.34 104.38ZM1241.11 118.8H1257.87V167.51H1241.13L1241.11 118.8Z" fill="#2B2B2B"/>
<path d="M1269.13 118.8H1282.77L1283.94 124.64H1284.33C1288.23 120.94 1293.1 117.64 1299.73 117.64C1310.44 117.64 1314.92 125.43 1314.92 137.51V167.51H1298.17V139.65C1298.17 133.41 1296.61 131.85 1293.3 131.85C1290.18 131.85 1288.42 133.22 1285.89 135.56V167.56H1269.13V118.8Z" fill="#2B2B2B"/>
<path d="M1323.13 175.5C1323.13 171.5 1325.47 168.5 1329.95 166.15V165.76C1328.54 164.871 1327.39 163.631 1326.6 162.162C1325.82 160.693 1325.43 159.045 1325.47 157.38C1325.47 154.07 1327.61 150.56 1330.92 148.22V147.83C1328.89 146.448 1327.22 144.589 1326.07 142.416C1324.91 140.243 1324.31 137.82 1324.3 135.36C1324.3 123.28 1334.43 117.63 1345.15 117.63C1347.79 117.608 1350.42 118.003 1352.94 118.8H1371.13V130.88H1364.13C1364.64 132.518 1364.91 134.224 1364.91 135.94C1364.91 147.44 1356.14 152.12 1345.23 152.12C1343.39 152.096 1341.56 151.868 1339.77 151.44C1339.35 151.767 1339.02 152.199 1338.81 152.694C1338.61 153.189 1338.53 153.728 1338.6 154.26C1338.6 156.4 1340.55 157.18 1345.42 157.18H1352.73C1364.91 157.18 1371.92 160.89 1371.92 169.85C1371.92 180.37 1361.01 187.58 1343.67 187.58C1332.5 187.58 1323.13 184.27 1323.13 175.5ZM1355.86 172.77C1355.86 170.24 1353.53 169.85 1349.34 169.85H1345.54C1343.19 169.97 1340.84 169.775 1338.54 169.27C1338.02 169.693 1337.59 170.224 1337.29 170.829C1336.98 171.433 1336.82 172.095 1336.79 172.77C1336.79 175.89 1340.68 177.25 1346.34 177.25C1351.79 177.25 1355.88 175.5 1355.88 172.77H1355.86ZM1350.43 135.33C1350.43 130.85 1348.28 128.71 1345.17 128.71C1342.06 128.71 1339.91 130.85 1339.91 135.33C1339.91 140.01 1342.05 142.15 1345.17 142.15C1348.29 142.15 1350.43 140.04 1350.43 135.33Z" fill="#2B2B2B"/>
<path d="M694.072 276.43L702.842 265.52C707.262 269.085 712.745 271.073 718.422 271.17C723.492 271.17 725.632 269.52 725.632 266.69C725.632 263.69 722.422 262.69 717.062 260.55L709.132 257.24C702.312 254.51 696.372 248.77 696.372 239.61C696.372 228.79 706.112 219.93 719.942 219.93C727.69 219.911 735.171 222.761 740.942 227.93L732.172 238.84C727.882 235.92 723.602 234.36 719.892 234.36C715.802 234.36 713.272 235.82 713.272 238.64C713.272 241.64 716.872 242.74 722.622 244.98L730.322 247.98C738.212 251.09 742.692 256.55 742.692 265.32C742.692 276.04 733.692 285.58 717.952 285.58C709.116 285.69 700.572 282.417 694.072 276.43Z" fill="#2B2B2B"/>
<path d="M751.553 235.71H765.193L766.363 240.19H766.753C770.353 236.88 775.133 234.54 780.003 234.54C791.503 234.54 798.903 244.28 798.903 259.29C798.903 276.05 788.963 285.59 778.633 285.59C776.58 285.553 774.556 285.103 772.682 284.266C770.807 283.43 769.121 282.223 767.723 280.72L768.313 288.13V301.57H751.553V235.71ZM781.753 259.48C781.753 251.48 779.413 248.18 774.933 248.18C772.403 248.18 770.453 249.18 768.313 251.69V269.62C770.016 271.164 772.245 271.997 774.543 271.95C778.443 271.95 781.753 268.84 781.753 259.48Z" fill="#2B2B2B"/>
<path d="M808.062 235.71H821.703L822.872 244.09H823.253C826.863 237.46 832.323 234.54 837.093 234.54C839.141 234.441 841.187 234.782 843.093 235.54L839.973 249.76C838.317 249.353 836.617 249.158 834.913 249.18C831.403 249.18 827.113 251.32 824.773 257.36V284.44H808.062V235.71Z" fill="#2B2B2B"/>
<path d="M848.002 221.33C848.002 216.27 851.702 212.95 857.162 212.95C862.622 212.95 866.322 216.27 866.322 221.33C866.322 226.39 862.622 229.71 857.162 229.71C851.702 229.71 848.002 226.33 848.002 221.33ZM848.782 235.75H865.542V284.46H848.782V235.75Z" fill="#2B2B2B"/>
<path d="M876.842 235.71H890.482L891.652 241.56H892.042C895.942 237.85 900.812 234.56 907.432 234.56C918.152 234.56 922.632 242.36 922.632 254.44V284.44H905.872V256.56C905.872 250.32 904.312 248.77 901.002 248.77C897.882 248.77 896.132 250.13 893.602 252.47V284.42H876.842V235.71Z" fill="#2B2B2B"/>
<path d="M935.682 265.72V248.77H929.252V236.33L936.662 235.74L938.662 221.13H952.492V235.74H963.602V248.8H952.442V265.43C952.442 270.78 955.172 272.54 958.292 272.54C959.74 272.564 961.184 272.365 962.572 271.95L965.132 283.64C961.449 284.985 957.552 285.646 953.632 285.59C940.952 285.59 935.682 277.6 935.682 265.72Z" fill="#2B2B2B"/>
<path d="M993.361 221.1H1017.36C1031 221.1 1042.69 225.77 1042.69 241.56C1042.69 250.62 1038.6 256.56 1032.46 259.87L1046.13 284.42H1027.46L1016.55 263.18H1010.13V284.42H993.361V221.1ZM1016.13 249.93C1022.75 249.93 1026.26 247.01 1026.26 241.56C1026.26 236.11 1022.78 234.33 1016.13 234.33H1010.13V249.93H1016.13Z" fill="#2B2B2B"/>
<path d="M1049.87 260.07C1049.87 244.28 1061.37 234.54 1073.25 234.54C1087.67 234.54 1094.49 245.06 1094.49 258.12C1094.5 260.47 1094.27 262.815 1093.81 265.12H1066.04C1067.6 270.97 1071.89 272.92 1077.34 272.92C1080.92 272.836 1084.41 271.83 1087.48 270L1092.74 279.93C1087.5 283.483 1081.34 285.446 1075.01 285.58C1060.78 285.59 1049.87 276.24 1049.87 260.07ZM1080.27 254.22C1080.27 250.52 1078.71 247.22 1073.64 247.22C1069.94 247.22 1066.82 249.36 1065.85 254.22H1080.27Z" fill="#2B2B2B"/>
<path d="M1098.19 235.71H1114.95L1120.21 256.95C1121.38 261.823 1122.55 266.89 1123.72 272.15H1124.11C1125.28 266.89 1126.45 261.823 1127.61 256.95L1132.88 235.71H1148.88L1133.49 284.42H1114.13L1098.19 235.71Z" fill="#2B2B2B"/>
<path d="M1154.89 221.33C1154.89 216.27 1158.6 212.95 1164.05 212.95C1169.5 212.95 1173.21 216.27 1173.21 221.33C1173.21 226.39 1169.51 229.71 1164.05 229.71C1158.59 229.71 1154.89 226.33 1154.89 221.33ZM1155.67 235.75H1172.43V284.46H1155.67V235.75Z" fill="#2B2B2B"/>
<path d="M1181.2 260.07C1181.2 244.28 1192.7 234.54 1204.58 234.54C1219 234.54 1225.82 245.06 1225.82 258.12C1225.83 260.47 1225.6 262.815 1225.14 265.12H1197.37C1198.93 270.97 1203.22 272.92 1208.67 272.92C1212.25 272.836 1215.74 271.83 1218.81 270L1224.07 279.93C1218.83 283.483 1212.67 285.446 1206.34 285.58C1192.13 285.59 1181.2 276.24 1181.2 260.07ZM1211.6 254.22C1211.6 250.52 1210.04 247.22 1204.97 247.22C1201.27 247.22 1198.15 249.36 1197.18 254.22H1211.6Z" fill="#2B2B2B"/>
<path d="M1230.69 235.71H1247.25L1250.96 256.17C1251.74 261.04 1252.13 265.91 1252.9 270.98H1253.29C1254.07 265.91 1254.85 260.85 1256.02 256.17L1260.5 235.71H1274.73L1279.4 256.17C1280.57 261.04 1281.4 265.91 1282.33 270.98H1282.72C1283.5 265.91 1283.89 261.04 1284.72 256.17L1288.42 235.71H1303.81L1292.7 284.42H1273.13L1269.62 267.47C1268.84 262.99 1268.06 258.47 1267.28 253.15H1266.89C1266.11 258.51 1265.53 262.99 1264.75 267.47L1261.44 284.42H1242.34L1230.69 235.71Z" fill="#2B2B2B"/>
<path d="M564.002 338.01H586.802C600.052 338.01 610.802 341.32 610.802 353.79C610.802 359.25 607.682 365.48 602.802 367.43V367.82C608.802 369.58 613.712 374.25 613.712 382.63C613.712 395.69 602.412 401.34 588.772 401.34H564.002V338.01ZM586.412 362.76C591.872 362.76 594.412 360.22 594.412 356.33C594.412 352.44 591.882 350.87 586.412 350.87H580.762V362.76H586.412ZM587.582 388.48C594.212 388.48 597.322 386.14 597.322 381.48C597.322 376.82 594.212 375.05 587.582 375.05H580.762V388.5L587.582 388.48Z" fill="#2B2B2B"/>
<path d="M620.322 387.5C620.322 377.37 628.112 371.72 646.822 369.77C646.432 366.26 644.292 364.71 640.002 364.71C636.492 364.71 632.792 365.87 627.722 368.6L621.882 357.89C628.702 353.79 635.712 351.46 643.312 351.46C655.982 351.46 663.582 358.28 663.582 374.25V401.33H649.942L648.772 396.65H648.382C644.482 400.16 640.192 402.5 634.932 402.5C625.772 402.51 620.322 395.49 620.322 387.5ZM646.822 386.33V379.71C638.822 380.88 636.302 383.41 636.302 386.14C636.302 388.38 637.852 389.65 640.782 389.65C643.512 389.65 645.062 388.33 646.822 386.33Z" fill="#2B2B2B"/>
<path d="M671.951 376.98C671.951 360.81 684.231 351.46 698.061 351.46C703.262 351.362 708.32 353.161 712.291 356.52L704.491 366.85C702.959 365.582 701.03 364.892 699.041 364.9C692.801 364.9 689.101 369.58 689.101 376.98C689.101 384.38 693.191 389.06 698.451 389.06C701.284 389.052 704.032 388.09 706.251 386.33L712.681 396.86C707.811 401.14 701.571 402.51 696.511 402.51C682.671 402.51 671.951 393.15 671.951 376.98Z" fill="#2B2B2B"/>
<path d="M720.473 333.53H737.033V369.38H737.423L750.483 352.62H768.803L751.653 373.08L769.773 401.33H751.653L741.913 383.99L737.033 389.44V401.33H720.473V333.53Z" fill="#2B2B2B"/>
<path d="M775.812 384.19V333.53H792.573V384.78C792.573 388.09 794.132 389.06 795.302 389.06C795.892 389.081 796.481 389.017 797.052 388.87L799.052 401.14C796.443 402.145 793.657 402.611 790.862 402.51C779.512 402.51 775.812 395.1 775.812 384.19Z" fill="#2B2B2B"/>
<path d="M802.312 376.98C802.312 360.81 814.003 351.46 826.473 351.46C838.943 351.46 850.633 360.81 850.633 376.98C850.633 393.15 838.943 402.51 826.473 402.51C814.003 402.51 802.312 393.15 802.312 376.98ZM833.492 376.98C833.492 369.58 831.492 364.9 826.492 364.9C821.492 364.9 819.492 369.58 819.492 376.98C819.492 384.38 821.432 389.06 826.492 389.06C831.552 389.06 833.492 384.39 833.492 376.98Z" fill="#2B2B2B"/>
<path d="M856.672 409.33C856.672 405.33 859.012 402.33 863.492 399.97V399.58C862.084 398.693 860.93 397.455 860.145 395.987C859.359 394.52 858.969 392.874 859.012 391.21C859.012 387.89 861.162 384.39 864.472 382.05V381.66C862.434 380.279 860.765 378.421 859.609 376.248C858.454 374.074 857.847 371.651 857.842 369.19C857.842 357.11 867.982 351.46 878.692 351.46C881.336 351.439 883.968 351.83 886.492 352.62H904.612V364.71H897.612C898.123 366.348 898.386 368.054 898.392 369.77C898.392 381.27 889.622 385.94 878.712 385.94C876.875 385.921 875.047 385.693 873.262 385.26C872.835 385.587 872.503 386.021 872.297 386.518C872.092 387.015 872.021 387.557 872.092 388.09C872.092 390.23 874.042 391.01 878.912 391.01H886.212C898.392 391.01 905.412 394.71 905.412 403.68C905.412 414.2 894.502 421.41 877.152 421.41C866.032 421.41 856.672 418.1 856.672 409.33ZM889.412 406.6C889.412 404.07 887.072 403.68 882.882 403.68H879.132C875.232 403.68 873.482 403.48 872.132 403.09C871.605 403.515 871.175 404.048 870.871 404.654C870.568 405.259 870.397 405.923 870.372 406.6C870.372 409.72 874.272 411.08 879.922 411.08C885.322 411.08 889.412 409.33 889.412 406.6ZM883.952 369.19C883.952 364.71 881.812 362.56 878.692 362.56C875.572 362.56 873.432 364.71 873.432 369.19C873.432 373.86 875.572 376.01 878.692 376.01C881.812 376.01 883.952 373.86 883.952 369.19Z" fill="#2B2B2B"/>
<path d="M933.451 338.01H957.451C971.091 338.01 982.781 342.69 982.781 358.47C982.781 367.53 978.691 373.47 972.551 376.79L986.251 401.33H967.551L956.631 380.1H950.201V401.33H933.451V338.01ZM956.241 366.85C962.871 366.85 966.381 363.93 966.381 358.47C966.381 353.01 962.871 351.26 956.241 351.26H950.241V366.85H956.241Z" fill="#2B2B2B"/>
<path d="M989.951 376.98C989.951 361.2 1001.45 351.46 1013.34 351.46C1027.75 351.46 1034.57 361.98 1034.57 375.03C1034.58 377.38 1034.35 379.725 1033.89 382.03H1006.13C1007.68 387.87 1011.97 389.82 1017.43 389.82C1021 389.739 1024.49 388.733 1027.56 386.9L1032.82 396.84C1027.59 400.394 1021.45 402.363 1015.13 402.51C1000.86 402.51 989.951 393.15 989.951 376.98ZM1020.35 371.14C1020.35 367.43 1018.79 364.14 1013.72 364.14C1010.02 364.14 1006.91 366.28 1005.93 371.14H1020.35Z" fill="#2B2B2B"/>
<path d="M1046.07 365.679H1039.64V353.209L1046.07 352.719V352.039C1046.07 341.619 1050.94 332.359 1065.36 332.359C1068.88 332.354 1072.37 332.945 1075.69 334.109L1072.57 345.999C1071.04 345.615 1069.47 345.42 1067.89 345.419C1064.78 345.419 1062.83 346.969 1062.83 351.419V352.579H1071.01V365.639H1062.83V401.329H1046.07V365.679Z" fill="#2B2B2B"/>
<path d="M1077.44 338.21C1077.44 333.14 1081.14 329.83 1086.6 329.83C1092.06 329.83 1095.76 333.14 1095.76 338.21C1095.76 343.28 1092.05 346.58 1086.6 346.58C1081.15 346.58 1077.44 343.27 1077.44 338.21ZM1078.22 352.62H1094.98V401.33H1078.22V352.62Z" fill="#2B2B2B"/>
<path d="M1106.28 352.62H1119.92L1121.09 358.47H1121.48C1125.37 354.77 1130.25 351.47 1136.87 351.47C1147.59 351.47 1152.07 359.26 1152.07 371.34V401.34H1135.31V373.47C1135.31 367.24 1133.75 365.68 1130.44 365.68C1127.32 365.68 1125.57 367.04 1123.04 369.38V401.38H1106.28V352.62Z" fill="#2B2B2B"/>
<path d="M1160.45 376.98C1160.45 361.2 1171.94 351.46 1183.83 351.46C1198.25 351.46 1205.07 361.98 1205.07 375.03C1205.08 377.38 1204.85 379.725 1204.39 382.03H1176.62C1178.18 387.87 1182.47 389.82 1187.92 389.82C1191.49 389.74 1194.98 388.734 1198.05 386.9L1203.31 396.84C1198.07 400.394 1191.91 402.357 1185.58 402.49C1171.36 402.51 1160.45 393.15 1160.45 376.98ZM1190.84 371.14C1190.84 367.43 1189.29 364.14 1184.22 364.14C1180.52 364.14 1177.4 366.28 1176.42 371.14H1190.84Z" fill="#2B2B2B"/>
<path d="M1214.22 352.62H1227.87L1229.03 358.57H1229.42C1233.32 354.77 1237.42 351.46 1244.04 351.46C1250.66 351.46 1254.85 354.18 1257.48 359.25C1261.48 355.16 1265.86 351.46 1272.48 351.46C1283.19 351.46 1287.87 359.25 1287.87 371.33V401.33H1271.13V373.47C1271.13 367.24 1269.57 365.68 1266.26 365.68C1264.31 365.68 1261.97 366.85 1259.44 369.38V401.38H1242.68V373.47C1242.68 367.24 1241.13 365.68 1237.81 365.68C1235.81 365.68 1233.53 366.85 1230.99 369.38V401.38H1214.23L1214.22 352.62Z" fill="#2B2B2B"/>
<path d="M1296.26 376.98C1296.26 361.2 1307.76 351.46 1319.64 351.46C1334.06 351.46 1340.88 361.98 1340.88 375.03C1340.89 377.38 1340.66 379.725 1340.2 382.03H1312.43C1313.99 387.87 1318.28 389.82 1323.73 389.82C1327.31 389.74 1330.8 388.734 1333.87 386.9L1339.13 396.84C1333.89 400.393 1327.73 402.355 1321.4 402.49C1307.13 402.51 1296.26 393.15 1296.26 376.98ZM1326.66 371.14C1326.66 367.43 1325.1 364.14 1320.03 364.14C1316.33 364.14 1313.21 366.28 1312.24 371.14H1326.66Z" fill="#2B2B2B"/>
<path d="M1350.04 352.62H1363.68L1364.85 358.47H1365.24C1369.13 354.77 1374.01 351.47 1380.63 351.47C1391.35 351.47 1395.83 359.26 1395.83 371.34V401.34H1379.07V373.47C1379.07 367.24 1377.51 365.68 1374.2 365.68C1371.08 365.68 1369.33 367.04 1366.8 369.38V401.38H1350.04V352.62Z" fill="#2B2B2B"/>
<path d="M1408.88 382.63V365.68H1402.45V353.21L1409.86 352.62L1411.86 338.01H1425.69V352.62H1436.8V365.68H1425.69V382.33C1425.69 387.69 1428.42 389.44 1431.54 389.44C1432.99 389.466 1434.43 389.27 1435.82 388.86L1438.36 400.55C1434.68 401.89 1430.78 402.551 1426.86 402.5C1414.13 402.51 1408.88 394.52 1408.88 382.63Z" fill="#2B2B2B"/>
<path d="M658.021 510.26L666.791 499.33C671.217 502.892 676.702 504.88 682.381 504.98C687.441 504.98 689.591 503.33 689.591 500.5C689.591 497.5 686.371 496.5 681.011 494.36L673.131 491.07C666.311 488.34 660.371 482.59 660.371 473.43C660.371 462.62 670.111 453.75 683.951 453.75C691.7 453.728 699.182 456.578 704.951 461.75L696.181 472.67C691.901 469.74 687.611 468.18 683.911 468.18C679.811 468.18 677.281 469.65 677.281 472.47C677.281 475.47 680.891 476.56 686.641 478.8L694.331 481.8C702.221 484.92 706.711 490.38 706.711 499.15C706.711 509.86 697.711 519.41 681.961 519.41C673.105 519.532 664.539 516.258 658.021 510.26Z" fill="#2B2B2B"/>
<path d="M715.502 469.54H729.132L730.302 474.02H730.692C734.302 470.71 739.072 468.37 743.942 468.37C755.442 468.37 762.842 478.11 762.842 493.11C762.842 509.87 752.912 519.42 742.582 519.42C740.529 519.385 738.505 518.935 736.63 518.098C734.755 517.261 733.069 516.054 731.672 514.55L732.252 521.95V535.4H715.502V469.54ZM745.712 493.33C745.712 485.33 743.372 482.03 738.892 482.03C736.352 482.03 734.402 483.03 732.262 485.54V503.46C733.962 505.017 736.198 505.856 738.502 505.8C742.392 505.78 745.712 502.66 745.712 493.33Z" fill="#2B2B2B"/>
<path d="M772.012 469.54H785.652L786.822 477.92H787.212C790.812 471.29 796.272 468.37 801.042 468.37C803.09 468.277 805.134 468.618 807.042 469.37L803.932 483.6C802.274 483.19 800.57 482.992 798.862 483.01C795.352 483.01 791.072 485.16 788.732 491.2V518.28H772.012V469.54Z" fill="#2B2B2B"/>
<path d="M811.963 455.12C811.963 450.05 815.663 446.74 821.113 446.74C826.563 446.74 830.273 450.05 830.273 455.12C830.273 460.19 826.573 463.5 821.113 463.5C815.653 463.5 811.963 460.18 811.963 455.12ZM812.733 469.54H829.493V518.25H812.733V469.54Z" fill="#2B2B2B"/>
<path d="M840.791 469.54H854.431L855.601 475.38H855.991C859.891 471.68 864.761 468.38 871.391 468.38C882.101 468.38 886.581 476.17 886.581 488.25V518.25H869.831V490.39C869.831 484.15 868.271 482.59 864.961 482.59C861.841 482.59 860.081 483.96 857.551 486.3V518.25H840.791V469.54Z" fill="#2B2B2B"/>
<path d="M899.643 499.55V482.55H893.213V470.12L900.613 469.54L902.563 454.92H916.403V469.54H927.503V482.59H916.403V499.25C916.403 504.61 919.123 506.37 922.243 506.37C923.695 506.393 925.141 506.194 926.533 505.78L929.063 517.47C925.384 518.833 921.486 519.511 917.563 519.47C904.903 519.42 899.643 511.43 899.643 499.55Z" fill="#2B2B2B"/>
<path d="M957.312 454.92H980.503C994.343 454.92 1006.22 459.99 1006.22 475.97C1006.22 491.46 994.143 498.18 980.893 498.18H974.073V518.25H957.312V454.92ZM980.112 484.92C986.742 484.92 989.862 481.61 989.862 475.92C989.862 470.23 986.153 468.12 979.723 468.12H974.073V484.93L980.112 484.92Z" fill="#2B2B2B"/>
<path d="M1015.18 501.099V450.439H1031.94V501.689C1031.94 504.999 1033.5 505.979 1034.67 505.979C1035.26 506.001 1035.85 505.934 1036.42 505.779L1038.42 518.059C1035.81 519.06 1033.03 519.523 1030.24 519.419C1018.89 519.419 1015.18 512.019 1015.18 501.099Z" fill="#2B2B2B"/>
<path d="M1042.27 504.42C1042.27 494.28 1050.06 488.63 1068.77 486.68C1068.38 483.18 1066.24 481.62 1061.95 481.62C1058.44 481.62 1054.74 482.79 1049.67 485.52L1043.83 474.8C1050.65 470.71 1057.66 468.37 1065.26 468.37C1077.93 468.37 1085.53 475.19 1085.53 491.17V518.25H1071.89L1070.72 513.57H1070.33C1066.43 517.08 1062.14 519.42 1056.88 519.42C1047.72 519.42 1042.27 512.41 1042.27 504.42ZM1068.77 503.25V496.62C1060.77 497.79 1058.25 500.32 1058.25 503.05C1058.25 505.29 1059.81 506.56 1062.73 506.56C1065.46 506.56 1067.02 505.2 1068.77 503.25Z" fill="#2B2B2B"/>
<path d="M1096.44 469.54H1110.13L1111.3 475.38H1111.69C1115.58 471.68 1120.46 468.38 1127.08 468.38C1137.8 468.38 1142.28 476.17 1142.28 488.25V518.25H1125.52V490.39C1125.52 484.15 1123.96 482.59 1120.65 482.59C1117.53 482.59 1115.78 483.96 1113.25 486.3V518.25H1096.49L1096.44 469.54Z" fill="#2B2B2B"/>
<path d="M1153.13 469.54H1166.77L1167.94 475.38H1168.33C1172.23 471.68 1177.1 468.38 1183.72 468.38C1194.44 468.38 1198.92 476.17 1198.92 488.25V518.25H1182.13V490.39C1182.13 484.15 1180.57 482.59 1177.26 482.59C1174.14 482.59 1172.39 483.96 1169.86 486.3V518.25H1153.13V469.54Z" fill="#2B2B2B"/>
<path d="M1209.06 455.12C1209.06 450.05 1212.76 446.74 1218.22 446.74C1223.68 446.74 1227.38 450.05 1227.38 455.12C1227.38 460.19 1223.68 463.5 1218.22 463.5C1212.76 463.5 1209.06 460.18 1209.06 455.12ZM1209.84 469.54H1226.6V518.25H1209.84V469.54Z" fill="#2B2B2B"/>
<path d="M1237.9 469.54H1251.54L1252.71 475.38H1253.1C1257 471.68 1261.87 468.38 1268.49 468.38C1279.21 468.38 1283.69 476.17 1283.69 488.25V518.25H1266.93V490.39C1266.93 484.15 1265.37 482.59 1262.06 482.59C1258.94 482.59 1257.19 483.96 1254.66 486.3V518.25H1237.9V469.54Z" fill="#2B2B2B"/>
<path d="M1291.87 526.24C1291.87 522.24 1294.21 519.24 1298.69 516.89V516.5C1297.28 515.61 1296.13 514.37 1295.35 512.901C1294.56 511.432 1294.17 509.785 1294.21 508.12C1294.21 504.81 1296.36 501.3 1299.67 498.96V498.57C1297.63 497.189 1295.96 495.331 1294.81 493.158C1293.65 490.985 1293.05 488.562 1293.04 486.1C1293.04 474.02 1303.18 468.37 1313.89 468.37C1316.54 468.347 1319.17 468.742 1321.69 469.54H1339.81V481.62H1332.81C1333.32 483.259 1333.58 484.964 1333.59 486.68C1333.59 498.18 1324.82 502.86 1313.91 502.86C1312.07 502.836 1310.25 502.608 1308.46 502.18C1308.03 502.502 1307.7 502.934 1307.49 503.43C1307.28 503.926 1307.22 504.468 1307.29 505C1307.29 507.14 1309.24 507.92 1314.11 507.92H1321.41C1333.59 507.92 1340.61 511.63 1340.61 520.59C1340.61 531.11 1329.7 538.32 1312.35 538.32C1301.23 538.33 1291.87 535.01 1291.87 526.24ZM1324.61 523.51C1324.61 520.98 1322.27 520.59 1318.08 520.59H1314.28C1311.93 520.712 1309.58 520.517 1307.28 520.01C1306.75 520.433 1306.32 520.964 1306.02 521.568C1305.72 522.172 1305.55 522.834 1305.52 523.51C1305.52 526.63 1309.42 527.99 1315.07 527.99C1320.52 527.99 1324.61 526.24 1324.61 523.51ZM1319.13 486.1C1319.13 481.62 1316.99 479.48 1313.87 479.48C1310.75 479.48 1308.61 481.62 1308.61 486.1C1308.61 490.78 1310.75 492.92 1313.87 492.92C1316.99 492.92 1319.13 490.78 1319.13 486.1Z" fill="#2B2B2B"/>
<path d="M699.822 571.84H718.522C737.812 571.84 751.062 580.84 751.062 603.21C751.062 625.58 737.812 635.21 719.502 635.21H699.822V571.84ZM717.552 621.72C726.712 621.72 733.922 618.02 733.922 603.21C733.922 588.4 726.712 585.33 717.552 585.33H716.552V621.77L717.552 621.72Z" fill="#2B2B2B"/>
<path d="M759.053 621.33C759.053 611.2 766.853 605.55 785.553 603.6C785.163 600.09 783.023 598.53 778.733 598.53C775.223 598.53 771.523 599.7 766.463 602.43L760.613 591.71C767.433 587.62 774.443 585.28 782.043 585.28C794.713 585.28 802.313 592.1 802.313 608.08V635.16H788.673L787.503 630.49H787.133C783.233 634 778.953 636.33 773.693 636.33C764.513 636.33 759.053 629.33 759.053 621.33ZM785.553 620.16V613.54C777.553 614.7 775.033 617.24 775.033 619.97C775.033 622.21 776.593 623.47 779.513 623.47C782.243 623.47 783.803 622.11 785.553 620.16Z" fill="#2B2B2B"/>
<path d="M812.441 572.03C812.441 566.97 816.141 563.65 821.601 563.65C827.061 563.65 830.761 566.97 830.761 572.03C830.761 577.09 827.061 580.41 821.601 580.41C816.141 580.41 812.441 577.1 812.441 572.03ZM813.221 586.45H829.981V635.16H813.221V586.45Z" fill="#2B2B2B"/>
<path d="M841.281 618.02V567.33H858.041V618.58C858.041 621.89 859.601 622.87 860.761 622.87C861.355 622.892 861.948 622.825 862.521 622.67L864.521 634.95C861.911 635.95 859.125 636.413 856.331 636.31C844.981 636.33 841.281 628.93 841.281 618.02Z" fill="#2B2B2B"/>
<path d="M870.132 652.33L873.052 640.06C874.066 640.349 875.118 640.48 876.172 640.45C880.652 640.45 882.792 638.45 883.772 635.57L884.352 633.43L865.842 586.43H882.602L888.442 605.14C889.812 609.62 890.782 614.14 891.952 618.97H892.342C893.342 614.29 894.292 609.81 895.462 605.14L900.332 586.43H916.332L899.932 634.39C894.862 647.54 889.602 653.48 877.522 653.48C875.007 653.574 872.498 653.184 870.132 652.33Z" fill="#2B2B2B"/>
<path d="M940.072 627.18L948.842 616.26C953.265 619.827 958.751 621.815 964.432 621.91C969.492 621.91 971.642 620.26 971.642 617.43C971.642 614.43 968.422 613.43 963.062 611.29L955.132 607.98C948.312 605.25 942.372 599.51 942.372 590.35C942.372 579.53 952.112 570.67 965.942 570.67C973.69 570.651 981.171 573.501 986.942 578.67L978.172 589.58C973.882 586.66 969.602 585.1 965.892 585.1C961.802 585.1 959.272 586.56 959.272 589.38C959.272 592.38 962.872 593.48 968.622 595.72L976.322 598.72C984.212 601.83 988.692 607.29 988.692 616.06C988.692 626.78 979.692 636.32 963.952 636.32C955.118 636.43 946.575 633.16 940.072 627.18Z" fill="#2B2B2B"/>
<path d="M996.772 616.46V599.46H990.342V587.04L997.752 586.45L999.692 571.84H1013.53V586.45H1024.64V599.51H1013.53V616.17C1013.53 621.52 1016.26 623.28 1019.37 623.28C1020.82 623.303 1022.27 623.104 1023.66 622.69L1026.19 634.39C1022.51 635.726 1018.62 636.383 1014.7 636.33C1002.03 636.33 996.772 628.33 996.772 616.46Z" fill="#2B2B2B"/>
<path d="M1029.7 621.33C1029.7 611.2 1037.5 605.55 1056.2 603.6C1055.81 600.09 1053.67 598.53 1049.38 598.53C1045.88 598.53 1042.17 599.7 1037.11 602.43L1031.26 591.71C1038.13 587.62 1045.13 585.33 1052.7 585.33C1065.36 585.33 1072.96 592.15 1072.96 608.13V635.21H1059.32L1058.15 630.54H1057.76C1053.86 634.05 1049.58 636.38 1044.32 636.38C1035.13 636.33 1029.7 629.33 1029.7 621.33ZM1056.2 620.16V613.54C1048.2 614.7 1045.68 617.24 1045.68 619.97C1045.68 622.21 1047.24 623.47 1050.16 623.47C1052.89 623.47 1054.45 622.11 1056.2 620.16Z" fill="#2B2B2B"/>
<path d="M1083.87 586.45H1097.51L1098.68 592.3H1099.07C1102.97 588.59 1107.84 585.3 1114.46 585.3C1125.18 585.3 1129.66 593.1 1129.66 605.18V635.18H1112.91V607.33C1112.91 601.09 1111.35 599.54 1108.03 599.54C1104.92 599.54 1103.16 600.9 1100.63 603.24V635.24H1083.87V586.45Z" fill="#2B2B2B"/>
<path d="M1138.43 610.81C1138.43 594.81 1148.37 585.28 1158.31 585.28C1163.57 585.28 1166.68 587.23 1169.61 590.15L1169.02 583.15V567.33H1185.78V635.14H1172.13L1170.96 630.66H1170.57C1167.26 633.98 1162.57 636.31 1158.3 636.31C1146.22 636.33 1138.43 626.59 1138.43 610.81ZM1169.02 619.19V601.26C1167.17 599.697 1164.82 598.865 1162.4 598.92C1158.89 598.92 1155.58 602.04 1155.58 610.61C1155.58 619.38 1158.31 622.69 1162.79 622.69C1164.06 622.758 1165.31 622.464 1166.41 621.845C1167.52 621.225 1168.42 620.304 1169.02 619.19Z" fill="#2B2B2B"/>
<path d="M1196.69 616.46V586.46H1213.45V614.33C1213.45 620.57 1215.01 622.13 1218.32 622.13C1221.44 622.13 1223.19 620.96 1225.32 617.84V586.45H1242.13V635.16H1228.49L1227.32 628.73H1226.93C1223.04 633.41 1218.55 636.33 1211.93 636.33C1201.13 636.33 1196.69 628.54 1196.69 616.46Z" fill="#2B2B2B"/>
<path d="M1253.39 586.45H1267.03L1268.2 590.93H1268.59C1272.2 587.62 1276.97 585.28 1281.84 585.28C1293.34 585.28 1300.74 595.02 1300.74 610.03C1300.74 626.79 1290.8 636.33 1280.48 636.33C1278.43 636.296 1276.4 635.847 1274.53 635.01C1272.66 634.173 1270.97 632.965 1269.57 631.46L1270.15 638.87V652.33H1253.39V586.45ZM1283.59 610.22C1283.59 602.22 1281.26 598.92 1276.77 598.92C1274.24 598.92 1272.29 599.92 1270.15 602.43V620.33C1271.86 621.874 1274.08 622.708 1276.38 622.66C1280.28 622.69 1283.59 619.58 1283.59 610.22Z" fill="#2B2B2B"/>
<path d="M595.472 688.75H615.742L635.032 752.08H617.302L614.182 738.63H596.452L593.332 752.08H576.182L595.472 688.75ZM599.472 725.68H611.132L610.132 721.33C608.572 715.33 607.012 707.59 605.452 701.26H605.062C603.702 707.69 602.142 715.26 600.582 721.33L599.472 725.68Z" fill="#2B2B2B"/>
<path d="M637.133 727.72C637.133 711.55 649.413 702.19 663.243 702.19C668.444 702.098 673.502 703.9 677.473 707.26L669.673 717.59C668.147 716.304 666.218 715.596 664.223 715.59C657.983 715.59 654.283 720.27 654.283 727.67C654.283 735.07 658.373 739.75 663.633 739.75C666.465 739.74 669.212 738.779 671.433 737.02L677.863 747.55C672.983 751.83 666.753 753.2 661.683 753.2C647.893 753.25 637.133 743.89 637.133 727.72Z" fill="#2B2B2B"/>
<path d="M680.232 727.72C680.232 711.55 692.512 702.19 706.342 702.19C711.544 702.096 716.602 703.898 720.572 707.26L712.772 717.59C711.247 716.304 709.318 715.596 707.322 715.59C701.082 715.59 697.382 720.27 697.382 727.67C697.382 735.07 701.472 739.75 706.732 739.75C709.565 739.742 712.313 738.78 714.532 737.02L720.962 747.55C716.092 751.83 709.852 753.2 704.792 753.2C690.952 753.25 680.232 743.89 680.232 727.72Z" fill="#2B2B2B"/>
<path d="M723.303 727.719C723.303 711.939 734.793 702.189 746.683 702.189C761.103 702.189 767.923 712.719 767.923 725.769C767.934 728.12 767.702 730.466 767.233 732.769H739.473C741.033 738.609 745.313 740.559 750.773 740.559C754.345 740.479 757.835 739.472 760.903 737.639L766.163 747.579C760.922 751.134 754.764 753.096 748.433 753.229C734.213 753.249 723.303 743.889 723.303 727.719ZM753.693 721.879C753.693 718.169 752.133 714.879 747.073 714.879C743.363 714.879 740.253 717.019 739.273 721.879H753.693Z" fill="#2B2B2B"/>
<path d="M777.072 703.33H790.712L791.882 707.82H792.272C795.882 704.5 800.652 702.16 805.522 702.16C817.022 702.16 824.422 711.91 824.422 726.91C824.422 743.67 814.492 753.22 804.162 753.22C802.11 753.182 800.086 752.732 798.212 751.895C796.338 751.058 794.651 749.853 793.252 748.35L793.832 755.75V769.23H777.072V703.33ZM807.282 727.11C807.282 719.11 804.942 715.8 800.462 715.8C797.922 715.8 795.972 716.8 793.832 719.31V737.24C795.536 738.79 797.769 739.627 800.072 739.58C803.962 739.61 807.282 736.49 807.282 727.14V727.11Z" fill="#2B2B2B"/>
<path d="M832.801 733.33V716.42H826.371V703.95L833.781 703.36L835.721 688.75H849.561V703.33H860.671V716.39H849.561V733.05C849.561 738.41 852.291 740.16 855.401 740.16C856.852 740.186 858.299 739.99 859.691 739.58L862.221 751.33C858.541 752.67 854.648 753.331 850.731 753.28C838.061 753.25 832.801 745.26 832.801 733.33Z" fill="#2B2B2B"/>
<path d="M865.732 738.239C865.732 728.109 873.532 722.459 892.232 720.509C891.842 716.999 889.702 715.439 885.412 715.439C881.912 715.439 878.202 716.609 873.142 719.339L867.292 708.629C874.112 704.529 881.132 702.189 888.732 702.189C901.392 702.189 908.992 709.019 908.992 724.989V752.079H895.352L894.182 747.399H893.792C889.892 750.909 885.612 753.249 880.352 753.249C871.192 753.249 865.732 746.229 865.732 738.239ZM892.232 737.069V730.449C884.232 731.619 881.712 734.149 881.712 736.879C881.712 739.119 883.272 740.389 886.192 740.389C888.922 740.389 890.482 739.019 892.232 737.069Z" fill="#2B2B2B"/>
<path d="M919.902 703.33H933.542L934.712 709.18H935.132C939.032 705.48 943.902 702.18 950.522 702.18C961.242 702.18 965.722 709.98 965.722 722.06V752.06H948.932V724.21C948.932 717.98 947.382 716.42 944.062 716.42C940.952 716.42 939.192 717.78 936.662 720.12V752.12H919.902V703.33Z" fill="#2B2B2B"/>
<path d="M974.072 727.72C974.072 711.55 986.352 702.19 1000.18 702.19C1005.38 702.096 1010.44 703.898 1014.4 707.26L1006.61 717.59C1005.09 716.304 1003.16 715.596 1001.16 715.59C994.922 715.59 991.222 720.27 991.222 727.67C991.222 735.07 995.312 739.75 1000.57 739.75C1003.4 739.742 1006.15 738.78 1008.36 737.02L1014.8 747.55C1009.92 751.83 1003.69 753.2 998.622 753.2C984.792 753.25 974.072 743.89 974.072 727.72Z" fill="#2B2B2B"/>
<path d="M1017.13 727.719C1017.13 711.939 1028.63 702.189 1040.51 702.189C1054.93 702.189 1061.75 712.719 1061.75 725.769C1061.76 728.12 1061.53 730.465 1061.07 732.769H1033.3C1034.86 738.609 1039.15 740.559 1044.61 740.559C1048.19 740.479 1051.68 739.472 1054.74 737.639L1060 747.579C1054.76 751.133 1048.6 753.095 1042.27 753.229C1028.04 753.249 1017.13 743.889 1017.13 727.719ZM1047.53 721.879C1047.53 718.169 1045.97 714.879 1040.9 714.879C1037.2 714.879 1034.08 717.019 1033.11 721.879H1047.53Z" fill="#2B2B2B"/>
<path d="M1089.03 720.9C1089.03 699.66 1103.65 687.58 1119.62 687.58C1123.3 687.572 1126.94 688.31 1130.32 689.75C1133.7 691.191 1136.76 693.304 1139.3 695.96L1130.54 706.09C1127.7 703.397 1123.92 701.927 1120.01 702C1112.61 702 1106.18 708.82 1106.18 720.32C1106.18 732.2 1111.63 738.83 1119.82 738.83C1121.97 738.868 1124.11 738.454 1126.09 737.615C1128.07 736.776 1129.85 735.531 1131.32 733.96L1140.08 743.89C1137.51 746.891 1134.31 749.287 1130.7 750.905C1127.1 752.523 1123.18 753.324 1119.23 753.25C1103.06 753.25 1089.03 742.53 1089.03 720.9Z" fill="#2B2B2B"/>
<path d="M1147.49 703.33H1161.13L1162.3 711.71H1162.69C1166.29 705.09 1171.75 702.16 1176.52 702.16C1178.57 702.061 1180.62 702.402 1182.52 703.16L1179.4 717.38C1177.75 716.973 1176.05 716.778 1174.34 716.8C1170.83 716.8 1166.54 718.94 1164.21 724.98V752.07H1147.45L1147.49 703.33Z" fill="#2B2B2B"/>
<path d="M1187.43 688.94C1187.43 683.88 1191.13 680.57 1196.59 680.57C1202.05 680.57 1205.75 683.88 1205.75 688.94C1205.75 694 1202.05 697.32 1196.59 697.32C1191.13 697.32 1187.43 694.01 1187.43 688.94ZM1188.21 703.36H1204.97V752.08H1188.21V703.36Z" fill="#2B2B2B"/>
<path d="M1218.41 733.33V716.42H1211.98V703.95L1219.39 703.36L1221.39 688.75H1235.13V703.33H1246.24V716.39H1235.13V733.05C1235.13 738.41 1237.86 740.16 1240.98 740.16C1242.43 740.186 1243.87 739.99 1245.26 739.58L1247.8 751.27C1244.12 752.61 1240.22 753.271 1236.3 753.22C1223.68 753.25 1218.41 745.26 1218.41 733.33Z" fill="#2B2B2B"/>
<path d="M1250.76 727.719C1250.76 711.939 1262.26 702.189 1274.14 702.189C1288.56 702.189 1295.38 712.719 1295.38 725.769C1295.39 728.12 1295.16 730.465 1294.7 732.769H1266.93C1268.49 738.609 1272.78 740.559 1278.24 740.559C1281.81 740.479 1285.3 739.472 1288.37 737.639L1293.63 747.579C1288.39 751.133 1282.23 753.095 1275.9 753.229C1261.67 753.249 1250.76 743.889 1250.76 727.719ZM1281.16 721.879C1281.16 718.169 1279.6 714.879 1274.53 714.879C1270.83 714.879 1267.71 717.019 1266.74 721.879H1281.16Z" fill="#2B2B2B"/>
<path d="M1304.54 703.33H1318.18L1319.35 711.71H1319.74C1323.34 705.09 1328.8 702.16 1333.57 702.16C1335.62 702.061 1337.67 702.402 1339.57 703.16L1336.46 717.38C1334.8 716.973 1333.1 716.778 1331.39 716.8C1327.88 716.8 1323.6 718.94 1321.26 724.98V752.07H1304.5L1304.54 703.33Z" fill="#2B2B2B"/>
<path d="M1344.49 688.94C1344.49 683.88 1348.19 680.57 1353.64 680.57C1359.09 680.57 1362.8 683.88 1362.8 688.94C1362.8 694 1359.1 697.32 1353.64 697.32C1348.18 697.32 1344.49 694.01 1344.49 688.94ZM1345.26 703.36H1362.02V752.08H1345.26V703.36Z" fill="#2B2B2B"/>
<path d="M1371.38 738.239C1371.38 728.109 1379.17 722.459 1397.88 720.509C1397.49 716.999 1395.34 715.439 1391.06 715.439C1387.55 715.439 1383.85 716.609 1378.78 719.339L1372.93 708.629C1379.75 704.529 1386.77 702.189 1394.37 702.189C1407.03 702.189 1414.63 709.019 1414.63 724.989V752.079H1400.99L1399.82 747.399H1399.43C1395.54 750.909 1391.25 753.249 1385.99 753.249C1376.83 753.249 1371.38 746.229 1371.38 738.239ZM1397.88 737.069V730.449C1389.88 731.619 1387.35 734.149 1387.35 736.879C1387.35 739.119 1388.91 740.389 1391.84 740.389C1394.56 740.389 1396.13 739.019 1397.88 737.069Z" fill="#2B2B2B"/>
<path d="M817.312 805.66H840.133C853.383 805.66 864.133 808.98 864.133 821.45C864.133 826.9 861.013 833.14 856.133 835.09V835.48C862.133 837.23 867.042 841.91 867.042 850.29C867.042 863.29 855.742 868.99 842.102 868.99H817.312V805.66ZM839.723 830.41C845.183 830.41 847.723 827.88 847.723 823.98C847.723 820.08 845.193 818.52 839.723 818.52H834.073V830.41H839.723ZM840.893 856.13C847.513 856.13 850.633 853.79 850.633 849.13C850.633 844.47 847.513 842.7 840.893 842.7H834.073V856.13H840.893Z" fill="#2B2B2B"/>
<path d="M875.572 851.84V801.18H892.332V852.43C892.332 855.74 893.892 856.72 895.062 856.72C895.652 856.742 896.242 856.674 896.812 856.52L898.812 868.8C896.205 869.8 893.423 870.263 890.632 870.16C879.282 870.16 875.572 862.76 875.572 851.84Z" fill="#2B2B2B"/>
<path d="M902.072 844.639C902.072 828.459 913.762 819.109 926.232 819.109C938.702 819.109 950.402 828.459 950.402 844.639C950.402 860.819 938.712 870.159 926.232 870.159C913.752 870.159 902.072 860.809 902.072 844.639ZM933.252 844.639C933.252 837.229 931.252 832.549 926.252 832.549C921.252 832.549 919.252 837.229 919.252 844.639C919.252 852.049 921.202 856.719 926.252 856.719C931.302 856.719 933.252 852.039 933.252 844.639Z" fill="#2B2B2B"/>
<path d="M956.633 844.64C956.633 828.46 968.913 819.11 982.743 819.11C987.944 819.017 993.002 820.819 996.973 824.18L989.133 834.5C987.6 833.232 985.672 832.542 983.683 832.55C977.443 832.55 973.743 837.23 973.743 844.64C973.743 852.05 977.833 856.72 983.093 856.72C985.925 856.706 988.67 855.745 990.893 853.99L997.323 864.51C992.443 868.8 986.213 870.16 981.143 870.16C967.353 870.16 956.633 860.81 956.633 844.64Z" fill="#2B2B2B"/>
<path d="M1005.13 801.18H1021.69V837.04H1022.13L1035.13 820.33H1053.44L1036.33 840.74L1054.45 868.99H1036.33L1026.58 851.65L1021.71 857.11V868.99H1005.13V801.18Z" fill="#2B2B2B"/>
<path d="M1054.84 844.639C1054.84 828.849 1066.33 819.109 1078.22 819.109C1092.64 819.109 1099.46 829.629 1099.46 842.689C1099.47 845.04 1099.24 847.385 1098.78 849.689H1071.01C1072.57 855.539 1076.86 857.489 1082.31 857.489C1085.89 857.406 1089.38 856.396 1092.44 854.559L1097.7 864.499C1092.46 868.054 1086.3 870.016 1079.97 870.149C1065.75 870.159 1054.84 860.809 1054.84 844.639ZM1085.23 838.789C1085.23 835.089 1083.67 831.789 1078.61 831.789C1074.91 831.789 1071.79 833.939 1070.81 838.789H1085.23Z" fill="#2B2B2B"/>
<path d="M1108.62 820.33H1122.26L1123.42 828.71H1123.81C1127.42 822.08 1132.88 819.16 1137.65 819.16C1139.7 819.066 1141.74 819.407 1143.65 820.16L1140.57 834.33C1138.92 833.918 1137.22 833.72 1135.51 833.74C1132 833.74 1127.71 835.89 1125.37 841.93V869.01H1108.62V820.33Z" fill="#2B2B2B"/>
<path d="M1144.47 862.76L1151.47 853.4C1154.94 856.236 1159.27 857.817 1163.75 857.89C1167.26 857.89 1168.62 856.89 1168.62 854.96C1168.62 852.43 1164.82 851.45 1159.62 849.51C1152.8 846.97 1147.15 842.3 1147.15 834.89C1147.15 825.34 1154.94 819.11 1166.44 819.11C1173 819.042 1179.36 821.323 1184.37 825.54L1177.37 834.89C1174.4 832.636 1170.77 831.405 1167.04 831.38C1164.12 831.38 1162.76 832.38 1162.76 834.11C1162.76 836.26 1165.09 837.23 1171.33 839.18C1178.73 841.52 1184.19 846.18 1184.19 853.99C1184.19 863.15 1176.98 870.16 1163.34 870.16C1156.36 870.08 1149.65 867.448 1144.47 862.76Z" fill="#2B2B2B"/>
<path d="M678.281 922.58H702.281C715.921 922.58 727.611 927.25 727.611 943.04C727.611 952.1 723.521 958.04 717.381 961.35L731.131 985.9H712.381L701.471 964.67H695.041V985.9H678.281V922.58ZM701.131 951.42C707.761 951.42 711.261 948.49 711.261 943.04C711.261 937.59 707.761 935.83 701.131 935.83H695.131V951.42H701.131Z" fill="#2B2B2B"/>
<path d="M734.791 961.549C734.791 945.769 746.291 936.02 758.171 936.02C772.591 936.02 779.411 946.54 779.411 959.6C779.42 961.95 779.192 964.295 778.731 966.6H750.961C752.521 972.45 756.811 974.4 762.271 974.4C765.843 974.314 769.332 973.308 772.401 971.48L777.661 981.41C772.421 984.967 766.263 986.93 759.931 987.06C745.701 987.07 734.791 977.719 734.791 961.549ZM765.191 955.7C765.191 952 763.631 948.7 758.561 948.7C754.861 948.7 751.741 950.84 750.771 955.7H765.191Z" fill="#2B2B2B"/>
<path d="M789.742 967.2V950.2H783.312V937.78L790.713 937.19L792.663 922.58H806.503V937.19H817.602V950.25H806.503V966.91C806.503 972.27 809.233 974.02 812.343 974.02C813.794 974.043 815.241 973.844 816.633 973.43L819.133 985.13C815.451 986.466 811.558 987.124 807.643 987.07C795.003 987.07 789.742 979.08 789.742 967.2Z" fill="#2B2B2B"/>
<path d="M826.572 937.19H840.212L841.382 945.57H841.772C845.372 938.94 850.832 936.02 855.602 936.02C857.651 935.921 859.697 936.262 861.602 937.02L858.482 951.24C856.827 950.832 855.127 950.637 853.422 950.66C849.912 950.66 845.622 952.8 843.282 958.84V985.92H826.572V937.19Z" fill="#2B2B2B"/>
<path d="M863.791 961.549C863.791 945.379 875.481 936.02 887.951 936.02C900.421 936.02 912.131 945.379 912.131 961.549C912.131 977.719 900.441 987.07 887.971 987.07C875.501 987.07 863.791 977.719 863.791 961.549ZM894.961 961.549C894.961 954.139 892.961 949.47 887.961 949.47C882.961 949.47 880.961 954.139 880.961 961.549C880.961 968.959 882.961 973.63 887.961 973.63C892.961 973.63 894.961 968.95 894.961 961.549Z" fill="#2B2B2B"/>
<path d="M916.402 979.67L923.402 970.32C926.876 973.151 931.202 974.73 935.682 974.8C939.182 974.8 940.552 973.8 940.552 971.88C940.552 969.34 936.752 968.37 931.552 966.42C924.732 963.89 919.082 959.21 919.082 951.81C919.082 942.26 926.882 936.02 938.382 936.02C944.932 935.952 951.29 938.234 956.302 942.45L949.302 951.81C946.334 949.57 942.721 948.349 939.002 948.33C936.082 948.33 934.712 949.33 934.712 951.06C934.712 953.2 937.052 954.17 943.292 956.12C950.692 958.46 956.152 963.12 956.152 970.93C956.152 980.09 948.942 987.1 935.302 987.1C928.305 987.022 921.58 984.378 916.402 979.67Z" fill="#2B2B2B"/>
<path d="M964.332 937.19H977.972L979.142 941.67H979.532C983.132 938.36 987.912 936.02 992.782 936.02C1004.28 936.02 1011.68 945.77 1011.68 960.77C1011.68 977.53 1001.74 987.07 991.422 987.07C989.368 987.034 987.342 986.585 985.466 985.748C983.589 984.911 981.901 983.704 980.502 982.2L981.092 989.61V1003.05H964.332V937.19ZM994.532 960.96C994.532 952.96 992.192 949.66 987.712 949.66C985.182 949.66 983.232 950.66 981.092 953.17V971.1C982.795 972.643 985.024 973.477 987.322 973.43C991.222 973.43 994.532 970.33 994.532 960.96Z" fill="#2B2B2B"/>
<path d="M1018.3 961.549C1018.3 945.769 1029.8 936.02 1041.69 936.02C1056.11 936.02 1062.92 946.54 1062.92 959.6C1062.94 961.95 1062.71 964.296 1062.24 966.6H1034.48C1036.04 972.45 1040.32 974.4 1045.78 974.4C1049.35 974.314 1052.84 973.308 1055.91 971.48L1061.17 981.41C1055.93 984.969 1049.77 986.931 1043.44 987.06C1029.21 987.07 1018.3 977.719 1018.3 961.549ZM1048.7 955.7C1048.7 952 1047.14 948.7 1042.08 948.7C1038.37 948.7 1035.26 950.84 1034.28 955.7H1048.7Z" fill="#2B2B2B"/>
<path d="M1069.55 961.55C1069.55 945.38 1081.83 936.02 1095.66 936.02C1100.86 935.926 1105.92 937.728 1109.88 941.09L1102.13 951.42C1100.6 950.132 1098.67 949.424 1096.67 949.42C1090.44 949.42 1086.74 954.09 1086.74 961.5C1086.74 968.91 1090.83 973.58 1096.09 973.58C1098.92 973.567 1101.66 972.606 1103.88 970.85L1110.31 981.37C1105.44 985.66 1099.21 987.02 1094.14 987.02C1080.27 987.07 1069.55 977.72 1069.55 961.55Z" fill="#2B2B2B"/>
<path d="M1119.24 967.2V950.2H1112.81V937.78L1120.21 937.19L1122.21 922.58H1136.04V937.19H1147.13V950.25H1136.02V966.91C1136.02 972.27 1138.75 974.02 1141.87 974.02C1143.32 974.043 1144.77 973.844 1146.16 973.43L1148.69 985.13C1145.01 986.467 1141.11 987.124 1137.19 987.07C1124.5 987.07 1119.24 979.08 1119.24 967.2Z" fill="#2B2B2B"/>
<path d="M1155.28 922.77C1155.28 917.71 1158.99 914.39 1164.44 914.39C1169.89 914.39 1173.6 917.71 1173.6 922.77C1173.6 927.83 1169.9 931.15 1164.44 931.15C1158.98 931.15 1155.28 927.84 1155.28 922.77ZM1156.06 937.19H1172.82V985.9H1156.06V937.19Z" fill="#2B2B2B"/>
<path d="M1179.64 937.189H1196.4L1201.66 958.429C1202.84 963.296 1204.01 968.363 1205.17 973.629H1205.56C1206.73 968.369 1207.9 963.303 1209.06 958.429L1214.33 937.189H1230.33L1214.94 985.899H1195.65L1179.64 937.189Z" fill="#2B2B2B"/>
<path d="M1233.61 961.549C1233.61 945.769 1245.11 936.02 1257 936.02C1271.42 936.02 1278.24 946.54 1278.24 959.6C1278.25 961.95 1278.02 964.296 1277.55 966.6H1249.79C1251.35 972.45 1255.63 974.4 1261.09 974.4C1264.66 974.314 1268.15 973.308 1271.22 971.48L1276.48 981.41C1271.24 984.969 1265.08 986.931 1258.75 987.06C1244.53 987.07 1233.61 977.719 1233.61 961.549ZM1264.01 955.7C1264.01 952 1262.45 948.7 1257.39 948.7C1253.68 948.7 1250.57 950.84 1249.59 955.7H1264.01Z" fill="#2B2B2B"/>
<path d="M1283.5 979.67L1290.5 970.32C1293.98 973.152 1298.3 974.73 1302.78 974.8C1306.29 974.8 1307.65 973.8 1307.65 971.88C1307.65 969.34 1303.85 968.37 1298.65 966.42C1291.83 963.89 1286.17 959.21 1286.17 951.81C1286.17 942.26 1293.97 936.02 1305.47 936.02C1312.02 935.95 1318.38 938.231 1323.39 942.45L1316.39 951.81C1313.43 949.578 1309.84 948.358 1306.13 948.33C1303.21 948.33 1301.84 949.33 1301.84 951.06C1301.84 953.2 1304.18 954.17 1310.42 956.12C1317.82 958.46 1323.28 963.12 1323.28 970.93C1323.28 980.09 1316.07 987.1 1302.43 987.1C1295.42 987.029 1288.69 984.385 1283.5 979.67Z" fill="#2B2B2B"/>
</g>
<defs>
<linearGradient id="paint0_linear" x1="2094" y1="1028" x2="2094" y2="1981" gradientUnits="userSpaceOnUse">
<stop stop-color="#C4C4C4" stop-opacity="0"/>
<stop offset="0.359375" stop-color="#C4C4C4"/>
<stop offset="0.6875" stop-color="#C4C4C4"/>
<stop offset="1" stop-color="#C4C4C4" stop-opacity="0"/>
</linearGradient>
</defs>
</svg>
