<svg width="672" height="412" viewBox="0 0 672 412" fill="none" xmlns="http://www.w3.org/2000/svg">
<path d="M98.7671 134C103.186 121.727 128.65 92.6822 149.767 82" stroke="#6A6A6A" stroke-width="3" stroke-linecap="round" stroke-linejoin="round" stroke-dasharray="3 7"/>
<path d="M144.614 76L155.239 78.847L152.392 89.4722" stroke="#6A6A6A" stroke-width="3" stroke-linecap="round" stroke-linejoin="round"/>
<path d="M106.24 136.625L95.6146 139.472L92.7676 128.847" stroke="#6A6A6A" stroke-width="3" stroke-linecap="round" stroke-linejoin="round"/>
<circle cx="221.732" cy="72" r="53.5" fill="white" stroke="#2B2B2B" stroke-width="3"/>
<path d="M199.838 62.1473C199.838 65.5713 201.79 67.5873 204.43 67.5873C205.774 67.5873 206.798 67.0273 207.63 66.0673L206.878 65.2513C206.206 66.0033 205.47 66.4193 204.462 66.4193C202.478 66.4193 201.214 64.7553 201.214 62.1153C201.214 59.5073 202.526 57.8753 204.526 57.8753C205.406 57.8753 206.078 58.2593 206.622 58.8513L207.374 58.0033C206.766 57.3153 205.774 56.7073 204.51 56.7073C201.822 56.7073 199.838 58.7713 199.838 62.1473ZM209.209 67.3953H210.521V62.4033C211.049 61.0913 211.833 60.6113 212.489 60.6113C212.809 60.6113 212.985 60.6593 213.241 60.7393L213.497 59.5873C213.241 59.4753 213.001 59.4273 212.665 59.4273C211.785 59.4273 210.985 60.0513 210.457 61.0273H210.409L210.297 59.6193H209.209V67.3953ZM213.773 63.5233C213.773 66.0673 215.421 67.5873 217.501 67.5873C218.557 67.5873 219.389 67.2193 220.061 66.7873L219.597 65.9233C219.021 66.2913 218.397 66.5313 217.661 66.5313C216.173 66.5313 215.165 65.4753 215.069 63.7953H220.317C220.349 63.6033 220.365 63.3473 220.365 63.0753C220.365 60.8513 219.245 59.4273 217.261 59.4273C215.485 59.4273 213.773 60.9793 213.773 63.5233ZM215.053 62.9313C215.213 61.3633 216.205 60.4673 217.293 60.4673C218.509 60.4673 219.213 61.3473 219.213 62.9313H215.053ZM221.434 65.3793C221.434 66.7713 222.41 67.5873 223.722 67.5873C224.682 67.5873 225.546 67.0753 226.298 66.4673H226.33L226.442 67.3953H227.53V62.6273C227.53 60.6913 226.73 59.4273 224.826 59.4273C223.578 59.4273 222.49 59.9713 221.77 60.4353L222.298 61.3473C222.906 60.9313 223.706 60.5153 224.618 60.5153C225.882 60.5153 226.218 61.4753 226.218 62.4673C222.906 62.8353 221.434 63.6833 221.434 65.3793ZM222.73 65.2833C222.73 64.2913 223.61 63.6513 226.218 63.3313V65.4913C225.466 66.1633 224.842 66.5313 224.09 66.5313C223.322 66.5313 222.73 66.1633 222.73 65.2833ZM229.98 64.9953C229.98 66.5313 230.54 67.5873 232.204 67.5873C232.684 67.5873 233.212 67.4433 233.644 67.2993L233.388 66.3073C233.132 66.4033 232.78 66.5153 232.508 66.5153C231.612 66.5153 231.308 65.9713 231.308 65.0113V60.6913H233.404V59.6193H231.308V57.4433H230.204L230.044 59.6193L228.828 59.6993V60.6913H229.98V64.9953ZM234.18 63.5233C234.18 66.0673 235.828 67.5873 237.908 67.5873C238.964 67.5873 239.796 67.2193 240.468 66.7873L240.004 65.9233C239.428 66.2913 238.804 66.5313 238.068 66.5313C236.58 66.5313 235.572 65.4753 235.476 63.7953H240.724C240.756 63.6033 240.772 63.3473 240.772 63.0753C240.772 60.8513 239.652 59.4273 237.668 59.4273C235.892 59.4273 234.18 60.9793 234.18 63.5233ZM235.46 62.9313C235.62 61.3633 236.612 60.4673 237.7 60.4673C238.916 60.4673 239.62 61.3473 239.62 62.9313H235.46Z" fill="#2B2B2B"/>
<path d="M194.781 82.2433C194.781 85.7473 196.989 87.5873 199.693 87.5873C200.989 87.5873 202.141 87.0593 203.005 86.0513L201.709 84.6273C201.197 85.1873 200.573 85.5553 199.725 85.5553C198.189 85.5553 197.197 84.3073 197.197 82.1633C197.197 80.0673 198.333 78.8033 199.789 78.8033C200.509 78.8033 201.021 79.1073 201.549 79.5873L202.845 78.1313C202.141 77.4113 201.053 76.7713 199.757 76.7713C197.069 76.7713 194.781 78.7873 194.781 82.2433ZM203.684 83.4273C203.684 86.0673 205.54 87.5873 207.556 87.5873C209.556 87.5873 211.412 86.0673 211.412 83.4273C211.412 80.7873 209.556 79.2673 207.556 79.2673C205.54 79.2673 203.684 80.7873 203.684 83.4273ZM206.1 83.4273C206.1 82.0513 206.58 81.1713 207.556 81.1713C208.516 81.1713 209.012 82.0513 209.012 83.4273C209.012 84.8033 208.516 85.6833 207.556 85.6833C206.58 85.6833 206.1 84.8033 206.1 83.4273ZM212.773 87.3953H215.125V82.0353C215.637 81.5393 216.005 81.2673 216.597 81.2673C217.269 81.2673 217.573 81.6193 217.573 82.7713V87.3953H219.925V82.4673C219.925 80.4833 219.189 79.2673 217.461 79.2673C216.389 79.2673 215.589 79.8273 214.917 80.4673H214.853L214.693 79.4593H212.773V87.3953ZM221.999 84.5153C221.999 86.3553 222.767 87.5873 224.735 87.5873C225.503 87.5873 226.079 87.4273 226.495 87.2993L226.127 85.5873C225.919 85.6673 225.631 85.7473 225.375 85.7473C224.751 85.7473 224.351 85.3793 224.351 84.4833V81.2993H226.255V79.4593H224.351V77.3473H222.399L222.127 79.4593L220.911 79.5553V81.2993H221.999V84.5153ZM226.934 83.4273C226.934 86.0513 228.678 87.5873 230.95 87.5873C231.894 87.5873 232.95 87.2513 233.766 86.6913L232.982 85.2673C232.406 85.6193 231.862 85.7953 231.27 85.7953C230.214 85.7953 229.414 85.2673 229.206 84.0673H233.958C234.006 83.8753 234.054 83.4913 234.054 83.0753C234.054 80.9153 232.934 79.2673 230.678 79.2673C228.774 79.2673 226.934 80.8513 226.934 83.4273ZM229.19 82.6113C229.35 81.5553 229.99 81.0593 230.726 81.0593C231.67 81.0593 232.054 81.6993 232.054 82.6113H229.19ZM235.429 87.3953H237.781V82.0353C238.293 81.5393 238.661 81.2673 239.253 81.2673C239.925 81.2673 240.229 81.6193 240.229 82.7713V87.3953H242.581V82.4673C242.581 80.4833 241.845 79.2673 240.117 79.2673C239.045 79.2673 238.245 79.8273 237.573 80.4673H237.509L237.349 79.4593H235.429V87.3953ZM244.655 84.5153C244.655 86.3553 245.423 87.5873 247.391 87.5873C248.159 87.5873 248.735 87.4273 249.151 87.2993L248.783 85.5873C248.575 85.6673 248.287 85.7473 248.031 85.7473C247.407 85.7473 247.007 85.3793 247.007 84.4833V81.2993H248.911V79.4593H247.007V77.3473H245.055L244.783 79.4593L243.567 79.5553V81.2993H244.655V84.5153Z" fill="#009CDE"/>
<path d="M294.241 82.6231C293.461 82.3425 292.602 82.7468 292.321 83.5263C292.04 84.3057 292.445 85.1651 293.224 85.4457L294.241 82.6231ZM344.394 135.712C344.768 136.451 345.67 136.747 346.41 136.373C347.149 135.999 347.445 135.097 347.071 134.357L344.394 135.712ZM294.583 85.9942C295.34 86.3294 296.226 85.9871 296.562 85.2296C296.897 84.472 296.555 83.5861 295.797 83.2508L294.583 85.9942ZM302.446 86.9587C301.75 86.5086 300.822 86.7075 300.371 87.4029C299.921 88.0984 300.12 89.0271 300.816 89.4772L302.446 86.9587ZM303.396 91.218C304.075 91.6932 305.01 91.5283 305.485 90.8498C305.961 90.1712 305.796 89.2359 305.117 88.7606L303.396 91.218ZM311.097 93.2491C310.449 92.7326 309.506 92.839 308.989 93.4867C308.473 94.1345 308.579 95.0782 309.227 95.5947L311.097 93.2491ZM311.659 97.5782C312.296 98.1085 313.242 98.0225 313.772 97.3861C314.302 96.7496 314.216 95.8038 313.58 95.2735L311.659 97.5782ZM319.193 100.173C318.581 99.6146 317.633 99.6582 317.074 100.27C316.516 100.882 316.56 101.831 317.172 102.389L319.193 100.173ZM319.471 104.526C320.073 105.095 321.022 105.069 321.592 104.467C322.161 103.865 322.135 102.916 321.533 102.346L319.471 104.526ZM326.834 107.577C326.257 106.983 325.308 106.969 324.713 107.547C324.119 108.124 324.105 109.073 324.683 109.668L326.834 107.577ZM326.848 111.938C327.414 112.543 328.363 112.574 328.968 112.008C329.573 111.442 329.604 110.493 329.038 109.888L326.848 111.938ZM334.006 115.448C333.469 114.817 332.522 114.741 331.891 115.278C331.26 115.815 331.184 116.761 331.721 117.392L334.006 115.448ZM333.723 119.799C334.246 120.441 335.19 120.539 335.833 120.016C336.476 119.494 336.574 118.549 336.051 117.906L333.723 119.799ZM340.594 123.845C340.112 123.171 339.175 123.016 338.501 123.498C337.828 123.98 337.672 124.917 338.154 125.591L340.594 123.845ZM339.93 128.155C340.39 128.844 341.321 129.029 342.01 128.569C342.699 128.108 342.884 127.177 342.424 126.488L339.93 128.155ZM346.324 132.927C345.931 132.198 345.021 131.925 344.292 132.318C343.562 132.711 343.29 133.62 343.682 134.35L346.324 132.927ZM293.224 85.4457C293.649 85.5987 294.102 85.7815 294.583 85.9942L295.797 83.2508C295.261 83.0135 294.741 82.8033 294.241 82.6231L293.224 85.4457ZM300.816 89.4772C301.65 90.0171 302.511 90.5983 303.396 91.218L305.117 88.7606C304.205 88.1218 303.313 87.52 302.446 86.9587L300.816 89.4772ZM309.227 95.5947C310.029 96.2346 310.841 96.8964 311.659 97.5782L313.58 95.2735C312.745 94.5782 311.917 93.9028 311.097 93.2491L309.227 95.5947ZM317.172 102.389C317.938 103.088 318.705 103.801 319.471 104.526L321.533 102.346C320.754 101.609 319.973 100.884 319.193 100.173L317.172 102.389ZM324.683 109.668C325.41 110.417 326.133 111.174 326.848 111.938L329.038 109.888C328.31 109.11 327.575 108.339 326.834 107.577L324.683 109.668ZM331.721 117.392C332.401 118.191 333.069 118.994 333.723 119.799L336.051 117.906C335.382 117.083 334.7 116.263 334.006 115.448L331.721 117.392ZM338.154 125.591C338.767 126.447 339.36 127.303 339.93 128.155L342.424 126.488C341.835 125.608 341.224 124.726 340.594 123.845L338.154 125.591ZM343.682 134.35C343.928 134.806 344.166 135.26 344.394 135.712L347.071 134.357C346.83 133.882 346.581 133.405 346.324 132.927L343.682 134.35Z" fill="#6A6A6A"/>
<path d="M351.732 129.882L348.885 140.507L338.26 137.66" stroke="#6A6A6A" stroke-width="3" stroke-linecap="round" stroke-linejoin="round"/>
<circle cx="88.25" cy="206" r="53.5" fill="white" stroke="#2B2B2B" stroke-width="3"/>
<path d="M67.8182 201.395H70.8902C73.9462 201.395 75.9942 199.715 75.9942 196.131C75.9942 192.547 73.9462 190.963 70.7622 190.963H67.8182V201.395ZM70.1702 199.491V192.867H70.6182C72.3942 192.867 73.5782 193.635 73.5782 196.131C73.5782 198.627 72.3942 199.491 70.6182 199.491H70.1702ZM77.0685 197.427C77.0685 200.051 78.8125 201.587 81.0845 201.587C82.0285 201.587 83.0845 201.251 83.9005 200.691L83.1165 199.267C82.5405 199.619 81.9965 199.795 81.4045 199.795C80.3485 199.795 79.5485 199.267 79.3405 198.067H84.0925C84.1405 197.875 84.1885 197.491 84.1885 197.075C84.1885 194.915 83.0685 193.267 80.8125 193.267C78.9085 193.267 77.0685 194.851 77.0685 197.427ZM79.3245 196.611C79.4845 195.555 80.1245 195.059 80.8605 195.059C81.8045 195.059 82.1885 195.699 82.1885 196.611H79.3245ZM84.8597 200.483C85.6597 201.139 86.8597 201.587 87.8997 201.587C90.0277 201.587 91.1637 200.467 91.1637 199.027C91.1637 197.571 90.0277 197.011 89.0197 196.643C88.2037 196.339 87.4677 196.147 87.4677 195.635C87.4677 195.235 87.7557 195.011 88.3637 195.011C88.9237 195.011 89.4677 195.267 90.0437 195.683L91.0997 194.275C90.4117 193.763 89.5157 193.267 88.2997 193.267C86.4597 193.267 85.2597 194.275 85.2597 195.747C85.2597 197.059 86.3957 197.715 87.3557 198.083C88.1717 198.403 88.9717 198.643 88.9717 199.171C88.9717 199.587 88.6677 199.843 87.9637 199.843C87.2917 199.843 86.6357 199.555 85.9157 199.011L84.8597 200.483ZM93.5755 192.291C94.3755 192.291 94.9355 191.779 94.9355 191.059C94.9355 190.339 94.3755 189.843 93.5755 189.843C92.7915 189.843 92.2155 190.339 92.2155 191.059C92.2155 191.779 92.7915 192.291 93.5755 192.291ZM92.4075 201.395H94.7595V193.459H92.4075V201.395ZM98.0194 202.387C98.0194 202.099 98.1634 201.859 98.4514 201.603C98.7074 201.667 99.0274 201.699 99.5714 201.699H100.387C101.171 201.699 101.603 201.827 101.603 202.323C101.603 202.867 100.835 203.299 99.7794 203.299C98.7234 203.299 98.0194 202.979 98.0194 202.387ZM96.0834 202.755C96.0834 204.163 97.5554 204.771 99.4114 204.771C102.131 204.771 103.843 203.571 103.843 201.923C103.843 200.499 102.771 199.907 100.819 199.907H99.5394C98.6594 199.907 98.3394 199.715 98.3394 199.315C98.3394 199.043 98.4194 198.899 98.6274 198.723C98.9794 198.835 99.2994 198.883 99.5874 198.883C101.331 198.883 102.707 198.035 102.707 196.211C102.707 195.795 102.595 195.411 102.451 195.171H103.715V193.459H100.819C100.467 193.331 100.035 193.267 99.5874 193.267C97.8754 193.267 96.3074 194.227 96.3074 196.131C96.3074 197.059 96.8194 197.811 97.3794 198.195V198.259C96.8674 198.611 96.4834 199.171 96.4834 199.747C96.4834 200.403 96.8034 200.819 97.2194 201.091V201.155C96.4834 201.571 96.0834 202.099 96.0834 202.755ZM99.5874 197.459C98.9634 197.459 98.4994 197.011 98.4994 196.131C98.4994 195.283 98.9634 194.851 99.5874 194.851C100.211 194.851 100.675 195.299 100.675 196.131C100.675 197.011 100.211 197.459 99.5874 197.459ZM104.876 201.395H107.228V196.035C107.74 195.539 108.108 195.267 108.7 195.267C109.372 195.267 109.676 195.619 109.676 196.771V201.395H112.028V196.467C112.028 194.483 111.292 193.267 109.564 193.267C108.492 193.267 107.692 193.827 107.02 194.467H106.956L106.796 193.459H104.876V201.395Z" fill="#009CDE"/>
<path d="M60.4325 221.395H61.7605V217.235H63.6485C65.9525 217.235 67.5205 216.195 67.5205 213.987C67.5205 211.683 65.9685 210.899 63.6485 210.899H60.4325V221.395ZM61.7605 216.147V211.971H63.4885C65.2965 211.971 66.1925 212.467 66.1925 213.987C66.1925 215.475 65.3125 216.147 63.4885 216.147H61.7605ZM69.2732 221.395H70.5852V216.403C71.1132 215.091 71.8972 214.611 72.5532 214.611C72.8732 214.611 73.0492 214.659 73.3052 214.739L73.5612 213.587C73.3052 213.475 73.0652 213.427 72.7292 213.427C71.8492 213.427 71.0492 214.051 70.5212 215.027H70.4732L70.3612 213.619H69.2732V221.395ZM73.8379 217.523C73.8379 220.099 75.5339 221.587 77.4379 221.587C79.3419 221.587 81.0379 220.099 81.0379 217.523C81.0379 214.915 79.3419 213.427 77.4379 213.427C75.5339 213.427 73.8379 214.915 73.8379 217.523ZM75.1979 217.523C75.1979 215.731 76.1099 214.515 77.4379 214.515C78.7819 214.515 79.6779 215.731 79.6779 217.523C79.6779 219.299 78.7819 220.499 77.4379 220.499C76.1099 220.499 75.1979 219.299 75.1979 217.523ZM82.2757 217.523C82.2757 220.115 83.5397 221.587 85.4917 221.587C86.4037 221.587 87.2357 221.075 87.8437 220.483H87.8917L88.0037 221.395H89.0917V210.003H87.7637V212.995L87.8277 214.323C87.1397 213.763 86.5477 213.427 85.6517 213.427C83.8757 213.427 82.2757 214.995 82.2757 217.523ZM83.6357 217.507C83.6357 215.731 84.6277 214.531 85.8757 214.531C86.5157 214.531 87.1077 214.755 87.7637 215.347V219.411C87.1237 220.131 86.4997 220.483 85.7797 220.483C84.4197 220.483 83.6357 219.363 83.6357 217.507ZM91.3487 218.547C91.3487 220.531 92.0847 221.587 93.7327 221.587C94.8047 221.587 95.5727 221.027 96.2927 220.179H96.3407L96.4527 221.395H97.5407V213.619H96.2287V219.139C95.4927 220.051 94.9327 220.451 94.1327 220.451C93.1087 220.451 92.6767 219.827 92.6767 218.371V213.619H91.3487V218.547ZM99.3379 217.523C99.3379 220.099 100.922 221.587 102.986 221.587C103.914 221.587 104.81 221.203 105.514 220.579L104.922 219.715C104.458 220.131 103.834 220.499 103.098 220.499C101.674 220.499 100.698 219.299 100.698 217.523C100.698 215.731 101.722 214.515 103.13 214.515C103.754 214.515 104.234 214.803 104.698 215.203L105.354 214.355C104.826 213.859 104.106 213.427 103.082 213.427C101.082 213.427 99.3379 214.915 99.3379 217.523ZM107.185 218.995C107.185 220.531 107.745 221.587 109.409 221.587C109.889 221.587 110.417 221.443 110.849 221.299L110.593 220.307C110.337 220.403 109.985 220.515 109.713 220.515C108.817 220.515 108.513 219.971 108.513 219.011V214.691H110.609V213.619H108.513V211.443H107.409L107.249 213.619L106.033 213.699V214.691H107.185V218.995ZM111.253 220.515C111.989 221.123 113.045 221.587 114.149 221.587C115.989 221.587 116.997 220.531 116.997 219.267C116.997 217.795 115.749 217.331 114.629 216.915C113.749 216.579 112.901 216.307 112.901 215.571C112.901 214.979 113.349 214.451 114.325 214.451C115.013 214.451 115.573 214.739 116.101 215.139L116.725 214.307C116.133 213.827 115.285 213.427 114.309 213.427C112.629 213.427 111.637 214.387 111.637 215.635C111.637 216.947 112.853 217.475 113.957 217.875C114.805 218.195 115.733 218.547 115.733 219.347C115.733 220.019 115.221 220.563 114.197 220.563C113.269 220.563 112.581 220.179 111.909 219.635L111.253 220.515Z" fill="#2B2B2B"/>
<circle cx="222.25" cy="206" r="55" fill="#2B2B2B"/>
<path d="M209.518 201.396H210.846V190.9H209.518V201.396ZM212.255 201.396H213.631L214.687 199.588C214.943 199.108 215.199 198.644 215.471 198.196H215.535C215.823 198.644 216.111 199.124 216.383 199.588L217.519 201.396H218.943L216.415 197.476L218.767 193.62H217.391L216.447 195.332C216.207 195.748 215.967 196.196 215.743 196.628H215.679C215.407 196.196 215.151 195.748 214.911 195.332L213.871 193.62H212.447L214.799 197.332L212.255 201.396ZM220.362 201.396H223.05C226.218 201.396 227.946 199.444 227.946 196.1C227.946 192.772 226.218 190.9 222.986 190.9H220.362V201.396ZM221.69 200.308V191.988H222.89C225.338 191.988 226.57 193.46 226.57 196.1C226.57 198.756 225.338 200.308 222.89 200.308H221.69ZM229.955 201.396H231.283V196.692H235.283V195.572H231.283V192.02H236.003V190.9H229.955V201.396Z" fill="white"/>
<path d="M197.286 220.084C198.342 221.076 199.782 221.588 201.142 221.588C203.638 221.588 205.078 220.084 205.078 218.356C205.078 216.884 204.278 216.036 203.014 215.524L201.67 214.98C200.774 214.612 200.086 214.388 200.086 213.748C200.086 213.156 200.598 212.804 201.414 212.804C202.246 212.804 202.886 213.108 203.574 213.636L204.774 212.148C203.878 211.252 202.614 210.772 201.414 210.772C199.238 210.772 197.702 212.148 197.702 213.876C197.702 215.396 198.726 216.292 199.798 216.724L201.158 217.3C202.07 217.684 202.662 217.892 202.662 218.548C202.662 219.172 202.182 219.556 201.206 219.556C200.342 219.556 199.382 219.108 198.63 218.468L197.286 220.084ZM206.583 222.548L206.167 224.34C206.487 224.436 206.807 224.5 207.287 224.5C209.159 224.5 210.007 223.476 210.759 221.476L213.511 213.46H211.255L210.295 216.868C210.103 217.62 209.927 218.372 209.751 219.124H209.687C209.479 218.34 209.287 217.588 209.063 216.868L207.927 213.46H205.559L208.615 221.188L208.503 221.604C208.295 222.228 207.895 222.644 207.111 222.644C206.935 222.644 206.727 222.58 206.583 222.548ZM213.797 220.484C214.597 221.14 215.797 221.588 216.837 221.588C218.965 221.588 220.101 220.468 220.101 219.028C220.101 217.572 218.965 217.012 217.957 216.644C217.141 216.34 216.405 216.148 216.405 215.636C216.405 215.236 216.693 215.012 217.301 215.012C217.861 215.012 218.405 215.268 218.981 215.684L220.037 214.276C219.349 213.764 218.453 213.268 217.237 213.268C215.397 213.268 214.197 214.276 214.197 215.748C214.197 217.06 215.333 217.716 216.293 218.084C217.109 218.404 217.909 218.644 217.909 219.172C217.909 219.588 217.605 219.844 216.901 219.844C216.229 219.844 215.573 219.556 214.853 219.012L213.797 220.484ZM221.664 218.516C221.664 220.356 222.432 221.588 224.4 221.588C225.168 221.588 225.744 221.428 226.16 221.3L225.792 219.588C225.584 219.668 225.296 219.748 225.04 219.748C224.416 219.748 224.016 219.38 224.016 218.484V215.3H225.92V213.46H224.016V211.348H222.064L221.792 213.46L220.576 213.556V215.3H221.664V218.516ZM226.599 217.428C226.599 220.052 228.343 221.588 230.615 221.588C231.559 221.588 232.615 221.252 233.431 220.692L232.647 219.268C232.071 219.62 231.527 219.796 230.935 219.796C229.879 219.796 229.079 219.268 228.871 218.068H233.623C233.671 217.876 233.719 217.492 233.719 217.076C233.719 214.916 232.599 213.268 230.343 213.268C228.439 213.268 226.599 214.852 226.599 217.428ZM228.855 216.612C229.015 215.556 229.655 215.06 230.391 215.06C231.335 215.06 231.719 215.7 231.719 216.612H228.855ZM235.094 221.396H237.446V216.036C237.942 215.524 238.406 215.268 238.79 215.268C239.462 215.268 239.766 215.62 239.766 216.772V221.396H242.118V216.036C242.63 215.524 243.078 215.268 243.478 215.268C244.15 215.268 244.454 215.62 244.454 216.772V221.396H246.806V216.468C246.806 214.484 246.038 213.268 244.326 213.268C243.27 213.268 242.534 213.876 241.83 214.596C241.43 213.748 240.758 213.268 239.638 213.268C238.598 213.268 237.894 213.828 237.238 214.484H237.174L237.014 213.46H235.094V221.396Z" fill="#009CDE"/>
<circle cx="356.25" cy="206" r="53.5" fill="white" stroke="#2B2B2B" stroke-width="3"/>
<path d="M313.862 196.599C313.862 200.541 316.346 202.611 319.388 202.611C320.846 202.611 322.142 202.017 323.114 200.883L321.656 199.281C321.08 199.911 320.378 200.325 319.424 200.325C317.696 200.325 316.58 198.921 316.58 196.509C316.58 194.151 317.858 192.729 319.496 192.729C320.306 192.729 320.882 193.071 321.476 193.611L322.934 191.973C322.142 191.163 320.918 190.443 319.46 190.443C316.436 190.443 313.862 192.711 313.862 196.599ZM323.909 197.931C323.909 200.901 325.997 202.611 328.265 202.611C330.515 202.611 332.603 200.901 332.603 197.931C332.603 194.961 330.515 193.251 328.265 193.251C325.997 193.251 323.909 194.961 323.909 197.931ZM326.627 197.931C326.627 196.383 327.167 195.393 328.265 195.393C329.345 195.393 329.903 196.383 329.903 197.931C329.903 199.479 329.345 200.469 328.265 200.469C327.167 200.469 326.627 199.479 326.627 197.931ZM333.643 197.931C333.643 200.901 335.731 202.611 337.999 202.611C340.249 202.611 342.337 200.901 342.337 197.931C342.337 194.961 340.249 193.251 337.999 193.251C335.731 193.251 333.643 194.961 333.643 197.931ZM336.361 197.931C336.361 196.383 336.901 195.393 337.999 195.393C339.079 195.393 339.637 196.383 339.637 197.931C339.637 199.479 339.079 200.469 337.999 200.469C336.901 200.469 336.361 199.479 336.361 197.931ZM343.9 202.395H346.546V197.211C347.014 196.005 347.842 195.573 348.508 195.573C348.886 195.573 349.156 195.627 349.48 195.717L349.912 193.431C349.66 193.323 349.354 193.251 348.85 193.251C347.932 193.251 346.96 193.827 346.312 195.033H346.24L346.06 193.467H343.9V202.395ZM350.178 197.931C350.178 200.847 351.618 202.611 353.832 202.611C354.696 202.611 355.578 202.143 356.208 201.513H356.28L356.46 202.395H358.62V189.777H355.974V192.819L356.082 194.187C355.47 193.611 354.876 193.251 353.886 193.251C351.996 193.251 350.178 195.015 350.178 197.931ZM352.896 197.895C352.896 196.203 353.652 195.411 354.498 195.411C354.984 195.411 355.506 195.555 355.974 195.987V199.641C355.542 200.235 355.092 200.451 354.516 200.451C353.49 200.451 352.896 199.659 352.896 197.895ZM362.028 192.153C362.928 192.153 363.558 191.577 363.558 190.767C363.558 189.957 362.928 189.399 362.028 189.399C361.146 189.399 360.498 189.957 360.498 190.767C360.498 191.577 361.146 192.153 362.028 192.153ZM360.714 202.395H363.36V193.467H360.714V202.395ZM365.439 202.395H368.085V196.365C368.661 195.807 369.075 195.501 369.741 195.501C370.497 195.501 370.839 195.897 370.839 197.193V202.395H373.485V196.851C373.485 194.619 372.657 193.251 370.713 193.251C369.507 193.251 368.607 193.881 367.851 194.601H367.779L367.599 193.467H365.439V202.395ZM375.166 199.911C375.166 201.423 376.192 202.611 377.812 202.611C378.82 202.611 379.666 202.143 380.422 201.477H380.476L380.674 202.395H382.834V197.283C382.834 194.547 381.574 193.251 379.288 193.251C377.884 193.251 376.606 193.737 375.472 194.421L376.408 196.167C377.272 195.663 378.028 195.357 378.784 195.357C379.738 195.357 380.134 195.861 380.188 196.653C376.66 197.013 375.166 198.039 375.166 199.911ZM377.686 199.713C377.686 199.029 378.298 198.489 380.188 198.237V199.803C379.72 200.271 379.324 200.559 378.712 200.559C378.082 200.559 377.686 200.289 377.686 199.713ZM385.215 199.155C385.215 201.225 386.079 202.611 388.293 202.611C389.157 202.611 389.805 202.431 390.273 202.287L389.859 200.361C389.625 200.451 389.301 200.541 389.013 200.541C388.311 200.541 387.861 200.127 387.861 199.119V195.537H390.003V193.467H387.861V191.091H385.665L385.359 193.467L383.991 193.575V195.537H385.215V199.155ZM390.798 197.931C390.798 200.883 392.76 202.611 395.316 202.611C396.378 202.611 397.566 202.233 398.484 201.603L397.602 200.001C396.954 200.397 396.342 200.595 395.676 200.595C394.488 200.595 393.588 200.001 393.354 198.651H398.7C398.754 198.435 398.808 198.003 398.808 197.535C398.808 195.105 397.548 193.251 395.01 193.251C392.868 193.251 390.798 195.033 390.798 197.931ZM393.336 197.013C393.516 195.825 394.236 195.267 395.064 195.267C396.126 195.267 396.558 195.987 396.558 197.013H393.336Z" fill="#009CDE"/>
<path d="M336.464 222.395H342.672V221.259H337.792V217.451H341.776V216.315H337.792V213.019H342.512V211.899H336.464V222.395ZM348.315 211.067C347.963 210.923 347.499 210.811 347.019 210.811C345.467 210.811 344.747 211.803 344.747 213.387V214.619L343.691 214.699V215.691H344.747V222.395H346.059V215.691H347.707V214.619H346.059V213.387C346.059 212.395 346.411 211.883 347.147 211.883C347.435 211.883 347.739 211.947 348.027 212.075L348.315 211.067ZM352.737 211.067C352.385 210.923 351.921 210.811 351.441 210.811C349.889 210.811 349.169 211.803 349.169 213.387V214.619L348.113 214.699V215.691H349.169V222.395H350.481V215.691H352.129V214.619H350.481V213.387C350.481 212.395 350.833 211.883 351.569 211.883C351.857 211.883 352.161 211.947 352.449 212.075L352.737 211.067ZM352.635 218.523C352.635 221.099 354.331 222.587 356.235 222.587C358.139 222.587 359.835 221.099 359.835 218.523C359.835 215.915 358.139 214.427 356.235 214.427C354.331 214.427 352.635 215.915 352.635 218.523ZM353.995 218.523C353.995 216.731 354.907 215.515 356.235 215.515C357.579 215.515 358.475 216.731 358.475 218.523C358.475 220.299 357.579 221.499 356.235 221.499C354.907 221.499 353.995 220.299 353.995 218.523ZM361.633 222.395H362.945V217.403C363.473 216.091 364.257 215.611 364.913 215.611C365.233 215.611 365.409 215.659 365.665 215.739L365.921 214.587C365.665 214.475 365.425 214.427 365.089 214.427C364.209 214.427 363.409 215.051 362.881 216.027H362.833L362.721 214.619H361.633V222.395ZM367.153 219.995C367.153 221.531 367.713 222.587 369.377 222.587C369.857 222.587 370.385 222.443 370.817 222.299L370.561 221.307C370.305 221.403 369.953 221.515 369.681 221.515C368.785 221.515 368.481 220.971 368.481 220.011V215.691H370.577V214.619H368.481V212.443H367.377L367.217 214.619L366.001 214.699V215.691H367.153V219.995ZM371.222 221.515C371.958 222.123 373.014 222.587 374.118 222.587C375.958 222.587 376.966 221.531 376.966 220.267C376.966 218.795 375.718 218.331 374.598 217.915C373.718 217.579 372.87 217.307 372.87 216.571C372.87 215.979 373.318 215.451 374.294 215.451C374.982 215.451 375.542 215.739 376.07 216.139L376.694 215.307C376.102 214.827 375.254 214.427 374.278 214.427C372.598 214.427 371.606 215.387 371.606 216.635C371.606 217.947 372.822 218.475 373.926 218.875C374.774 219.195 375.702 219.547 375.702 220.347C375.702 221.019 375.19 221.563 374.166 221.563C373.238 221.563 372.55 221.179 371.878 220.635L371.222 221.515Z" fill="#2B2B2B"/>
<path d="M150.25 328.966C137.977 324.547 108.932 299.083 98.25 277.966" stroke="#6A6A6A" stroke-width="3" stroke-linecap="round" stroke-linejoin="round" stroke-dasharray="3 7"/>
<path d="M92.25 283.118L95.097 272.493L105.722 275.34" stroke="#6A6A6A" stroke-width="3" stroke-linecap="round" stroke-linejoin="round"/>
<path d="M152.875 321.493L155.722 332.118L145.097 334.965" stroke="#6A6A6A" stroke-width="3" stroke-linecap="round" stroke-linejoin="round"/>
<circle cx="222.25" cy="340" r="53.5" fill="white" stroke="#2B2B2B" stroke-width="3"/>
<path d="M195.482 335.395H198.554C201.61 335.395 203.658 333.715 203.658 330.131C203.658 326.547 201.61 324.963 198.426 324.963H195.482V335.395ZM197.834 333.491V326.867H198.282C200.058 326.867 201.242 327.635 201.242 330.131C201.242 332.627 200.058 333.491 198.282 333.491H197.834ZM204.733 331.427C204.733 334.051 206.477 335.587 208.749 335.587C209.693 335.587 210.749 335.251 211.565 334.691L210.781 333.267C210.205 333.619 209.661 333.795 209.069 333.795C208.013 333.795 207.213 333.267 207.005 332.067H211.757C211.805 331.875 211.853 331.491 211.853 331.075C211.853 328.915 210.733 327.267 208.477 327.267C206.573 327.267 204.733 328.851 204.733 331.427ZM206.989 330.611C207.149 329.555 207.789 329.059 208.525 329.059C209.469 329.059 209.853 329.699 209.853 330.611H206.989ZM214.958 335.395H217.678L220.27 327.459H218.014L216.974 331.203C216.766 331.987 216.558 332.819 216.366 333.651H216.302C216.094 332.819 215.886 331.987 215.678 331.203L214.654 327.459H212.286L214.958 335.395ZM220.67 331.427C220.67 334.051 222.414 335.587 224.686 335.587C225.63 335.587 226.686 335.251 227.502 334.691L226.718 333.267C226.142 333.619 225.598 333.795 225.006 333.795C223.95 333.795 223.15 333.267 222.942 332.067H227.694C227.742 331.875 227.79 331.491 227.79 331.075C227.79 328.915 226.67 327.267 224.414 327.267C222.51 327.267 220.67 328.851 220.67 331.427ZM222.926 330.611C223.086 329.555 223.726 329.059 224.462 329.059C225.406 329.059 225.79 329.699 225.79 330.611H222.926ZM229.165 332.931C229.165 334.531 229.709 335.587 231.325 335.587C231.853 335.587 232.253 335.507 232.509 335.395L232.221 333.651C232.093 333.683 232.029 333.683 231.933 333.683C231.741 333.683 231.517 333.523 231.517 333.027V324.179H229.165V332.931ZM233.029 331.427C233.029 334.067 234.885 335.587 236.901 335.587C238.901 335.587 240.757 334.067 240.757 331.427C240.757 328.787 238.901 327.267 236.901 327.267C234.885 327.267 233.029 328.787 233.029 331.427ZM235.445 331.427C235.445 330.051 235.925 329.171 236.901 329.171C237.861 329.171 238.357 330.051 238.357 331.427C238.357 332.803 237.861 333.683 236.901 333.683C235.925 333.683 235.445 332.803 235.445 331.427ZM244.39 334.755C244.95 335.283 245.59 335.587 246.278 335.587C247.99 335.587 249.622 334.019 249.622 331.299C249.622 328.851 248.438 327.267 246.518 327.267C245.686 327.267 244.886 327.683 244.262 328.243H244.198L244.038 327.459H242.118V338.339H244.47V336.019L244.39 334.755ZM244.47 333.155V329.907C244.934 329.411 245.35 329.187 245.83 329.187C246.774 329.187 247.206 329.907 247.206 331.331C247.206 332.963 246.55 333.667 245.734 333.667C245.334 333.667 244.886 333.539 244.47 333.155Z" fill="#009CDE"/>
<path d="M193.727 354.035C194.639 354.979 195.935 355.587 197.407 355.587C199.615 355.587 200.975 354.259 200.975 352.595C200.975 351.043 200.031 350.323 198.815 349.795L197.327 349.155C196.495 348.803 195.583 348.419 195.583 347.411C195.583 346.467 196.367 345.875 197.535 345.875C198.511 345.875 199.279 346.259 199.919 346.867L200.639 346.003C199.887 345.235 198.783 344.707 197.535 344.707C195.631 344.707 194.239 345.891 194.239 347.491C194.239 349.027 195.375 349.779 196.367 350.195L197.871 350.851C198.863 351.299 199.615 351.635 199.615 352.707C199.615 353.731 198.799 354.419 197.423 354.419C196.335 354.419 195.279 353.891 194.527 353.107L193.727 354.035ZM202.088 351.523C202.088 354.099 203.784 355.587 205.688 355.587C207.592 355.587 209.288 354.099 209.288 351.523C209.288 348.915 207.592 347.427 205.688 347.427C203.784 347.427 202.088 348.915 202.088 351.523ZM203.448 351.523C203.448 349.731 204.36 348.515 205.688 348.515C207.032 348.515 207.928 349.731 207.928 351.523C207.928 353.299 207.032 354.499 205.688 354.499C204.36 354.499 203.448 353.299 203.448 351.523ZM214.878 344.067C214.526 343.923 214.062 343.811 213.582 343.811C212.03 343.811 211.31 344.803 211.31 346.387V347.619L210.254 347.699V348.691H211.31V355.395H212.622V348.691H214.27V347.619H212.622V346.387C212.622 345.395 212.974 344.883 213.71 344.883C213.998 344.883 214.302 344.947 214.59 345.075L214.878 344.067ZM215.732 352.995C215.732 354.531 216.292 355.587 217.956 355.587C218.436 355.587 218.964 355.443 219.396 355.299L219.14 354.307C218.884 354.403 218.532 354.515 218.26 354.515C217.364 354.515 217.06 353.971 217.06 353.011V348.691H219.156V347.619H217.06V345.443H215.956L215.796 347.619L214.58 347.699V348.691H215.732V352.995ZM221.896 355.395H223.432L224.52 351.235C224.728 350.499 224.888 349.763 225.064 348.979H225.128C225.32 349.763 225.464 350.483 225.656 351.219L226.776 355.395H228.376L230.456 347.619H229.208L228.072 352.115C227.912 352.851 227.768 353.555 227.592 354.275H227.528C227.352 353.555 227.176 352.851 226.984 352.115L225.768 347.619H224.488L223.288 352.115C223.096 352.835 222.936 353.555 222.76 354.275H222.696C222.552 353.555 222.408 352.851 222.232 352.115L221.08 347.619H219.736L221.896 355.395ZM231.358 353.379C231.358 354.771 232.334 355.587 233.646 355.587C234.606 355.587 235.47 355.075 236.222 354.467H236.254L236.366 355.395H237.454V350.627C237.454 348.691 236.654 347.427 234.75 347.427C233.502 347.427 232.414 347.971 231.694 348.435L232.222 349.347C232.83 348.931 233.63 348.515 234.542 348.515C235.806 348.515 236.142 349.475 236.142 350.467C232.83 350.835 231.358 351.683 231.358 353.379ZM232.654 353.283C232.654 352.291 233.534 351.651 236.142 351.331V353.491C235.39 354.163 234.766 354.531 234.014 354.531C233.246 354.531 232.654 354.163 232.654 353.283ZM239.679 355.395H240.991V350.403C241.519 349.091 242.303 348.611 242.959 348.611C243.279 348.611 243.455 348.659 243.711 348.739L243.967 347.587C243.711 347.475 243.471 347.427 243.135 347.427C242.255 347.427 241.455 348.051 240.927 349.027H240.879L240.767 347.619H239.679V355.395ZM244.244 351.523C244.244 354.067 245.892 355.587 247.972 355.587C249.028 355.587 249.86 355.219 250.532 354.787L250.068 353.923C249.492 354.291 248.868 354.531 248.132 354.531C246.644 354.531 245.636 353.475 245.54 351.795H250.788C250.82 351.603 250.836 351.347 250.836 351.075C250.836 348.851 249.716 347.427 247.732 347.427C245.956 347.427 244.244 348.979 244.244 351.523ZM245.524 350.931C245.684 349.363 246.676 348.467 247.764 348.467C248.98 348.467 249.684 349.347 249.684 350.931H245.524Z" fill="#2B2B2B"/>
<path d="M294.758 329.377C293.979 329.658 293.119 329.253 292.839 328.474C292.558 327.694 292.962 326.835 293.742 326.554L294.758 329.377ZM344.912 276.288C345.285 275.549 346.188 275.253 346.927 275.627C347.666 276.001 347.962 276.903 347.588 277.643L344.912 276.288ZM295.1 326.006C295.858 325.671 296.744 326.013 297.079 326.77C297.414 327.528 297.072 328.414 296.315 328.749L295.1 326.006ZM302.963 325.041C302.268 325.491 301.339 325.293 300.889 324.597C300.439 323.902 300.638 322.973 301.333 322.523L302.963 325.041ZM303.914 320.782C304.592 320.307 305.528 320.472 306.003 321.15C306.478 321.829 306.313 322.764 305.635 323.239L303.914 320.782ZM311.615 318.751C310.967 319.267 310.023 319.161 309.507 318.513C308.99 317.866 309.097 316.922 309.744 316.405L311.615 318.751ZM312.177 314.422C312.813 313.891 313.759 313.977 314.289 314.614C314.82 315.25 314.734 316.196 314.097 316.727L312.177 314.422ZM319.711 311.827C319.099 312.385 318.15 312.342 317.592 311.73C317.034 311.118 317.077 310.169 317.689 309.611L319.711 311.827ZM319.989 307.474C320.59 306.905 321.54 306.931 322.109 307.533C322.678 308.135 322.652 309.084 322.05 309.654L319.989 307.474ZM327.352 304.423C326.775 305.017 325.825 305.031 325.231 304.453C324.637 303.876 324.623 302.927 325.2 302.332L327.352 304.423ZM327.365 300.062C327.931 299.457 328.881 299.426 329.486 299.992C330.09 300.558 330.122 301.507 329.556 302.112L327.365 300.062ZM334.523 296.552C333.986 297.183 333.04 297.259 332.409 296.722C331.778 296.185 331.702 295.239 332.239 294.608L334.523 296.552ZM334.241 292.201C334.763 291.559 335.708 291.461 336.351 291.984C336.994 292.506 337.091 293.451 336.569 294.094L334.241 292.201ZM341.112 288.155C340.629 288.829 339.693 288.984 339.019 288.502C338.345 288.02 338.19 287.083 338.672 286.409L341.112 288.155ZM340.447 283.845C340.907 283.156 341.839 282.971 342.528 283.431C343.216 283.892 343.402 284.823 342.941 285.512L340.447 283.845ZM346.841 279.073C346.448 279.802 345.539 280.075 344.809 279.682C344.08 279.289 343.807 278.38 344.2 277.65L346.841 279.073ZM293.742 326.554C294.167 326.401 294.62 326.219 295.1 326.006L296.315 328.749C295.778 328.987 295.259 329.197 294.758 329.377L293.742 326.554ZM301.333 322.523C302.167 321.983 303.029 321.402 303.914 320.782L305.635 323.239C304.723 323.878 303.831 324.48 302.963 325.041L301.333 322.523ZM309.744 316.405C310.547 315.765 311.359 315.104 312.177 314.422L314.097 316.727C313.263 317.422 312.435 318.097 311.615 318.751L309.744 316.405ZM317.689 309.611C318.456 308.912 319.223 308.199 319.989 307.474L322.05 309.654C321.271 310.391 320.491 311.116 319.711 311.827L317.689 309.611ZM325.2 302.332C325.928 301.583 326.65 300.826 327.365 300.062L329.556 302.112C328.828 302.89 328.093 303.661 327.352 304.423L325.2 302.332ZM332.239 294.608C332.918 293.809 333.586 293.006 334.241 292.201L336.569 294.094C335.9 294.917 335.217 295.737 334.523 296.552L332.239 294.608ZM338.672 286.409C339.285 285.553 339.877 284.697 340.447 283.845L342.941 285.512C342.353 286.392 341.742 287.274 341.112 288.155L338.672 286.409ZM344.2 277.65C344.446 277.194 344.683 276.74 344.912 276.288L347.588 277.643C347.348 278.118 347.099 278.595 346.841 279.073L344.2 277.65Z" fill="#6A6A6A"/>
<path d="M352.25 282.118L349.403 271.493L338.778 274.34" stroke="#6A6A6A" stroke-width="3" stroke-linecap="round" stroke-linejoin="round"/>
<path d="M423.25 207.5C422.422 207.5 421.75 206.828 421.75 206C421.75 205.172 422.422 204.5 423.25 204.5L423.25 207.5ZM517.811 204.939C518.396 205.525 518.396 206.475 517.811 207.061L508.265 216.607C507.679 217.192 506.729 217.192 506.143 216.607C505.558 216.021 505.558 215.071 506.143 214.485L514.629 206L506.143 197.515C505.558 196.929 505.558 195.979 506.143 195.393C506.729 194.808 507.679 194.808 508.265 195.393L517.811 204.939ZM425.198 204.5C426.026 204.5 426.698 205.172 426.698 206C426.698 206.828 426.026 207.5 425.198 207.5L425.198 204.5ZM432.99 207.5C432.161 207.5 431.49 206.828 431.49 206C431.49 205.172 432.161 204.5 432.99 204.5L432.99 207.5ZM436.885 204.5C437.714 204.5 438.385 205.172 438.385 206C438.385 206.828 437.714 207.5 436.885 207.5L436.885 204.5ZM444.677 207.5C443.849 207.5 443.177 206.828 443.177 206C443.177 205.172 443.849 204.5 444.677 204.5L444.677 207.5ZM448.573 204.5C449.401 204.5 450.073 205.172 450.073 206C450.073 206.828 449.401 207.5 448.573 207.5L448.573 204.5ZM456.365 207.5C455.536 207.5 454.865 206.828 454.865 206C454.865 205.172 455.536 204.5 456.365 204.5L456.365 207.5ZM460.26 204.5C461.089 204.5 461.76 205.172 461.76 206C461.76 206.828 461.089 207.5 460.26 207.5L460.26 204.5ZM468.052 207.5C467.224 207.5 466.552 206.828 466.552 206C466.552 205.172 467.224 204.5 468.052 204.5L468.052 207.5ZM471.948 204.5C472.776 204.5 473.448 205.172 473.448 206C473.448 206.828 472.776 207.5 471.948 207.5L471.948 204.5ZM479.74 207.5C478.911 207.5 478.24 206.828 478.24 206C478.24 205.172 478.911 204.5 479.74 204.5L479.74 207.5ZM483.635 204.5C484.464 204.5 485.135 205.172 485.135 206C485.135 206.828 484.464 207.5 483.635 207.5L483.635 204.5ZM491.427 207.5C490.599 207.5 489.927 206.828 489.927 206C489.927 205.172 490.599 204.5 491.427 204.5L491.427 207.5ZM495.323 204.5C496.151 204.5 496.823 205.172 496.823 206C496.823 206.828 496.151 207.5 495.323 207.5L495.323 204.5ZM503.115 207.5C502.286 207.5 501.615 206.828 501.615 206C501.615 205.172 502.286 204.5 503.115 204.5L503.115 207.5ZM507.01 204.5C507.839 204.5 508.51 205.172 508.51 206C508.51 206.828 507.839 207.5 507.01 207.5L507.01 204.5ZM514.802 207.5C513.974 207.5 513.302 206.828 513.302 206C513.302 205.172 513.974 204.5 514.802 204.5L514.802 207.5ZM423.25 204.5L425.198 204.5L425.198 207.5L423.25 207.5L423.25 204.5ZM432.99 204.5L436.885 204.5L436.885 207.5L432.99 207.5L432.99 204.5ZM444.677 204.5L448.573 204.5L448.573 207.5L444.677 207.5L444.677 204.5ZM456.365 204.5L460.26 204.5L460.26 207.5L456.365 207.5L456.365 204.5ZM468.052 204.5L471.948 204.5L471.948 207.5L468.052 207.5L468.052 204.5ZM479.74 204.5L483.635 204.5L483.635 207.5L479.74 207.5L479.74 204.5ZM491.427 204.5L495.323 204.5L495.323 207.5L491.427 207.5L491.427 204.5ZM503.115 204.5L507.01 204.5L507.01 207.5L503.115 207.5L503.115 204.5ZM514.802 204.5L516.75 204.5L516.75 207.5L514.802 207.5L514.802 204.5Z" fill="#6A6A6A"/>
<circle cx="583.75" cy="206" r="53.5" fill="white" stroke="#2B2B2B" stroke-width="3"/>
<path d="M548.674 195.123L549.17 193.523C549.554 192.355 549.89 191.203 550.21 189.987H550.274C550.61 191.203 550.946 192.355 551.33 193.523L551.826 195.123H548.674ZM553.154 199.395H554.578L551.026 188.899H549.522L545.97 199.395H547.33L548.338 196.195H552.162L553.154 199.395ZM555.111 195.523C555.111 198.099 556.695 199.587 558.759 199.587C559.687 199.587 560.583 199.203 561.287 198.579L560.695 197.715C560.231 198.131 559.607 198.499 558.871 198.499C557.447 198.499 556.471 197.299 556.471 195.523C556.471 193.731 557.495 192.515 558.903 192.515C559.527 192.515 560.007 192.803 560.471 193.203L561.127 192.355C560.599 191.859 559.879 191.427 558.855 191.427C556.855 191.427 555.111 192.915 555.111 195.523ZM562.734 199.395H564.046V193.763C564.83 192.979 565.374 192.563 566.174 192.563C567.198 192.563 567.646 193.187 567.646 194.643V199.395H568.958V194.467C568.958 192.483 568.222 191.427 566.59 191.427C565.518 191.427 564.734 192.003 563.998 192.707L564.046 191.107V188.003H562.734V199.395ZM571.859 190.019C572.371 190.019 572.771 189.667 572.771 189.171C572.771 188.659 572.371 188.323 571.859 188.323C571.347 188.323 570.947 188.659 570.947 189.171C570.947 189.667 571.347 190.019 571.859 190.019ZM571.187 199.395H572.499V191.619H571.187V199.395ZM574.299 195.523C574.299 198.067 575.947 199.587 578.027 199.587C579.083 199.587 579.915 199.219 580.587 198.787L580.123 197.923C579.547 198.291 578.923 198.531 578.187 198.531C576.699 198.531 575.691 197.475 575.595 195.795H580.843C580.875 195.603 580.891 195.347 580.891 195.075C580.891 192.851 579.771 191.427 577.787 191.427C576.011 191.427 574.299 192.979 574.299 195.523ZM575.579 194.931C575.739 193.363 576.731 192.467 577.819 192.467C579.035 192.467 579.739 193.347 579.739 194.931H575.579ZM584.32 199.395H585.856L588.608 191.619H587.312L585.84 196.035C585.616 196.803 585.36 197.587 585.136 198.323H585.072C584.832 197.587 584.576 196.803 584.352 196.035L582.88 191.619H581.52L584.32 199.395ZM589.221 195.523C589.221 198.067 590.869 199.587 592.949 199.587C594.005 199.587 594.837 199.219 595.509 198.787L595.045 197.923C594.469 198.291 593.845 198.531 593.109 198.531C591.621 198.531 590.613 197.475 590.517 195.795H595.765C595.797 195.603 595.813 195.347 595.813 195.075C595.813 192.851 594.693 191.427 592.709 191.427C590.933 191.427 589.221 192.979 589.221 195.523ZM590.501 194.931C590.661 193.363 591.653 192.467 592.741 192.467C593.957 192.467 594.661 193.347 594.661 194.931H590.501ZM599.893 195.523C599.893 198.099 601.589 199.587 603.493 199.587C605.397 199.587 607.093 198.099 607.093 195.523C607.093 192.915 605.397 191.427 603.493 191.427C601.589 191.427 599.893 192.915 599.893 195.523ZM601.253 195.523C601.253 193.731 602.165 192.515 603.493 192.515C604.837 192.515 605.733 193.731 605.733 195.523C605.733 197.299 604.837 198.499 603.493 198.499C602.165 198.499 601.253 197.299 601.253 195.523ZM608.778 196.547C608.778 198.531 609.514 199.587 611.162 199.587C612.234 199.587 613.002 199.027 613.722 198.179H613.77L613.882 199.395H614.97V191.619H613.658V197.139C612.922 198.051 612.362 198.451 611.562 198.451C610.538 198.451 610.106 197.827 610.106 196.371V191.619H608.778V196.547ZM617.344 199.395H618.656V194.403C619.184 193.091 619.968 192.611 620.624 192.611C620.944 192.611 621.12 192.659 621.376 192.739L621.632 191.587C621.376 191.475 621.136 191.427 620.8 191.427C619.92 191.427 619.12 192.051 618.592 193.027H618.544L618.432 191.619H617.344V199.395Z" fill="#2B2B2B"/>
<path d="M552.971 222.395H555.617V218.417H557.255C559.739 218.417 561.845 217.193 561.845 214.439C561.845 211.595 559.793 210.659 557.255 210.659H552.971V222.395ZM555.617 216.311V212.765H557.093C558.497 212.765 559.253 213.215 559.253 214.439C559.253 215.663 558.551 216.311 557.093 216.311H555.617ZM563.331 219.011C563.331 221.243 564.159 222.611 566.103 222.611C567.327 222.611 568.155 222.053 568.911 221.153H568.965L569.163 222.395H571.323V213.467H568.677V219.371C568.155 220.073 567.759 220.361 567.093 220.361C566.319 220.361 565.977 219.947 565.977 218.669V213.467H563.331V219.011ZM573.402 222.395H576.048V217.211C576.516 216.005 577.344 215.573 578.01 215.573C578.388 215.573 578.658 215.627 578.982 215.717L579.414 213.431C579.162 213.323 578.856 213.251 578.352 213.251C577.434 213.251 576.462 213.827 575.814 215.033H575.742L575.562 213.467H573.402V222.395ZM582.88 221.675C583.51 222.269 584.23 222.611 585.004 222.611C586.93 222.611 588.766 220.847 588.766 217.787C588.766 215.033 587.434 213.251 585.274 213.251C584.338 213.251 583.438 213.719 582.736 214.349H582.664L582.484 213.467H580.324V225.707H582.97V223.097L582.88 221.675ZM582.97 219.875V216.221C583.492 215.663 583.96 215.411 584.5 215.411C585.562 215.411 586.048 216.221 586.048 217.823C586.048 219.659 585.31 220.451 584.392 220.451C583.942 220.451 583.438 220.307 582.97 219.875ZM589.87 217.931C589.87 220.901 591.958 222.611 594.226 222.611C596.476 222.611 598.564 220.901 598.564 217.931C598.564 214.961 596.476 213.251 594.226 213.251C591.958 213.251 589.87 214.961 589.87 217.931ZM592.588 217.931C592.588 216.383 593.128 215.393 594.226 215.393C595.306 215.393 595.864 216.383 595.864 217.931C595.864 219.479 595.306 220.469 594.226 220.469C593.128 220.469 592.588 219.479 592.588 217.931ZM599.246 221.369C600.146 222.107 601.496 222.611 602.666 222.611C605.06 222.611 606.338 221.351 606.338 219.731C606.338 218.093 605.06 217.463 603.926 217.049C603.008 216.707 602.18 216.491 602.18 215.915C602.18 215.465 602.504 215.213 603.188 215.213C603.818 215.213 604.43 215.501 605.078 215.969L606.266 214.385C605.492 213.809 604.484 213.251 603.116 213.251C601.046 213.251 599.696 214.385 599.696 216.041C599.696 217.517 600.974 218.255 602.054 218.669C602.972 219.029 603.872 219.299 603.872 219.893C603.872 220.361 603.53 220.649 602.738 220.649C601.982 220.649 601.244 220.325 600.434 219.713L599.246 221.369ZM607.247 217.931C607.247 220.883 609.209 222.611 611.765 222.611C612.827 222.611 614.015 222.233 614.933 221.603L614.051 220.001C613.403 220.397 612.791 220.595 612.125 220.595C610.937 220.595 610.037 220.001 609.803 218.651H615.149C615.203 218.435 615.257 218.003 615.257 217.535C615.257 215.105 613.997 213.251 611.459 213.251C609.317 213.251 607.247 215.033 607.247 217.931ZM609.785 217.013C609.965 215.825 610.685 215.267 611.513 215.267C612.575 215.267 613.007 215.987 613.007 217.013H609.785Z" fill="#009CDE"/>
</svg>
