<svg width="672" height="256" viewBox="0 0 672 256" fill="none" xmlns="http://www.w3.org/2000/svg">
<mask id="mask0_239_9847" style="mask-type:alpha" maskUnits="userSpaceOnUse" x="0" y="0" width="672" height="256">
<rect width="672" height="256" fill="#BCBCBC"/>
</mask>
<g mask="url(#mask0_239_9847)">
<circle cx="87" cy="128" r="46" fill="white" stroke="#2B2B2B" stroke-width="4"/>
<path d="M78.6775 124.829C81.8455 124.829 84.0055 122.525 84.0055 118.691C84.0055 114.875 81.8455 112.661 78.6775 112.661C75.5095 112.661 73.3495 114.857 73.3495 118.691C73.3495 122.525 75.5095 124.829 78.6775 124.829ZM78.6775 122.543C77.0755 122.543 76.0675 121.049 76.0675 118.691C76.0675 116.351 77.0755 114.947 78.6775 114.947C80.2795 114.947 81.2875 116.351 81.2875 118.691C81.2875 121.049 80.2795 122.543 78.6775 122.543ZM85.6562 121.229C85.6562 123.461 86.4842 124.829 88.4282 124.829C89.6522 124.829 90.4802 124.271 91.2362 123.371H91.2902L91.4882 124.613H93.6482V115.685H91.0022V121.589C90.4802 122.291 90.0842 122.579 89.4182 122.579C88.6442 122.579 88.3022 122.165 88.3022 120.887V115.685H85.6562V121.229ZM95.7267 124.613H98.3727V119.429C98.8407 118.223 99.6687 117.791 100.335 117.791C100.713 117.791 100.983 117.845 101.307 117.935L101.739 115.649C101.487 115.541 101.181 115.469 100.677 115.469C99.7587 115.469 98.7867 116.045 98.1387 117.251H98.0667L97.8867 115.685H95.7267V124.613ZM56.221 142.613H58.867V138.635H60.505C62.989 138.635 65.095 137.411 65.095 134.657C65.095 131.813 63.043 130.877 60.505 130.877H56.221V142.613ZM58.867 136.529V132.983H60.343C61.747 132.983 62.503 133.433 62.503 134.657C62.503 135.881 61.801 136.529 60.343 136.529H58.867ZM66.581 139.229C66.581 141.461 67.409 142.829 69.353 142.829C70.577 142.829 71.405 142.271 72.161 141.371H72.215L72.413 142.613H74.573V133.685H71.927V139.589C71.405 140.291 71.009 140.579 70.343 140.579C69.569 140.579 69.227 140.165 69.227 138.887V133.685H66.581V139.229ZM76.6515 142.613H79.2975V137.429C79.7655 136.223 80.5935 135.791 81.2595 135.791C81.6375 135.791 81.9075 135.845 82.2315 135.935L82.6635 133.649C82.4115 133.541 82.1055 133.469 81.6015 133.469C80.6835 133.469 79.7115 134.045 79.0635 135.251H78.9915L78.8115 133.685H76.6515V142.613ZM86.1294 141.893C86.7594 142.487 87.4794 142.829 88.2534 142.829C90.1794 142.829 92.0154 141.065 92.0154 138.005C92.0154 135.251 90.6834 133.469 88.5234 133.469C87.5874 133.469 86.6874 133.937 85.9854 134.567H85.9134L85.7334 133.685H83.5734V145.925H86.2194V143.315L86.1294 141.893ZM86.2194 140.093V136.439C86.7414 135.881 87.2094 135.629 87.7494 135.629C88.8114 135.629 89.2974 136.439 89.2974 138.041C89.2974 139.877 88.5594 140.669 87.6414 140.669C87.1914 140.669 86.6874 140.525 86.2194 140.093ZM93.1197 138.149C93.1197 141.119 95.2077 142.829 97.4757 142.829C99.7257 142.829 101.814 141.119 101.814 138.149C101.814 135.179 99.7257 133.469 97.4757 133.469C95.2077 133.469 93.1197 135.179 93.1197 138.149ZM95.8377 138.149C95.8377 136.601 96.3777 135.611 97.4757 135.611C98.5557 135.611 99.1137 136.601 99.1137 138.149C99.1137 139.697 98.5557 140.687 97.4757 140.687C96.3777 140.687 95.8377 139.697 95.8377 138.149ZM102.496 141.587C103.396 142.325 104.746 142.829 105.916 142.829C108.31 142.829 109.588 141.569 109.588 139.949C109.588 138.311 108.31 137.681 107.176 137.267C106.258 136.925 105.43 136.709 105.43 136.133C105.43 135.683 105.754 135.431 106.438 135.431C107.068 135.431 107.68 135.719 108.328 136.187L109.516 134.603C108.742 134.027 107.734 133.469 106.366 133.469C104.296 133.469 102.946 134.603 102.946 136.259C102.946 137.735 104.224 138.473 105.304 138.887C106.222 139.247 107.122 139.517 107.122 140.111C107.122 140.579 106.78 140.867 105.988 140.867C105.232 140.867 104.494 140.543 103.684 139.931L102.496 141.587ZM110.497 138.149C110.497 141.101 112.459 142.829 115.015 142.829C116.077 142.829 117.265 142.451 118.183 141.821L117.301 140.219C116.653 140.615 116.041 140.813 115.375 140.813C114.187 140.813 113.287 140.219 113.053 138.869H118.399C118.453 138.653 118.507 138.221 118.507 137.753C118.507 135.323 117.247 133.469 114.709 133.469C112.567 133.469 110.497 135.251 110.497 138.149ZM113.035 137.231C113.215 136.043 113.935 135.485 114.763 135.485C115.825 135.485 116.257 136.205 116.257 137.231H113.035Z" fill="#009CDE"/>
<circle cx="211" cy="128" r="46" fill="white" stroke="#2B2B2B" stroke-width="4"/>
<path d="M202.678 124.829C205.846 124.829 208.006 122.525 208.006 118.691C208.006 114.875 205.846 112.661 202.678 112.661C199.51 112.661 197.35 114.857 197.35 118.691C197.35 122.525 199.51 124.829 202.678 124.829ZM202.678 122.543C201.076 122.543 200.068 121.049 200.068 118.691C200.068 116.351 201.076 114.947 202.678 114.947C204.28 114.947 205.288 116.351 205.288 118.691C205.288 121.049 204.28 122.543 202.678 122.543ZM209.656 121.229C209.656 123.461 210.484 124.829 212.428 124.829C213.652 124.829 214.48 124.271 215.236 123.371H215.29L215.488 124.613H217.648V115.685H215.002V121.589C214.48 122.291 214.084 122.579 213.418 122.579C212.644 122.579 212.302 122.165 212.302 120.887V115.685H209.656V121.229ZM219.727 124.613H222.373V119.429C222.841 118.223 223.669 117.791 224.335 117.791C224.713 117.791 224.983 117.845 225.307 117.935L225.739 115.649C225.487 115.541 225.181 115.469 224.677 115.469C223.759 115.469 222.787 116.045 222.139 117.251H222.067L221.887 115.685H219.727V124.613ZM182.603 142.613H185.249V138.635H186.887C189.371 138.635 191.477 137.411 191.477 134.657C191.477 131.813 189.425 130.877 186.887 130.877H182.603V142.613ZM185.249 136.529V132.983H186.725C188.129 132.983 188.885 133.433 188.885 134.657C188.885 135.881 188.183 136.529 186.725 136.529H185.249ZM193.053 142.613H195.699V137.429C196.167 136.223 196.995 135.791 197.661 135.791C198.039 135.791 198.309 135.845 198.633 135.935L199.065 133.649C198.813 133.541 198.507 133.469 198.003 133.469C197.085 133.469 196.113 134.045 195.465 135.251H195.393L195.213 133.685H193.053V142.613ZM199.277 138.149C199.277 141.119 201.365 142.829 203.633 142.829C205.883 142.829 207.971 141.119 207.971 138.149C207.971 135.179 205.883 133.469 203.633 133.469C201.365 133.469 199.277 135.179 199.277 138.149ZM201.995 138.149C201.995 136.601 202.535 135.611 203.633 135.611C204.713 135.611 205.271 136.601 205.271 138.149C205.271 139.697 204.713 140.687 203.633 140.687C202.535 140.687 201.995 139.697 201.995 138.149ZM209.011 138.149C209.011 141.119 210.937 142.829 213.421 142.829C214.393 142.829 215.527 142.469 216.391 141.713L215.329 140.039C214.897 140.381 214.375 140.687 213.727 140.687C212.575 140.687 211.729 139.697 211.729 138.149C211.729 136.601 212.539 135.611 213.817 135.611C214.231 135.611 214.627 135.773 215.059 136.133L216.265 134.495C215.671 133.883 214.753 133.469 213.655 133.469C211.189 133.469 209.011 135.179 209.011 138.149ZM216.654 138.149C216.654 141.101 218.616 142.829 221.172 142.829C222.234 142.829 223.422 142.451 224.34 141.821L223.458 140.219C222.81 140.615 222.198 140.813 221.532 140.813C220.344 140.813 219.444 140.219 219.21 138.869H224.556C224.61 138.653 224.664 138.221 224.664 137.753C224.664 135.323 223.404 133.469 220.866 133.469C218.724 133.469 216.654 135.251 216.654 138.149ZM219.192 137.231C219.372 136.043 220.092 135.485 220.92 135.485C221.982 135.485 222.414 136.205 222.414 137.231H219.192ZM225.45 141.587C226.35 142.325 227.7 142.829 228.87 142.829C231.264 142.829 232.542 141.569 232.542 139.949C232.542 138.311 231.264 137.681 230.13 137.267C229.212 136.925 228.384 136.709 228.384 136.133C228.384 135.683 228.708 135.431 229.392 135.431C230.022 135.431 230.634 135.719 231.282 136.187L232.47 134.603C231.696 134.027 230.688 133.469 229.32 133.469C227.25 133.469 225.9 134.603 225.9 136.259C225.9 137.735 227.178 138.473 228.258 138.887C229.176 139.247 230.076 139.517 230.076 140.111C230.076 140.579 229.734 140.867 228.942 140.867C228.186 140.867 227.448 140.543 226.638 139.931L225.45 141.587ZM233.181 141.587C234.081 142.325 235.431 142.829 236.601 142.829C238.995 142.829 240.273 141.569 240.273 139.949C240.273 138.311 238.995 137.681 237.861 137.267C236.943 136.925 236.115 136.709 236.115 136.133C236.115 135.683 236.439 135.431 237.123 135.431C237.753 135.431 238.365 135.719 239.013 136.187L240.201 134.603C239.427 134.027 238.419 133.469 237.051 133.469C234.981 133.469 233.631 134.603 233.631 136.259C233.631 137.735 234.909 138.473 235.989 138.887C236.907 139.247 237.807 139.517 237.807 140.111C237.807 140.579 237.465 140.867 236.673 140.867C235.917 140.867 235.179 140.543 234.369 139.931L233.181 141.587Z" fill="#009CDE"/>
<circle cx="335" cy="128" r="46" fill="white" stroke="#2B2B2B" stroke-width="4"/>
<path d="M305.392 124.613H308.038V120.635H309.676C312.16 120.635 314.266 119.411 314.266 116.657C314.266 113.813 312.214 112.877 309.676 112.877H305.392V124.613ZM308.038 118.529V114.983H309.514C310.918 114.983 311.674 115.433 311.674 116.657C311.674 117.881 310.972 118.529 309.514 118.529H308.038ZM315.842 124.613H318.488V119.429C318.956 118.223 319.784 117.791 320.45 117.791C320.828 117.791 321.098 117.845 321.422 117.935L321.854 115.649C321.602 115.541 321.296 115.469 320.792 115.469C319.874 115.469 318.902 116.045 318.254 117.251H318.182L318.002 115.685H315.842V124.613ZM322.066 120.149C322.066 123.119 324.154 124.829 326.422 124.829C328.672 124.829 330.76 123.119 330.76 120.149C330.76 117.179 328.672 115.469 326.422 115.469C324.154 115.469 322.066 117.179 322.066 120.149ZM324.784 120.149C324.784 118.601 325.324 117.611 326.422 117.611C327.502 117.611 328.06 118.601 328.06 120.149C328.06 121.697 327.502 122.687 326.422 122.687C325.324 122.687 324.784 121.697 324.784 120.149ZM331.854 120.149C331.854 123.065 333.294 124.829 335.508 124.829C336.372 124.829 337.254 124.361 337.884 123.731H337.956L338.136 124.613H340.296V111.995H337.65V115.037L337.758 116.405C337.146 115.829 336.552 115.469 335.562 115.469C333.672 115.469 331.854 117.233 331.854 120.149ZM334.572 120.113C334.572 118.421 335.328 117.629 336.174 117.629C336.66 117.629 337.182 117.773 337.65 118.205V121.859C337.218 122.453 336.768 122.669 336.192 122.669C335.166 122.669 334.572 121.877 334.572 120.113ZM342.301 121.229C342.301 123.461 343.129 124.829 345.073 124.829C346.297 124.829 347.125 124.271 347.881 123.371H347.935L348.133 124.613H350.293V115.685H347.647V121.589C347.125 122.291 346.729 122.579 346.063 122.579C345.289 122.579 344.947 122.165 344.947 120.887V115.685H342.301V121.229ZM351.849 120.149C351.849 123.119 353.775 124.829 356.259 124.829C357.231 124.829 358.365 124.469 359.229 123.713L358.167 122.039C357.735 122.381 357.213 122.687 356.565 122.687C355.413 122.687 354.567 121.697 354.567 120.149C354.567 118.601 355.377 117.611 356.655 117.611C357.069 117.611 357.465 117.773 357.897 118.133L359.103 116.495C358.509 115.883 357.591 115.469 356.493 115.469C354.027 115.469 351.849 117.179 351.849 120.149ZM360.884 121.373C360.884 123.443 361.748 124.829 363.962 124.829C364.826 124.829 365.474 124.649 365.942 124.505L365.528 122.579C365.294 122.669 364.97 122.759 364.682 122.759C363.98 122.759 363.53 122.345 363.53 121.337V117.755H365.672V115.685H363.53V113.309H361.334L361.028 115.685L359.66 115.793V117.755H360.884V121.373ZM306.603 142.613H309.249V138.635H310.887C313.371 138.635 315.477 137.411 315.477 134.657C315.477 131.813 313.425 130.877 310.887 130.877H306.603V142.613ZM309.249 136.529V132.983H310.725C312.129 132.983 312.885 133.433 312.885 134.657C312.885 135.881 312.183 136.529 310.725 136.529H309.249ZM317.053 142.613H319.699V137.429C320.167 136.223 320.995 135.791 321.661 135.791C322.039 135.791 322.309 135.845 322.633 135.935L323.065 133.649C322.813 133.541 322.507 133.469 322.003 133.469C321.085 133.469 320.113 134.045 319.465 135.251H319.393L319.213 133.685H317.053V142.613ZM323.277 138.149C323.277 141.119 325.365 142.829 327.633 142.829C329.883 142.829 331.971 141.119 331.971 138.149C331.971 135.179 329.883 133.469 327.633 133.469C325.365 133.469 323.277 135.179 323.277 138.149ZM325.995 138.149C325.995 136.601 326.535 135.611 327.633 135.611C328.713 135.611 329.271 136.601 329.271 138.149C329.271 139.697 328.713 140.687 327.633 140.687C326.535 140.687 325.995 139.697 325.995 138.149ZM333.011 138.149C333.011 141.119 334.937 142.829 337.421 142.829C338.393 142.829 339.527 142.469 340.391 141.713L339.329 140.039C338.897 140.381 338.375 140.687 337.727 140.687C336.575 140.687 335.729 139.697 335.729 138.149C335.729 136.601 336.539 135.611 337.817 135.611C338.231 135.611 338.627 135.773 339.059 136.133L340.265 134.495C339.671 133.883 338.753 133.469 337.655 133.469C335.189 133.469 333.011 135.179 333.011 138.149ZM340.654 138.149C340.654 141.101 342.616 142.829 345.172 142.829C346.234 142.829 347.422 142.451 348.34 141.821L347.458 140.219C346.81 140.615 346.198 140.813 345.532 140.813C344.344 140.813 343.444 140.219 343.21 138.869H348.556C348.61 138.653 348.664 138.221 348.664 137.753C348.664 135.323 347.404 133.469 344.866 133.469C342.724 133.469 340.654 135.251 340.654 138.149ZM343.192 137.231C343.372 136.043 344.092 135.485 344.92 135.485C345.982 135.485 346.414 136.205 346.414 137.231H343.192ZM349.45 141.587C350.35 142.325 351.7 142.829 352.87 142.829C355.264 142.829 356.542 141.569 356.542 139.949C356.542 138.311 355.264 137.681 354.13 137.267C353.212 136.925 352.384 136.709 352.384 136.133C352.384 135.683 352.708 135.431 353.392 135.431C354.022 135.431 354.634 135.719 355.282 136.187L356.47 134.603C355.696 134.027 354.688 133.469 353.32 133.469C351.25 133.469 349.9 134.603 349.9 136.259C349.9 137.735 351.178 138.473 352.258 138.887C353.176 139.247 354.076 139.517 354.076 140.111C354.076 140.579 353.734 140.867 352.942 140.867C352.186 140.867 351.448 140.543 350.638 139.931L349.45 141.587ZM357.181 141.587C358.081 142.325 359.431 142.829 360.601 142.829C362.995 142.829 364.273 141.569 364.273 139.949C364.273 138.311 362.995 137.681 361.861 137.267C360.943 136.925 360.115 136.709 360.115 136.133C360.115 135.683 360.439 135.431 361.123 135.431C361.753 135.431 362.365 135.719 363.013 136.187L364.201 134.603C363.427 134.027 362.419 133.469 361.051 133.469C358.981 133.469 357.631 134.603 357.631 136.259C357.631 137.735 358.909 138.473 359.989 138.887C360.907 139.247 361.807 139.517 361.807 140.111C361.807 140.579 361.465 140.867 360.673 140.867C359.917 140.867 359.179 140.543 358.369 139.931L357.181 141.587Z" fill="#009CDE"/>
<circle cx="459" cy="128" r="46" fill="white" stroke="#2B2B2B" stroke-width="4"/>
<path d="M428.711 118.817C428.711 122.759 431.195 124.829 434.237 124.829C435.695 124.829 436.991 124.235 437.963 123.101L436.505 121.499C435.929 122.129 435.227 122.543 434.273 122.543C432.545 122.543 431.429 121.139 431.429 118.727C431.429 116.369 432.707 114.947 434.345 114.947C435.155 114.947 435.731 115.289 436.325 115.829L437.783 114.191C436.991 113.381 435.767 112.661 434.309 112.661C431.285 112.661 428.711 114.929 428.711 118.817ZM438.757 120.149C438.757 123.119 440.845 124.829 443.113 124.829C445.363 124.829 447.451 123.119 447.451 120.149C447.451 117.179 445.363 115.469 443.113 115.469C440.845 115.469 438.757 117.179 438.757 120.149ZM441.475 120.149C441.475 118.601 442.015 117.611 443.113 117.611C444.193 117.611 444.751 118.601 444.751 120.149C444.751 121.697 444.193 122.687 443.113 122.687C442.015 122.687 441.475 121.697 441.475 120.149ZM449.014 124.613H451.66V118.583C452.236 118.025 452.65 117.719 453.316 117.719C454.072 117.719 454.414 118.115 454.414 119.411V124.613H457.06V119.069C457.06 116.837 456.232 115.469 454.288 115.469C453.082 115.469 452.182 116.099 451.426 116.819H451.354L451.174 115.685H449.014V124.613ZM459.425 121.373C459.425 123.443 460.289 124.829 462.503 124.829C463.367 124.829 464.015 124.649 464.483 124.505L464.069 122.579C463.835 122.669 463.511 122.759 463.223 122.759C462.521 122.759 462.071 122.345 462.071 121.337V117.755H464.213V115.685H462.071V113.309H459.875L459.569 115.685L458.201 115.793V117.755H459.425V121.373ZM465.007 120.149C465.007 123.101 466.969 124.829 469.525 124.829C470.587 124.829 471.775 124.451 472.693 123.821L471.811 122.219C471.163 122.615 470.551 122.813 469.885 122.813C468.697 122.813 467.797 122.219 467.563 120.869H472.909C472.963 120.653 473.017 120.221 473.017 119.753C473.017 117.323 471.757 115.469 469.219 115.469C467.077 115.469 465.007 117.251 465.007 120.149ZM467.545 119.231C467.725 118.043 468.445 117.485 469.273 117.485C470.335 117.485 470.767 118.205 470.767 119.231H467.545ZM474.596 124.613H477.242V118.583C477.818 118.025 478.232 117.719 478.898 117.719C479.654 117.719 479.996 118.115 479.996 119.411V124.613H482.642V119.069C482.642 116.837 481.814 115.469 479.87 115.469C478.664 115.469 477.764 116.099 477.008 116.819H476.936L476.756 115.685H474.596V124.613ZM485.007 121.373C485.007 123.443 485.871 124.829 488.085 124.829C488.949 124.829 489.597 124.649 490.065 124.505L489.651 122.579C489.417 122.669 489.093 122.759 488.805 122.759C488.103 122.759 487.653 122.345 487.653 121.337V117.755H489.795V115.685H487.653V113.309H485.457L485.151 115.685L483.783 115.793V117.755H485.007V121.373ZM426.522 136.817C426.522 140.759 429.006 142.829 432.048 142.829C433.506 142.829 434.802 142.235 435.774 141.101L434.316 139.499C433.74 140.129 433.038 140.543 432.084 140.543C430.356 140.543 429.24 139.139 429.24 136.727C429.24 134.369 430.518 132.947 432.156 132.947C432.966 132.947 433.542 133.289 434.136 133.829L435.594 132.191C434.802 131.381 433.578 130.661 432.12 130.661C429.096 130.661 426.522 132.929 426.522 136.817ZM437.091 142.613H439.737V137.429C440.205 136.223 441.033 135.791 441.699 135.791C442.077 135.791 442.347 135.845 442.671 135.935L443.103 133.649C442.851 133.541 442.545 133.469 442.041 133.469C441.123 133.469 440.151 134.045 439.503 135.251H439.431L439.251 133.685H437.091V142.613ZM443.315 138.149C443.315 141.101 445.277 142.829 447.833 142.829C448.895 142.829 450.083 142.451 451.001 141.821L450.119 140.219C449.471 140.615 448.859 140.813 448.193 140.813C447.005 140.813 446.105 140.219 445.871 138.869H451.217C451.271 138.653 451.325 138.221 451.325 137.753C451.325 135.323 450.065 133.469 447.527 133.469C445.385 133.469 443.315 135.251 443.315 138.149ZM445.853 137.231C446.033 136.043 446.753 135.485 447.581 135.485C448.643 135.485 449.075 136.205 449.075 137.231H445.853ZM452.386 140.129C452.386 141.641 453.412 142.829 455.032 142.829C456.04 142.829 456.886 142.361 457.642 141.695H457.696L457.894 142.613H460.054V137.501C460.054 134.765 458.794 133.469 456.508 133.469C455.104 133.469 453.826 133.955 452.692 134.639L453.628 136.385C454.492 135.881 455.248 135.575 456.004 135.575C456.958 135.575 457.354 136.079 457.408 136.871C453.88 137.231 452.386 138.257 452.386 140.129ZM454.906 139.931C454.906 139.247 455.518 138.707 457.408 138.455V140.021C456.94 140.489 456.544 140.777 455.932 140.777C455.302 140.777 454.906 140.507 454.906 139.931ZM462.435 139.373C462.435 141.443 463.299 142.829 465.513 142.829C466.377 142.829 467.025 142.649 467.493 142.505L467.079 140.579C466.845 140.669 466.521 140.759 466.233 140.759C465.531 140.759 465.081 140.345 465.081 139.337V135.755H467.223V133.685H465.081V131.309H462.885L462.579 133.685L461.211 133.793V135.755H462.435V139.373ZM470.03 132.371C470.93 132.371 471.56 131.795 471.56 130.985C471.56 130.175 470.93 129.617 470.03 129.617C469.148 129.617 468.5 130.175 468.5 130.985C468.5 131.795 469.148 132.371 470.03 132.371ZM468.716 142.613H471.362V133.685H468.716V142.613ZM472.919 138.149C472.919 141.119 475.007 142.829 477.275 142.829C479.525 142.829 481.613 141.119 481.613 138.149C481.613 135.179 479.525 133.469 477.275 133.469C475.007 133.469 472.919 135.179 472.919 138.149ZM475.637 138.149C475.637 136.601 476.177 135.611 477.275 135.611C478.355 135.611 478.913 136.601 478.913 138.149C478.913 139.697 478.355 140.687 477.275 140.687C476.177 140.687 475.637 139.697 475.637 138.149ZM483.175 142.613H485.821V136.583C486.397 136.025 486.811 135.719 487.477 135.719C488.233 135.719 488.575 136.115 488.575 137.411V142.613H491.221V137.069C491.221 134.837 490.393 133.469 488.449 133.469C487.243 133.469 486.343 134.099 485.587 134.819H485.515L485.335 133.685H483.175V142.613Z" fill="#009CDE"/>
<circle cx="583" cy="128" r="46" fill="white" stroke="#2B2B2B" stroke-width="4"/>
<path d="M569.732 124.613H573.188C576.626 124.613 578.93 122.723 578.93 118.691C578.93 114.659 576.626 112.877 573.044 112.877H569.732V124.613ZM572.378 122.471V115.019H572.882C574.88 115.019 576.212 115.883 576.212 118.691C576.212 121.499 574.88 122.471 572.882 122.471H572.378ZM580.17 120.149C580.17 123.101 582.132 124.829 584.688 124.829C585.75 124.829 586.938 124.451 587.856 123.821L586.974 122.219C586.326 122.615 585.714 122.813 585.048 122.813C583.86 122.813 582.96 122.219 582.726 120.869H588.072C588.126 120.653 588.18 120.221 588.18 119.753C588.18 117.323 586.92 115.469 584.382 115.469C582.24 115.469 580.17 117.251 580.17 120.149ZM582.708 119.231C582.888 118.043 583.608 117.485 584.436 117.485C585.498 117.485 585.93 118.205 585.93 119.231H582.708ZM591.704 124.613H594.764L597.68 115.685H595.142L593.972 119.897C593.738 120.779 593.504 121.715 593.288 122.651H593.216C592.982 121.715 592.748 120.779 592.514 119.897L591.362 115.685H588.698L591.704 124.613ZM554.603 142.613H557.249V138.635H558.887C561.371 138.635 563.477 137.411 563.477 134.657C563.477 131.813 561.425 130.877 558.887 130.877H554.603V142.613ZM557.249 136.529V132.983H558.725C560.129 132.983 560.885 133.433 560.885 134.657C560.885 135.881 560.183 136.529 558.725 136.529H557.249ZM565.053 142.613H567.699V137.429C568.167 136.223 568.995 135.791 569.661 135.791C570.039 135.791 570.309 135.845 570.633 135.935L571.065 133.649C570.813 133.541 570.507 133.469 570.003 133.469C569.085 133.469 568.113 134.045 567.465 135.251H567.393L567.213 133.685H565.053V142.613ZM571.277 138.149C571.277 141.119 573.365 142.829 575.633 142.829C577.883 142.829 579.971 141.119 579.971 138.149C579.971 135.179 577.883 133.469 575.633 133.469C573.365 133.469 571.277 135.179 571.277 138.149ZM573.995 138.149C573.995 136.601 574.535 135.611 575.633 135.611C576.713 135.611 577.271 136.601 577.271 138.149C577.271 139.697 576.713 140.687 575.633 140.687C574.535 140.687 573.995 139.697 573.995 138.149ZM581.011 138.149C581.011 141.119 582.937 142.829 585.421 142.829C586.393 142.829 587.527 142.469 588.391 141.713L587.329 140.039C586.897 140.381 586.375 140.687 585.727 140.687C584.575 140.687 583.729 139.697 583.729 138.149C583.729 136.601 584.539 135.611 585.817 135.611C586.231 135.611 586.627 135.773 587.059 136.133L588.265 134.495C587.671 133.883 586.753 133.469 585.655 133.469C583.189 133.469 581.011 135.179 581.011 138.149ZM588.654 138.149C588.654 141.101 590.616 142.829 593.172 142.829C594.234 142.829 595.422 142.451 596.34 141.821L595.458 140.219C594.81 140.615 594.198 140.813 593.532 140.813C592.344 140.813 591.444 140.219 591.21 138.869H596.556C596.61 138.653 596.664 138.221 596.664 137.753C596.664 135.323 595.404 133.469 592.866 133.469C590.724 133.469 588.654 135.251 588.654 138.149ZM591.192 137.231C591.372 136.043 592.092 135.485 592.92 135.485C593.982 135.485 594.414 136.205 594.414 137.231H591.192ZM597.45 141.587C598.35 142.325 599.7 142.829 600.87 142.829C603.264 142.829 604.542 141.569 604.542 139.949C604.542 138.311 603.264 137.681 602.13 137.267C601.212 136.925 600.384 136.709 600.384 136.133C600.384 135.683 600.708 135.431 601.392 135.431C602.022 135.431 602.634 135.719 603.282 136.187L604.47 134.603C603.696 134.027 602.688 133.469 601.32 133.469C599.25 133.469 597.9 134.603 597.9 136.259C597.9 137.735 599.178 138.473 600.258 138.887C601.176 139.247 602.076 139.517 602.076 140.111C602.076 140.579 601.734 140.867 600.942 140.867C600.186 140.867 599.448 140.543 598.638 139.931L597.45 141.587ZM605.181 141.587C606.081 142.325 607.431 142.829 608.601 142.829C610.995 142.829 612.273 141.569 612.273 139.949C612.273 138.311 610.995 137.681 609.861 137.267C608.943 136.925 608.115 136.709 608.115 136.133C608.115 135.683 608.439 135.431 609.123 135.431C609.753 135.431 610.365 135.719 611.013 136.187L612.201 134.603C611.427 134.027 610.419 133.469 609.051 133.469C606.981 133.469 605.631 134.603 605.631 136.259C605.631 137.735 606.909 138.473 607.989 138.887C608.907 139.247 609.807 139.517 609.807 140.111C609.807 140.579 609.465 140.867 608.673 140.867C607.917 140.867 607.179 140.543 606.369 139.931L605.181 141.587Z" fill="#009CDE"/>
<path d="M399.732 126.209C399.759 125.381 399.109 124.688 398.281 124.661C397.453 124.635 396.76 125.284 396.734 126.112L399.732 126.209ZM397.542 117.821C397.408 118.638 397.962 119.41 398.779 119.544C399.597 119.678 400.368 119.124 400.502 118.306L397.542 117.821ZM401.273 114.409C401.461 113.602 400.958 112.796 400.151 112.608C399.345 112.421 398.538 112.923 398.351 113.73L401.273 114.409ZM400.767 105.755C400.475 106.53 400.867 107.395 401.642 107.687C402.418 107.979 403.283 107.587 403.575 106.812L400.767 105.755ZM405.097 103.143C405.439 102.388 405.105 101.499 404.35 101.157C403.596 100.814 402.707 101.148 402.365 101.903L405.097 103.143ZM406.299 94.557C405.861 95.2601 406.076 96.1852 406.779 96.6234C407.482 97.0615 408.407 96.8467 408.845 96.1436L406.299 94.557ZM411.055 92.8423C411.538 92.1693 411.384 91.2321 410.711 90.749C410.038 90.2659 409.101 90.4199 408.618 91.0928L411.055 92.8423ZM413.908 84.655C413.341 85.2595 413.372 86.2087 413.977 86.7752C414.581 87.3416 415.53 87.3107 416.097 86.7062L413.908 84.655ZM418.906 83.8968C419.511 83.3303 419.542 82.3811 418.975 81.7766C418.409 81.172 417.459 81.1412 416.855 81.7076L418.906 83.8968ZM423.293 76.4182C422.62 76.9013 422.466 77.8385 422.949 78.5115C423.432 79.1845 424.369 79.3384 425.042 78.8553L423.293 76.4182ZM428.344 76.6452C429.047 76.207 429.261 75.2819 428.823 74.5788C428.385 73.8757 427.46 73.6609 426.757 74.0991L428.344 76.6452ZM434.103 70.1647C433.348 70.5071 433.014 71.3962 433.357 72.1505C433.699 72.9049 434.588 73.2389 435.343 72.8966L434.103 70.1647ZM439.012 71.3749C439.787 71.083 440.179 70.2178 439.887 69.4425C439.595 68.6673 438.73 68.2754 437.955 68.5674L439.012 71.3749ZM445.93 66.151C445.123 66.3384 444.621 67.1446 444.808 67.9515C444.996 68.7584 445.802 69.2606 446.609 69.0732L445.93 66.151ZM450.506 68.3021C451.323 68.1681 451.878 67.3967 451.744 66.5792C451.61 65.7617 450.838 65.2076 450.021 65.3416L450.506 68.3021ZM458.312 64.5336C457.484 64.5603 456.834 65.2531 456.861 66.0811C456.888 66.9091 457.581 67.5587 458.409 67.532L458.312 64.5336ZM462.391 67.532C463.219 67.5587 463.912 66.9091 463.939 66.0811C463.965 65.2531 463.316 64.5603 462.488 64.5336L462.391 67.532ZM470.779 65.3416C469.962 65.2076 469.19 65.7617 469.056 66.5792C468.922 67.3967 469.476 68.1681 470.294 68.3021L470.779 65.3416ZM474.191 69.0732C474.998 69.2606 475.804 68.7584 475.992 67.9515C476.179 67.1446 475.677 66.3384 474.87 66.151L474.191 69.0732ZM482.845 68.5674C482.07 68.2754 481.205 68.6673 480.913 69.4425C480.621 70.2178 481.013 71.083 481.788 71.3749L482.845 68.5674ZM485.457 72.8966C486.212 73.2389 487.101 72.9049 487.443 72.1505C487.785 71.3962 487.451 70.5071 486.697 70.1647L485.457 72.8966ZM494.043 74.0991C493.34 73.6609 492.415 73.8757 491.977 74.5788C491.538 75.2819 491.753 76.207 492.456 76.6452L494.043 74.0991ZM495.758 78.8553C496.431 79.3384 497.368 79.1845 497.851 78.5115C498.334 77.8385 498.18 76.9013 497.507 76.4182L495.758 78.8553ZM503.945 81.7076C503.34 81.1412 502.391 81.172 501.825 81.7766C501.258 82.3811 501.289 83.3303 501.894 83.8968L503.945 81.7076ZM504.703 86.7062C505.27 87.3107 506.219 87.3416 506.823 86.7751C507.428 86.2087 507.459 85.2595 506.892 84.6549L504.703 86.7062ZM512.182 91.0928C511.699 90.4199 510.761 90.2659 510.088 90.749C509.415 91.2321 509.262 92.1693 509.745 92.8423L512.182 91.0928ZM511.955 96.1436C512.393 96.8467 513.318 97.0615 514.021 96.6233C514.724 96.1852 514.939 95.2601 514.501 94.557L511.955 96.1436ZM518.435 101.903C518.093 101.148 517.204 100.814 516.449 101.157C515.695 101.499 515.361 102.388 515.703 103.143L518.435 101.903ZM517.225 106.812C517.517 107.587 518.382 107.979 519.157 107.687C519.933 107.395 520.325 106.53 520.033 105.755L517.225 106.812ZM522.449 113.73C522.261 112.923 521.455 112.421 520.648 112.608C519.842 112.796 519.339 113.602 519.527 114.409L522.449 113.73ZM520.298 118.306C520.432 119.124 521.203 119.678 522.021 119.544C522.838 119.41 523.392 118.638 523.258 117.821L520.298 118.306ZM524.066 126.112C524.04 125.284 523.347 124.635 522.519 124.661C521.691 124.688 521.041 125.381 521.068 126.209L524.066 126.112ZM399.7 128.2C399.7 127.534 399.711 126.87 399.732 126.209L396.734 126.112C396.711 126.805 396.7 127.501 396.7 128.2H399.7ZM400.502 118.306C400.717 116.992 400.975 115.693 401.273 114.409L398.351 113.73C398.038 115.078 397.768 116.442 397.542 117.821L400.502 118.306ZM403.575 106.812C404.043 105.569 404.551 104.345 405.097 103.143L402.365 101.903C401.792 103.165 401.259 104.45 400.767 105.755L403.575 106.812ZM408.845 96.1436C409.547 95.018 410.284 93.9171 411.055 92.8423L408.618 91.0928C407.809 92.2206 407.035 93.3758 406.299 94.557L408.845 96.1436ZM416.097 86.7062C417.002 85.7395 417.939 84.8025 418.906 83.8968L416.855 81.7076C415.841 82.6578 414.858 83.6408 413.908 84.655L416.097 86.7062ZM425.042 78.8553C426.117 78.0838 427.218 77.3466 428.344 76.6452L426.757 74.0991C425.576 74.8351 424.421 75.6087 423.293 76.4182L425.042 78.8553ZM435.343 72.8966C436.545 72.3507 437.769 71.843 439.012 71.3749L437.955 68.5674C436.65 69.0588 435.365 69.5918 434.103 70.1647L435.343 72.8966ZM446.609 69.0732C447.893 68.7749 449.192 68.5174 450.506 68.3021L450.021 65.3416C448.642 65.5676 447.278 65.8379 445.93 66.151L446.609 69.0732ZM458.409 67.532C459.07 67.5107 459.734 67.5 460.4 67.5V64.5C459.701 64.5 459.005 64.5113 458.312 64.5336L458.409 67.532ZM460.4 67.5C461.066 67.5 461.73 67.5107 462.391 67.532L462.488 64.5336C461.795 64.5113 461.099 64.5 460.4 64.5V67.5ZM470.294 68.3021C471.608 68.5174 472.907 68.7749 474.191 69.0732L474.87 66.151C473.522 65.8379 472.158 65.5676 470.779 65.3416L470.294 68.3021ZM481.788 71.3749C483.031 71.843 484.255 72.3507 485.457 72.8966L486.697 70.1647C485.435 69.5918 484.15 69.0588 482.845 68.5674L481.788 71.3749ZM492.456 76.6452C493.582 77.3466 494.683 78.0838 495.758 78.8553L497.507 76.4182C496.379 75.6087 495.224 74.8351 494.043 74.0991L492.456 76.6452ZM501.894 83.8968C502.86 84.8025 503.797 85.7395 504.703 86.7062L506.892 84.6549C505.942 83.6408 504.959 82.6578 503.945 81.7076L501.894 83.8968ZM509.745 92.8423C510.516 93.9171 511.253 95.018 511.955 96.1436L514.501 94.557C513.765 93.3758 512.991 92.2206 512.182 91.0928L509.745 92.8423ZM515.703 103.143C516.249 104.345 516.757 105.569 517.225 106.812L520.033 105.755C519.541 104.45 519.008 103.165 518.435 101.903L515.703 103.143ZM519.527 114.409C519.825 115.693 520.083 116.992 520.298 118.306L523.258 117.821C523.032 116.442 522.762 115.078 522.449 113.73L519.527 114.409ZM521.068 126.209C521.089 126.87 521.1 127.534 521.1 128.2H524.1C524.1 127.501 524.089 126.805 524.066 126.112L521.068 126.209Z" fill="#6A6A6A"/>
<path d="M150.932 126.209C150.959 125.381 150.309 124.688 149.481 124.661C148.653 124.635 147.96 125.284 147.933 126.112L150.932 126.209ZM148.742 117.821C148.608 118.638 149.162 119.41 149.979 119.544C150.797 119.678 151.568 119.124 151.702 118.306L148.742 117.821ZM152.473 114.409C152.661 113.602 152.158 112.796 151.351 112.608C150.544 112.421 149.738 112.923 149.551 113.73L152.473 114.409ZM151.967 105.755C151.675 106.53 152.067 107.395 152.842 107.687C153.618 107.979 154.483 107.587 154.775 106.812L151.967 105.755ZM156.296 103.143C156.639 102.388 156.305 101.499 155.55 101.157C154.796 100.814 153.907 101.148 153.565 101.903L156.296 103.143ZM157.499 94.557C157.061 95.2601 157.276 96.1852 157.979 96.6234C158.682 97.0615 159.607 96.8467 160.045 96.1436L157.499 94.557ZM162.255 92.8423C162.738 92.1693 162.584 91.2321 161.911 90.749C161.238 90.2659 160.301 90.4199 159.818 91.0928L162.255 92.8423ZM165.107 84.655C164.541 85.2595 164.572 86.2087 165.176 86.7752C165.781 87.3416 166.73 87.3107 167.297 86.7062L165.107 84.655ZM170.106 83.8968C170.711 83.3303 170.741 82.3811 170.175 81.7766C169.609 81.172 168.659 81.1412 168.055 81.7076L170.106 83.8968ZM174.493 76.4182C173.82 76.9013 173.666 77.8385 174.149 78.5115C174.632 79.1845 175.569 79.3384 176.242 78.8553L174.493 76.4182ZM179.543 76.6452C180.247 76.207 180.461 75.2819 180.023 74.5788C179.585 73.8757 178.66 73.6609 177.957 74.0991L179.543 76.6452ZM185.303 70.1647C184.548 70.5071 184.214 71.3962 184.557 72.1505C184.899 72.9049 185.788 73.2389 186.543 72.8966L185.303 70.1647ZM190.212 71.3749C190.987 71.083 191.379 70.2178 191.087 69.4425C190.795 68.6673 189.93 68.2754 189.155 68.5674L190.212 71.3749ZM197.13 66.151C196.323 66.3384 195.821 67.1446 196.008 67.9515C196.196 68.7584 197.002 69.2606 197.809 69.0732L197.13 66.151ZM201.706 68.3021C202.523 68.1681 203.078 67.3967 202.944 66.5792C202.81 65.7617 202.038 65.2076 201.221 65.3416L201.706 68.3021ZM209.512 64.5336C208.684 64.5603 208.034 65.2531 208.061 66.0811C208.088 66.9091 208.781 67.5587 209.609 67.532L209.512 64.5336ZM213.591 67.532C214.419 67.5587 215.112 66.9091 215.139 66.0811C215.165 65.2531 214.516 64.5603 213.688 64.5336L213.591 67.532ZM221.979 65.3416C221.162 65.2076 220.39 65.7617 220.256 66.5792C220.122 67.3967 220.676 68.1681 221.494 68.3021L221.979 65.3416ZM225.391 69.0732C226.198 69.2606 227.004 68.7584 227.192 67.9515C227.379 67.1446 226.877 66.3384 226.07 66.151L225.391 69.0732ZM234.045 68.5674C233.27 68.2754 232.405 68.6673 232.113 69.4425C231.821 70.2178 232.213 71.083 232.988 71.3749L234.045 68.5674ZM236.657 72.8966C237.412 73.2389 238.301 72.9049 238.643 72.1505C238.985 71.3962 238.651 70.5071 237.897 70.1647L236.657 72.8966ZM245.243 74.0991C244.54 73.6609 243.615 73.8757 243.177 74.5788C242.738 75.2819 242.953 76.207 243.656 76.6452L245.243 74.0991ZM246.958 78.8553C247.631 79.3384 248.568 79.1845 249.051 78.5115C249.534 77.8385 249.38 76.9013 248.707 76.4182L246.958 78.8553ZM255.145 81.7076C254.54 81.1412 253.591 81.172 253.025 81.7766C252.458 82.3811 252.489 83.3303 253.094 83.8968L255.145 81.7076ZM255.903 86.7062C256.47 87.3107 257.419 87.3416 258.023 86.7751C258.628 86.2087 258.659 85.2595 258.092 84.6549L255.903 86.7062ZM263.382 91.0928C262.899 90.4199 261.961 90.2659 261.288 90.749C260.615 91.2321 260.461 92.1693 260.945 92.8423L263.382 91.0928ZM263.155 96.1436C263.593 96.8467 264.518 97.0615 265.221 96.6233C265.924 96.1852 266.139 95.2601 265.701 94.557L263.155 96.1436ZM269.635 101.903C269.293 101.148 268.404 100.814 267.649 101.157C266.895 101.499 266.561 102.388 266.903 103.143L269.635 101.903ZM268.425 106.812C268.717 107.587 269.582 107.979 270.357 107.687C271.133 107.395 271.524 106.53 271.233 105.755L268.425 106.812ZM273.649 113.73C273.461 112.923 272.655 112.421 271.848 112.608C271.041 112.796 270.539 113.602 270.727 114.409L273.649 113.73ZM271.498 118.306C271.632 119.124 272.403 119.678 273.221 119.544C274.038 119.41 274.592 118.638 274.458 117.821L271.498 118.306ZM275.266 126.112C275.24 125.284 274.547 124.635 273.719 124.661C272.891 124.688 272.241 125.381 272.268 126.209L275.266 126.112ZM150.9 128.2C150.9 127.534 150.911 126.87 150.932 126.209L147.933 126.112C147.911 126.805 147.9 127.501 147.9 128.2H150.9ZM151.702 118.306C151.917 116.992 152.175 115.693 152.473 114.409L149.551 113.73C149.238 115.078 148.968 116.442 148.742 117.821L151.702 118.306ZM154.775 106.812C155.243 105.569 155.751 104.345 156.296 103.143L153.565 101.903C152.992 103.165 152.459 104.45 151.967 105.755L154.775 106.812ZM160.045 96.1436C160.746 95.018 161.484 93.9171 162.255 92.8423L159.818 91.0928C159.009 92.2206 158.235 93.3758 157.499 94.557L160.045 96.1436ZM167.297 86.7062C168.202 85.7395 169.139 84.8025 170.106 83.8968L168.055 81.7076C167.041 82.6578 166.058 83.6408 165.107 84.655L167.297 86.7062ZM176.242 78.8553C177.317 78.0838 178.418 77.3466 179.543 76.6452L177.957 74.0991C176.776 74.8351 175.62 75.6087 174.493 76.4182L176.242 78.8553ZM186.543 72.8966C187.745 72.3507 188.969 71.843 190.212 71.3749L189.155 68.5674C187.85 69.0588 186.565 69.5918 185.303 70.1647L186.543 72.8966ZM197.809 69.0732C199.093 68.7749 200.392 68.5174 201.706 68.3021L201.221 65.3416C199.842 65.5676 198.478 65.8379 197.13 66.151L197.809 69.0732ZM209.609 67.532C210.27 67.5107 210.934 67.5 211.6 67.5V64.5C210.901 64.5 210.205 64.5113 209.512 64.5336L209.609 67.532ZM211.6 67.5C212.266 67.5 212.93 67.5107 213.591 67.532L213.688 64.5336C212.995 64.5113 212.298 64.5 211.6 64.5V67.5ZM221.494 68.3021C222.808 68.5174 224.107 68.7749 225.391 69.0732L226.07 66.151C224.722 65.8379 223.358 65.5676 221.979 65.3416L221.494 68.3021ZM232.988 71.3749C234.231 71.843 235.455 72.3507 236.657 72.8966L237.897 70.1647C236.635 69.5918 235.35 69.0588 234.045 68.5674L232.988 71.3749ZM243.656 76.6452C244.782 77.3466 245.883 78.0838 246.958 78.8553L248.707 76.4182C247.579 75.6087 246.424 74.8351 245.243 74.0991L243.656 76.6452ZM253.094 83.8968C254.06 84.8025 254.997 85.7395 255.903 86.7062L258.092 84.6549C257.142 83.6408 256.159 82.6578 255.145 81.7076L253.094 83.8968ZM260.945 92.8423C261.716 93.9171 262.453 95.018 263.155 96.1436L265.701 94.557C264.965 93.3758 264.191 92.2206 263.382 91.0928L260.945 92.8423ZM266.903 103.143C267.449 104.345 267.957 105.569 268.425 106.812L271.233 105.755C270.741 104.45 270.208 103.165 269.635 101.903L266.903 103.143ZM270.727 114.409C271.025 115.693 271.282 116.992 271.498 118.306L274.458 117.821C274.232 116.442 273.962 115.078 273.649 113.73L270.727 114.409ZM272.268 126.209C272.289 126.87 272.3 127.534 272.3 128.2H275.3C275.3 127.501 275.289 126.805 275.266 126.112L272.268 126.209Z" fill="#6A6A6A"/>
<path d="M396.668 130.191C396.641 131.019 397.291 131.712 398.119 131.739C398.947 131.766 399.64 131.116 399.666 130.288L396.668 130.191ZM398.858 138.579C398.992 137.762 398.438 136.99 397.621 136.856C396.803 136.722 396.032 137.276 395.898 138.094L398.858 138.579ZM395.127 141.991C394.939 142.798 395.442 143.604 396.248 143.792C397.055 143.979 397.862 143.477 398.049 142.67L395.127 141.991ZM395.633 150.645C395.925 149.87 395.533 149.005 394.757 148.713C393.982 148.421 393.117 148.813 392.825 149.588L395.633 150.645ZM391.303 153.257C390.961 154.012 391.295 154.901 392.049 155.243C392.804 155.586 393.693 155.252 394.035 154.497L391.303 153.257ZM390.101 161.843C390.539 161.14 390.324 160.215 389.621 159.777C388.918 159.339 387.993 159.553 387.555 160.256L390.101 161.843ZM385.345 163.558C384.862 164.231 385.015 165.168 385.688 165.651C386.361 166.134 387.299 165.98 387.782 165.307L385.345 163.558ZM382.492 171.745C383.059 171.141 383.028 170.191 382.423 169.625C381.819 169.058 380.87 169.089 380.303 169.694L382.492 171.745ZM377.494 172.503C376.889 173.07 376.858 174.019 377.425 174.623C377.991 175.228 378.94 175.259 379.545 174.692L377.494 172.503ZM373.107 179.982C373.78 179.499 373.934 178.562 373.451 177.889C372.968 177.216 372.031 177.062 371.358 177.545L373.107 179.982ZM368.056 179.755C367.353 180.193 367.138 181.118 367.577 181.821C368.015 182.524 368.94 182.739 369.643 182.301L368.056 179.755ZM362.297 186.235C363.052 185.893 363.386 185.004 363.043 184.249C362.701 183.495 361.812 183.161 361.057 183.503L362.297 186.235ZM357.388 185.025C356.613 185.317 356.221 186.182 356.513 186.957C356.805 187.733 357.67 188.125 358.445 187.833L357.388 185.025ZM350.47 190.249C351.277 190.062 351.779 189.255 351.592 188.449C351.404 187.642 350.598 187.139 349.791 187.327L350.47 190.249ZM345.894 188.098C345.076 188.232 344.522 189.003 344.656 189.821C344.79 190.638 345.562 191.192 346.379 191.058L345.894 188.098ZM338.088 191.866C338.916 191.84 339.565 191.147 339.539 190.319C339.512 189.491 338.819 188.841 337.991 188.868L338.088 191.866ZM334.009 188.868C333.181 188.841 332.488 189.491 332.461 190.319C332.434 191.147 333.084 191.84 333.912 191.866L334.009 188.868ZM325.621 191.058C326.438 191.192 327.21 190.638 327.344 189.821C327.478 189.003 326.923 188.232 326.106 188.098L325.621 191.058ZM322.209 187.327C321.402 187.139 320.596 187.642 320.408 188.449C320.221 189.255 320.723 190.062 321.53 190.249L322.209 187.327ZM313.555 187.833C314.33 188.125 315.195 187.733 315.487 186.957C315.779 186.182 315.387 185.317 314.612 185.025L313.555 187.833ZM310.943 183.503C310.188 183.161 309.299 183.495 308.957 184.249C308.614 185.004 308.948 185.893 309.703 186.235L310.943 183.503ZM302.357 182.301C303.06 182.739 303.985 182.524 304.423 181.821C304.861 181.118 304.647 180.193 303.944 179.755L302.357 182.301ZM300.642 177.545C299.969 177.062 299.032 177.216 298.549 177.889C298.066 178.562 298.22 179.499 298.893 179.982L300.642 177.545ZM292.455 174.692C293.059 175.259 294.009 175.228 294.575 174.623C295.142 174.019 295.111 173.07 294.506 172.503L292.455 174.692ZM291.697 169.694C291.13 169.089 290.181 169.058 289.577 169.625C288.972 170.191 288.941 171.141 289.508 171.745L291.697 169.694ZM284.218 165.307C284.701 165.98 285.638 166.134 286.311 165.651C286.984 165.168 287.138 164.231 286.655 163.558L284.218 165.307ZM284.445 160.256C284.007 159.553 283.082 159.339 282.379 159.777C281.676 160.215 281.461 161.14 281.899 161.843L284.445 160.256ZM277.965 154.497C278.307 155.252 279.196 155.586 279.95 155.243C280.705 154.901 281.039 154.012 280.697 153.257L277.965 154.497ZM279.175 149.588C278.883 148.813 278.018 148.421 277.242 148.713C276.467 149.005 276.075 149.87 276.367 150.645L279.175 149.588ZM273.951 142.67C274.138 143.477 274.945 143.979 275.751 143.792C276.558 143.604 277.061 142.798 276.873 141.991L273.951 142.67ZM276.102 138.094C275.968 137.276 275.197 136.722 274.379 136.856C273.562 136.99 273.008 137.762 273.142 138.579L276.102 138.094ZM272.334 130.288C272.36 131.116 273.053 131.766 273.881 131.739C274.709 131.712 275.359 131.019 275.332 130.191L272.334 130.288ZM396.7 128.2C396.7 128.866 396.689 129.53 396.668 130.191L399.666 130.288C399.689 129.595 399.7 128.899 399.7 128.2L396.7 128.2ZM395.898 138.094C395.683 139.408 395.425 140.707 395.127 141.991L398.049 142.67C398.362 141.322 398.632 139.958 398.858 138.579L395.898 138.094ZM392.825 149.588C392.357 150.831 391.849 152.055 391.303 153.257L394.035 154.497C394.608 153.235 395.141 151.95 395.633 150.645L392.825 149.588ZM387.555 160.256C386.853 161.382 386.116 162.483 385.345 163.558L387.782 165.307C388.591 164.179 389.365 163.024 390.101 161.843L387.555 160.256ZM380.303 169.694C379.397 170.661 378.46 171.598 377.494 172.503L379.545 174.692C380.559 173.742 381.542 172.759 382.492 171.745L380.303 169.694ZM371.358 177.545C370.283 178.316 369.182 179.053 368.056 179.755L369.643 182.301C370.824 181.565 371.979 180.791 373.107 179.982L371.358 177.545ZM361.057 183.503C359.855 184.049 358.631 184.557 357.388 185.025L358.445 187.833C359.75 187.341 361.035 186.808 362.297 186.235L361.057 183.503ZM349.791 187.327C348.507 187.625 347.208 187.883 345.894 188.098L346.379 191.058C347.758 190.832 349.122 190.562 350.47 190.249L349.791 187.327ZM337.991 188.868C337.33 188.889 336.666 188.9 336 188.9L336 191.9C336.699 191.9 337.395 191.889 338.088 191.866L337.991 188.868ZM336 188.9C335.334 188.9 334.67 188.889 334.009 188.868L333.912 191.866C334.605 191.889 335.301 191.9 336 191.9L336 188.9ZM326.106 188.098C324.792 187.883 323.493 187.625 322.209 187.327L321.53 190.249C322.878 190.562 324.242 190.832 325.621 191.058L326.106 188.098ZM314.612 185.025C313.369 184.557 312.145 184.049 310.943 183.503L309.703 186.235C310.965 186.808 312.25 187.341 313.555 187.833L314.612 185.025ZM303.944 179.755C302.818 179.053 301.717 178.316 300.642 177.545L298.893 179.982C300.021 180.791 301.176 181.565 302.357 182.301L303.944 179.755ZM294.506 172.503C293.539 171.598 292.602 170.661 291.697 169.694L289.508 171.745C290.458 172.759 291.441 173.742 292.455 174.692L294.506 172.503ZM286.655 163.558C285.884 162.483 285.147 161.382 284.445 160.256L281.899 161.843C282.635 163.024 283.409 164.179 284.218 165.307L286.655 163.558ZM280.697 153.257C280.151 152.055 279.643 150.831 279.175 149.588L276.367 150.645C276.859 151.95 277.392 153.235 277.965 154.497L280.697 153.257ZM276.873 141.991C276.575 140.707 276.317 139.408 276.102 138.094L273.142 138.579C273.368 139.958 273.638 141.322 273.951 142.67L276.873 141.991ZM275.332 130.191C275.311 129.53 275.3 128.866 275.3 128.2L272.3 128.2C272.3 128.899 272.311 129.595 272.334 130.288L275.332 130.191Z" fill="#6A6A6A"/>
<path d="M26.0606 127.139C25.4748 126.554 24.525 126.554 23.9392 127.139L14.3933 136.685C13.8075 137.271 13.8075 138.221 14.3933 138.807C14.9791 139.392 15.9288 139.392 16.5146 138.807L24.9999 130.321L33.4852 138.807C34.071 139.392 35.0207 139.392 35.6065 138.807C36.1923 138.221 36.1923 137.271 35.6065 136.685L26.0606 127.139ZM147.868 130.191C147.841 131.019 148.491 131.712 149.319 131.739C150.147 131.766 150.84 131.116 150.866 130.288L147.868 130.191ZM150.058 138.579C150.192 137.762 149.638 136.99 148.821 136.856C148.003 136.722 147.232 137.276 147.098 138.094L150.058 138.579ZM146.327 141.991C146.139 142.798 146.641 143.604 147.448 143.792C148.255 143.979 149.061 143.477 149.249 142.67L146.327 141.991ZM146.833 150.645C147.124 149.87 146.733 149.005 145.957 148.713C145.182 148.421 144.317 148.813 144.025 149.588L146.833 150.645ZM142.503 153.257C142.161 154.012 142.495 154.901 143.249 155.243C144.004 155.586 144.893 155.252 145.235 154.497L142.503 153.257ZM141.301 161.843C141.739 161.14 141.524 160.215 140.821 159.777C140.118 159.339 139.193 159.553 138.755 160.256L141.301 161.843ZM136.545 163.558C136.061 164.231 136.215 165.168 136.888 165.651C137.561 166.134 138.499 165.98 138.982 165.307L136.545 163.558ZM133.692 171.745C134.259 171.141 134.228 170.191 133.623 169.625C133.019 169.058 132.07 169.089 131.503 169.694L133.692 171.745ZM128.694 172.503C128.089 173.07 128.058 174.019 128.625 174.623C129.191 175.228 130.14 175.259 130.745 174.692L128.694 172.503ZM124.307 179.982C124.98 179.499 125.134 178.562 124.651 177.889C124.168 177.216 123.231 177.062 122.558 177.545L124.307 179.982ZM119.256 179.755C118.553 180.193 118.338 181.118 118.777 181.821C119.215 182.524 120.14 182.739 120.843 182.301L119.256 179.755ZM113.497 186.235C114.251 185.893 114.585 185.004 114.243 184.249C113.901 183.495 113.012 183.161 112.257 183.503L113.497 186.235ZM108.588 185.025C107.813 185.317 107.421 186.182 107.713 186.957C108.005 187.733 108.87 188.125 109.645 187.833L108.588 185.025ZM101.67 190.249C102.477 190.062 102.979 189.255 102.792 188.449C102.604 187.642 101.798 187.139 100.991 187.327L101.67 190.249ZM97.0939 188.098C96.2764 188.232 95.7223 189.003 95.8563 189.821C95.9902 190.638 96.7616 191.192 97.5791 191.058L97.0939 188.098ZM89.2878 191.866C90.1158 191.84 90.7654 191.147 90.7387 190.319C90.712 189.491 90.0192 188.841 89.1912 188.868L89.2878 191.866ZM85.2086 188.868C84.3806 188.841 83.6878 189.491 83.6611 190.319C83.6344 191.147 84.284 191.84 85.112 191.866L85.2086 188.868ZM76.8207 191.058C77.6382 191.192 78.4096 190.638 78.5436 189.821C78.6776 189.003 78.1235 188.232 77.3059 188.098L76.8207 191.058ZM73.4088 187.327C72.6018 187.139 71.7957 187.642 71.6082 188.449C71.4208 189.255 71.923 190.062 72.7299 190.249L73.4088 187.327ZM64.7547 187.833C65.53 188.125 66.3951 187.733 66.6871 186.957C66.979 186.182 66.5872 185.317 65.8119 185.025L64.7547 187.833ZM62.1425 183.503C61.3881 183.161 60.4991 183.495 60.1567 184.249C59.8144 185.004 60.1484 185.893 60.9027 186.235L62.1425 183.503ZM53.5569 182.301C54.26 182.739 55.1851 182.524 55.6233 181.821C56.0614 181.118 55.8466 180.193 55.1435 179.755L53.5569 182.301ZM51.8422 177.545C51.1692 177.062 50.232 177.216 49.7489 177.889C49.2658 178.562 49.4198 179.499 50.0927 179.982L51.8422 177.545ZM43.6549 174.692C44.2594 175.259 45.2086 175.228 45.7751 174.623C46.3415 174.019 46.3106 173.07 45.7061 172.503L43.6549 174.692ZM42.8967 169.694C42.3302 169.089 41.381 169.058 40.7765 169.625C40.1719 170.191 40.1411 171.141 40.7075 171.745L42.8967 169.694ZM35.4181 165.307C35.9012 165.98 36.8384 166.134 37.5114 165.651C38.1844 165.168 38.3383 164.231 37.8552 163.558L35.4181 165.307ZM35.6451 160.256C35.2069 159.553 34.2818 159.339 33.5787 159.777C32.8756 160.215 32.6608 161.14 33.099 161.843L35.6451 160.256ZM29.1646 154.497C29.507 155.252 30.3961 155.586 31.1504 155.243C31.9048 154.901 32.2388 154.012 31.8965 153.257L29.1646 154.497ZM30.3748 149.588C30.0829 148.813 29.2177 148.421 28.4424 148.713C27.6672 149.005 27.2753 149.87 27.5673 150.645L30.3748 149.588ZM25.1509 142.67C25.3384 143.477 26.1445 143.979 26.9514 143.792C27.7583 143.604 28.2605 142.798 28.0731 141.991L25.1509 142.67ZM27.302 138.094C27.168 137.276 26.3966 136.722 25.5791 136.856C24.7616 136.99 24.2075 137.762 24.3415 138.579L27.302 138.094ZM23.5335 130.288C23.5602 131.116 24.253 131.766 25.081 131.739C25.909 131.712 26.5586 131.019 26.5319 130.191L23.5335 130.288ZM147.9 128.2C147.9 128.866 147.889 129.53 147.868 130.191L150.866 130.288C150.889 129.595 150.9 128.899 150.9 128.2L147.9 128.2ZM147.098 138.094C146.882 139.408 146.625 140.707 146.327 141.991L149.249 142.67C149.562 141.322 149.832 139.958 150.058 138.579L147.098 138.094ZM144.025 149.588C143.557 150.831 143.049 152.055 142.503 153.257L145.235 154.497C145.808 153.235 146.341 151.95 146.833 150.645L144.025 149.588ZM138.755 160.256C138.053 161.382 137.316 162.483 136.545 163.558L138.982 165.307C139.791 164.179 140.565 163.024 141.301 161.843L138.755 160.256ZM131.503 169.694C130.597 170.661 129.66 171.598 128.694 172.503L130.745 174.692C131.759 173.742 132.742 172.759 133.692 171.745L131.503 169.694ZM122.558 177.545C121.483 178.316 120.382 179.053 119.256 179.755L120.843 182.301C122.024 181.565 123.179 180.791 124.307 179.982L122.558 177.545ZM112.257 183.503C111.055 184.049 109.831 184.557 108.588 185.025L109.645 187.833C110.95 187.341 112.235 186.808 113.497 186.235L112.257 183.503ZM100.991 187.327C99.7072 187.625 98.4077 187.883 97.0939 188.098L97.5791 191.058C98.958 190.832 100.322 190.562 101.67 190.249L100.991 187.327ZM89.1912 188.868C88.5301 188.889 87.8663 188.9 87.1999 188.9L87.1999 191.9C87.8985 191.9 88.5945 191.889 89.2878 191.866L89.1912 188.868ZM87.1999 188.9C86.5335 188.9 85.8697 188.889 85.2086 188.868L85.112 191.866C85.8053 191.889 86.5013 191.9 87.1999 191.9L87.1999 188.9ZM77.3059 188.098C75.9921 187.883 74.6926 187.625 73.4088 187.327L72.7299 190.249C74.0777 190.562 75.4418 190.832 76.8207 191.058L77.3059 188.098ZM65.8119 185.025C64.5689 184.557 63.3452 184.049 62.1425 183.503L60.9027 186.235C62.1652 186.808 63.4497 187.341 64.7547 187.833L65.8119 185.025ZM55.1435 179.755C54.0179 179.053 52.917 178.316 51.8422 177.545L50.0927 179.982C51.2205 180.791 52.3757 181.565 53.5569 182.301L55.1435 179.755ZM45.7061 172.503C44.7394 171.598 43.8024 170.661 42.8967 169.694L40.7075 171.745C41.6577 172.759 42.6407 173.742 43.6549 174.692L45.7061 172.503ZM37.8552 163.558C37.0837 162.483 36.3465 161.382 35.6451 160.256L33.099 161.843C33.835 163.024 34.6086 164.179 35.4181 165.307L37.8552 163.558ZM31.8965 153.257C31.3506 152.055 30.8429 150.831 30.3748 149.588L27.5673 150.645C28.0587 151.95 28.5917 153.235 29.1646 154.497L31.8965 153.257ZM28.0731 141.991C27.7748 140.707 27.5173 139.408 27.302 138.094L24.3415 138.579C24.5675 139.958 24.8378 141.322 25.1509 142.67L28.0731 141.991ZM26.5319 130.191C26.5106 129.53 26.4999 128.866 26.4999 128.2L23.4999 128.2C23.4999 128.899 23.5111 129.595 23.5335 130.288L26.5319 130.191Z" fill="#6A6A6A"/>
<path d="M645.468 130.191C645.441 131.019 646.091 131.712 646.919 131.739C647.747 131.766 648.44 131.116 648.466 130.288L645.468 130.191ZM647.658 138.579C647.792 137.762 647.238 136.99 646.421 136.856C645.603 136.722 644.832 137.276 644.698 138.094L647.658 138.579ZM643.927 141.991C643.739 142.798 644.242 143.604 645.048 143.792C645.855 143.979 646.662 143.477 646.849 142.67L643.927 141.991ZM644.433 150.645C644.725 149.87 644.333 149.005 643.557 148.713C642.782 148.421 641.917 148.813 641.625 149.588L644.433 150.645ZM640.103 153.257C639.761 154.012 640.095 154.901 640.849 155.243C641.604 155.586 642.493 155.252 642.835 154.497L640.103 153.257ZM638.901 161.843C639.339 161.14 639.124 160.215 638.421 159.777C637.718 159.339 636.793 159.553 636.355 160.256L638.901 161.843ZM634.145 163.558C633.662 164.231 633.816 165.168 634.488 165.651C635.161 166.134 636.099 165.98 636.582 165.307L634.145 163.558ZM631.292 171.745C631.859 171.141 631.828 170.191 631.223 169.625C630.619 169.058 629.67 169.089 629.103 169.694L631.292 171.745ZM626.294 172.503C625.689 173.07 625.658 174.019 626.225 174.623C626.791 175.228 627.741 175.259 628.345 174.692L626.294 172.503ZM621.907 179.982C622.58 179.499 622.734 178.562 622.251 177.889C621.768 177.216 620.831 177.062 620.158 177.545L621.907 179.982ZM616.856 179.755C616.153 180.193 615.939 181.118 616.377 181.821C616.815 182.524 617.74 182.739 618.443 182.301L616.856 179.755ZM611.097 186.235C611.852 185.893 612.186 185.004 611.843 184.249C611.501 183.495 610.612 183.161 609.857 183.503L611.097 186.235ZM606.188 185.025C605.413 185.317 605.021 186.182 605.313 186.957C605.605 187.733 606.47 188.125 607.245 187.833L606.188 185.025ZM599.27 190.249C600.077 190.062 600.579 189.255 600.392 188.449C600.204 187.642 599.398 187.139 598.591 187.327L599.27 190.249ZM594.694 188.098C593.876 188.232 593.322 189.003 593.456 189.821C593.59 190.638 594.362 191.192 595.179 191.058L594.694 188.098ZM586.888 191.866C587.716 191.84 588.365 191.147 588.339 190.319C588.312 189.491 587.619 188.841 586.791 188.868L586.888 191.866ZM582.809 188.868C581.981 188.841 581.288 189.491 581.261 190.319C581.235 191.147 581.884 191.84 582.712 191.866L582.809 188.868ZM574.421 191.058C575.238 191.192 576.01 190.638 576.144 189.821C576.278 189.003 575.724 188.232 574.906 188.098L574.421 191.058ZM571.009 187.327C570.202 187.139 569.396 187.642 569.208 188.449C569.021 189.255 569.523 190.062 570.33 190.249L571.009 187.327ZM562.355 187.833C563.13 188.125 563.995 187.733 564.287 186.957C564.579 186.182 564.187 185.317 563.412 185.025L562.355 187.833ZM559.743 183.503C558.988 183.161 558.099 183.495 557.757 184.249C557.414 185.004 557.748 185.893 558.503 186.235L559.743 183.503ZM551.157 182.301C551.86 182.739 552.785 182.524 553.223 181.821C553.661 181.118 553.447 180.193 552.744 179.755L551.157 182.301ZM549.442 177.545C548.769 177.062 547.832 177.216 547.349 177.889C546.866 178.562 547.02 179.499 547.693 179.982L549.442 177.545ZM541.255 174.692C541.859 175.259 542.809 175.228 543.375 174.623C543.942 174.019 543.911 173.07 543.306 172.503L541.255 174.692ZM540.497 169.694C539.93 169.089 538.981 169.058 538.377 169.625C537.772 170.191 537.741 171.141 538.308 171.745L540.497 169.694ZM533.018 165.307C533.501 165.98 534.439 166.134 535.112 165.651C535.784 165.168 535.938 164.231 535.455 163.558L533.018 165.307ZM533.245 160.256C532.807 159.553 531.882 159.339 531.179 159.777C530.476 160.215 530.261 161.14 530.699 161.843L533.245 160.256ZM526.765 154.497C527.107 155.252 527.996 155.586 528.751 155.243C529.505 154.901 529.839 154.012 529.497 153.257L526.765 154.497ZM527.975 149.588C527.683 148.813 526.818 148.421 526.043 148.713C525.267 149.005 524.875 149.87 525.167 150.645L527.975 149.588ZM522.751 142.67C522.938 143.477 523.745 143.979 524.552 143.792C525.358 143.604 525.861 142.798 525.673 141.991L522.751 142.67ZM524.902 138.094C524.768 137.276 523.997 136.722 523.179 136.856C522.362 136.99 521.808 137.762 521.942 138.579L524.902 138.094ZM521.134 130.288C521.16 131.116 521.853 131.766 522.681 131.739C523.509 131.712 524.159 131.019 524.132 130.191L521.134 130.288ZM645.5 128.2C645.5 128.866 645.489 129.53 645.468 130.191L648.466 130.288C648.489 129.595 648.5 128.899 648.5 128.2L645.5 128.2ZM644.698 138.094C644.483 139.408 644.225 140.707 643.927 141.991L646.849 142.67C647.162 141.322 647.432 139.958 647.658 138.579L644.698 138.094ZM641.625 149.588C641.157 150.831 640.649 152.055 640.103 153.257L642.835 154.497C643.408 153.235 643.941 151.95 644.433 150.645L641.625 149.588ZM636.355 160.256C635.653 161.382 634.916 162.483 634.145 163.558L636.582 165.307C637.391 164.179 638.165 163.024 638.901 161.843L636.355 160.256ZM629.103 169.694C628.198 170.661 627.26 171.598 626.294 172.503L628.345 174.692C629.359 173.742 630.342 172.759 631.292 171.745L629.103 169.694ZM620.158 177.545C619.083 178.316 617.982 179.053 616.856 179.755L618.443 182.301C619.624 181.565 620.779 180.791 621.907 179.982L620.158 177.545ZM609.857 183.503C608.655 184.049 607.431 184.557 606.188 185.025L607.245 187.833C608.55 187.341 609.835 186.808 611.097 186.235L609.857 183.503ZM598.591 187.327C597.307 187.625 596.008 187.883 594.694 188.098L595.179 191.058C596.558 190.832 597.922 190.562 599.27 190.249L598.591 187.327ZM586.791 188.868C586.13 188.889 585.466 188.9 584.8 188.9L584.8 191.9C585.499 191.9 586.195 191.889 586.888 191.866L586.791 188.868ZM584.8 188.9C584.134 188.9 583.47 188.889 582.809 188.868L582.712 191.866C583.405 191.889 584.101 191.9 584.8 191.9L584.8 188.9ZM574.906 188.098C573.592 187.883 572.293 187.625 571.009 187.327L570.33 190.249C571.678 190.562 573.042 190.832 574.421 191.058L574.906 188.098ZM563.412 185.025C562.169 184.557 560.945 184.049 559.743 183.503L558.503 186.235C559.765 186.808 561.05 187.341 562.355 187.833L563.412 185.025ZM552.744 179.755C551.618 179.053 550.517 178.316 549.442 177.545L547.693 179.982C548.821 180.791 549.976 181.565 551.157 182.301L552.744 179.755ZM543.306 172.503C542.34 171.598 541.403 170.661 540.497 169.694L538.308 171.745C539.258 172.759 540.241 173.742 541.255 174.692L543.306 172.503ZM535.455 163.558C534.684 162.483 533.947 161.382 533.245 160.256L530.699 161.843C531.435 163.024 532.209 164.179 533.018 165.307L535.455 163.558ZM529.497 153.257C528.951 152.055 528.443 150.831 527.975 149.588L525.167 150.645C525.659 151.95 526.192 153.235 526.765 154.497L529.497 153.257ZM525.673 141.991C525.375 140.707 525.117 139.408 524.902 138.094L521.942 138.579C522.168 139.958 522.438 141.322 522.751 142.67L525.673 141.991ZM524.132 130.191C524.111 129.53 524.1 128.866 524.1 128.2L521.1 128.2C521.1 128.899 521.111 129.595 521.134 130.288L524.132 130.191Z" fill="#6A6A6A"/>
</g>
</svg>
