<svg width="672" height="256" viewBox="0 0 672 256" fill="none" xmlns="http://www.w3.org/2000/svg">
<mask id="mask0" style="mask-type:alpha" maskUnits="userSpaceOnUse" x="0" y="0" width="672" height="256">
<rect width="672" height="256" fill="#BCBCBC"/>
</mask>
<g mask="url(#mask0)">
<circle cx="87" cy="128" r="46" fill="white" stroke="#2B2B2B" stroke-width="4"/>
<path d="M56.221 133.613H58.867V129.635H60.505C62.989 129.635 65.095 128.411 65.095 125.657C65.095 122.813 63.043 121.877 60.505 121.877H56.221V133.613ZM58.867 127.529V123.983H60.343C61.747 123.983 62.503 124.433 62.503 125.657C62.503 126.881 61.801 127.529 60.343 127.529H58.867ZM66.581 130.229C66.581 132.461 67.409 133.829 69.353 133.829C70.577 133.829 71.405 133.271 72.161 132.371H72.215L72.413 133.613H74.573V124.685H71.927V130.589C71.405 131.291 71.009 131.579 70.343 131.579C69.569 131.579 69.227 131.165 69.227 129.887V124.685H66.581V130.229ZM76.6515 133.613H79.2975V128.429C79.7655 127.223 80.5935 126.791 81.2595 126.791C81.6375 126.791 81.9075 126.845 82.2315 126.935L82.6635 124.649C82.4115 124.541 82.1055 124.469 81.6015 124.469C80.6835 124.469 79.7115 125.045 79.0635 126.251H78.9915L78.8115 124.685H76.6515V133.613ZM86.1294 132.893C86.7594 133.487 87.4794 133.829 88.2534 133.829C90.1794 133.829 92.0154 132.065 92.0154 129.005C92.0154 126.251 90.6834 124.469 88.5234 124.469C87.5874 124.469 86.6874 124.937 85.9854 125.567H85.9134L85.7334 124.685H83.5734V136.925H86.2194V134.315L86.1294 132.893ZM86.2194 131.093V127.439C86.7414 126.881 87.2094 126.629 87.7494 126.629C88.8114 126.629 89.2974 127.439 89.2974 129.041C89.2974 130.877 88.5594 131.669 87.6414 131.669C87.1914 131.669 86.6874 131.525 86.2194 131.093ZM93.1197 129.149C93.1197 132.119 95.2077 133.829 97.4757 133.829C99.7257 133.829 101.814 132.119 101.814 129.149C101.814 126.179 99.7257 124.469 97.4757 124.469C95.2077 124.469 93.1197 126.179 93.1197 129.149ZM95.8377 129.149C95.8377 127.601 96.3777 126.611 97.4757 126.611C98.5557 126.611 99.1137 127.601 99.1137 129.149C99.1137 130.697 98.5557 131.687 97.4757 131.687C96.3777 131.687 95.8377 130.697 95.8377 129.149ZM102.496 132.587C103.396 133.325 104.746 133.829 105.916 133.829C108.31 133.829 109.588 132.569 109.588 130.949C109.588 129.311 108.31 128.681 107.176 128.267C106.258 127.925 105.43 127.709 105.43 127.133C105.43 126.683 105.754 126.431 106.438 126.431C107.068 126.431 107.68 126.719 108.328 127.187L109.516 125.603C108.742 125.027 107.734 124.469 106.366 124.469C104.296 124.469 102.946 125.603 102.946 127.259C102.946 128.735 104.224 129.473 105.304 129.887C106.222 130.247 107.122 130.517 107.122 131.111C107.122 131.579 106.78 131.867 105.988 131.867C105.232 131.867 104.494 131.543 103.684 130.931L102.496 132.587ZM110.497 129.149C110.497 132.101 112.459 133.829 115.015 133.829C116.077 133.829 117.265 133.451 118.183 132.821L117.301 131.219C116.653 131.615 116.041 131.813 115.375 131.813C114.187 131.813 113.287 131.219 113.053 129.869H118.399C118.453 129.653 118.507 129.221 118.507 128.753C118.507 126.323 117.247 124.469 114.709 124.469C112.567 124.469 110.497 126.251 110.497 129.149ZM113.035 128.231C113.215 127.043 113.935 126.485 114.763 126.485C115.825 126.485 116.257 127.205 116.257 128.231H113.035Z" fill="#009CDE"/>
<g opacity="0.2">
<circle cx="211" cy="128" r="46" fill="white" stroke="#2B2B2B" stroke-width="4"/>
<path d="M182.603 133.613H185.249V129.635H186.887C189.371 129.635 191.477 128.411 191.477 125.657C191.477 122.813 189.425 121.877 186.887 121.877H182.603V133.613ZM185.249 127.529V123.983H186.725C188.129 123.983 188.885 124.433 188.885 125.657C188.885 126.881 188.183 127.529 186.725 127.529H185.249ZM193.053 133.613H195.699V128.429C196.167 127.223 196.995 126.791 197.661 126.791C198.039 126.791 198.309 126.845 198.633 126.935L199.065 124.649C198.813 124.541 198.507 124.469 198.003 124.469C197.085 124.469 196.113 125.045 195.465 126.251H195.393L195.213 124.685H193.053V133.613ZM199.277 129.149C199.277 132.119 201.365 133.829 203.633 133.829C205.883 133.829 207.971 132.119 207.971 129.149C207.971 126.179 205.883 124.469 203.633 124.469C201.365 124.469 199.277 126.179 199.277 129.149ZM201.995 129.149C201.995 127.601 202.535 126.611 203.633 126.611C204.713 126.611 205.271 127.601 205.271 129.149C205.271 130.697 204.713 131.687 203.633 131.687C202.535 131.687 201.995 130.697 201.995 129.149ZM209.011 129.149C209.011 132.119 210.937 133.829 213.421 133.829C214.393 133.829 215.527 133.469 216.391 132.713L215.329 131.039C214.897 131.381 214.375 131.687 213.727 131.687C212.575 131.687 211.729 130.697 211.729 129.149C211.729 127.601 212.539 126.611 213.817 126.611C214.231 126.611 214.627 126.773 215.059 127.133L216.265 125.495C215.671 124.883 214.753 124.469 213.655 124.469C211.189 124.469 209.011 126.179 209.011 129.149ZM216.654 129.149C216.654 132.101 218.616 133.829 221.172 133.829C222.234 133.829 223.422 133.451 224.34 132.821L223.458 131.219C222.81 131.615 222.198 131.813 221.532 131.813C220.344 131.813 219.444 131.219 219.21 129.869H224.556C224.61 129.653 224.664 129.221 224.664 128.753C224.664 126.323 223.404 124.469 220.866 124.469C218.724 124.469 216.654 126.251 216.654 129.149ZM219.192 128.231C219.372 127.043 220.092 126.485 220.92 126.485C221.982 126.485 222.414 127.205 222.414 128.231H219.192ZM225.45 132.587C226.35 133.325 227.7 133.829 228.87 133.829C231.264 133.829 232.542 132.569 232.542 130.949C232.542 129.311 231.264 128.681 230.13 128.267C229.212 127.925 228.384 127.709 228.384 127.133C228.384 126.683 228.708 126.431 229.392 126.431C230.022 126.431 230.634 126.719 231.282 127.187L232.47 125.603C231.696 125.027 230.688 124.469 229.32 124.469C227.25 124.469 225.9 125.603 225.9 127.259C225.9 128.735 227.178 129.473 228.258 129.887C229.176 130.247 230.076 130.517 230.076 131.111C230.076 131.579 229.734 131.867 228.942 131.867C228.186 131.867 227.448 131.543 226.638 130.931L225.45 132.587ZM233.181 132.587C234.081 133.325 235.431 133.829 236.601 133.829C238.995 133.829 240.273 132.569 240.273 130.949C240.273 129.311 238.995 128.681 237.861 128.267C236.943 127.925 236.115 127.709 236.115 127.133C236.115 126.683 236.439 126.431 237.123 126.431C237.753 126.431 238.365 126.719 239.013 127.187L240.201 125.603C239.427 125.027 238.419 124.469 237.051 124.469C234.981 124.469 233.631 125.603 233.631 127.259C233.631 128.735 234.909 129.473 235.989 129.887C236.907 130.247 237.807 130.517 237.807 131.111C237.807 131.579 237.465 131.867 236.673 131.867C235.917 131.867 235.179 131.543 234.369 130.931L233.181 132.587Z" fill="#009CDE"/>
</g>
<g opacity="0.2">
<circle cx="335" cy="128" r="46" fill="white" stroke="#2B2B2B" stroke-width="4"/>
<path d="M305.267 133.613H307.913V129.635H309.551C312.035 129.635 314.141 128.411 314.141 125.657C314.141 122.813 312.089 121.877 309.551 121.877H305.267V133.613ZM307.913 127.529V123.983H309.389C310.793 123.983 311.549 124.433 311.549 125.657C311.549 126.881 310.847 127.529 309.389 127.529H307.913ZM315.717 133.613H318.363V128.429C318.831 127.223 319.659 126.791 320.325 126.791C320.703 126.791 320.973 126.845 321.297 126.935L321.729 124.649C321.477 124.541 321.171 124.469 320.667 124.469C319.749 124.469 318.777 125.045 318.129 126.251H318.057L317.877 124.685H315.717V133.613ZM321.941 129.149C321.941 132.119 324.029 133.829 326.297 133.829C328.547 133.829 330.635 132.119 330.635 129.149C330.635 126.179 328.547 124.469 326.297 124.469C324.029 124.469 321.941 126.179 321.941 129.149ZM324.659 129.149C324.659 127.601 325.199 126.611 326.297 126.611C327.377 126.611 327.935 127.601 327.935 129.149C327.935 130.697 327.377 131.687 326.297 131.687C325.199 131.687 324.659 130.697 324.659 129.149ZM331.729 129.149C331.729 132.065 333.169 133.829 335.383 133.829C336.247 133.829 337.129 133.361 337.759 132.731H337.831L338.011 133.613H340.171V120.995H337.525V124.037L337.633 125.405C337.021 124.829 336.427 124.469 335.437 124.469C333.547 124.469 331.729 126.233 331.729 129.149ZM334.447 129.113C334.447 127.421 335.203 126.629 336.049 126.629C336.535 126.629 337.057 126.773 337.525 127.205V130.859C337.093 131.453 336.643 131.669 336.067 131.669C335.041 131.669 334.447 130.877 334.447 129.113ZM342.176 130.229C342.176 132.461 343.004 133.829 344.948 133.829C346.172 133.829 347 133.271 347.756 132.371H347.81L348.008 133.613H350.168V124.685H347.522V130.589C347 131.291 346.604 131.579 345.938 131.579C345.164 131.579 344.822 131.165 344.822 129.887V124.685H342.176V130.229ZM351.724 129.149C351.724 132.119 353.65 133.829 356.134 133.829C357.106 133.829 358.24 133.469 359.104 132.713L358.042 131.039C357.61 131.381 357.088 131.687 356.44 131.687C355.288 131.687 354.442 130.697 354.442 129.149C354.442 127.601 355.252 126.611 356.53 126.611C356.944 126.611 357.34 126.773 357.772 127.133L358.978 125.495C358.384 124.883 357.466 124.469 356.368 124.469C353.902 124.469 351.724 126.179 351.724 129.149ZM360.759 130.373C360.759 132.443 361.623 133.829 363.837 133.829C364.701 133.829 365.349 133.649 365.817 133.505L365.403 131.579C365.169 131.669 364.845 131.759 364.557 131.759C363.855 131.759 363.405 131.345 363.405 130.337V126.755H365.547V124.685H363.405V122.309H361.209L360.903 124.685L359.535 124.793V126.755H360.759V130.373Z" fill="#009CDE"/>
</g>
<g opacity="0.2">
<circle cx="459" cy="128" r="46" fill="white" stroke="#2B2B2B" stroke-width="4"/>
<path d="M428.586 127.817C428.586 131.759 431.07 133.829 434.112 133.829C435.57 133.829 436.866 133.235 437.838 132.101L436.38 130.499C435.804 131.129 435.102 131.543 434.148 131.543C432.42 131.543 431.304 130.139 431.304 127.727C431.304 125.369 432.582 123.947 434.22 123.947C435.03 123.947 435.606 124.289 436.2 124.829L437.658 123.191C436.866 122.381 435.642 121.661 434.184 121.661C431.16 121.661 428.586 123.929 428.586 127.817ZM438.632 129.149C438.632 132.119 440.72 133.829 442.988 133.829C445.238 133.829 447.326 132.119 447.326 129.149C447.326 126.179 445.238 124.469 442.988 124.469C440.72 124.469 438.632 126.179 438.632 129.149ZM441.35 129.149C441.35 127.601 441.89 126.611 442.988 126.611C444.068 126.611 444.626 127.601 444.626 129.149C444.626 130.697 444.068 131.687 442.988 131.687C441.89 131.687 441.35 130.697 441.35 129.149ZM448.889 133.613H451.535V127.583C452.111 127.025 452.525 126.719 453.191 126.719C453.947 126.719 454.289 127.115 454.289 128.411V133.613H456.935V128.069C456.935 125.837 456.107 124.469 454.163 124.469C452.957 124.469 452.057 125.099 451.301 125.819H451.229L451.049 124.685H448.889V133.613ZM459.3 130.373C459.3 132.443 460.164 133.829 462.378 133.829C463.242 133.829 463.89 133.649 464.358 133.505L463.944 131.579C463.71 131.669 463.386 131.759 463.098 131.759C462.396 131.759 461.946 131.345 461.946 130.337V126.755H464.088V124.685H461.946V122.309H459.75L459.444 124.685L458.076 124.793V126.755H459.3V130.373ZM464.882 129.149C464.882 132.101 466.844 133.829 469.4 133.829C470.462 133.829 471.65 133.451 472.568 132.821L471.686 131.219C471.038 131.615 470.426 131.813 469.76 131.813C468.572 131.813 467.672 131.219 467.438 129.869H472.784C472.838 129.653 472.892 129.221 472.892 128.753C472.892 126.323 471.632 124.469 469.094 124.469C466.952 124.469 464.882 126.251 464.882 129.149ZM467.42 128.231C467.6 127.043 468.32 126.485 469.148 126.485C470.21 126.485 470.642 127.205 470.642 128.231H467.42ZM474.471 133.613H477.117V127.583C477.693 127.025 478.107 126.719 478.773 126.719C479.529 126.719 479.871 127.115 479.871 128.411V133.613H482.517V128.069C482.517 125.837 481.689 124.469 479.745 124.469C478.539 124.469 477.639 125.099 476.883 125.819H476.811L476.631 124.685H474.471V133.613ZM484.882 130.373C484.882 132.443 485.746 133.829 487.96 133.829C488.824 133.829 489.472 133.649 489.94 133.505L489.526 131.579C489.292 131.669 488.968 131.759 488.68 131.759C487.978 131.759 487.528 131.345 487.528 130.337V126.755H489.67V124.685H487.528V122.309H485.332L485.026 124.685L483.658 124.793V126.755H484.882V130.373Z" fill="#009CDE"/>
</g>
<g opacity="0.2">
<circle cx="583" cy="128" r="46" fill="white" stroke="#2B2B2B" stroke-width="4"/>
<path d="M569.607 133.613H573.063C576.501 133.613 578.805 131.723 578.805 127.691C578.805 123.659 576.501 121.877 572.919 121.877H569.607V133.613ZM572.253 131.471V124.019H572.757C574.755 124.019 576.087 124.883 576.087 127.691C576.087 130.499 574.755 131.471 572.757 131.471H572.253ZM580.045 129.149C580.045 132.101 582.007 133.829 584.563 133.829C585.625 133.829 586.813 133.451 587.731 132.821L586.849 131.219C586.201 131.615 585.589 131.813 584.923 131.813C583.735 131.813 582.835 131.219 582.601 129.869H587.947C588.001 129.653 588.055 129.221 588.055 128.753C588.055 126.323 586.795 124.469 584.257 124.469C582.115 124.469 580.045 126.251 580.045 129.149ZM582.583 128.231C582.763 127.043 583.483 126.485 584.311 126.485C585.373 126.485 585.805 127.205 585.805 128.231H582.583ZM591.579 133.613H594.639L597.555 124.685H595.017L593.847 128.897C593.613 129.779 593.379 130.715 593.163 131.651H593.091C592.857 130.715 592.623 129.779 592.389 128.897L591.237 124.685H588.573L591.579 133.613Z" fill="#009CDE"/>
</g>
<path d="M399.732 126.209C399.759 125.381 399.109 124.688 398.281 124.661C397.453 124.635 396.76 125.284 396.734 126.112L399.732 126.209ZM397.542 117.821C397.408 118.638 397.962 119.41 398.779 119.544C399.597 119.678 400.368 119.124 400.502 118.306L397.542 117.821ZM401.273 114.409C401.461 113.602 400.958 112.796 400.151 112.608C399.345 112.421 398.538 112.923 398.351 113.73L401.273 114.409ZM400.767 105.755C400.475 106.53 400.867 107.395 401.642 107.687C402.418 107.979 403.283 107.587 403.575 106.812L400.767 105.755ZM405.097 103.143C405.439 102.388 405.105 101.499 404.35 101.157C403.596 100.814 402.707 101.148 402.365 101.903L405.097 103.143ZM406.299 94.557C405.861 95.2601 406.076 96.1852 406.779 96.6234C407.482 97.0615 408.407 96.8467 408.845 96.1436L406.299 94.557ZM411.055 92.8423C411.538 92.1693 411.384 91.2321 410.711 90.749C410.038 90.2659 409.101 90.4199 408.618 91.0928L411.055 92.8423ZM413.908 84.655C413.341 85.2595 413.372 86.2087 413.977 86.7752C414.581 87.3416 415.53 87.3107 416.097 86.7062L413.908 84.655ZM418.906 83.8968C419.511 83.3303 419.542 82.3811 418.975 81.7766C418.409 81.172 417.459 81.1412 416.855 81.7076L418.906 83.8968ZM423.293 76.4182C422.62 76.9013 422.466 77.8385 422.949 78.5115C423.432 79.1845 424.369 79.3384 425.042 78.8553L423.293 76.4182ZM428.344 76.6452C429.047 76.207 429.261 75.2819 428.823 74.5788C428.385 73.8757 427.46 73.6609 426.757 74.0991L428.344 76.6452ZM434.103 70.1647C433.348 70.5071 433.014 71.3962 433.357 72.1505C433.699 72.9049 434.588 73.2389 435.343 72.8966L434.103 70.1647ZM439.012 71.3749C439.787 71.083 440.179 70.2178 439.887 69.4425C439.595 68.6673 438.73 68.2754 437.955 68.5674L439.012 71.3749ZM445.93 66.151C445.123 66.3384 444.621 67.1446 444.808 67.9515C444.996 68.7584 445.802 69.2606 446.609 69.0732L445.93 66.151ZM450.506 68.3021C451.323 68.1681 451.878 67.3967 451.744 66.5792C451.61 65.7617 450.838 65.2076 450.021 65.3416L450.506 68.3021ZM458.312 64.5336C457.484 64.5603 456.834 65.2531 456.861 66.0811C456.888 66.9091 457.581 67.5587 458.409 67.532L458.312 64.5336ZM462.391 67.532C463.219 67.5587 463.912 66.9091 463.939 66.0811C463.965 65.2531 463.316 64.5603 462.488 64.5336L462.391 67.532ZM470.779 65.3416C469.962 65.2076 469.19 65.7617 469.056 66.5792C468.922 67.3967 469.476 68.1681 470.294 68.3021L470.779 65.3416ZM474.191 69.0732C474.998 69.2606 475.804 68.7584 475.992 67.9515C476.179 67.1446 475.677 66.3384 474.87 66.151L474.191 69.0732ZM482.845 68.5674C482.07 68.2754 481.205 68.6673 480.913 69.4425C480.621 70.2178 481.013 71.083 481.788 71.3749L482.845 68.5674ZM485.457 72.8966C486.212 73.2389 487.101 72.9049 487.443 72.1505C487.785 71.3962 487.451 70.5071 486.697 70.1647L485.457 72.8966ZM494.043 74.0991C493.34 73.6609 492.415 73.8757 491.977 74.5788C491.538 75.2819 491.753 76.207 492.456 76.6452L494.043 74.0991ZM495.758 78.8553C496.431 79.3384 497.368 79.1845 497.851 78.5115C498.334 77.8385 498.18 76.9013 497.507 76.4182L495.758 78.8553ZM503.945 81.7076C503.34 81.1412 502.391 81.172 501.825 81.7766C501.258 82.3811 501.289 83.3303 501.894 83.8968L503.945 81.7076ZM504.703 86.7062C505.27 87.3107 506.219 87.3416 506.823 86.7751C507.428 86.2087 507.459 85.2595 506.892 84.6549L504.703 86.7062ZM512.182 91.0928C511.699 90.4199 510.761 90.2659 510.088 90.749C509.415 91.2321 509.262 92.1693 509.745 92.8423L512.182 91.0928ZM511.955 96.1436C512.393 96.8467 513.318 97.0615 514.021 96.6233C514.724 96.1852 514.939 95.2601 514.501 94.557L511.955 96.1436ZM518.435 101.903C518.093 101.148 517.204 100.814 516.449 101.157C515.695 101.499 515.361 102.388 515.703 103.143L518.435 101.903ZM517.225 106.812C517.517 107.587 518.382 107.979 519.157 107.687C519.933 107.395 520.325 106.53 520.033 105.755L517.225 106.812ZM522.449 113.73C522.262 112.923 521.455 112.421 520.648 112.608C519.842 112.796 519.339 113.602 519.527 114.409L522.449 113.73ZM520.298 118.306C520.432 119.124 521.203 119.678 522.021 119.544C522.838 119.41 523.392 118.638 523.258 117.821L520.298 118.306ZM524.066 126.112C524.04 125.284 523.347 124.635 522.519 124.661C521.691 124.688 521.041 125.381 521.068 126.209L524.066 126.112ZM399.7 128.2C399.7 127.534 399.711 126.87 399.732 126.209L396.734 126.112C396.711 126.805 396.7 127.501 396.7 128.2H399.7ZM400.502 118.306C400.717 116.992 400.975 115.693 401.273 114.409L398.351 113.73C398.038 115.078 397.768 116.442 397.542 117.821L400.502 118.306ZM403.575 106.812C404.043 105.569 404.551 104.345 405.097 103.143L402.365 101.903C401.792 103.165 401.259 104.45 400.767 105.755L403.575 106.812ZM408.845 96.1436C409.547 95.018 410.284 93.9171 411.055 92.8423L408.618 91.0928C407.809 92.2206 407.035 93.3758 406.299 94.557L408.845 96.1436ZM416.097 86.7062C417.002 85.7395 417.939 84.8025 418.906 83.8968L416.855 81.7076C415.841 82.6578 414.858 83.6408 413.908 84.655L416.097 86.7062ZM425.042 78.8553C426.117 78.0838 427.218 77.3466 428.344 76.6452L426.757 74.0991C425.576 74.8351 424.421 75.6087 423.293 76.4182L425.042 78.8553ZM435.343 72.8966C436.545 72.3507 437.769 71.843 439.012 71.3749L437.955 68.5674C436.65 69.0588 435.365 69.5918 434.103 70.1647L435.343 72.8966ZM446.609 69.0732C447.893 68.7749 449.192 68.5174 450.506 68.3021L450.021 65.3416C448.642 65.5676 447.278 65.8379 445.93 66.151L446.609 69.0732ZM458.409 67.532C459.07 67.5107 459.734 67.5 460.4 67.5V64.5C459.701 64.5 459.005 64.5113 458.312 64.5336L458.409 67.532ZM460.4 67.5C461.066 67.5 461.73 67.5107 462.391 67.532L462.488 64.5336C461.795 64.5113 461.099 64.5 460.4 64.5V67.5ZM470.294 68.3021C471.608 68.5174 472.907 68.7749 474.191 69.0732L474.87 66.151C473.522 65.8379 472.158 65.5676 470.779 65.3416L470.294 68.3021ZM481.788 71.3749C483.031 71.843 484.255 72.3507 485.457 72.8966L486.697 70.1647C485.435 69.5918 484.15 69.0588 482.845 68.5674L481.788 71.3749ZM492.456 76.6452C493.582 77.3466 494.683 78.0838 495.758 78.8553L497.507 76.4182C496.379 75.6087 495.224 74.8351 494.043 74.0991L492.456 76.6452ZM501.894 83.8968C502.86 84.8025 503.797 85.7395 504.703 86.7062L506.892 84.6549C505.942 83.6408 504.959 82.6578 503.945 81.7076L501.894 83.8968ZM509.745 92.8423C510.516 93.9171 511.253 95.018 511.955 96.1436L514.501 94.557C513.765 93.3758 512.991 92.2206 512.182 91.0928L509.745 92.8423ZM515.703 103.143C516.249 104.345 516.757 105.569 517.225 106.812L520.033 105.755C519.541 104.45 519.008 103.165 518.435 101.903L515.703 103.143ZM519.527 114.409C519.825 115.693 520.083 116.992 520.298 118.306L523.258 117.821C523.032 116.442 522.762 115.078 522.449 113.73L519.527 114.409ZM521.068 126.209C521.089 126.87 521.1 127.534 521.1 128.2H524.1C524.1 127.501 524.089 126.805 524.066 126.112L521.068 126.209Z" fill="#6A6A6A"/>
<path d="M150.932 126.209C150.959 125.381 150.309 124.688 149.481 124.661C148.653 124.635 147.96 125.284 147.933 126.112L150.932 126.209ZM148.742 117.821C148.608 118.638 149.162 119.41 149.979 119.544C150.797 119.678 151.568 119.124 151.702 118.306L148.742 117.821ZM152.473 114.409C152.661 113.602 152.158 112.796 151.351 112.608C150.544 112.421 149.738 112.923 149.551 113.73L152.473 114.409ZM151.967 105.755C151.675 106.53 152.067 107.395 152.842 107.687C153.618 107.979 154.483 107.587 154.775 106.812L151.967 105.755ZM156.296 103.143C156.639 102.388 156.305 101.499 155.55 101.157C154.796 100.814 153.907 101.148 153.565 101.903L156.296 103.143ZM157.499 94.557C157.061 95.2601 157.276 96.1852 157.979 96.6234C158.682 97.0615 159.607 96.8467 160.045 96.1436L157.499 94.557ZM162.255 92.8423C162.738 92.1693 162.584 91.2321 161.911 90.749C161.238 90.2659 160.301 90.4199 159.818 91.0928L162.255 92.8423ZM165.107 84.655C164.541 85.2595 164.572 86.2087 165.176 86.7752C165.781 87.3416 166.73 87.3107 167.297 86.7062L165.107 84.655ZM170.106 83.8968C170.711 83.3303 170.741 82.3811 170.175 81.7766C169.609 81.172 168.659 81.1412 168.055 81.7076L170.106 83.8968ZM174.493 76.4182C173.82 76.9013 173.666 77.8385 174.149 78.5115C174.632 79.1845 175.569 79.3384 176.242 78.8553L174.493 76.4182ZM179.543 76.6452C180.247 76.207 180.461 75.2819 180.023 74.5788C179.585 73.8757 178.66 73.6609 177.957 74.0991L179.543 76.6452ZM185.303 70.1647C184.548 70.5071 184.214 71.3962 184.557 72.1505C184.899 72.9049 185.788 73.2389 186.543 72.8966L185.303 70.1647ZM190.212 71.3749C190.987 71.083 191.379 70.2178 191.087 69.4425C190.795 68.6673 189.93 68.2754 189.155 68.5674L190.212 71.3749ZM197.13 66.151C196.323 66.3384 195.821 67.1446 196.008 67.9515C196.196 68.7584 197.002 69.2606 197.809 69.0732L197.13 66.151ZM201.706 68.3021C202.523 68.1681 203.078 67.3967 202.944 66.5792C202.81 65.7617 202.038 65.2076 201.221 65.3416L201.706 68.3021ZM209.512 64.5336C208.684 64.5603 208.034 65.2531 208.061 66.0811C208.088 66.9091 208.781 67.5587 209.609 67.532L209.512 64.5336ZM213.591 67.532C214.419 67.5587 215.112 66.9091 215.139 66.0811C215.165 65.2531 214.516 64.5603 213.688 64.5336L213.591 67.532ZM221.979 65.3416C221.162 65.2076 220.39 65.7617 220.256 66.5792C220.122 67.3967 220.676 68.1681 221.494 68.3021L221.979 65.3416ZM225.391 69.0732C226.198 69.2606 227.004 68.7584 227.192 67.9515C227.379 67.1446 226.877 66.3384 226.07 66.151L225.391 69.0732ZM234.045 68.5674C233.27 68.2754 232.405 68.6673 232.113 69.4425C231.821 70.2178 232.213 71.083 232.988 71.3749L234.045 68.5674ZM236.657 72.8966C237.412 73.2389 238.301 72.9049 238.643 72.1505C238.985 71.3962 238.651 70.5071 237.897 70.1647L236.657 72.8966ZM245.243 74.0991C244.54 73.6609 243.615 73.8757 243.177 74.5788C242.738 75.2819 242.953 76.207 243.656 76.6452L245.243 74.0991ZM246.958 78.8553C247.631 79.3384 248.568 79.1845 249.051 78.5115C249.534 77.8385 249.38 76.9013 248.707 76.4182L246.958 78.8553ZM255.145 81.7076C254.54 81.1412 253.591 81.172 253.025 81.7766C252.458 82.3811 252.489 83.3303 253.094 83.8968L255.145 81.7076ZM255.903 86.7062C256.47 87.3107 257.419 87.3416 258.023 86.7751C258.628 86.2087 258.659 85.2595 258.092 84.6549L255.903 86.7062ZM263.382 91.0928C262.899 90.4199 261.961 90.2659 261.288 90.749C260.615 91.2321 260.461 92.1693 260.945 92.8423L263.382 91.0928ZM263.155 96.1436C263.593 96.8467 264.518 97.0615 265.221 96.6233C265.924 96.1852 266.139 95.2601 265.701 94.557L263.155 96.1436ZM269.635 101.903C269.293 101.148 268.404 100.814 267.649 101.157C266.895 101.499 266.561 102.388 266.903 103.143L269.635 101.903ZM268.425 106.812C268.717 107.587 269.582 107.979 270.357 107.687C271.133 107.395 271.524 106.53 271.233 105.755L268.425 106.812ZM273.649 113.73C273.461 112.923 272.655 112.421 271.848 112.608C271.041 112.796 270.539 113.602 270.727 114.409L273.649 113.73ZM271.498 118.306C271.632 119.124 272.403 119.678 273.221 119.544C274.038 119.41 274.592 118.638 274.458 117.821L271.498 118.306ZM275.266 126.112C275.24 125.284 274.547 124.635 273.719 124.661C272.891 124.688 272.241 125.381 272.268 126.209L275.266 126.112ZM150.9 128.2C150.9 127.534 150.911 126.87 150.932 126.209L147.933 126.112C147.911 126.805 147.9 127.501 147.9 128.2H150.9ZM151.702 118.306C151.917 116.992 152.175 115.693 152.473 114.409L149.551 113.73C149.238 115.078 148.968 116.442 148.742 117.821L151.702 118.306ZM154.775 106.812C155.243 105.569 155.751 104.345 156.296 103.143L153.565 101.903C152.992 103.165 152.459 104.45 151.967 105.755L154.775 106.812ZM160.045 96.1436C160.746 95.018 161.484 93.9171 162.255 92.8423L159.818 91.0928C159.009 92.2206 158.235 93.3758 157.499 94.557L160.045 96.1436ZM167.297 86.7062C168.202 85.7395 169.139 84.8025 170.106 83.8968L168.055 81.7076C167.041 82.6578 166.058 83.6408 165.107 84.655L167.297 86.7062ZM176.242 78.8553C177.317 78.0838 178.418 77.3466 179.543 76.6452L177.957 74.0991C176.776 74.8351 175.62 75.6087 174.493 76.4182L176.242 78.8553ZM186.543 72.8966C187.745 72.3507 188.969 71.843 190.212 71.3749L189.155 68.5674C187.85 69.0588 186.565 69.5918 185.303 70.1647L186.543 72.8966ZM197.809 69.0732C199.093 68.7749 200.392 68.5174 201.706 68.3021L201.221 65.3416C199.842 65.5676 198.478 65.8379 197.13 66.151L197.809 69.0732ZM209.609 67.532C210.27 67.5107 210.934 67.5 211.6 67.5V64.5C210.901 64.5 210.205 64.5113 209.512 64.5336L209.609 67.532ZM211.6 67.5C212.266 67.5 212.93 67.5107 213.591 67.532L213.688 64.5336C212.995 64.5113 212.298 64.5 211.6 64.5V67.5ZM221.494 68.3021C222.808 68.5174 224.107 68.7749 225.391 69.0732L226.07 66.151C224.722 65.8379 223.358 65.5676 221.979 65.3416L221.494 68.3021ZM232.988 71.3749C234.231 71.843 235.455 72.3507 236.657 72.8966L237.897 70.1647C236.635 69.5918 235.35 69.0588 234.045 68.5674L232.988 71.3749ZM243.656 76.6452C244.782 77.3466 245.883 78.0838 246.958 78.8553L248.707 76.4182C247.579 75.6087 246.424 74.8351 245.243 74.0991L243.656 76.6452ZM253.094 83.8968C254.06 84.8025 254.997 85.7395 255.903 86.7062L258.092 84.6549C257.142 83.6408 256.159 82.6578 255.145 81.7076L253.094 83.8968ZM260.945 92.8423C261.716 93.9171 262.453 95.018 263.155 96.1436L265.701 94.557C264.965 93.3758 264.191 92.2206 263.382 91.0928L260.945 92.8423ZM266.903 103.143C267.449 104.345 267.957 105.569 268.425 106.812L271.233 105.755C270.741 104.45 270.208 103.165 269.635 101.903L266.903 103.143ZM270.727 114.409C271.025 115.693 271.282 116.992 271.498 118.306L274.458 117.821C274.232 116.442 273.962 115.078 273.649 113.73L270.727 114.409ZM272.268 126.209C272.289 126.87 272.3 127.534 272.3 128.2H275.3C275.3 127.501 275.289 126.805 275.266 126.112L272.268 126.209Z" fill="#6A6A6A"/>
<path d="M396.668 130.191C396.641 131.019 397.291 131.712 398.119 131.739C398.947 131.765 399.64 131.116 399.666 130.288L396.668 130.191ZM398.858 138.579C398.992 137.762 398.438 136.99 397.621 136.856C396.803 136.722 396.032 137.276 395.898 138.094L398.858 138.579ZM395.127 141.991C394.939 142.798 395.442 143.604 396.248 143.792C397.055 143.979 397.862 143.477 398.049 142.67L395.127 141.991ZM395.633 150.645C395.925 149.87 395.533 149.005 394.757 148.713C393.982 148.421 393.117 148.813 392.825 149.588L395.633 150.645ZM391.303 153.257C390.961 154.012 391.295 154.901 392.049 155.243C392.804 155.585 393.693 155.251 394.035 154.497L391.303 153.257ZM390.101 161.843C390.539 161.14 390.324 160.215 389.621 159.777C388.918 159.338 387.993 159.553 387.555 160.256L390.101 161.843ZM385.345 163.558C384.862 164.231 385.015 165.168 385.688 165.651C386.361 166.134 387.299 165.98 387.782 165.307L385.345 163.558ZM382.492 171.745C383.059 171.14 383.028 170.191 382.423 169.625C381.819 169.058 380.87 169.089 380.303 169.694L382.492 171.745ZM377.494 172.503C376.889 173.07 376.858 174.019 377.425 174.623C377.991 175.228 378.94 175.259 379.545 174.692L377.494 172.503ZM373.107 179.982C373.78 179.499 373.934 178.561 373.451 177.888C372.968 177.215 372.031 177.061 371.358 177.545L373.107 179.982ZM368.056 179.755C367.353 180.193 367.138 181.118 367.577 181.821C368.015 182.524 368.94 182.739 369.643 182.301L368.056 179.755ZM362.297 186.235C363.052 185.893 363.386 185.004 363.043 184.249C362.701 183.495 361.812 183.161 361.057 183.503L362.297 186.235ZM357.388 185.025C356.613 185.317 356.221 186.182 356.513 186.957C356.805 187.733 357.67 188.124 358.445 187.833L357.388 185.025ZM350.47 190.249C351.277 190.061 351.779 189.255 351.592 188.448C351.404 187.641 350.598 187.139 349.791 187.327L350.47 190.249ZM345.894 188.098C345.076 188.232 344.522 189.003 344.656 189.821C344.79 190.638 345.562 191.192 346.379 191.058L345.894 188.098ZM338.088 191.866C338.916 191.84 339.565 191.147 339.539 190.319C339.512 189.491 338.819 188.841 337.991 188.868L338.088 191.866ZM334.009 188.868C333.181 188.841 332.488 189.491 332.461 190.319C332.434 191.147 333.084 191.84 333.912 191.866L334.009 188.868ZM325.621 191.058C326.438 191.192 327.21 190.638 327.344 189.821C327.478 189.003 326.924 188.232 326.106 188.098L325.621 191.058ZM322.209 187.327C321.402 187.139 320.596 187.641 320.408 188.448C320.221 189.255 320.723 190.061 321.53 190.249L322.209 187.327ZM313.555 187.833C314.33 188.124 315.195 187.733 315.487 186.957C315.779 186.182 315.387 185.317 314.612 185.025L313.555 187.833ZM310.943 183.503C310.188 183.161 309.299 183.495 308.957 184.249C308.614 185.004 308.948 185.893 309.703 186.235L310.943 183.503ZM302.357 182.301C303.06 182.739 303.985 182.524 304.423 181.821C304.861 181.118 304.647 180.193 303.944 179.755L302.357 182.301ZM300.642 177.545C299.969 177.061 299.032 177.215 298.549 177.888C298.066 178.561 298.22 179.499 298.893 179.982L300.642 177.545ZM292.455 174.692C293.059 175.259 294.009 175.228 294.575 174.623C295.142 174.019 295.111 173.07 294.506 172.503L292.455 174.692ZM291.697 169.694C291.13 169.089 290.181 169.058 289.577 169.625C288.972 170.191 288.941 171.14 289.508 171.745L291.697 169.694ZM284.218 165.307C284.701 165.98 285.638 166.134 286.311 165.651C286.984 165.168 287.138 164.231 286.655 163.558L284.218 165.307ZM284.445 160.256C284.007 159.553 283.082 159.338 282.379 159.777C281.676 160.215 281.461 161.14 281.899 161.843L284.445 160.256ZM277.965 154.497C278.307 155.251 279.196 155.585 279.95 155.243C280.705 154.901 281.039 154.012 280.697 153.257L277.965 154.497ZM279.175 149.588C278.883 148.813 278.018 148.421 277.242 148.713C276.467 149.005 276.075 149.87 276.367 150.645L279.175 149.588ZM273.951 142.67C274.138 143.477 274.945 143.979 275.751 143.792C276.558 143.604 277.061 142.798 276.873 141.991L273.951 142.67ZM276.102 138.094C275.968 137.276 275.197 136.722 274.379 136.856C273.562 136.99 273.008 137.762 273.142 138.579L276.102 138.094ZM272.334 130.288C272.36 131.116 273.053 131.765 273.881 131.739C274.709 131.712 275.359 131.019 275.332 130.191L272.334 130.288ZM396.7 128.2C396.7 128.866 396.689 129.53 396.668 130.191L399.666 130.288C399.689 129.595 399.7 128.898 399.7 128.2L396.7 128.2ZM395.898 138.094C395.683 139.408 395.425 140.707 395.127 141.991L398.049 142.67C398.362 141.322 398.632 139.958 398.858 138.579L395.898 138.094ZM392.825 149.588C392.357 150.831 391.849 152.055 391.303 153.257L394.035 154.497C394.608 153.235 395.141 151.95 395.633 150.645L392.825 149.588ZM387.555 160.256C386.853 161.382 386.116 162.483 385.345 163.558L387.782 165.307C388.591 164.179 389.365 163.024 390.101 161.843L387.555 160.256ZM380.303 169.694C379.397 170.66 378.46 171.597 377.494 172.503L379.545 174.692C380.559 173.742 381.542 172.759 382.492 171.745L380.303 169.694ZM371.358 177.545C370.283 178.316 369.182 179.053 368.056 179.755L369.643 182.301C370.824 181.565 371.979 180.791 373.107 179.982L371.358 177.545ZM361.057 183.503C359.855 184.049 358.631 184.557 357.388 185.025L358.445 187.833C359.75 187.341 361.035 186.808 362.297 186.235L361.057 183.503ZM349.791 187.327C348.507 187.625 347.208 187.882 345.894 188.098L346.379 191.058C347.758 190.832 349.122 190.562 350.47 190.249L349.791 187.327ZM337.991 188.868C337.33 188.889 336.666 188.9 336 188.9L336 191.9C336.699 191.9 337.395 191.889 338.088 191.866L337.991 188.868ZM336 188.9C335.334 188.9 334.67 188.889 334.009 188.868L333.912 191.866C334.605 191.889 335.301 191.9 336 191.9L336 188.9ZM326.106 188.098C324.792 187.882 323.493 187.625 322.209 187.327L321.53 190.249C322.878 190.562 324.242 190.832 325.621 191.058L326.106 188.098ZM314.612 185.025C313.369 184.557 312.145 184.049 310.943 183.503L309.703 186.235C310.965 186.808 312.25 187.341 313.555 187.833L314.612 185.025ZM303.944 179.755C302.818 179.053 301.717 178.316 300.642 177.545L298.893 179.982C300.021 180.791 301.176 181.565 302.357 182.301L303.944 179.755ZM294.506 172.503C293.539 171.597 292.602 170.66 291.697 169.694L289.508 171.745C290.458 172.759 291.441 173.742 292.455 174.692L294.506 172.503ZM286.655 163.558C285.884 162.483 285.147 161.382 284.445 160.256L281.899 161.843C282.635 163.024 283.409 164.179 284.218 165.307L286.655 163.558ZM280.697 153.257C280.151 152.055 279.643 150.831 279.175 149.588L276.367 150.645C276.859 151.95 277.392 153.235 277.965 154.497L280.697 153.257ZM276.873 141.991C276.575 140.707 276.317 139.408 276.102 138.094L273.142 138.579C273.368 139.958 273.638 141.322 273.951 142.67L276.873 141.991ZM275.332 130.191C275.311 129.53 275.3 128.866 275.3 128.2L272.3 128.2C272.3 128.899 272.311 129.595 272.334 130.288L275.332 130.191Z" fill="#6A6A6A"/>
<path d="M26.0606 127.139C25.4748 126.553 24.525 126.553 23.9392 127.139L14.3933 136.685C13.8075 137.271 13.8075 138.221 14.3933 138.807C14.9791 139.392 15.9288 139.392 16.5146 138.807L24.9999 130.321L33.4852 138.807C34.071 139.392 35.0207 139.392 35.6065 138.807C36.1923 138.221 36.1923 137.271 35.6065 136.685L26.0606 127.139ZM147.868 130.191C147.841 131.019 148.491 131.712 149.319 131.739C150.147 131.765 150.84 131.116 150.866 130.288L147.868 130.191ZM150.058 138.579C150.192 137.762 149.638 136.99 148.821 136.856C148.003 136.722 147.232 137.276 147.098 138.094L150.058 138.579ZM146.327 141.991C146.139 142.798 146.641 143.604 147.448 143.792C148.255 143.979 149.061 143.477 149.249 142.67L146.327 141.991ZM146.833 150.645C147.124 149.87 146.733 149.005 145.957 148.713C145.182 148.421 144.317 148.813 144.025 149.588L146.833 150.645ZM142.503 153.257C142.161 154.012 142.495 154.901 143.249 155.243C144.004 155.585 144.893 155.251 145.235 154.497L142.503 153.257ZM141.301 161.843C141.739 161.14 141.524 160.215 140.821 159.777C140.118 159.338 139.193 159.553 138.755 160.256L141.301 161.843ZM136.545 163.558C136.061 164.231 136.215 165.168 136.888 165.651C137.561 166.134 138.499 165.98 138.982 165.307L136.545 163.558ZM133.692 171.745C134.259 171.14 134.228 170.191 133.623 169.625C133.019 169.058 132.07 169.089 131.503 169.694L133.692 171.745ZM128.694 172.503C128.089 173.07 128.058 174.019 128.625 174.623C129.191 175.228 130.14 175.259 130.745 174.692L128.694 172.503ZM124.307 179.982C124.98 179.499 125.134 178.561 124.651 177.888C124.168 177.215 123.231 177.061 122.558 177.545L124.307 179.982ZM119.256 179.755C118.553 180.193 118.338 181.118 118.777 181.821C119.215 182.524 120.14 182.739 120.843 182.301L119.256 179.755ZM113.497 186.235C114.251 185.893 114.585 185.004 114.243 184.249C113.901 183.495 113.012 183.161 112.257 183.503L113.497 186.235ZM108.588 185.025C107.813 185.317 107.421 186.182 107.713 186.957C108.005 187.733 108.87 188.124 109.645 187.833L108.588 185.025ZM101.67 190.249C102.477 190.061 102.979 189.255 102.792 188.448C102.604 187.641 101.798 187.139 100.991 187.327L101.67 190.249ZM97.0939 188.098C96.2764 188.232 95.7223 189.003 95.8563 189.821C95.9902 190.638 96.7616 191.192 97.5791 191.058L97.0939 188.098ZM89.2878 191.866C90.1158 191.84 90.7654 191.147 90.7387 190.319C90.712 189.491 90.0192 188.841 89.1912 188.868L89.2878 191.866ZM85.2086 188.868C84.3806 188.841 83.6878 189.491 83.6611 190.319C83.6344 191.147 84.284 191.84 85.112 191.866L85.2086 188.868ZM76.8207 191.058C77.6382 191.192 78.4096 190.638 78.5436 189.821C78.6776 189.003 78.1235 188.232 77.3059 188.098L76.8207 191.058ZM73.4088 187.327C72.6018 187.139 71.7957 187.641 71.6082 188.448C71.4208 189.255 71.923 190.061 72.7299 190.249L73.4088 187.327ZM64.7547 187.833C65.53 188.124 66.3951 187.733 66.6871 186.957C66.979 186.182 66.5872 185.317 65.8119 185.025L64.7547 187.833ZM62.1425 183.503C61.3881 183.161 60.4991 183.495 60.1567 184.249C59.8144 185.004 60.1484 185.893 60.9027 186.235L62.1425 183.503ZM53.5569 182.301C54.26 182.739 55.1851 182.524 55.6233 181.821C56.0614 181.118 55.8466 180.193 55.1435 179.755L53.5569 182.301ZM51.8422 177.545C51.1692 177.061 50.232 177.215 49.7489 177.888C49.2658 178.561 49.4198 179.499 50.0928 179.982L51.8422 177.545ZM43.6549 174.692C44.2594 175.259 45.2086 175.228 45.7751 174.623C46.3415 174.019 46.3106 173.07 45.7061 172.503L43.6549 174.692ZM42.8967 169.694C42.3302 169.089 41.381 169.058 40.7765 169.625C40.1719 170.191 40.1411 171.14 40.7075 171.745L42.8967 169.694ZM35.4181 165.307C35.9012 165.98 36.8384 166.134 37.5114 165.651C38.1844 165.168 38.3383 164.231 37.8552 163.558L35.4181 165.307ZM35.6451 160.256C35.2069 159.553 34.2818 159.338 33.5787 159.777C32.8756 160.215 32.6608 161.14 33.099 161.843L35.6451 160.256ZM29.1646 154.497C29.507 155.251 30.3961 155.585 31.1504 155.243C31.9048 154.901 32.2388 154.012 31.8965 153.257L29.1646 154.497ZM30.3748 149.588C30.0829 148.813 29.2177 148.421 28.4424 148.713C27.6672 149.005 27.2753 149.87 27.5673 150.645L30.3748 149.588ZM25.1509 142.67C25.3383 143.477 26.1445 143.979 26.9514 143.792C27.7583 143.604 28.2605 142.798 28.0731 141.991L25.1509 142.67ZM27.302 138.094C27.168 137.276 26.3966 136.722 25.5791 136.856C24.7616 136.99 24.2075 137.762 24.3415 138.579L27.302 138.094ZM23.5335 130.288C23.5602 131.116 24.253 131.765 25.081 131.739C25.909 131.712 26.5586 131.019 26.5319 130.191L23.5335 130.288ZM147.9 128.2C147.9 128.866 147.889 129.53 147.868 130.191L150.866 130.288C150.889 129.595 150.9 128.898 150.9 128.2L147.9 128.2ZM147.098 138.094C146.882 139.408 146.625 140.707 146.327 141.991L149.249 142.67C149.562 141.322 149.832 139.958 150.058 138.579L147.098 138.094ZM144.025 149.588C143.557 150.831 143.049 152.055 142.503 153.257L145.235 154.497C145.808 153.235 146.341 151.95 146.833 150.645L144.025 149.588ZM138.755 160.256C138.053 161.382 137.316 162.483 136.545 163.558L138.982 165.307C139.791 164.179 140.565 163.024 141.301 161.843L138.755 160.256ZM131.503 169.694C130.597 170.66 129.66 171.597 128.694 172.503L130.745 174.692C131.759 173.742 132.742 172.759 133.692 171.745L131.503 169.694ZM122.558 177.545C121.483 178.316 120.382 179.053 119.256 179.755L120.843 182.301C122.024 181.565 123.179 180.791 124.307 179.982L122.558 177.545ZM112.257 183.503C111.055 184.049 109.831 184.557 108.588 185.025L109.645 187.833C110.95 187.341 112.235 186.808 113.497 186.235L112.257 183.503ZM100.991 187.327C99.7072 187.625 98.4077 187.882 97.0939 188.098L97.5791 191.058C98.958 190.832 100.322 190.562 101.67 190.249L100.991 187.327ZM89.1912 188.868C88.5301 188.889 87.8663 188.9 87.1999 188.9L87.1999 191.9C87.8985 191.9 88.5945 191.889 89.2878 191.866L89.1912 188.868ZM87.1999 188.9C86.5335 188.9 85.8697 188.889 85.2086 188.868L85.112 191.866C85.8053 191.889 86.5013 191.9 87.1999 191.9L87.1999 188.9ZM77.3059 188.098C75.9921 187.882 74.6926 187.625 73.4088 187.327L72.7299 190.249C74.0777 190.562 75.4418 190.832 76.8207 191.058L77.3059 188.098ZM65.8119 185.025C64.5689 184.557 63.3452 184.049 62.1425 183.503L60.9027 186.235C62.1652 186.808 63.4497 187.341 64.7547 187.833L65.8119 185.025ZM55.1435 179.755C54.0179 179.053 52.917 178.316 51.8422 177.545L50.0928 179.982C51.2205 180.791 52.3757 181.565 53.5569 182.301L55.1435 179.755ZM45.7061 172.503C44.7394 171.597 43.8024 170.66 42.8967 169.694L40.7075 171.745C41.6577 172.759 42.6407 173.742 43.6549 174.692L45.7061 172.503ZM37.8552 163.558C37.0837 162.483 36.3465 161.382 35.6451 160.256L33.099 161.843C33.835 163.024 34.6086 164.179 35.4181 165.307L37.8552 163.558ZM31.8965 153.257C31.3506 152.055 30.8429 150.831 30.3748 149.588L27.5673 150.645C28.0587 151.95 28.5917 153.235 29.1646 154.497L31.8965 153.257ZM28.0731 141.991C27.7748 140.707 27.5173 139.408 27.302 138.094L24.3415 138.579C24.5675 139.958 24.8378 141.322 25.1509 142.67L28.0731 141.991ZM26.5319 130.191C26.5106 129.53 26.4999 128.866 26.4999 128.2L23.4999 128.2C23.4999 128.899 23.5111 129.595 23.5335 130.288L26.5319 130.191Z" fill="#6A6A6A"/>
<path d="M645.468 130.191C645.441 131.019 646.091 131.712 646.919 131.739C647.747 131.765 648.44 131.116 648.466 130.288L645.468 130.191ZM647.658 138.579C647.792 137.762 647.238 136.99 646.421 136.856C645.603 136.722 644.832 137.276 644.698 138.094L647.658 138.579ZM643.927 141.991C643.739 142.798 644.242 143.604 645.048 143.792C645.855 143.979 646.662 143.477 646.849 142.67L643.927 141.991ZM644.433 150.645C644.725 149.87 644.333 149.005 643.557 148.713C642.782 148.421 641.917 148.813 641.625 149.588L644.433 150.645ZM640.103 153.257C639.761 154.012 640.095 154.901 640.849 155.243C641.604 155.585 642.493 155.251 642.835 154.497L640.103 153.257ZM638.901 161.843C639.339 161.14 639.124 160.215 638.421 159.777C637.718 159.338 636.793 159.553 636.355 160.256L638.901 161.843ZM634.145 163.558C633.662 164.231 633.816 165.168 634.488 165.651C635.161 166.134 636.099 165.98 636.582 165.307L634.145 163.558ZM631.292 171.745C631.859 171.14 631.828 170.191 631.223 169.625C630.619 169.058 629.67 169.089 629.103 169.694L631.292 171.745ZM626.294 172.503C625.689 173.07 625.658 174.019 626.225 174.623C626.791 175.228 627.741 175.259 628.345 174.692L626.294 172.503ZM621.907 179.982C622.58 179.499 622.734 178.561 622.251 177.888C621.768 177.215 620.831 177.061 620.158 177.545L621.907 179.982ZM616.856 179.755C616.153 180.193 615.939 181.118 616.377 181.821C616.815 182.524 617.74 182.739 618.443 182.301L616.856 179.755ZM611.097 186.235C611.852 185.893 612.186 185.004 611.843 184.249C611.501 183.495 610.612 183.161 609.857 183.503L611.097 186.235ZM606.188 185.025C605.413 185.317 605.021 186.182 605.313 186.957C605.605 187.733 606.47 188.124 607.245 187.833L606.188 185.025ZM599.27 190.249C600.077 190.061 600.579 189.255 600.392 188.448C600.204 187.641 599.398 187.139 598.591 187.327L599.27 190.249ZM594.694 188.098C593.876 188.232 593.322 189.003 593.456 189.821C593.59 190.638 594.362 191.192 595.179 191.058L594.694 188.098ZM586.888 191.866C587.716 191.84 588.365 191.147 588.339 190.319C588.312 189.491 587.619 188.841 586.791 188.868L586.888 191.866ZM582.809 188.868C581.981 188.841 581.288 189.491 581.261 190.319C581.235 191.147 581.884 191.84 582.712 191.866L582.809 188.868ZM574.421 191.058C575.238 191.192 576.01 190.638 576.144 189.821C576.278 189.003 575.724 188.232 574.906 188.098L574.421 191.058ZM571.009 187.327C570.202 187.139 569.396 187.641 569.208 188.448C569.021 189.255 569.523 190.061 570.33 190.249L571.009 187.327ZM562.355 187.833C563.13 188.124 563.995 187.733 564.287 186.957C564.579 186.182 564.187 185.317 563.412 185.025L562.355 187.833ZM559.743 183.503C558.988 183.161 558.099 183.495 557.757 184.249C557.414 185.004 557.748 185.893 558.503 186.235L559.743 183.503ZM551.157 182.301C551.86 182.739 552.785 182.524 553.223 181.821C553.661 181.118 553.447 180.193 552.744 179.755L551.157 182.301ZM549.442 177.545C548.769 177.061 547.832 177.215 547.349 177.888C546.866 178.561 547.02 179.499 547.693 179.982L549.442 177.545ZM541.255 174.692C541.859 175.259 542.809 175.228 543.375 174.623C543.942 174.019 543.911 173.07 543.306 172.503L541.255 174.692ZM540.497 169.694C539.93 169.089 538.981 169.058 538.377 169.625C537.772 170.191 537.741 171.14 538.308 171.745L540.497 169.694ZM533.018 165.307C533.501 165.98 534.439 166.134 535.112 165.651C535.784 165.168 535.938 164.231 535.455 163.558L533.018 165.307ZM533.245 160.256C532.807 159.553 531.882 159.338 531.179 159.777C530.476 160.215 530.261 161.14 530.699 161.843L533.245 160.256ZM526.765 154.497C527.107 155.251 527.996 155.585 528.751 155.243C529.505 154.901 529.839 154.012 529.497 153.257L526.765 154.497ZM527.975 149.588C527.683 148.813 526.818 148.421 526.043 148.713C525.267 149.005 524.875 149.87 525.167 150.645L527.975 149.588ZM522.751 142.67C522.938 143.477 523.745 143.979 524.552 143.792C525.358 143.604 525.861 142.798 525.673 141.991L522.751 142.67ZM524.902 138.094C524.768 137.276 523.997 136.722 523.179 136.856C522.362 136.99 521.808 137.762 521.942 138.579L524.902 138.094ZM521.134 130.288C521.16 131.116 521.853 131.765 522.681 131.739C523.509 131.712 524.159 131.019 524.132 130.191L521.134 130.288ZM645.5 128.2C645.5 128.866 645.489 129.53 645.468 130.191L648.466 130.288C648.489 129.595 648.5 128.898 648.5 128.2L645.5 128.2ZM644.698 138.094C644.483 139.408 644.225 140.707 643.927 141.991L646.849 142.67C647.162 141.322 647.432 139.958 647.658 138.579L644.698 138.094ZM641.625 149.588C641.157 150.831 640.649 152.055 640.103 153.257L642.835 154.497C643.408 153.235 643.941 151.95 644.433 150.645L641.625 149.588ZM636.355 160.256C635.653 161.382 634.916 162.483 634.145 163.558L636.582 165.307C637.391 164.179 638.165 163.024 638.901 161.843L636.355 160.256ZM629.103 169.694C628.198 170.66 627.26 171.597 626.294 172.503L628.345 174.692C629.359 173.742 630.342 172.759 631.292 171.745L629.103 169.694ZM620.158 177.545C619.083 178.316 617.982 179.053 616.856 179.755L618.443 182.301C619.624 181.565 620.779 180.791 621.907 179.982L620.158 177.545ZM609.857 183.503C608.655 184.049 607.431 184.557 606.188 185.025L607.245 187.833C608.55 187.341 609.835 186.808 611.097 186.235L609.857 183.503ZM598.591 187.327C597.307 187.625 596.008 187.882 594.694 188.098L595.179 191.058C596.558 190.832 597.922 190.562 599.27 190.249L598.591 187.327ZM586.791 188.868C586.13 188.889 585.466 188.9 584.8 188.9L584.8 191.9C585.499 191.9 586.195 191.889 586.888 191.866L586.791 188.868ZM584.8 188.9C584.134 188.9 583.47 188.889 582.809 188.868L582.712 191.866C583.405 191.889 584.101 191.9 584.8 191.9L584.8 188.9ZM574.906 188.098C573.592 187.882 572.293 187.625 571.009 187.327L570.33 190.249C571.678 190.562 573.042 190.832 574.421 191.058L574.906 188.098ZM563.412 185.025C562.169 184.557 560.945 184.049 559.743 183.503L558.503 186.235C559.765 186.808 561.05 187.341 562.355 187.833L563.412 185.025ZM552.744 179.755C551.618 179.053 550.517 178.316 549.442 177.545L547.693 179.982C548.821 180.791 549.976 181.565 551.157 182.301L552.744 179.755ZM543.306 172.503C542.34 171.597 541.403 170.66 540.497 169.694L538.308 171.745C539.258 172.759 540.241 173.742 541.255 174.692L543.306 172.503ZM535.455 163.558C534.684 162.483 533.947 161.382 533.245 160.256L530.699 161.843C531.435 163.024 532.209 164.179 533.018 165.307L535.455 163.558ZM529.497 153.257C528.951 152.055 528.443 150.831 527.975 149.588L525.167 150.645C525.659 151.95 526.192 153.235 526.765 154.497L529.497 153.257ZM525.673 141.991C525.375 140.707 525.117 139.408 524.902 138.094L521.942 138.579C522.168 139.958 522.438 141.322 522.751 142.67L525.673 141.991ZM524.132 130.191C524.111 129.53 524.1 128.866 524.1 128.2L521.1 128.2C521.1 128.899 521.111 129.595 521.134 130.288L524.132 130.191Z" fill="#6A6A6A"/>
</g>
</svg>
