<svg width="672" height="412" viewBox="0 0 672 412" fill="none" xmlns="http://www.w3.org/2000/svg">
<path d="M98.7671 134C103.186 121.727 128.65 92.6822 149.767 82" stroke="#6A6A6A" stroke-width="3" stroke-linecap="round" stroke-linejoin="round" stroke-dasharray="3 7"/>
<path d="M144.614 76L155.239 78.847L152.392 89.4722" stroke="#6A6A6A" stroke-width="3" stroke-linecap="round" stroke-linejoin="round"/>
<path d="M106.24 136.625L95.6146 139.472L92.7676 128.847" stroke="#6A6A6A" stroke-width="3" stroke-linecap="round" stroke-linejoin="round"/>
<g style="mix-blend-mode:darken" opacity="0.25">
<circle cx="221.733" cy="72" r="53.5" fill="white" stroke="#2B2B2B" stroke-width="3"/>
<path d="M199.838 62.1475C199.838 65.5715 201.79 67.5875 204.43 67.5875C205.774 67.5875 206.798 67.0275 207.63 66.0675L206.878 65.2515C206.206 66.0035 205.47 66.4195 204.462 66.4195C202.478 66.4195 201.214 64.7555 201.214 62.1155C201.214 59.5075 202.526 57.8755 204.526 57.8755C205.406 57.8755 206.078 58.2595 206.622 58.8515L207.374 58.0035C206.766 57.3155 205.774 56.7075 204.51 56.7075C201.822 56.7075 199.838 58.7715 199.838 62.1475ZM209.209 67.3955H210.521V62.4035C211.049 61.0915 211.833 60.6115 212.489 60.6115C212.809 60.6115 212.985 60.6595 213.241 60.7395L213.497 59.5875C213.241 59.4755 213.001 59.4275 212.665 59.4275C211.785 59.4275 210.985 60.0515 210.457 61.0275H210.409L210.297 59.6195H209.209V67.3955ZM213.773 63.5235C213.773 66.0675 215.421 67.5875 217.501 67.5875C218.557 67.5875 219.389 67.2195 220.061 66.7875L219.597 65.9235C219.021 66.2915 218.397 66.5315 217.661 66.5315C216.173 66.5315 215.165 65.4755 215.069 63.7955H220.317C220.349 63.6035 220.365 63.3475 220.365 63.0755C220.365 60.8515 219.245 59.4275 217.261 59.4275C215.485 59.4275 213.773 60.9795 213.773 63.5235ZM215.053 62.9315C215.213 61.3635 216.205 60.4675 217.293 60.4675C218.509 60.4675 219.213 61.3475 219.213 62.9315H215.053ZM221.434 65.3795C221.434 66.7715 222.41 67.5875 223.722 67.5875C224.682 67.5875 225.546 67.0755 226.298 66.4675H226.33L226.442 67.3955H227.53V62.6275C227.53 60.6915 226.73 59.4275 224.826 59.4275C223.578 59.4275 222.49 59.9715 221.77 60.4355L222.298 61.3475C222.906 60.9315 223.706 60.5155 224.618 60.5155C225.882 60.5155 226.218 61.4755 226.218 62.4675C222.906 62.8355 221.434 63.6835 221.434 65.3795ZM222.73 65.2835C222.73 64.2915 223.61 63.6515 226.218 63.3315V65.4915C225.466 66.1635 224.842 66.5315 224.09 66.5315C223.322 66.5315 222.73 66.1635 222.73 65.2835ZM229.98 64.9955C229.98 66.5315 230.54 67.5875 232.204 67.5875C232.684 67.5875 233.212 67.4435 233.644 67.2995L233.388 66.3075C233.132 66.4035 232.78 66.5155 232.508 66.5155C231.612 66.5155 231.308 65.9715 231.308 65.0115V60.6915H233.404V59.6195H231.308V57.4435H230.204L230.044 59.6195L228.828 59.6995V60.6915H229.98V64.9955ZM234.18 63.5235C234.18 66.0675 235.828 67.5875 237.908 67.5875C238.964 67.5875 239.796 67.2195 240.468 66.7875L240.004 65.9235C239.428 66.2915 238.804 66.5315 238.068 66.5315C236.58 66.5315 235.572 65.4755 235.476 63.7955H240.724C240.756 63.6035 240.772 63.3475 240.772 63.0755C240.772 60.8515 239.652 59.4275 237.668 59.4275C235.892 59.4275 234.18 60.9795 234.18 63.5235ZM235.46 62.9315C235.62 61.3635 236.612 60.4675 237.7 60.4675C238.916 60.4675 239.62 61.3475 239.62 62.9315H235.46Z" fill="#2B2B2B"/>
<path d="M194.781 82.2435C194.781 85.7475 196.989 87.5875 199.693 87.5875C200.989 87.5875 202.141 87.0595 203.005 86.0515L201.709 84.6275C201.197 85.1875 200.573 85.5555 199.725 85.5555C198.189 85.5555 197.197 84.3075 197.197 82.1635C197.197 80.0675 198.333 78.8035 199.789 78.8035C200.509 78.8035 201.021 79.1075 201.549 79.5875L202.845 78.1315C202.141 77.4115 201.053 76.7715 199.757 76.7715C197.069 76.7715 194.781 78.7875 194.781 82.2435ZM203.684 83.4275C203.684 86.0675 205.54 87.5875 207.556 87.5875C209.556 87.5875 211.412 86.0675 211.412 83.4275C211.412 80.7875 209.556 79.2675 207.556 79.2675C205.54 79.2675 203.684 80.7875 203.684 83.4275ZM206.1 83.4275C206.1 82.0515 206.58 81.1715 207.556 81.1715C208.516 81.1715 209.012 82.0515 209.012 83.4275C209.012 84.8035 208.516 85.6835 207.556 85.6835C206.58 85.6835 206.1 84.8035 206.1 83.4275ZM212.773 87.3955H215.125V82.0355C215.637 81.5395 216.005 81.2675 216.597 81.2675C217.269 81.2675 217.573 81.6195 217.573 82.7715V87.3955H219.925V82.4675C219.925 80.4835 219.189 79.2675 217.461 79.2675C216.389 79.2675 215.589 79.8275 214.917 80.4675H214.853L214.693 79.4595H212.773V87.3955ZM221.999 84.5155C221.999 86.3555 222.767 87.5875 224.735 87.5875C225.503 87.5875 226.079 87.4275 226.495 87.2995L226.127 85.5875C225.919 85.6675 225.631 85.7475 225.375 85.7475C224.751 85.7475 224.351 85.3795 224.351 84.4835V81.2995H226.255V79.4595H224.351V77.3475H222.399L222.127 79.4595L220.911 79.5555V81.2995H221.999V84.5155ZM226.934 83.4275C226.934 86.0515 228.678 87.5875 230.95 87.5875C231.894 87.5875 232.95 87.2515 233.766 86.6915L232.982 85.2675C232.406 85.6195 231.862 85.7955 231.27 85.7955C230.214 85.7955 229.414 85.2675 229.206 84.0675H233.958C234.006 83.8755 234.054 83.4915 234.054 83.0755C234.054 80.9155 232.934 79.2675 230.678 79.2675C228.774 79.2675 226.934 80.8515 226.934 83.4275ZM229.19 82.6115C229.35 81.5555 229.99 81.0595 230.726 81.0595C231.67 81.0595 232.054 81.6995 232.054 82.6115H229.19ZM235.429 87.3955H237.781V82.0355C238.293 81.5395 238.661 81.2675 239.253 81.2675C239.925 81.2675 240.229 81.6195 240.229 82.7715V87.3955H242.581V82.4675C242.581 80.4835 241.845 79.2675 240.117 79.2675C239.045 79.2675 238.245 79.8275 237.573 80.4675H237.509L237.349 79.4595H235.429V87.3955ZM244.655 84.5155C244.655 86.3555 245.423 87.5875 247.391 87.5875C248.159 87.5875 248.735 87.4275 249.151 87.2995L248.783 85.5875C248.575 85.6675 248.287 85.7475 248.031 85.7475C247.407 85.7475 247.007 85.3795 247.007 84.4835V81.2995H248.911V79.4595H247.007V77.3475H245.055L244.783 79.4595L243.567 79.5555V81.2995H244.655V84.5155Z" fill="#009CDE"/>
</g>
<path d="M294.241 82.6234C293.461 82.3427 292.602 82.7471 292.321 83.5265C292.041 84.306 292.445 85.1653 293.225 85.446L294.241 82.6234ZM344.394 135.712C344.768 136.451 345.671 136.747 346.41 136.373C347.149 135.999 347.445 135.097 347.071 134.358L344.394 135.712ZM294.583 85.9944C295.341 86.3297 296.227 85.9874 296.562 85.2298C296.897 84.4723 296.555 83.5864 295.797 83.2511L294.583 85.9944ZM302.446 86.9589C301.751 86.5088 300.822 86.7077 300.372 87.4032C299.922 88.0987 300.121 89.0273 300.816 89.4775L302.446 86.9589ZM303.397 91.2182C304.075 91.6934 305.01 91.5286 305.486 90.85C305.961 90.1714 305.796 89.2361 305.118 88.7609L303.397 91.2182ZM311.097 93.2493C310.45 92.7329 309.506 92.8393 308.989 93.487C308.473 94.1347 308.579 95.0785 309.227 95.595L311.097 93.2493ZM311.66 97.5785C312.296 98.1088 313.242 98.0228 313.772 97.3863C314.302 96.7499 314.216 95.804 313.58 95.2737L311.66 97.5785ZM319.194 100.173C318.582 99.6149 317.633 99.6584 317.075 100.27C316.516 100.882 316.56 101.831 317.172 102.39L319.194 100.173ZM319.471 104.526C320.073 105.095 321.022 105.069 321.592 104.467C322.161 103.865 322.135 102.916 321.533 102.347L319.471 104.526ZM326.835 107.577C326.257 106.983 325.308 106.969 324.714 107.547C324.119 108.124 324.106 109.074 324.683 109.668L326.835 107.577ZM326.848 111.938C327.414 112.543 328.363 112.575 328.968 112.009C329.573 111.443 329.605 110.493 329.039 109.888L326.848 111.938ZM334.006 115.448C333.469 114.817 332.522 114.741 331.892 115.278C331.261 115.815 331.184 116.762 331.721 117.393L334.006 115.448ZM333.723 119.799C334.246 120.442 335.191 120.539 335.834 120.017C336.476 119.494 336.574 118.549 336.051 117.907L333.723 119.799ZM340.594 123.845C340.112 123.172 339.175 123.016 338.501 123.498C337.828 123.98 337.672 124.917 338.154 125.591L340.594 123.845ZM339.93 128.155C340.39 128.844 341.322 129.029 342.01 128.569C342.699 128.108 342.884 127.177 342.424 126.488L339.93 128.155ZM346.324 132.927C345.931 132.198 345.021 131.925 344.292 132.318C343.563 132.711 343.29 133.62 343.683 134.35L346.324 132.927ZM293.225 85.446C293.649 85.5989 294.103 85.7817 294.583 85.9944L295.797 83.2511C295.261 83.0137 294.741 82.8036 294.241 82.6234L293.225 85.446ZM300.816 89.4775C301.65 90.0173 302.512 90.5985 303.397 91.2182L305.118 88.7609C304.205 88.122 303.313 87.5202 302.446 86.9589L300.816 89.4775ZM309.227 95.595C310.03 96.2348 310.841 96.8966 311.66 97.5785L313.58 95.2737C312.746 94.5784 311.917 93.903 311.097 93.2493L309.227 95.595ZM317.172 102.39C317.938 103.089 318.705 103.801 319.471 104.526L321.533 102.347C320.754 101.61 319.974 100.885 319.194 100.173L317.172 102.39ZM324.683 109.668C325.411 110.417 326.133 111.174 326.848 111.938L329.039 109.888C328.31 109.11 327.575 108.34 326.835 107.577L324.683 109.668ZM331.721 117.393C332.401 118.191 333.069 118.994 333.723 119.799L336.051 117.907C335.382 117.084 334.7 116.264 334.006 115.448L331.721 117.393ZM338.154 125.591C338.767 126.448 339.36 127.303 339.93 128.155L342.424 126.488C341.835 125.608 341.225 124.726 340.594 123.845L338.154 125.591ZM343.683 134.35C343.929 134.806 344.166 135.26 344.394 135.712L347.071 134.358C346.831 133.882 346.581 133.405 346.324 132.927L343.683 134.35Z" fill="#6A6A6A"/>
<path d="M351.733 129.882L348.886 140.507L338.26 137.66" stroke="#6A6A6A" stroke-width="3" stroke-linecap="round" stroke-linejoin="round"/>
<g style="mix-blend-mode:darken" opacity="0.25">
<circle cx="88.25" cy="206" r="53.5" fill="white" stroke="#2B2B2B" stroke-width="3"/>
<path d="M67.8182 201.396H70.8902C73.9462 201.396 75.9942 199.716 75.9942 196.132C75.9942 192.548 73.9462 190.964 70.7622 190.964H67.8182V201.396ZM70.1702 199.492V192.868H70.6182C72.3942 192.868 73.5782 193.636 73.5782 196.132C73.5782 198.628 72.3942 199.492 70.6182 199.492H70.1702ZM77.0685 197.428C77.0685 200.052 78.8125 201.588 81.0845 201.588C82.0285 201.588 83.0845 201.252 83.9005 200.692L83.1165 199.268C82.5405 199.62 81.9965 199.796 81.4045 199.796C80.3485 199.796 79.5485 199.268 79.3405 198.068H84.0925C84.1405 197.876 84.1885 197.492 84.1885 197.076C84.1885 194.916 83.0685 193.268 80.8125 193.268C78.9085 193.268 77.0685 194.852 77.0685 197.428ZM79.3245 196.612C79.4845 195.556 80.1245 195.06 80.8605 195.06C81.8045 195.06 82.1885 195.7 82.1885 196.612H79.3245ZM84.8597 200.484C85.6597 201.14 86.8597 201.588 87.8997 201.588C90.0277 201.588 91.1637 200.468 91.1637 199.028C91.1637 197.572 90.0277 197.012 89.0197 196.644C88.2037 196.34 87.4677 196.148 87.4677 195.636C87.4677 195.236 87.7557 195.012 88.3637 195.012C88.9237 195.012 89.4677 195.268 90.0437 195.684L91.0997 194.276C90.4117 193.764 89.5157 193.268 88.2997 193.268C86.4597 193.268 85.2597 194.276 85.2597 195.748C85.2597 197.06 86.3957 197.716 87.3557 198.084C88.1717 198.404 88.9717 198.644 88.9717 199.172C88.9717 199.588 88.6677 199.844 87.9637 199.844C87.2917 199.844 86.6357 199.556 85.9157 199.012L84.8597 200.484ZM93.5755 192.292C94.3755 192.292 94.9355 191.78 94.9355 191.06C94.9355 190.34 94.3755 189.844 93.5755 189.844C92.7915 189.844 92.2155 190.34 92.2155 191.06C92.2155 191.78 92.7915 192.292 93.5755 192.292ZM92.4075 201.396H94.7595V193.46H92.4075V201.396ZM98.0194 202.388C98.0194 202.1 98.1634 201.86 98.4514 201.604C98.7074 201.668 99.0274 201.7 99.5714 201.7H100.387C101.171 201.7 101.603 201.828 101.603 202.324C101.603 202.868 100.835 203.3 99.7794 203.3C98.7234 203.3 98.0194 202.98 98.0194 202.388ZM96.0834 202.756C96.0834 204.164 97.5554 204.772 99.4114 204.772C102.131 204.772 103.843 203.572 103.843 201.924C103.843 200.5 102.771 199.908 100.819 199.908H99.5394C98.6594 199.908 98.3394 199.716 98.3394 199.316C98.3394 199.044 98.4194 198.9 98.6274 198.724C98.9794 198.836 99.2994 198.884 99.5874 198.884C101.331 198.884 102.707 198.036 102.707 196.212C102.707 195.796 102.595 195.412 102.451 195.172H103.715V193.46H100.819C100.467 193.332 100.035 193.268 99.5874 193.268C97.8754 193.268 96.3074 194.228 96.3074 196.132C96.3074 197.06 96.8194 197.812 97.3794 198.196V198.26C96.8674 198.612 96.4834 199.172 96.4834 199.748C96.4834 200.404 96.8034 200.82 97.2194 201.092V201.156C96.4834 201.572 96.0834 202.1 96.0834 202.756ZM99.5874 197.46C98.9634 197.46 98.4994 197.012 98.4994 196.132C98.4994 195.284 98.9634 194.852 99.5874 194.852C100.211 194.852 100.675 195.3 100.675 196.132C100.675 197.012 100.211 197.46 99.5874 197.46ZM104.876 201.396H107.228V196.036C107.74 195.54 108.108 195.268 108.7 195.268C109.372 195.268 109.676 195.62 109.676 196.772V201.396H112.028V196.468C112.028 194.484 111.292 193.268 109.564 193.268C108.492 193.268 107.692 193.828 107.02 194.468H106.956L106.796 193.46H104.876V201.396Z" fill="#009CDE"/>
<path d="M60.4325 221.396H61.7605V217.236H63.6485C65.9525 217.236 67.5205 216.196 67.5205 213.988C67.5205 211.684 65.9685 210.9 63.6485 210.9H60.4325V221.396ZM61.7605 216.148V211.972H63.4885C65.2965 211.972 66.1925 212.468 66.1925 213.988C66.1925 215.476 65.3125 216.148 63.4885 216.148H61.7605ZM69.2732 221.396H70.5852V216.404C71.1132 215.092 71.8972 214.612 72.5532 214.612C72.8732 214.612 73.0492 214.66 73.3052 214.74L73.5612 213.588C73.3052 213.476 73.0652 213.428 72.7292 213.428C71.8492 213.428 71.0492 214.052 70.5212 215.028H70.4732L70.3612 213.62H69.2732V221.396ZM73.8379 217.524C73.8379 220.1 75.5339 221.588 77.4379 221.588C79.3419 221.588 81.0379 220.1 81.0379 217.524C81.0379 214.916 79.3419 213.428 77.4379 213.428C75.5339 213.428 73.8379 214.916 73.8379 217.524ZM75.1979 217.524C75.1979 215.732 76.1099 214.516 77.4379 214.516C78.7819 214.516 79.6779 215.732 79.6779 217.524C79.6779 219.3 78.7819 220.5 77.4379 220.5C76.1099 220.5 75.1979 219.3 75.1979 217.524ZM82.2757 217.524C82.2757 220.116 83.5397 221.588 85.4917 221.588C86.4037 221.588 87.2357 221.076 87.8437 220.484H87.8917L88.0037 221.396H89.0917V210.004H87.7637V212.996L87.8277 214.324C87.1397 213.764 86.5477 213.428 85.6517 213.428C83.8757 213.428 82.2757 214.996 82.2757 217.524ZM83.6357 217.508C83.6357 215.732 84.6277 214.532 85.8757 214.532C86.5157 214.532 87.1077 214.756 87.7637 215.348V219.412C87.1237 220.132 86.4997 220.484 85.7797 220.484C84.4197 220.484 83.6357 219.364 83.6357 217.508ZM91.3487 218.548C91.3487 220.532 92.0847 221.588 93.7327 221.588C94.8047 221.588 95.5727 221.028 96.2927 220.18H96.3407L96.4527 221.396H97.5407V213.62H96.2287V219.14C95.4927 220.052 94.9327 220.452 94.1327 220.452C93.1087 220.452 92.6767 219.828 92.6767 218.372V213.62H91.3487V218.548ZM99.3379 217.524C99.3379 220.1 100.922 221.588 102.986 221.588C103.914 221.588 104.81 221.204 105.514 220.58L104.922 219.716C104.458 220.132 103.834 220.5 103.098 220.5C101.674 220.5 100.698 219.3 100.698 217.524C100.698 215.732 101.722 214.516 103.13 214.516C103.754 214.516 104.234 214.804 104.698 215.204L105.354 214.356C104.826 213.86 104.106 213.428 103.082 213.428C101.082 213.428 99.3379 214.916 99.3379 217.524ZM107.185 218.996C107.185 220.532 107.745 221.588 109.409 221.588C109.889 221.588 110.417 221.444 110.849 221.3L110.593 220.308C110.337 220.404 109.985 220.516 109.713 220.516C108.817 220.516 108.513 219.972 108.513 219.012V214.692H110.609V213.62H108.513V211.444H107.409L107.249 213.62L106.033 213.7V214.692H107.185V218.996ZM111.253 220.516C111.989 221.124 113.045 221.588 114.149 221.588C115.989 221.588 116.997 220.532 116.997 219.268C116.997 217.796 115.749 217.332 114.629 216.916C113.749 216.58 112.901 216.308 112.901 215.572C112.901 214.98 113.349 214.452 114.325 214.452C115.013 214.452 115.573 214.74 116.101 215.14L116.725 214.308C116.133 213.828 115.285 213.428 114.309 213.428C112.629 213.428 111.637 214.388 111.637 215.636C111.637 216.948 112.853 217.476 113.957 217.876C114.805 218.196 115.733 218.548 115.733 219.348C115.733 220.02 115.221 220.564 114.197 220.564C113.269 220.564 112.581 220.18 111.909 219.636L111.253 220.516Z" fill="#2B2B2B"/>
</g>
<circle cx="222.25" cy="206" r="55" fill="#2B2B2B"/>
<path d="M209.518 201.396H210.846V190.9H209.518V201.396ZM212.255 201.396H213.631L214.687 199.588C214.943 199.108 215.199 198.644 215.471 198.196H215.535C215.823 198.644 216.111 199.124 216.383 199.588L217.519 201.396H218.943L216.415 197.476L218.767 193.62H217.391L216.447 195.332C216.207 195.748 215.967 196.196 215.743 196.628H215.679C215.407 196.196 215.151 195.748 214.911 195.332L213.871 193.62H212.447L214.799 197.332L212.255 201.396ZM220.362 201.396H223.05C226.218 201.396 227.946 199.444 227.946 196.1C227.946 192.772 226.218 190.9 222.986 190.9H220.362V201.396ZM221.69 200.308V191.988H222.89C225.338 191.988 226.57 193.46 226.57 196.1C226.57 198.756 225.338 200.308 222.89 200.308H221.69ZM229.956 201.396H231.284V196.692H235.284V195.572H231.284V192.02H236.004V190.9H229.956V201.396Z" fill="white"/>
<path d="M197.287 220.084C198.343 221.076 199.783 221.588 201.143 221.588C203.639 221.588 205.079 220.084 205.079 218.356C205.079 216.884 204.279 216.036 203.015 215.524L201.671 214.98C200.775 214.612 200.087 214.388 200.087 213.748C200.087 213.156 200.599 212.804 201.415 212.804C202.247 212.804 202.887 213.108 203.575 213.636L204.775 212.148C203.879 211.252 202.615 210.772 201.415 210.772C199.239 210.772 197.703 212.148 197.703 213.876C197.703 215.396 198.727 216.292 199.799 216.724L201.159 217.3C202.071 217.684 202.663 217.892 202.663 218.548C202.663 219.172 202.183 219.556 201.207 219.556C200.343 219.556 199.383 219.108 198.631 218.468L197.287 220.084ZM206.583 222.548L206.167 224.34C206.487 224.436 206.807 224.5 207.287 224.5C209.159 224.5 210.007 223.476 210.759 221.476L213.511 213.46H211.255L210.295 216.868C210.103 217.62 209.927 218.372 209.751 219.124H209.687C209.479 218.34 209.287 217.588 209.063 216.868L207.927 213.46H205.559L208.615 221.188L208.503 221.604C208.295 222.228 207.895 222.644 207.111 222.644C206.935 222.644 206.727 222.58 206.583 222.548ZM213.797 220.484C214.597 221.14 215.797 221.588 216.837 221.588C218.965 221.588 220.101 220.468 220.101 219.028C220.101 217.572 218.965 217.012 217.957 216.644C217.141 216.34 216.405 216.148 216.405 215.636C216.405 215.236 216.693 215.012 217.301 215.012C217.861 215.012 218.405 215.268 218.981 215.684L220.037 214.276C219.349 213.764 218.453 213.268 217.237 213.268C215.397 213.268 214.197 214.276 214.197 215.748C214.197 217.06 215.333 217.716 216.293 218.084C217.109 218.404 217.909 218.644 217.909 219.172C217.909 219.588 217.605 219.844 216.901 219.844C216.229 219.844 215.573 219.556 214.853 219.012L213.797 220.484ZM221.665 218.516C221.665 220.356 222.433 221.588 224.401 221.588C225.169 221.588 225.745 221.428 226.161 221.3L225.793 219.588C225.585 219.668 225.297 219.748 225.041 219.748C224.417 219.748 224.017 219.38 224.017 218.484V215.3H225.921V213.46H224.017V211.348H222.065L221.793 213.46L220.577 213.556V215.3H221.665V218.516ZM226.599 217.428C226.599 220.052 228.343 221.588 230.615 221.588C231.559 221.588 232.615 221.252 233.431 220.692L232.647 219.268C232.071 219.62 231.527 219.796 230.935 219.796C229.879 219.796 229.079 219.268 228.871 218.068H233.623C233.671 217.876 233.719 217.492 233.719 217.076C233.719 214.916 232.599 213.268 230.343 213.268C228.439 213.268 226.599 214.852 226.599 217.428ZM228.855 216.612C229.015 215.556 229.655 215.06 230.391 215.06C231.335 215.06 231.719 215.7 231.719 216.612H228.855ZM235.095 221.396H237.447V216.036C237.943 215.524 238.407 215.268 238.791 215.268C239.463 215.268 239.767 215.62 239.767 216.772V221.396H242.119V216.036C242.631 215.524 243.079 215.268 243.479 215.268C244.151 215.268 244.455 215.62 244.455 216.772V221.396H246.807V216.468C246.807 214.484 246.039 213.268 244.327 213.268C243.271 213.268 242.535 213.876 241.831 214.596C241.431 213.748 240.759 213.268 239.639 213.268C238.599 213.268 237.895 213.828 237.239 214.484H237.175L237.015 213.46H235.095V221.396Z" fill="#009CDE"/>
<g style="mix-blend-mode:darken" opacity="0.25">
<circle cx="356.25" cy="206" r="53.5" fill="white" stroke="#2B2B2B" stroke-width="3"/>
<path d="M313.862 196.6C313.862 200.542 316.346 202.612 319.388 202.612C320.846 202.612 322.142 202.018 323.114 200.884L321.656 199.282C321.08 199.912 320.378 200.326 319.424 200.326C317.696 200.326 316.58 198.922 316.58 196.51C316.58 194.152 317.858 192.73 319.496 192.73C320.306 192.73 320.882 193.072 321.476 193.612L322.934 191.974C322.142 191.164 320.918 190.444 319.46 190.444C316.436 190.444 313.862 192.712 313.862 196.6ZM323.909 197.932C323.909 200.902 325.997 202.612 328.265 202.612C330.515 202.612 332.603 200.902 332.603 197.932C332.603 194.962 330.515 193.252 328.265 193.252C325.997 193.252 323.909 194.962 323.909 197.932ZM326.627 197.932C326.627 196.384 327.167 195.394 328.265 195.394C329.345 195.394 329.903 196.384 329.903 197.932C329.903 199.48 329.345 200.47 328.265 200.47C327.167 200.47 326.627 199.48 326.627 197.932ZM333.643 197.932C333.643 200.902 335.731 202.612 337.999 202.612C340.249 202.612 342.337 200.902 342.337 197.932C342.337 194.962 340.249 193.252 337.999 193.252C335.731 193.252 333.643 194.962 333.643 197.932ZM336.361 197.932C336.361 196.384 336.901 195.394 337.999 195.394C339.079 195.394 339.637 196.384 339.637 197.932C339.637 199.48 339.079 200.47 337.999 200.47C336.901 200.47 336.361 199.48 336.361 197.932ZM343.9 202.396H346.546V197.212C347.014 196.006 347.842 195.574 348.508 195.574C348.886 195.574 349.156 195.628 349.48 195.718L349.912 193.432C349.66 193.324 349.354 193.252 348.85 193.252C347.932 193.252 346.96 193.828 346.312 195.034H346.24L346.06 193.468H343.9V202.396ZM350.178 197.932C350.178 200.848 351.618 202.612 353.832 202.612C354.696 202.612 355.578 202.144 356.208 201.514H356.28L356.46 202.396H358.62V189.778H355.974V192.82L356.082 194.188C355.47 193.612 354.876 193.252 353.886 193.252C351.996 193.252 350.178 195.016 350.178 197.932ZM352.896 197.896C352.896 196.204 353.652 195.412 354.498 195.412C354.984 195.412 355.506 195.556 355.974 195.988V199.642C355.542 200.236 355.092 200.452 354.516 200.452C353.49 200.452 352.896 199.66 352.896 197.896ZM362.028 192.154C362.928 192.154 363.558 191.578 363.558 190.768C363.558 189.958 362.928 189.4 362.028 189.4C361.146 189.4 360.498 189.958 360.498 190.768C360.498 191.578 361.146 192.154 362.028 192.154ZM360.714 202.396H363.36V193.468H360.714V202.396ZM365.439 202.396H368.085V196.366C368.661 195.808 369.075 195.502 369.741 195.502C370.497 195.502 370.839 195.898 370.839 197.194V202.396H373.485V196.852C373.485 194.62 372.657 193.252 370.713 193.252C369.507 193.252 368.607 193.882 367.851 194.602H367.779L367.599 193.468H365.439V202.396ZM375.165 199.912C375.165 201.424 376.191 202.612 377.811 202.612C378.819 202.612 379.665 202.144 380.421 201.478H380.475L380.673 202.396H382.833V197.284C382.833 194.548 381.573 193.252 379.287 193.252C377.883 193.252 376.605 193.738 375.471 194.422L376.407 196.168C377.271 195.664 378.027 195.358 378.783 195.358C379.737 195.358 380.133 195.862 380.187 196.654C376.659 197.014 375.165 198.04 375.165 199.912ZM377.685 199.714C377.685 199.03 378.297 198.49 380.187 198.238V199.804C379.719 200.272 379.323 200.56 378.711 200.56C378.081 200.56 377.685 200.29 377.685 199.714ZM385.215 199.156C385.215 201.226 386.079 202.612 388.293 202.612C389.157 202.612 389.805 202.432 390.273 202.288L389.859 200.362C389.625 200.452 389.301 200.542 389.013 200.542C388.311 200.542 387.861 200.128 387.861 199.12V195.538H390.003V193.468H387.861V191.092H385.665L385.359 193.468L383.991 193.576V195.538H385.215V199.156ZM390.797 197.932C390.797 200.884 392.759 202.612 395.315 202.612C396.377 202.612 397.565 202.234 398.483 201.604L397.601 200.002C396.953 200.398 396.341 200.596 395.675 200.596C394.487 200.596 393.587 200.002 393.353 198.652H398.699C398.753 198.436 398.807 198.004 398.807 197.536C398.807 195.106 397.547 193.252 395.009 193.252C392.867 193.252 390.797 195.034 390.797 197.932ZM393.335 197.014C393.515 195.826 394.235 195.268 395.063 195.268C396.125 195.268 396.557 195.988 396.557 197.014H393.335Z" fill="#009CDE"/>
<path d="M336.463 222.396H342.671V221.26H337.791V217.452H341.775V216.316H337.791V213.02H342.511V211.9H336.463V222.396ZM348.315 211.068C347.963 210.924 347.499 210.812 347.019 210.812C345.467 210.812 344.747 211.804 344.747 213.388V214.62L343.691 214.7V215.692H344.747V222.396H346.059V215.692H347.707V214.62H346.059V213.388C346.059 212.396 346.411 211.884 347.147 211.884C347.435 211.884 347.739 211.948 348.027 212.076L348.315 211.068ZM352.737 211.068C352.385 210.924 351.921 210.812 351.441 210.812C349.889 210.812 349.169 211.804 349.169 213.388V214.62L348.113 214.7V215.692H349.169V222.396H350.481V215.692H352.129V214.62H350.481V213.388C350.481 212.396 350.833 211.884 351.569 211.884C351.857 211.884 352.161 211.948 352.449 212.076L352.737 211.068ZM352.634 218.524C352.634 221.1 354.33 222.588 356.234 222.588C358.138 222.588 359.834 221.1 359.834 218.524C359.834 215.916 358.138 214.428 356.234 214.428C354.33 214.428 352.634 215.916 352.634 218.524ZM353.994 218.524C353.994 216.732 354.906 215.516 356.234 215.516C357.578 215.516 358.474 216.732 358.474 218.524C358.474 220.3 357.578 221.5 356.234 221.5C354.906 221.5 353.994 220.3 353.994 218.524ZM361.632 222.396H362.944V217.404C363.472 216.092 364.256 215.612 364.912 215.612C365.232 215.612 365.408 215.66 365.664 215.74L365.92 214.588C365.664 214.476 365.424 214.428 365.088 214.428C364.208 214.428 363.408 215.052 362.88 216.028H362.832L362.72 214.62H361.632V222.396ZM367.153 219.996C367.153 221.532 367.713 222.588 369.377 222.588C369.857 222.588 370.385 222.444 370.817 222.3L370.561 221.308C370.305 221.404 369.953 221.516 369.681 221.516C368.785 221.516 368.481 220.972 368.481 220.012V215.692H370.577V214.62H368.481V212.444H367.377L367.217 214.62L366.001 214.7V215.692H367.153V219.996ZM371.221 221.516C371.957 222.124 373.013 222.588 374.117 222.588C375.957 222.588 376.965 221.532 376.965 220.268C376.965 218.796 375.717 218.332 374.597 217.916C373.717 217.58 372.869 217.308 372.869 216.572C372.869 215.98 373.317 215.452 374.293 215.452C374.981 215.452 375.541 215.74 376.069 216.14L376.693 215.308C376.101 214.828 375.253 214.428 374.277 214.428C372.597 214.428 371.605 215.388 371.605 216.636C371.605 217.948 372.821 218.476 373.925 218.876C374.773 219.196 375.701 219.548 375.701 220.348C375.701 221.02 375.189 221.564 374.165 221.564C373.237 221.564 372.549 221.18 371.877 220.636L371.221 221.516Z" fill="#2B2B2B"/>
</g>
<path d="M150.25 328.965C137.977 324.546 108.932 299.083 98.25 277.965" stroke="#6A6A6A" stroke-width="3" stroke-linecap="round" stroke-linejoin="round" stroke-dasharray="3 7"/>
<path d="M92.25 283.118L95.097 272.493L105.722 275.34" stroke="#6A6A6A" stroke-width="3" stroke-linecap="round" stroke-linejoin="round"/>
<path d="M152.875 321.493L155.722 332.118L145.097 334.965" stroke="#6A6A6A" stroke-width="3" stroke-linecap="round" stroke-linejoin="round"/>
<circle cx="222.25" cy="340" r="53.5" fill="white" stroke="#2B2B2B" stroke-width="3"/>
<path d="M195.482 335.396H198.554C201.61 335.396 203.658 333.716 203.658 330.132C203.658 326.548 201.61 324.964 198.426 324.964H195.482V335.396ZM197.834 333.492V326.868H198.282C200.058 326.868 201.242 327.636 201.242 330.132C201.242 332.628 200.058 333.492 198.282 333.492H197.834ZM204.732 331.428C204.732 334.052 206.476 335.588 208.748 335.588C209.692 335.588 210.748 335.252 211.564 334.692L210.78 333.268C210.204 333.62 209.66 333.796 209.068 333.796C208.012 333.796 207.212 333.268 207.004 332.068H211.756C211.804 331.876 211.852 331.492 211.852 331.076C211.852 328.916 210.732 327.268 208.476 327.268C206.572 327.268 204.732 328.852 204.732 331.428ZM206.988 330.612C207.148 329.556 207.788 329.06 208.524 329.06C209.468 329.06 209.852 329.7 209.852 330.612H206.988ZM214.958 335.396H217.678L220.27 327.46H218.014L216.974 331.204C216.766 331.988 216.558 332.82 216.366 333.652H216.302C216.094 332.82 215.886 331.988 215.678 331.204L214.654 327.46H212.286L214.958 335.396ZM220.67 331.428C220.67 334.052 222.414 335.588 224.686 335.588C225.63 335.588 226.686 335.252 227.502 334.692L226.718 333.268C226.142 333.62 225.598 333.796 225.006 333.796C223.95 333.796 223.15 333.268 222.942 332.068H227.694C227.742 331.876 227.79 331.492 227.79 331.076C227.79 328.916 226.67 327.268 224.414 327.268C222.51 327.268 220.67 328.852 220.67 331.428ZM222.926 330.612C223.086 329.556 223.726 329.06 224.462 329.06C225.406 329.06 225.79 329.7 225.79 330.612H222.926ZM229.165 332.932C229.165 334.532 229.709 335.588 231.325 335.588C231.853 335.588 232.253 335.508 232.509 335.396L232.221 333.652C232.093 333.684 232.029 333.684 231.933 333.684C231.741 333.684 231.517 333.524 231.517 333.028V324.18H229.165V332.932ZM233.029 331.428C233.029 334.068 234.885 335.588 236.901 335.588C238.901 335.588 240.757 334.068 240.757 331.428C240.757 328.788 238.901 327.268 236.901 327.268C234.885 327.268 233.029 328.788 233.029 331.428ZM235.445 331.428C235.445 330.052 235.925 329.172 236.901 329.172C237.861 329.172 238.357 330.052 238.357 331.428C238.357 332.804 237.861 333.684 236.901 333.684C235.925 333.684 235.445 332.804 235.445 331.428ZM244.39 334.756C244.95 335.284 245.59 335.588 246.278 335.588C247.99 335.588 249.622 334.02 249.622 331.3C249.622 328.852 248.438 327.268 246.518 327.268C245.686 327.268 244.886 327.684 244.262 328.244H244.198L244.038 327.46H242.118V338.34H244.47V336.02L244.39 334.756ZM244.47 333.156V329.908C244.934 329.412 245.35 329.188 245.83 329.188C246.774 329.188 247.206 329.908 247.206 331.332C247.206 332.964 246.55 333.668 245.734 333.668C245.334 333.668 244.886 333.54 244.47 333.156Z" fill="#009CDE"/>
<path d="M193.727 354.036C194.639 354.98 195.935 355.588 197.407 355.588C199.615 355.588 200.975 354.26 200.975 352.596C200.975 351.044 200.031 350.324 198.815 349.796L197.327 349.156C196.495 348.804 195.583 348.42 195.583 347.412C195.583 346.468 196.367 345.876 197.535 345.876C198.511 345.876 199.279 346.26 199.919 346.868L200.639 346.004C199.887 345.236 198.783 344.708 197.535 344.708C195.631 344.708 194.239 345.892 194.239 347.492C194.239 349.028 195.375 349.78 196.367 350.196L197.871 350.852C198.863 351.3 199.615 351.636 199.615 352.708C199.615 353.732 198.799 354.42 197.423 354.42C196.335 354.42 195.279 353.892 194.527 353.108L193.727 354.036ZM202.088 351.524C202.088 354.1 203.784 355.588 205.688 355.588C207.592 355.588 209.288 354.1 209.288 351.524C209.288 348.916 207.592 347.428 205.688 347.428C203.784 347.428 202.088 348.916 202.088 351.524ZM203.448 351.524C203.448 349.732 204.36 348.516 205.688 348.516C207.032 348.516 207.928 349.732 207.928 351.524C207.928 353.3 207.032 354.5 205.688 354.5C204.36 354.5 203.448 353.3 203.448 351.524ZM214.877 344.068C214.525 343.924 214.061 343.812 213.581 343.812C212.029 343.812 211.309 344.804 211.309 346.388V347.62L210.253 347.7V348.692H211.309V355.396H212.621V348.692H214.269V347.62H212.621V346.388C212.621 345.396 212.973 344.884 213.709 344.884C213.997 344.884 214.301 344.948 214.589 345.076L214.877 344.068ZM215.731 352.996C215.731 354.532 216.291 355.588 217.955 355.588C218.435 355.588 218.963 355.444 219.395 355.3L219.139 354.308C218.883 354.404 218.531 354.516 218.259 354.516C217.363 354.516 217.059 353.972 217.059 353.012V348.692H219.155V347.62H217.059V345.444H215.955L215.795 347.62L214.579 347.7V348.692H215.731V352.996ZM221.896 355.396H223.432L224.52 351.236C224.728 350.5 224.888 349.764 225.064 348.98H225.128C225.32 349.764 225.464 350.484 225.656 351.22L226.776 355.396H228.376L230.456 347.62H229.208L228.072 352.116C227.912 352.852 227.768 353.556 227.592 354.276H227.528C227.352 353.556 227.176 352.852 226.984 352.116L225.768 347.62H224.488L223.288 352.116C223.096 352.836 222.936 353.556 222.76 354.276H222.696C222.552 353.556 222.408 352.852 222.232 352.116L221.08 347.62H219.736L221.896 355.396ZM231.358 353.38C231.358 354.772 232.334 355.588 233.646 355.588C234.606 355.588 235.47 355.076 236.222 354.468H236.254L236.366 355.396H237.454V350.628C237.454 348.692 236.654 347.428 234.75 347.428C233.502 347.428 232.414 347.972 231.694 348.436L232.222 349.348C232.83 348.932 233.63 348.516 234.542 348.516C235.806 348.516 236.142 349.476 236.142 350.468C232.83 350.836 231.358 351.684 231.358 353.38ZM232.654 353.284C232.654 352.292 233.534 351.652 236.142 351.332V353.492C235.39 354.164 234.766 354.532 234.014 354.532C233.246 354.532 232.654 354.164 232.654 353.284ZM239.679 355.396H240.991V350.404C241.519 349.092 242.303 348.612 242.959 348.612C243.279 348.612 243.455 348.66 243.711 348.74L243.967 347.588C243.711 347.476 243.471 347.428 243.135 347.428C242.255 347.428 241.455 348.052 240.927 349.028H240.879L240.767 347.62H239.679V355.396ZM244.244 351.524C244.244 354.068 245.892 355.588 247.972 355.588C249.028 355.588 249.86 355.22 250.532 354.788L250.068 353.924C249.492 354.292 248.868 354.532 248.132 354.532C246.644 354.532 245.636 353.476 245.54 351.796H250.788C250.82 351.604 250.836 351.348 250.836 351.076C250.836 348.852 249.716 347.428 247.732 347.428C245.956 347.428 244.244 348.98 244.244 351.524ZM245.524 350.932C245.684 349.364 246.676 348.468 247.764 348.468C248.98 348.468 249.684 349.348 249.684 350.932H245.524Z" fill="#2B2B2B"/>
<path d="M294.758 329.377C293.979 329.657 293.119 329.253 292.839 328.473C292.558 327.694 292.962 326.835 293.742 326.554L294.758 329.377ZM344.912 276.288C345.285 275.549 346.188 275.253 346.927 275.627C347.666 276.001 347.962 276.903 347.588 277.642L344.912 276.288ZM295.1 326.006C295.858 325.67 296.744 326.013 297.079 326.77C297.414 327.528 297.072 328.414 296.315 328.749L295.1 326.006ZM302.963 325.041C302.268 325.491 301.339 325.292 300.889 324.597C300.439 323.901 300.638 322.973 301.333 322.523L302.963 325.041ZM303.914 320.782C304.592 320.307 305.528 320.471 306.003 321.15C306.478 321.829 306.313 322.764 305.635 323.239L303.914 320.782ZM311.615 318.751C310.967 319.267 310.023 319.161 309.507 318.513C308.99 317.865 309.097 316.922 309.744 316.405L311.615 318.751ZM312.177 314.422C312.813 313.891 313.759 313.977 314.289 314.614C314.82 315.25 314.734 316.196 314.097 316.726L312.177 314.422ZM319.711 311.827C319.099 312.385 318.15 312.342 317.592 311.73C317.034 311.118 317.077 310.169 317.689 309.61L319.711 311.827ZM319.989 307.474C320.59 306.905 321.54 306.931 322.109 307.533C322.678 308.135 322.652 309.084 322.05 309.653L319.989 307.474ZM327.352 304.423C326.775 305.017 325.825 305.031 325.231 304.453C324.637 303.876 324.623 302.926 325.2 302.332L327.352 304.423ZM327.365 300.062C327.931 299.457 328.881 299.425 329.486 299.991C330.09 300.557 330.122 301.507 329.556 302.112L327.365 300.062ZM334.523 296.552C333.986 297.183 333.04 297.259 332.409 296.722C331.778 296.185 331.702 295.238 332.239 294.607L334.523 296.552ZM334.241 292.201C334.763 291.558 335.708 291.461 336.351 291.983C336.994 292.506 337.091 293.451 336.569 294.093L334.241 292.201ZM341.112 288.155C340.629 288.828 339.693 288.984 339.019 288.502C338.345 288.02 338.19 287.083 338.672 286.409L341.112 288.155ZM340.447 283.845C340.907 283.156 341.839 282.971 342.528 283.431C343.216 283.892 343.402 284.823 342.941 285.512L340.447 283.845ZM346.841 279.073C346.448 279.802 345.539 280.075 344.809 279.682C344.08 279.289 343.807 278.38 344.2 277.65L346.841 279.073ZM293.742 326.554C294.167 326.401 294.62 326.218 295.1 326.006L296.315 328.749C295.778 328.986 295.259 329.196 294.758 329.377L293.742 326.554ZM301.333 322.523C302.167 321.983 303.029 321.402 303.914 320.782L305.635 323.239C304.723 323.878 303.831 324.48 302.963 325.041L301.333 322.523ZM309.744 316.405C310.547 315.765 311.359 315.103 312.177 314.422L314.097 316.726C313.263 317.422 312.435 318.097 311.615 318.751L309.744 316.405ZM317.689 309.61C318.456 308.911 319.223 308.199 319.989 307.474L322.05 309.653C321.271 310.39 320.491 311.115 319.711 311.827L317.689 309.61ZM325.2 302.332C325.928 301.583 326.65 300.826 327.365 300.062L329.556 302.112C328.828 302.89 328.093 303.66 327.352 304.423L325.2 302.332ZM332.239 294.607C332.918 293.809 333.586 293.006 334.241 292.201L336.569 294.093C335.9 294.916 335.217 295.736 334.523 296.552L332.239 294.607ZM338.672 286.409C339.285 285.552 339.877 284.697 340.447 283.845L342.941 285.512C342.353 286.392 341.742 287.274 341.112 288.155L338.672 286.409ZM344.2 277.65C344.446 277.194 344.683 276.74 344.912 276.288L347.588 277.642C347.348 278.118 347.099 278.595 346.841 279.073L344.2 277.65Z" fill="#6A6A6A"/>
<path d="M352.25 282.118L349.403 271.493L338.778 274.34" stroke="#6A6A6A" stroke-width="3" stroke-linecap="round" stroke-linejoin="round"/>
<path d="M423.25 207.5C422.422 207.5 421.75 206.828 421.75 206C421.75 205.172 422.422 204.5 423.25 204.5L423.25 207.5ZM517.811 204.939C518.396 205.525 518.396 206.475 517.811 207.061L508.265 216.607C507.679 217.192 506.729 217.192 506.143 216.607C505.558 216.021 505.558 215.071 506.143 214.485L514.629 206L506.143 197.515C505.558 196.929 505.558 195.979 506.143 195.393C506.729 194.808 507.679 194.808 508.265 195.393L517.811 204.939ZM425.198 204.5C426.026 204.5 426.698 205.172 426.698 206C426.698 206.828 426.026 207.5 425.198 207.5L425.198 204.5ZM432.99 207.5C432.161 207.5 431.49 206.828 431.49 206C431.49 205.172 432.161 204.5 432.99 204.5L432.99 207.5ZM436.885 204.5C437.714 204.5 438.385 205.172 438.385 206C438.385 206.828 437.714 207.5 436.885 207.5L436.885 204.5ZM444.677 207.5C443.849 207.5 443.177 206.828 443.177 206C443.177 205.172 443.849 204.5 444.677 204.5L444.677 207.5ZM448.573 204.5C449.401 204.5 450.073 205.172 450.073 206C450.073 206.828 449.401 207.5 448.573 207.5L448.573 204.5ZM456.365 207.5C455.536 207.5 454.865 206.828 454.865 206C454.865 205.172 455.536 204.5 456.365 204.5L456.365 207.5ZM460.26 204.5C461.089 204.5 461.76 205.172 461.76 206C461.76 206.828 461.089 207.5 460.26 207.5L460.26 204.5ZM468.052 207.5C467.224 207.5 466.552 206.828 466.552 206C466.552 205.172 467.224 204.5 468.052 204.5L468.052 207.5ZM471.948 204.5C472.776 204.5 473.448 205.172 473.448 206C473.448 206.828 472.776 207.5 471.948 207.5L471.948 204.5ZM479.74 207.5C478.911 207.5 478.24 206.828 478.24 206C478.24 205.172 478.911 204.5 479.74 204.5L479.74 207.5ZM483.635 204.5C484.464 204.5 485.135 205.172 485.135 206C485.135 206.828 484.464 207.5 483.635 207.5L483.635 204.5ZM491.427 207.5C490.599 207.5 489.927 206.828 489.927 206C489.927 205.172 490.599 204.5 491.427 204.5L491.427 207.5ZM495.323 204.5C496.151 204.5 496.823 205.172 496.823 206C496.823 206.828 496.151 207.5 495.323 207.5L495.323 204.5ZM503.115 207.5C502.286 207.5 501.615 206.828 501.615 206C501.615 205.172 502.286 204.5 503.115 204.5L503.115 207.5ZM507.01 204.5C507.839 204.5 508.51 205.172 508.51 206C508.51 206.828 507.839 207.5 507.01 207.5L507.01 204.5ZM514.802 207.5C513.974 207.5 513.302 206.828 513.302 206C513.302 205.172 513.974 204.5 514.802 204.5L514.802 207.5ZM423.25 204.5L425.198 204.5L425.198 207.5L423.25 207.5L423.25 204.5ZM432.99 204.5L436.885 204.5L436.885 207.5L432.99 207.5L432.99 204.5ZM444.677 204.5L448.573 204.5L448.573 207.5L444.677 207.5L444.677 204.5ZM456.365 204.5L460.26 204.5L460.26 207.5L456.365 207.5L456.365 204.5ZM468.052 204.5L471.948 204.5L471.948 207.5L468.052 207.5L468.052 204.5ZM479.74 204.5L483.635 204.5L483.635 207.5L479.74 207.5L479.74 204.5ZM491.427 204.5L495.323 204.5L495.323 207.5L491.427 207.5L491.427 204.5ZM503.115 204.5L507.01 204.5L507.01 207.5L503.115 207.5L503.115 204.5ZM514.802 204.5L516.75 204.5L516.75 207.5L514.802 207.5L514.802 204.5Z" fill="#6A6A6A"/>
<g style="mix-blend-mode:darken" opacity="0.25">
<circle cx="583.75" cy="206" r="53.5" fill="white" stroke="#2B2B2B" stroke-width="3"/>
<path d="M548.674 195.124L549.17 193.524C549.554 192.356 549.89 191.204 550.21 189.988H550.274C550.61 191.204 550.946 192.356 551.33 193.524L551.826 195.124H548.674ZM553.154 199.396H554.578L551.026 188.9H549.522L545.97 199.396H547.33L548.338 196.196H552.162L553.154 199.396ZM555.111 195.524C555.111 198.1 556.695 199.588 558.759 199.588C559.687 199.588 560.583 199.204 561.287 198.58L560.695 197.716C560.231 198.132 559.607 198.5 558.871 198.5C557.447 198.5 556.471 197.3 556.471 195.524C556.471 193.732 557.495 192.516 558.903 192.516C559.527 192.516 560.007 192.804 560.471 193.204L561.127 192.356C560.599 191.86 559.879 191.428 558.855 191.428C556.855 191.428 555.111 192.916 555.111 195.524ZM562.734 199.396H564.046V193.764C564.83 192.98 565.374 192.564 566.174 192.564C567.198 192.564 567.646 193.188 567.646 194.644V199.396H568.958V194.468C568.958 192.484 568.222 191.428 566.59 191.428C565.518 191.428 564.734 192.004 563.998 192.708L564.046 191.108V188.004H562.734V199.396ZM571.859 190.02C572.371 190.02 572.771 189.668 572.771 189.172C572.771 188.66 572.371 188.324 571.859 188.324C571.347 188.324 570.947 188.66 570.947 189.172C570.947 189.668 571.347 190.02 571.859 190.02ZM571.187 199.396H572.499V191.62H571.187V199.396ZM574.299 195.524C574.299 198.068 575.947 199.588 578.027 199.588C579.083 199.588 579.915 199.22 580.587 198.788L580.123 197.924C579.547 198.292 578.923 198.532 578.187 198.532C576.699 198.532 575.691 197.476 575.595 195.796H580.843C580.875 195.604 580.891 195.348 580.891 195.076C580.891 192.852 579.771 191.428 577.787 191.428C576.011 191.428 574.299 192.98 574.299 195.524ZM575.579 194.932C575.739 193.364 576.731 192.468 577.819 192.468C579.035 192.468 579.739 193.348 579.739 194.932H575.579ZM584.32 199.396H585.856L588.608 191.62H587.312L585.84 196.036C585.616 196.804 585.36 197.588 585.136 198.324H585.072C584.832 197.588 584.576 196.804 584.352 196.036L582.88 191.62H581.52L584.32 199.396ZM589.22 195.524C589.22 198.068 590.868 199.588 592.948 199.588C594.004 199.588 594.836 199.22 595.508 198.788L595.044 197.924C594.468 198.292 593.844 198.532 593.108 198.532C591.62 198.532 590.612 197.476 590.516 195.796H595.764C595.796 195.604 595.812 195.348 595.812 195.076C595.812 192.852 594.692 191.428 592.708 191.428C590.932 191.428 589.22 192.98 589.22 195.524ZM590.5 194.932C590.66 193.364 591.652 192.468 592.74 192.468C593.956 192.468 594.66 193.348 594.66 194.932H590.5ZM599.892 195.524C599.892 198.1 601.588 199.588 603.492 199.588C605.396 199.588 607.092 198.1 607.092 195.524C607.092 192.916 605.396 191.428 603.492 191.428C601.588 191.428 599.892 192.916 599.892 195.524ZM601.252 195.524C601.252 193.732 602.164 192.516 603.492 192.516C604.836 192.516 605.732 193.732 605.732 195.524C605.732 197.3 604.836 198.5 603.492 198.5C602.164 198.5 601.252 197.3 601.252 195.524ZM608.778 196.548C608.778 198.532 609.514 199.588 611.162 199.588C612.234 199.588 613.002 199.028 613.722 198.18H613.77L613.882 199.396H614.97V191.62H613.658V197.14C612.922 198.052 612.362 198.452 611.562 198.452C610.538 198.452 610.106 197.828 610.106 196.372V191.62H608.778V196.548ZM617.343 199.396H618.655V194.404C619.183 193.092 619.967 192.612 620.623 192.612C620.943 192.612 621.119 192.66 621.375 192.74L621.631 191.588C621.375 191.476 621.135 191.428 620.799 191.428C619.919 191.428 619.119 192.052 618.591 193.028H618.543L618.431 191.62H617.343V199.396Z" fill="#2B2B2B"/>
<path d="M552.971 222.396H555.617V218.418H557.255C559.739 218.418 561.845 217.194 561.845 214.44C561.845 211.596 559.793 210.66 557.255 210.66H552.971V222.396ZM555.617 216.312V212.766H557.093C558.497 212.766 559.253 213.216 559.253 214.44C559.253 215.664 558.551 216.312 557.093 216.312H555.617ZM563.331 219.012C563.331 221.244 564.159 222.612 566.103 222.612C567.327 222.612 568.155 222.054 568.911 221.154H568.965L569.163 222.396H571.323V213.468H568.677V219.372C568.155 220.074 567.759 220.362 567.093 220.362C566.319 220.362 565.977 219.948 565.977 218.67V213.468H563.331V219.012ZM573.401 222.396H576.047V217.212C576.515 216.006 577.343 215.574 578.009 215.574C578.387 215.574 578.657 215.628 578.981 215.718L579.413 213.432C579.161 213.324 578.855 213.252 578.351 213.252C577.433 213.252 576.461 213.828 575.813 215.034H575.741L575.561 213.468H573.401V222.396ZM582.879 221.676C583.509 222.27 584.229 222.612 585.003 222.612C586.929 222.612 588.765 220.848 588.765 217.788C588.765 215.034 587.433 213.252 585.273 213.252C584.337 213.252 583.437 213.72 582.735 214.35H582.663L582.483 213.468H580.323V225.708H582.969V223.098L582.879 221.676ZM582.969 219.876V216.222C583.491 215.664 583.959 215.412 584.499 215.412C585.561 215.412 586.047 216.222 586.047 217.824C586.047 219.66 585.309 220.452 584.391 220.452C583.941 220.452 583.437 220.308 582.969 219.876ZM589.87 217.932C589.87 220.902 591.958 222.612 594.226 222.612C596.476 222.612 598.564 220.902 598.564 217.932C598.564 214.962 596.476 213.252 594.226 213.252C591.958 213.252 589.87 214.962 589.87 217.932ZM592.588 217.932C592.588 216.384 593.128 215.394 594.226 215.394C595.306 215.394 595.864 216.384 595.864 217.932C595.864 219.48 595.306 220.47 594.226 220.47C593.128 220.47 592.588 219.48 592.588 217.932ZM599.246 221.37C600.146 222.108 601.496 222.612 602.666 222.612C605.06 222.612 606.338 221.352 606.338 219.732C606.338 218.094 605.06 217.464 603.926 217.05C603.008 216.708 602.18 216.492 602.18 215.916C602.18 215.466 602.504 215.214 603.188 215.214C603.818 215.214 604.43 215.502 605.078 215.97L606.266 214.386C605.492 213.81 604.484 213.252 603.116 213.252C601.046 213.252 599.696 214.386 599.696 216.042C599.696 217.518 600.974 218.256 602.054 218.67C602.972 219.03 603.872 219.3 603.872 219.894C603.872 220.362 603.53 220.65 602.738 220.65C601.982 220.65 601.244 220.326 600.434 219.714L599.246 221.37ZM607.247 217.932C607.247 220.884 609.209 222.612 611.765 222.612C612.827 222.612 614.015 222.234 614.933 221.604L614.051 220.002C613.403 220.398 612.791 220.596 612.125 220.596C610.937 220.596 610.037 220.002 609.803 218.652H615.149C615.203 218.436 615.257 218.004 615.257 217.536C615.257 215.106 613.997 213.252 611.459 213.252C609.317 213.252 607.247 215.034 607.247 217.932ZM609.785 217.014C609.965 215.826 610.685 215.268 611.513 215.268C612.575 215.268 613.007 215.988 613.007 217.014H609.785Z" fill="#009CDE"/>
</g>
</svg>
