<svg width="1920" height="1080" viewBox="0 0 1920 1080" fill="none" xmlns="http://www.w3.org/2000/svg">
<rect width="1920" height="1080" fill="white"/>
<path d="M729.779 297.31H724.439V293.31H739.549V297.31H734.199V314.18H729.779V297.31Z" fill="#2B2B2B"/>
<path d="M746.531 297.95C750.261 297.95 753.731 300.95 753.731 306.27C753.731 311.59 750.261 314.59 746.531 314.59C742.801 314.59 739.301 311.59 739.301 306.27C739.301 300.95 742.771 297.95 746.531 297.95ZM746.531 310.78C748.321 310.78 749.251 309.02 749.251 306.27C749.251 303.52 748.321 301.76 746.531 301.76C744.741 301.76 743.811 303.52 743.811 306.27C743.811 309.02 744.711 310.78 746.531 310.78Z" fill="#2B2B2B"/>
<path d="M763.609 293.35H769.109C775.049 293.35 778.869 296.51 778.869 303.68C778.869 310.85 775.049 314.18 769.349 314.18H763.609V293.35ZM768.839 310.35C772.159 310.35 774.359 308.62 774.359 303.63C774.359 298.64 772.159 297.18 768.839 297.18H767.999V310.4L768.839 310.35Z" fill="#2B2B2B"/>
<path d="M788.64 297.95C792.37 297.95 795.83 300.95 795.83 306.27C795.83 311.59 792.37 314.59 788.64 314.59C784.91 314.59 781.41 311.59 781.41 306.27C781.41 300.95 784.87 297.95 788.64 297.95ZM788.64 310.78C790.43 310.78 791.35 309.02 791.35 306.27C791.35 303.52 790.43 301.76 788.64 301.76C786.85 301.76 785.92 303.52 785.92 306.27C785.92 309.02 786.81 310.78 788.64 310.78Z" fill="#2B2B2B"/>
<path d="M505.311 293.35H512.001C516.001 293.35 519.171 294.53 519.171 298.53C519.208 299.537 518.908 300.529 518.317 301.346C517.726 302.163 516.879 302.759 515.911 303.04V303.18C518.691 303.72 520.121 305.29 520.121 308.07C520.121 312.33 516.781 314.22 512.571 314.22H505.311V293.35ZM511.761 301.76C513.911 301.76 514.841 300.76 514.841 299.2C514.841 297.64 513.841 296.99 511.791 296.99H509.701V301.76H511.761ZM512.181 310.56C514.571 310.56 515.791 309.56 515.791 307.71C515.791 305.86 514.601 305.09 512.181 305.09H509.701V310.56H512.181Z" fill="#2B2B2B"/>
<path d="M530.81 304C530.837 303.689 530.795 303.376 530.686 303.082C530.578 302.789 530.407 302.524 530.184 302.304C529.962 302.085 529.694 301.917 529.4 301.812C529.105 301.708 528.791 301.67 528.48 301.7C527.054 301.812 525.688 302.325 524.54 303.18L523 300.03C524.865 298.739 527.064 298.016 529.33 297.95C533.12 297.95 535.21 300.26 535.21 305.12V314.18H531.61L531.29 312.55H531.2C530.072 313.755 528.519 314.473 526.87 314.55C524.18 314.55 522.48 312.44 522.48 309.75C522.48 306.46 525 304.64 530.81 304ZM528.36 310.94C528.843 310.914 529.314 310.781 529.738 310.549C530.162 310.317 530.528 309.993 530.81 309.6V306.82C527.67 307.26 526.66 308.22 526.66 309.44C526.66 310.46 527.32 310.94 528.36 310.94Z" fill="#2B2B2B"/>
<path d="M545.73 297.95C546.539 297.935 547.343 298.09 548.089 298.405C548.835 298.72 549.506 299.189 550.06 299.78L548.06 302.69C547.516 302.13 546.779 301.798 546 301.76C543.88 301.76 542.53 303.52 542.53 306.27C542.53 309.02 543.94 310.78 545.85 310.78C546.843 310.732 547.785 310.323 548.5 309.63L550.27 312.63C548.929 313.883 547.173 314.595 545.34 314.63C541.22 314.63 538.02 311.63 538.02 306.31C538.02 300.99 541.64 297.95 545.73 297.95Z" fill="#2B2B2B"/>
<path d="M552.609 291.78H556.879V304.64H556.999L561.689 298.34H566.469L561.269 304.86L566.859 314.18H562.109L558.759 308L556.879 310.27V314.18H552.609V291.78Z" fill="#2B2B2B"/>
<path d="M568.789 291.78H573.179V309.47C573.179 310.47 573.599 310.78 573.949 310.78C574.131 310.787 574.313 310.767 574.489 310.72L574.999 314.18C574.296 314.458 573.544 314.587 572.789 314.56C569.789 314.56 568.789 312.45 568.789 309.25V291.78Z" fill="#2B2B2B"/>
<path d="M583.63 297.95C587.36 297.95 590.82 300.95 590.82 306.27C590.82 311.59 587.36 314.59 583.63 314.59C579.9 314.59 576.4 311.59 576.4 306.27C576.4 300.95 579.86 297.95 583.63 297.95ZM583.63 310.78C585.42 310.78 586.34 309.02 586.34 306.27C586.34 303.52 585.42 301.76 583.63 301.76C581.84 301.76 580.91 303.52 580.91 306.27C580.91 309.02 581.81 310.78 583.63 310.78Z" fill="#2B2B2B"/>
<path d="M594.831 313.73V313.6C594.393 313.305 594.037 312.903 593.798 312.432C593.558 311.962 593.442 311.438 593.461 310.91C593.491 310.315 593.658 309.736 593.947 309.216C594.237 308.696 594.642 308.249 595.131 307.91V307.78C594.504 307.29 593.998 306.663 593.652 305.947C593.305 305.231 593.127 304.445 593.131 303.65C593.131 299.84 596.061 297.92 599.251 297.92C600.035 297.906 600.815 298.039 601.551 298.31H607.001V301.73H604.601C604.927 302.374 605.091 303.088 605.081 303.81C605.081 307.46 602.511 309.15 599.251 309.15C598.641 309.145 598.035 309.036 597.461 308.83C597.28 308.969 597.137 309.15 597.042 309.357C596.948 309.565 596.907 309.792 596.921 310.02C596.921 310.82 597.521 311.2 599.161 311.2H601.551C605.201 311.2 607.201 312.39 607.201 315.2C607.201 318.5 604.001 320.9 598.921 320.9C595.461 320.9 592.711 319.68 592.711 316.9C592.747 316.23 592.964 315.582 593.337 315.024C593.71 314.467 594.226 314.02 594.831 313.73ZM599.611 318.02C601.611 318.02 603.021 317.15 603.021 316.02C603.021 314.89 602.211 314.78 600.751 314.78H599.221C598.518 314.806 597.816 314.739 597.131 314.58C596.895 314.771 596.702 315.01 596.564 315.28C596.427 315.55 596.347 315.847 596.331 316.15C596.331 317.38 597.641 318.02 599.611 318.02ZM601.281 303.68C601.281 302.02 600.421 301.12 599.281 301.12C598.141 301.12 597.281 301.98 597.281 303.68C597.281 305.38 598.151 306.34 599.281 306.34C600.411 306.34 601.281 305.44 601.281 303.68Z" fill="#2B2B2B"/>
<path d="M888.67 293.35H893.06V314.18H888.67V293.35Z" fill="#2B2B2B"/>
<path d="M897.221 298.34H900.801L901.101 300.34H901.221C901.805 299.635 902.528 299.058 903.345 298.645C904.163 298.232 905.056 297.992 905.971 297.94C909.191 297.94 910.571 300.37 910.571 304.34V314.18H906.181V304.96C906.181 302.66 905.611 301.96 904.361 301.96C903.111 301.96 902.561 302.51 901.611 303.5V314.18H897.221V298.34Z" fill="#2B2B2B"/>
<path d="M914.08 304.45H921.42V307.78H914.08V304.45Z" fill="#2B2B2B"/>
<path d="M925.449 293.35H932.549C936.769 293.35 940.169 295.01 940.169 300.06C940.169 305.11 936.679 307.18 932.549 307.18H929.839V314.18H925.449V293.35ZM932.289 303.35C934.699 303.35 935.869 302.2 935.869 300.02C935.869 297.84 934.619 297.02 932.289 297.02H929.839V303.32L932.289 303.35Z" fill="#2B2B2B"/>
<path d="M942.891 298.34H946.471L946.771 301.12H946.891C947.971 298.98 949.581 297.95 951.101 297.95C951.704 297.923 952.306 298.032 952.861 298.27L952.151 302.34C951.628 302.169 951.081 302.082 950.531 302.08C949.431 302.08 948.061 302.85 947.281 304.99V314.18H942.891V298.34Z" fill="#2B2B2B"/>
<path d="M960.999 297.95C964.739 297.95 968.199 300.95 968.199 306.27C968.199 311.59 964.739 314.59 960.999 314.59C957.259 314.59 953.779 311.59 953.779 306.27C953.779 300.95 957.259 297.95 960.999 297.95ZM960.999 310.78C962.799 310.78 963.719 309.02 963.719 306.27C963.719 303.52 962.799 301.76 960.999 301.76C959.199 301.76 958.289 303.52 958.289 306.27C958.289 309.02 959.199 310.78 960.999 310.78Z" fill="#2B2B2B"/>
<path d="M972.23 313.73V313.6C971.791 313.306 971.434 312.904 971.194 312.433C970.954 311.962 970.839 311.438 970.86 310.91C970.888 310.315 971.054 309.734 971.343 309.214C971.633 308.693 972.039 308.247 972.53 307.91V307.78C971.902 307.291 971.395 306.665 971.048 305.948C970.701 305.232 970.524 304.446 970.53 303.65C970.53 299.84 973.45 297.92 976.65 297.92C977.434 297.907 978.214 298.039 978.95 298.31H984.35V301.73H982C982.326 302.374 982.49 303.088 982.48 303.81C982.48 307.46 979.91 309.15 976.66 309.15C976.05 309.146 975.444 309.038 974.87 308.83C974.689 308.969 974.546 309.15 974.452 309.357C974.357 309.565 974.316 309.792 974.33 310.02C974.33 310.82 974.93 311.2 976.57 311.2H979C982.64 311.2 984.64 312.39 984.64 315.2C984.64 318.5 981.45 320.9 976.37 320.9C972.91 320.9 970.16 319.68 970.16 316.9C970.192 316.235 970.401 315.591 970.764 315.033C971.128 314.476 971.634 314.026 972.23 313.73ZM977 318.02C979 318.02 980.4 317.15 980.4 316.02C980.4 314.89 979.6 314.78 978.13 314.78H976.61C975.908 314.807 975.205 314.739 974.52 314.58C974.282 314.769 974.086 315.007 973.946 315.278C973.807 315.548 973.726 315.846 973.71 316.15C973.72 317.38 975 318.02 977 318.02ZM978.67 303.68C978.67 302.02 977.8 301.12 976.67 301.12C975.54 301.12 974.67 301.98 974.67 303.68C974.67 305.38 975.53 306.34 976.67 306.34C977.81 306.34 978.68 305.44 978.68 303.68H978.67Z" fill="#2B2B2B"/>
<path d="M986.85 298.34H990.44L990.73 301.12H990.85C991.93 298.98 993.54 297.95 995.06 297.95C995.666 297.924 996.271 298.033 996.83 298.27L996.11 302.34C995.59 302.17 995.047 302.082 994.5 302.08C993.39 302.08 992.02 302.85 991.24 304.99V314.18H986.85V298.34Z" fill="#2B2B2B"/>
<path d="M1004.75 297.95C1008.96 297.95 1011.05 301.25 1011.05 305.57C1011.06 306.241 1011 306.911 1010.87 307.57H1002C1002.05 308.539 1002.49 309.446 1003.21 310.095C1003.93 310.743 1004.88 311.079 1005.85 311.03C1007 311.01 1008.12 310.64 1009.05 309.97L1010.51 312.82C1008.98 313.941 1007.15 314.566 1005.26 314.61C1001.01 314.61 997.76 311.54 997.76 306.29C997.76 301.04 1001.19 297.95 1004.75 297.95ZM1007.32 304.64C1007.32 302.82 1006.6 301.54 1004.84 301.54C1003.46 301.54 1002.27 302.54 1001.97 304.64H1007.32Z" fill="#2B2B2B"/>
<path d="M1014.68 309.44C1015.72 310.422 1017.08 311.009 1018.51 311.1C1019.82 311.1 1020.39 310.59 1020.39 309.76C1020.39 308.7 1018.9 308.22 1017.39 307.58C1015.6 306.85 1013.48 305.58 1013.48 302.91C1013.48 299.97 1015.72 297.91 1019.15 297.91C1021.07 297.943 1022.92 298.651 1024.38 299.91L1022.38 302.72C1021.51 301.938 1020.41 301.467 1019.24 301.38C1018.11 301.38 1017.57 301.83 1017.57 302.63C1017.57 303.63 1018.94 304.04 1020.47 304.63C1022.35 305.37 1024.47 306.49 1024.47 309.4C1024.47 312.31 1022.35 314.52 1018.38 314.52C1016.29 314.453 1014.29 313.673 1012.7 312.31L1014.68 309.44Z" fill="#2B2B2B"/>
<path d="M1028 309.44C1029.04 310.422 1030.39 311.01 1031.82 311.1C1033.14 311.1 1033.7 310.59 1033.7 309.76C1033.7 308.7 1032.21 308.22 1030.7 307.58C1028.9 306.85 1026.78 305.58 1026.78 302.91C1026.78 299.97 1029.02 297.91 1032.46 297.91C1034.38 297.943 1036.23 298.651 1037.68 299.91L1035.68 302.72C1034.81 301.939 1033.71 301.467 1032.55 301.38C1031.41 301.38 1030.88 301.83 1030.88 302.63C1030.88 303.63 1032.25 304.04 1033.77 304.63C1035.65 305.37 1037.77 306.49 1037.77 309.4C1037.77 312.31 1035.65 314.52 1031.68 314.52C1029.6 314.476 1027.59 313.721 1026 312.38L1028 309.44Z" fill="#2B2B2B"/>
<path d="M1101 293.35H1105.39V314.18H1101V293.35Z" fill="#2B2B2B"/>
<path d="M1109.51 298.34H1113.09L1113.39 300.34H1113.51C1114.09 299.636 1114.82 299.059 1115.64 298.646C1116.45 298.233 1117.35 297.993 1118.26 297.94C1121.49 297.94 1122.86 300.37 1122.86 304.34V314.18H1118.47V304.96C1118.47 302.66 1117.9 301.96 1116.65 301.96C1115.4 301.96 1114.86 302.51 1113.9 303.5V314.18H1109.51V298.34Z" fill="#2B2B2B"/>
<path d="M1126.37 304.45H1133.71V307.78H1126.37V304.45Z" fill="#2B2B2B"/>
<path d="M1148.28 314.18L1144.55 306.66H1142.13V314.18H1137.74V293.35H1144.74C1148.86 293.35 1152.23 294.88 1152.23 299.84C1152.23 302.91 1150.86 304.84 1148.77 305.84L1153.21 314.18H1148.28ZM1142.13 302.91H1144.4C1146.7 302.91 1147.95 301.86 1147.95 299.81C1147.95 297.76 1146.7 297.06 1144.4 297.06H1142.13V302.91Z" fill="#2B2B2B"/>
<path d="M1161.69 297.95C1165.9 297.95 1167.99 301.25 1167.99 305.57C1168 306.241 1167.94 306.911 1167.81 307.57H1158.94C1158.99 308.539 1159.43 309.446 1160.15 310.095C1160.87 310.743 1161.82 311.079 1162.79 311.03C1163.94 311.01 1165.05 310.64 1165.99 309.97L1167.45 312.82C1165.92 313.941 1164.09 314.566 1162.2 314.61C1157.96 314.61 1154.7 311.54 1154.7 306.29C1154.7 301.04 1158.13 297.95 1161.69 297.95ZM1164.26 304.64C1164.26 302.82 1163.54 301.54 1161.78 301.54C1160.4 301.54 1159.21 302.54 1158.91 304.64H1164.26Z" fill="#2B2B2B"/>
<path d="M1169 298.34H1173.42L1175.33 305.82C1175.72 307.39 1176.11 309.06 1176.49 310.72H1176.61C1176.97 309.06 1177.36 307.39 1177.75 305.82L1179.69 298.34H1183.9L1179.1 314.18H1174L1169 298.34Z" fill="#2B2B2B"/>
<path d="M1185.8 293.54C1185.8 292.866 1186.07 292.22 1186.54 291.744C1187.02 291.268 1187.67 291 1188.34 291C1189.01 291 1189.66 291.268 1190.14 291.744C1190.61 292.22 1190.88 292.866 1190.88 293.54C1190.88 294.214 1190.61 294.86 1190.14 295.336C1189.66 295.812 1189.01 296.08 1188.34 296.08C1187.67 296.08 1187.02 295.812 1186.54 295.336C1186.07 294.86 1185.8 294.214 1185.8 293.54ZM1186.16 298.34H1190.55V314.18H1186.16V298.34Z" fill="#2B2B2B"/>
<path d="M1200.42 297.95C1204.63 297.95 1206.72 301.25 1206.72 305.57C1206.73 306.241 1206.67 306.911 1206.54 307.57H1197.67C1197.73 308.54 1198.16 309.447 1198.89 310.095C1199.61 310.743 1200.56 311.079 1201.53 311.03C1202.68 311.01 1203.79 310.64 1204.72 309.97L1206.18 312.82C1204.65 313.941 1202.82 314.566 1200.93 314.61C1196.69 314.61 1193.43 311.54 1193.43 306.29C1193.43 301.04 1196.87 297.95 1200.42 297.95ZM1203 304.64C1203 302.82 1202.28 301.54 1200.52 301.54C1199.15 301.54 1197.95 302.54 1197.65 304.64H1203Z" fill="#2B2B2B"/>
<path d="M1208.23 298.34H1212.59L1214 305.7C1214.24 307.26 1214.42 308.8 1214.66 310.4H1214.78C1215.05 308.8 1215.28 307.2 1215.64 305.7L1217.28 298.34H1221.08L1222.75 305.7C1223.11 307.26 1223.38 308.8 1223.68 310.4H1223.79C1224.06 308.8 1224.21 307.26 1224.48 305.7L1225.88 298.34H1230L1226.41 314.18H1221.28L1219.93 307.84C1219.63 306.37 1219.39 304.9 1219.13 303.2H1219C1218.73 304.9 1218.52 306.37 1218.25 307.84L1217 314.18H1212L1208.23 298.34Z" fill="#2B2B2B"/>
<path d="M1333.9 293.35H1339.39C1345.39 293.35 1349.16 296.51 1349.16 303.68C1349.16 310.85 1345.34 314.18 1339.63 314.18H1333.9V293.35ZM1339.12 310.35C1342.44 310.35 1344.65 308.62 1344.65 303.63C1344.65 298.64 1342.44 297.18 1339.12 297.18H1338.29V310.4L1339.12 310.35Z" fill="#2B2B2B"/>
<path d="M1358.92 297.95C1362.65 297.95 1366.12 300.95 1366.12 306.27C1366.12 311.59 1362.65 314.59 1358.92 314.59C1355.19 314.59 1351.69 311.59 1351.69 306.27C1351.69 300.95 1355.16 297.95 1358.92 297.95ZM1358.92 310.78C1360.71 310.78 1361.64 309.02 1361.64 306.27C1361.64 303.52 1360.71 301.76 1358.92 301.76C1357.13 301.76 1356.2 303.52 1356.2 306.27C1356.2 309.02 1357.1 310.78 1358.92 310.78Z" fill="#2B2B2B"/>
<path d="M1369.1 298.34H1372.69L1372.98 300.34H1373.1C1373.68 299.636 1374.41 299.059 1375.22 298.646C1376.04 298.233 1376.94 297.993 1377.85 297.94C1381.08 297.94 1382.45 300.37 1382.45 304.34V314.18H1378.06V304.96C1378.06 302.66 1377.49 301.96 1376.24 301.96C1374.99 301.96 1374.45 302.51 1373.49 303.5V314.18H1369.1V298.34Z" fill="#2B2B2B"/>
<path d="M1392.3 297.95C1396.51 297.95 1398.6 301.25 1398.6 305.57C1398.61 306.241 1398.55 306.911 1398.42 307.57H1389.55C1389.61 308.54 1390.04 309.447 1390.77 310.095C1391.49 310.743 1392.44 311.079 1393.41 311.03C1394.56 311.01 1395.67 310.64 1396.6 309.97L1398.06 312.82C1396.54 313.941 1394.7 314.566 1392.81 314.61C1388.57 314.61 1385.31 311.54 1385.31 306.29C1385.31 301.04 1388.75 297.95 1392.3 297.95ZM1394.87 304.64C1394.87 302.82 1394.15 301.54 1392.39 301.54C1391.02 301.54 1389.82 302.54 1389.52 304.64H1394.87Z" fill="#2B2B2B"/>
<path d="M862.1 788.79V291.78" stroke="#2B2B2B" stroke-width="12" stroke-linecap="round" stroke-linejoin="round"/>
<path d="M1062.87 788.79V291.78" stroke="#2B2B2B" stroke-width="12" stroke-linecap="round" stroke-linejoin="round"/>
<path d="M658.949 788.79V291.78" stroke="#2B2B2B" stroke-width="12" stroke-linecap="round" stroke-linejoin="round"/>
<path d="M1264.44 788.2V291.18" stroke="#2B2B2B" stroke-width="12" stroke-linecap="round" stroke-linejoin="round"/>
<path d="M744.99 393.75H694V444.74H744.99V393.75Z" fill="white"/>
<path d="M744.99 393.75H694V444.74H744.99V393.75Z" stroke="#6A6A6A" stroke-width="6" stroke-miterlimit="10"/>
<path d="M824.66 393.75H773.67V444.74H824.66V393.75Z" fill="white"/>
<path d="M824.66 393.75H773.67V444.74H824.66V393.75Z" stroke="#6A6A6A" stroke-width="6" stroke-miterlimit="10"/>
<path d="M948.15 393.75H897.16V444.74H948.15V393.75Z" fill="white"/>
<path d="M948.15 393.75H897.16V444.74H948.15V393.75Z" stroke="#6A6A6A" stroke-width="6" stroke-miterlimit="10"/>
<path d="M1027.82 393.75H976.83V444.74H1027.82V393.75Z" fill="white"/>
<path d="M1027.82 393.75H976.83V444.74H1027.82V393.75Z" stroke="#6A6A6A" stroke-width="6" stroke-miterlimit="10"/>
<path d="M1149.71 393.75H1098.72V444.74H1149.71V393.75Z" fill="white"/>
<path d="M1149.71 393.75H1098.72V444.74H1149.71V393.75Z" stroke="#6A6A6A" stroke-width="6" stroke-miterlimit="10"/>
<path d="M1229.38 393.75H1178.39V444.74H1229.38V393.75Z" fill="white"/>
<path d="M1229.38 393.75H1178.39V444.74H1229.38V393.75Z" stroke="#6A6A6A" stroke-width="6" stroke-miterlimit="10"/>
<path d="M1149.71 470.99H1098.72V521.98H1149.71V470.99Z" fill="white"/>
<path d="M1149.71 470.99H1098.72V521.98H1149.71V470.99Z" stroke="#6A6A6A" stroke-width="6" stroke-miterlimit="10"/>
<path d="M1149.71 548.22H1098.72V599.21H1149.71V548.22Z" fill="white"/>
<path d="M1149.71 548.22H1098.72V599.21H1149.71V548.22Z" stroke="#6A6A6A" stroke-width="6" stroke-miterlimit="10"/>
<path d="M1229.38 470.99H1178.39V521.98H1229.38V470.99Z" fill="white"/>
<path d="M1229.38 470.99H1178.39V521.98H1229.38V470.99Z" stroke="#6A6A6A" stroke-width="6" stroke-miterlimit="10"/>
<path d="M1350.9 393.75H1299.91V444.74H1350.9V393.75Z" fill="white"/>
<path d="M1350.9 393.75H1299.91V444.74H1350.9V393.75Z" stroke="#6A6A6A" stroke-width="6" stroke-miterlimit="10"/>
<path d="M1430.57 393.75H1379.58V444.74H1430.57V393.75Z" fill="white"/>
<path d="M1430.57 393.75H1379.58V444.74H1430.57V393.75Z" stroke="#6A6A6A" stroke-width="6" stroke-miterlimit="10"/>
<path d="M1350.9 470.99H1299.91V521.98H1350.9V470.99Z" fill="white"/>
<path d="M1350.9 470.99H1299.91V521.98H1350.9V470.99Z" stroke="#6A6A6A" stroke-width="6" stroke-miterlimit="10"/>
<path d="M1350.9 548.22H1299.91V599.21H1350.9V548.22Z" fill="white"/>
<path d="M1350.9 548.22H1299.91V599.21H1350.9V548.22Z" stroke="#6A6A6A" stroke-width="6" stroke-miterlimit="10"/>
<path d="M1430.57 470.99H1379.58V521.98H1430.57V470.99Z" fill="white"/>
<path d="M1430.57 470.99H1379.58V521.98H1430.57V470.99Z" stroke="#6A6A6A" stroke-width="6" stroke-miterlimit="10"/>
<path d="M1430.57 548.22H1379.58V599.21H1430.57V548.22Z" fill="white"/>
<path d="M1430.57 548.22H1379.58V599.21H1430.57V548.22Z" stroke="#6A6A6A" stroke-width="6" stroke-miterlimit="10"/>
<path d="M744.99 470.99H694V521.98H744.99V470.99Z" fill="white"/>
<path d="M744.99 470.99H694V521.98H744.99V470.99Z" stroke="#6A6A6A" stroke-width="6" stroke-miterlimit="10"/>
<g style="mix-blend-mode:multiply" opacity="0.2">
<g style="mix-blend-mode:multiply" opacity="0.2">
<path d="M830.108 472.789L823.223 523.312L873.746 530.197L880.631 479.674L830.108 472.789Z" fill="black"/>
</g>
<g style="mix-blend-mode:multiply" opacity="0.2">
<path d="M830.108 472.789L823.223 523.312L873.746 530.197L880.631 479.674L830.108 472.789Z" stroke="black" stroke-width="6" stroke-miterlimit="10"/>
</g>
</g>
<path d="M825.108 467.788L818.223 518.312L868.746 525.196L875.631 474.673L825.108 467.788Z" fill="white"/>
<path d="M825.108 467.788L818.223 518.312L868.746 525.196L875.631 474.673L825.108 467.788Z" stroke="#6A6A6A" stroke-width="6" stroke-miterlimit="10"/>
<path d="M744.99 548.22H694V599.21H744.99V548.22Z" fill="white"/>
<path d="M744.99 548.22H694V599.21H744.99V548.22Z" stroke="#6A6A6A" stroke-width="6" stroke-miterlimit="10"/>
<path d="M824.66 548.22H773.67V599.21H824.66V548.22Z" fill="white"/>
<path d="M824.66 548.22H773.67V599.21H824.66V548.22Z" stroke="#6A6A6A" stroke-width="6" stroke-miterlimit="10"/>
<path d="M540.99 393.75H490V444.74H540.99V393.75Z" fill="white"/>
<path d="M540.99 393.75H490V444.74H540.99V393.75Z" stroke="#6A6A6A" stroke-width="6" stroke-miterlimit="10"/>
<path d="M620.66 393.75H569.67V444.74H620.66V393.75Z" fill="white"/>
<path d="M620.66 393.75H569.67V444.74H620.66V393.75Z" stroke="#6A6A6A" stroke-width="6" stroke-miterlimit="10"/>
<path d="M540.99 470.99H490V521.98H540.99V470.99Z" fill="white"/>
<path d="M540.99 470.99H490V521.98H540.99V470.99Z" stroke="#6A6A6A" stroke-width="6" stroke-miterlimit="10"/>
<path d="M620.66 470.99H569.67V521.98H620.66V470.99Z" fill="white"/>
<path d="M620.66 470.99H569.67V521.98H620.66V470.99Z" stroke="#6A6A6A" stroke-width="6" stroke-miterlimit="10"/>
<path d="M824.66 335.79H694V335.95H824.66V335.79Z" fill="#6A6A6A" stroke="#6A6A6A" stroke-width="6" stroke-linecap="round" stroke-linejoin="round"/>
<path d="M1027.82 335.79H897.16V335.95H1027.82V335.79Z" fill="#6A6A6A" stroke="#6A6A6A" stroke-width="6" stroke-linecap="round" stroke-linejoin="round"/>
<path d="M1229.38 335.79H1098.72V335.95H1229.38V335.79Z" fill="#6A6A6A" stroke="#6A6A6A" stroke-width="6" stroke-linecap="round" stroke-linejoin="round"/>
<path d="M1430.98 335.79H1300.32V335.95H1430.98V335.79Z" fill="#6A6A6A" stroke="#6A6A6A" stroke-width="6" stroke-linecap="round" stroke-linejoin="round"/>
<path d="M620.66 335.79H490V335.95H620.66V335.79Z" fill="#6A6A6A" stroke="#6A6A6A" stroke-width="6" stroke-linecap="round" stroke-linejoin="round"/>
</svg>
