<svg width="1920" height="1080" viewBox="0 0 1920 1080" fill="none" xmlns="http://www.w3.org/2000/svg">
<rect width="1920" height="1080" fill="white"/>
<path d="M170.272 582.04L171.04 579.16C171.904 576.04 172.72 572.392 173.488 569.08H173.68C174.496 572.344 175.36 576.04 176.224 579.16L176.944 582.04H170.272ZM180.304 595H187.792L178 563.704H169.504L159.712 595H166.912L168.832 587.56H178.384L180.304 595ZM199.208 579.544C199.208 590.056 205.928 595.576 214.376 595.576C218.744 595.576 222.632 593.896 224.84 591.784V577.384H213.416V583.144H218.6V588.52C217.832 589.144 216.536 589.48 215.24 589.48C209.384 589.48 206.456 585.736 206.456 579.304C206.456 573.016 209.864 569.224 214.712 569.224C217.4 569.224 218.888 570.136 220.424 571.576L224.312 567.208C222.248 565.096 218.984 563.128 214.616 563.128C206.12 563.128 199.208 569.176 199.208 579.544ZM230.479 595H237.535V581.176C238.783 577.96 240.991 576.808 242.767 576.808C243.775 576.808 244.495 576.952 245.359 577.192L246.511 571.096C245.839 570.808 245.023 570.616 243.679 570.616C241.231 570.616 238.639 572.152 236.911 575.368H236.719L236.239 571.192H230.479V595ZM247.494 583.096C247.494 590.968 252.726 595.576 259.542 595.576C262.374 595.576 265.542 594.568 267.99 592.888L265.638 588.616C263.91 589.672 262.278 590.2 260.502 590.2C257.334 590.2 254.934 588.616 254.31 585.016H268.566C268.71 584.44 268.854 583.288 268.854 582.04C268.854 575.56 265.494 570.616 258.726 570.616C253.014 570.616 247.494 575.368 247.494 583.096ZM254.262 580.648C254.742 577.48 256.662 575.992 258.87 575.992C261.702 575.992 262.854 577.912 262.854 580.648H254.262ZM272.1 588.376C272.1 592.408 274.836 595.576 279.156 595.576C281.844 595.576 284.1 594.328 286.116 592.552H286.26L286.788 595H292.548V581.368C292.548 574.072 289.188 570.616 283.092 570.616C279.348 570.616 275.94 571.912 272.916 573.736L275.412 578.392C277.716 577.048 279.732 576.232 281.748 576.232C284.292 576.232 285.348 577.576 285.492 579.688C276.084 580.648 272.1 583.384 272.1 588.376ZM278.82 587.848C278.82 586.024 280.452 584.584 285.492 583.912V588.088C284.244 589.336 283.188 590.104 281.556 590.104C279.876 590.104 278.82 589.384 278.82 587.848ZM299.314 586.36C299.314 591.88 301.618 595.576 307.522 595.576C309.826 595.576 311.554 595.096 312.802 594.712L311.698 589.576C311.074 589.816 310.21 590.056 309.442 590.056C307.57 590.056 306.37 588.952 306.37 586.264V576.712H312.082V571.192H306.37V564.856H300.514L299.698 571.192L296.05 571.48V576.712H299.314V586.36ZM326.79 595H333.846V584.392H338.214C344.838 584.392 350.454 581.128 350.454 573.784C350.454 566.2 344.982 563.704 338.214 563.704H326.79V595ZM333.846 578.776V569.32H337.782C341.526 569.32 343.542 570.52 343.542 573.784C343.542 577.048 341.67 578.776 337.782 578.776H333.846ZM355.073 587.608C355.073 592.408 356.705 595.576 361.553 595.576C363.137 595.576 364.337 595.336 365.105 595L364.241 589.768C363.857 589.864 363.665 589.864 363.377 589.864C362.801 589.864 362.129 589.384 362.129 587.896V561.352H355.073V587.608ZM367.694 588.376C367.694 592.408 370.43 595.576 374.75 595.576C377.438 595.576 379.694 594.328 381.71 592.552H381.854L382.382 595H388.142V581.368C388.142 574.072 384.782 570.616 378.686 570.616C374.942 570.616 371.534 571.912 368.51 573.736L371.006 578.392C373.31 577.048 375.326 576.232 377.342 576.232C379.886 576.232 380.942 577.576 381.086 579.688C371.678 580.648 367.694 583.384 367.694 588.376ZM374.414 587.848C374.414 586.024 376.046 584.584 381.086 583.912V588.088C379.838 589.336 378.782 590.104 377.15 590.104C375.47 590.104 374.414 589.384 374.414 587.848ZM392.556 583.096C392.556 591.016 397.692 595.576 404.316 595.576C406.908 595.576 409.932 594.616 412.236 592.6L409.404 588.136C408.252 589.048 406.86 589.864 405.132 589.864C402.06 589.864 399.804 587.224 399.804 583.096C399.804 578.968 401.964 576.328 405.372 576.328C406.476 576.328 407.532 576.76 408.684 577.72L411.9 573.352C410.316 571.72 407.868 570.616 404.94 570.616C398.364 570.616 392.556 575.176 392.556 583.096ZM413.353 583.096C413.353 590.968 418.585 595.576 425.401 595.576C428.233 595.576 431.401 594.568 433.849 592.888L431.497 588.616C429.769 589.672 428.137 590.2 426.361 590.2C423.193 590.2 420.793 588.616 420.169 585.016H434.425C434.569 584.44 434.713 583.288 434.713 582.04C434.713 575.56 431.353 570.616 424.585 570.616C418.873 570.616 413.353 575.368 413.353 583.096ZM420.121 580.648C420.601 577.48 422.521 575.992 424.729 575.992C427.561 575.992 428.713 577.912 428.713 580.648H420.121ZM455.745 595H462.849V569.656H471.441V563.704H447.153V569.656H455.745V595ZM470.447 583.096C470.447 591.016 476.015 595.576 482.063 595.576C488.063 595.576 493.631 591.016 493.631 583.096C493.631 575.176 488.063 570.616 482.063 570.616C476.015 570.616 470.447 575.176 470.447 583.096ZM477.695 583.096C477.695 578.968 479.135 576.328 482.063 576.328C484.943 576.328 486.431 578.968 486.431 583.096C486.431 587.224 484.943 589.864 482.063 589.864C479.135 589.864 477.695 587.224 477.695 583.096ZM511.308 595H520.044L522.972 580.792C523.5 578.392 523.884 575.848 524.268 573.544H524.46C524.796 575.848 525.18 578.392 525.708 580.792L528.78 595H537.66L543.228 563.704H536.46L534.3 578.344C533.868 581.56 533.436 584.872 533.004 588.232H532.812C532.188 584.872 531.564 581.512 530.94 578.344L527.58 563.704H521.58L518.22 578.344C517.596 581.608 516.972 584.92 516.348 588.232H516.156C515.772 584.92 515.292 581.608 514.908 578.344L512.748 563.704H505.5L511.308 595ZM545.353 583.096C545.353 591.016 550.921 595.576 556.969 595.576C562.969 595.576 568.537 591.016 568.537 583.096C568.537 575.176 562.969 570.616 556.969 570.616C550.921 570.616 545.353 575.176 545.353 583.096ZM552.601 583.096C552.601 578.968 554.041 576.328 556.969 576.328C559.849 576.328 561.337 578.968 561.337 583.096C561.337 587.224 559.849 589.864 556.969 589.864C554.041 589.864 552.601 587.224 552.601 583.096ZM573.12 595H580.176V581.176C581.424 577.96 583.632 576.808 585.408 576.808C586.416 576.808 587.136 576.952 588 577.192L589.152 571.096C588.48 570.808 587.664 570.616 586.32 570.616C583.872 570.616 581.28 572.152 579.552 575.368H579.36L578.88 571.192H573.12V595ZM591.995 595H598.859V589.144L601.883 585.736L607.259 595H614.891L605.915 580.984L614.267 571.192H606.587L599.051 580.648H598.859V561.352H591.995V595ZM184.403 645.388L185.519 641.788C186.383 639.16 187.139 636.568 187.859 633.832H188.003C188.759 636.568 189.515 639.16 190.379 641.788L191.495 645.388H184.403ZM194.483 655H197.687L189.695 631.384H186.311L178.319 655H181.379L183.647 647.8H192.251L194.483 655ZM200.282 648.592C200.282 653.056 201.938 655.432 205.646 655.432C208.058 655.432 209.786 654.172 211.406 652.264H211.514L211.766 655H214.214V637.504H211.262V649.924C209.606 651.976 208.346 652.876 206.546 652.876C204.242 652.876 203.27 651.472 203.27 648.196V637.504H200.282V648.592ZM220.62 649.6C220.62 653.056 221.88 655.432 225.624 655.432C226.704 655.432 227.892 655.108 228.864 654.784L228.288 652.552C227.712 652.768 226.92 653.02 226.308 653.02C224.292 653.02 223.608 651.796 223.608 649.636V639.916H228.324V637.504H223.608V632.608H221.124L220.764 637.504L218.028 637.684V639.916H220.62V649.6ZM230.633 646.288C230.633 652.084 234.449 655.432 238.733 655.432C243.017 655.432 246.833 652.084 246.833 646.288C246.833 640.42 243.017 637.072 238.733 637.072C234.449 637.072 230.633 640.42 230.633 646.288ZM233.693 646.288C233.693 642.256 235.745 639.52 238.733 639.52C241.757 639.52 243.773 642.256 243.773 646.288C243.773 650.284 241.757 652.984 238.733 652.984C235.745 652.984 233.693 650.284 233.693 646.288ZM251.44 655H254.392V642.328C256.156 640.564 257.38 639.628 259.18 639.628C261.484 639.628 262.492 641.032 262.492 644.308V655H265.444V643.912C265.444 639.448 263.788 637.072 260.116 637.072C257.704 637.072 255.904 638.368 254.248 640.024H254.14L253.888 637.504H251.44V655ZM269.832 646.288C269.832 652.084 273.648 655.432 277.932 655.432C282.216 655.432 286.032 652.084 286.032 646.288C286.032 640.42 282.216 637.072 277.932 637.072C273.648 637.072 269.832 640.42 269.832 646.288ZM272.892 646.288C272.892 642.256 274.944 639.52 277.932 639.52C280.956 639.52 282.972 642.256 282.972 646.288C282.972 650.284 280.956 652.984 277.932 652.984C274.944 652.984 272.892 650.284 272.892 646.288ZM290.64 655H293.592V642.328C295.212 640.528 296.688 639.628 297.984 639.628C300.216 639.628 301.26 641.032 301.26 644.308V655H304.212V642.328C305.832 640.528 307.236 639.628 308.604 639.628C310.8 639.628 311.844 641.032 311.844 644.308V655H314.796V643.912C314.796 639.448 313.068 637.072 309.468 637.072C307.344 637.072 305.544 638.44 303.708 640.42C302.988 638.332 301.548 637.072 298.884 637.072C296.796 637.072 294.96 638.368 293.448 640.024H293.34L293.088 637.504H290.64V655ZM319.299 659.824L318.723 662.164C319.299 662.38 319.983 662.524 320.775 662.524C324.303 662.524 326.103 659.896 327.327 656.44L333.915 637.504H331.035L327.903 647.188C327.435 648.736 326.931 650.536 326.427 652.12H326.283C325.743 650.5 325.131 648.7 324.591 647.188L321.027 637.504H317.967L324.987 655.036L324.591 656.332C323.871 658.492 322.611 660.076 320.631 660.076C320.199 660.076 319.659 659.932 319.299 659.824ZM181.451 715H184.439V691.384H181.451V715ZM190.62 715H193.572V702.328C195.336 700.564 196.56 699.628 198.36 699.628C200.664 699.628 201.672 701.032 201.672 704.308V715H204.624V703.912C204.624 699.448 202.968 697.072 199.296 697.072C196.884 697.072 195.084 698.368 193.428 700.024H193.32L193.068 697.504H190.62V715ZM218.839 689.512C218.047 689.188 217.003 688.936 215.923 688.936C212.431 688.936 210.811 691.168 210.811 694.732V697.504L208.435 697.684V699.916H210.811V715H213.763V699.916H217.471V697.504H213.763V694.732C213.763 692.5 214.555 691.348 216.211 691.348C216.859 691.348 217.543 691.492 218.191 691.78L218.839 689.512ZM220.819 711.472C220.819 714.028 221.719 715.432 223.951 715.432C224.743 715.432 225.247 715.324 225.643 715.144L225.247 712.912C224.923 712.984 224.779 712.984 224.599 712.984C224.167 712.984 223.771 712.624 223.771 711.688V689.368H220.819V711.472ZM229.743 708.592C229.743 713.056 231.399 715.432 235.107 715.432C237.519 715.432 239.247 714.172 240.867 712.264H240.975L241.227 715H243.675V697.504H240.723V709.924C239.067 711.976 237.807 712.876 236.007 712.876C233.703 712.876 232.731 711.472 232.731 708.196V697.504H229.743V708.592ZM248.281 706.288C248.281 712.012 251.989 715.432 256.669 715.432C259.045 715.432 260.917 714.604 262.429 713.632L261.385 711.688C260.089 712.516 258.685 713.056 257.029 713.056C253.681 713.056 251.413 710.68 251.197 706.9H263.005C263.077 706.468 263.113 705.892 263.113 705.28C263.113 700.276 260.593 697.072 256.129 697.072C252.133 697.072 248.281 700.564 248.281 706.288ZM251.161 704.956C251.521 701.428 253.753 699.412 256.201 699.412C258.937 699.412 260.521 701.392 260.521 704.956H251.161ZM267.436 715H270.388V702.328C272.152 700.564 273.376 699.628 275.176 699.628C277.48 699.628 278.488 701.032 278.488 704.308V715H281.44V703.912C281.44 699.448 279.784 697.072 276.112 697.072C273.7 697.072 271.9 698.368 270.244 700.024H270.136L269.884 697.504H267.436V715ZM285.828 706.288C285.828 712.084 289.392 715.432 294.036 715.432C296.124 715.432 298.14 714.568 299.724 713.164L298.392 711.22C297.348 712.156 295.944 712.984 294.288 712.984C291.084 712.984 288.888 710.284 288.888 706.288C288.888 702.256 291.192 699.52 294.36 699.52C295.764 699.52 296.844 700.168 297.888 701.068L299.364 699.16C298.176 698.044 296.556 697.072 294.252 697.072C289.752 697.072 285.828 700.42 285.828 706.288ZM301.472 706.288C301.472 712.012 305.18 715.432 309.86 715.432C312.236 715.432 314.108 714.604 315.62 713.632L314.576 711.688C313.28 712.516 311.876 713.056 310.22 713.056C306.872 713.056 304.604 710.68 304.388 706.9H316.196C316.268 706.468 316.304 705.892 316.304 705.28C316.304 700.276 313.784 697.072 309.32 697.072C305.324 697.072 301.472 700.564 301.472 706.288ZM304.352 704.956C304.712 701.428 306.944 699.412 309.392 699.412C312.128 699.412 313.712 701.392 313.712 704.956H304.352ZM181.451 775H195.419V772.444H184.439V763.876H193.403V761.32H184.439V753.904H195.059V751.384H181.451V775ZM200.147 775H203.099V762.328C204.863 760.564 206.087 759.628 207.887 759.628C210.191 759.628 211.199 761.032 211.199 764.308V775H214.151V763.912C214.151 759.448 212.495 757.072 208.823 757.072C206.411 757.072 204.611 758.368 202.955 760.024H202.847L202.595 757.504H200.147V775ZM221.095 777.952C221.095 776.944 221.635 775.9 222.895 775C223.651 775.216 224.479 775.288 225.163 775.288H228.187C230.455 775.288 231.715 775.828 231.715 777.448C231.715 779.284 229.519 781.012 226.171 781.012C223.003 781.012 221.095 779.824 221.095 777.952ZM218.503 778.348C218.503 781.372 221.455 783.064 225.739 783.064C231.175 783.064 234.595 780.256 234.595 777.016C234.595 774.1 232.543 772.84 228.475 772.84H225.091C222.715 772.84 221.995 772.048 221.995 770.932C221.995 769.96 222.499 769.384 223.111 768.844C223.903 769.24 224.875 769.456 225.739 769.456C229.303 769.456 232.147 767.116 232.147 763.372C232.147 761.896 231.535 760.564 230.707 759.772H234.307V757.504H228.223C227.575 757.252 226.711 757.072 225.739 757.072C222.175 757.072 219.151 759.484 219.151 763.3C219.151 765.388 220.267 767.08 221.419 768.016V768.16C220.519 768.772 219.511 769.924 219.511 771.4C219.511 772.768 220.195 773.704 221.059 774.244V774.388C219.475 775.468 218.503 776.872 218.503 778.348ZM225.739 767.476C223.723 767.476 222.031 765.856 222.031 763.3C222.031 760.744 223.687 759.232 225.739 759.232C227.791 759.232 229.447 760.744 229.447 763.3C229.447 765.856 227.755 767.476 225.739 767.476ZM236.549 770.464C236.549 773.596 238.745 775.432 241.697 775.432C243.857 775.432 245.801 774.28 247.493 772.912H247.565L247.817 775H250.265V764.272C250.265 759.916 248.465 757.072 244.181 757.072C241.373 757.072 238.925 758.296 237.305 759.34L238.493 761.392C239.861 760.456 241.661 759.52 243.713 759.52C246.557 759.52 247.313 761.68 247.313 763.912C239.861 764.74 236.549 766.648 236.549 770.464ZM239.465 770.248C239.465 768.016 241.445 766.576 247.313 765.856V770.716C245.621 772.228 244.217 773.056 242.525 773.056C240.797 773.056 239.465 772.228 239.465 770.248ZM257.095 777.952C257.095 776.944 257.635 775.9 258.895 775C259.651 775.216 260.479 775.288 261.163 775.288H264.187C266.455 775.288 267.715 775.828 267.715 777.448C267.715 779.284 265.519 781.012 262.171 781.012C259.003 781.012 257.095 779.824 257.095 777.952ZM254.503 778.348C254.503 781.372 257.455 783.064 261.739 783.064C267.175 783.064 270.595 780.256 270.595 777.016C270.595 774.1 268.543 772.84 264.475 772.84H261.091C258.715 772.84 257.995 772.048 257.995 770.932C257.995 769.96 258.499 769.384 259.111 768.844C259.903 769.24 260.875 769.456 261.739 769.456C265.303 769.456 268.147 767.116 268.147 763.372C268.147 761.896 267.535 760.564 266.707 759.772H270.307V757.504H264.223C263.575 757.252 262.711 757.072 261.739 757.072C258.175 757.072 255.151 759.484 255.151 763.3C255.151 765.388 256.267 767.08 257.419 768.016V768.16C256.519 768.772 255.511 769.924 255.511 771.4C255.511 772.768 256.195 773.704 257.059 774.244V774.388C255.475 775.468 254.503 776.872 254.503 778.348ZM261.739 767.476C259.723 767.476 258.031 765.856 258.031 763.3C258.031 760.744 259.687 759.232 261.739 759.232C263.791 759.232 265.447 760.744 265.447 763.3C265.447 765.856 263.755 767.476 261.739 767.476ZM272.187 766.288C272.187 772.012 275.895 775.432 280.575 775.432C282.951 775.432 284.823 774.604 286.335 773.632L285.291 771.688C283.995 772.516 282.591 773.056 280.935 773.056C277.587 773.056 275.319 770.68 275.103 766.9H286.911C286.983 766.468 287.019 765.892 287.019 765.28C287.019 760.276 284.499 757.072 280.035 757.072C276.039 757.072 272.187 760.564 272.187 766.288ZM275.067 764.956C275.427 761.428 277.659 759.412 280.107 759.412C282.843 759.412 284.427 761.392 284.427 764.956H275.067ZM291.343 775H294.295V762.328C295.915 760.528 297.391 759.628 298.687 759.628C300.919 759.628 301.963 761.032 301.963 764.308V775H304.915V762.328C306.535 760.528 307.939 759.628 309.307 759.628C311.503 759.628 312.547 761.032 312.547 764.308V775H315.499V763.912C315.499 759.448 313.771 757.072 310.171 757.072C308.047 757.072 306.247 758.44 304.411 760.42C303.691 758.332 302.251 757.072 299.587 757.072C297.499 757.072 295.663 758.368 294.151 760.024H294.043L293.791 757.504H291.343V775ZM319.894 766.288C319.894 772.012 323.602 775.432 328.282 775.432C330.658 775.432 332.53 774.604 334.042 773.632L332.998 771.688C331.702 772.516 330.298 773.056 328.642 773.056C325.294 773.056 323.026 770.68 322.81 766.9H334.618C334.69 766.468 334.726 765.892 334.726 765.28C334.726 760.276 332.206 757.072 327.742 757.072C323.746 757.072 319.894 760.564 319.894 766.288ZM322.774 764.956C323.134 761.428 325.366 759.412 327.814 759.412C330.55 759.412 332.134 761.392 332.134 764.956H322.774ZM339.05 775H342.002V762.328C343.766 760.564 344.99 759.628 346.79 759.628C349.094 759.628 350.102 761.032 350.102 764.308V775H353.054V763.912C353.054 759.448 351.398 757.072 347.726 757.072C345.314 757.072 343.514 758.368 341.858 760.024H341.75L341.498 757.504H339.05V775ZM359.241 769.6C359.241 773.056 360.501 775.432 364.245 775.432C365.325 775.432 366.513 775.108 367.485 774.784L366.909 772.552C366.333 772.768 365.541 773.02 364.929 773.02C362.913 773.02 362.229 771.796 362.229 769.636V759.916H366.945V757.504H362.229V752.608H359.745L359.385 757.504L356.649 757.684V759.916H359.241V769.6Z" fill="#2B2B2B"/>
<path d="M165.472 649.852C167.632 649.852 169.504 648.124 169.504 645.532C169.504 642.94 167.632 641.176 165.472 641.176C163.312 641.176 161.44 642.94 161.44 645.532C161.44 648.124 163.312 649.852 165.472 649.852ZM165.472 709.852C167.632 709.852 169.504 708.124 169.504 705.532C169.504 702.94 167.632 701.176 165.472 701.176C163.312 701.176 161.44 702.94 161.44 705.532C161.44 708.124 163.312 709.852 165.472 709.852ZM165.472 769.852C167.632 769.852 169.504 768.124 169.504 765.532C169.504 762.94 167.632 761.176 165.472 761.176C163.312 761.176 161.44 762.94 161.44 765.532C161.44 768.124 163.312 769.852 165.472 769.852Z" fill="#009CDE"/>
<path d="M731.272 582.04L732.04 579.16C732.904 576.04 733.72 572.392 734.488 569.08H734.68C735.496 572.344 736.36 576.04 737.224 579.16L737.944 582.04H731.272ZM741.304 595H748.792L739 563.704H730.504L720.712 595H727.912L729.832 587.56H739.384L741.304 595ZM760.208 579.544C760.208 590.056 766.832 595.576 774.944 595.576C778.832 595.576 782.288 593.992 784.88 590.968L780.992 586.696C779.456 588.376 777.584 589.48 775.04 589.48C770.432 589.48 767.456 585.736 767.456 579.304C767.456 573.016 770.864 569.224 775.232 569.224C777.392 569.224 778.928 570.136 780.512 571.576L784.4 567.208C782.288 565.048 779.024 563.128 775.136 563.128C767.072 563.128 760.208 569.176 760.208 579.544ZM788.808 587.608C788.808 592.408 790.44 595.576 795.288 595.576C796.872 595.576 798.072 595.336 798.84 595L797.976 589.768C797.592 589.864 797.4 589.864 797.112 589.864C796.536 589.864 795.864 589.384 795.864 587.896V561.352H788.808V587.608ZM800.9 583.096C800.9 590.968 806.132 595.576 812.948 595.576C815.78 595.576 818.948 594.568 821.396 592.888L819.044 588.616C817.316 589.672 815.684 590.2 813.908 590.2C810.74 590.2 808.34 588.616 807.716 585.016H821.972C822.116 584.44 822.26 583.288 822.26 582.04C822.26 575.56 818.9 570.616 812.132 570.616C806.42 570.616 800.9 575.368 800.9 583.096ZM807.668 580.648C808.148 577.48 810.068 575.992 812.276 575.992C815.108 575.992 816.26 577.912 816.26 580.648H807.668ZM825.506 588.376C825.506 592.408 828.242 595.576 832.562 595.576C835.25 595.576 837.506 594.328 839.522 592.552H839.666L840.194 595H845.954V581.368C845.954 574.072 842.594 570.616 836.498 570.616C832.754 570.616 829.346 571.912 826.322 573.736L828.818 578.392C831.122 577.048 833.138 576.232 835.154 576.232C837.698 576.232 838.754 577.576 838.898 579.688C829.49 580.648 825.506 583.384 825.506 588.376ZM832.226 587.848C832.226 586.024 833.858 584.584 838.898 583.912V588.088C837.65 589.336 836.594 590.104 834.962 590.104C833.282 590.104 832.226 589.384 832.226 587.848ZM851.761 595H858.817V581.176C860.065 577.96 862.273 576.808 864.049 576.808C865.057 576.808 865.777 576.952 866.641 577.192L867.793 571.096C867.121 570.808 866.305 570.616 864.961 570.616C862.513 570.616 859.921 572.152 858.193 575.368H858.001L857.521 571.192H851.761V595ZM880.946 595H888.002V584.392H892.37C898.994 584.392 904.61 581.128 904.61 573.784C904.61 566.2 899.138 563.704 892.37 563.704H880.946V595ZM888.002 578.776V569.32H891.938C895.682 569.32 897.698 570.52 897.698 573.784C897.698 577.048 895.826 578.776 891.938 578.776H888.002ZM906.725 588.376C906.725 592.408 909.461 595.576 913.781 595.576C916.469 595.576 918.725 594.328 920.741 592.552H920.885L921.413 595H927.173V581.368C927.173 574.072 923.813 570.616 917.717 570.616C913.973 570.616 910.565 571.912 907.541 573.736L910.037 578.392C912.341 577.048 914.357 576.232 916.373 576.232C918.917 576.232 919.973 577.576 920.117 579.688C910.709 580.648 906.725 583.384 906.725 588.376ZM913.445 587.848C913.445 586.024 915.077 584.584 920.117 583.912V588.088C918.869 589.336 917.813 590.104 916.181 590.104C914.501 590.104 913.445 589.384 913.445 587.848ZM933.939 586.36C933.939 591.88 936.243 595.576 942.147 595.576C944.451 595.576 946.179 595.096 947.427 594.712L946.323 589.576C945.699 589.816 944.835 590.056 944.067 590.056C942.195 590.056 940.995 588.952 940.995 586.264V576.712H946.707V571.192H940.995V564.856H935.139L934.323 571.192L930.675 571.48V576.712H933.939V586.36ZM951.104 595H958.16V578.92C959.696 577.432 960.8 576.616 962.576 576.616C964.592 576.616 965.504 577.672 965.504 581.128V595H972.56V580.216C972.56 574.264 970.352 570.616 965.168 570.616C961.952 570.616 959.6 572.296 957.824 573.88L958.16 569.608V561.352H951.104V595ZM994.683 595H1001.79V569.656H1010.38V563.704H986.091V569.656H994.683V595ZM1009.38 583.096C1009.38 591.016 1014.95 595.576 1021 595.576C1027 595.576 1032.57 591.016 1032.57 583.096C1032.57 575.176 1027 570.616 1021 570.616C1014.95 570.616 1009.38 575.176 1009.38 583.096ZM1016.63 583.096C1016.63 578.968 1018.07 576.328 1021 576.328C1023.88 576.328 1025.37 578.968 1025.37 583.096C1025.37 587.224 1023.88 589.864 1021 589.864C1018.07 589.864 1016.63 587.224 1016.63 583.096ZM1045.45 591.064C1048.61 594.04 1052.93 595.576 1057.01 595.576C1064.5 595.576 1068.82 591.064 1068.82 585.88C1068.82 581.464 1066.42 578.92 1062.63 577.384L1058.6 575.752C1055.91 574.648 1053.85 573.976 1053.85 572.056C1053.85 570.28 1055.38 569.224 1057.83 569.224C1060.33 569.224 1062.25 570.136 1064.31 571.72L1067.91 567.256C1065.22 564.568 1061.43 563.128 1057.83 563.128C1051.3 563.128 1046.69 567.256 1046.69 572.44C1046.69 577 1049.77 579.688 1052.98 580.984L1057.06 582.712C1059.8 583.864 1061.57 584.488 1061.57 586.456C1061.57 588.328 1060.13 589.48 1057.21 589.48C1054.61 589.48 1051.73 588.136 1049.48 586.216L1045.45 591.064ZM1073.07 585.976C1073.07 591.928 1075.28 595.576 1080.46 595.576C1083.72 595.576 1085.93 594.088 1087.95 591.688H1088.09L1088.62 595H1094.38V571.192H1087.32V586.936C1085.93 588.808 1084.88 589.576 1083.1 589.576C1081.04 589.576 1080.12 588.472 1080.12 585.064V571.192H1073.07V585.976ZM1098.95 583.096C1098.95 591.016 1104.08 595.576 1110.71 595.576C1113.3 595.576 1116.32 594.616 1118.63 592.6L1115.79 588.136C1114.64 589.048 1113.25 589.864 1111.52 589.864C1108.45 589.864 1106.19 587.224 1106.19 583.096C1106.19 578.968 1108.35 576.328 1111.76 576.328C1112.87 576.328 1113.92 576.76 1115.07 577.72L1118.29 573.352C1116.71 571.72 1114.26 570.616 1111.33 570.616C1104.75 570.616 1098.95 575.176 1098.95 583.096ZM1119.74 583.096C1119.74 591.016 1124.88 595.576 1131.5 595.576C1134.1 595.576 1137.12 594.616 1139.42 592.6L1136.59 588.136C1135.44 589.048 1134.05 589.864 1132.32 589.864C1129.25 589.864 1126.99 587.224 1126.99 583.096C1126.99 578.968 1129.15 576.328 1132.56 576.328C1133.66 576.328 1134.72 576.76 1135.87 577.72L1139.09 573.352C1137.5 571.72 1135.06 570.616 1132.13 570.616C1125.55 570.616 1119.74 575.176 1119.74 583.096ZM1140.54 583.096C1140.54 590.968 1145.77 595.576 1152.59 595.576C1155.42 595.576 1158.59 594.568 1161.04 592.888L1158.68 588.616C1156.96 589.672 1155.32 590.2 1153.55 590.2C1150.38 590.2 1147.98 588.616 1147.36 585.016H1161.61C1161.76 584.44 1161.9 583.288 1161.9 582.04C1161.9 575.56 1158.54 570.616 1151.77 570.616C1146.06 570.616 1140.54 575.368 1140.54 583.096ZM1147.31 580.648C1147.79 577.48 1149.71 575.992 1151.92 575.992C1154.75 575.992 1155.9 577.912 1155.9 580.648H1147.31ZM1164.41 592.264C1166.81 594.232 1170.41 595.576 1173.53 595.576C1179.92 595.576 1183.33 592.216 1183.33 587.896C1183.33 583.528 1179.92 581.848 1176.89 580.744C1174.45 579.832 1172.24 579.256 1172.24 577.72C1172.24 576.52 1173.1 575.848 1174.93 575.848C1176.61 575.848 1178.24 576.616 1179.97 577.864L1183.13 573.64C1181.07 572.104 1178.38 570.616 1174.73 570.616C1169.21 570.616 1165.61 573.64 1165.61 578.056C1165.61 581.992 1169.02 583.96 1171.9 585.064C1174.35 586.024 1176.75 586.744 1176.75 588.328C1176.75 589.576 1175.84 590.344 1173.73 590.344C1171.71 590.344 1169.74 589.48 1167.58 587.848L1164.41 592.264ZM1185.45 592.264C1187.85 594.232 1191.45 595.576 1194.57 595.576C1200.95 595.576 1204.36 592.216 1204.36 587.896C1204.36 583.528 1200.95 581.848 1197.93 580.744C1195.48 579.832 1193.27 579.256 1193.27 577.72C1193.27 576.52 1194.13 575.848 1195.96 575.848C1197.64 575.848 1199.27 576.616 1201 577.864L1204.17 573.64C1202.1 572.104 1199.41 570.616 1195.77 570.616C1190.25 570.616 1186.65 573.64 1186.65 578.056C1186.65 581.992 1190.05 583.96 1192.93 585.064C1195.38 586.024 1197.78 586.744 1197.78 588.328C1197.78 589.576 1196.87 590.344 1194.76 590.344C1192.74 590.344 1190.77 589.48 1188.61 587.848L1185.45 592.264Z" fill="black"/>
<path d="M726.472 645.852C728.632 645.852 730.504 644.124 730.504 641.532C730.504 638.94 728.632 637.176 726.472 637.176C724.312 637.176 722.44 638.94 722.44 641.532C722.44 644.124 724.312 645.852 726.472 645.852ZM726.472 701.852C728.632 701.852 730.504 700.124 730.504 697.532C730.504 694.94 728.632 693.176 726.472 693.176C724.312 693.176 722.44 694.94 722.44 697.532C722.44 700.124 724.312 701.852 726.472 701.852ZM726.472 757.852C728.632 757.852 730.504 756.124 730.504 753.532C730.504 750.94 728.632 749.176 726.472 749.176C724.312 749.176 722.44 750.94 722.44 753.532C722.44 756.124 724.312 757.852 726.472 757.852Z" fill="#009CDE"/>
<path d="M740.583 639.192C740.583 646.896 744.975 651.432 750.915 651.432C753.939 651.432 756.243 650.172 758.115 648.012L756.423 646.176C754.911 647.868 753.255 648.804 750.987 648.804C746.523 648.804 743.679 645.06 743.679 639.12C743.679 633.252 746.631 629.58 751.131 629.58C753.111 629.58 754.623 630.444 755.847 631.776L757.539 629.868C756.171 628.32 753.939 626.952 751.095 626.952C745.047 626.952 740.583 631.596 740.583 639.192ZM761.979 647.472C761.979 650.028 762.879 651.432 765.111 651.432C765.903 651.432 766.407 651.324 766.803 651.144L766.407 648.912C766.083 648.984 765.939 648.984 765.759 648.984C765.327 648.984 764.931 648.624 764.931 647.688V625.368H761.979V647.472ZM770.041 646.464C770.041 649.596 772.237 651.432 775.189 651.432C777.349 651.432 779.293 650.28 780.985 648.912H781.057L781.309 651H783.757V640.272C783.757 635.916 781.957 633.072 777.673 633.072C774.865 633.072 772.417 634.296 770.797 635.34L771.985 637.392C773.353 636.456 775.153 635.52 777.205 635.52C780.049 635.52 780.805 637.68 780.805 639.912C773.353 640.74 770.041 642.648 770.041 646.464ZM772.957 646.248C772.957 644.016 774.937 642.576 780.805 641.856V646.716C779.113 648.228 777.709 649.056 776.017 649.056C774.289 649.056 772.957 648.228 772.957 646.248ZM789.077 651H792.029V639.768C793.217 636.816 794.981 635.736 796.457 635.736C797.177 635.736 797.573 635.844 798.149 636.024L798.725 633.432C798.149 633.18 797.609 633.072 796.853 633.072C794.873 633.072 793.073 634.476 791.885 636.672H791.777L791.525 633.504H789.077V651ZM802.819 629.904C803.971 629.904 804.871 629.112 804.871 627.996C804.871 626.844 803.971 626.088 802.819 626.088C801.667 626.088 800.767 626.844 800.767 627.996C800.767 629.112 801.667 629.904 802.819 629.904ZM801.307 651H804.259V633.504H801.307V651ZM810.421 645.6C810.421 649.056 811.681 651.432 815.425 651.432C816.505 651.432 817.693 651.108 818.665 650.784L818.089 648.552C817.513 648.768 816.721 649.02 816.109 649.02C814.093 649.02 813.409 647.796 813.409 645.636V635.916H818.125V633.504H813.409V628.608H810.925L810.565 633.504L807.829 633.684V635.916H810.421V645.6ZM820.643 655.824L820.067 658.164C820.643 658.38 821.327 658.524 822.119 658.524C825.647 658.524 827.447 655.896 828.671 652.44L835.259 633.504H832.379L829.247 643.188C828.779 644.736 828.275 646.536 827.771 648.12H827.627C827.087 646.5 826.475 644.7 825.935 643.188L822.371 633.504H819.311L826.331 651.036L825.935 652.332C825.215 654.492 823.955 656.076 821.975 656.076C821.543 656.076 821.003 655.932 820.643 655.824ZM746.847 707H749.871V685.904H756.999V683.384H739.719V685.904H746.847V707ZM759.061 707H762.013V695.768C763.201 692.816 764.965 691.736 766.441 691.736C767.161 691.736 767.557 691.844 768.133 692.024L768.709 689.432C768.133 689.18 767.593 689.072 766.837 689.072C764.857 689.072 763.057 690.476 761.869 692.672H761.761L761.509 689.504H759.061V707ZM769.514 702.464C769.514 705.596 771.71 707.432 774.662 707.432C776.822 707.432 778.766 706.28 780.458 704.912H780.53L780.782 707H783.23V696.272C783.23 691.916 781.43 689.072 777.146 689.072C774.338 689.072 771.89 690.296 770.27 691.34L771.458 693.392C772.826 692.456 774.626 691.52 776.678 691.52C779.522 691.52 780.278 693.68 780.278 695.912C772.826 696.74 769.514 698.648 769.514 702.464ZM772.43 702.248C772.43 700.016 774.41 698.576 780.278 697.856V702.716C778.586 704.228 777.182 705.056 775.49 705.056C773.762 705.056 772.43 704.228 772.43 702.248ZM788.55 707H791.502V694.328C793.266 692.564 794.49 691.628 796.29 691.628C798.594 691.628 799.602 693.032 799.602 696.308V707H802.554V695.912C802.554 691.448 800.898 689.072 797.226 689.072C794.814 689.072 793.014 690.368 791.358 692.024H791.25L790.998 689.504H788.55V707ZM806.043 705.02C807.699 706.388 810.075 707.432 812.559 707.432C816.699 707.432 818.967 705.056 818.967 702.212C818.967 698.9 816.159 697.856 813.639 696.92C811.659 696.164 809.751 695.552 809.751 693.896C809.751 692.564 810.759 691.376 812.955 691.376C814.503 691.376 815.763 692.024 816.951 692.924L818.355 691.052C817.023 689.972 815.115 689.072 812.919 689.072C809.139 689.072 806.907 691.232 806.907 694.04C806.907 696.992 809.643 698.18 812.127 699.08C814.035 699.8 816.123 700.592 816.123 702.392C816.123 703.904 814.971 705.128 812.667 705.128C810.579 705.128 809.031 704.264 807.519 703.04L806.043 705.02ZM825.699 705.416C827.319 706.676 828.939 707.432 830.559 707.432C834.555 707.432 838.119 703.94 838.119 698C838.119 692.564 835.707 689.072 831.207 689.072C829.155 689.072 827.211 690.188 825.627 691.52H825.519L825.267 689.504H822.819V714.38H825.771V708.476L825.699 705.416ZM825.771 703.112V693.932C827.499 692.384 828.975 691.556 830.451 691.556C833.763 691.556 835.059 694.148 835.059 698C835.059 702.32 832.935 704.948 830.055 704.948C828.903 704.948 827.355 704.444 825.771 703.112ZM841.182 702.464C841.182 705.596 843.378 707.432 846.33 707.432C848.49 707.432 850.434 706.28 852.126 704.912H852.198L852.45 707H854.898V696.272C854.898 691.916 853.098 689.072 848.814 689.072C846.006 689.072 843.558 690.296 841.938 691.34L843.126 693.392C844.494 692.456 846.294 691.52 848.346 691.52C851.19 691.52 851.946 693.68 851.946 695.912C844.494 696.74 841.182 698.648 841.182 702.464ZM844.098 702.248C844.098 700.016 846.078 698.576 851.946 697.856V702.716C850.254 704.228 848.85 705.056 847.158 705.056C845.43 705.056 844.098 704.228 844.098 702.248ZM860.218 707H863.17V695.768C864.358 692.816 866.122 691.736 867.598 691.736C868.318 691.736 868.714 691.844 869.29 692.024L869.866 689.432C869.29 689.18 868.75 689.072 867.994 689.072C866.014 689.072 864.214 690.476 863.026 692.672H862.918L862.666 689.504H860.218V707ZM870.801 698.288C870.801 704.012 874.509 707.432 879.189 707.432C881.565 707.432 883.437 706.604 884.949 705.632L883.905 703.688C882.609 704.516 881.205 705.056 879.549 705.056C876.201 705.056 873.933 702.68 873.717 698.9H885.525C885.597 698.468 885.633 697.892 885.633 697.28C885.633 692.276 883.113 689.072 878.649 689.072C874.653 689.072 870.801 692.564 870.801 698.288ZM873.681 696.956C874.041 693.428 876.273 691.412 878.721 691.412C881.457 691.412 883.041 693.392 883.041 696.956H873.681ZM889.706 707H892.658V694.328C894.422 692.564 895.646 691.628 897.446 691.628C899.75 691.628 900.758 693.032 900.758 696.308V707H903.71V695.912C903.71 691.448 902.054 689.072 898.382 689.072C895.97 689.072 894.17 690.368 892.514 692.024H892.406L892.154 689.504H889.706V707ZM907.847 698.288C907.847 704.084 911.411 707.432 916.055 707.432C918.143 707.432 920.159 706.568 921.743 705.164L920.411 703.22C919.367 704.156 917.963 704.984 916.307 704.984C913.103 704.984 910.907 702.284 910.907 698.288C910.907 694.256 913.211 691.52 916.379 691.52C917.783 691.52 918.863 692.168 919.907 693.068L921.383 691.16C920.195 690.044 918.575 689.072 916.271 689.072C911.771 689.072 907.847 692.42 907.847 698.288ZM924.334 711.824L923.758 714.164C924.334 714.38 925.018 714.524 925.81 714.524C929.338 714.524 931.138 711.896 932.362 708.44L938.95 689.504H936.07L932.938 699.188C932.47 700.736 931.966 702.536 931.462 704.12H931.318C930.778 702.5 930.166 700.7 929.626 699.188L926.062 689.504H923.002L930.022 707.036L929.626 708.332C928.906 710.492 927.646 712.076 925.666 712.076C925.234 712.076 924.694 711.932 924.334 711.824ZM741.951 763H744.939V752.416H753.939V749.896H744.939V741.904H755.559V739.384H741.951V763ZM757.414 754.288C757.414 760.084 761.23 763.432 765.514 763.432C769.798 763.432 773.614 760.084 773.614 754.288C773.614 748.42 769.798 745.072 765.514 745.072C761.23 745.072 757.414 748.42 757.414 754.288ZM760.474 754.288C760.474 750.256 762.526 747.52 765.514 747.52C768.538 747.52 770.554 750.256 770.554 754.288C770.554 758.284 768.538 760.984 765.514 760.984C762.526 760.984 760.474 758.284 760.474 754.288ZM776.676 754.288C776.676 760.084 780.24 763.432 784.884 763.432C786.972 763.432 788.988 762.568 790.572 761.164L789.24 759.22C788.196 760.156 786.792 760.984 785.136 760.984C781.932 760.984 779.736 758.284 779.736 754.288C779.736 750.256 782.04 747.52 785.208 747.52C786.612 747.52 787.692 748.168 788.736 749.068L790.212 747.16C789.024 746.044 787.404 745.072 785.1 745.072C780.6 745.072 776.676 748.42 776.676 754.288ZM793.888 756.592C793.888 761.056 795.544 763.432 799.252 763.432C801.664 763.432 803.392 762.172 805.012 760.264H805.12L805.372 763H807.82V745.504H804.868V757.924C803.212 759.976 801.952 760.876 800.152 760.876C797.848 760.876 796.876 759.472 796.876 756.196V745.504H793.888V756.592ZM811.528 761.02C813.184 762.388 815.56 763.432 818.044 763.432C822.184 763.432 824.452 761.056 824.452 758.212C824.452 754.9 821.644 753.856 819.124 752.92C817.144 752.164 815.236 751.552 815.236 749.896C815.236 748.564 816.244 747.376 818.44 747.376C819.988 747.376 821.248 748.024 822.436 748.924L823.84 747.052C822.508 745.972 820.6 745.072 818.404 745.072C814.624 745.072 812.392 747.232 812.392 750.04C812.392 752.992 815.128 754.18 817.612 755.08C819.52 755.8 821.608 756.592 821.608 758.392C821.608 759.904 820.456 761.128 818.152 761.128C816.064 761.128 814.516 760.264 813.004 759.04L811.528 761.02Z" fill="#2B2B2B"/>
<path d="M1284.21 579.544C1284.21 590.056 1290.83 595.576 1298.94 595.576C1302.83 595.576 1306.29 593.992 1308.88 590.968L1304.99 586.696C1303.46 588.376 1301.58 589.48 1299.04 589.48C1294.43 589.48 1291.46 585.736 1291.46 579.304C1291.46 573.016 1294.86 569.224 1299.23 569.224C1301.39 569.224 1302.93 570.136 1304.51 571.576L1308.4 567.208C1306.29 565.048 1303.02 563.128 1299.14 563.128C1291.07 563.128 1284.21 569.176 1284.21 579.544ZM1311.42 583.096C1311.42 591.016 1316.98 595.576 1323.03 595.576C1329.03 595.576 1334.6 591.016 1334.6 583.096C1334.6 575.176 1329.03 570.616 1323.03 570.616C1316.98 570.616 1311.42 575.176 1311.42 583.096ZM1318.66 583.096C1318.66 578.968 1320.1 576.328 1323.03 576.328C1325.91 576.328 1327.4 578.968 1327.4 583.096C1327.4 587.224 1325.91 589.864 1323.03 589.864C1320.1 589.864 1318.66 587.224 1318.66 583.096ZM1339.18 595H1346.24V578.92C1347.77 577.432 1348.88 576.616 1350.65 576.616C1352.67 576.616 1353.58 577.672 1353.58 581.128V595H1360.64V580.216C1360.64 574.264 1358.43 570.616 1353.25 570.616C1350.03 570.616 1347.63 572.296 1345.61 574.216H1345.42L1344.94 571.192H1339.18V595ZM1364.29 592.264C1366.69 594.232 1370.29 595.576 1373.41 595.576C1379.79 595.576 1383.2 592.216 1383.2 587.896C1383.2 583.528 1379.79 581.848 1376.77 580.744C1374.32 579.832 1372.11 579.256 1372.11 577.72C1372.11 576.52 1372.98 575.848 1374.8 575.848C1376.48 575.848 1378.11 576.616 1379.84 577.864L1383.01 573.64C1380.95 572.104 1378.26 570.616 1374.61 570.616C1369.09 570.616 1365.49 573.64 1365.49 578.056C1365.49 581.992 1368.9 583.96 1371.78 585.064C1374.23 586.024 1376.63 586.744 1376.63 588.328C1376.63 589.576 1375.71 590.344 1373.6 590.344C1371.59 590.344 1369.62 589.48 1367.46 587.848L1364.29 592.264ZM1390.94 567.688C1393.34 567.688 1395.02 566.152 1395.02 563.992C1395.02 561.832 1393.34 560.344 1390.94 560.344C1388.58 560.344 1386.86 561.832 1386.86 563.992C1386.86 566.152 1388.58 567.688 1390.94 567.688ZM1387.43 595H1394.49V571.192H1387.43V595ZM1398.34 592.264C1400.74 594.232 1404.34 595.576 1407.46 595.576C1413.84 595.576 1417.25 592.216 1417.25 587.896C1417.25 583.528 1413.84 581.848 1410.82 580.744C1408.37 579.832 1406.16 579.256 1406.16 577.72C1406.16 576.52 1407.02 575.848 1408.85 575.848C1410.53 575.848 1412.16 576.616 1413.89 577.864L1417.06 573.64C1414.99 572.104 1412.3 570.616 1408.66 570.616C1403.14 570.616 1399.54 573.64 1399.54 578.056C1399.54 581.992 1402.94 583.96 1405.82 585.064C1408.27 586.024 1410.67 586.744 1410.67 588.328C1410.67 589.576 1409.76 590.344 1407.65 590.344C1405.63 590.344 1403.66 589.48 1401.5 587.848L1398.34 592.264ZM1422.44 586.36C1422.44 591.88 1424.74 595.576 1430.65 595.576C1432.95 595.576 1434.68 595.096 1435.93 594.712L1434.82 589.576C1434.2 589.816 1433.34 590.056 1432.57 590.056C1430.7 590.056 1429.5 588.952 1429.5 586.264V576.712H1435.21V571.192H1429.5V564.856H1423.64L1422.82 571.192L1419.18 571.48V576.712H1422.44V586.36ZM1437.74 583.096C1437.74 590.968 1442.98 595.576 1449.79 595.576C1452.62 595.576 1455.79 594.568 1458.24 592.888L1455.89 588.616C1454.16 589.672 1452.53 590.2 1450.75 590.2C1447.58 590.2 1445.18 588.616 1444.56 585.016H1458.82C1458.96 584.44 1459.1 583.288 1459.1 582.04C1459.1 575.56 1455.74 570.616 1448.98 570.616C1443.26 570.616 1437.74 575.368 1437.74 583.096ZM1444.51 580.648C1444.99 577.48 1446.91 575.992 1449.12 575.992C1451.95 575.992 1453.1 577.912 1453.1 580.648H1444.51ZM1463.73 595H1470.79V578.92C1472.32 577.432 1473.43 576.616 1475.2 576.616C1477.22 576.616 1478.13 577.672 1478.13 581.128V595H1485.19V580.216C1485.19 574.264 1482.98 570.616 1477.79 570.616C1474.58 570.616 1472.18 572.296 1470.16 574.216H1469.97L1469.49 571.192H1463.73V595ZM1491.91 586.36C1491.91 591.88 1494.21 595.576 1500.12 595.576C1502.42 595.576 1504.15 595.096 1505.4 594.712L1504.29 589.576C1503.67 589.816 1502.8 590.056 1502.04 590.056C1500.16 590.056 1498.96 588.952 1498.96 586.264V576.712H1504.68V571.192H1498.96V564.856H1493.11L1492.29 571.192L1488.64 571.48V576.712H1491.91V586.36ZM1509.07 587.608C1509.07 592.408 1510.71 595.576 1515.55 595.576C1517.14 595.576 1518.34 595.336 1519.11 595L1518.24 589.768C1517.86 589.864 1517.67 589.864 1517.38 589.864C1516.8 589.864 1516.13 589.384 1516.13 587.896V561.352H1509.07V587.608ZM1523.09 598.456L1521.84 603.832C1522.8 604.12 1523.76 604.312 1525.2 604.312C1530.81 604.312 1533.36 601.24 1535.61 595.24L1543.87 571.192H1537.1L1534.22 581.416C1533.65 583.672 1533.12 585.928 1532.59 588.184H1532.4C1531.77 585.832 1531.2 583.576 1530.53 581.416L1527.12 571.192H1520.01L1529.18 594.376L1528.85 595.624C1528.22 597.496 1527.02 598.744 1524.67 598.744C1524.14 598.744 1523.52 598.552 1523.09 598.456ZM1557.65 595H1564.71V581.944H1575.51V595H1582.61V563.704H1575.51V575.752H1564.71V563.704H1557.65V595ZM1592.67 567.688C1595.07 567.688 1596.75 566.152 1596.75 563.992C1596.75 561.832 1595.07 560.344 1592.67 560.344C1590.32 560.344 1588.59 561.832 1588.59 563.992C1588.59 566.152 1590.32 567.688 1592.67 567.688ZM1589.17 595H1596.22V571.192H1589.17V595ZM1603.14 586.36C1603.14 591.88 1605.45 595.576 1611.35 595.576C1613.65 595.576 1615.38 595.096 1616.63 594.712L1615.53 589.576C1614.9 589.816 1614.04 590.056 1613.27 590.056C1611.4 590.056 1610.2 588.952 1610.2 586.264V576.712H1615.91V571.192H1610.2V564.856H1604.34L1603.53 571.192L1599.88 571.48V576.712H1603.14V586.36ZM1643.34 595.576C1651.79 595.576 1657.55 589.432 1657.55 579.208C1657.55 569.032 1651.79 563.128 1643.34 563.128C1634.89 563.128 1629.13 568.984 1629.13 579.208C1629.13 589.432 1634.89 595.576 1643.34 595.576ZM1643.34 589.48C1639.07 589.48 1636.38 585.496 1636.38 579.208C1636.38 572.968 1639.07 569.224 1643.34 569.224C1647.61 569.224 1650.3 572.968 1650.3 579.208C1650.3 585.496 1647.61 589.48 1643.34 589.48ZM1662.36 585.976C1662.36 591.928 1664.57 595.576 1669.76 595.576C1673.02 595.576 1675.23 594.088 1677.24 591.688H1677.39L1677.92 595H1683.68V571.192H1676.62V586.936C1675.23 588.808 1674.17 589.576 1672.4 589.576C1670.33 589.576 1669.42 588.472 1669.42 585.064V571.192H1662.36V585.976ZM1689.64 595H1696.69V581.176C1697.94 577.96 1700.15 576.808 1701.92 576.808C1702.93 576.808 1703.65 576.952 1704.52 577.192L1705.67 571.096C1705 570.808 1704.18 570.616 1702.84 570.616C1700.39 570.616 1697.8 572.152 1696.07 575.368H1695.88L1695.4 571.192H1689.64V595ZM1717.33 579.544C1717.33 590.056 1724.05 595.576 1732.5 595.576C1736.87 595.576 1740.76 593.896 1742.97 591.784V577.384H1731.54V583.144H1736.73V588.52C1735.96 589.144 1734.66 589.48 1733.37 589.48C1727.51 589.48 1724.58 585.736 1724.58 579.304C1724.58 573.016 1727.99 569.224 1732.84 569.224C1735.53 569.224 1737.01 570.136 1738.55 571.576L1742.44 567.208C1740.37 565.096 1737.11 563.128 1732.74 563.128C1724.25 563.128 1717.33 569.176 1717.33 579.544ZM1747.21 583.096C1747.21 591.016 1752.78 595.576 1758.83 595.576C1764.83 595.576 1770.4 591.016 1770.4 583.096C1770.4 575.176 1764.83 570.616 1758.83 570.616C1752.78 570.616 1747.21 575.176 1747.21 583.096ZM1754.46 583.096C1754.46 578.968 1755.9 576.328 1758.83 576.328C1761.71 576.328 1763.2 578.968 1763.2 583.096C1763.2 587.224 1761.71 589.864 1758.83 589.864C1755.9 589.864 1754.46 587.224 1754.46 583.096ZM1773.6 588.376C1773.6 592.408 1776.34 595.576 1780.66 595.576C1783.34 595.576 1785.6 594.328 1787.62 592.552H1787.76L1788.29 595H1794.05V581.368C1794.05 574.072 1790.69 570.616 1784.59 570.616C1780.85 570.616 1777.44 571.912 1774.42 573.736L1776.91 578.392C1779.22 577.048 1781.23 576.232 1783.25 576.232C1785.79 576.232 1786.85 577.576 1786.99 579.688C1777.58 580.648 1773.6 583.384 1773.6 588.376ZM1780.32 587.848C1780.32 586.024 1781.95 584.584 1786.99 583.912V588.088C1785.74 589.336 1784.69 590.104 1783.06 590.104C1781.38 590.104 1780.32 589.384 1780.32 587.848ZM1799.85 587.608C1799.85 592.408 1801.49 595.576 1806.33 595.576C1807.92 595.576 1809.12 595.336 1809.89 595L1809.02 589.768C1808.64 589.864 1808.45 589.864 1808.16 589.864C1807.58 589.864 1806.91 589.384 1806.91 587.896V561.352H1799.85V587.608ZM1811.23 592.264C1813.63 594.232 1817.23 595.576 1820.35 595.576C1826.73 595.576 1830.14 592.216 1830.14 587.896C1830.14 583.528 1826.73 581.848 1823.71 580.744C1821.26 579.832 1819.05 579.256 1819.05 577.72C1819.05 576.52 1819.91 575.848 1821.74 575.848C1823.42 575.848 1825.05 576.616 1826.78 577.864L1829.95 573.64C1827.88 572.104 1825.19 570.616 1821.55 570.616C1816.03 570.616 1812.43 573.64 1812.43 578.056C1812.43 581.992 1815.83 583.96 1818.71 585.064C1821.16 586.024 1823.56 586.744 1823.56 588.328C1823.56 589.576 1822.65 590.344 1820.54 590.344C1818.52 590.344 1816.55 589.48 1814.39 587.848L1811.23 592.264ZM1302.95 651H1310.47C1315.77 651 1319.44 648.732 1319.44 644.088C1319.44 640.848 1317.42 638.976 1313.97 638.436V638.292C1316.74 637.572 1318.07 635.484 1318.07 633.144C1318.07 629.004 1314.76 627.384 1309.97 627.384H1302.95V651ZM1305.94 637.464V629.76H1309.57C1313.25 629.76 1315.12 630.84 1315.12 633.396C1315.12 636.024 1313.46 637.464 1309.43 637.464H1305.94ZM1305.94 648.624V639.696H1310.04C1314.18 639.696 1316.49 641.028 1316.49 643.944C1316.49 647.148 1314.11 648.624 1310.04 648.624H1305.94ZM1322.28 642.288C1322.28 648.012 1325.99 651.432 1330.67 651.432C1333.05 651.432 1334.92 650.604 1336.43 649.632L1335.39 647.688C1334.09 648.516 1332.69 649.056 1331.03 649.056C1327.68 649.056 1325.41 646.68 1325.2 642.9H1337.01C1337.08 642.468 1337.11 641.892 1337.11 641.28C1337.11 636.276 1334.59 633.072 1330.13 633.072C1326.13 633.072 1322.28 636.564 1322.28 642.288ZM1325.16 640.956C1325.52 637.428 1327.75 635.412 1330.2 635.412C1332.94 635.412 1334.52 637.392 1334.52 640.956H1325.16ZM1351.45 641.388L1352.57 637.788C1353.43 635.16 1354.19 632.568 1354.91 629.832H1355.05C1355.81 632.568 1356.57 635.16 1357.43 637.788L1358.55 641.388H1351.45ZM1361.53 651H1364.74L1356.75 627.384H1353.36L1345.37 651H1348.43L1350.7 643.8H1359.3L1361.53 651ZM1367.55 647.472C1367.55 650.028 1368.45 651.432 1370.68 651.432C1371.47 651.432 1371.97 651.324 1372.37 651.144L1371.97 648.912C1371.65 648.984 1371.51 648.984 1371.33 648.984C1370.89 648.984 1370.5 648.624 1370.5 647.688V625.368H1367.55V647.472ZM1377.98 629.904C1379.14 629.904 1380.04 629.112 1380.04 627.996C1380.04 626.844 1379.14 626.088 1377.98 626.088C1376.83 626.088 1375.93 626.844 1375.93 627.996C1375.93 629.112 1376.83 629.904 1377.98 629.904ZM1376.47 651H1379.42V633.504H1376.47V651ZM1386.34 653.952C1386.34 652.944 1386.88 651.9 1388.14 651C1388.9 651.216 1389.72 651.288 1390.41 651.288H1393.43C1395.7 651.288 1396.96 651.828 1396.96 653.448C1396.96 655.284 1394.76 657.012 1391.42 657.012C1388.25 657.012 1386.34 655.824 1386.34 653.952ZM1383.75 654.348C1383.75 657.372 1386.7 659.064 1390.98 659.064C1396.42 659.064 1399.84 656.256 1399.84 653.016C1399.84 650.1 1397.79 648.84 1393.72 648.84H1390.34C1387.96 648.84 1387.24 648.048 1387.24 646.932C1387.24 645.96 1387.74 645.384 1388.36 644.844C1389.15 645.24 1390.12 645.456 1390.98 645.456C1394.55 645.456 1397.39 643.116 1397.39 639.372C1397.39 637.896 1396.78 636.564 1395.95 635.772H1399.55V633.504H1393.47C1392.82 633.252 1391.96 633.072 1390.98 633.072C1387.42 633.072 1384.4 635.484 1384.4 639.3C1384.4 641.388 1385.51 643.08 1386.66 644.016V644.16C1385.76 644.772 1384.76 645.924 1384.76 647.4C1384.76 648.768 1385.44 649.704 1386.3 650.244V650.388C1384.72 651.468 1383.75 652.872 1383.75 654.348ZM1390.98 643.476C1388.97 643.476 1387.28 641.856 1387.28 639.3C1387.28 636.744 1388.93 635.232 1390.98 635.232C1393.04 635.232 1394.69 636.744 1394.69 639.3C1394.69 641.856 1393 643.476 1390.98 643.476ZM1402.97 651H1405.92V638.328C1407.69 636.564 1408.91 635.628 1410.71 635.628C1413.02 635.628 1414.02 637.032 1414.02 640.308V651H1416.98V639.912C1416.98 635.448 1415.32 633.072 1411.65 633.072C1409.24 633.072 1407.44 634.368 1405.78 636.024H1405.67L1405.42 633.504H1402.97V651ZM1421.11 642.288C1421.11 648.012 1424.82 651.432 1429.5 651.432C1431.88 651.432 1433.75 650.604 1435.26 649.632L1434.22 647.688C1432.92 648.516 1431.52 649.056 1429.86 649.056C1426.51 649.056 1424.25 646.68 1424.03 642.9H1435.84C1435.91 642.468 1435.95 641.892 1435.95 641.28C1435.95 636.276 1433.43 633.072 1428.96 633.072C1424.97 633.072 1421.11 636.564 1421.11 642.288ZM1423.99 640.956C1424.35 637.428 1426.59 635.412 1429.03 635.412C1431.77 635.412 1433.35 637.392 1433.35 640.956H1423.99ZM1438.76 642.288C1438.76 648.12 1441.6 651.432 1445.99 651.432C1448.05 651.432 1449.92 650.28 1451.29 648.948H1451.39L1451.65 651H1454.09V625.368H1451.11V632.1L1451.25 635.088C1449.7 633.828 1448.37 633.072 1446.35 633.072C1442.36 633.072 1438.76 636.6 1438.76 642.288ZM1441.82 642.252C1441.82 638.256 1444.05 635.556 1446.86 635.556C1448.3 635.556 1449.63 636.06 1451.11 637.392V646.536C1449.67 648.156 1448.26 648.948 1446.64 648.948C1443.58 648.948 1441.82 646.428 1441.82 642.252ZM1302.95 707H1310.47C1315.77 707 1319.44 704.732 1319.44 700.088C1319.44 696.848 1317.42 694.976 1313.97 694.436V694.292C1316.74 693.572 1318.07 691.484 1318.07 689.144C1318.07 685.004 1314.76 683.384 1309.97 683.384H1302.95V707ZM1305.94 693.464V685.76H1309.57C1313.25 685.76 1315.12 686.84 1315.12 689.396C1315.12 692.024 1313.46 693.464 1309.43 693.464H1305.94ZM1305.94 704.624V695.696H1310.04C1314.18 695.696 1316.49 697.028 1316.49 699.944C1316.49 703.148 1314.11 704.624 1310.04 704.624H1305.94ZM1322.28 698.288C1322.28 704.012 1325.99 707.432 1330.67 707.432C1333.05 707.432 1334.92 706.604 1336.43 705.632L1335.39 703.688C1334.09 704.516 1332.69 705.056 1331.03 705.056C1327.68 705.056 1325.41 702.68 1325.2 698.9H1337.01C1337.08 698.468 1337.11 697.892 1337.11 697.28C1337.11 692.276 1334.59 689.072 1330.13 689.072C1326.13 689.072 1322.28 692.564 1322.28 698.288ZM1325.16 696.956C1325.52 693.428 1327.75 691.412 1330.2 691.412C1332.94 691.412 1334.52 693.392 1334.52 696.956H1325.16ZM1346.77 703.94C1348.83 706.064 1351.74 707.432 1355.05 707.432C1360.02 707.432 1363.08 704.444 1363.08 700.7C1363.08 697.208 1360.96 695.588 1358.22 694.4L1354.87 692.96C1353 692.168 1350.95 691.304 1350.95 689.036C1350.95 686.912 1352.71 685.58 1355.34 685.58C1357.54 685.58 1359.27 686.444 1360.71 687.812L1362.33 685.868C1360.63 684.14 1358.15 682.952 1355.34 682.952C1351.06 682.952 1347.93 685.616 1347.93 689.216C1347.93 692.672 1350.48 694.364 1352.71 695.3L1356.1 696.776C1358.33 697.784 1360.02 698.54 1360.02 700.952C1360.02 703.256 1358.19 704.804 1355.09 704.804C1352.64 704.804 1350.27 703.616 1348.57 701.852L1346.77 703.94ZM1367.7 701.6C1367.7 705.056 1368.96 707.432 1372.7 707.432C1373.78 707.432 1374.97 707.108 1375.94 706.784L1375.37 704.552C1374.79 704.768 1374 705.02 1373.39 705.02C1371.37 705.02 1370.69 703.796 1370.69 701.636V691.916H1375.4V689.504H1370.69V684.608H1368.2L1367.84 689.504L1365.11 689.684V691.916H1367.7V701.6ZM1379.11 707H1382.06V695.768C1383.25 692.816 1385.01 691.736 1386.49 691.736C1387.21 691.736 1387.6 691.844 1388.18 692.024L1388.76 689.432C1388.18 689.18 1387.64 689.072 1386.88 689.072C1384.9 689.072 1383.1 690.476 1381.92 692.672H1381.81L1381.56 689.504H1379.11V707ZM1391.09 700.592C1391.09 705.056 1392.74 707.432 1396.45 707.432C1398.86 707.432 1400.59 706.172 1402.21 704.264H1402.32L1402.57 707H1405.02V689.504H1402.07V701.924C1400.41 703.976 1399.15 704.876 1397.35 704.876C1395.05 704.876 1394.07 703.472 1394.07 700.196V689.504H1391.09V700.592ZM1409.37 698.288C1409.37 704.084 1412.94 707.432 1417.58 707.432C1419.67 707.432 1421.69 706.568 1423.27 705.164L1421.94 703.22C1420.89 704.156 1419.49 704.984 1417.83 704.984C1414.63 704.984 1412.43 702.284 1412.43 698.288C1412.43 694.256 1414.74 691.52 1417.91 691.52C1419.31 691.52 1420.39 692.168 1421.43 693.068L1422.91 691.16C1421.72 690.044 1420.1 689.072 1417.8 689.072C1413.3 689.072 1409.37 692.42 1409.37 698.288ZM1427.34 701.6C1427.34 705.056 1428.6 707.432 1432.35 707.432C1433.43 707.432 1434.61 707.108 1435.59 706.784L1435.01 704.552C1434.43 704.768 1433.64 705.02 1433.03 705.02C1431.01 705.02 1430.33 703.796 1430.33 701.636V691.916H1435.05V689.504H1430.33V684.608H1427.85L1427.49 689.504L1424.75 689.684V691.916H1427.34V701.6ZM1438.29 700.592C1438.29 705.056 1439.95 707.432 1443.65 707.432C1446.07 707.432 1447.79 706.172 1449.41 704.264H1449.52L1449.77 707H1452.22V689.504H1449.27V701.924C1447.61 703.976 1446.35 704.876 1444.55 704.876C1442.25 704.876 1441.28 703.472 1441.28 700.196V689.504H1438.29V700.592ZM1457.87 707H1460.83V695.768C1462.01 692.816 1463.78 691.736 1465.25 691.736C1465.97 691.736 1466.37 691.844 1466.95 692.024L1467.52 689.432C1466.95 689.18 1466.41 689.072 1465.65 689.072C1463.67 689.072 1461.87 690.476 1460.68 692.672H1460.57L1460.32 689.504H1457.87V707ZM1468.46 698.288C1468.46 704.012 1472.16 707.432 1476.84 707.432C1479.22 707.432 1481.09 706.604 1482.6 705.632L1481.56 703.688C1480.26 704.516 1478.86 705.056 1477.2 705.056C1473.86 705.056 1471.59 702.68 1471.37 698.9H1483.18C1483.25 698.468 1483.29 697.892 1483.29 697.28C1483.29 692.276 1480.77 689.072 1476.3 689.072C1472.31 689.072 1468.46 692.564 1468.46 698.288ZM1471.34 696.956C1471.7 693.428 1473.93 691.412 1476.38 691.412C1479.11 691.412 1480.7 693.392 1480.7 696.956H1471.34ZM1486.1 698.288C1486.1 704.12 1488.95 707.432 1493.34 707.432C1495.39 707.432 1497.26 706.28 1498.63 704.948H1498.74L1498.99 707H1501.44V681.368H1498.45V688.1L1498.59 691.088C1497.05 689.828 1495.71 689.072 1493.7 689.072C1489.7 689.072 1486.1 692.6 1486.1 698.288ZM1489.16 698.252C1489.16 694.256 1491.39 691.556 1494.2 691.556C1495.64 691.556 1496.97 692.06 1498.45 693.392V702.536C1497.01 704.156 1495.61 704.948 1493.99 704.948C1490.93 704.948 1489.16 702.428 1489.16 698.252ZM1302.95 763H1310.47C1315.77 763 1319.44 760.732 1319.44 756.088C1319.44 752.848 1317.42 750.976 1313.97 750.436V750.292C1316.74 749.572 1318.07 747.484 1318.07 745.144C1318.07 741.004 1314.76 739.384 1309.97 739.384H1302.95V763ZM1305.94 749.464V741.76H1309.57C1313.25 741.76 1315.12 742.84 1315.12 745.396C1315.12 748.024 1313.46 749.464 1309.43 749.464H1305.94ZM1305.94 760.624V751.696H1310.04C1314.18 751.696 1316.49 753.028 1316.49 755.944C1316.49 759.148 1314.11 760.624 1310.04 760.624H1305.94ZM1322.28 754.288C1322.28 760.012 1325.99 763.432 1330.67 763.432C1333.05 763.432 1334.92 762.604 1336.43 761.632L1335.39 759.688C1334.09 760.516 1332.69 761.056 1331.03 761.056C1327.68 761.056 1325.41 758.68 1325.2 754.9H1337.01C1337.08 754.468 1337.11 753.892 1337.11 753.28C1337.11 748.276 1334.59 745.072 1330.13 745.072C1326.13 745.072 1322.28 748.564 1322.28 754.288ZM1325.16 752.956C1325.52 749.428 1327.75 747.412 1330.2 747.412C1332.94 747.412 1334.52 749.392 1334.52 752.956H1325.16ZM1348.5 763H1354.55C1361.68 763 1365.57 758.608 1365.57 751.084C1365.57 743.596 1361.68 739.384 1354.41 739.384H1348.5V763ZM1351.49 760.552V741.832H1354.19C1359.7 741.832 1362.47 745.144 1362.47 751.084C1362.47 757.06 1359.7 760.552 1354.19 760.552H1351.49ZM1369.25 758.464C1369.25 761.596 1371.44 763.432 1374.4 763.432C1376.56 763.432 1378.5 762.28 1380.19 760.912H1380.26L1380.52 763H1382.96V752.272C1382.96 747.916 1381.16 745.072 1376.88 745.072C1374.07 745.072 1371.62 746.296 1370 747.34L1371.19 749.392C1372.56 748.456 1374.36 747.52 1376.41 747.52C1379.26 747.52 1380.01 749.68 1380.01 751.912C1372.56 752.74 1369.25 754.648 1369.25 758.464ZM1372.16 758.248C1372.16 756.016 1374.14 754.576 1380.01 753.856V758.716C1378.32 760.228 1376.92 761.056 1375.22 761.056C1373.5 761.056 1372.16 760.228 1372.16 758.248ZM1388.79 757.6C1388.79 761.056 1390.05 763.432 1393.79 763.432C1394.87 763.432 1396.06 763.108 1397.03 762.784L1396.46 760.552C1395.88 760.768 1395.09 761.02 1394.48 761.02C1392.46 761.02 1391.78 759.796 1391.78 757.636V747.916H1396.49V745.504H1391.78V740.608H1389.29L1388.93 745.504L1386.2 745.684V747.916H1388.79V757.6ZM1398.7 758.464C1398.7 761.596 1400.9 763.432 1403.85 763.432C1406.01 763.432 1407.95 762.28 1409.65 760.912H1409.72L1409.97 763H1412.42V752.272C1412.42 747.916 1410.62 745.072 1406.33 745.072C1403.53 745.072 1401.08 746.296 1399.46 747.34L1400.65 749.392C1402.01 748.456 1403.81 747.52 1405.87 747.52C1408.71 747.52 1409.47 749.68 1409.47 751.912C1402.01 752.74 1398.7 754.648 1398.7 758.464ZM1401.62 758.248C1401.62 756.016 1403.6 754.576 1409.47 753.856V758.716C1407.77 760.228 1406.37 761.056 1404.68 761.056C1402.95 761.056 1401.62 760.228 1401.62 758.248ZM1416.26 755.116H1424.54V752.848H1416.26V755.116ZM1428.95 763H1431.94V739.384H1428.95V763ZM1437.87 763H1440.83V750.328C1442.59 748.564 1443.81 747.628 1445.61 747.628C1447.92 747.628 1448.93 749.032 1448.93 752.308V763H1451.88V751.912C1451.88 747.448 1450.22 745.072 1446.55 745.072C1444.14 745.072 1442.34 746.368 1440.68 748.024H1440.57L1440.32 745.504H1437.87V763ZM1465.84 737.512C1465.05 737.188 1464.01 736.936 1462.93 736.936C1459.44 736.936 1457.82 739.168 1457.82 742.732V745.504L1455.44 745.684V747.916H1457.82V763H1460.77V747.916H1464.48V745.504H1460.77V742.732C1460.77 740.5 1461.56 739.348 1463.22 739.348C1463.86 739.348 1464.55 739.492 1465.2 739.78L1465.84 737.512ZM1465.93 754.288C1465.93 760.084 1469.74 763.432 1474.03 763.432C1478.31 763.432 1482.13 760.084 1482.13 754.288C1482.13 748.42 1478.31 745.072 1474.03 745.072C1469.74 745.072 1465.93 748.42 1465.93 754.288ZM1468.99 754.288C1468.99 750.256 1471.04 747.52 1474.03 747.52C1477.05 747.52 1479.07 750.256 1479.07 754.288C1479.07 758.284 1477.05 760.984 1474.03 760.984C1471.04 760.984 1468.99 758.284 1468.99 754.288ZM1486.48 763H1489.44V751.768C1490.62 748.816 1492.39 747.736 1493.86 747.736C1494.58 747.736 1494.98 747.844 1495.56 748.024L1496.13 745.432C1495.56 745.18 1495.02 745.072 1494.26 745.072C1492.28 745.072 1490.48 746.476 1489.29 748.672H1489.18L1488.93 745.504H1486.48V763ZM1498.71 763H1501.67V750.328C1503.29 748.528 1504.76 747.628 1506.06 747.628C1508.29 747.628 1509.33 749.032 1509.33 752.308V763H1512.29V750.328C1513.91 748.528 1515.31 747.628 1516.68 747.628C1518.87 747.628 1519.92 749.032 1519.92 752.308V763H1522.87V751.912C1522.87 747.448 1521.14 745.072 1517.54 745.072C1515.42 745.072 1513.62 746.44 1511.78 748.42C1511.06 746.332 1509.62 745.072 1506.96 745.072C1504.87 745.072 1503.03 746.368 1501.52 748.024H1501.41L1501.16 745.504H1498.71V763ZM1527.02 754.288C1527.02 760.012 1530.72 763.432 1535.4 763.432C1537.78 763.432 1539.65 762.604 1541.16 761.632L1540.12 759.688C1538.82 760.516 1537.42 761.056 1535.76 761.056C1532.42 761.056 1530.15 758.68 1529.93 754.9H1541.74C1541.81 754.468 1541.85 753.892 1541.85 753.28C1541.85 748.276 1539.33 745.072 1534.86 745.072C1530.87 745.072 1527.02 748.564 1527.02 754.288ZM1529.9 752.956C1530.26 749.428 1532.49 747.412 1534.94 747.412C1537.67 747.412 1539.26 749.392 1539.26 752.956H1529.9ZM1544.66 754.288C1544.66 760.12 1547.5 763.432 1551.9 763.432C1553.95 763.432 1555.82 762.28 1557.19 760.948H1557.3L1557.55 763H1560V737.368H1557.01V744.1L1557.15 747.088C1555.6 745.828 1554.27 745.072 1552.26 745.072C1548.26 745.072 1544.66 748.6 1544.66 754.288ZM1547.72 754.252C1547.72 750.256 1549.95 747.556 1552.76 747.556C1554.2 747.556 1555.53 748.06 1557.01 749.392V758.536C1555.57 760.156 1554.16 760.948 1552.54 760.948C1549.48 760.948 1547.72 758.428 1547.72 754.252Z" fill="#2B2B2B"/>
<path d="M1287.47 645.852C1289.63 645.852 1291.5 644.124 1291.5 641.532C1291.5 638.94 1289.63 637.176 1287.47 637.176C1285.31 637.176 1283.44 638.94 1283.44 641.532C1283.44 644.124 1285.31 645.852 1287.47 645.852ZM1287.47 701.852C1289.63 701.852 1291.5 700.124 1291.5 697.532C1291.5 694.94 1289.63 693.176 1287.47 693.176C1285.31 693.176 1283.44 694.94 1283.44 697.532C1283.44 700.124 1285.31 701.852 1287.47 701.852ZM1287.47 757.852C1289.63 757.852 1291.5 756.124 1291.5 753.532C1291.5 750.94 1289.63 749.176 1287.47 749.176C1285.31 749.176 1283.44 750.94 1283.44 753.532C1283.44 756.124 1285.31 757.852 1287.47 757.852Z" fill="#009CDE"/>
<path d="M260 501C315.228 501 360 456.228 360 401C360 345.772 315.228 301 260 301C204.772 301 160 345.772 160 401C160 456.228 204.772 501 260 501Z" stroke="#2B2B2B" stroke-width="6" stroke-miterlimit="10"/>
<path d="M257.354 367.973L259.5 370.171L261.646 367.973C273.296 356.043 291.926 354.667 303.813 364.718C319.474 377.982 317.247 399.661 306.023 411.203L265.945 452.273L265.944 452.274C264.22 454.043 261.955 455 259.5 455C257.08 455 254.788 454.028 253.056 452.251L253.055 452.25L212.975 411.178C201.734 399.64 199.545 377.962 215.187 364.719L215.188 364.718C227.072 354.647 245.701 356.04 257.354 367.973Z" stroke="#009CDE" stroke-width="6"/>
<path d="M821 501C876.228 501 921 456.228 921 401C921 345.772 876.228 301 821 301C765.772 301 721 345.772 721 401C721 456.228 765.772 501 821 501Z" stroke="#2B2B2B" stroke-width="6" stroke-miterlimit="10"/>
<path d="M793.5 462.5C830 465.5 839 437.5 835 421C831 404.5 836.5 388 857 384.5" stroke="#6A6A6A" stroke-width="3" stroke-linecap="round" stroke-dasharray="4 8"/>
<path d="M861.907 382.132C850.177 364.442 848 362.626 848 356.125C848 347.219 854.94 340 863.5 340C872.06 340 879 347.219 879 356.125C879 362.626 876.823 364.442 865.093 382.132C864.323 383.289 862.677 383.289 861.907 382.132ZM863.5 362.844C867.067 362.844 869.958 359.836 869.958 356.125C869.958 352.414 867.067 349.406 863.5 349.406C859.933 349.406 857.042 352.414 857.042 356.125C857.042 359.836 859.933 362.844 863.5 362.844Z" fill="#009CDE"/>
<path d="M784.085 458.689C766.301 431.947 763 429.203 763 419.375C763 405.913 773.521 395 786.5 395C799.479 395 810 405.913 810 419.375C810 429.203 806.699 431.947 788.915 458.689C787.748 460.437 785.252 460.437 784.085 458.689ZM786.5 429.531C791.908 429.531 796.292 424.984 796.292 419.375C796.292 413.766 791.908 409.219 786.5 409.219C781.092 409.219 776.708 413.766 776.708 419.375C776.708 424.984 781.092 429.531 786.5 429.531Z" fill="#2B2B2B"/>
<path d="M1382 501C1437.23 501 1482 456.228 1482 401C1482 345.772 1437.23 301 1382 301C1326.77 301 1282 345.772 1282 401C1282 456.228 1326.77 501 1382 501Z" stroke="#2B2B2B" stroke-width="6" stroke-miterlimit="10"/>
<path d="M1382 455.76C1412.24 455.76 1436.76 431.243 1436.76 401C1436.76 370.757 1412.24 346.24 1382 346.24C1351.76 346.24 1327.24 370.757 1327.24 401C1327.24 431.243 1351.76 455.76 1382 455.76Z" stroke="#2B2B2B" stroke-width="6" stroke-miterlimit="10"/>
<path d="M1514.4 427.764L1469.06 423.509L1461.45 409.119L1471.61 396.401L1516.95 400.654L1506.76 413.595L1514.4 427.764Z" fill="white" stroke="white" stroke-width="18" stroke-linecap="round" stroke-linejoin="round"/>
<path d="M1461.45 409.119L1382 401.665" stroke="white" stroke-width="18" stroke-linecap="round" stroke-linejoin="round"/>
<path d="M1502.96 341.169L1464.39 365.371L1449.59 358.584L1449.91 342.311L1488.49 318.1L1488.28 334.57L1502.96 341.169Z" fill="white" stroke="white" stroke-width="18" stroke-linecap="round" stroke-linejoin="round"/>
<path d="M1449.59 358.583L1382 401" stroke="white" stroke-width="18" stroke-linecap="round" stroke-linejoin="round"/>
<path d="M1382 418.855C1391.86 418.855 1399.86 410.861 1399.86 401C1399.86 391.139 1391.86 383.145 1382 383.145C1372.14 383.145 1364.15 391.139 1364.15 401C1364.15 410.861 1372.14 418.855 1382 418.855Z" fill="#009CDE"/>
<path d="M1502.96 341.169L1464.39 365.371L1449.59 358.584L1449.91 342.311L1488.49 318.1L1488.28 334.57L1502.96 341.169Z" fill="white" stroke="#2B2B2B" stroke-width="9" stroke-linecap="round" stroke-linejoin="round"/>
<path d="M1449.59 358.583L1382 401" stroke="#2B2B2B" stroke-width="9" stroke-linecap="round" stroke-linejoin="round"/>
<path d="M1514.4 427.764L1469.06 423.509L1461.45 409.119L1471.61 396.401L1516.95 400.654L1506.76 413.595L1514.4 427.764Z" fill="white" stroke="#2B2B2B" stroke-width="9" stroke-linecap="round" stroke-linejoin="round"/>
<path d="M1461.45 409.119L1382 401.665" stroke="#2B2B2B" stroke-width="9" stroke-linecap="round" stroke-linejoin="round"/>
</svg>
