<svg width="1920" height="1080" viewBox="0 0 1920 1080" fill="none" xmlns="http://www.w3.org/2000/svg">
<rect width="1920" height="1080" fill="white"/>
<rect x="275" y="236" width="438" height="286" rx="21" fill="white" stroke="#2B2B2B" stroke-width="6"/>
<rect x="275" y="552" width="438" height="286" rx="21" fill="white" stroke="#2B2B2B" stroke-width="6"/>
<rect x="741" y="236" width="438" height="286" rx="21" fill="white" stroke="#2B2B2B" stroke-width="6"/>
<rect x="741" y="552" width="438" height="286" rx="21" fill="white" stroke="#2B2B2B" stroke-width="6"/>
<rect x="1207" y="236" width="438" height="286" rx="21" fill="white" stroke="#2B2B2B" stroke-width="6"/>
<rect x="1207" y="552" width="438" height="286" rx="21" fill="white" stroke="#2B2B2B" stroke-width="6"/>
<path d="M366.347 332.408C366.347 340.292 371.315 344.432 377.399 344.432C380.315 344.432 382.907 343.244 384.851 340.976L381.935 337.772C380.783 339.032 379.379 339.86 377.471 339.86C374.015 339.86 371.783 337.052 371.783 332.228C371.783 327.512 374.339 324.668 377.615 324.668C379.235 324.668 380.387 325.352 381.575 326.432L384.491 323.156C382.907 321.536 380.459 320.096 377.543 320.096C371.495 320.096 366.347 324.632 366.347 332.408ZM386.691 335.072C386.691 341.012 390.867 344.432 395.403 344.432C399.903 344.432 404.079 341.012 404.079 335.072C404.079 329.132 399.903 325.712 395.403 325.712C390.867 325.712 386.691 329.132 386.691 335.072ZM392.127 335.072C392.127 331.976 393.207 329.996 395.403 329.996C397.563 329.996 398.679 331.976 398.679 335.072C398.679 338.168 397.563 340.148 395.403 340.148C393.207 340.148 392.127 338.168 392.127 335.072ZM407.453 344H412.745V331.94C413.861 330.788 414.905 330.212 415.769 330.212C417.281 330.212 417.965 331.004 417.965 333.596V344H423.257V331.94C424.409 330.788 425.417 330.212 426.317 330.212C427.829 330.212 428.513 331.004 428.513 333.596V344H433.805V332.912C433.805 328.448 432.077 325.712 428.225 325.712C425.849 325.712 424.193 327.08 422.609 328.7C421.709 326.792 420.197 325.712 417.677 325.712C415.337 325.712 413.753 326.972 412.277 328.448H412.133L411.773 326.144H407.453V344ZM438.07 344H442.21L442.642 342.128H442.786C444.19 343.64 445.846 344.432 447.43 344.432C451.282 344.432 454.954 340.904 454.954 334.748C454.954 329.276 452.254 325.712 447.934 325.712C446.278 325.712 444.586 326.468 443.218 327.692L443.362 324.956V318.764H438.07V344ZM443.362 338.96V331.652C444.37 330.536 445.342 330.032 446.422 330.032C448.546 330.032 449.518 331.652 449.518 334.856C449.518 338.528 448.042 340.112 446.206 340.112C445.306 340.112 444.298 339.824 443.362 338.96ZM461.085 323.516C462.885 323.516 464.145 322.364 464.145 320.744C464.145 319.124 462.885 318.008 461.085 318.008C459.321 318.008 458.025 319.124 458.025 320.744C458.025 322.364 459.321 323.516 461.085 323.516ZM458.457 344H463.749V326.144H458.457V344ZM468.156 344H473.448V331.94C474.6 330.824 475.428 330.212 476.76 330.212C478.272 330.212 478.956 331.004 478.956 333.596V344H484.248V332.912C484.248 328.448 482.592 325.712 478.704 325.712C476.292 325.712 474.492 326.972 472.98 328.412H472.836L472.476 326.144H468.156V344ZM487.464 335.072C487.464 340.976 491.388 344.432 496.5 344.432C498.624 344.432 501 343.676 502.836 342.416L501.072 339.212C499.776 340.004 498.552 340.4 497.22 340.4C494.844 340.4 493.044 339.212 492.576 336.512H503.268C503.376 336.08 503.484 335.216 503.484 334.28C503.484 329.42 500.964 325.712 495.888 325.712C491.604 325.712 487.464 329.276 487.464 335.072ZM492.54 333.236C492.9 330.86 494.34 329.744 495.996 329.744C498.12 329.744 498.984 331.184 498.984 333.236H492.54ZM505.307 341.948C507.107 343.424 509.807 344.432 512.147 344.432C516.935 344.432 519.491 341.912 519.491 338.672C519.491 335.396 516.935 334.136 514.667 333.308C512.831 332.624 511.175 332.192 511.175 331.04C511.175 330.14 511.823 329.636 513.191 329.636C514.451 329.636 515.675 330.212 516.971 331.148L519.347 327.98C517.799 326.828 515.783 325.712 513.047 325.712C508.907 325.712 506.207 327.98 506.207 331.292C506.207 334.244 508.763 335.72 510.923 336.548C512.759 337.268 514.559 337.808 514.559 338.996C514.559 339.932 513.875 340.508 512.291 340.508C510.779 340.508 509.303 339.86 507.683 338.636L505.307 341.948Z" fill="#009CDE"/>
<path d="M534.021 344H537.477L543.669 326.504H540.753L537.441 336.44C536.937 338.168 536.361 339.932 535.857 341.588H535.713C535.173 339.932 534.597 338.168 534.093 336.44L530.781 326.504H527.721L534.021 344ZM548.308 322.904C549.46 322.904 550.36 322.112 550.36 320.996C550.36 319.844 549.46 319.088 548.308 319.088C547.156 319.088 546.256 319.844 546.256 320.996C546.256 322.112 547.156 322.904 548.308 322.904ZM546.796 344H549.748V326.504H546.796V344ZM553.461 342.02C555.117 343.388 557.493 344.432 559.977 344.432C564.117 344.432 566.385 342.056 566.385 339.212C566.385 335.9 563.577 334.856 561.057 333.92C559.077 333.164 557.169 332.552 557.169 330.896C557.169 329.564 558.177 328.376 560.373 328.376C561.921 328.376 563.181 329.024 564.369 329.924L565.773 328.052C564.441 326.972 562.533 326.072 560.337 326.072C556.557 326.072 554.325 328.232 554.325 331.04C554.325 333.992 557.061 335.18 559.545 336.08C561.453 336.8 563.541 337.592 563.541 339.392C563.541 340.904 562.389 342.128 560.085 342.128C557.997 342.128 556.449 341.264 554.937 340.04L553.461 342.02ZM571.749 322.904C572.901 322.904 573.801 322.112 573.801 320.996C573.801 319.844 572.901 319.088 571.749 319.088C570.597 319.088 569.697 319.844 569.697 320.996C569.697 322.112 570.597 322.904 571.749 322.904ZM570.237 344H573.189V326.504H570.237V344ZM577.551 335.288C577.551 341.084 581.367 344.432 585.651 344.432C589.935 344.432 593.751 341.084 593.751 335.288C593.751 329.42 589.935 326.072 585.651 326.072C581.367 326.072 577.551 329.42 577.551 335.288ZM580.611 335.288C580.611 331.256 582.663 328.52 585.651 328.52C588.675 328.52 590.691 331.256 590.691 335.288C590.691 339.284 588.675 341.984 585.651 341.984C582.663 341.984 580.611 339.284 580.611 335.288ZM598.108 344H601.06V331.328C602.824 329.564 604.048 328.628 605.848 328.628C608.152 328.628 609.16 330.032 609.16 333.308V344H612.112V332.912C612.112 328.448 610.456 326.072 606.784 326.072C604.372 326.072 602.572 327.368 600.916 329.024H600.808L600.556 326.504H598.108V344ZM617.006 350.12C619.922 348.896 621.722 346.484 621.722 343.388C621.722 341.228 620.786 339.896 619.238 339.896C618.05 339.896 617.042 340.688 617.042 341.984C617.042 343.316 618.014 344.036 619.166 344.036C619.274 344.036 619.418 344.036 619.526 344C619.526 345.944 618.302 347.492 616.286 348.392L617.006 350.12ZM306.579 392H309.531V379.328C311.151 377.528 312.627 376.628 313.923 376.628C316.155 376.628 317.199 378.032 317.199 381.308V392H320.151V379.328C321.771 377.528 323.175 376.628 324.543 376.628C326.739 376.628 327.783 378.032 327.783 381.308V392H330.735V380.912C330.735 376.448 329.007 374.072 325.407 374.072C323.283 374.072 321.483 375.44 319.647 377.42C318.927 375.332 317.487 374.072 314.823 374.072C312.735 374.072 310.899 375.368 309.387 377.024H309.279L309.027 374.504H306.579V392ZM337.689 370.904C338.841 370.904 339.741 370.112 339.741 368.996C339.741 367.844 338.841 367.088 337.689 367.088C336.537 367.088 335.637 367.844 335.637 368.996C335.637 370.112 336.537 370.904 337.689 370.904ZM336.177 392H339.129V374.504H336.177V392ZM342.842 390.02C344.498 391.388 346.874 392.432 349.358 392.432C353.498 392.432 355.766 390.056 355.766 387.212C355.766 383.9 352.958 382.856 350.438 381.92C348.458 381.164 346.55 380.552 346.55 378.896C346.55 377.564 347.558 376.376 349.754 376.376C351.302 376.376 352.562 377.024 353.75 377.924L355.154 376.052C353.822 374.972 351.914 374.072 349.718 374.072C345.938 374.072 343.706 376.232 343.706 379.04C343.706 381.992 346.442 383.18 348.926 384.08C350.834 384.8 352.922 385.592 352.922 387.392C352.922 388.904 351.77 390.128 349.466 390.128C347.378 390.128 345.83 389.264 344.318 388.04L342.842 390.02ZM357.674 390.02C359.33 391.388 361.706 392.432 364.19 392.432C368.33 392.432 370.598 390.056 370.598 387.212C370.598 383.9 367.79 382.856 365.27 381.92C363.29 381.164 361.382 380.552 361.382 378.896C361.382 377.564 362.39 376.376 364.586 376.376C366.134 376.376 367.394 377.024 368.582 377.924L369.986 376.052C368.654 374.972 366.746 374.072 364.55 374.072C360.77 374.072 358.538 376.232 358.538 379.04C358.538 381.992 361.274 383.18 363.758 384.08C365.666 384.8 367.754 385.592 367.754 387.392C367.754 388.904 366.602 390.128 364.298 390.128C362.21 390.128 360.662 389.264 359.15 388.04L357.674 390.02ZM375.962 370.904C377.114 370.904 378.014 370.112 378.014 368.996C378.014 367.844 377.114 367.088 375.962 367.088C374.81 367.088 373.91 367.844 373.91 368.996C373.91 370.112 374.81 370.904 375.962 370.904ZM374.45 392H377.402V374.504H374.45V392ZM381.763 383.288C381.763 389.084 385.579 392.432 389.863 392.432C394.147 392.432 397.963 389.084 397.963 383.288C397.963 377.42 394.147 374.072 389.863 374.072C385.579 374.072 381.763 377.42 381.763 383.288ZM384.823 383.288C384.823 379.256 386.875 376.52 389.863 376.52C392.887 376.52 394.903 379.256 394.903 383.288C394.903 387.284 392.887 389.984 389.863 389.984C386.875 389.984 384.823 387.284 384.823 383.288ZM402.321 392H405.273V379.328C407.037 377.564 408.261 376.628 410.061 376.628C412.365 376.628 413.373 378.032 413.373 381.308V392H416.325V380.912C416.325 376.448 414.669 374.072 410.997 374.072C408.585 374.072 406.785 375.368 405.129 377.024H405.021L404.769 374.504H402.321V392ZM421.219 398.12C424.135 396.896 425.935 394.484 425.935 391.388C425.935 389.228 424.999 387.896 423.451 387.896C422.263 387.896 421.255 388.688 421.255 389.984C421.255 391.316 422.227 392.036 423.379 392.036C423.487 392.036 423.631 392.036 423.739 392C423.739 393.944 422.515 395.492 420.499 396.392L421.219 398.12ZM441.281 392H444.737L450.929 374.504H448.013L444.701 384.44C444.197 386.168 443.621 387.932 443.117 389.588H442.973C442.433 387.932 441.857 386.168 441.353 384.44L438.041 374.504H434.981L441.281 392ZM452.488 387.464C452.488 390.596 454.684 392.432 457.636 392.432C459.796 392.432 461.74 391.28 463.432 389.912H463.504L463.756 392H466.204V381.272C466.204 376.916 464.404 374.072 460.12 374.072C457.312 374.072 454.864 375.296 453.244 376.34L454.432 378.392C455.8 377.456 457.6 376.52 459.652 376.52C462.496 376.52 463.252 378.68 463.252 380.912C455.8 381.74 452.488 383.648 452.488 387.464ZM455.404 387.248C455.404 385.016 457.384 383.576 463.252 382.856V387.716C461.56 389.228 460.156 390.056 458.464 390.056C456.736 390.056 455.404 389.228 455.404 387.248ZM471.524 388.472C471.524 391.028 472.424 392.432 474.656 392.432C475.448 392.432 475.952 392.324 476.348 392.144L475.952 389.912C475.628 389.984 475.484 389.984 475.304 389.984C474.872 389.984 474.476 389.624 474.476 388.688V366.368H471.524V388.472ZM480.198 385.592C480.198 390.056 481.854 392.432 485.562 392.432C487.974 392.432 489.702 391.172 491.322 389.264H491.43L491.682 392H494.13V374.504H491.178V386.924C489.522 388.976 488.262 389.876 486.462 389.876C484.158 389.876 483.186 388.472 483.186 385.196V374.504H480.198V385.592ZM498.486 383.288C498.486 389.012 502.194 392.432 506.874 392.432C509.25 392.432 511.122 391.604 512.634 390.632L511.59 388.688C510.294 389.516 508.89 390.056 507.234 390.056C503.886 390.056 501.618 387.68 501.402 383.9H513.21C513.282 383.468 513.318 382.892 513.318 382.28C513.318 377.276 510.798 374.072 506.334 374.072C502.338 374.072 498.486 377.564 498.486 383.288ZM501.366 381.956C501.726 378.428 503.958 376.412 506.406 376.412C509.142 376.412 510.726 378.392 510.726 381.956H501.366ZM515.447 390.02C517.103 391.388 519.479 392.432 521.963 392.432C526.103 392.432 528.371 390.056 528.371 387.212C528.371 383.9 525.563 382.856 523.043 381.92C521.063 381.164 519.155 380.552 519.155 378.896C519.155 377.564 520.163 376.376 522.359 376.376C523.907 376.376 525.167 377.024 526.355 377.924L527.759 376.052C526.427 374.972 524.519 374.072 522.323 374.072C518.543 374.072 516.311 376.232 516.311 379.04C516.311 381.992 519.047 383.18 521.531 384.08C523.439 384.8 525.527 385.592 525.527 387.392C525.527 388.904 524.375 390.128 522.071 390.128C519.983 390.128 518.435 389.264 516.923 388.04L515.447 390.02ZM540.331 385.7C540.331 383.864 541.627 382.46 543.283 381.128C544.939 383.648 547.171 386.132 549.475 388.148C548.107 389.336 546.595 390.056 544.975 390.056C542.383 390.056 540.331 388.328 540.331 385.7ZM543.103 373.496C543.103 371.552 544.255 370.076 546.019 370.076C547.603 370.076 548.251 371.3 548.251 372.668C548.251 374.756 546.379 376.196 544.219 377.636C543.535 376.196 543.103 374.792 543.103 373.496ZM557.683 389.984C556.387 389.624 554.875 388.832 553.255 387.716C555.127 385.232 556.459 382.352 557.395 379.256H554.623C553.903 381.956 552.751 384.296 551.311 386.24C549.079 384.368 546.883 382.028 545.335 379.616C547.963 377.708 550.663 375.728 550.663 372.632C550.663 369.86 548.935 367.952 546.019 367.952C542.743 367.952 540.547 370.4 540.547 373.532C540.547 375.26 541.123 377.132 542.095 379.076C539.683 380.732 537.451 382.712 537.451 385.88C537.451 389.696 540.367 392.432 544.651 392.432C547.423 392.432 549.655 391.352 551.455 389.732C553.363 391.064 555.235 391.964 556.891 392.432L557.683 389.984ZM566.022 390.02C567.678 391.388 570.054 392.432 572.538 392.432C576.678 392.432 578.946 390.056 578.946 387.212C578.946 383.9 576.138 382.856 573.618 381.92C571.638 381.164 569.73 380.552 569.73 378.896C569.73 377.564 570.738 376.376 572.934 376.376C574.482 376.376 575.742 377.024 576.93 377.924L578.334 376.052C577.002 374.972 575.094 374.072 572.898 374.072C569.118 374.072 566.886 376.232 566.886 379.04C566.886 381.992 569.622 383.18 572.106 384.08C574.014 384.8 576.102 385.592 576.102 387.392C576.102 388.904 574.95 390.128 572.646 390.128C570.558 390.128 569.01 389.264 567.498 388.04L566.022 390.02ZM583.302 386.6C583.302 390.056 584.562 392.432 588.306 392.432C589.386 392.432 590.574 392.108 591.546 391.784L590.97 389.552C590.394 389.768 589.602 390.02 588.99 390.02C586.974 390.02 586.29 388.796 586.29 386.636V376.916H591.006V374.504H586.29V369.608H583.806L583.446 374.504L580.71 374.684V376.916H583.302V386.6ZM594.712 392H597.664V380.768C598.852 377.816 600.616 376.736 602.092 376.736C602.812 376.736 603.208 376.844 603.784 377.024L604.36 374.432C603.784 374.18 603.244 374.072 602.488 374.072C600.508 374.072 598.708 375.476 597.52 377.672H597.412L597.16 374.504H594.712V392ZM605.164 387.464C605.164 390.596 607.36 392.432 610.312 392.432C612.472 392.432 614.416 391.28 616.108 389.912H616.18L616.432 392H618.88V381.272C618.88 376.916 617.08 374.072 612.796 374.072C609.988 374.072 607.54 375.296 605.92 376.34L607.108 378.392C608.476 377.456 610.276 376.52 612.328 376.52C615.172 376.52 615.928 378.68 615.928 380.912C608.476 381.74 605.164 383.648 605.164 387.464ZM608.08 387.248C608.08 385.016 610.06 383.576 615.928 382.856V387.716C614.236 389.228 612.832 390.056 611.14 390.056C609.412 390.056 608.08 389.228 608.08 387.248ZM624.704 386.6C624.704 390.056 625.964 392.432 629.708 392.432C630.788 392.432 631.976 392.108 632.948 391.784L632.372 389.552C631.796 389.768 631.004 390.02 630.392 390.02C628.376 390.02 627.692 388.796 627.692 386.636V376.916H632.408V374.504H627.692V369.608H625.208L624.848 374.504L622.112 374.684V376.916H624.704V386.6ZM634.467 383.288C634.467 389.012 638.175 392.432 642.855 392.432C645.231 392.432 647.103 391.604 648.615 390.632L647.571 388.688C646.275 389.516 644.871 390.056 643.215 390.056C639.867 390.056 637.599 387.68 637.383 383.9H649.191C649.263 383.468 649.299 382.892 649.299 382.28C649.299 377.276 646.779 374.072 642.315 374.072C638.319 374.072 634.467 377.564 634.467 383.288ZM637.347 381.956C637.707 378.428 639.939 376.412 642.387 376.412C645.123 376.412 646.707 378.392 646.707 381.956H637.347ZM654.28 394.952C654.28 393.944 654.82 392.9 656.08 392C656.836 392.216 657.664 392.288 658.348 392.288H661.372C663.64 392.288 664.9 392.828 664.9 394.448C664.9 396.284 662.704 398.012 659.356 398.012C656.188 398.012 654.28 396.824 654.28 394.952ZM651.688 395.348C651.688 398.372 654.64 400.064 658.924 400.064C664.36 400.064 667.78 397.256 667.78 394.016C667.78 391.1 665.728 389.84 661.66 389.84H658.276C655.9 389.84 655.18 389.048 655.18 387.932C655.18 386.96 655.684 386.384 656.296 385.844C657.088 386.24 658.06 386.456 658.924 386.456C662.488 386.456 665.332 384.116 665.332 380.372C665.332 378.896 664.72 377.564 663.892 376.772H667.492V374.504H661.408C660.76 374.252 659.896 374.072 658.924 374.072C655.36 374.072 652.336 376.484 652.336 380.3C652.336 382.388 653.452 384.08 654.604 385.016V385.16C653.704 385.772 652.696 386.924 652.696 388.4C652.696 389.768 653.38 390.704 654.244 391.244V391.388C652.66 392.468 651.688 393.872 651.688 395.348ZM658.924 384.476C656.908 384.476 655.216 382.856 655.216 380.3C655.216 377.744 656.872 376.232 658.924 376.232C660.976 376.232 662.632 377.744 662.632 380.3C662.632 382.856 660.94 384.476 658.924 384.476ZM669.582 396.824L669.006 399.164C669.582 399.38 670.266 399.524 671.058 399.524C674.586 399.524 676.386 396.896 677.61 393.44L684.198 374.504H681.318L678.186 384.188C677.718 385.736 677.214 387.536 676.71 389.12H676.566C676.026 387.5 675.414 385.7 674.874 384.188L671.31 374.504H668.25L675.27 392.036L674.874 393.332C674.154 395.492 672.894 397.076 670.914 397.076C670.482 397.076 669.942 396.932 669.582 396.824ZM341.699 440H345.155L347.603 430.64C348.071 428.984 348.431 427.328 348.827 425.564H348.971C349.403 427.328 349.727 428.948 350.159 430.604L352.679 440H356.279L360.959 422.504H358.151L355.595 432.62C355.235 434.276 354.911 435.86 354.515 437.48H354.371C353.975 435.86 353.579 434.276 353.147 432.62L350.411 422.504H347.531L344.831 432.62C344.399 434.24 344.039 435.86 343.643 437.48H343.499C343.175 435.86 342.851 434.276 342.455 432.62L339.863 422.504H336.839L341.699 440ZM366.028 418.904C367.18 418.904 368.08 418.112 368.08 416.996C368.08 415.844 367.18 415.088 366.028 415.088C364.876 415.088 363.976 415.844 363.976 416.996C363.976 418.112 364.876 418.904 366.028 418.904ZM364.516 440H367.468V422.504H364.516V440ZM373.63 434.6C373.63 438.056 374.89 440.432 378.634 440.432C379.714 440.432 380.902 440.108 381.874 439.784L381.298 437.552C380.722 437.768 379.93 438.02 379.318 438.02C377.302 438.02 376.618 436.796 376.618 434.636V424.916H381.334V422.504H376.618V417.608H374.134L373.774 422.504L371.038 422.684V424.916H373.63V434.6ZM385.04 440H387.992V427.328C389.756 425.564 390.98 424.628 392.78 424.628C395.084 424.628 396.092 426.032 396.092 429.308V440H399.044V428.912C399.044 424.448 397.388 422.072 393.716 422.072C391.304 422.072 389.54 423.368 387.884 424.952L387.992 421.352V414.368H385.04V440ZM410.139 431.288C410.139 437.12 412.983 440.432 417.375 440.432C419.427 440.432 421.299 439.28 422.667 437.948H422.775L423.027 440H425.475V414.368H422.487V421.1L422.631 424.088C421.083 422.828 419.751 422.072 417.735 422.072C413.739 422.072 410.139 425.6 410.139 431.288ZM413.199 431.252C413.199 427.256 415.431 424.556 418.239 424.556C419.679 424.556 421.011 425.06 422.487 426.392V435.536C421.047 437.156 419.643 437.948 418.023 437.948C414.963 437.948 413.199 435.428 413.199 431.252ZM430.254 435.464C430.254 438.596 432.45 440.432 435.402 440.432C437.562 440.432 439.506 439.28 441.198 437.912H441.27L441.522 440H443.97V429.272C443.97 424.916 442.17 422.072 437.886 422.072C435.078 422.072 432.63 423.296 431.01 424.34L432.198 426.392C433.566 425.456 435.366 424.52 437.418 424.52C440.262 424.52 441.018 426.68 441.018 428.912C433.566 429.74 430.254 431.648 430.254 435.464ZM433.17 435.248C433.17 433.016 435.15 431.576 441.018 430.856V435.716C439.326 437.228 437.922 438.056 436.23 438.056C434.502 438.056 433.17 437.228 433.17 435.248ZM448.102 444.824L447.526 447.164C448.102 447.38 448.786 447.524 449.578 447.524C453.106 447.524 454.906 444.896 456.13 441.44L462.718 422.504H459.838L456.706 432.188C456.238 433.736 455.734 435.536 455.23 437.12H455.086C454.546 435.5 453.934 433.7 453.394 432.188L449.83 422.504H446.77L453.79 440.036L453.394 441.332C452.674 443.492 451.414 445.076 449.434 445.076C449.002 445.076 448.462 444.932 448.102 444.824ZM464.369 432.116H472.649V429.848H464.369V432.116ZM477.278 434.6C477.278 438.056 478.538 440.432 482.282 440.432C483.362 440.432 484.55 440.108 485.522 439.784L484.946 437.552C484.37 437.768 483.578 438.02 482.966 438.02C480.95 438.02 480.266 436.796 480.266 434.636V424.916H484.982V422.504H480.266V417.608H477.782L477.422 422.504L474.686 422.684V424.916H477.278V434.6ZM487.041 431.288C487.041 437.084 490.857 440.432 495.141 440.432C499.425 440.432 503.241 437.084 503.241 431.288C503.241 425.42 499.425 422.072 495.141 422.072C490.857 422.072 487.041 425.42 487.041 431.288ZM490.101 431.288C490.101 427.256 492.153 424.52 495.141 424.52C498.165 424.52 500.181 427.256 500.181 431.288C500.181 435.284 498.165 437.984 495.141 437.984C492.153 437.984 490.101 435.284 490.101 431.288ZM506.333 432.116H514.613V429.848H506.333V432.116ZM517.479 431.288C517.479 437.12 520.323 440.432 524.715 440.432C526.767 440.432 528.639 439.28 530.007 437.948H530.115L530.367 440H532.815V414.368H529.827V421.1L529.971 424.088C528.423 422.828 527.091 422.072 525.075 422.072C521.079 422.072 517.479 425.6 517.479 431.288ZM520.539 431.252C520.539 427.256 522.771 424.556 525.579 424.556C527.019 424.556 528.351 425.06 529.827 426.392V435.536C528.387 437.156 526.983 437.948 525.363 437.948C522.303 437.948 520.539 435.428 520.539 431.252ZM537.594 435.464C537.594 438.596 539.79 440.432 542.742 440.432C544.902 440.432 546.846 439.28 548.538 437.912H548.61L548.862 440H551.31V429.272C551.31 424.916 549.51 422.072 545.226 422.072C542.418 422.072 539.97 423.296 538.35 424.34L539.538 426.392C540.906 425.456 542.706 424.52 544.758 424.52C547.602 424.52 548.358 426.68 548.358 428.912C540.906 429.74 537.594 431.648 537.594 435.464ZM540.51 435.248C540.51 433.016 542.49 431.576 548.358 430.856V435.716C546.666 437.228 545.262 438.056 543.57 438.056C541.842 438.056 540.51 437.228 540.51 435.248ZM555.442 444.824L554.866 447.164C555.442 447.38 556.126 447.524 556.918 447.524C560.446 447.524 562.246 444.896 563.47 441.44L570.058 422.504H567.178L564.046 432.188C563.578 433.736 563.074 435.536 562.57 437.12H562.426C561.886 435.5 561.274 433.7 560.734 432.188L557.17 422.504H554.11L561.13 440.036L560.734 441.332C560.014 443.492 558.754 445.076 556.774 445.076C556.342 445.076 555.802 444.932 555.442 444.824ZM582.984 440H586.44L588.888 430.64C589.356 428.984 589.716 427.328 590.112 425.564H590.256C590.688 427.328 591.012 428.948 591.444 430.604L593.964 440H597.564L602.244 422.504H599.436L596.88 432.62C596.52 434.276 596.196 435.86 595.8 437.48H595.656C595.26 435.86 594.864 434.276 594.432 432.62L591.696 422.504H588.816L586.116 432.62C585.684 434.24 585.324 435.86 584.928 437.48H584.784C584.46 435.86 584.136 434.276 583.74 432.62L581.148 422.504H578.124L582.984 440ZM604.365 431.288C604.365 437.084 608.181 440.432 612.465 440.432C616.749 440.432 620.565 437.084 620.565 431.288C620.565 425.42 616.749 422.072 612.465 422.072C608.181 422.072 604.365 425.42 604.365 431.288ZM607.425 431.288C607.425 427.256 609.477 424.52 612.465 424.52C615.489 424.52 617.505 427.256 617.505 431.288C617.505 435.284 615.489 437.984 612.465 437.984C609.477 437.984 607.425 435.284 607.425 431.288ZM624.923 440H627.875V428.768C629.063 425.816 630.827 424.736 632.303 424.736C633.023 424.736 633.419 424.844 633.995 425.024L634.571 422.432C633.995 422.18 633.455 422.072 632.699 422.072C630.719 422.072 628.919 423.476 627.731 425.672H627.623L627.371 422.504H624.923V440ZM637.153 440H640.069V435.392L643.345 431.576L648.457 440H651.697L645.037 429.524L650.905 422.504H647.629L640.177 431.72H640.069V414.368H637.153V440Z" fill="#2B2B2B"/>
<path d="M335.823 696.192C335.823 703.896 340.215 708.432 346.155 708.432C349.179 708.432 351.483 707.172 353.355 705.012L351.663 703.176C350.151 704.868 348.495 705.804 346.227 705.804C341.763 705.804 338.919 702.06 338.919 696.12C338.919 690.252 341.871 686.58 346.371 686.58C348.351 686.58 349.863 687.444 351.087 688.776L352.779 686.868C351.411 685.32 349.179 683.952 346.335 683.952C340.287 683.952 335.823 688.596 335.823 696.192ZM356.356 703.464C356.356 706.596 358.552 708.432 361.504 708.432C363.664 708.432 365.608 707.28 367.3 705.912H367.372L367.624 708H370.072V697.272C370.072 692.916 368.272 690.072 363.988 690.072C361.18 690.072 358.732 691.296 357.112 692.34L358.3 694.392C359.668 693.456 361.468 692.52 363.52 692.52C366.364 692.52 367.12 694.68 367.12 696.912C359.668 697.74 356.356 699.648 356.356 703.464ZM359.272 703.248C359.272 701.016 361.252 699.576 367.12 698.856V703.716C365.428 705.228 364.024 706.056 362.332 706.056C360.604 706.056 359.272 705.228 359.272 703.248ZM375.391 708H378.343V695.328C380.107 693.564 381.331 692.628 383.131 692.628C385.435 692.628 386.443 694.032 386.443 697.308V708H389.395V696.912C389.395 692.448 387.739 690.072 384.067 690.072C381.655 690.072 379.855 691.368 378.199 693.024H378.091L377.839 690.504H375.391V708ZM542.58 706.02C544.236 707.388 546.612 708.432 549.096 708.432C553.236 708.432 555.504 706.056 555.504 703.212C555.504 699.9 552.696 698.856 550.176 697.92C548.196 697.164 546.288 696.552 546.288 694.896C546.288 693.564 547.296 692.376 549.492 692.376C551.04 692.376 552.3 693.024 553.488 693.924L554.892 692.052C553.56 690.972 551.652 690.072 549.456 690.072C545.676 690.072 543.444 692.232 543.444 695.04C543.444 697.992 546.18 699.18 548.664 700.08C550.572 700.8 552.66 701.592 552.66 703.392C552.66 704.904 551.508 706.128 549.204 706.128C547.116 706.128 545.568 705.264 544.056 704.04L542.58 706.02ZM559.104 701.592C559.104 706.056 560.76 708.432 564.468 708.432C566.88 708.432 568.608 707.172 570.228 705.264H570.336L570.588 708H573.036V690.504H570.084V702.924C568.428 704.976 567.168 705.876 565.368 705.876C563.064 705.876 562.092 704.472 562.092 701.196V690.504H559.104V701.592ZM577.392 699.288C577.392 705.084 580.956 708.432 585.6 708.432C587.688 708.432 589.704 707.568 591.288 706.164L589.956 704.22C588.912 705.156 587.508 705.984 585.852 705.984C582.648 705.984 580.452 703.284 580.452 699.288C580.452 695.256 582.756 692.52 585.924 692.52C587.328 692.52 588.408 693.168 589.452 694.068L590.928 692.16C589.74 691.044 588.12 690.072 585.816 690.072C581.316 690.072 577.392 693.42 577.392 699.288ZM592.787 699.288C592.787 705.084 596.351 708.432 600.995 708.432C603.083 708.432 605.099 707.568 606.683 706.164L605.351 704.22C604.307 705.156 602.903 705.984 601.247 705.984C598.043 705.984 595.847 703.284 595.847 699.288C595.847 695.256 598.151 692.52 601.319 692.52C602.723 692.52 603.803 693.168 604.847 694.068L606.323 692.16C605.135 691.044 603.515 690.072 601.211 690.072C596.711 690.072 592.787 693.42 592.787 699.288ZM608.181 699.288C608.181 705.012 611.889 708.432 616.569 708.432C618.945 708.432 620.817 707.604 622.329 706.632L621.285 704.688C619.989 705.516 618.585 706.056 616.929 706.056C613.581 706.056 611.313 703.68 611.097 699.9H622.905C622.977 699.468 623.013 698.892 623.013 698.28C623.013 693.276 620.493 690.072 616.029 690.072C612.033 690.072 608.181 693.564 608.181 699.288ZM611.061 697.956C611.421 694.428 613.653 692.412 616.101 692.412C618.837 692.412 620.421 694.392 620.421 697.956H611.061ZM625.143 706.02C626.799 707.388 629.175 708.432 631.659 708.432C635.799 708.432 638.067 706.056 638.067 703.212C638.067 699.9 635.259 698.856 632.739 697.92C630.759 697.164 628.851 696.552 628.851 694.896C628.851 693.564 629.859 692.376 632.055 692.376C633.603 692.376 634.863 693.024 636.051 693.924L637.455 692.052C636.123 690.972 634.215 690.072 632.019 690.072C628.239 690.072 626.007 692.232 626.007 695.04C626.007 697.992 628.743 699.18 631.227 700.08C633.135 700.8 635.223 701.592 635.223 703.392C635.223 704.904 634.071 706.128 631.767 706.128C629.679 706.128 628.131 705.264 626.619 704.04L625.143 706.02ZM639.975 706.02C641.631 707.388 644.007 708.432 646.491 708.432C650.631 708.432 652.899 706.056 652.899 703.212C652.899 699.9 650.091 698.856 647.571 697.92C645.591 697.164 643.683 696.552 643.683 694.896C643.683 693.564 644.691 692.376 646.887 692.376C648.435 692.376 649.695 693.024 650.883 693.924L652.287 692.052C650.955 690.972 649.047 690.072 646.851 690.072C643.071 690.072 640.839 692.232 640.839 695.04C640.839 697.992 643.575 699.18 646.059 700.08C647.967 700.8 650.055 701.592 650.055 703.392C650.055 704.904 648.903 706.128 646.599 706.128C644.511 706.128 642.963 705.264 641.451 704.04L639.975 706.02Z" fill="#2B2B2B"/>
<path d="M401.244 708H406.536V695.94C407.652 694.788 408.696 694.212 409.56 694.212C411.072 694.212 411.756 695.004 411.756 697.596V708H417.048V695.94C418.2 694.788 419.208 694.212 420.108 694.212C421.62 694.212 422.304 695.004 422.304 697.596V708H427.596V696.912C427.596 692.448 425.868 689.712 422.016 689.712C419.64 689.712 417.984 691.08 416.4 692.7C415.5 690.792 413.988 689.712 411.468 689.712C409.128 689.712 407.544 690.972 406.068 692.448H405.924L405.564 690.144H401.244V708ZM430.817 699.072C430.817 704.976 434.741 708.432 439.853 708.432C441.977 708.432 444.353 707.676 446.189 706.416L444.425 703.212C443.129 704.004 441.905 704.4 440.573 704.4C438.197 704.4 436.397 703.212 435.929 700.512H446.621C446.729 700.08 446.837 699.216 446.837 698.28C446.837 693.42 444.317 689.712 439.241 689.712C434.957 689.712 430.817 693.276 430.817 699.072ZM435.893 697.236C436.253 694.86 437.693 693.744 439.349 693.744C441.473 693.744 442.337 695.184 442.337 697.236H435.893ZM449.21 703.032C449.21 706.056 451.262 708.432 454.502 708.432C456.518 708.432 458.21 707.496 459.722 706.164H459.83L460.226 708H464.546V697.776C464.546 692.304 462.026 689.712 457.454 689.712C454.646 689.712 452.09 690.684 449.822 692.052L451.694 695.544C453.422 694.536 454.934 693.924 456.446 693.924C458.354 693.924 459.146 694.932 459.254 696.516C452.198 697.236 449.21 699.288 449.21 703.032ZM454.25 702.636C454.25 701.268 455.474 700.188 459.254 699.684V702.816C458.318 703.752 457.526 704.328 456.302 704.328C455.042 704.328 454.25 703.788 454.25 702.636ZM467.254 705.948C469.054 707.424 471.754 708.432 474.094 708.432C478.882 708.432 481.438 705.912 481.438 702.672C481.438 699.396 478.882 698.136 476.614 697.308C474.778 696.624 473.122 696.192 473.122 695.04C473.122 694.14 473.77 693.636 475.138 693.636C476.398 693.636 477.622 694.212 478.918 695.148L481.294 691.98C479.746 690.828 477.73 689.712 474.994 689.712C470.854 689.712 468.154 691.98 468.154 695.292C468.154 698.244 470.71 699.72 472.87 700.548C474.706 701.268 476.506 701.808 476.506 702.996C476.506 703.932 475.822 704.508 474.238 704.508C472.726 704.508 471.25 703.86 469.63 702.636L467.254 705.948ZM484.369 701.232C484.369 705.696 486.025 708.432 489.913 708.432C492.361 708.432 494.017 707.316 495.529 705.516H495.637L496.033 708H500.353V690.144H495.061V701.952C494.017 703.356 493.225 703.932 491.893 703.932C490.345 703.932 489.661 703.104 489.661 700.548V690.144H484.369V701.232ZM504.76 708H510.052V697.632C510.988 695.22 512.644 694.356 513.976 694.356C514.732 694.356 515.272 694.464 515.92 694.644L516.784 690.072C516.28 689.856 515.668 689.712 514.66 689.712C512.824 689.712 510.88 690.864 509.584 693.276H509.44L509.08 690.144H504.76V708ZM517.458 699.072C517.458 704.976 521.382 708.432 526.494 708.432C528.618 708.432 530.994 707.676 532.83 706.416L531.066 703.212C529.77 704.004 528.546 704.4 527.214 704.4C524.838 704.4 523.038 703.212 522.57 700.512H533.262C533.37 700.08 533.478 699.216 533.478 698.28C533.478 693.42 530.958 689.712 525.882 689.712C521.598 689.712 517.458 693.276 517.458 699.072ZM522.534 697.236C522.894 694.86 524.334 693.744 525.99 693.744C528.114 693.744 528.978 695.184 528.978 697.236H522.534Z" fill="#009CDE"/>
<path d="M790.103 344H804.071V341.444H793.091V332.876H802.055V330.32H793.091V322.904H803.711V320.384H790.103V344ZM806.606 342.02C808.262 343.388 810.638 344.432 813.122 344.432C817.262 344.432 819.53 342.056 819.53 339.212C819.53 335.9 816.722 334.856 814.202 333.92C812.222 333.164 810.314 332.552 810.314 330.896C810.314 329.564 811.322 328.376 813.518 328.376C815.066 328.376 816.326 329.024 817.514 329.924L818.918 328.052C817.586 326.972 815.678 326.072 813.482 326.072C809.702 326.072 807.47 328.232 807.47 331.04C807.47 333.992 810.206 335.18 812.69 336.08C814.598 336.8 816.686 337.592 816.686 339.392C816.686 340.904 815.534 342.128 813.23 342.128C811.142 342.128 809.594 341.264 808.082 340.04L806.606 342.02ZM823.886 338.6C823.886 342.056 825.146 344.432 828.89 344.432C829.97 344.432 831.158 344.108 832.13 343.784L831.554 341.552C830.978 341.768 830.186 342.02 829.574 342.02C827.558 342.02 826.874 340.796 826.874 338.636V328.916H831.59V326.504H826.874V321.608H824.39L824.03 326.504L821.294 326.684V328.916H823.886V338.6ZM833.799 339.464C833.799 342.596 835.995 344.432 838.947 344.432C841.107 344.432 843.051 343.28 844.743 341.912H844.815L845.067 344H847.515V333.272C847.515 328.916 845.715 326.072 841.431 326.072C838.623 326.072 836.175 327.296 834.555 328.34L835.743 330.392C837.111 329.456 838.911 328.52 840.963 328.52C843.807 328.52 844.563 330.68 844.563 332.912C837.111 333.74 833.799 335.648 833.799 339.464ZM836.715 339.248C836.715 337.016 838.695 335.576 844.563 334.856V339.716C842.871 341.228 841.467 342.056 839.775 342.056C838.047 342.056 836.715 341.228 836.715 339.248ZM852.835 344H855.211L855.463 342.272H855.571C857.119 343.64 858.955 344.432 860.575 344.432C864.571 344.432 868.135 340.94 868.135 334.964C868.135 329.564 865.723 326.072 861.187 326.072C859.243 326.072 857.299 327.116 855.715 328.52L855.787 325.352V318.368H852.835V344ZM855.787 340.112V330.932C857.443 329.384 858.991 328.556 860.467 328.556C863.779 328.556 865.075 331.148 865.075 335C865.075 339.32 862.951 341.948 860.071 341.948C858.919 341.948 857.335 341.444 855.787 340.112ZM872.554 340.472C872.554 343.028 873.454 344.432 875.686 344.432C876.478 344.432 876.982 344.324 877.378 344.144L876.982 341.912C876.658 341.984 876.514 341.984 876.334 341.984C875.902 341.984 875.506 341.624 875.506 340.688V318.368H872.554V340.472ZM882.991 322.904C884.143 322.904 885.043 322.112 885.043 320.996C885.043 319.844 884.143 319.088 882.991 319.088C881.839 319.088 880.939 319.844 880.939 320.996C880.939 322.112 881.839 322.904 882.991 322.904ZM881.479 344H884.431V326.504H881.479V344ZM888.145 342.02C889.801 343.388 892.177 344.432 894.661 344.432C898.801 344.432 901.069 342.056 901.069 339.212C901.069 335.9 898.261 334.856 895.741 333.92C893.761 333.164 891.853 332.552 891.853 330.896C891.853 329.564 892.861 328.376 895.057 328.376C896.605 328.376 897.865 329.024 899.053 329.924L900.457 328.052C899.125 326.972 897.217 326.072 895.021 326.072C891.241 326.072 889.009 328.232 889.009 331.04C889.009 333.992 891.745 335.18 894.229 336.08C896.137 336.8 898.225 337.592 898.225 339.392C898.225 340.904 897.073 342.128 894.769 342.128C892.681 342.128 891.133 341.264 889.621 340.04L888.145 342.02ZM904.921 344H907.873V331.328C909.637 329.564 910.861 328.628 912.661 328.628C914.965 328.628 915.973 330.032 915.973 333.308V344H918.925V332.912C918.925 328.448 917.269 326.072 913.597 326.072C911.185 326.072 909.421 327.368 907.765 328.952L907.873 325.352V318.368H904.921V344ZM922.957 335.288C922.957 341.012 926.665 344.432 931.345 344.432C933.721 344.432 935.593 343.604 937.105 342.632L936.061 340.688C934.765 341.516 933.361 342.056 931.705 342.056C928.357 342.056 926.089 339.68 925.873 335.9H937.681C937.753 335.468 937.789 334.892 937.789 334.28C937.789 329.276 935.269 326.072 930.805 326.072C926.809 326.072 922.957 329.564 922.957 335.288ZM925.837 333.956C926.197 330.428 928.429 328.412 930.877 328.412C933.613 328.412 935.197 330.392 935.197 333.956H925.837ZM939.918 342.02C941.574 343.388 943.95 344.432 946.434 344.432C950.574 344.432 952.842 342.056 952.842 339.212C952.842 335.9 950.034 334.856 947.514 333.92C945.534 333.164 943.626 332.552 943.626 330.896C943.626 329.564 944.634 328.376 946.83 328.376C948.378 328.376 949.638 329.024 950.826 329.924L952.23 328.052C950.898 326.972 948.99 326.072 946.794 326.072C943.014 326.072 940.782 328.232 940.782 331.04C940.782 333.992 943.518 335.18 946.002 336.08C947.91 336.8 949.998 337.592 949.998 339.392C949.998 340.904 948.846 342.128 946.542 342.128C944.454 342.128 942.906 341.264 941.394 340.04L939.918 342.02ZM794.991 385.7C794.991 383.864 796.287 382.46 797.943 381.128C799.599 383.648 801.831 386.132 804.135 388.148C802.767 389.336 801.255 390.056 799.635 390.056C797.043 390.056 794.991 388.328 794.991 385.7ZM797.763 373.496C797.763 371.552 798.915 370.076 800.679 370.076C802.263 370.076 802.911 371.3 802.911 372.668C802.911 374.756 801.039 376.196 798.879 377.636C798.195 376.196 797.763 374.792 797.763 373.496ZM812.343 389.984C811.047 389.624 809.535 388.832 807.915 387.716C809.787 385.232 811.119 382.352 812.055 379.256H809.283C808.563 381.956 807.411 384.296 805.971 386.24C803.739 384.368 801.543 382.028 799.995 379.616C802.623 377.708 805.323 375.728 805.323 372.632C805.323 369.86 803.595 367.952 800.679 367.952C797.403 367.952 795.207 370.4 795.207 373.532C795.207 375.26 795.783 377.132 796.755 379.076C794.343 380.732 792.111 382.712 792.111 385.88C792.111 389.696 795.027 392.432 799.311 392.432C802.083 392.432 804.315 391.352 806.115 389.732C808.023 391.064 809.895 391.964 811.551 392.432L812.343 389.984ZM821.33 383.288C821.33 389.012 825.038 392.432 829.718 392.432C832.094 392.432 833.966 391.604 835.478 390.632L834.434 388.688C833.138 389.516 831.734 390.056 830.078 390.056C826.73 390.056 824.462 387.68 824.246 383.9H836.054C836.126 383.468 836.162 382.892 836.162 382.28C836.162 377.276 833.642 374.072 829.178 374.072C825.182 374.072 821.33 377.564 821.33 383.288ZM824.21 381.956C824.57 378.428 826.802 376.412 829.25 376.412C831.986 376.412 833.57 378.392 833.57 381.956H824.21ZM840.235 392H843.187V379.328C844.951 377.564 846.175 376.628 847.975 376.628C850.279 376.628 851.287 378.032 851.287 381.308V392H854.239V380.912C854.239 376.448 852.583 374.072 848.911 374.072C846.499 374.072 844.699 375.368 843.043 377.024H842.935L842.683 374.504H840.235V392ZM858.809 387.464C858.809 390.596 861.005 392.432 863.957 392.432C866.117 392.432 868.061 391.28 869.753 389.912H869.825L870.077 392H872.525V381.272C872.525 376.916 870.725 374.072 866.441 374.072C863.633 374.072 861.185 375.296 859.565 376.34L860.753 378.392C862.121 377.456 863.921 376.52 865.973 376.52C868.817 376.52 869.573 378.68 869.573 380.912C862.121 381.74 858.809 383.648 858.809 387.464ZM861.725 387.248C861.725 385.016 863.705 383.576 869.573 382.856V387.716C867.881 389.228 866.477 390.056 864.785 390.056C863.057 390.056 861.725 389.228 861.725 387.248ZM877.845 392H880.221L880.473 390.272H880.581C882.129 391.64 883.965 392.432 885.585 392.432C889.581 392.432 893.145 388.94 893.145 382.964C893.145 377.564 890.733 374.072 886.197 374.072C884.253 374.072 882.309 375.116 880.725 376.52L880.797 373.352V366.368H877.845V392ZM880.797 388.112V378.932C882.453 377.384 884.001 376.556 885.477 376.556C888.789 376.556 890.085 379.148 890.085 383C890.085 387.32 887.961 389.948 885.081 389.948C883.929 389.948 882.345 389.444 880.797 388.112ZM897.563 388.472C897.563 391.028 898.463 392.432 900.695 392.432C901.487 392.432 901.991 392.324 902.387 392.144L901.991 389.912C901.667 389.984 901.523 389.984 901.343 389.984C900.911 389.984 900.515 389.624 900.515 388.688V366.368H897.563V388.472ZM905.193 383.288C905.193 389.012 908.901 392.432 913.581 392.432C915.957 392.432 917.829 391.604 919.341 390.632L918.297 388.688C917.001 389.516 915.597 390.056 913.941 390.056C910.593 390.056 908.325 387.68 908.109 383.9H919.917C919.989 383.468 920.025 382.892 920.025 382.28C920.025 377.276 917.505 374.072 913.041 374.072C909.045 374.072 905.193 377.564 905.193 383.288ZM908.073 381.956C908.433 378.428 910.665 376.412 913.113 376.412C915.849 376.412 917.433 378.392 917.433 381.956H908.073ZM922.154 390.02C923.81 391.388 926.186 392.432 928.67 392.432C932.81 392.432 935.078 390.056 935.078 387.212C935.078 383.9 932.27 382.856 929.75 381.92C927.77 381.164 925.862 380.552 925.862 378.896C925.862 377.564 926.87 376.376 929.066 376.376C930.614 376.376 931.874 377.024 933.062 377.924L934.466 376.052C933.134 374.972 931.226 374.072 929.03 374.072C925.25 374.072 923.018 376.232 923.018 379.04C923.018 381.992 925.754 383.18 928.238 384.08C930.146 384.8 932.234 385.592 932.234 387.392C932.234 388.904 931.082 390.128 928.778 390.128C926.69 390.128 925.142 389.264 923.63 388.04L922.154 390.02ZM946.462 386.6C946.462 390.056 947.722 392.432 951.466 392.432C952.546 392.432 953.734 392.108 954.706 391.784L954.13 389.552C953.554 389.768 952.762 390.02 952.15 390.02C950.134 390.02 949.45 388.796 949.45 386.636V376.916H954.166V374.504H949.45V369.608H946.966L946.606 374.504L943.87 374.684V376.916H946.462V386.6ZM957.872 392H960.824V379.328C962.588 377.564 963.812 376.628 965.612 376.628C967.916 376.628 968.924 378.032 968.924 381.308V392H971.876V380.912C971.876 376.448 970.22 374.072 966.548 374.072C964.136 374.072 962.372 375.368 960.716 376.952L960.824 373.352V366.368H957.872V392ZM975.908 383.288C975.908 389.012 979.616 392.432 984.296 392.432C986.672 392.432 988.544 391.604 990.056 390.632L989.012 388.688C987.716 389.516 986.312 390.056 984.656 390.056C981.308 390.056 979.04 387.68 978.824 383.9H990.632C990.704 383.468 990.74 382.892 990.74 382.28C990.74 377.276 988.22 374.072 983.756 374.072C979.76 374.072 975.908 377.564 975.908 383.288ZM978.788 381.956C979.148 378.428 981.38 376.412 983.828 376.412C986.564 376.412 988.148 378.392 988.148 381.956H978.788ZM1001.84 392H1004.22L1004.47 390.272H1004.58C1006.12 391.64 1007.96 392.432 1009.58 392.432C1013.58 392.432 1017.14 388.94 1017.14 382.964C1017.14 377.564 1014.73 374.072 1010.19 374.072C1008.25 374.072 1006.3 375.116 1004.72 376.52L1004.79 373.352V366.368H1001.84V392ZM1004.79 388.112V378.932C1006.45 377.384 1008 376.556 1009.47 376.556C1012.78 376.556 1014.08 379.148 1014.08 383C1014.08 387.32 1011.96 389.948 1009.08 389.948C1007.92 389.948 1006.34 389.444 1004.79 388.112ZM1020.26 383.288C1020.26 389.012 1023.97 392.432 1028.65 392.432C1031.03 392.432 1032.9 391.604 1034.41 390.632L1033.37 388.688C1032.07 389.516 1030.67 390.056 1029.01 390.056C1025.66 390.056 1023.4 387.68 1023.18 383.9H1034.99C1035.06 383.468 1035.1 382.892 1035.1 382.28C1035.1 377.276 1032.58 374.072 1028.11 374.072C1024.12 374.072 1020.26 377.564 1020.26 383.288ZM1023.14 381.956C1023.5 378.428 1025.74 376.412 1028.18 376.412C1030.92 376.412 1032.5 378.392 1032.5 381.956H1023.14ZM1037.22 390.02C1038.88 391.388 1041.26 392.432 1043.74 392.432C1047.88 392.432 1050.15 390.056 1050.15 387.212C1050.15 383.9 1047.34 382.856 1044.82 381.92C1042.84 381.164 1040.93 380.552 1040.93 378.896C1040.93 377.564 1041.94 376.376 1044.14 376.376C1045.68 376.376 1046.94 377.024 1048.13 377.924L1049.54 376.052C1048.2 374.972 1046.3 374.072 1044.1 374.072C1040.32 374.072 1038.09 376.232 1038.09 379.04C1038.09 381.992 1040.82 383.18 1043.31 384.08C1045.22 384.8 1047.3 385.592 1047.3 387.392C1047.3 388.904 1046.15 390.128 1043.85 390.128C1041.76 390.128 1040.21 389.264 1038.7 388.04L1037.22 390.02ZM1054.5 386.6C1054.5 390.056 1055.76 392.432 1059.51 392.432C1060.59 392.432 1061.78 392.108 1062.75 391.784L1062.17 389.552C1061.6 389.768 1060.8 390.02 1060.19 390.02C1058.18 390.02 1057.49 388.796 1057.49 386.636V376.916H1062.21V374.504H1057.49V369.608H1055.01L1054.65 374.504L1051.91 374.684V376.916H1054.5V386.6ZM1072.69 385.592C1072.69 390.056 1074.35 392.432 1078.05 392.432C1080.47 392.432 1082.19 391.172 1083.81 389.264H1083.92L1084.17 392H1086.62V374.504H1083.67V386.924C1082.01 388.976 1080.75 389.876 1078.95 389.876C1076.65 389.876 1075.68 388.472 1075.68 385.196V374.504H1072.69V385.592ZM1090.33 390.02C1091.99 391.388 1094.36 392.432 1096.85 392.432C1100.99 392.432 1103.25 390.056 1103.25 387.212C1103.25 383.9 1100.45 382.856 1097.93 381.92C1095.95 381.164 1094.04 380.552 1094.04 378.896C1094.04 377.564 1095.05 376.376 1097.24 376.376C1098.79 376.376 1100.05 377.024 1101.24 377.924L1102.64 376.052C1101.31 374.972 1099.4 374.072 1097.21 374.072C1093.43 374.072 1091.19 376.232 1091.19 379.04C1091.19 381.992 1093.93 383.18 1096.41 384.08C1098.32 384.8 1100.41 385.592 1100.41 387.392C1100.41 388.904 1099.26 390.128 1096.95 390.128C1094.87 390.128 1093.32 389.264 1091.81 388.04L1090.33 390.02ZM1105.81 383.288C1105.81 389.012 1109.52 392.432 1114.2 392.432C1116.57 392.432 1118.45 391.604 1119.96 390.632L1118.91 388.688C1117.62 389.516 1116.21 390.056 1114.56 390.056C1111.21 390.056 1108.94 387.68 1108.73 383.9H1120.53C1120.61 383.468 1120.64 382.892 1120.64 382.28C1120.64 377.276 1118.12 374.072 1113.66 374.072C1109.66 374.072 1105.81 377.564 1105.81 383.288ZM1108.69 381.956C1109.05 378.428 1111.28 376.412 1113.73 376.412C1116.47 376.412 1118.05 378.392 1118.05 381.956H1108.69ZM871.941 431.288C871.941 437.084 875.757 440.432 880.041 440.432C884.325 440.432 888.141 437.084 888.141 431.288C888.141 425.42 884.325 422.072 880.041 422.072C875.757 422.072 871.941 425.42 871.941 431.288ZM875.001 431.288C875.001 427.256 877.053 424.52 880.041 424.52C883.065 424.52 885.081 427.256 885.081 431.288C885.081 435.284 883.065 437.984 880.041 437.984C877.053 437.984 875.001 435.284 875.001 431.288ZM901.031 414.512C900.239 414.188 899.195 413.936 898.115 413.936C894.623 413.936 893.003 416.168 893.003 419.732V422.504L890.627 422.684V424.916H893.003V440H895.955V424.916H899.663V422.504H895.955V419.732C895.955 417.5 896.747 416.348 898.403 416.348C899.051 416.348 899.735 416.492 900.383 416.78L901.031 414.512ZM909.788 440H912.74V428.768C913.928 425.816 915.692 424.736 917.168 424.736C917.888 424.736 918.284 424.844 918.86 425.024L919.436 422.432C918.86 422.18 918.32 422.072 917.564 422.072C915.584 422.072 913.784 423.476 912.596 425.672H912.488L912.236 422.504H909.788V440ZM920.371 431.288C920.371 437.012 924.079 440.432 928.759 440.432C931.135 440.432 933.007 439.604 934.519 438.632L933.475 436.688C932.179 437.516 930.775 438.056 929.119 438.056C925.771 438.056 923.503 435.68 923.287 431.9H935.095C935.167 431.468 935.203 430.892 935.203 430.28C935.203 425.276 932.683 422.072 928.219 422.072C924.223 422.072 920.371 425.564 920.371 431.288ZM923.251 429.956C923.611 426.428 925.843 424.412 928.291 424.412C931.027 424.412 932.611 426.392 932.611 429.956H923.251ZM937.332 438.02C938.988 439.388 941.364 440.432 943.848 440.432C947.988 440.432 950.256 438.056 950.256 435.212C950.256 431.9 947.448 430.856 944.928 429.92C942.948 429.164 941.04 428.552 941.04 426.896C941.04 425.564 942.048 424.376 944.244 424.376C945.792 424.376 947.052 425.024 948.24 425.924L949.644 424.052C948.312 422.972 946.404 422.072 944.208 422.072C940.428 422.072 938.196 424.232 938.196 427.04C938.196 429.992 940.932 431.18 943.416 432.08C945.324 432.8 947.412 433.592 947.412 435.392C947.412 436.904 946.26 438.128 943.956 438.128C941.868 438.128 940.32 437.264 938.808 436.04L937.332 438.02ZM952.812 431.288C952.812 437.084 956.628 440.432 960.912 440.432C965.196 440.432 969.012 437.084 969.012 431.288C969.012 425.42 965.196 422.072 960.912 422.072C956.628 422.072 952.812 425.42 952.812 431.288ZM955.872 431.288C955.872 427.256 957.924 424.52 960.912 424.52C963.936 424.52 965.952 427.256 965.952 431.288C965.952 435.284 963.936 437.984 960.912 437.984C957.924 437.984 955.872 435.284 955.872 431.288ZM973.118 433.592C973.118 438.056 974.774 440.432 978.482 440.432C980.894 440.432 982.622 439.172 984.242 437.264H984.35L984.602 440H987.05V422.504H984.098V434.924C982.442 436.976 981.182 437.876 979.382 437.876C977.078 437.876 976.106 436.472 976.106 433.196V422.504H973.118V433.592ZM992.702 440H995.654V428.768C996.842 425.816 998.606 424.736 1000.08 424.736C1000.8 424.736 1001.2 424.844 1001.77 425.024L1002.35 422.432C1001.77 422.18 1001.23 422.072 1000.48 422.072C998.498 422.072 996.698 423.476 995.51 425.672H995.402L995.15 422.504H992.702V440ZM1003.28 431.288C1003.28 437.084 1006.85 440.432 1011.49 440.432C1013.58 440.432 1015.6 439.568 1017.18 438.164L1015.85 436.22C1014.8 437.156 1013.4 437.984 1011.74 437.984C1008.54 437.984 1006.34 435.284 1006.34 431.288C1006.34 427.256 1008.65 424.52 1011.82 424.52C1013.22 424.52 1014.3 425.168 1015.34 426.068L1016.82 424.16C1015.63 423.044 1014.01 422.072 1011.71 422.072C1007.21 422.072 1003.28 425.42 1003.28 431.288ZM1018.68 431.288C1018.68 437.012 1022.39 440.432 1027.07 440.432C1029.44 440.432 1031.32 439.604 1032.83 438.632L1031.78 436.688C1030.49 437.516 1029.08 438.056 1027.43 438.056C1024.08 438.056 1021.81 435.68 1021.6 431.9H1033.4C1033.48 431.468 1033.51 430.892 1033.51 430.28C1033.51 425.276 1030.99 422.072 1026.53 422.072C1022.53 422.072 1018.68 425.564 1018.68 431.288ZM1021.56 429.956C1021.92 426.428 1024.15 424.412 1026.6 424.412C1029.34 424.412 1030.92 426.392 1030.92 429.956H1021.56ZM1035.64 438.02C1037.3 439.388 1039.67 440.432 1042.16 440.432C1046.3 440.432 1048.56 438.056 1048.56 435.212C1048.56 431.9 1045.76 430.856 1043.24 429.92C1041.26 429.164 1039.35 428.552 1039.35 426.896C1039.35 425.564 1040.36 424.376 1042.55 424.376C1044.1 424.376 1045.36 425.024 1046.55 425.924L1047.95 424.052C1046.62 422.972 1044.71 422.072 1042.52 422.072C1038.74 422.072 1036.5 424.232 1036.5 427.04C1036.5 429.992 1039.24 431.18 1041.72 432.08C1043.63 432.8 1045.72 433.592 1045.72 435.392C1045.72 436.904 1044.57 438.128 1042.26 438.128C1040.18 438.128 1038.63 437.264 1037.12 436.04L1035.64 438.02Z" fill="#2B2B2B"/>
<path d="M973.082 344.432C979.418 344.432 983.738 339.824 983.738 332.156C983.738 324.524 979.418 320.096 973.082 320.096C966.746 320.096 962.426 324.488 962.426 332.156C962.426 339.824 966.746 344.432 973.082 344.432ZM973.082 339.86C969.878 339.86 967.862 336.872 967.862 332.156C967.862 327.476 969.878 324.668 973.082 324.668C976.286 324.668 978.302 327.476 978.302 332.156C978.302 336.872 976.286 339.86 973.082 339.86ZM987.469 344H991.609L992.041 342.128H992.185C993.589 343.64 995.245 344.432 996.829 344.432C1000.68 344.432 1004.35 340.904 1004.35 334.748C1004.35 329.276 1001.65 325.712 997.333 325.712C995.677 325.712 993.985 326.468 992.617 327.692L992.761 324.956V318.764H987.469V344ZM992.761 338.96V331.652C993.769 330.536 994.741 330.032 995.821 330.032C997.945 330.032 998.917 331.652 998.917 334.856C998.917 338.528 997.441 340.112 995.605 340.112C994.705 340.112 993.697 339.824 992.761 338.96ZM1007.89 344.036C1007.89 346.016 1007.42 346.916 1006.02 346.916C1005.52 346.916 1005.08 346.808 1004.62 346.664L1003.68 350.552C1004.4 350.84 1005.34 351.056 1006.81 351.056C1011.67 351.056 1013.18 347.78 1013.18 343.892V326.144H1007.89V344.036ZM1010.56 323.516C1012.32 323.516 1013.62 322.364 1013.62 320.744C1013.62 319.124 1012.32 318.008 1010.56 318.008C1008.79 318.008 1007.5 319.124 1007.5 320.744C1007.5 322.364 1008.79 323.516 1010.56 323.516ZM1016.58 335.072C1016.58 340.976 1020.51 344.432 1025.62 344.432C1027.74 344.432 1030.12 343.676 1031.95 342.416L1030.19 339.212C1028.89 340.004 1027.67 340.4 1026.34 340.4C1023.96 340.4 1022.16 339.212 1021.69 336.512H1032.39C1032.49 336.08 1032.6 335.216 1032.6 334.28C1032.6 329.42 1030.08 325.712 1025.01 325.712C1020.72 325.712 1016.58 329.276 1016.58 335.072ZM1021.66 333.236C1022.02 330.86 1023.46 329.744 1025.11 329.744C1027.24 329.744 1028.1 331.184 1028.1 333.236H1021.66ZM1034.96 335.072C1034.96 341.012 1038.82 344.432 1043.78 344.432C1045.73 344.432 1048 343.712 1049.72 342.2L1047.6 338.852C1046.74 339.536 1045.69 340.148 1044.4 340.148C1042.09 340.148 1040.4 338.168 1040.4 335.072C1040.4 331.976 1042.02 329.996 1044.58 329.996C1045.4 329.996 1046.2 330.32 1047.06 331.04L1049.47 327.764C1048.28 326.54 1046.45 325.712 1044.25 325.712C1039.32 325.712 1034.96 329.132 1034.96 335.072ZM1053.28 337.52C1053.28 341.66 1055.01 344.432 1059.44 344.432C1061.17 344.432 1062.46 344.072 1063.4 343.784L1062.57 339.932C1062.1 340.112 1061.45 340.292 1060.88 340.292C1059.47 340.292 1058.57 339.464 1058.57 337.448V330.284H1062.86V326.144H1058.57V321.392H1054.18L1053.57 326.144L1050.83 326.36V330.284H1053.28V337.52ZM1068.72 323.516C1070.52 323.516 1071.78 322.364 1071.78 320.744C1071.78 319.124 1070.52 318.008 1068.72 318.008C1066.96 318.008 1065.66 319.124 1065.66 320.744C1065.66 322.364 1066.96 323.516 1068.72 323.516ZM1066.09 344H1071.39V326.144H1066.09V344ZM1079.9 344H1086.02L1091.85 326.144H1086.77L1084.43 334.568C1083.97 336.332 1083.5 338.204 1083.07 340.076H1082.92C1082.45 338.204 1081.99 336.332 1081.52 334.568L1079.21 326.144H1073.89L1079.9 344ZM1093.06 335.072C1093.06 340.976 1096.99 344.432 1102.1 344.432C1104.22 344.432 1106.6 343.676 1108.43 342.416L1106.67 339.212C1105.37 340.004 1104.15 340.4 1102.82 340.4C1100.44 340.4 1098.64 339.212 1098.17 336.512H1108.87C1108.97 336.08 1109.08 335.216 1109.08 334.28C1109.08 329.42 1106.56 325.712 1101.49 325.712C1097.2 325.712 1093.06 329.276 1093.06 335.072ZM1098.14 333.236C1098.5 330.86 1099.94 329.744 1101.59 329.744C1103.72 329.744 1104.58 331.184 1104.58 333.236H1098.14ZM1110.9 341.948C1112.7 343.424 1115.4 344.432 1117.74 344.432C1122.53 344.432 1125.09 341.912 1125.09 338.672C1125.09 335.396 1122.53 334.136 1120.26 333.308C1118.43 332.624 1116.77 332.192 1116.77 331.04C1116.77 330.14 1117.42 329.636 1118.79 329.636C1120.05 329.636 1121.27 330.212 1122.57 331.148L1124.94 327.98C1123.4 326.828 1121.38 325.712 1118.64 325.712C1114.5 325.712 1111.8 327.98 1111.8 331.292C1111.8 334.244 1114.36 335.72 1116.52 336.548C1118.36 337.268 1120.16 337.808 1120.16 338.996C1120.16 339.932 1119.47 340.508 1117.89 340.508C1116.38 340.508 1114.9 339.86 1113.28 338.636L1110.9 341.948Z" fill="#009CDE"/>
<path d="M784.183 672.192C784.183 679.896 788.575 684.432 794.515 684.432C797.539 684.432 799.843 683.172 801.715 681.012L800.023 679.176C798.511 680.868 796.855 681.804 794.587 681.804C790.123 681.804 787.279 678.06 787.279 672.12C787.279 666.252 790.231 662.58 794.731 662.58C796.711 662.58 798.223 663.444 799.447 664.776L801.139 662.868C799.771 661.32 797.539 659.952 794.695 659.952C788.647 659.952 784.183 664.596 784.183 672.192ZM805.579 684H808.531V672.768C809.719 669.816 811.483 668.736 812.959 668.736C813.679 668.736 814.075 668.844 814.651 669.024L815.227 666.432C814.651 666.18 814.111 666.072 813.355 666.072C811.375 666.072 809.575 667.476 808.387 669.672H808.279L808.027 666.504H805.579V684ZM816.162 675.288C816.162 681.012 819.87 684.432 824.55 684.432C826.926 684.432 828.798 683.604 830.31 682.632L829.266 680.688C827.97 681.516 826.566 682.056 824.91 682.056C821.562 682.056 819.294 679.68 819.078 675.9H830.886C830.958 675.468 830.994 674.892 830.994 674.28C830.994 669.276 828.474 666.072 824.01 666.072C820.014 666.072 816.162 669.564 816.162 675.288ZM819.042 673.956C819.402 670.428 821.634 668.412 824.082 668.412C826.818 668.412 828.402 670.392 828.402 673.956H819.042ZM833.711 679.464C833.711 682.596 835.907 684.432 838.859 684.432C841.019 684.432 842.963 683.28 844.655 681.912H844.727L844.979 684H847.427V673.272C847.427 668.916 845.627 666.072 841.343 666.072C838.535 666.072 836.087 667.296 834.467 668.34L835.655 670.392C837.023 669.456 838.823 668.52 840.875 668.52C843.719 668.52 844.475 670.68 844.475 672.912C837.023 673.74 833.711 675.648 833.711 679.464ZM836.627 679.248C836.627 677.016 838.607 675.576 844.475 674.856V679.716C842.783 681.228 841.379 682.056 839.687 682.056C837.959 682.056 836.627 681.228 836.627 679.248ZM853.251 678.6C853.251 682.056 854.511 684.432 858.255 684.432C859.335 684.432 860.523 684.108 861.495 683.784L860.919 681.552C860.343 681.768 859.551 682.02 858.939 682.02C856.923 682.02 856.239 680.796 856.239 678.636V668.916H860.955V666.504H856.239V661.608H853.755L853.395 666.504L850.659 666.684V668.916H853.251V678.6ZM863.013 675.288C863.013 681.012 866.721 684.432 871.401 684.432C873.777 684.432 875.649 683.604 877.161 682.632L876.117 680.688C874.821 681.516 873.417 682.056 871.761 682.056C868.413 682.056 866.145 679.68 865.929 675.9H877.737C877.809 675.468 877.845 674.892 877.845 674.28C877.845 669.276 875.325 666.072 870.861 666.072C866.865 666.072 863.013 669.564 863.013 675.288ZM865.893 673.956C866.253 670.428 868.485 668.412 870.933 668.412C873.669 668.412 875.253 670.392 875.253 673.956H865.893ZM879.975 682.02C881.631 683.388 884.007 684.432 886.491 684.432C890.631 684.432 892.899 682.056 892.899 679.212C892.899 675.9 890.091 674.856 887.571 673.92C885.591 673.164 883.683 672.552 883.683 670.896C883.683 669.564 884.691 668.376 886.887 668.376C888.435 668.376 889.695 669.024 890.883 669.924L892.287 668.052C890.955 666.972 889.047 666.072 886.851 666.072C883.071 666.072 880.839 668.232 880.839 671.04C880.839 673.992 883.575 675.18 886.059 676.08C887.967 676.8 890.055 677.592 890.055 679.392C890.055 680.904 888.903 682.128 886.599 682.128C884.511 682.128 882.963 681.264 881.451 680.04L879.975 682.02ZM1120.03 677.7C1120.03 675.864 1121.33 674.46 1122.99 673.128C1124.64 675.648 1126.87 678.132 1129.18 680.148C1127.81 681.336 1126.3 682.056 1124.68 682.056C1122.09 682.056 1120.03 680.328 1120.03 677.7ZM1122.81 665.496C1122.81 663.552 1123.96 662.076 1125.72 662.076C1127.31 662.076 1127.95 663.3 1127.95 664.668C1127.95 666.756 1126.08 668.196 1123.92 669.636C1123.24 668.196 1122.81 666.792 1122.81 665.496ZM1137.39 681.984C1136.09 681.624 1134.58 680.832 1132.96 679.716C1134.83 677.232 1136.16 674.352 1137.1 671.256H1134.33C1133.61 673.956 1132.45 676.296 1131.01 678.24C1128.78 676.368 1126.59 674.028 1125.04 671.616C1127.67 669.708 1130.37 667.728 1130.37 664.632C1130.37 661.86 1128.64 659.952 1125.72 659.952C1122.45 659.952 1120.25 662.4 1120.25 665.532C1120.25 667.26 1120.83 669.132 1121.8 671.076C1119.39 672.732 1117.15 674.712 1117.15 677.88C1117.15 681.696 1120.07 684.432 1124.35 684.432C1127.13 684.432 1129.36 683.352 1131.16 681.732C1133.07 683.064 1134.94 683.964 1136.59 684.432L1137.39 681.984ZM774.714 710.904C775.866 710.904 776.766 710.112 776.766 708.996C776.766 707.844 775.866 707.088 774.714 707.088C773.562 707.088 772.662 707.844 772.662 708.996C772.662 710.112 773.562 710.904 774.714 710.904ZM773.202 732H776.154V714.504H773.202V732ZM781.811 732H784.763V719.328C786.383 717.528 787.859 716.628 789.155 716.628C791.387 716.628 792.431 718.032 792.431 721.308V732H795.383V719.328C797.003 717.528 798.407 716.628 799.775 716.628C801.971 716.628 803.015 718.032 803.015 721.308V732H805.967V720.912C805.967 716.448 804.239 714.072 800.639 714.072C798.515 714.072 796.715 715.44 794.879 717.42C794.159 715.332 792.719 714.072 790.055 714.072C787.967 714.072 786.131 715.368 784.619 717.024H784.511L784.259 714.504H781.811V732ZM814.289 730.416C815.909 731.676 817.529 732.432 819.149 732.432C823.145 732.432 826.709 728.94 826.709 723C826.709 717.564 824.297 714.072 819.797 714.072C817.745 714.072 815.801 715.188 814.217 716.52H814.109L813.857 714.504H811.409V739.38H814.361V733.476L814.289 730.416ZM814.361 728.112V718.932C816.089 717.384 817.565 716.556 819.041 716.556C822.353 716.556 823.649 719.148 823.649 723C823.649 727.32 821.525 729.948 818.645 729.948C817.493 729.948 815.945 729.444 814.361 728.112ZM831.128 732H834.08V720.768C835.268 717.816 837.032 716.736 838.508 716.736C839.228 716.736 839.624 716.844 840.2 717.024L840.776 714.432C840.2 714.18 839.66 714.072 838.904 714.072C836.924 714.072 835.124 715.476 833.936 717.672H833.828L833.576 714.504H831.128V732ZM841.711 723.288C841.711 729.084 845.527 732.432 849.811 732.432C854.095 732.432 857.911 729.084 857.911 723.288C857.911 717.42 854.095 714.072 849.811 714.072C845.527 714.072 841.711 717.42 841.711 723.288ZM844.771 723.288C844.771 719.256 846.823 716.52 849.811 716.52C852.835 716.52 854.851 719.256 854.851 723.288C854.851 727.284 852.835 729.984 849.811 729.984C846.823 729.984 844.771 727.284 844.771 723.288ZM865.908 732H869.364L875.556 714.504H872.64L869.328 724.44C868.824 726.168 868.248 727.932 867.744 729.588H867.6C867.06 727.932 866.484 726.168 865.98 724.44L862.668 714.504H859.608L865.908 732ZM877.246 723.288C877.246 729.012 880.954 732.432 885.634 732.432C888.01 732.432 889.882 731.604 891.394 730.632L890.35 728.688C889.054 729.516 887.65 730.056 885.994 730.056C882.646 730.056 880.378 727.68 880.162 723.9H891.97C892.042 723.468 892.078 722.892 892.078 722.28C892.078 717.276 889.558 714.072 885.094 714.072C881.098 714.072 877.246 717.564 877.246 723.288ZM880.126 721.956C880.486 718.428 882.718 716.412 885.166 716.412C887.902 716.412 889.486 718.392 889.486 721.956H880.126ZM894.207 730.02C895.863 731.388 898.239 732.432 900.723 732.432C904.863 732.432 907.131 730.056 907.131 727.212C907.131 723.9 904.323 722.856 901.803 721.92C899.823 721.164 897.915 720.552 897.915 718.896C897.915 717.564 898.923 716.376 901.119 716.376C902.667 716.376 903.927 717.024 905.115 717.924L906.519 716.052C905.187 714.972 903.279 714.072 901.083 714.072C897.303 714.072 895.071 716.232 895.071 719.04C895.071 721.992 897.807 723.18 900.291 724.08C902.199 724.8 904.287 725.592 904.287 727.392C904.287 728.904 903.135 730.128 900.831 730.128C898.743 730.128 897.195 729.264 895.683 728.04L894.207 730.02ZM916.715 723.288C916.715 729.084 920.279 732.432 924.923 732.432C927.011 732.432 929.027 731.568 930.611 730.164L929.279 728.22C928.235 729.156 926.831 729.984 925.175 729.984C921.971 729.984 919.775 727.284 919.775 723.288C919.775 719.256 922.079 716.52 925.247 716.52C926.651 716.52 927.731 717.168 928.775 718.068L930.251 716.16C929.063 715.044 927.443 714.072 925.139 714.072C920.639 714.072 916.715 717.42 916.715 723.288ZM932.109 723.288C932.109 729.084 935.925 732.432 940.209 732.432C944.493 732.432 948.309 729.084 948.309 723.288C948.309 717.42 944.493 714.072 940.209 714.072C935.925 714.072 932.109 717.42 932.109 723.288ZM935.169 723.288C935.169 719.256 937.221 716.52 940.209 716.52C943.233 716.52 945.249 719.256 945.249 723.288C945.249 727.284 943.233 729.984 940.209 729.984C937.221 729.984 935.169 727.284 935.169 723.288ZM952.667 732H955.619V719.328C957.239 717.528 958.715 716.628 960.011 716.628C962.243 716.628 963.287 718.032 963.287 721.308V732H966.239V719.328C967.859 717.528 969.263 716.628 970.631 716.628C972.827 716.628 973.871 718.032 973.871 721.308V732H976.823V720.912C976.823 716.448 975.095 714.072 971.495 714.072C969.371 714.072 967.571 715.44 965.735 717.42C965.015 715.332 963.575 714.072 960.911 714.072C958.823 714.072 956.987 715.368 955.475 717.024H955.367L955.115 714.504H952.667V732ZM982.265 732H985.217V719.328C986.837 717.528 988.312 716.628 989.609 716.628C991.841 716.628 992.885 718.032 992.885 721.308V732H995.837V719.328C997.457 717.528 998.861 716.628 1000.23 716.628C1002.42 716.628 1003.47 718.032 1003.47 721.308V732H1006.42V720.912C1006.42 716.448 1004.69 714.072 1001.09 714.072C998.969 714.072 997.169 715.44 995.333 717.42C994.613 715.332 993.173 714.072 990.509 714.072C988.421 714.072 986.585 715.368 985.073 717.024H984.965L984.713 714.504H982.265V732ZM1011.61 725.592C1011.61 730.056 1013.27 732.432 1016.97 732.432C1019.39 732.432 1021.11 731.172 1022.73 729.264H1022.84L1023.09 732H1025.54V714.504H1022.59V726.924C1020.93 728.976 1019.67 729.876 1017.87 729.876C1015.57 729.876 1014.6 728.472 1014.6 725.196V714.504H1011.61V725.592ZM1031.19 732H1034.15V719.328C1035.91 717.564 1037.13 716.628 1038.93 716.628C1041.24 716.628 1042.25 718.032 1042.25 721.308V732H1045.2V720.912C1045.2 716.448 1043.54 714.072 1039.87 714.072C1037.46 714.072 1035.66 715.368 1034 717.024H1033.89L1033.64 714.504H1031.19V732ZM1052.14 710.904C1053.3 710.904 1054.2 710.112 1054.2 708.996C1054.2 707.844 1053.3 707.088 1052.14 707.088C1050.99 707.088 1050.09 707.844 1050.09 708.996C1050.09 710.112 1050.99 710.904 1052.14 710.904ZM1050.63 732H1053.58V714.504H1050.63V732ZM1057.95 723.288C1057.95 729.084 1061.51 732.432 1066.15 732.432C1068.24 732.432 1070.26 731.568 1071.84 730.164L1070.51 728.22C1069.47 729.156 1068.06 729.984 1066.41 729.984C1063.2 729.984 1061.01 727.284 1061.01 723.288C1061.01 719.256 1063.31 716.52 1066.48 716.52C1067.88 716.52 1068.96 717.168 1070.01 718.068L1071.48 716.16C1070.29 715.044 1068.67 714.072 1066.37 714.072C1061.87 714.072 1057.95 717.42 1057.95 723.288ZM1074.19 727.464C1074.19 730.596 1076.39 732.432 1079.34 732.432C1081.5 732.432 1083.45 731.28 1085.14 729.912H1085.21L1085.46 732H1087.91V721.272C1087.91 716.916 1086.11 714.072 1081.83 714.072C1079.02 714.072 1076.57 715.296 1074.95 716.34L1076.14 718.392C1077.51 717.456 1079.31 716.52 1081.36 716.52C1084.2 716.52 1084.96 718.68 1084.96 720.912C1077.51 721.74 1074.19 723.648 1074.19 727.464ZM1077.11 727.248C1077.11 725.016 1079.09 723.576 1084.96 722.856V727.716C1083.27 729.228 1081.86 730.056 1080.17 730.056C1078.44 730.056 1077.11 729.228 1077.11 727.248ZM1093.73 726.6C1093.73 730.056 1094.99 732.432 1098.74 732.432C1099.82 732.432 1101.01 732.108 1101.98 731.784L1101.4 729.552C1100.83 729.768 1100.03 730.02 1099.42 730.02C1097.41 730.02 1096.72 728.796 1096.72 726.636V716.916H1101.44V714.504H1096.72V709.608H1094.24L1093.88 714.504L1091.14 714.684V716.916H1093.73V726.6ZM1106.66 710.904C1107.81 710.904 1108.71 710.112 1108.71 708.996C1108.71 707.844 1107.81 707.088 1106.66 707.088C1105.5 707.088 1104.6 707.844 1104.6 708.996C1104.6 710.112 1105.5 710.904 1106.66 710.904ZM1105.14 732H1108.1V714.504H1105.14V732ZM1112.46 723.288C1112.46 729.084 1116.27 732.432 1120.56 732.432C1124.84 732.432 1128.66 729.084 1128.66 723.288C1128.66 717.42 1124.84 714.072 1120.56 714.072C1116.27 714.072 1112.46 717.42 1112.46 723.288ZM1115.52 723.288C1115.52 719.256 1117.57 716.52 1120.56 716.52C1123.58 716.52 1125.6 719.256 1125.6 723.288C1125.6 727.284 1123.58 729.984 1120.56 729.984C1117.57 729.984 1115.52 727.284 1115.52 723.288ZM1133.01 732H1135.97V719.328C1137.73 717.564 1138.95 716.628 1140.75 716.628C1143.06 716.628 1144.07 718.032 1144.07 721.308V732H1147.02V720.912C1147.02 716.448 1145.36 714.072 1141.69 714.072C1139.28 714.072 1137.48 715.368 1135.82 717.024H1135.71L1135.46 714.504H1133.01V732Z" fill="#2B2B2B"/>
<path d="M903.886 677.52C903.886 681.66 905.614 684.432 910.042 684.432C911.77 684.432 913.066 684.072 914.002 683.784L913.174 679.932C912.706 680.112 912.058 680.292 911.482 680.292C910.078 680.292 909.178 679.464 909.178 677.448V670.284H913.462V666.144H909.178V661.392H904.786L904.174 666.144L901.438 666.36V670.284H903.886V677.52ZM916.697 684H921.989V673.632C922.925 671.22 924.581 670.356 925.913 670.356C926.669 670.356 927.209 670.464 927.857 670.644L928.721 666.072C928.217 665.856 927.605 665.712 926.597 665.712C924.761 665.712 922.817 666.864 921.521 669.276H921.377L921.017 666.144H916.697V684ZM929.088 679.032C929.088 682.056 931.14 684.432 934.38 684.432C936.396 684.432 938.088 683.496 939.6 682.164H939.708L940.104 684H944.424V673.776C944.424 668.304 941.904 665.712 937.332 665.712C934.524 665.712 931.968 666.684 929.7 668.052L931.572 671.544C933.3 670.536 934.812 669.924 936.324 669.924C938.232 669.924 939.024 670.932 939.132 672.516C932.076 673.236 929.088 675.288 929.088 679.032ZM934.128 678.636C934.128 677.268 935.352 676.188 939.132 675.684V678.816C938.196 679.752 937.404 680.328 936.18 680.328C934.92 680.328 934.128 679.788 934.128 678.636ZM948.717 684H954.009V671.94C955.161 670.824 955.989 670.212 957.321 670.212C958.833 670.212 959.517 671.004 959.517 673.596V684H964.809V672.912C964.809 668.448 963.153 665.712 959.265 665.712C956.853 665.712 955.053 666.972 953.541 668.412H953.397L953.037 666.144H948.717V684ZM967.485 681.948C969.285 683.424 971.985 684.432 974.325 684.432C979.113 684.432 981.669 681.912 981.669 678.672C981.669 675.396 979.113 674.136 976.845 673.308C975.009 672.624 973.353 672.192 973.353 671.04C973.353 670.14 974.001 669.636 975.369 669.636C976.629 669.636 977.853 670.212 979.149 671.148L981.525 667.98C979.977 666.828 977.961 665.712 975.225 665.712C971.085 665.712 968.385 667.98 968.385 671.292C968.385 674.244 970.941 675.72 973.101 676.548C974.937 677.268 976.737 677.808 976.737 678.996C976.737 679.932 976.053 680.508 974.469 680.508C972.957 680.508 971.481 679.86 969.861 678.636L967.485 681.948ZM989.891 682.56C991.151 683.748 992.591 684.432 994.139 684.432C997.991 684.432 1001.66 680.904 1001.66 674.784C1001.66 669.276 998.999 665.712 994.679 665.712C992.807 665.712 991.007 666.648 989.603 667.908H989.459L989.099 666.144H984.779V690.624H990.071V685.404L989.891 682.56ZM990.071 678.96V671.652C991.115 670.536 992.051 670.032 993.131 670.032C995.255 670.032 996.227 671.652 996.227 674.856C996.227 678.528 994.751 680.112 992.915 680.112C992.015 680.112 991.007 679.824 990.071 678.96ZM1004.13 679.032C1004.13 682.056 1006.18 684.432 1009.42 684.432C1011.44 684.432 1013.13 683.496 1014.64 682.164H1014.75L1015.15 684H1019.47V673.776C1019.47 668.304 1016.95 665.712 1012.38 665.712C1009.57 665.712 1007.01 666.684 1004.74 668.052L1006.62 671.544C1008.34 670.536 1009.86 669.924 1011.37 669.924C1013.28 669.924 1014.07 670.932 1014.18 672.516C1007.12 673.236 1004.13 675.288 1004.13 679.032ZM1009.17 678.636C1009.17 677.268 1010.4 676.188 1014.18 675.684V678.816C1013.24 679.752 1012.45 680.328 1011.22 680.328C1009.96 680.328 1009.17 679.788 1009.17 678.636ZM1023.76 684H1029.05V673.632C1029.99 671.22 1031.64 670.356 1032.98 670.356C1033.73 670.356 1034.27 670.464 1034.92 670.644L1035.78 666.072C1035.28 665.856 1034.67 665.712 1033.66 665.712C1031.82 665.712 1029.88 666.864 1028.58 669.276H1028.44L1028.08 666.144H1023.76V684ZM1036.46 675.072C1036.46 680.976 1040.38 684.432 1045.49 684.432C1047.62 684.432 1049.99 683.676 1051.83 682.416L1050.07 679.212C1048.77 680.004 1047.55 680.4 1046.21 680.4C1043.84 680.4 1042.04 679.212 1041.57 676.512H1052.26C1052.37 676.08 1052.48 675.216 1052.48 674.28C1052.48 669.42 1049.96 665.712 1044.88 665.712C1040.6 665.712 1036.46 669.276 1036.46 675.072ZM1041.53 673.236C1041.89 670.86 1043.33 669.744 1044.99 669.744C1047.11 669.744 1047.98 671.184 1047.98 673.236H1041.53ZM1055.88 684H1061.18V671.94C1062.33 670.824 1063.16 670.212 1064.49 670.212C1066 670.212 1066.68 671.004 1066.68 673.596V684H1071.98V672.912C1071.98 668.448 1070.32 665.712 1066.43 665.712C1064.02 665.712 1062.22 666.972 1060.71 668.412H1060.56L1060.2 666.144H1055.88V684ZM1075.19 675.072C1075.19 681.012 1079.04 684.432 1084.01 684.432C1085.96 684.432 1088.22 683.712 1089.95 682.2L1087.83 678.852C1086.96 679.536 1085.92 680.148 1084.62 680.148C1082.32 680.148 1080.63 678.168 1080.63 675.072C1080.63 671.976 1082.25 669.996 1084.8 669.996C1085.63 669.996 1086.42 670.32 1087.29 671.04L1089.7 667.764C1088.51 666.54 1086.68 665.712 1084.48 665.712C1079.55 665.712 1075.19 669.132 1075.19 675.072ZM1093.19 686.592L1092.25 690.624C1092.97 690.84 1093.69 690.984 1094.77 690.984C1098.98 690.984 1100.89 688.68 1102.58 684.18L1108.78 666.144H1103.7L1101.54 673.812C1101.11 675.504 1100.71 677.196 1100.32 678.888H1100.17C1099.7 677.124 1099.27 675.432 1098.77 673.812L1096.21 666.144H1090.88L1097.76 683.532L1097.51 684.468C1097.04 685.872 1096.14 686.808 1094.38 686.808C1093.98 686.808 1093.51 686.664 1093.19 686.592Z" fill="#009CDE"/>
<path d="M1280.41 368H1283.4V356.876H1294.38V368H1297.4V344.384H1294.38V354.284H1283.4V344.384H1280.41V368ZM1302.06 359.288C1302.06 365.012 1305.77 368.432 1310.45 368.432C1312.82 368.432 1314.7 367.604 1316.21 366.632L1315.16 364.688C1313.87 365.516 1312.46 366.056 1310.81 366.056C1307.46 366.056 1305.19 363.68 1304.98 359.9H1316.78C1316.86 359.468 1316.89 358.892 1316.89 358.28C1316.89 353.276 1314.37 350.072 1309.91 350.072C1305.91 350.072 1302.06 353.564 1302.06 359.288ZM1304.94 357.956C1305.3 354.428 1307.53 352.412 1309.98 352.412C1312.72 352.412 1314.3 354.392 1314.3 357.956H1304.94ZM1320.97 364.472C1320.97 367.028 1321.87 368.432 1324.1 368.432C1324.89 368.432 1325.39 368.324 1325.79 368.144L1325.39 365.912C1325.07 365.984 1324.93 365.984 1324.75 365.984C1324.31 365.984 1323.92 365.624 1323.92 364.688V342.368H1320.97V364.472ZM1332.77 366.416C1334.39 367.676 1336.01 368.432 1337.63 368.432C1341.63 368.432 1345.19 364.94 1345.19 359C1345.19 353.564 1342.78 350.072 1338.28 350.072C1336.23 350.072 1334.28 351.188 1332.7 352.52H1332.59L1332.34 350.504H1329.89V375.38H1332.84V369.476L1332.77 366.416ZM1332.84 364.112V354.932C1334.57 353.384 1336.05 352.556 1337.52 352.556C1340.84 352.556 1342.13 355.148 1342.13 359C1342.13 363.32 1340.01 365.948 1337.13 365.948C1335.98 365.948 1334.43 365.444 1332.84 364.112ZM1347.67 366.02C1349.32 367.388 1351.7 368.432 1354.18 368.432C1358.32 368.432 1360.59 366.056 1360.59 363.212C1360.59 359.9 1357.78 358.856 1355.26 357.92C1353.28 357.164 1351.37 356.552 1351.37 354.896C1351.37 353.564 1352.38 352.376 1354.58 352.376C1356.13 352.376 1357.39 353.024 1358.57 353.924L1359.98 352.052C1358.65 350.972 1356.74 350.072 1354.54 350.072C1350.76 350.072 1348.53 352.232 1348.53 355.04C1348.53 357.992 1351.27 359.18 1353.75 360.08C1355.66 360.8 1357.75 361.592 1357.75 363.392C1357.75 364.904 1356.59 366.128 1354.29 366.128C1352.2 366.128 1350.65 365.264 1349.14 364.04L1347.67 366.02ZM1371.97 362.6C1371.97 366.056 1373.23 368.432 1376.98 368.432C1378.06 368.432 1379.25 368.108 1380.22 367.784L1379.64 365.552C1379.07 365.768 1378.27 366.02 1377.66 366.02C1375.65 366.02 1374.96 364.796 1374.96 362.636V352.916H1379.68V350.504H1374.96V345.608H1372.48L1372.12 350.504L1369.38 350.684V352.916H1371.97V362.6ZM1381.74 359.288C1381.74 365.084 1385.55 368.432 1389.84 368.432C1394.12 368.432 1397.94 365.084 1397.94 359.288C1397.94 353.42 1394.12 350.072 1389.84 350.072C1385.55 350.072 1381.74 353.42 1381.74 359.288ZM1384.8 359.288C1384.8 355.256 1386.85 352.52 1389.84 352.52C1392.86 352.52 1394.88 355.256 1394.88 359.288C1394.88 363.284 1392.86 365.984 1389.84 365.984C1386.85 365.984 1384.8 363.284 1384.8 359.288ZM1407.38 366.02C1409.03 367.388 1411.41 368.432 1413.89 368.432C1418.03 368.432 1420.3 366.056 1420.3 363.212C1420.3 359.9 1417.49 358.856 1414.97 357.92C1412.99 357.164 1411.09 356.552 1411.09 354.896C1411.09 353.564 1412.09 352.376 1414.29 352.376C1415.84 352.376 1417.1 353.024 1418.29 353.924L1419.69 352.052C1418.36 350.972 1416.45 350.072 1414.25 350.072C1410.47 350.072 1408.24 352.232 1408.24 355.04C1408.24 357.992 1410.98 359.18 1413.46 360.08C1415.37 360.8 1417.46 361.592 1417.46 363.392C1417.46 364.904 1416.31 366.128 1414 366.128C1411.91 366.128 1410.37 365.264 1408.85 364.04L1407.38 366.02ZM1422.86 359.288C1422.86 365.012 1426.57 368.432 1431.25 368.432C1433.62 368.432 1435.49 367.604 1437.01 366.632L1435.96 364.688C1434.67 365.516 1433.26 366.056 1431.61 366.056C1428.26 366.056 1425.99 363.68 1425.77 359.9H1437.58C1437.65 359.468 1437.69 358.892 1437.69 358.28C1437.69 353.276 1435.17 350.072 1430.71 350.072C1426.71 350.072 1422.86 353.564 1422.86 359.288ZM1425.74 357.956C1426.1 354.428 1428.33 352.412 1430.78 352.412C1433.51 352.412 1435.1 354.392 1435.1 357.956H1425.74ZM1441.77 362.6C1441.77 366.056 1443.03 368.432 1446.78 368.432C1447.86 368.432 1449.05 368.108 1450.02 367.784L1449.44 365.552C1448.87 365.768 1448.07 366.02 1447.46 366.02C1445.45 366.02 1444.76 364.796 1444.76 362.636V352.916H1449.48V350.504H1444.76V345.608H1442.28L1441.92 350.504L1439.18 350.684V352.916H1441.77V362.6ZM1461.29 361.7C1461.29 359.864 1462.59 358.46 1464.24 357.128C1465.9 359.648 1468.13 362.132 1470.44 364.148C1469.07 365.336 1467.56 366.056 1465.94 366.056C1463.34 366.056 1461.29 364.328 1461.29 361.7ZM1464.06 349.496C1464.06 347.552 1465.22 346.076 1466.98 346.076C1468.56 346.076 1469.21 347.3 1469.21 348.668C1469.21 350.756 1467.34 352.196 1465.18 353.636C1464.5 352.196 1464.06 350.792 1464.06 349.496ZM1478.64 365.984C1477.35 365.624 1475.84 364.832 1474.22 363.716C1476.09 361.232 1477.42 358.352 1478.36 355.256H1475.58C1474.86 357.956 1473.71 360.296 1472.27 362.24C1470.04 360.368 1467.84 358.028 1466.3 355.616C1468.92 353.708 1471.62 351.728 1471.62 348.632C1471.62 345.86 1469.9 343.952 1466.98 343.952C1463.7 343.952 1461.51 346.4 1461.51 349.532C1461.51 351.26 1462.08 353.132 1463.06 355.076C1460.64 356.732 1458.41 358.712 1458.41 361.88C1458.41 365.696 1461.33 368.432 1465.61 368.432C1468.38 368.432 1470.62 367.352 1472.42 365.732C1474.32 367.064 1476.2 367.964 1477.85 368.432L1478.64 365.984ZM1296.08 410.6C1296.08 414.056 1297.34 416.432 1301.08 416.432C1302.16 416.432 1303.35 416.108 1304.32 415.784L1303.74 413.552C1303.17 413.768 1302.38 414.02 1301.76 414.02C1299.75 414.02 1299.06 412.796 1299.06 410.636V400.916H1303.78V398.504H1299.06V393.608H1296.58L1296.22 398.504L1293.48 398.684V400.916H1296.08V410.6ZM1307.49 416H1310.44V403.328C1312.2 401.564 1313.43 400.628 1315.23 400.628C1317.53 400.628 1318.54 402.032 1318.54 405.308V416H1321.49V404.912C1321.49 400.448 1319.83 398.072 1316.16 398.072C1313.75 398.072 1311.99 399.368 1310.33 400.952L1310.44 397.352V390.368H1307.49V416ZM1325.52 407.288C1325.52 413.012 1329.23 416.432 1333.91 416.432C1336.29 416.432 1338.16 415.604 1339.67 414.632L1338.63 412.688C1337.33 413.516 1335.93 414.056 1334.27 414.056C1330.92 414.056 1328.65 411.68 1328.44 407.9H1340.25C1340.32 407.468 1340.35 406.892 1340.35 406.28C1340.35 401.276 1337.83 398.072 1333.37 398.072C1329.37 398.072 1325.52 401.564 1325.52 407.288ZM1328.4 405.956C1328.76 402.428 1330.99 400.412 1333.44 400.412C1336.18 400.412 1337.76 402.392 1337.76 405.956H1328.4ZM1351.45 416H1354.41V404.768C1355.59 401.816 1357.36 400.736 1358.83 400.736C1359.55 400.736 1359.95 400.844 1360.53 401.024L1361.1 398.432C1360.53 398.18 1359.99 398.072 1359.23 398.072C1357.25 398.072 1355.45 399.476 1354.26 401.672H1354.15L1353.9 398.504H1351.45V416ZM1365.2 394.904C1366.35 394.904 1367.25 394.112 1367.25 392.996C1367.25 391.844 1366.35 391.088 1365.2 391.088C1364.04 391.088 1363.14 391.844 1363.14 392.996C1363.14 394.112 1364.04 394.904 1365.2 394.904ZM1363.68 416H1366.64V398.504H1363.68V416ZM1373.55 418.952C1373.55 417.944 1374.09 416.9 1375.35 416C1376.11 416.216 1376.94 416.288 1377.62 416.288H1380.65C1382.91 416.288 1384.17 416.828 1384.17 418.448C1384.17 420.284 1381.98 422.012 1378.63 422.012C1375.46 422.012 1373.55 420.824 1373.55 418.952ZM1370.96 419.348C1370.96 422.372 1373.91 424.064 1378.2 424.064C1383.63 424.064 1387.05 421.256 1387.05 418.016C1387.05 415.1 1385 413.84 1380.93 413.84H1377.55C1375.17 413.84 1374.45 413.048 1374.45 411.932C1374.45 410.96 1374.96 410.384 1375.57 409.844C1376.36 410.24 1377.33 410.456 1378.2 410.456C1381.76 410.456 1384.61 408.116 1384.61 404.372C1384.61 402.896 1383.99 401.564 1383.17 400.772H1386.77V398.504H1380.68C1380.03 398.252 1379.17 398.072 1378.2 398.072C1374.63 398.072 1371.61 400.484 1371.61 404.3C1371.61 406.388 1372.73 408.08 1373.88 409.016V409.16C1372.98 409.772 1371.97 410.924 1371.97 412.4C1371.97 413.768 1372.65 414.704 1373.52 415.244V415.388C1371.93 416.468 1370.96 417.872 1370.96 419.348ZM1378.2 408.476C1376.18 408.476 1374.49 406.856 1374.49 404.3C1374.49 401.744 1376.15 400.232 1378.2 400.232C1380.25 400.232 1381.91 401.744 1381.91 404.3C1381.91 406.856 1380.21 408.476 1378.2 408.476ZM1390.18 416H1393.14V403.328C1394.9 401.564 1396.12 400.628 1397.92 400.628C1400.23 400.628 1401.24 402.032 1401.24 405.308V416H1404.19V404.912C1404.19 400.448 1402.53 398.072 1398.86 398.072C1396.45 398.072 1394.68 399.368 1393.03 400.952L1393.14 397.352V390.368H1390.18V416ZM1410.02 410.6C1410.02 414.056 1411.28 416.432 1415.02 416.432C1416.1 416.432 1417.29 416.108 1418.26 415.784L1417.69 413.552C1417.11 413.768 1416.32 414.02 1415.71 414.02C1413.69 414.02 1413.01 412.796 1413.01 410.636V400.916H1417.72V398.504H1413.01V393.608H1410.52L1410.16 398.504L1407.43 398.684V400.916H1410.02V410.6ZM1431.34 414.416C1432.96 415.676 1434.58 416.432 1436.2 416.432C1440.19 416.432 1443.76 412.94 1443.76 407C1443.76 401.564 1441.35 398.072 1436.85 398.072C1434.79 398.072 1432.85 399.188 1431.27 400.52H1431.16L1430.91 398.504H1428.46V423.38H1431.41V417.476L1431.34 414.416ZM1431.41 412.112V402.932C1433.14 401.384 1434.61 400.556 1436.09 400.556C1439.4 400.556 1440.7 403.148 1440.7 407C1440.7 411.32 1438.57 413.948 1435.69 413.948C1434.54 413.948 1432.99 413.444 1431.41 412.112ZM1448.18 416H1451.13V404.768C1452.32 401.816 1454.08 400.736 1455.56 400.736C1456.28 400.736 1456.67 400.844 1457.25 401.024L1457.82 398.432C1457.25 398.18 1456.71 398.072 1455.95 398.072C1453.97 398.072 1452.17 399.476 1450.98 401.672H1450.88L1450.62 398.504H1448.18V416ZM1461.92 394.904C1463.07 394.904 1463.97 394.112 1463.97 392.996C1463.97 391.844 1463.07 391.088 1461.92 391.088C1460.77 391.088 1459.87 391.844 1459.87 392.996C1459.87 394.112 1460.77 394.904 1461.92 394.904ZM1460.41 416H1463.36V398.504H1460.41V416ZM1467.72 407.288C1467.72 413.084 1471.54 416.432 1475.82 416.432C1480.1 416.432 1483.92 413.084 1483.92 407.288C1483.92 401.42 1480.1 398.072 1475.82 398.072C1471.54 398.072 1467.72 401.42 1467.72 407.288ZM1470.78 407.288C1470.78 403.256 1472.83 400.52 1475.82 400.52C1478.84 400.52 1480.86 403.256 1480.86 407.288C1480.86 411.284 1478.84 413.984 1475.82 413.984C1472.83 413.984 1470.78 411.284 1470.78 407.288ZM1488.28 416H1491.23V404.768C1492.42 401.816 1494.18 400.736 1495.66 400.736C1496.38 400.736 1496.77 400.844 1497.35 401.024L1497.93 398.432C1497.35 398.18 1496.81 398.072 1496.05 398.072C1494.07 398.072 1492.27 399.476 1491.09 401.672H1490.98L1490.73 398.504H1488.28V416ZM1502.02 394.904C1503.17 394.904 1504.07 394.112 1504.07 392.996C1504.07 391.844 1503.17 391.088 1502.02 391.088C1500.87 391.088 1499.97 391.844 1499.97 392.996C1499.97 394.112 1500.87 394.904 1502.02 394.904ZM1500.51 416H1503.46V398.504H1500.51V416ZM1509.62 410.6C1509.62 414.056 1510.88 416.432 1514.63 416.432C1515.71 416.432 1516.89 416.108 1517.87 415.784L1517.29 413.552C1516.71 413.768 1515.92 414.02 1515.31 414.02C1513.29 414.02 1512.61 412.796 1512.61 410.636V400.916H1517.33V398.504H1512.61V393.608H1510.13L1509.77 398.504L1507.03 398.684V400.916H1509.62V410.6ZM1522.54 394.904C1523.7 394.904 1524.6 394.112 1524.6 392.996C1524.6 391.844 1523.7 391.088 1522.54 391.088C1521.39 391.088 1520.49 391.844 1520.49 392.996C1520.49 394.112 1521.39 394.904 1522.54 394.904ZM1521.03 416H1523.98V398.504H1521.03V416ZM1528.35 407.288C1528.35 413.012 1532.05 416.432 1536.73 416.432C1539.11 416.432 1540.98 415.604 1542.49 414.632L1541.45 412.688C1540.15 413.516 1538.75 414.056 1537.09 414.056C1533.75 414.056 1531.48 411.68 1531.26 407.9H1543.07C1543.14 407.468 1543.18 406.892 1543.18 406.28C1543.18 401.276 1540.66 398.072 1536.19 398.072C1532.2 398.072 1528.35 401.564 1528.35 407.288ZM1531.23 405.956C1531.59 402.428 1533.82 400.412 1536.27 400.412C1539 400.412 1540.59 402.392 1540.59 405.956H1531.23ZM1545.31 414.02C1546.96 415.388 1549.34 416.432 1551.82 416.432C1555.96 416.432 1558.23 414.056 1558.23 411.212C1558.23 407.9 1555.42 406.856 1552.9 405.92C1550.92 405.164 1549.01 404.552 1549.01 402.896C1549.01 401.564 1550.02 400.376 1552.22 400.376C1553.77 400.376 1555.03 401.024 1556.21 401.924L1557.62 400.052C1556.29 398.972 1554.38 398.072 1552.18 398.072C1548.4 398.072 1546.17 400.232 1546.17 403.04C1546.17 405.992 1548.91 407.18 1551.39 408.08C1553.3 408.8 1555.39 409.592 1555.39 411.392C1555.39 412.904 1554.23 414.128 1551.93 414.128C1549.84 414.128 1548.29 413.264 1546.78 412.04L1545.31 414.02Z" fill="#2B2B2B"/>
<path d="M1489.03 361.52C1489.03 365.66 1490.76 368.432 1495.19 368.432C1496.92 368.432 1498.21 368.072 1499.15 367.784L1498.32 363.932C1497.85 364.112 1497.21 364.292 1496.63 364.292C1495.23 364.292 1494.33 363.464 1494.33 361.448V354.284H1498.61V350.144H1494.33V345.392H1489.93L1489.32 350.144L1486.59 350.36V354.284H1489.03V361.52ZM1501.85 368H1507.14V357.632C1508.07 355.22 1509.73 354.356 1511.06 354.356C1511.82 354.356 1512.36 354.464 1513.01 354.644L1513.87 350.072C1513.37 349.856 1512.75 349.712 1511.75 349.712C1509.91 349.712 1507.97 350.864 1506.67 353.276H1506.53L1506.17 350.144H1501.85V368ZM1514.24 363.032C1514.24 366.056 1516.29 368.432 1519.53 368.432C1521.54 368.432 1523.24 367.496 1524.75 366.164H1524.86L1525.25 368H1529.57V357.776C1529.57 352.304 1527.05 349.712 1522.48 349.712C1519.67 349.712 1517.12 350.684 1514.85 352.052L1516.72 355.544C1518.45 354.536 1519.96 353.924 1521.47 353.924C1523.38 353.924 1524.17 354.932 1524.28 356.516C1517.22 357.236 1514.24 359.288 1514.24 363.032ZM1519.28 362.636C1519.28 361.268 1520.5 360.188 1524.28 359.684V362.816C1523.34 363.752 1522.55 364.328 1521.33 364.328C1520.07 364.328 1519.28 363.788 1519.28 362.636ZM1532.82 359.072C1532.82 365.012 1536.67 368.432 1541.64 368.432C1543.59 368.432 1545.85 367.712 1547.58 366.2L1545.46 362.852C1544.59 363.536 1543.55 364.148 1542.25 364.148C1539.95 364.148 1538.26 362.168 1538.26 359.072C1538.26 355.976 1539.88 353.996 1542.43 353.996C1543.26 353.996 1544.05 354.32 1544.92 355.04L1547.33 351.764C1546.14 350.54 1544.31 349.712 1542.11 349.712C1537.18 349.712 1532.82 353.132 1532.82 359.072ZM1550.42 368H1555.57V363.608L1557.84 361.052L1561.87 368H1567.59L1560.86 357.488L1567.12 350.144H1561.36L1555.71 357.236H1555.57V342.764H1550.42V368Z" fill="#009CDE"/>
<path d="M1321.18 660H1335.15V657.444H1324.17V648.876H1333.13V646.32H1324.17V638.904H1334.79V636.384H1321.18V660ZM1339.62 660H1342.58V647.328C1344.34 645.564 1345.56 644.628 1347.36 644.628C1349.67 644.628 1350.68 646.032 1350.68 649.308V660H1353.63V648.912C1353.63 644.448 1351.97 642.072 1348.3 642.072C1345.89 642.072 1344.09 643.368 1342.43 645.024H1342.32L1342.07 642.504H1339.62V660ZM1357.77 651.288C1357.77 657.084 1361.33 660.432 1365.97 660.432C1368.06 660.432 1370.08 659.568 1371.66 658.164L1370.33 656.22C1369.29 657.156 1367.88 657.984 1366.23 657.984C1363.02 657.984 1360.83 655.284 1360.83 651.288C1360.83 647.256 1363.13 644.52 1366.3 644.52C1367.7 644.52 1368.78 645.168 1369.83 646.068L1371.3 644.16C1370.11 643.044 1368.49 642.072 1366.19 642.072C1361.69 642.072 1357.77 645.42 1357.77 651.288ZM1373.16 651.288C1373.16 657.084 1376.98 660.432 1381.26 660.432C1385.54 660.432 1389.36 657.084 1389.36 651.288C1389.36 645.42 1385.54 642.072 1381.26 642.072C1376.98 642.072 1373.16 645.42 1373.16 651.288ZM1376.22 651.288C1376.22 647.256 1378.27 644.52 1381.26 644.52C1384.28 644.52 1386.3 647.256 1386.3 651.288C1386.3 655.284 1384.28 657.984 1381.26 657.984C1378.27 657.984 1376.22 655.284 1376.22 651.288ZM1393.47 653.592C1393.47 658.056 1395.12 660.432 1398.83 660.432C1401.24 660.432 1402.97 659.172 1404.59 657.264H1404.7L1404.95 660H1407.4V642.504H1404.45V654.924C1402.79 656.976 1401.53 657.876 1399.73 657.876C1397.43 657.876 1396.45 656.472 1396.45 653.196V642.504H1393.47V653.592ZM1413.05 660H1416V648.768C1417.19 645.816 1418.95 644.736 1420.43 644.736C1421.15 644.736 1421.55 644.844 1422.12 645.024L1422.7 642.432C1422.12 642.18 1421.58 642.072 1420.83 642.072C1418.85 642.072 1417.05 643.476 1415.86 645.672H1415.75L1415.5 642.504H1413.05V660ZM1423.5 655.464C1423.5 658.596 1425.7 660.432 1428.65 660.432C1430.81 660.432 1432.75 659.28 1434.45 657.912H1434.52L1434.77 660H1437.22V649.272C1437.22 644.916 1435.42 642.072 1431.13 642.072C1428.33 642.072 1425.88 643.296 1424.26 644.34L1425.45 646.392C1426.81 645.456 1428.61 644.52 1430.67 644.52C1433.51 644.52 1434.27 646.68 1434.27 648.912C1426.81 649.74 1423.5 651.648 1423.5 655.464ZM1426.42 655.248C1426.42 653.016 1428.4 651.576 1434.27 650.856V655.716C1432.57 657.228 1431.17 658.056 1429.48 658.056C1427.75 658.056 1426.42 657.228 1426.42 655.248ZM1443.8 662.952C1443.8 661.944 1444.34 660.9 1445.6 660C1446.35 660.216 1447.18 660.288 1447.87 660.288H1450.89C1453.16 660.288 1454.42 660.828 1454.42 662.448C1454.42 664.284 1452.22 666.012 1448.87 666.012C1445.71 666.012 1443.8 664.824 1443.8 662.952ZM1441.21 663.348C1441.21 666.372 1444.16 668.064 1448.44 668.064C1453.88 668.064 1457.3 665.256 1457.3 662.016C1457.3 659.1 1455.25 657.84 1451.18 657.84H1447.79C1445.42 657.84 1444.7 657.048 1444.7 655.932C1444.7 654.96 1445.2 654.384 1445.81 653.844C1446.61 654.24 1447.58 654.456 1448.44 654.456C1452.01 654.456 1454.85 652.116 1454.85 648.372C1454.85 646.896 1454.24 645.564 1453.41 644.772H1457.01V642.504H1450.93C1450.28 642.252 1449.41 642.072 1448.44 642.072C1444.88 642.072 1441.85 644.484 1441.85 648.3C1441.85 650.388 1442.97 652.08 1444.12 653.016V653.16C1443.22 653.772 1442.21 654.924 1442.21 656.4C1442.21 657.768 1442.9 658.704 1443.76 659.244V659.388C1442.18 660.468 1441.21 661.872 1441.21 663.348ZM1448.44 652.476C1446.43 652.476 1444.73 650.856 1444.73 648.3C1444.73 645.744 1446.39 644.232 1448.44 644.232C1450.49 644.232 1452.15 645.744 1452.15 648.3C1452.15 650.856 1450.46 652.476 1448.44 652.476ZM1458.64 651.288C1458.64 657.012 1462.35 660.432 1467.03 660.432C1469.4 660.432 1471.28 659.604 1472.79 658.632L1471.74 656.688C1470.45 657.516 1469.04 658.056 1467.39 658.056C1464.04 658.056 1461.77 655.68 1461.56 651.9H1473.36C1473.44 651.468 1473.47 650.892 1473.47 650.28C1473.47 645.276 1470.95 642.072 1466.49 642.072C1462.49 642.072 1458.64 645.564 1458.64 651.288ZM1461.52 649.956C1461.88 646.428 1464.11 644.412 1466.56 644.412C1469.3 644.412 1470.88 646.392 1470.88 649.956H1461.52ZM1475.6 658.02C1477.26 659.388 1479.63 660.432 1482.12 660.432C1486.26 660.432 1488.53 658.056 1488.53 655.212C1488.53 651.9 1485.72 650.856 1483.2 649.92C1481.22 649.164 1479.31 648.552 1479.31 646.896C1479.31 645.564 1480.32 644.376 1482.51 644.376C1484.06 644.376 1485.32 645.024 1486.51 645.924L1487.91 644.052C1486.58 642.972 1484.67 642.072 1482.48 642.072C1478.7 642.072 1476.47 644.232 1476.47 647.04C1476.47 649.992 1479.2 651.18 1481.69 652.08C1483.59 652.8 1485.68 653.592 1485.68 655.392C1485.68 656.904 1484.53 658.128 1482.23 658.128C1480.14 658.128 1478.59 657.264 1477.08 656.04L1475.6 658.02ZM1498.54 655.464C1498.54 658.596 1500.74 660.432 1503.69 660.432C1505.85 660.432 1507.79 659.28 1509.49 657.912H1509.56L1509.81 660H1512.26V649.272C1512.26 644.916 1510.46 642.072 1506.17 642.072C1503.37 642.072 1500.92 643.296 1499.3 644.34L1500.49 646.392C1501.85 645.456 1503.65 644.52 1505.71 644.52C1508.55 644.52 1509.31 646.68 1509.31 648.912C1501.85 649.74 1498.54 651.648 1498.54 655.464ZM1501.46 655.248C1501.46 653.016 1503.44 651.576 1509.31 650.856V655.716C1507.61 657.228 1506.21 658.056 1504.52 658.056C1502.79 658.056 1501.46 657.228 1501.46 655.248ZM1517.58 660H1520.53V647.328C1522.29 645.564 1523.52 644.628 1525.32 644.628C1527.62 644.628 1528.63 646.032 1528.63 649.308V660H1531.58V648.912C1531.58 644.448 1529.93 642.072 1526.25 642.072C1523.84 642.072 1522.04 643.368 1520.39 645.024H1520.28L1520.03 642.504H1517.58V660ZM1497.19 708H1500.64L1503.09 698.64C1503.56 696.984 1503.92 695.328 1504.32 693.564H1504.46C1504.89 695.328 1505.22 696.948 1505.65 698.604L1508.17 708H1511.77L1516.45 690.504H1513.64L1511.08 700.62C1510.72 702.276 1510.4 703.86 1510 705.48H1509.86C1509.46 703.86 1509.07 702.276 1508.64 700.62L1505.9 690.504H1503.02L1500.32 700.62C1499.89 702.24 1499.53 703.86 1499.13 705.48H1498.99C1498.66 703.86 1498.34 702.276 1497.94 700.62L1495.35 690.504H1492.33L1497.19 708ZM1518.57 699.288C1518.57 705.084 1522.39 708.432 1526.67 708.432C1530.95 708.432 1534.77 705.084 1534.77 699.288C1534.77 693.42 1530.95 690.072 1526.67 690.072C1522.39 690.072 1518.57 693.42 1518.57 699.288ZM1521.63 699.288C1521.63 695.256 1523.68 692.52 1526.67 692.52C1529.69 692.52 1531.71 695.256 1531.71 699.288C1531.71 703.284 1529.69 705.984 1526.67 705.984C1523.68 705.984 1521.63 703.284 1521.63 699.288ZM1539.13 708H1542.08V696.768C1543.27 693.816 1545.03 692.736 1546.51 692.736C1547.23 692.736 1547.62 692.844 1548.2 693.024L1548.78 690.432C1548.2 690.18 1547.66 690.072 1546.9 690.072C1544.92 690.072 1543.12 691.476 1541.94 693.672H1541.83L1541.58 690.504H1539.13V708ZM1551.36 708H1554.27V703.392L1557.55 699.576L1562.66 708H1565.9L1559.24 697.524L1565.11 690.504H1561.83L1554.38 699.72H1554.27V682.368H1551.36V708ZM1331.86 747.288C1331.86 753.012 1335.57 756.432 1340.25 756.432C1342.62 756.432 1344.49 755.604 1346.01 754.632L1344.96 752.688C1343.67 753.516 1342.26 754.056 1340.61 754.056C1337.26 754.056 1334.99 751.68 1334.77 747.9H1346.58C1346.65 747.468 1346.69 746.892 1346.69 746.28C1346.69 741.276 1344.17 738.072 1339.71 738.072C1335.71 738.072 1331.86 741.564 1331.86 747.288ZM1334.74 745.956C1335.1 742.428 1337.33 740.412 1339.78 740.412C1342.51 740.412 1344.1 742.392 1344.1 745.956H1334.74ZM1350.76 756H1353.71V743.328C1355.48 741.564 1356.7 740.628 1358.5 740.628C1360.81 740.628 1361.81 742.032 1361.81 745.308V756H1364.77V744.912C1364.77 740.448 1363.11 738.072 1359.44 738.072C1357.03 738.072 1355.23 739.368 1353.57 741.024H1353.46L1353.21 738.504H1350.76V756ZM1373.98 756H1377.44L1383.63 738.504H1380.71L1377.4 748.44C1376.9 750.168 1376.32 751.932 1375.82 753.588H1375.67C1375.13 751.932 1374.56 750.168 1374.05 748.44L1370.74 738.504H1367.68L1373.98 756ZM1388.27 734.904C1389.42 734.904 1390.32 734.112 1390.32 732.996C1390.32 731.844 1389.42 731.088 1388.27 731.088C1387.11 731.088 1386.21 731.844 1386.21 732.996C1386.21 734.112 1387.11 734.904 1388.27 734.904ZM1386.75 756H1389.71V738.504H1386.75V756ZM1395.36 756H1398.32V744.768C1399.5 741.816 1401.27 740.736 1402.74 740.736C1403.46 740.736 1403.86 740.844 1404.44 741.024L1405.01 738.432C1404.44 738.18 1403.9 738.072 1403.14 738.072C1401.16 738.072 1399.36 739.476 1398.17 741.672H1398.06L1397.81 738.504H1395.36V756ZM1405.95 747.288C1405.95 753.084 1409.76 756.432 1414.05 756.432C1418.33 756.432 1422.15 753.084 1422.15 747.288C1422.15 741.42 1418.33 738.072 1414.05 738.072C1409.76 738.072 1405.95 741.42 1405.95 747.288ZM1409.01 747.288C1409.01 743.256 1411.06 740.52 1414.05 740.52C1417.07 740.52 1419.09 743.256 1419.09 747.288C1419.09 751.284 1417.07 753.984 1414.05 753.984C1411.06 753.984 1409.01 751.284 1409.01 747.288ZM1426.5 756H1429.46V743.328C1431.22 741.564 1432.44 740.628 1434.24 740.628C1436.55 740.628 1437.56 742.032 1437.56 745.308V756H1440.51V744.912C1440.51 740.448 1438.85 738.072 1435.18 738.072C1432.77 738.072 1430.97 739.368 1429.31 741.024H1429.2L1428.95 738.504H1426.5V756ZM1445.94 756H1448.89V743.328C1450.51 741.528 1451.99 740.628 1453.29 740.628C1455.52 740.628 1456.56 742.032 1456.56 745.308V756H1459.51V743.328C1461.13 741.528 1462.54 740.628 1463.91 740.628C1466.1 740.628 1467.15 742.032 1467.15 745.308V756H1470.1V744.912C1470.1 740.448 1468.37 738.072 1464.77 738.072C1462.65 738.072 1460.85 739.44 1459.01 741.42C1458.29 739.332 1456.85 738.072 1454.19 738.072C1452.1 738.072 1450.26 739.368 1448.75 741.024H1448.64L1448.39 738.504H1445.94V756ZM1474.24 747.288C1474.24 753.012 1477.95 756.432 1482.63 756.432C1485.01 756.432 1486.88 755.604 1488.39 754.632L1487.35 752.688C1486.05 753.516 1484.65 754.056 1482.99 754.056C1479.64 754.056 1477.38 751.68 1477.16 747.9H1488.97C1489.04 747.468 1489.08 746.892 1489.08 746.28C1489.08 741.276 1486.56 738.072 1482.09 738.072C1478.1 738.072 1474.24 741.564 1474.24 747.288ZM1477.12 745.956C1477.48 742.428 1479.72 740.412 1482.16 740.412C1484.9 740.412 1486.48 742.392 1486.48 745.956H1477.12ZM1493.15 756H1496.1V743.328C1497.87 741.564 1499.09 740.628 1500.89 740.628C1503.19 740.628 1504.2 742.032 1504.2 745.308V756H1507.15V744.912C1507.15 740.448 1505.5 738.072 1501.83 738.072C1499.41 738.072 1497.61 739.368 1495.96 741.024H1495.85L1495.6 738.504H1493.15V756ZM1513.09 750.6C1513.09 754.056 1514.35 756.432 1518.09 756.432C1519.17 756.432 1520.36 756.108 1521.33 755.784L1520.76 753.552C1520.18 753.768 1519.39 754.02 1518.78 754.02C1516.76 754.02 1516.08 752.796 1516.08 750.636V740.916H1520.79V738.504H1516.08V733.608H1513.59L1513.23 738.504L1510.5 738.684V740.916H1513.09V750.6Z" fill="#2B2B2B"/>
<path d="M1287.71 703.032C1287.71 706.056 1289.76 708.432 1293 708.432C1295.02 708.432 1296.71 707.496 1298.22 706.164H1298.33L1298.73 708H1303.05V697.776C1303.05 692.304 1300.53 689.712 1295.96 689.712C1293.15 689.712 1290.59 690.684 1288.32 692.052L1290.2 695.544C1291.92 694.536 1293.44 693.924 1294.95 693.924C1296.86 693.924 1297.65 694.932 1297.76 696.516C1290.7 697.236 1287.71 699.288 1287.71 703.032ZM1292.75 702.636C1292.75 701.268 1293.98 700.188 1297.76 699.684V702.816C1296.82 703.752 1296.03 704.328 1294.8 704.328C1293.54 704.328 1292.75 703.788 1292.75 702.636ZM1307.16 701.232C1307.16 705.696 1308.82 708.432 1312.7 708.432C1315.15 708.432 1316.81 707.316 1318.32 705.516H1318.43L1318.82 708H1323.14V690.144H1317.85V701.952C1316.81 703.356 1316.02 703.932 1314.68 703.932C1313.14 703.932 1312.45 703.104 1312.45 700.548V690.144H1307.16V701.232ZM1328.27 701.52C1328.27 705.66 1330 708.432 1334.43 708.432C1336.15 708.432 1337.45 708.072 1338.39 707.784L1337.56 703.932C1337.09 704.112 1336.44 704.292 1335.87 704.292C1334.46 704.292 1333.56 703.464 1333.56 701.448V694.284H1337.85V690.144H1333.56V685.392H1329.17L1328.56 690.144L1325.82 690.36V694.284H1328.27V701.52ZM1339.69 699.072C1339.69 705.012 1343.86 708.432 1348.4 708.432C1352.9 708.432 1357.07 705.012 1357.07 699.072C1357.07 693.132 1352.9 689.712 1348.4 689.712C1343.86 689.712 1339.69 693.132 1339.69 699.072ZM1345.12 699.072C1345.12 695.976 1346.2 693.996 1348.4 693.996C1350.56 693.996 1351.67 695.976 1351.67 699.072C1351.67 702.168 1350.56 704.148 1348.4 704.148C1346.2 704.148 1345.12 702.168 1345.12 699.072ZM1360.45 708H1365.74V695.94C1366.89 694.824 1367.72 694.212 1369.05 694.212C1370.57 694.212 1371.25 695.004 1371.25 697.596V708H1376.54V696.912C1376.54 692.448 1374.89 689.712 1371 689.712C1368.59 689.712 1366.79 690.972 1365.27 692.412H1365.13L1364.77 690.144H1360.45V708ZM1379.76 699.072C1379.76 705.012 1383.93 708.432 1388.47 708.432C1392.97 708.432 1397.14 705.012 1397.14 699.072C1397.14 693.132 1392.97 689.712 1388.47 689.712C1383.93 689.712 1379.76 693.132 1379.76 699.072ZM1385.19 699.072C1385.19 695.976 1386.27 693.996 1388.47 693.996C1390.63 693.996 1391.74 695.976 1391.74 699.072C1391.74 702.168 1390.63 704.148 1388.47 704.148C1386.27 704.148 1385.19 702.168 1385.19 699.072ZM1400.52 708H1405.81V695.94C1406.93 694.788 1407.97 694.212 1408.84 694.212C1410.35 694.212 1411.03 695.004 1411.03 697.596V708H1416.32V695.94C1417.48 694.788 1418.48 694.212 1419.38 694.212C1420.9 694.212 1421.58 695.004 1421.58 697.596V708H1426.87V696.912C1426.87 692.448 1425.14 689.712 1421.29 689.712C1418.92 689.712 1417.26 691.08 1415.68 692.7C1414.78 690.792 1413.26 689.712 1410.74 689.712C1408.4 689.712 1406.82 690.972 1405.34 692.448H1405.2L1404.84 690.144H1400.52V708ZM1430.09 699.072C1430.09 705.012 1434.27 708.432 1438.8 708.432C1443.3 708.432 1447.48 705.012 1447.48 699.072C1447.48 693.132 1443.3 689.712 1438.8 689.712C1434.27 689.712 1430.09 693.132 1430.09 699.072ZM1435.53 699.072C1435.53 695.976 1436.61 693.996 1438.8 693.996C1440.96 693.996 1442.08 695.976 1442.08 699.072C1442.08 702.168 1440.96 704.148 1438.8 704.148C1436.61 704.148 1435.53 702.168 1435.53 699.072ZM1450.68 701.232C1450.68 705.696 1452.33 708.432 1456.22 708.432C1458.67 708.432 1460.32 707.316 1461.84 705.516H1461.94L1462.34 708H1466.66V690.144H1461.37V701.952C1460.32 703.356 1459.53 703.932 1458.2 703.932C1456.65 703.932 1455.97 703.104 1455.97 700.548V690.144H1450.68V701.232ZM1469.48 705.948C1471.28 707.424 1473.98 708.432 1476.32 708.432C1481.11 708.432 1483.67 705.912 1483.67 702.672C1483.67 699.396 1481.11 698.136 1478.84 697.308C1477.01 696.624 1475.35 696.192 1475.35 695.04C1475.35 694.14 1476 693.636 1477.37 693.636C1478.63 693.636 1479.85 694.212 1481.15 695.148L1483.52 691.98C1481.97 690.828 1479.96 689.712 1477.22 689.712C1473.08 689.712 1470.38 691.98 1470.38 695.292C1470.38 698.244 1472.94 699.72 1475.1 700.548C1476.93 701.268 1478.73 701.808 1478.73 702.996C1478.73 703.932 1478.05 704.508 1476.47 704.508C1474.95 704.508 1473.48 703.86 1471.86 702.636L1469.48 705.948Z" fill="#009CDE"/>
</svg>
