<svg width="1920" height="1080" viewBox="0 0 1920 1080" fill="none" xmlns="http://www.w3.org/2000/svg">
<rect width="1920" height="1080" fill="white"/>
<rect x="965" y="152" width="312" height="70" rx="14" fill="white" stroke="#2B2B2B" stroke-width="4"/>
<path d="M1017.17 196H1019.16V180.256H1017.17V196ZM1021.4 196H1023.46L1025.05 193.288C1025.43 192.568 1025.81 191.872 1026.22 191.2H1026.32C1026.75 191.872 1027.18 192.592 1027.59 193.288L1029.29 196H1031.43L1027.64 190.12L1031.17 184.336H1029.1L1027.69 186.904C1027.33 187.528 1026.97 188.2 1026.63 188.848H1026.53C1026.13 188.2 1025.74 187.528 1025.38 186.904L1023.82 184.336H1021.69L1025.21 189.904L1021.4 196ZM1033.68 196H1037.72C1042.47 196 1045.06 193.072 1045.06 188.056C1045.06 183.064 1042.47 180.256 1037.62 180.256H1033.68V196ZM1035.68 194.368V181.888H1037.48C1041.15 181.888 1043 184.096 1043 188.056C1043 192.04 1041.15 194.368 1037.48 194.368H1035.68ZM1048.2 196H1050.19V188.944H1056.19V187.264H1050.19V181.936H1057.27V180.256H1048.2V196ZM1132.33 191.8C1132.33 190.576 1133.19 189.64 1134.3 188.752C1135.4 190.432 1136.89 192.088 1138.42 193.432C1137.51 194.224 1136.5 194.704 1135.42 194.704C1133.7 194.704 1132.33 193.552 1132.33 191.8ZM1134.18 183.664C1134.18 182.368 1134.94 181.384 1136.12 181.384C1137.18 181.384 1137.61 182.2 1137.61 183.112C1137.61 184.504 1136.36 185.464 1134.92 186.424C1134.46 185.464 1134.18 184.528 1134.18 183.664ZM1143.9 194.656C1143.03 194.416 1142.02 193.888 1140.94 193.144C1142.19 191.488 1143.08 189.568 1143.7 187.504H1141.86C1141.38 189.304 1140.61 190.864 1139.65 192.16C1138.16 190.912 1136.7 189.352 1135.66 187.744C1137.42 186.472 1139.22 185.152 1139.22 183.088C1139.22 181.24 1138.06 179.968 1136.12 179.968C1133.94 179.968 1132.47 181.6 1132.47 183.688C1132.47 184.84 1132.86 186.088 1133.5 187.384C1131.9 188.488 1130.41 189.808 1130.41 191.92C1130.41 194.464 1132.35 196.288 1135.21 196.288C1137.06 196.288 1138.54 195.568 1139.74 194.488C1141.02 195.376 1142.26 195.976 1143.37 196.288L1143.9 194.656Z" fill="#2B2B2B"/>
<path d="M1066.81 196H1071.06L1075.76 180.352H1072.16L1070.31 187.648C1069.86 189.352 1069.52 190.936 1069.07 192.664H1068.97C1068.49 190.936 1068.18 189.352 1067.7 187.648L1065.83 180.352H1062.08L1066.81 196ZM1078.65 182.344C1079.85 182.344 1080.69 181.576 1080.69 180.496C1080.69 179.416 1079.85 178.672 1078.65 178.672C1077.47 178.672 1076.61 179.416 1076.61 180.496C1076.61 181.576 1077.47 182.344 1078.65 182.344ZM1076.9 196H1080.42V184.096H1076.9V196ZM1082.22 194.632C1083.42 195.616 1085.22 196.288 1086.78 196.288C1089.97 196.288 1091.68 194.608 1091.68 192.448C1091.68 190.264 1089.97 189.424 1088.46 188.872C1087.24 188.416 1086.13 188.128 1086.13 187.36C1086.13 186.76 1086.57 186.424 1087.48 186.424C1088.32 186.424 1089.13 186.808 1090 187.432L1091.58 185.32C1090.55 184.552 1089.21 183.808 1087.38 183.808C1084.62 183.808 1082.82 185.32 1082.82 187.528C1082.82 189.496 1084.53 190.48 1085.97 191.032C1087.19 191.512 1088.39 191.872 1088.39 192.664C1088.39 193.288 1087.93 193.672 1086.88 193.672C1085.87 193.672 1084.89 193.24 1083.81 192.424L1082.22 194.632ZM1095.42 182.344C1096.62 182.344 1097.46 181.576 1097.46 180.496C1097.46 179.416 1096.62 178.672 1095.42 178.672C1094.25 178.672 1093.38 179.416 1093.38 180.496C1093.38 181.576 1094.25 182.344 1095.42 182.344ZM1093.67 196H1097.2V184.096H1093.67V196ZM1099.36 190.048C1099.36 194.008 1102.14 196.288 1105.16 196.288C1108.16 196.288 1110.95 194.008 1110.95 190.048C1110.95 186.088 1108.16 183.808 1105.16 183.808C1102.14 183.808 1099.36 186.088 1099.36 190.048ZM1102.98 190.048C1102.98 187.984 1103.7 186.664 1105.16 186.664C1106.6 186.664 1107.35 187.984 1107.35 190.048C1107.35 192.112 1106.6 193.432 1105.16 193.432C1103.7 193.432 1102.98 192.112 1102.98 190.048ZM1113.11 196H1116.64V187.96C1117.41 187.216 1117.96 186.808 1118.85 186.808C1119.86 186.808 1120.31 187.336 1120.31 189.064V196H1123.84V188.608C1123.84 185.632 1122.74 183.808 1120.15 183.808C1118.54 183.808 1117.34 184.648 1116.33 185.608H1116.23L1115.99 184.096H1113.11V196ZM1150.47 196H1153.71V190.264C1153.71 188.728 1153.44 186.448 1153.27 184.936H1153.37L1154.62 188.56L1157.02 194.632H1158.43L1160.83 188.56L1162.13 184.936H1162.23C1162.06 186.448 1161.77 188.728 1161.77 190.264V196H1165.06V180.352H1161.34L1158.79 187.384L1157.86 190.12H1157.76L1156.83 187.384L1154.21 180.352H1150.47V196ZM1169.96 182.344C1171.16 182.344 1172 181.576 1172 180.496C1172 179.416 1171.16 178.672 1169.96 178.672C1168.78 178.672 1167.92 179.416 1167.92 180.496C1167.92 181.576 1168.78 182.344 1169.96 182.344ZM1168.21 196H1171.74V184.096H1168.21V196ZM1173.54 194.632C1174.74 195.616 1176.54 196.288 1178.1 196.288C1181.29 196.288 1182.99 194.608 1182.99 192.448C1182.99 190.264 1181.29 189.424 1179.78 188.872C1178.55 188.416 1177.45 188.128 1177.45 187.36C1177.45 186.76 1177.88 186.424 1178.79 186.424C1179.63 186.424 1180.45 186.808 1181.31 187.432L1182.9 185.32C1181.86 184.552 1180.52 183.808 1178.7 183.808C1175.94 183.808 1174.14 185.32 1174.14 187.528C1174.14 189.496 1175.84 190.48 1177.28 191.032C1178.5 191.512 1179.7 191.872 1179.7 192.664C1179.7 193.288 1179.25 193.672 1178.19 193.672C1177.18 193.672 1176.2 193.24 1175.12 192.424L1173.54 194.632ZM1183.93 194.632C1185.13 195.616 1186.93 196.288 1188.49 196.288C1191.68 196.288 1193.38 194.608 1193.38 192.448C1193.38 190.264 1191.68 189.424 1190.17 188.872C1188.94 188.416 1187.84 188.128 1187.84 187.36C1187.84 186.76 1188.27 186.424 1189.18 186.424C1190.02 186.424 1190.84 186.808 1191.7 187.432L1193.29 185.32C1192.25 184.552 1190.91 183.808 1189.09 183.808C1186.33 183.808 1184.53 185.32 1184.53 187.528C1184.53 189.496 1186.23 190.48 1187.67 191.032C1188.89 191.512 1190.09 191.872 1190.09 192.664C1190.09 193.288 1189.64 193.672 1188.58 193.672C1187.57 193.672 1186.59 193.24 1185.51 192.424L1183.93 194.632ZM1197.12 182.344C1198.32 182.344 1199.16 181.576 1199.16 180.496C1199.16 179.416 1198.32 178.672 1197.12 178.672C1195.95 178.672 1195.08 179.416 1195.08 180.496C1195.08 181.576 1195.95 182.344 1197.12 182.344ZM1195.37 196H1198.9V184.096H1195.37V196ZM1201.06 190.048C1201.06 194.008 1203.84 196.288 1206.87 196.288C1209.87 196.288 1212.65 194.008 1212.65 190.048C1212.65 186.088 1209.87 183.808 1206.87 183.808C1203.84 183.808 1201.06 186.088 1201.06 190.048ZM1204.68 190.048C1204.68 187.984 1205.4 186.664 1206.87 186.664C1208.31 186.664 1209.05 187.984 1209.05 190.048C1209.05 192.112 1208.31 193.432 1206.87 193.432C1205.4 193.432 1204.68 192.112 1204.68 190.048ZM1214.82 196H1218.35V187.96C1219.11 187.216 1219.67 186.808 1220.55 186.808C1221.56 186.808 1222.02 187.336 1222.02 189.064V196H1225.55V188.608C1225.55 185.632 1224.44 183.808 1221.85 183.808C1220.24 183.808 1219.04 184.648 1218.03 185.608H1217.94L1217.7 184.096H1214.82V196Z" fill="#009CDE"/>
<rect x="775" y="290" width="312" height="70" rx="14" fill="white" stroke="#2B2B2B" stroke-width="4"/>
<path d="M840.515 327.592L841.259 325.192C841.835 323.44 842.339 321.712 842.819 319.888H842.915C843.419 321.712 843.923 323.44 844.499 325.192L845.243 327.592H840.515ZM847.235 334H849.371L844.043 318.256H841.787L836.459 334H838.499L840.011 329.2H845.747L847.235 334ZM851.159 334H853.127V325.552C854.303 324.376 855.119 323.752 856.319 323.752C857.855 323.752 858.527 324.688 858.527 326.872V334H860.495V326.608C860.495 323.632 859.391 322.048 856.943 322.048C855.335 322.048 854.135 322.912 853.031 324.016H852.959L852.791 322.336H851.159V334ZM864.034 334H866.002V325.552C867.178 324.376 867.994 323.752 869.194 323.752C870.73 323.752 871.402 324.688 871.402 326.872V334H873.37V326.608C873.37 323.632 872.266 322.048 869.818 322.048C868.21 322.048 867.01 322.912 865.906 324.016H865.834L865.666 322.336H864.034V334ZM876.741 329.728C876.741 332.704 877.845 334.288 880.317 334.288C881.925 334.288 883.077 333.448 884.157 332.176H884.229L884.397 334H886.029V322.336H884.061V330.616C882.957 331.984 882.117 332.584 880.917 332.584C879.381 332.584 878.733 331.648 878.733 329.464V322.336H876.741V329.728ZM889.138 330.976C889.138 333.064 890.602 334.288 892.57 334.288C894.01 334.288 895.306 333.52 896.434 332.608H896.482L896.65 334H898.282V326.848C898.282 323.944 897.082 322.048 894.226 322.048C892.354 322.048 890.722 322.864 889.642 323.56L890.434 324.928C891.346 324.304 892.546 323.68 893.914 323.68C895.81 323.68 896.314 325.12 896.314 326.608C891.346 327.16 889.138 328.432 889.138 330.976ZM891.082 330.832C891.082 329.344 892.402 328.384 896.314 327.904V331.144C895.186 332.152 894.25 332.704 893.122 332.704C891.97 332.704 891.082 332.152 891.082 330.832ZM901.745 331.648C901.745 333.352 902.345 334.288 903.833 334.288C904.361 334.288 904.697 334.216 904.961 334.096L904.697 332.608C904.481 332.656 904.385 332.656 904.265 332.656C903.977 332.656 903.713 332.416 903.713 331.792V316.912H901.745V331.648ZM1015.58 334H1024.22V332.368H1021.05V318.688H1019.54C1018.7 319.192 1017.69 319.576 1016.3 319.816V321.088H1019.08V332.368H1015.58V334Z" fill="#2B2B2B"/>
<path d="M918.454 334.288C922.678 334.288 925.558 331.216 925.558 326.104C925.558 321.016 922.678 318.064 918.454 318.064C914.23 318.064 911.35 320.992 911.35 326.104C911.35 331.216 914.23 334.288 918.454 334.288ZM918.454 331.24C916.318 331.24 914.974 329.248 914.974 326.104C914.974 322.984 916.318 321.112 918.454 321.112C920.59 321.112 921.934 322.984 921.934 326.104C921.934 329.248 920.59 331.24 918.454 331.24ZM927.962 334H930.722L931.01 332.752H931.106C932.042 333.76 933.146 334.288 934.202 334.288C936.77 334.288 939.218 331.936 939.218 327.832C939.218 324.184 937.418 321.808 934.538 321.808C933.434 321.808 932.306 322.312 931.394 323.128L931.49 321.304V317.176H927.962V334ZM931.49 330.64V325.768C932.162 325.024 932.81 324.688 933.53 324.688C934.946 324.688 935.594 325.768 935.594 327.904C935.594 330.352 934.61 331.408 933.386 331.408C932.786 331.408 932.114 331.216 931.49 330.64ZM941.494 334.024C941.494 335.344 941.182 335.944 940.246 335.944C939.91 335.944 939.622 335.872 939.31 335.776L938.686 338.368C939.166 338.56 939.79 338.704 940.774 338.704C944.014 338.704 945.022 336.52 945.022 333.928V322.096H941.494V334.024ZM943.27 320.344C944.446 320.344 945.31 319.576 945.31 318.496C945.31 317.416 944.446 316.672 943.27 316.672C942.094 316.672 941.23 317.416 941.23 318.496C941.23 319.576 942.094 320.344 943.27 320.344ZM947.204 328.048C947.204 331.984 949.82 334.288 953.228 334.288C954.644 334.288 956.228 333.784 957.452 332.944L956.276 330.808C955.412 331.336 954.596 331.6 953.708 331.6C952.124 331.6 950.924 330.808 950.612 329.008H957.74C957.812 328.72 957.884 328.144 957.884 327.52C957.884 324.28 956.204 321.808 952.82 321.808C949.964 321.808 947.204 324.184 947.204 328.048ZM950.588 326.824C950.828 325.24 951.788 324.496 952.892 324.496C954.308 324.496 954.884 325.456 954.884 326.824H950.588ZM959.376 328.048C959.376 332.008 961.944 334.288 965.256 334.288C966.552 334.288 968.064 333.808 969.216 332.8L967.8 330.568C967.224 331.024 966.528 331.432 965.664 331.432C964.128 331.432 963 330.112 963 328.048C963 325.984 964.08 324.664 965.784 324.664C966.336 324.664 966.864 324.88 967.44 325.36L969.048 323.176C968.256 322.36 967.032 321.808 965.568 321.808C962.28 321.808 959.376 324.088 959.376 328.048ZM971.505 329.68C971.505 332.44 972.657 334.288 975.609 334.288C976.761 334.288 977.625 334.048 978.249 333.856L977.697 331.288C977.385 331.408 976.953 331.528 976.569 331.528C975.633 331.528 975.033 330.976 975.033 329.632V324.856H977.889V322.096H975.033V318.928H972.105L971.697 322.096L969.873 322.24V324.856H971.505V329.68ZM981.714 320.344C982.914 320.344 983.754 319.576 983.754 318.496C983.754 317.416 982.914 316.672 981.714 316.672C980.538 316.672 979.674 317.416 979.674 318.496C979.674 319.576 980.538 320.344 981.714 320.344ZM979.962 334H983.49V322.096H979.962V334ZM989.081 334H993.161L997.049 322.096H993.665L992.105 327.712C991.793 328.888 991.481 330.136 991.193 331.384H991.097C990.785 330.136 990.473 328.888 990.161 327.712L988.625 322.096H985.073L989.081 334ZM997.774 328.048C997.774 331.984 1000.39 334.288 1003.8 334.288C1005.21 334.288 1006.8 333.784 1008.02 332.944L1006.85 330.808C1005.98 331.336 1005.17 331.6 1004.28 331.6C1002.69 331.6 1001.49 330.808 1001.18 329.008H1008.31C1008.38 328.72 1008.45 328.144 1008.45 327.52C1008.45 324.28 1006.77 321.808 1003.39 321.808C1000.53 321.808 997.774 324.184 997.774 328.048ZM1001.16 326.824C1001.4 325.24 1002.36 324.496 1003.46 324.496C1004.88 324.496 1005.45 325.456 1005.45 326.824H1001.16Z" fill="#009CDE"/>
<rect x="775" y="566" width="312" height="70" rx="14" fill="white" stroke="#2B2B2B" stroke-width="4"/>
<path d="M871.582 610H873.574V605.008L876.286 601.816L880.99 610H883.222L877.534 600.256L882.454 594.256H880.198L873.646 602.152H873.574V594.256H871.582V610ZM884.01 604.192C884.01 608.008 886.482 610.288 889.602 610.288C891.186 610.288 892.434 609.736 893.442 609.088L892.746 607.792C891.882 608.344 890.946 608.704 889.842 608.704C887.61 608.704 886.098 607.12 885.954 604.6H893.826C893.874 604.312 893.898 603.928 893.898 603.52C893.898 600.184 892.218 598.048 889.242 598.048C886.578 598.048 884.01 600.376 884.01 604.192ZM885.93 603.304C886.17 600.952 887.658 599.608 889.29 599.608C891.114 599.608 892.17 600.928 892.17 603.304H885.93ZM895.856 613.216L895.472 614.776C895.856 614.92 896.312 615.016 896.84 615.016C899.192 615.016 900.392 613.264 901.208 610.96L905.6 598.336H903.68L901.592 604.792C901.28 605.824 900.944 607.024 900.608 608.08H900.512C900.152 607 899.744 605.8 899.384 604.792L897.008 598.336H894.968L899.648 610.024L899.384 610.888C898.904 612.328 898.064 613.384 896.744 613.384C896.456 613.384 896.096 613.288 895.856 613.216ZM982.544 610H991.184V608.368H988.016V594.688H986.504C985.664 595.192 984.656 595.576 983.264 595.816V597.088H986.048V608.368H982.544V610Z" fill="#2B2B2B"/>
<path d="M915.61 597.16H917.434C919.282 597.16 920.29 597.688 920.29 599.224C920.29 600.76 919.282 601.552 917.434 601.552H915.61V597.16ZM924.514 610L920.962 603.736C922.642 602.992 923.746 601.528 923.746 599.224C923.746 595.504 921.034 594.352 917.722 594.352H912.082V610H915.61V604.36H917.554L920.554 610H924.514ZM925.403 604.048C925.403 607.984 928.019 610.288 931.427 610.288C932.843 610.288 934.427 609.784 935.651 608.944L934.475 606.808C933.611 607.336 932.795 607.6 931.907 607.6C930.323 607.6 929.123 606.808 928.811 605.008H935.939C936.011 604.72 936.083 604.144 936.083 603.52C936.083 600.28 934.403 597.808 931.019 597.808C928.163 597.808 925.403 600.184 925.403 604.048ZM928.787 602.824C929.027 601.24 929.987 600.496 931.091 600.496C932.507 600.496 933.083 601.456 933.083 602.824H928.787ZM937.215 608.632C938.415 609.616 940.215 610.288 941.775 610.288C944.967 610.288 946.671 608.608 946.671 606.448C946.671 604.264 944.967 603.424 943.455 602.872C942.231 602.416 941.127 602.128 941.127 601.36C941.127 600.76 941.559 600.424 942.471 600.424C943.311 600.424 944.127 600.808 944.991 601.432L946.575 599.32C945.543 598.552 944.199 597.808 942.375 597.808C939.615 597.808 937.815 599.32 937.815 601.528C937.815 603.496 939.519 604.48 940.959 605.032C942.183 605.512 943.383 605.872 943.383 606.664C943.383 607.288 942.927 607.672 941.871 607.672C940.863 607.672 939.879 607.24 938.799 606.424L937.215 608.632ZM948.542 605.488C948.542 608.464 949.646 610.288 952.238 610.288C953.87 610.288 954.974 609.544 955.982 608.344H956.054L956.318 610H959.198V598.096H955.67V605.968C954.974 606.904 954.446 607.288 953.558 607.288C952.526 607.288 952.07 606.736 952.07 605.032V598.096H948.542V605.488ZM962.052 606.304C962.052 608.704 962.868 610.288 965.292 610.288C966.084 610.288 966.684 610.168 967.068 610L966.636 607.384C966.444 607.432 966.348 607.432 966.204 607.432C965.916 607.432 965.58 607.192 965.58 606.448V593.176H962.052V606.304ZM969.149 605.68C969.149 608.44 970.301 610.288 973.253 610.288C974.405 610.288 975.269 610.048 975.893 609.856L975.341 607.288C975.029 607.408 974.597 607.528 974.213 607.528C973.277 607.528 972.677 606.976 972.677 605.632V600.856H975.533V598.096H972.677V594.928H969.749L969.341 598.096L967.517 598.24V600.856H969.149V605.68Z" fill="#009CDE"/>
<rect x="775" y="672" width="312" height="70" rx="14" fill="white" stroke="#2B2B2B" stroke-width="4"/>
<path d="M903.931 716H907.483V703.328H911.779V700.352H899.635V703.328H903.931V716ZM911.702 712.688C911.702 714.704 913.07 716.288 915.23 716.288C916.574 716.288 917.702 715.664 918.71 714.776H918.782L919.046 716H921.926V709.184C921.926 705.536 920.246 703.808 917.198 703.808C915.326 703.808 913.622 704.456 912.11 705.368L913.358 707.696C914.51 707.024 915.518 706.616 916.526 706.616C917.798 706.616 918.326 707.288 918.398 708.344C913.694 708.824 911.702 710.192 911.702 712.688ZM915.062 712.424C915.062 711.512 915.878 710.792 918.398 710.456V712.544C917.774 713.168 917.246 713.552 916.43 713.552C915.59 713.552 915.062 713.192 915.062 712.424ZM923.649 714.632C924.849 715.616 926.649 716.288 928.209 716.288C931.401 716.288 933.105 714.608 933.105 712.448C933.105 710.264 931.401 709.424 929.889 708.872C928.665 708.416 927.561 708.128 927.561 707.36C927.561 706.76 927.993 706.424 928.905 706.424C929.745 706.424 930.561 706.808 931.425 707.432L933.009 705.32C931.977 704.552 930.633 703.808 928.809 703.808C926.049 703.808 924.249 705.32 924.249 707.528C924.249 709.496 925.953 710.48 927.393 711.032C928.617 711.512 929.817 711.872 929.817 712.664C929.817 713.288 929.361 713.672 928.305 713.672C927.297 713.672 926.313 713.24 925.233 712.424L923.649 714.632ZM935.095 716H938.527V713.072L940.039 711.368L942.727 716H946.543L942.055 708.992L946.231 704.096H942.391L938.623 708.824H938.527V699.176H935.095V716Z" fill="#009CDE"/>
<path d="M952.931 716H961.571V714.368H958.403V700.688H956.891C956.051 701.192 955.043 701.576 953.651 701.816V703.088H956.435V714.368H952.931V716Z" fill="#2B2B2B"/>
<rect x="775" y="778" width="312" height="70" rx="14" fill="white" stroke="#2B2B2B" stroke-width="4"/>
<path d="M903.931 822H907.483V809.328H911.779V806.352H899.635V809.328H903.931V822ZM911.702 818.688C911.702 820.704 913.07 822.288 915.23 822.288C916.574 822.288 917.702 821.664 918.71 820.776H918.782L919.046 822H921.926V815.184C921.926 811.536 920.246 809.808 917.198 809.808C915.326 809.808 913.622 810.456 912.11 811.368L913.358 813.696C914.51 813.024 915.518 812.616 916.526 812.616C917.798 812.616 918.326 813.288 918.398 814.344C913.694 814.824 911.702 816.192 911.702 818.688ZM915.062 818.424C915.062 817.512 915.878 816.792 918.398 816.456V818.544C917.774 819.168 917.246 819.552 916.43 819.552C915.59 819.552 915.062 819.192 915.062 818.424ZM923.649 820.632C924.849 821.616 926.649 822.288 928.209 822.288C931.401 822.288 933.105 820.608 933.105 818.448C933.105 816.264 931.401 815.424 929.889 814.872C928.665 814.416 927.561 814.128 927.561 813.36C927.561 812.76 927.993 812.424 928.905 812.424C929.745 812.424 930.561 812.808 931.425 813.432L933.009 811.32C931.977 810.552 930.633 809.808 928.809 809.808C926.049 809.808 924.249 811.32 924.249 813.528C924.249 815.496 925.953 816.48 927.393 817.032C928.617 817.512 929.817 817.872 929.817 818.664C929.817 819.288 929.361 819.672 928.305 819.672C927.297 819.672 926.313 819.24 925.233 818.424L923.649 820.632ZM935.095 822H938.527V819.072L940.039 817.368L942.727 822H946.543L942.055 814.992L946.231 810.096H942.391L938.623 814.824H938.527V805.176H935.095V822Z" fill="#009CDE"/>
<path d="M951.995 822H961.883V820.296H957.443C956.651 820.296 955.715 820.368 954.875 820.44C958.499 816.648 961.115 813.792 961.115 810.912C961.115 808.2 959.363 806.4 956.531 806.4C954.539 806.4 953.171 807.336 951.899 808.728L953.027 809.856C953.915 808.824 955.019 808.008 956.291 808.008C958.235 808.008 959.195 809.256 959.195 811.008C959.195 813.48 956.603 816.24 951.995 820.824V822Z" fill="#2B2B2B"/>
<rect x="965" y="428" width="312" height="70" rx="14" fill="white" stroke="#2B2B2B" stroke-width="4"/>
<path d="M1017.94 464.056C1017.94 460.144 1019.79 457.72 1022.6 457.72C1025.41 457.72 1027.26 460.144 1027.26 464.056C1027.26 468.088 1025.41 470.632 1022.6 470.632C1019.79 470.632 1017.94 468.088 1017.94 464.056ZM1029.3 474.016C1028.86 474.136 1028.34 474.256 1027.64 474.256C1025.94 474.256 1024.5 473.584 1023.78 472.192C1027.11 471.616 1029.34 468.592 1029.34 464.056C1029.34 459.04 1026.56 455.968 1022.6 455.968C1018.64 455.968 1015.88 459.016 1015.88 464.056C1015.88 468.688 1018.18 471.736 1021.62 472.216C1022.53 474.376 1024.52 475.936 1027.42 475.936C1028.36 475.936 1029.2 475.744 1029.68 475.576L1029.3 474.016ZM1032.12 467.728C1032.12 470.704 1033.22 472.288 1035.7 472.288C1037.3 472.288 1038.46 471.448 1039.54 470.176H1039.61L1039.78 472H1041.41V460.336H1039.44V468.616C1038.34 469.984 1037.5 470.584 1036.3 470.584C1034.76 470.584 1034.11 469.648 1034.11 467.464V460.336H1032.12V467.728ZM1044.52 468.976C1044.52 471.064 1045.98 472.288 1047.95 472.288C1049.39 472.288 1050.69 471.52 1051.81 470.608H1051.86L1052.03 472H1053.66V464.848C1053.66 461.944 1052.46 460.048 1049.61 460.048C1047.73 460.048 1046.1 460.864 1045.02 461.56L1045.81 462.928C1046.73 462.304 1047.93 461.68 1049.29 461.68C1051.19 461.68 1051.69 463.12 1051.69 464.608C1046.73 465.16 1044.52 466.432 1044.52 468.976ZM1046.46 468.832C1046.46 467.344 1047.78 466.384 1051.69 465.904V469.144C1050.57 470.152 1049.63 470.704 1048.5 470.704C1047.35 470.704 1046.46 470.152 1046.46 468.832ZM1057.12 472H1059.09V464.512C1059.88 462.544 1061.06 461.824 1062.04 461.824C1062.52 461.824 1062.79 461.896 1063.17 462.016L1063.56 460.288C1063.17 460.12 1062.81 460.048 1062.31 460.048C1060.99 460.048 1059.79 460.984 1059 462.448H1058.92L1058.76 460.336H1057.12V472ZM1065.53 468.4C1065.53 470.704 1066.37 472.288 1068.87 472.288C1069.59 472.288 1070.38 472.072 1071.03 471.856L1070.64 470.368C1070.26 470.512 1069.73 470.68 1069.32 470.68C1067.98 470.68 1067.52 469.864 1067.52 468.424V461.944H1070.67V460.336H1067.52V457.072H1065.87L1065.63 460.336L1063.8 460.456V461.944H1065.53V468.4ZM1071.96 466.192C1071.96 470.008 1074.43 472.288 1077.55 472.288C1079.13 472.288 1080.38 471.736 1081.39 471.088L1080.69 469.792C1079.83 470.344 1078.89 470.704 1077.79 470.704C1075.56 470.704 1074.04 469.12 1073.9 466.6H1081.77C1081.82 466.312 1081.84 465.928 1081.84 465.52C1081.84 462.184 1080.16 460.048 1077.19 460.048C1074.52 460.048 1071.96 462.376 1071.96 466.192ZM1073.88 465.304C1074.12 462.952 1075.6 461.608 1077.24 461.608C1079.06 461.608 1080.12 462.928 1080.12 465.304H1073.88ZM1084.48 472H1086.44V464.512C1087.24 462.544 1088.41 461.824 1089.4 461.824C1089.88 461.824 1090.14 461.896 1090.52 462.016L1090.91 460.288C1090.52 460.12 1090.16 460.048 1089.66 460.048C1088.34 460.048 1087.14 460.984 1086.35 462.448H1086.28L1086.11 460.336H1084.48V472ZM1092.55 469.648C1092.55 471.352 1093.15 472.288 1094.63 472.288C1095.16 472.288 1095.5 472.216 1095.76 472.096L1095.5 470.608C1095.28 470.656 1095.19 470.656 1095.07 470.656C1094.78 470.656 1094.51 470.416 1094.51 469.792V454.912H1092.55V469.648ZM1097.62 475.216L1097.24 476.776C1097.62 476.92 1098.08 477.016 1098.61 477.016C1100.96 477.016 1102.16 475.264 1102.97 472.96L1107.37 460.336H1105.45L1103.36 466.792C1103.05 467.824 1102.71 469.024 1102.37 470.08H1102.28C1101.92 469 1101.51 467.8 1101.15 466.792L1098.77 460.336H1096.73L1101.41 472.024L1101.15 472.888C1100.67 474.328 1099.83 475.384 1098.51 475.384C1098.22 475.384 1097.86 475.288 1097.62 475.216ZM1216.4 472H1226.29V470.296H1221.85C1221.05 470.296 1220.12 470.368 1219.28 470.44C1222.9 466.648 1225.52 463.792 1225.52 460.912C1225.52 458.2 1223.77 456.4 1220.93 456.4C1218.94 456.4 1217.57 457.336 1216.3 458.728L1217.43 459.856C1218.32 458.824 1219.42 458.008 1220.69 458.008C1222.64 458.008 1223.6 459.256 1223.6 461.008C1223.6 463.48 1221.01 466.24 1216.4 470.824V472Z" fill="#2B2B2B"/>
<path d="M1120.21 472.288C1124.43 472.288 1127.31 469.216 1127.31 464.104C1127.31 459.016 1124.43 456.064 1120.21 456.064C1115.98 456.064 1113.1 458.992 1113.1 464.104C1113.1 469.216 1115.98 472.288 1120.21 472.288ZM1120.21 469.24C1118.07 469.24 1116.73 467.248 1116.73 464.104C1116.73 460.984 1118.07 459.112 1120.21 459.112C1122.34 459.112 1123.69 460.984 1123.69 464.104C1123.69 467.248 1122.34 469.24 1120.21 469.24ZM1129.72 472H1132.48L1132.76 470.752H1132.86C1133.8 471.76 1134.9 472.288 1135.96 472.288C1138.52 472.288 1140.97 469.936 1140.97 465.832C1140.97 462.184 1139.17 459.808 1136.29 459.808C1135.19 459.808 1134.06 460.312 1133.15 461.128L1133.24 459.304V455.176H1129.72V472ZM1133.24 468.64V463.768C1133.92 463.024 1134.56 462.688 1135.28 462.688C1136.7 462.688 1137.35 463.768 1137.35 465.904C1137.35 468.352 1136.36 469.408 1135.14 469.408C1134.54 469.408 1133.87 469.216 1133.24 468.64ZM1143.25 472.024C1143.25 473.344 1142.94 473.944 1142 473.944C1141.66 473.944 1141.38 473.872 1141.06 473.776L1140.44 476.368C1140.92 476.56 1141.54 476.704 1142.53 476.704C1145.77 476.704 1146.78 474.52 1146.78 471.928V460.096H1143.25V472.024ZM1145.02 458.344C1146.2 458.344 1147.06 457.576 1147.06 456.496C1147.06 455.416 1146.2 454.672 1145.02 454.672C1143.85 454.672 1142.98 455.416 1142.98 456.496C1142.98 457.576 1143.85 458.344 1145.02 458.344ZM1148.96 466.048C1148.96 469.984 1151.57 472.288 1154.98 472.288C1156.4 472.288 1157.98 471.784 1159.21 470.944L1158.03 468.808C1157.17 469.336 1156.35 469.6 1155.46 469.6C1153.88 469.6 1152.68 468.808 1152.37 467.008H1159.49C1159.57 466.72 1159.64 466.144 1159.64 465.52C1159.64 462.28 1157.96 459.808 1154.57 459.808C1151.72 459.808 1148.96 462.184 1148.96 466.048ZM1152.34 464.824C1152.58 463.24 1153.54 462.496 1154.65 462.496C1156.06 462.496 1156.64 463.456 1156.64 464.824H1152.34ZM1161.13 466.048C1161.13 470.008 1163.7 472.288 1167.01 472.288C1168.31 472.288 1169.82 471.808 1170.97 470.8L1169.55 468.568C1168.98 469.024 1168.28 469.432 1167.42 469.432C1165.88 469.432 1164.75 468.112 1164.75 466.048C1164.75 463.984 1165.83 462.664 1167.54 462.664C1168.09 462.664 1168.62 462.88 1169.19 463.36L1170.8 461.176C1170.01 460.36 1168.79 459.808 1167.32 459.808C1164.03 459.808 1161.13 462.088 1161.13 466.048ZM1173.26 467.68C1173.26 470.44 1174.41 472.288 1177.36 472.288C1178.51 472.288 1179.38 472.048 1180 471.856L1179.45 469.288C1179.14 469.408 1178.71 469.528 1178.32 469.528C1177.39 469.528 1176.79 468.976 1176.79 467.632V462.856H1179.64V460.096H1176.79V456.928H1173.86L1173.45 460.096L1171.63 460.24V462.856H1173.26V467.68ZM1183.47 458.344C1184.67 458.344 1185.51 457.576 1185.51 456.496C1185.51 455.416 1184.67 454.672 1183.47 454.672C1182.29 454.672 1181.43 455.416 1181.43 456.496C1181.43 457.576 1182.29 458.344 1183.47 458.344ZM1181.72 472H1185.24V460.096H1181.72V472ZM1190.84 472H1194.92L1198.8 460.096H1195.42L1193.86 465.712C1193.55 466.888 1193.24 468.136 1192.95 469.384H1192.85C1192.54 468.136 1192.23 466.888 1191.92 465.712L1190.38 460.096H1186.83L1190.84 472ZM1199.53 466.048C1199.53 469.984 1202.14 472.288 1205.55 472.288C1206.97 472.288 1208.55 471.784 1209.78 470.944L1208.6 468.808C1207.74 469.336 1206.92 469.6 1206.03 469.6C1204.45 469.6 1203.25 468.808 1202.94 467.008H1210.06C1210.14 466.72 1210.21 466.144 1210.21 465.52C1210.21 462.28 1208.53 459.808 1205.14 459.808C1202.29 459.808 1199.53 462.184 1199.53 466.048ZM1202.91 464.824C1203.15 463.24 1204.11 462.496 1205.22 462.496C1206.63 462.496 1207.21 463.456 1207.21 464.824H1202.91Z" fill="#009CDE"/>
<rect x="1345" y="428" width="312" height="70" rx="14" fill="white" stroke="#2B2B2B" stroke-width="4"/>
<path d="M1397.94 464.056C1397.94 460.144 1399.79 457.72 1402.6 457.72C1405.41 457.72 1407.26 460.144 1407.26 464.056C1407.26 468.088 1405.41 470.632 1402.6 470.632C1399.79 470.632 1397.94 468.088 1397.94 464.056ZM1409.3 474.016C1408.86 474.136 1408.34 474.256 1407.64 474.256C1405.94 474.256 1404.5 473.584 1403.78 472.192C1407.11 471.616 1409.34 468.592 1409.34 464.056C1409.34 459.04 1406.56 455.968 1402.6 455.968C1398.64 455.968 1395.88 459.016 1395.88 464.056C1395.88 468.688 1398.18 471.736 1401.62 472.216C1402.53 474.376 1404.52 475.936 1407.42 475.936C1408.36 475.936 1409.2 475.744 1409.68 475.576L1409.3 474.016ZM1412.12 467.728C1412.12 470.704 1413.22 472.288 1415.7 472.288C1417.3 472.288 1418.46 471.448 1419.54 470.176H1419.61L1419.78 472H1421.41V460.336H1419.44V468.616C1418.34 469.984 1417.5 470.584 1416.3 470.584C1414.76 470.584 1414.11 469.648 1414.11 467.464V460.336H1412.12V467.728ZM1424.52 468.976C1424.52 471.064 1425.98 472.288 1427.95 472.288C1429.39 472.288 1430.69 471.52 1431.81 470.608H1431.86L1432.03 472H1433.66V464.848C1433.66 461.944 1432.46 460.048 1429.61 460.048C1427.73 460.048 1426.1 460.864 1425.02 461.56L1425.81 462.928C1426.73 462.304 1427.93 461.68 1429.29 461.68C1431.19 461.68 1431.69 463.12 1431.69 464.608C1426.73 465.16 1424.52 466.432 1424.52 468.976ZM1426.46 468.832C1426.46 467.344 1427.78 466.384 1431.69 465.904V469.144C1430.57 470.152 1429.63 470.704 1428.5 470.704C1427.35 470.704 1426.46 470.152 1426.46 468.832ZM1437.12 472H1439.09V464.512C1439.88 462.544 1441.06 461.824 1442.04 461.824C1442.52 461.824 1442.79 461.896 1443.17 462.016L1443.56 460.288C1443.17 460.12 1442.81 460.048 1442.31 460.048C1440.99 460.048 1439.79 460.984 1439 462.448H1438.92L1438.76 460.336H1437.12V472ZM1445.53 468.4C1445.53 470.704 1446.37 472.288 1448.87 472.288C1449.59 472.288 1450.38 472.072 1451.03 471.856L1450.64 470.368C1450.26 470.512 1449.73 470.68 1449.32 470.68C1447.98 470.68 1447.52 469.864 1447.52 468.424V461.944H1450.67V460.336H1447.52V457.072H1445.87L1445.63 460.336L1443.8 460.456V461.944H1445.53V468.4ZM1451.96 466.192C1451.96 470.008 1454.43 472.288 1457.55 472.288C1459.13 472.288 1460.38 471.736 1461.39 471.088L1460.69 469.792C1459.83 470.344 1458.89 470.704 1457.79 470.704C1455.56 470.704 1454.04 469.12 1453.9 466.6H1461.77C1461.82 466.312 1461.84 465.928 1461.84 465.52C1461.84 462.184 1460.16 460.048 1457.19 460.048C1454.52 460.048 1451.96 462.376 1451.96 466.192ZM1453.88 465.304C1454.12 462.952 1455.6 461.608 1457.24 461.608C1459.06 461.608 1460.12 462.928 1460.12 465.304H1453.88ZM1464.48 472H1466.44V464.512C1467.24 462.544 1468.41 461.824 1469.4 461.824C1469.88 461.824 1470.14 461.896 1470.52 462.016L1470.91 460.288C1470.52 460.12 1470.16 460.048 1469.66 460.048C1468.34 460.048 1467.14 460.984 1466.35 462.448H1466.28L1466.11 460.336H1464.48V472ZM1472.55 469.648C1472.55 471.352 1473.15 472.288 1474.63 472.288C1475.16 472.288 1475.5 472.216 1475.76 472.096L1475.5 470.608C1475.28 470.656 1475.19 470.656 1475.07 470.656C1474.78 470.656 1474.51 470.416 1474.51 469.792V454.912H1472.55V469.648ZM1477.62 475.216L1477.24 476.776C1477.62 476.92 1478.08 477.016 1478.61 477.016C1480.96 477.016 1482.16 475.264 1482.97 472.96L1487.37 460.336H1485.45L1483.36 466.792C1483.05 467.824 1482.71 469.024 1482.37 470.08H1482.28C1481.92 469 1481.51 467.8 1481.15 466.792L1478.77 460.336H1476.73L1481.41 472.024L1481.15 472.888C1480.67 474.328 1479.83 475.384 1478.51 475.384C1478.22 475.384 1477.86 475.288 1477.62 475.216ZM1596.06 470.128C1597.09 471.256 1598.65 472.288 1601.1 472.288C1603.91 472.288 1606.14 470.632 1606.14 467.92C1606.14 465.808 1604.68 464.464 1602.83 464.032V463.936C1604.49 463.312 1605.61 462.136 1605.61 460.288C1605.61 457.816 1603.69 456.4 1601.03 456.4C1599.23 456.4 1597.81 457.216 1596.64 458.32L1597.69 459.568C1598.61 458.656 1599.69 458.008 1600.96 458.008C1602.59 458.008 1603.6 458.944 1603.6 460.432C1603.6 462.04 1602.52 463.288 1599.25 463.288V464.8C1602.9 464.8 1604.15 466.024 1604.15 467.848C1604.15 469.552 1602.83 470.656 1600.98 470.656C1599.18 470.656 1597.98 469.792 1597.07 468.832L1596.06 470.128Z" fill="#2B2B2B"/>
<path d="M1500.21 472.288C1504.43 472.288 1507.31 469.216 1507.31 464.104C1507.31 459.016 1504.43 456.064 1500.21 456.064C1495.98 456.064 1493.1 458.992 1493.1 464.104C1493.1 469.216 1495.98 472.288 1500.21 472.288ZM1500.21 469.24C1498.07 469.24 1496.73 467.248 1496.73 464.104C1496.73 460.984 1498.07 459.112 1500.21 459.112C1502.34 459.112 1503.69 460.984 1503.69 464.104C1503.69 467.248 1502.34 469.24 1500.21 469.24ZM1509.72 472H1512.48L1512.76 470.752H1512.86C1513.8 471.76 1514.9 472.288 1515.96 472.288C1518.52 472.288 1520.97 469.936 1520.97 465.832C1520.97 462.184 1519.17 459.808 1516.29 459.808C1515.19 459.808 1514.06 460.312 1513.15 461.128L1513.24 459.304V455.176H1509.72V472ZM1513.24 468.64V463.768C1513.92 463.024 1514.56 462.688 1515.28 462.688C1516.7 462.688 1517.35 463.768 1517.35 465.904C1517.35 468.352 1516.36 469.408 1515.14 469.408C1514.54 469.408 1513.87 469.216 1513.24 468.64ZM1523.25 472.024C1523.25 473.344 1522.94 473.944 1522 473.944C1521.66 473.944 1521.38 473.872 1521.06 473.776L1520.44 476.368C1520.92 476.56 1521.54 476.704 1522.53 476.704C1525.77 476.704 1526.78 474.52 1526.78 471.928V460.096H1523.25V472.024ZM1525.02 458.344C1526.2 458.344 1527.06 457.576 1527.06 456.496C1527.06 455.416 1526.2 454.672 1525.02 454.672C1523.85 454.672 1522.98 455.416 1522.98 456.496C1522.98 457.576 1523.85 458.344 1525.02 458.344ZM1528.96 466.048C1528.96 469.984 1531.57 472.288 1534.98 472.288C1536.4 472.288 1537.98 471.784 1539.21 470.944L1538.03 468.808C1537.17 469.336 1536.35 469.6 1535.46 469.6C1533.88 469.6 1532.68 468.808 1532.37 467.008H1539.49C1539.57 466.72 1539.64 466.144 1539.64 465.52C1539.64 462.28 1537.96 459.808 1534.57 459.808C1531.72 459.808 1528.96 462.184 1528.96 466.048ZM1532.34 464.824C1532.58 463.24 1533.54 462.496 1534.65 462.496C1536.06 462.496 1536.64 463.456 1536.64 464.824H1532.34ZM1541.13 466.048C1541.13 470.008 1543.7 472.288 1547.01 472.288C1548.31 472.288 1549.82 471.808 1550.97 470.8L1549.55 468.568C1548.98 469.024 1548.28 469.432 1547.42 469.432C1545.88 469.432 1544.75 468.112 1544.75 466.048C1544.75 463.984 1545.83 462.664 1547.54 462.664C1548.09 462.664 1548.62 462.88 1549.19 463.36L1550.8 461.176C1550.01 460.36 1548.79 459.808 1547.32 459.808C1544.03 459.808 1541.13 462.088 1541.13 466.048ZM1553.26 467.68C1553.26 470.44 1554.41 472.288 1557.36 472.288C1558.51 472.288 1559.38 472.048 1560 471.856L1559.45 469.288C1559.14 469.408 1558.71 469.528 1558.32 469.528C1557.39 469.528 1556.79 468.976 1556.79 467.632V462.856H1559.64V460.096H1556.79V456.928H1553.86L1553.45 460.096L1551.63 460.24V462.856H1553.26V467.68ZM1563.47 458.344C1564.67 458.344 1565.51 457.576 1565.51 456.496C1565.51 455.416 1564.67 454.672 1563.47 454.672C1562.29 454.672 1561.43 455.416 1561.43 456.496C1561.43 457.576 1562.29 458.344 1563.47 458.344ZM1561.72 472H1565.24V460.096H1561.72V472ZM1570.84 472H1574.92L1578.8 460.096H1575.42L1573.86 465.712C1573.55 466.888 1573.24 468.136 1572.95 469.384H1572.85C1572.54 468.136 1572.23 466.888 1571.92 465.712L1570.38 460.096H1566.83L1570.84 472ZM1579.53 466.048C1579.53 469.984 1582.14 472.288 1585.55 472.288C1586.97 472.288 1588.55 471.784 1589.78 470.944L1588.6 468.808C1587.74 469.336 1586.92 469.6 1586.03 469.6C1584.45 469.6 1583.25 468.808 1582.94 467.008H1590.06C1590.14 466.72 1590.21 466.144 1590.21 465.52C1590.21 462.28 1588.53 459.808 1585.14 459.808C1582.29 459.808 1579.53 462.184 1579.53 466.048ZM1582.91 464.824C1583.15 463.24 1584.11 462.496 1585.22 462.496C1586.63 462.496 1587.21 463.456 1587.21 464.824H1582.91Z" fill="#009CDE"/>
<rect x="585" y="428" width="312" height="70" rx="14" fill="white" stroke="#2B2B2B" stroke-width="4"/>
<path d="M637.945 464.056C637.945 460.144 639.793 457.72 642.601 457.72C645.409 457.72 647.257 460.144 647.257 464.056C647.257 468.088 645.409 470.632 642.601 470.632C639.793 470.632 637.945 468.088 637.945 464.056ZM649.297 474.016C648.865 474.136 648.337 474.256 647.641 474.256C645.937 474.256 644.497 473.584 643.777 472.192C647.113 471.616 649.345 468.592 649.345 464.056C649.345 459.04 646.561 455.968 642.601 455.968C638.641 455.968 635.881 459.016 635.881 464.056C635.881 468.688 638.185 471.736 641.617 472.216C642.529 474.376 644.521 475.936 647.425 475.936C648.361 475.936 649.201 475.744 649.681 475.576L649.297 474.016ZM652.12 467.728C652.12 470.704 653.224 472.288 655.696 472.288C657.304 472.288 658.456 471.448 659.536 470.176H659.608L659.776 472H661.408V460.336H659.44V468.616C658.336 469.984 657.496 470.584 656.296 470.584C654.76 470.584 654.112 469.648 654.112 467.464V460.336H652.12V467.728ZM664.517 468.976C664.517 471.064 665.981 472.288 667.949 472.288C669.389 472.288 670.685 471.52 671.813 470.608H671.861L672.029 472H673.661V464.848C673.661 461.944 672.461 460.048 669.605 460.048C667.733 460.048 666.101 460.864 665.021 461.56L665.813 462.928C666.725 462.304 667.925 461.68 669.293 461.68C671.189 461.68 671.693 463.12 671.693 464.608C666.725 465.16 664.517 466.432 664.517 468.976ZM666.461 468.832C666.461 467.344 667.781 466.384 671.693 465.904V469.144C670.565 470.152 669.629 470.704 668.501 470.704C667.349 470.704 666.461 470.152 666.461 468.832ZM677.124 472H679.092V464.512C679.884 462.544 681.06 461.824 682.044 461.824C682.524 461.824 682.788 461.896 683.172 462.016L683.556 460.288C683.172 460.12 682.812 460.048 682.308 460.048C680.988 460.048 679.788 460.984 678.996 462.448H678.924L678.756 460.336H677.124V472ZM685.531 468.4C685.531 470.704 686.371 472.288 688.867 472.288C689.587 472.288 690.379 472.072 691.027 471.856L690.643 470.368C690.259 470.512 689.731 470.68 689.323 470.68C687.979 470.68 687.523 469.864 687.523 468.424V461.944H690.667V460.336H687.523V457.072H685.867L685.627 460.336L683.803 460.456V461.944H685.531V468.4ZM691.956 466.192C691.956 470.008 694.428 472.288 697.548 472.288C699.132 472.288 700.38 471.736 701.388 471.088L700.692 469.792C699.828 470.344 698.892 470.704 697.788 470.704C695.556 470.704 694.044 469.12 693.9 466.6H701.772C701.82 466.312 701.844 465.928 701.844 465.52C701.844 462.184 700.164 460.048 697.188 460.048C694.524 460.048 691.956 462.376 691.956 466.192ZM693.876 465.304C694.116 462.952 695.604 461.608 697.236 461.608C699.06 461.608 700.116 462.928 700.116 465.304H693.876ZM704.476 472H706.444V464.512C707.236 462.544 708.412 461.824 709.396 461.824C709.876 461.824 710.14 461.896 710.524 462.016L710.908 460.288C710.524 460.12 710.164 460.048 709.66 460.048C708.34 460.048 707.14 460.984 706.348 462.448H706.276L706.108 460.336H704.476V472ZM712.546 469.648C712.546 471.352 713.146 472.288 714.634 472.288C715.162 472.288 715.498 472.216 715.762 472.096L715.498 470.608C715.282 470.656 715.186 470.656 715.066 470.656C714.778 470.656 714.514 470.416 714.514 469.792V454.912H712.546V469.648ZM717.621 475.216L717.237 476.776C717.621 476.92 718.077 477.016 718.605 477.016C720.957 477.016 722.157 475.264 722.973 472.96L727.365 460.336H725.445L723.357 466.792C723.045 467.824 722.709 469.024 722.373 470.08H722.277C721.917 469 721.509 467.8 721.149 466.792L718.773 460.336H716.733L721.413 472.024L721.149 472.888C720.669 474.328 719.829 475.384 718.509 475.384C718.221 475.384 717.861 475.288 717.621 475.216ZM837.334 472H845.974V470.368H842.806V456.688H841.294C840.454 457.192 839.446 457.576 838.054 457.816V459.088H840.838V470.368H837.334V472Z" fill="#2B2B2B"/>
<path d="M740.208 472.288C744.432 472.288 747.312 469.216 747.312 464.104C747.312 459.016 744.432 456.064 740.208 456.064C735.984 456.064 733.104 458.992 733.104 464.104C733.104 469.216 735.984 472.288 740.208 472.288ZM740.208 469.24C738.072 469.24 736.728 467.248 736.728 464.104C736.728 460.984 738.072 459.112 740.208 459.112C742.344 459.112 743.688 460.984 743.688 464.104C743.688 467.248 742.344 469.24 740.208 469.24ZM749.716 472H752.476L752.764 470.752H752.86C753.796 471.76 754.9 472.288 755.956 472.288C758.524 472.288 760.972 469.936 760.972 465.832C760.972 462.184 759.172 459.808 756.292 459.808C755.188 459.808 754.06 460.312 753.148 461.128L753.244 459.304V455.176H749.716V472ZM753.244 468.64V463.768C753.916 463.024 754.564 462.688 755.284 462.688C756.7 462.688 757.348 463.768 757.348 465.904C757.348 468.352 756.364 469.408 755.14 469.408C754.54 469.408 753.868 469.216 753.244 468.64ZM763.248 472.024C763.248 473.344 762.936 473.944 762 473.944C761.664 473.944 761.376 473.872 761.064 473.776L760.44 476.368C760.92 476.56 761.544 476.704 762.528 476.704C765.768 476.704 766.776 474.52 766.776 471.928V460.096H763.248V472.024ZM765.024 458.344C766.2 458.344 767.064 457.576 767.064 456.496C767.064 455.416 766.2 454.672 765.024 454.672C763.848 454.672 762.984 455.416 762.984 456.496C762.984 457.576 763.848 458.344 765.024 458.344ZM768.958 466.048C768.958 469.984 771.574 472.288 774.982 472.288C776.398 472.288 777.982 471.784 779.206 470.944L778.03 468.808C777.166 469.336 776.35 469.6 775.462 469.6C773.878 469.6 772.678 468.808 772.366 467.008H779.494C779.566 466.72 779.638 466.144 779.638 465.52C779.638 462.28 777.958 459.808 774.574 459.808C771.718 459.808 768.958 462.184 768.958 466.048ZM772.342 464.824C772.582 463.24 773.542 462.496 774.646 462.496C776.062 462.496 776.638 463.456 776.638 464.824H772.342ZM781.13 466.048C781.13 470.008 783.698 472.288 787.01 472.288C788.306 472.288 789.818 471.808 790.97 470.8L789.554 468.568C788.978 469.024 788.282 469.432 787.418 469.432C785.882 469.432 784.754 468.112 784.754 466.048C784.754 463.984 785.834 462.664 787.538 462.664C788.09 462.664 788.618 462.88 789.194 463.36L790.802 461.176C790.01 460.36 788.786 459.808 787.322 459.808C784.034 459.808 781.13 462.088 781.13 466.048ZM793.259 467.68C793.259 470.44 794.411 472.288 797.363 472.288C798.515 472.288 799.379 472.048 800.003 471.856L799.451 469.288C799.139 469.408 798.707 469.528 798.323 469.528C797.387 469.528 796.787 468.976 796.787 467.632V462.856H799.643V460.096H796.787V456.928H793.859L793.451 460.096L791.627 460.24V462.856H793.259V467.68ZM803.468 458.344C804.668 458.344 805.508 457.576 805.508 456.496C805.508 455.416 804.668 454.672 803.468 454.672C802.292 454.672 801.428 455.416 801.428 456.496C801.428 457.576 802.292 458.344 803.468 458.344ZM801.716 472H805.244V460.096H801.716V472ZM810.835 472H814.915L818.803 460.096H815.419L813.859 465.712C813.547 466.888 813.235 468.136 812.947 469.384H812.851C812.539 468.136 812.227 466.888 811.915 465.712L810.379 460.096H806.827L810.835 472ZM819.528 466.048C819.528 469.984 822.144 472.288 825.552 472.288C826.968 472.288 828.552 471.784 829.776 470.944L828.6 468.808C827.736 469.336 826.92 469.6 826.032 469.6C824.448 469.6 823.248 468.808 822.936 467.008H830.064C830.136 466.72 830.208 466.144 830.208 465.52C830.208 462.28 828.528 459.808 825.144 459.808C822.288 459.808 819.528 462.184 819.528 466.048ZM822.912 464.824C823.152 463.24 824.112 462.496 825.216 462.496C826.632 462.496 827.208 463.456 827.208 464.824H822.912Z" fill="#009CDE"/>
<rect x="1155" y="290" width="312" height="70" rx="14" fill="white" stroke="#2B2B2B" stroke-width="4"/>
<path d="M1220.51 327.592L1221.26 325.192C1221.83 323.44 1222.34 321.712 1222.82 319.888H1222.91C1223.42 321.712 1223.92 323.44 1224.5 325.192L1225.24 327.592H1220.51ZM1227.23 334H1229.37L1224.04 318.256H1221.79L1216.46 334H1218.5L1220.01 329.2H1225.75L1227.23 334ZM1231.16 334H1233.13V325.552C1234.3 324.376 1235.12 323.752 1236.32 323.752C1237.86 323.752 1238.53 324.688 1238.53 326.872V334H1240.5V326.608C1240.5 323.632 1239.39 322.048 1236.94 322.048C1235.34 322.048 1234.14 322.912 1233.03 324.016H1232.96L1232.79 322.336H1231.16V334ZM1244.03 334H1246V325.552C1247.18 324.376 1247.99 323.752 1249.19 323.752C1250.73 323.752 1251.4 324.688 1251.4 326.872V334H1253.37V326.608C1253.37 323.632 1252.27 322.048 1249.82 322.048C1248.21 322.048 1247.01 322.912 1245.91 324.016H1245.83L1245.67 322.336H1244.03V334ZM1256.74 329.728C1256.74 332.704 1257.85 334.288 1260.32 334.288C1261.93 334.288 1263.08 333.448 1264.16 332.176H1264.23L1264.4 334H1266.03V322.336H1264.06V330.616C1262.96 331.984 1262.12 332.584 1260.92 332.584C1259.38 332.584 1258.73 331.648 1258.73 329.464V322.336H1256.74V329.728ZM1269.14 330.976C1269.14 333.064 1270.6 334.288 1272.57 334.288C1274.01 334.288 1275.31 333.52 1276.43 332.608H1276.48L1276.65 334H1278.28V326.848C1278.28 323.944 1277.08 322.048 1274.23 322.048C1272.35 322.048 1270.72 322.864 1269.64 323.56L1270.43 324.928C1271.35 324.304 1272.55 323.68 1273.91 323.68C1275.81 323.68 1276.31 325.12 1276.31 326.608C1271.35 327.16 1269.14 328.432 1269.14 330.976ZM1271.08 330.832C1271.08 329.344 1272.4 328.384 1276.31 327.904V331.144C1275.19 332.152 1274.25 332.704 1273.12 332.704C1271.97 332.704 1271.08 332.152 1271.08 330.832ZM1281.75 331.648C1281.75 333.352 1282.35 334.288 1283.83 334.288C1284.36 334.288 1284.7 334.216 1284.96 334.096L1284.7 332.608C1284.48 332.656 1284.39 332.656 1284.27 332.656C1283.98 332.656 1283.71 332.416 1283.71 331.792V316.912H1281.75V331.648ZM1394.64 334H1404.53V332.296H1400.09C1399.3 332.296 1398.36 332.368 1397.52 332.44C1401.15 328.648 1403.76 325.792 1403.76 322.912C1403.76 320.2 1402.01 318.4 1399.18 318.4C1397.19 318.4 1395.82 319.336 1394.55 320.728L1395.68 321.856C1396.56 320.824 1397.67 320.008 1398.94 320.008C1400.88 320.008 1401.84 321.256 1401.84 323.008C1401.84 325.48 1399.25 328.24 1394.64 332.824V334Z" fill="#2B2B2B"/>
<path d="M1298.45 334.288C1302.68 334.288 1305.56 331.216 1305.56 326.104C1305.56 321.016 1302.68 318.064 1298.45 318.064C1294.23 318.064 1291.35 320.992 1291.35 326.104C1291.35 331.216 1294.23 334.288 1298.45 334.288ZM1298.45 331.24C1296.32 331.24 1294.97 329.248 1294.97 326.104C1294.97 322.984 1296.32 321.112 1298.45 321.112C1300.59 321.112 1301.93 322.984 1301.93 326.104C1301.93 329.248 1300.59 331.24 1298.45 331.24ZM1307.96 334H1310.72L1311.01 332.752H1311.11C1312.04 333.76 1313.15 334.288 1314.2 334.288C1316.77 334.288 1319.22 331.936 1319.22 327.832C1319.22 324.184 1317.42 321.808 1314.54 321.808C1313.43 321.808 1312.31 322.312 1311.39 323.128L1311.49 321.304V317.176H1307.96V334ZM1311.49 330.64V325.768C1312.16 325.024 1312.81 324.688 1313.53 324.688C1314.95 324.688 1315.59 325.768 1315.59 327.904C1315.59 330.352 1314.61 331.408 1313.39 331.408C1312.79 331.408 1312.11 331.216 1311.49 330.64ZM1321.49 334.024C1321.49 335.344 1321.18 335.944 1320.25 335.944C1319.91 335.944 1319.62 335.872 1319.31 335.776L1318.69 338.368C1319.17 338.56 1319.79 338.704 1320.77 338.704C1324.01 338.704 1325.02 336.52 1325.02 333.928V322.096H1321.49V334.024ZM1323.27 320.344C1324.45 320.344 1325.31 319.576 1325.31 318.496C1325.31 317.416 1324.45 316.672 1323.27 316.672C1322.09 316.672 1321.23 317.416 1321.23 318.496C1321.23 319.576 1322.09 320.344 1323.27 320.344ZM1327.2 328.048C1327.2 331.984 1329.82 334.288 1333.23 334.288C1334.64 334.288 1336.23 333.784 1337.45 332.944L1336.28 330.808C1335.41 331.336 1334.6 331.6 1333.71 331.6C1332.12 331.6 1330.92 330.808 1330.61 329.008H1337.74C1337.81 328.72 1337.88 328.144 1337.88 327.52C1337.88 324.28 1336.2 321.808 1332.82 321.808C1329.96 321.808 1327.2 324.184 1327.2 328.048ZM1330.59 326.824C1330.83 325.24 1331.79 324.496 1332.89 324.496C1334.31 324.496 1334.88 325.456 1334.88 326.824H1330.59ZM1339.38 328.048C1339.38 332.008 1341.94 334.288 1345.26 334.288C1346.55 334.288 1348.06 333.808 1349.22 332.8L1347.8 330.568C1347.22 331.024 1346.53 331.432 1345.66 331.432C1344.13 331.432 1343 330.112 1343 328.048C1343 325.984 1344.08 324.664 1345.78 324.664C1346.34 324.664 1346.86 324.88 1347.44 325.36L1349.05 323.176C1348.26 322.36 1347.03 321.808 1345.57 321.808C1342.28 321.808 1339.38 324.088 1339.38 328.048ZM1351.5 329.68C1351.5 332.44 1352.66 334.288 1355.61 334.288C1356.76 334.288 1357.62 334.048 1358.25 333.856L1357.7 331.288C1357.38 331.408 1356.95 331.528 1356.57 331.528C1355.63 331.528 1355.03 330.976 1355.03 329.632V324.856H1357.89V322.096H1355.03V318.928H1352.1L1351.7 322.096L1349.87 322.24V324.856H1351.5V329.68ZM1361.71 320.344C1362.91 320.344 1363.75 319.576 1363.75 318.496C1363.75 317.416 1362.91 316.672 1361.71 316.672C1360.54 316.672 1359.67 317.416 1359.67 318.496C1359.67 319.576 1360.54 320.344 1361.71 320.344ZM1359.96 334H1363.49V322.096H1359.96V334ZM1369.08 334H1373.16L1377.05 322.096H1373.67L1372.11 327.712C1371.79 328.888 1371.48 330.136 1371.19 331.384H1371.1C1370.79 330.136 1370.47 328.888 1370.16 327.712L1368.63 322.096H1365.07L1369.08 334ZM1377.77 328.048C1377.77 331.984 1380.39 334.288 1383.8 334.288C1385.21 334.288 1386.8 333.784 1388.02 332.944L1386.85 330.808C1385.98 331.336 1385.17 331.6 1384.28 331.6C1382.69 331.6 1381.49 330.808 1381.18 329.008H1388.31C1388.38 328.72 1388.45 328.144 1388.45 327.52C1388.45 324.28 1386.77 321.808 1383.39 321.808C1380.53 321.808 1377.77 324.184 1377.77 328.048ZM1381.16 326.824C1381.4 325.24 1382.36 324.496 1383.46 324.496C1384.88 324.496 1385.45 325.456 1385.45 326.824H1381.16Z" fill="#009CDE"/>
<rect x="1155" y="566" width="312" height="70" rx="14" fill="white" stroke="#2B2B2B" stroke-width="4"/>
<path d="M1251.58 610H1253.57V605.008L1256.29 601.816L1260.99 610H1263.22L1257.53 600.256L1262.45 594.256H1260.2L1253.65 602.152H1253.57V594.256H1251.58V610ZM1264.01 604.192C1264.01 608.008 1266.48 610.288 1269.6 610.288C1271.19 610.288 1272.43 609.736 1273.44 609.088L1272.75 607.792C1271.88 608.344 1270.95 608.704 1269.84 608.704C1267.61 608.704 1266.1 607.12 1265.95 604.6H1273.83C1273.87 604.312 1273.9 603.928 1273.9 603.52C1273.9 600.184 1272.22 598.048 1269.24 598.048C1266.58 598.048 1264.01 600.376 1264.01 604.192ZM1265.93 603.304C1266.17 600.952 1267.66 599.608 1269.29 599.608C1271.11 599.608 1272.17 600.928 1272.17 603.304H1265.93ZM1275.86 613.216L1275.47 614.776C1275.86 614.92 1276.31 615.016 1276.84 615.016C1279.19 615.016 1280.39 613.264 1281.21 610.96L1285.6 598.336H1283.68L1281.59 604.792C1281.28 605.824 1280.94 607.024 1280.61 608.08H1280.51C1280.15 607 1279.74 605.8 1279.38 604.792L1277.01 598.336H1274.97L1279.65 610.024L1279.38 610.888C1278.9 612.328 1278.06 613.384 1276.74 613.384C1276.46 613.384 1276.1 613.288 1275.86 613.216ZM1361.61 610H1371.5V608.296H1367.06C1366.26 608.296 1365.33 608.368 1364.49 608.44C1368.11 604.648 1370.73 601.792 1370.73 598.912C1370.73 596.2 1368.98 594.4 1366.14 594.4C1364.15 594.4 1362.78 595.336 1361.51 596.728L1362.64 597.856C1363.53 596.824 1364.63 596.008 1365.9 596.008C1367.85 596.008 1368.81 597.256 1368.81 599.008C1368.81 601.48 1366.22 604.24 1361.61 608.824V610Z" fill="#2B2B2B"/>
<path d="M1295.61 597.16H1297.43C1299.28 597.16 1300.29 597.688 1300.29 599.224C1300.29 600.76 1299.28 601.552 1297.43 601.552H1295.61V597.16ZM1304.51 610L1300.96 603.736C1302.64 602.992 1303.75 601.528 1303.75 599.224C1303.75 595.504 1301.03 594.352 1297.72 594.352H1292.08V610H1295.61V604.36H1297.55L1300.55 610H1304.51ZM1305.4 604.048C1305.4 607.984 1308.02 610.288 1311.43 610.288C1312.84 610.288 1314.43 609.784 1315.65 608.944L1314.48 606.808C1313.61 607.336 1312.8 607.6 1311.91 607.6C1310.32 607.6 1309.12 606.808 1308.81 605.008H1315.94C1316.01 604.72 1316.08 604.144 1316.08 603.52C1316.08 600.28 1314.4 597.808 1311.02 597.808C1308.16 597.808 1305.4 600.184 1305.4 604.048ZM1308.79 602.824C1309.03 601.24 1309.99 600.496 1311.09 600.496C1312.51 600.496 1313.08 601.456 1313.08 602.824H1308.79ZM1317.21 608.632C1318.41 609.616 1320.21 610.288 1321.77 610.288C1324.97 610.288 1326.67 608.608 1326.67 606.448C1326.67 604.264 1324.97 603.424 1323.45 602.872C1322.23 602.416 1321.13 602.128 1321.13 601.36C1321.13 600.76 1321.56 600.424 1322.47 600.424C1323.31 600.424 1324.13 600.808 1324.99 601.432L1326.57 599.32C1325.54 598.552 1324.2 597.808 1322.37 597.808C1319.61 597.808 1317.81 599.32 1317.81 601.528C1317.81 603.496 1319.52 604.48 1320.96 605.032C1322.18 605.512 1323.38 605.872 1323.38 606.664C1323.38 607.288 1322.93 607.672 1321.87 607.672C1320.86 607.672 1319.88 607.24 1318.8 606.424L1317.21 608.632ZM1328.54 605.488C1328.54 608.464 1329.65 610.288 1332.24 610.288C1333.87 610.288 1334.97 609.544 1335.98 608.344H1336.05L1336.32 610H1339.2V598.096H1335.67V605.968C1334.97 606.904 1334.45 607.288 1333.56 607.288C1332.53 607.288 1332.07 606.736 1332.07 605.032V598.096H1328.54V605.488ZM1342.05 606.304C1342.05 608.704 1342.87 610.288 1345.29 610.288C1346.08 610.288 1346.68 610.168 1347.07 610L1346.64 607.384C1346.44 607.432 1346.35 607.432 1346.2 607.432C1345.92 607.432 1345.58 607.192 1345.58 606.448V593.176H1342.05V606.304ZM1349.15 605.68C1349.15 608.44 1350.3 610.288 1353.25 610.288C1354.41 610.288 1355.27 610.048 1355.89 609.856L1355.34 607.288C1355.03 607.408 1354.6 607.528 1354.21 607.528C1353.28 607.528 1352.68 606.976 1352.68 605.632V600.856H1355.53V598.096H1352.68V594.928H1349.75L1349.34 598.096L1347.52 598.24V600.856H1349.15V605.68Z" fill="#009CDE"/>
<path d="M1122.5 224C1122.5 223.172 1121.83 222.5 1121 222.5C1120.17 222.5 1119.5 223.172 1119.5 224L1122.5 224ZM1119.5 224L1119.5 256L1122.5 256L1122.5 224L1119.5 224Z" fill="#6A6A6A"/>
<path d="M1122.5 500C1122.5 499.172 1121.83 498.5 1121 498.5C1120.17 498.5 1119.5 499.172 1119.5 500L1122.5 500ZM1119.5 500L1119.5 532L1122.5 532L1122.5 500L1119.5 500Z" fill="#6A6A6A"/>
<path d="M919.5 638C919.5 637.172 918.828 636.5 918 636.5C917.172 636.5 916.5 637.172 916.5 638L919.5 638ZM916.5 638L916.5 670L919.5 670L919.5 638L916.5 638Z" fill="#6A6A6A"/>
<path d="M919.5 744C919.5 743.172 918.828 742.5 918 742.5C917.172 742.5 916.5 743.172 916.5 744L919.5 744ZM916.5 744L916.5 776L919.5 776L919.5 744L916.5 744Z" fill="#6A6A6A"/>
<path d="M1122.5 394C1122.5 393.172 1121.83 392.5 1121 392.5C1120.17 392.5 1119.5 393.172 1119.5 394L1122.5 394ZM1119.5 394L1119.5 426L1122.5 426L1122.5 394L1119.5 394Z" fill="#6A6A6A"/>
<path d="M919.5 362C919.5 361.172 918.828 360.5 918 360.5C917.172 360.5 916.5 361.172 916.5 362L919.5 362ZM916.5 362L916.5 394L919.5 394L919.5 362L916.5 362Z" fill="#6A6A6A"/>
<path d="M1324 288V256H918V288" stroke="#6A6A6A" stroke-width="3"/>
<path d="M1324 564V532H918V564" stroke="#6A6A6A" stroke-width="3"/>
<path d="M1506.5 426V394H715V426" stroke="#6A6A6A" stroke-width="3"/>
<path d="M583 256L574 256C547.49 256 526 234.51 526 208L526 198C526 171.49 547.49 150 574 150L583 150" stroke="#6A6A6A" stroke-width="3" stroke-linecap="round" stroke-linejoin="round" stroke-dasharray="4 8"/>
<path d="M583 394L574 394C547.49 394 526 372.51 526 346L526 304C526 277.49 547.49 256 574 256L583 256" stroke="#6A6A6A" stroke-width="3" stroke-linecap="round" stroke-linejoin="round" stroke-dasharray="4 8"/>
<path d="M583 532L574 532C547.49 532 526 510.51 526 484L526 442C526 415.49 547.49 394 574 394L583 394" stroke="#6A6A6A" stroke-width="3" stroke-linecap="round" stroke-linejoin="round" stroke-dasharray="4 8"/>
<path d="M583 850L574 850C547.49 850 526 828.51 526 802L526 580C526 553.49 547.49 532 574 532L583 532" stroke="#6A6A6A" stroke-width="3" stroke-linecap="round" stroke-linejoin="round" stroke-dasharray="4 8"/>
<path d="M264.772 216H279.352V211.536H270.064V192.528H264.772V216ZM281.187 207.072C281.187 213.012 285.363 216.432 289.899 216.432C294.399 216.432 298.575 213.012 298.575 207.072C298.575 201.132 294.399 197.712 289.899 197.712C285.363 197.712 281.187 201.132 281.187 207.072ZM286.623 207.072C286.623 203.976 287.703 201.996 289.899 201.996C292.059 201.996 293.175 203.976 293.175 207.072C293.175 210.168 292.059 212.148 289.899 212.148C287.703 212.148 286.623 210.168 286.623 207.072ZM301.949 216H307.241V203.94C308.393 202.824 309.221 202.212 310.553 202.212C312.065 202.212 312.749 203.004 312.749 205.596V216H318.041V204.912C318.041 200.448 316.385 197.712 312.497 197.712C310.085 197.712 308.285 198.972 306.773 200.412H306.629L306.269 198.144H301.949V216ZM325.541 218.232C325.541 217.584 325.865 217.044 326.513 216.468C327.089 216.612 327.809 216.684 329.033 216.684H330.869C332.633 216.684 333.605 216.972 333.605 218.088C333.605 219.312 331.877 220.284 329.501 220.284C327.125 220.284 325.541 219.564 325.541 218.232ZM321.185 219.06C321.185 222.228 324.497 223.596 328.673 223.596C334.793 223.596 338.645 220.896 338.645 217.188C338.645 213.984 336.233 212.652 331.841 212.652H328.961C326.981 212.652 326.261 212.22 326.261 211.32C326.261 210.708 326.441 210.384 326.909 209.988C327.701 210.24 328.421 210.348 329.069 210.348C332.993 210.348 336.089 208.44 336.089 204.336C336.089 203.4 335.837 202.536 335.513 201.996H338.357V198.144H331.841C331.049 197.856 330.077 197.712 329.069 197.712C325.217 197.712 321.689 199.872 321.689 204.156C321.689 206.244 322.841 207.936 324.101 208.8V208.944C322.949 209.736 322.085 210.996 322.085 212.292C322.085 213.768 322.805 214.704 323.741 215.316V215.46C322.085 216.396 321.185 217.584 321.185 219.06ZM329.069 207.144C327.665 207.144 326.621 206.136 326.621 204.156C326.621 202.248 327.665 201.276 329.069 201.276C330.473 201.276 331.517 202.284 331.517 204.156C331.517 206.136 330.473 207.144 329.069 207.144ZM340.489 208.764H349.345V205.02H340.489V208.764ZM357.742 216H363.07V196.992H369.514V192.528H351.298V196.992H357.742V216ZM368.706 207.072C368.706 212.976 372.63 216.432 377.742 216.432C379.866 216.432 382.242 215.676 384.078 214.416L382.314 211.212C381.018 212.004 379.794 212.4 378.462 212.4C376.086 212.4 374.286 211.212 373.818 208.512H384.51C384.618 208.08 384.726 207.216 384.726 206.28C384.726 201.42 382.206 197.712 377.13 197.712C372.846 197.712 368.706 201.276 368.706 207.072ZM373.782 205.236C374.142 202.86 375.582 201.744 377.238 201.744C379.362 201.744 380.226 203.184 380.226 205.236H373.782ZM388.133 216H393.425V205.632C394.361 203.22 396.017 202.356 397.349 202.356C398.105 202.356 398.645 202.464 399.293 202.644L400.157 198.072C399.653 197.856 399.041 197.712 398.033 197.712C396.197 197.712 394.253 198.864 392.957 201.276H392.813L392.453 198.144H388.133V216ZM402.227 216H407.519V203.94C408.635 202.788 409.679 202.212 410.543 202.212C412.055 202.212 412.739 203.004 412.739 205.596V216H418.031V203.94C419.183 202.788 420.191 202.212 421.091 202.212C422.603 202.212 423.287 203.004 423.287 205.596V216H428.579V204.912C428.579 200.448 426.851 197.712 422.999 197.712C420.623 197.712 418.967 199.08 417.383 200.7C416.483 198.792 414.971 197.712 412.451 197.712C410.111 197.712 408.527 198.972 407.051 200.448H406.907L406.547 198.144H402.227V216Z" fill="#2B2B2B"/>
<path d="M264.52 338H279.064V333.716H274.78V315.14H270.892C269.272 316.112 267.688 316.76 265.204 317.228V320.504H269.488V333.716H264.52V338ZM294.812 338H300.104V329.648L307.196 314.528H301.652L299.528 319.928C298.88 321.692 298.232 323.312 297.548 325.112H297.404C296.756 323.312 296.144 321.692 295.496 319.928L293.408 314.528H287.72L294.812 329.648V338ZM305.999 329.072C305.999 334.976 309.923 338.432 315.035 338.432C317.159 338.432 319.535 337.676 321.371 336.416L319.607 333.212C318.311 334.004 317.087 334.4 315.755 334.4C313.379 334.4 311.579 333.212 311.111 330.512H321.803C321.911 330.08 322.019 329.216 322.019 328.28C322.019 323.42 319.499 319.712 314.423 319.712C310.139 319.712 305.999 323.276 305.999 329.072ZM311.075 327.236C311.435 324.86 312.875 323.744 314.531 323.744C316.655 323.744 317.519 325.184 317.519 327.236H311.075ZM324.391 333.032C324.391 336.056 326.443 338.432 329.683 338.432C331.699 338.432 333.391 337.496 334.903 336.164H335.011L335.407 338H339.727V327.776C339.727 322.304 337.207 319.712 332.635 319.712C329.827 319.712 327.271 320.684 325.003 322.052L326.875 325.544C328.603 324.536 330.115 323.924 331.627 323.924C333.535 323.924 334.327 324.932 334.435 326.516C327.379 327.236 324.391 329.288 324.391 333.032ZM329.431 332.636C329.431 331.268 330.655 330.188 334.435 329.684V332.816C333.499 333.752 332.707 334.328 331.483 334.328C330.223 334.328 329.431 333.788 329.431 332.636ZM344.02 338H349.312V327.632C350.248 325.22 351.904 324.356 353.236 324.356C353.992 324.356 354.532 324.464 355.18 324.644L356.044 320.072C355.54 319.856 354.928 319.712 353.92 319.712C352.084 319.712 350.14 320.864 348.844 323.276H348.7L348.34 320.144H344.02V338Z" fill="#2B2B2B"/>
<path d="M269.092 464.156C269.092 459.476 271.108 456.668 274.312 456.668C277.516 456.668 279.532 459.476 279.532 464.156C279.532 469.16 277.516 472.112 274.312 472.112C271.108 472.112 269.092 469.16 269.092 464.156ZM285.256 477.764C284.572 478.016 283.672 478.196 282.664 478.196C280.684 478.196 278.596 477.62 277.516 476C282.052 474.704 284.968 470.456 284.968 464.156C284.968 456.524 280.648 452.096 274.312 452.096C267.976 452.096 263.656 456.488 263.656 464.156C263.656 470.78 266.896 475.136 271.9 476.18C273.556 479.852 277.084 482.408 282.052 482.408C283.852 482.408 285.328 482.084 286.192 481.652L285.256 477.764ZM288.519 469.232C288.519 473.696 290.175 476.432 294.063 476.432C296.511 476.432 298.167 475.316 299.679 473.516H299.787L300.183 476H304.503V458.144H299.211V469.952C298.167 471.356 297.375 471.932 296.043 471.932C294.495 471.932 293.811 471.104 293.811 468.548V458.144H288.519V469.232ZM308.262 471.032C308.262 474.056 310.314 476.432 313.554 476.432C315.57 476.432 317.262 475.496 318.774 474.164H318.882L319.278 476H323.598V465.776C323.598 460.304 321.078 457.712 316.506 457.712C313.698 457.712 311.142 458.684 308.874 460.052L310.746 463.544C312.474 462.536 313.986 461.924 315.498 461.924C317.406 461.924 318.198 462.932 318.306 464.516C311.25 465.236 308.262 467.288 308.262 471.032ZM313.302 470.636C313.302 469.268 314.526 468.188 318.306 467.684V470.816C317.37 471.752 316.578 472.328 315.354 472.328C314.094 472.328 313.302 471.788 313.302 470.636ZM327.891 476H333.183V465.632C334.119 463.22 335.775 462.356 337.107 462.356C337.863 462.356 338.403 462.464 339.051 462.644L339.915 458.072C339.411 457.856 338.799 457.712 337.791 457.712C335.955 457.712 334.011 458.864 332.715 461.276H332.571L332.211 458.144H327.891V476ZM342.705 469.52C342.705 473.66 344.433 476.432 348.861 476.432C350.589 476.432 351.885 476.072 352.821 475.784L351.993 471.932C351.525 472.112 350.877 472.292 350.301 472.292C348.897 472.292 347.997 471.464 347.997 469.448V462.284H352.281V458.144H347.997V453.392H343.605L342.993 458.144L340.257 458.36V462.284H342.705V469.52ZM354.12 467.072C354.12 472.976 358.044 476.432 363.156 476.432C365.28 476.432 367.656 475.676 369.492 474.416L367.728 471.212C366.432 472.004 365.208 472.4 363.876 472.4C361.5 472.4 359.7 471.212 359.232 468.512H369.924C370.032 468.08 370.14 467.216 370.14 466.28C370.14 461.42 367.62 457.712 362.544 457.712C358.26 457.712 354.12 461.276 354.12 467.072ZM359.196 465.236C359.556 462.86 360.996 461.744 362.652 461.744C364.776 461.744 365.64 463.184 365.64 465.236H359.196ZM373.547 476H378.839V465.632C379.775 463.22 381.431 462.356 382.763 462.356C383.519 462.356 384.059 462.464 384.707 462.644L385.571 458.072C385.067 457.856 384.455 457.712 383.447 457.712C381.611 457.712 379.667 458.864 378.371 461.276H378.227L377.867 458.144H373.547V476ZM387.641 470.456C387.641 474.056 388.865 476.432 392.501 476.432C393.689 476.432 394.589 476.252 395.165 476L394.517 472.076C394.229 472.148 394.085 472.148 393.869 472.148C393.437 472.148 392.933 471.788 392.933 470.672V450.764H387.641V470.456ZM398.088 478.592L397.152 482.624C397.872 482.84 398.592 482.984 399.672 482.984C403.884 482.984 405.792 480.68 407.484 476.18L413.676 458.144H408.6L406.44 465.812C406.008 467.504 405.612 469.196 405.216 470.888H405.072C404.604 469.124 404.172 467.432 403.668 465.812L401.112 458.144H395.784L402.66 475.532L402.408 476.468C401.94 477.872 401.04 478.808 399.276 478.808C398.88 478.808 398.412 478.664 398.088 478.592Z" fill="#2B2B2B"/>
<path d="M264.772 659H271.684C278.56 659 283.168 655.22 283.168 647.156C283.168 639.092 278.56 635.528 271.396 635.528H264.772V659ZM270.064 654.716V639.812H271.072C275.068 639.812 277.732 641.54 277.732 647.156C277.732 652.772 275.068 654.716 271.072 654.716H270.064ZM286.294 654.032C286.294 657.056 288.346 659.432 291.586 659.432C293.602 659.432 295.294 658.496 296.806 657.164H296.914L297.31 659H301.63V648.776C301.63 643.304 299.11 640.712 294.538 640.712C291.73 640.712 289.174 641.684 286.906 643.052L288.778 646.544C290.506 645.536 292.018 644.924 293.53 644.924C295.438 644.924 296.23 645.932 296.338 647.516C289.282 648.236 286.294 650.288 286.294 654.032ZM291.334 653.636C291.334 652.268 292.558 651.188 296.338 650.684V653.816C295.402 654.752 294.61 655.328 293.386 655.328C292.126 655.328 291.334 654.788 291.334 653.636ZM308.55 638.516C310.35 638.516 311.61 637.364 311.61 635.744C311.61 634.124 310.35 633.008 308.55 633.008C306.786 633.008 305.49 634.124 305.49 635.744C305.49 637.364 306.786 638.516 308.55 638.516ZM305.922 659H311.214V641.144H305.922V659ZM315.621 653.456C315.621 657.056 316.845 659.432 320.481 659.432C321.669 659.432 322.569 659.252 323.145 659L322.497 655.076C322.209 655.148 322.065 655.148 321.849 655.148C321.417 655.148 320.913 654.788 320.913 653.672V633.764H315.621V653.456ZM326.068 661.592L325.132 665.624C325.852 665.84 326.572 665.984 327.652 665.984C331.864 665.984 333.772 663.68 335.464 659.18L341.656 641.144H336.58L334.42 648.812C333.988 650.504 333.592 652.196 333.196 653.888H333.052C332.584 652.124 332.152 650.432 331.648 648.812L329.092 641.144H323.764L330.64 658.532L330.388 659.468C329.92 660.872 329.02 661.808 327.256 661.808C326.86 661.808 326.392 661.664 326.068 661.592ZM356.438 659H361.766V639.992H368.21V635.528H349.994V639.992H356.438V659ZM368.219 654.032C368.219 657.056 370.271 659.432 373.511 659.432C375.527 659.432 377.219 658.496 378.731 657.164H378.839L379.235 659H383.555V648.776C383.555 643.304 381.035 640.712 376.463 640.712C373.655 640.712 371.099 641.684 368.831 643.052L370.703 646.544C372.431 645.536 373.943 644.924 375.455 644.924C377.363 644.924 378.155 645.932 378.263 647.516C371.207 648.236 368.219 650.288 368.219 654.032ZM373.259 653.636C373.259 652.268 374.483 651.188 378.263 650.684V653.816C377.327 654.752 376.535 655.328 375.311 655.328C374.051 655.328 373.259 654.788 373.259 653.636ZM386.264 656.948C388.064 658.424 390.764 659.432 393.104 659.432C397.892 659.432 400.448 656.912 400.448 653.672C400.448 650.396 397.892 649.136 395.624 648.308C393.788 647.624 392.132 647.192 392.132 646.04C392.132 645.14 392.78 644.636 394.148 644.636C395.408 644.636 396.632 645.212 397.928 646.148L400.304 642.98C398.756 641.828 396.74 640.712 394.004 640.712C389.864 640.712 387.164 642.98 387.164 646.292C387.164 649.244 389.72 650.72 391.88 651.548C393.716 652.268 395.516 652.808 395.516 653.996C395.516 654.932 394.832 655.508 393.248 655.508C391.736 655.508 390.26 654.86 388.64 653.636L386.264 656.948ZM403.559 659H408.707V654.608L410.975 652.052L415.007 659H420.731L413.999 648.488L420.263 641.144H414.503L408.851 648.236H408.707V633.764H403.559V659ZM421.447 656.948C423.247 658.424 425.947 659.432 428.287 659.432C433.075 659.432 435.631 656.912 435.631 653.672C435.631 650.396 433.075 649.136 430.807 648.308C428.971 647.624 427.315 647.192 427.315 646.04C427.315 645.14 427.963 644.636 429.331 644.636C430.591 644.636 431.815 645.212 433.111 646.148L435.487 642.98C433.939 641.828 431.923 640.712 429.187 640.712C425.047 640.712 422.347 642.98 422.347 646.292C422.347 649.244 424.903 650.72 427.063 651.548C428.899 652.268 430.699 652.808 430.699 653.996C430.699 654.932 430.015 655.508 428.431 655.508C426.919 655.508 425.443 654.86 423.823 653.636L421.447 656.948ZM274.312 707.432C280.648 707.432 284.968 702.824 284.968 695.156C284.968 687.524 280.648 683.096 274.312 683.096C267.976 683.096 263.656 687.488 263.656 695.156C263.656 702.824 267.976 707.432 274.312 707.432ZM274.312 702.86C271.108 702.86 269.092 699.872 269.092 695.156C269.092 690.476 271.108 687.668 274.312 687.668C277.516 687.668 279.532 690.476 279.532 695.156C279.532 699.872 277.516 702.86 274.312 702.86ZM288.699 707H293.991V696.632C294.927 694.22 296.583 693.356 297.915 693.356C298.671 693.356 299.211 693.464 299.859 693.644L300.723 689.072C300.219 688.856 299.607 688.712 298.599 688.712C296.763 688.712 294.819 689.864 293.523 692.276H293.379L293.019 689.144H288.699V707ZM305.682 709.232C305.682 708.584 306.006 708.044 306.654 707.468C307.23 707.612 307.95 707.684 309.174 707.684H311.01C312.774 707.684 313.746 707.972 313.746 709.088C313.746 710.312 312.018 711.284 309.642 711.284C307.266 711.284 305.682 710.564 305.682 709.232ZM301.326 710.06C301.326 713.228 304.638 714.596 308.814 714.596C314.934 714.596 318.786 711.896 318.786 708.188C318.786 704.984 316.374 703.652 311.982 703.652H309.102C307.122 703.652 306.402 703.22 306.402 702.32C306.402 701.708 306.582 701.384 307.05 700.988C307.842 701.24 308.562 701.348 309.21 701.348C313.134 701.348 316.23 699.44 316.23 695.336C316.23 694.4 315.978 693.536 315.654 692.996H318.498V689.144H311.982C311.19 688.856 310.218 688.712 309.21 688.712C305.358 688.712 301.83 690.872 301.83 695.156C301.83 697.244 302.982 698.936 304.242 699.8V699.944C303.09 700.736 302.226 701.996 302.226 703.292C302.226 704.768 302.946 705.704 303.882 706.316V706.46C302.226 707.396 301.326 708.584 301.326 710.06ZM309.21 698.144C307.806 698.144 306.762 697.136 306.762 695.156C306.762 693.248 307.806 692.276 309.21 692.276C310.614 692.276 311.658 693.284 311.658 695.156C311.658 697.136 310.614 698.144 309.21 698.144ZM320.106 702.032C320.106 705.056 322.158 707.432 325.398 707.432C327.414 707.432 329.106 706.496 330.618 705.164H330.726L331.122 707H335.442V696.776C335.442 691.304 332.922 688.712 328.35 688.712C325.542 688.712 322.986 689.684 320.718 691.052L322.59 694.544C324.318 693.536 325.83 692.924 327.342 692.924C329.25 692.924 330.042 693.932 330.15 695.516C323.094 696.236 320.106 698.288 320.106 702.032ZM325.146 701.636C325.146 700.268 326.37 699.188 330.15 698.684V701.816C329.214 702.752 328.422 703.328 327.198 703.328C325.938 703.328 325.146 702.788 325.146 701.636ZM339.735 707H345.027V694.94C346.179 693.824 347.007 693.212 348.339 693.212C349.851 693.212 350.535 694.004 350.535 696.596V707H355.827V695.912C355.827 691.448 354.171 688.712 350.283 688.712C347.871 688.712 346.071 689.972 344.559 691.412H344.415L344.055 689.144H339.735V707ZM362.714 686.516C364.514 686.516 365.774 685.364 365.774 683.744C365.774 682.124 364.514 681.008 362.714 681.008C360.95 681.008 359.654 682.124 359.654 683.744C359.654 685.364 360.95 686.516 362.714 686.516ZM360.086 707H365.378V689.144H360.086V707ZM368.813 707H383.141V702.86H375.401L382.889 691.952V689.144H369.641V693.284H376.301L368.813 704.156V707ZM384.698 698.072C384.698 703.976 388.622 707.432 393.734 707.432C395.858 707.432 398.234 706.676 400.07 705.416L398.306 702.212C397.01 703.004 395.786 703.4 394.454 703.4C392.078 703.4 390.278 702.212 389.81 699.512H400.502C400.61 699.08 400.718 698.216 400.718 697.28C400.718 692.42 398.198 688.712 393.122 688.712C388.838 688.712 384.698 692.276 384.698 698.072ZM389.774 696.236C390.134 693.86 391.574 692.744 393.23 692.744C395.354 692.744 396.218 694.184 396.218 696.236H389.774ZM403.189 698.072C403.189 703.904 406.069 707.432 410.497 707.432C412.225 707.432 413.989 706.496 415.249 705.236H415.393L415.753 707H420.073V681.764H414.781V687.848L414.997 690.584C413.773 689.432 412.585 688.712 410.605 688.712C406.825 688.712 403.189 692.24 403.189 698.072ZM408.625 698C408.625 694.616 410.137 693.032 411.829 693.032C412.801 693.032 413.845 693.32 414.781 694.184V701.492C413.917 702.68 413.017 703.112 411.865 703.112C409.813 703.112 408.625 701.528 408.625 698ZM434.378 686.516C436.178 686.516 437.438 685.364 437.438 683.744C437.438 682.124 436.178 681.008 434.378 681.008C432.614 681.008 431.318 682.124 431.318 683.744C431.318 685.364 432.614 686.516 434.378 686.516ZM431.75 707H437.042V689.144H431.75V707ZM441.449 707H446.741V694.94C447.893 693.824 448.721 693.212 450.053 693.212C451.565 693.212 452.249 694.004 452.249 696.596V707H457.541V695.912C457.541 691.448 455.885 688.712 451.997 688.712C449.585 688.712 447.785 689.972 446.273 691.412H446.129L445.769 689.144H441.449V707ZM468.031 707H484.123V702.536H479.515C478.435 702.536 476.851 702.68 475.699 702.824C479.407 698.936 483.007 694.832 483.007 690.98C483.007 686.588 479.947 683.708 475.447 683.708C472.171 683.708 470.047 684.932 467.779 687.344L470.659 690.188C471.811 688.964 473.071 687.848 474.727 687.848C476.707 687.848 477.967 689.072 477.967 691.304C477.967 694.544 473.863 698.468 468.031 703.976V707ZM266.86 755H273.412L275.608 744.344C276.004 742.544 276.292 740.636 276.58 738.908H276.724C276.976 740.636 277.264 742.544 277.66 744.344L279.964 755H286.624L290.8 731.528H285.724L284.104 742.508C283.78 744.92 283.456 747.404 283.132 749.924H282.988C282.52 747.404 282.052 744.884 281.584 742.508L279.064 731.528H274.564L272.044 742.508C271.576 744.956 271.108 747.44 270.64 749.924H270.496C270.208 747.44 269.848 744.956 269.56 742.508L267.94 731.528H262.504L266.86 755ZM292.331 746.072C292.331 751.976 296.255 755.432 301.367 755.432C303.491 755.432 305.867 754.676 307.703 753.416L305.939 750.212C304.643 751.004 303.419 751.4 302.087 751.4C299.711 751.4 297.911 750.212 297.443 747.512H308.135C308.243 747.08 308.351 746.216 308.351 745.28C308.351 740.42 305.831 736.712 300.755 736.712C296.471 736.712 292.331 740.276 292.331 746.072ZM297.407 744.236C297.767 741.86 299.207 740.744 300.863 740.744C302.987 740.744 303.851 742.184 303.851 744.236H297.407ZM310.714 746.072C310.714 751.976 314.638 755.432 319.75 755.432C321.874 755.432 324.25 754.676 326.086 753.416L324.322 750.212C323.026 751.004 321.802 751.4 320.47 751.4C318.094 751.4 316.294 750.212 315.826 747.512H326.518C326.626 747.08 326.734 746.216 326.734 745.28C326.734 740.42 324.214 736.712 319.138 736.712C314.854 736.712 310.714 740.276 310.714 746.072ZM315.79 744.236C316.15 741.86 317.59 740.744 319.246 740.744C321.37 740.744 322.234 742.184 322.234 744.236H315.79ZM330.141 755H335.289V750.608L337.557 748.052L341.589 755H347.313L340.581 744.488L346.845 737.144H341.085L335.433 744.236H335.289V729.764H330.141V755ZM355.772 752.048C358.148 754.28 361.388 755.432 364.448 755.432C370.064 755.432 373.304 752.048 373.304 748.16C373.304 744.848 371.504 742.94 368.66 741.788L365.636 740.564C363.62 739.736 362.072 739.232 362.072 737.792C362.072 736.46 363.224 735.668 365.06 735.668C366.932 735.668 368.372 736.352 369.92 737.54L372.62 734.192C370.604 732.176 367.76 731.096 365.06 731.096C360.164 731.096 356.708 734.192 356.708 738.08C356.708 741.5 359.012 743.516 361.424 744.488L364.484 745.784C366.536 746.648 367.868 747.116 367.868 748.592C367.868 749.996 366.788 750.86 364.592 750.86C362.648 750.86 360.488 749.852 358.796 748.412L355.772 752.048ZM381.718 753.56C382.978 754.748 384.418 755.432 385.966 755.432C389.818 755.432 393.49 751.904 393.49 745.784C393.49 740.276 390.826 736.712 386.506 736.712C384.634 736.712 382.834 737.648 381.43 738.908H381.286L380.926 737.144H376.606V761.624H381.898V756.404L381.718 753.56ZM381.898 749.96V742.652C382.942 741.536 383.878 741.032 384.958 741.032C387.082 741.032 388.054 742.652 388.054 745.856C388.054 749.528 386.578 751.112 384.742 751.112C383.842 751.112 382.834 750.824 381.898 749.96ZM396.992 755H402.284V744.632C403.22 742.22 404.876 741.356 406.208 741.356C406.964 741.356 407.504 741.464 408.152 741.644L409.016 737.072C408.512 736.856 407.9 736.712 406.892 736.712C405.056 736.712 403.112 737.864 401.816 740.276H401.672L401.312 737.144H396.992V755ZM413.714 734.516C415.514 734.516 416.774 733.364 416.774 731.744C416.774 730.124 415.514 729.008 413.714 729.008C411.95 729.008 410.654 730.124 410.654 731.744C410.654 733.364 411.95 734.516 413.714 734.516ZM411.086 755H416.378V737.144H411.086V755ZM420.785 755H426.077V742.94C427.229 741.824 428.057 741.212 429.389 741.212C430.901 741.212 431.585 742.004 431.585 744.596V755H436.877V743.912C436.877 739.448 435.221 736.712 431.333 736.712C428.921 736.712 427.121 737.972 425.609 739.412H425.465L425.105 737.144H420.785V755ZM441.857 748.52C441.857 752.66 443.585 755.432 448.013 755.432C449.741 755.432 451.037 755.072 451.973 754.784L451.145 750.932C450.677 751.112 450.029 751.292 449.453 751.292C448.049 751.292 447.149 750.464 447.149 748.448V741.284H451.433V737.144H447.149V732.392H442.757L442.145 737.144L439.409 737.36V741.284H441.857V748.52ZM453.084 752.948C454.884 754.424 457.584 755.432 459.924 755.432C464.712 755.432 467.268 752.912 467.268 749.672C467.268 746.396 464.712 745.136 462.444 744.308C460.608 743.624 458.952 743.192 458.952 742.04C458.952 741.14 459.6 740.636 460.968 740.636C462.228 740.636 463.452 741.212 464.748 742.148L467.124 738.98C465.576 737.828 463.56 736.712 460.824 736.712C456.684 736.712 453.984 738.98 453.984 742.292C453.984 745.244 456.54 746.72 458.7 747.548C460.536 748.268 462.336 748.808 462.336 749.996C462.336 750.932 461.652 751.508 460.068 751.508C458.556 751.508 457.08 750.86 455.46 749.636L453.084 752.948Z" fill="#2B2B2B"/>
</svg>
