<?xml version="1.0" encoding="utf-8"?>
<!-- Generator: Adobe Illustrator 23.0.4, SVG Export Plug-In . SVG Version: 6.00 Build 0)  -->
<svg version="1.1" id="Layer_1" xmlns="http://www.w3.org/2000/svg" xmlns:xlink="http://www.w3.org/1999/xlink" x="0px" y="0px"
	 viewBox="0 0 206.8 67.5" style="enable-background:new 0 0 206.8 67.5;" xml:space="preserve">
<style type="text/css">
	.st0{fill:#2B2B2B;}
	.st1{enable-background:new    ;}
	.st2{font-family:'Georgia';}
	.st3{font-size:6.6px;}
	.st4{font-size:4px;}
	.st5{font-size:4.0002px;}
	.st6{font-size:3.9848px;}
	.st7{font-size:4.0072px;}
	.st8{font-size:4.0049px;}
	.st9{font-size:4.0368px;}
	.st10{font-size:3.9754px;}
	.st11{font-size:4.0001px;}
	.st12{font-size:4.007px;}
	.st13{font-size:3.9898px;}
	.st14{font-size:4.0008px;}
	.st15{font-size:4.02px;}
	.st16{font-size:4.0098px;}
	.st17{font-size:3.9962px;}
	.st18{font-size:3.9984px;}
	.st19{font-size:3.9998px;}
</style>
<title>idf-logo-full-texttry</title>
<path class="st0" d="M0,33.8C-0.1,15.1,15,0,33.7-0.1s33.8,15,33.9,33.7s-15,33.8-33.7,33.9h-0.1C15.2,67.5,0.1,52.4,0,33.8 M1,33.8
	c0,18.1,14.7,32.8,32.8,32.8s32.8-14.7,32.8-32.8S52,1.1,33.9,1h-0.1C15.7,1,1,15.7,1,33.8z"/>
<path class="st0" d="M24,23.4c1-0.4,2-1,2.8-1.8c0.3,1.4,0.9,2.7,1.8,3.9c-0.8,0.3-1.6,0.7-2.2,1.3C26,25.5,25.1,24.3,24,23.4
	 M35.4,17.4c-1.2-0.1-2.4,0.1-3.6,0.5c-0.2-1.9-0.9-3.7-2-5.2c0.1-0.1,2.9-1.2,4.7-0.9S35.5,15.9,35.4,17.4L35.4,17.4L35.4,17.4z
	 M37.1,51l1.1,0.7H29c0.9-0.5,1.7-0.9,1.8-1.3c0.4-1.7,0.4-3.6,0-5.3c-0.8-1.6-2.2-2.8-3.9-3.4c-0.6,0.1-1.2,0.4-1.8,0.7l1,0.7
	c-0.9,0.6-1.7,1.4-2.2,2.4c-0.5-0.6-1.1-1.1-1.7-1.6c0.5-1,1.3-1.8,2.3-2.4L25,42c0.4-0.3,0.8-0.6,1.3-0.7c-1.7-0.6-3.5-1.1-5.3-1.3
	v1.8c-2-0.2-3.9,0-5.8,0.7c0-0.2-0.6-3,0.1-4.7c0.7-1.7,4.5,0.1,6.1,0.4c-0.1,0.4-0.2,0.9-0.3,1.3c1.3-0.2,2.5-0.3,3.8-0.2
	c-0.6-0.9-1.5-1.6-2.5-2c-1.1-0.5-2-1.1-2.9-1.9L18,36.2c-0.3-1.9-1.3-3.8-2.6-5.2c1.5-0.3,2.9-0.9,4.2-1.6c0.2,1.4,0.5,4.3,1.5,5.6
	c-0.6,0-1.1,0.2-1.6,0.5c1,0.7,2.2,1.2,3.4,1.5c-0.1-0.5-0.1-1,0-1.5h-0.7c-0.1-0.9-0.1-1.7,0.1-2.6c0.7-0.1,1.4,0,2,0.2
	c-0.4,0.8-0.6,1.6-0.6,2.5h-0.8c0,0.6,0.1,1.1,0.4,1.6c1.3,0.4,2.5,1.3,3.2,2.5l2.7,0.7c0-0.5-0.1-1-0.3-1.4l-0.7,0.2
	c-0.2-0.9-0.6-1.7-1.2-2.3c0.6-0.3,1.3-0.6,2-0.7c0.4,0.8,0.6,1.6,0.7,2.5h-0.8c0.3,0.5,0.5,1,0.6,1.6l1.6,0.7
	c0.2-2.4-0.6-4.7-2.1-6.5l-1.6,1.3c-0.5-2.1-3.6-4.8-3.6-4.8c1.2-0.6,2.3-1.4,3.3-2.4c1.9,1,3.3,3.9,3.6,4.7l-1.5,0.8l1.8,1.5l0.7,1
	c0.4-0.3,0.7-0.7,1-1.2l-1-0.3c0.7-1,1.1-2.1,1.3-3.3c0.7,0.5,1.5,0.8,2.3,0.9c-0.1,1.2-0.5,2.4-1.2,3.4l-1-0.5
	c-0.2,0.6-0.5,1.2-1,1.7c0.6,1.3,1,2.8,1.6,4.2c3.6-3,2.6-8.7,1.9-11.3l-1.7,1.3c-1.2-1.9-2.8-3.4-4.7-4.5c0.1-0.1,2.2-2.7,4.2-3.2
	s3,3.9,3.9,5.6L36,30.1c0.9,1.4,1.6,2.9,1.9,4.5l1.6-1.3L38.8,33c0.5-1,1.3-1.8,2.3-2.4c0.5,0.6,1.1,1.1,1.7,1.5
	c-0.9,0.6-1.7,1.4-2.2,2.4l-0.9-0.9c-0.7,0.9-1.3,2-1.7,3.1c0.1,1.2,0,2.5-0.3,3.7c1-0.6,2.1-0.9,3.3-1c0.3-1.2,1-2.1,2.1-2.7
	L42,35.4c1.2-1.2,3.5-3.4,4.8-3.7c1.2,1.1,2.1,2.4,2.7,3.9c-1.9,0.4-3.7,1.3-5.2,2.6l-0.9-1.3c-0.6,0.7-1,1.5-1.1,2.4
	c1.5-0.1,3.1,0,4.6,0.2c0.1-0.6,0.2-1.1,0.1-1.7c0.8-0.1,4,0,5.8,1.3c-0.4,1.3-0.7,2.7-0.7,4.1c0,0-3.7-1.6-5.8-1.2
	c0.2-0.6,0.4-1.3,0.5-1.9c-2.1-0.2-4.2,0.1-6.2,0.9l2,0.4c0.1-0.2,0.2-0.5,0.2-0.7c1.1,0.2,2.1,0.8,2.9,1.6c-0.6,0.5-1,1.2-1.2,1.9
	c-0.8-0.7-1.8-1.2-2.9-1.5l0.7-1.1c-0.9-0.1-1.8-0.2-2.7-0.1L38,42.6c-0.6,0.6-1.1,1.3-1.4,2.1c0.3,0.4,0.4,0.9,0.4,1.4
	c0.1,0.8-0.3,1.5-1,1.9C36,49.1,36.4,50.2,37.1,51L37.1,51z M36.1,45.9c0.1-0.4-0.1-0.8-0.5-1C35.2,45,35,45.4,35,45.8
	c-0.1,0.4,0.1,0.8,0.5,1C35.9,46.7,36.2,46.3,36.1,45.9L36.1,45.9z M35.4,44.1c-0.7,0.2-1,1-0.8,2.1c-0.1-0.7,0.2-1.4,0.7-1.9
	c0.3-0.2,0.1-0.3,0.1-0.3l0,0V44.1z M29.3,23c-0.9-1.8-2.2-3.4-3.8-4.6c0.1-0.1,2.3-2.1,4.1-2.5s2.4,3.9,2.9,5.4L30.8,22
	c0.2,0.6,0.2,1.2,0,1.8c-0.1-0.5-0.2-1.1-0.4-1.6L29.3,23z M15.8,33.1c-0.4,0.5-0.5,2.7-0.4,4.2c-1.9-0.6-3.9-0.8-5.9-0.7
	c0.4-1.4,0.6-2.8,0.4-4.2C10.8,33.1,14.4,33.2,15.8,33.1z M24.9,28.3c-1.4,0.1-2.7,0.6-3.9,1.3c-0.1-1.9-1.9-4.6-2.8-6
	c1.8-0.1,5-1.7,5-1.7C22.8,23.7,23.8,26.5,24.9,28.3C24.8,28.3,24.9,28.3,24.9,28.3z M39.9,19.5c-1-0.2-2-0.2-3,0
	c-0.2-1.3-0.4-4,0.1-5.1c1.3-0.2,2.6-0.1,3.9,0.3C40.2,16.2,39.8,17.8,39.9,19.5L39.9,19.5z M23.2,21.1c0,0-1.7-2.5-3.1-3
	c0.8-0.6,1.5-1.4,2-2.2c1.3,0.7,2.3,1.7,3,3C24.3,19.5,23.7,20.3,23.2,21.1z M42.7,28c1.9-1,3.8-4.6,3.8-4.6c0.9,1.1,1.9,2,3.1,2.8
	c-0.6,2.1-3,4.2-3.7,4.6c-0.3-0.4-0.6-0.8-1-1.1c-0.8,0.8-1.4,1.9-1.7,3c0.2-1.2,0.7-2.3,1.3-3.3L42.7,28z M51.7,38.3
	c0.2-0.7-0.7-3-1.5-4.6c2.3-0.2,4.5-0.9,6.5-2.1c0.2,1.6,0.7,3.2,1.5,4.6C57,36,53.1,37.5,51.7,38.3L51.7,38.3z M48.6,29.8
	c1.6-1,3.8-3.1,4.3-4.8c1,1.4,2.2,2.6,3.6,3.6c-1.4,0.8-4.2,2.5-5.1,4C50.7,31.4,49.8,30.5,48.6,29.8L48.6,29.8z M40.6,21.8
	c0.6-1.2,1.9-4.6,1.8-5.6c1.2,0.7,2.6,1.1,4,1.3c-0.9,1.7-1.5,3.6-1.7,5.5c-1.3-0.7-3.4-1.5-4-1.3l0,0L40.6,21.8z M39.3,27.8
	c-0.3,1.3-0.9,2.6-1.7,3.7c0.6-1.2,0.9-2.5,1-3.9L37,27.2c1-1.3,1.2-4.2,1.3-5.6c1.4,0.7,2.8,1.2,4.3,1.4c-1.2,1-2,3.6-2.2,5.4
	L39.3,27.8z M33.4,19.9c1,0,1.9-0.2,2.8-0.6c0,1.4,0.3,2.7,0.8,4c-1,0-1.9,0.2-2.8,0.6C34.2,22.5,33.9,21.2,33.4,19.9L33.4,19.9z
	 M52.5,20.8c-1,0.8-1.9,1.8-2.4,3c-0.7-0.5-1.4-0.8-2.2-1c0.4-1,1.1-3,1.8-3.6c1,0.3,2,0.8,2.8,1.5C52.5,20.7,52.5,20.8,52.5,20.8z
	 M15.8,28.5c-0.6-1.6-3.1-3.5-3.1-3.5c0.9-0.6,1.7-1.2,2.4-2c1.4,0.8,2.5,1.9,3.2,3.3C17.4,26.9,16.5,27.6,15.8,28.5z"/>
<path class="st0" d="M16.5,51.3H51v0.5H16.5V51.3z"/>
<path class="st0" d="M14.5,54.7h-0.2c-5.1-4.7-8.2-11.1-8.9-18c0.1-0.2,0.2-0.2,0.4-0.2c0,0,0.1,0.1,0.1,0.1
	c0.7,6.7,3.8,13,8.8,17.6c0.1,0.1,0.1,0.3,0,0.4h-0.2C14.5,54.6,14.5,54.7,14.5,54.7z"/>
<path class="st0" d="M53,54.7h-0.2c-0.1-0.1-0.1-0.3,0-0.4c5-4.6,8.1-10.9,8.8-17.7c-0.1-0.2,0-0.3,0.2-0.4c0.2-0.1,0.3,0,0.4,0.2
	c0,0.1,0,0.2-0.1,0.3c-0.7,6.9-3.9,13.3-8.9,18C53.2,54.7,53,54.7,53,54.7z"/>
<g class="st1">
	<path class="st0" d="M81.6,30.8h-3.7v-0.4c0.1,0,0.3,0,0.4,0c0.2,0,0.3,0,0.4-0.1c0.1,0,0.2-0.1,0.3-0.2c0.1-0.1,0.1-0.2,0.1-0.4
		v-5.9c0-0.1,0-0.2-0.1-0.3c0-0.1-0.1-0.2-0.3-0.2c-0.1,0-0.3-0.1-0.4-0.1s-0.3-0.1-0.4-0.1v-0.4h3.7v0.4c-0.1,0-0.3,0-0.4,0
		c-0.2,0-0.3,0.1-0.4,0.1s-0.2,0.1-0.3,0.2c0,0.1-0.1,0.2-0.1,0.3v5.9c0,0.1,0,0.2,0.1,0.3c0.1,0.1,0.1,0.2,0.3,0.2
		c0.1,0,0.2,0.1,0.4,0.1c0.2,0,0.3,0.1,0.5,0.1L81.6,30.8L81.6,30.8z"/>
	<path class="st0" d="M90.9,23.1c-0.1,0-0.3,0-0.5,0.1s-0.4,0.1-0.5,0.2s-0.2,0.3-0.3,0.5c0,0.3-0.1,0.6-0.1,1v5.9H89l-4.9-6.6v4.2
		c0,0.5,0,0.8,0.1,1.1c0.1,0.3,0.1,0.4,0.3,0.5c0.1,0.1,0.3,0.2,0.5,0.2c0.3,0.1,0.5,0.1,0.5,0.1v0.5h-3.3v-0.4c0.1,0,0.3,0,0.5-0.1
		s0.4-0.1,0.5-0.2s0.2-0.3,0.3-0.5c0-0.2,0.1-0.6,0.1-1.1v-4c0-0.2,0-0.3-0.1-0.5s-0.1-0.3-0.2-0.4s-0.3-0.2-0.6-0.3
		c-0.2-0.1-0.4-0.1-0.6-0.1v-0.4h2.3L89,29v-3.9c0-0.5,0-0.8-0.1-1.1c-0.1-0.3-0.1-0.4-0.3-0.5c-0.1-0.1-0.3-0.1-0.5-0.2
		s-0.4-0.1-0.6-0.1v-0.4h3.3L90.9,23.1L90.9,23.1z"/>
	<path class="st0" d="M98.2,24.9h-0.4c0-0.1-0.1-0.3-0.2-0.5s-0.2-0.4-0.3-0.5c-0.1-0.2-0.2-0.3-0.4-0.5c-0.1-0.1-0.3-0.2-0.4-0.2
		s-0.3,0-0.4,0c-0.2,0-0.3,0-0.5,0h-0.3v6.5c0,0.1,0,0.2,0.1,0.3c0.1,0.1,0.1,0.2,0.3,0.2c0.1,0,0.2,0.1,0.4,0.1
		c0.2,0,0.4,0.1,0.5,0.1v0.4h-3.8v-0.4c0.1,0,0.3,0,0.5,0s0.4-0.1,0.5-0.1s0.2-0.1,0.3-0.2c0.1-0.1,0.1-0.2,0.1-0.4v-6.5h-0.3
		c-0.1,0-0.3,0-0.4,0c-0.2,0-0.3,0-0.5,0c-0.1,0-0.3,0.1-0.4,0.2s-0.3,0.3-0.4,0.5s-0.2,0.4-0.3,0.5c-0.1,0.2-0.1,0.4-0.2,0.5h-0.6
		v-2.2h7.1V24.9z"/>
	<path class="st0" d="M105.6,28.4l-0.2,2.4h-6.7v-0.4c0.1,0,0.3,0,0.5,0s0.3-0.1,0.4-0.1c0.1-0.1,0.2-0.1,0.3-0.2
		c0-0.1,0.1-0.2,0.1-0.3v-5.9c0-0.1,0-0.2-0.1-0.3c0-0.1-0.1-0.2-0.3-0.2c-0.1,0-0.2-0.1-0.4-0.1s-0.3-0.1-0.4-0.1v-0.4h6.3v2h-0.4
		c-0.1-0.3-0.2-0.6-0.5-0.9s-0.5-0.5-0.7-0.5c-0.1,0-0.3,0-0.4,0c-0.2,0-0.3,0-0.6,0h-1.3v3.2h0.9c0.3,0,0.5,0,0.6-0.1
		s0.3-0.1,0.4-0.3c0.1-0.1,0.2-0.3,0.2-0.4c0.1-0.2,0.1-0.4,0.1-0.5h0.4v3.2h-0.4c0-0.2-0.1-0.4-0.1-0.6c-0.1-0.2-0.1-0.4-0.2-0.4
		c-0.1-0.1-0.3-0.2-0.4-0.3c-0.1,0-0.3-0.1-0.6-0.1h-0.9v2.4c0,0.2,0,0.4,0.1,0.6s0.1,0.2,0.2,0.3c0.1,0.1,0.2,0.1,0.4,0.1
		c0.2,0,0.4,0,0.7,0c0.1,0,0.3,0,0.5,0s0.4,0,0.5,0s0.3,0,0.4-0.1c0.2,0,0.3-0.1,0.3-0.2c0.2-0.2,0.4-0.5,0.6-0.8
		c0.2-0.4,0.3-0.6,0.4-0.8h0.3V28.4z"/>
	<path class="st0" d="M114.4,30.8h-2.2c-0.5-0.8-0.9-1.4-1.3-2s-0.8-1.1-1.3-1.7h-0.8v2.6c0,0.1,0,0.3,0.1,0.4
		c0,0.1,0.1,0.2,0.3,0.2c0.1,0,0.2,0.1,0.4,0.1c0.2,0,0.3,0,0.4,0v0.4h-3.4v-0.4c0.1,0,0.2,0,0.4,0c0.2,0,0.3,0,0.4-0.1
		c0.1,0,0.2-0.1,0.2-0.2c0.1-0.1,0.1-0.2,0.1-0.4v-5.9c0-0.1,0-0.3-0.1-0.4c0-0.1-0.1-0.2-0.3-0.2c-0.1,0-0.2-0.1-0.4-0.1
		s-0.3,0-0.4-0.1v-0.4h3.7c0.3,0,0.7,0,1,0.1s0.6,0.2,0.8,0.3c0.2,0.2,0.4,0.4,0.6,0.6c0.1,0.2,0.2,0.5,0.2,0.9c0,0.3,0,0.6-0.1,0.8
		c-0.1,0.2-0.2,0.4-0.4,0.6c-0.2,0.2-0.4,0.3-0.6,0.4s-0.5,0.2-0.8,0.3c0.4,0.5,0.7,1,1,1.3c0.3,0.4,0.6,0.8,1,1.3
		c0.2,0.2,0.3,0.4,0.5,0.5s0.3,0.2,0.4,0.3c0.1,0.1,0.2,0.1,0.4,0.1s0.3,0,0.4,0v0.7H114.4z M111.4,24.8c0-0.5-0.1-0.9-0.4-1.2
		c-0.3-0.3-0.7-0.4-1.2-0.4h-1v3.5h0.7c0.5,0,1-0.2,1.3-0.5C111.2,25.8,111.4,25.3,111.4,24.8z"/>
	<path class="st0" d="M122.2,30.8h-3.4v-0.4c0.3,0,0.5-0.1,0.7-0.1c0.2-0.1,0.3-0.1,0.3-0.2V30v-0.1l-0.7-1.8h-2.8
		c-0.1,0.3-0.2,0.5-0.3,0.7c-0.1,0.2-0.1,0.4-0.2,0.5c0,0.2-0.1,0.3-0.1,0.4s0,0.2,0,0.3c0,0.2,0.1,0.3,0.4,0.4
		c0.2,0.1,0.5,0.1,0.8,0.1v0.3h-3.1v-0.4c0.1,0,0.2,0,0.4-0.1s0.3-0.1,0.4-0.1c0.2-0.1,0.3-0.2,0.4-0.3s0.2-0.3,0.2-0.5
		c0.4-1,0.9-2.2,1.3-3.4c0.5-1.3,0.9-2.4,1.3-3.4h0.5l2.7,7c0.1,0.1,0.1,0.3,0.2,0.4s0.2,0.2,0.3,0.3c0.1,0.1,0.2,0.1,0.3,0.1
		c0.1,0,0.3,0.1,0.4,0.1L122.2,30.8L122.2,30.8z M119,27.5l-1.2-3.1l-1.2,3.1H119z"/>
	<path class="st0" d="M126.1,31c-0.5,0-0.9-0.1-1.4-0.3s-0.8-0.5-1.2-0.8c-0.3-0.4-0.6-0.8-0.8-1.3s-0.3-1.1-0.3-1.7
		s0.1-1.2,0.3-1.8c0.2-0.5,0.5-1,0.8-1.4s0.8-0.7,1.2-0.9c0.5-0.2,1-0.3,1.5-0.3c0.4,0,0.8,0,1.1,0.1c0.3,0.1,0.6,0.2,0.9,0.4
		l0.2-0.4h0.5l0.1,2.9h-0.5c-0.1-0.3-0.2-0.6-0.3-0.9s-0.3-0.6-0.4-0.8c-0.2-0.3-0.4-0.5-0.6-0.6c-0.3-0.1-0.5-0.2-0.9-0.2
		s-0.7,0.1-1,0.2c-0.3,0.2-0.6,0.4-0.8,0.7c-0.2,0.3-0.4,0.7-0.5,1.2s-0.2,1-0.2,1.6c0,0.5,0.1,1,0.2,1.4s0.3,0.8,0.6,1.1
		c0.2,0.3,0.5,0.6,0.9,0.8c0.3,0.2,0.7,0.3,1.1,0.3c0.3,0,0.6,0,0.9-0.1s0.5-0.2,0.7-0.4c0.2-0.2,0.4-0.4,0.5-0.6s0.3-0.4,0.4-0.7
		l0.4,0.2c-0.3,0.8-0.8,1.4-1.3,1.7C127.5,30.8,126.8,31,126.1,31z"/>
	<path class="st0" d="M136.6,24.9h-0.4c0-0.1-0.1-0.3-0.2-0.5s-0.2-0.4-0.3-0.5c-0.1-0.2-0.2-0.3-0.4-0.5s-0.3-0.2-0.4-0.2
		c-0.1,0-0.3,0-0.4,0s-0.3,0-0.5,0h-0.3v6.5c0,0.1,0,0.2,0.1,0.3c0.1,0.1,0.1,0.2,0.3,0.2c0.1,0,0.2,0.1,0.4,0.1s0.4,0.1,0.5,0.1
		v0.4h-3.8v-0.4c0.1,0,0.3,0,0.5,0s0.4-0.1,0.5-0.1s0.2-0.1,0.3-0.2s0.1-0.2,0.1-0.4v-6.5h-0.3c-0.1,0-0.3,0-0.4,0
		c-0.2,0-0.3,0-0.5,0c-0.1,0-0.3,0.1-0.4,0.2c-0.1,0.1-0.3,0.3-0.4,0.5c-0.1,0.2-0.2,0.4-0.3,0.5c-0.1,0.2-0.1,0.4-0.2,0.5h-0.4
		v-2.2h7.1v2.2H136.6z"/>
	<path class="st0" d="M140.8,30.8h-3.7v-0.4c0.1,0,0.3,0,0.4,0c0.2,0,0.3,0,0.4-0.1c0.1,0,0.2-0.1,0.3-0.2s0.1-0.2,0.1-0.4v-5.9
		c0-0.1,0-0.2-0.1-0.3s-0.1-0.2-0.3-0.2c-0.1,0-0.3-0.1-0.4-0.1s-0.3-0.1-0.4-0.1v-0.4h3.7v0.4c-0.1,0-0.3,0-0.4,0s-0.3,0.1-0.4,0.1
		c-0.1,0-0.2,0.1-0.3,0.2s-0.1,0.2-0.1,0.3v5.9c0,0.1,0,0.2,0.1,0.3c0.1,0.1,0.1,0.2,0.3,0.2c0.1,0,0.2,0.1,0.4,0.1s0.3,0.1,0.5,0.1
		v0.5H140.8z"/>
	<path class="st0" d="M148.4,23.7c0.4,0.4,0.6,0.8,0.8,1.4c0.2,0.5,0.3,1.1,0.3,1.8c0,0.6-0.1,1.2-0.3,1.8c-0.2,0.5-0.5,1-0.9,1.3
		c-0.4,0.4-0.8,0.6-1.2,0.8c-0.5,0.2-1,0.3-1.5,0.3c-0.6,0-1.1-0.1-1.6-0.3c-0.5-0.2-0.9-0.5-1.2-0.9s-0.6-0.8-0.8-1.3
		s-0.3-1.1-0.3-1.7c0-0.7,0.1-1.2,0.3-1.8c0.2-0.5,0.5-1,0.9-1.3c0.4-0.4,0.8-0.7,1.2-0.9c0.5-0.2,1-0.3,1.5-0.3s1,0.1,1.5,0.3
		C147.6,23,148,23.3,148.4,23.7z M147.5,29.4c0.2-0.3,0.4-0.7,0.5-1.2c0.1-0.4,0.1-0.9,0.1-1.5s-0.1-1.1-0.2-1.5
		c-0.1-0.5-0.3-0.9-0.5-1.2c-0.2-0.3-0.5-0.6-0.8-0.8c-0.3-0.2-0.7-0.3-1.1-0.3c-0.5,0-0.8,0.1-1.2,0.3c-0.3,0.2-0.6,0.5-0.8,0.8
		s-0.3,0.7-0.4,1.2c-0.1,0.5-0.1,0.9-0.1,1.4s0.1,1,0.1,1.5c0.1,0.4,0.3,0.8,0.5,1.2c0.2,0.3,0.5,0.6,0.8,0.8s0.7,0.3,1.1,0.3
		c0.4,0,0.8-0.1,1.1-0.3C147.1,30,147.3,29.7,147.5,29.4z"/>
	<path class="st0" d="M158.9,23.1c-0.1,0-0.3,0-0.5,0.1s-0.4,0.1-0.5,0.2s-0.2,0.3-0.3,0.5s-0.1,0.6-0.1,1v5.9H157l-4.9-6.6v4.2
		c0,0.5,0,0.8,0.1,1.1c0.1,0.3,0.2,0.4,0.3,0.5s0.3,0.2,0.5,0.2c0.3,0.1,0.5,0.1,0.5,0.1v0.5h-3.3v-0.4c0.1,0,0.3,0,0.5-0.1
		s0.4-0.1,0.5-0.2s0.2-0.3,0.3-0.5s0.1-0.6,0.1-1.1v-4c0-0.2,0-0.3-0.1-0.5s-0.1-0.3-0.2-0.4c-0.1-0.1-0.3-0.2-0.6-0.3
		c-0.2-0.1-0.4-0.1-0.6-0.1v-0.4h2.3L157,29v-3.9c0-0.5,0-0.8-0.1-1.1c-0.1-0.3-0.1-0.4-0.3-0.5c-0.1-0.1-0.3-0.1-0.5-0.2
		s-0.4-0.1-0.6-0.1v-0.4h3.3v0.3H158.9z"/>
	<path class="st0" d="M170.1,26.8c0,0.7-0.1,1.3-0.4,1.8c-0.3,0.5-0.6,0.9-1,1.2c-0.4,0.3-0.9,0.6-1.4,0.7s-1.1,0.2-1.6,0.2h-3.4
		v-0.4c0.1,0,0.3,0,0.4,0c0.2,0,0.3,0,0.4-0.1c0.1,0,0.2-0.1,0.2-0.2c0.1-0.1,0.1-0.2,0.1-0.4v-5.8c0-0.1,0-0.2-0.1-0.3
		c0-0.1-0.1-0.2-0.3-0.2c-0.1-0.1-0.2-0.1-0.4-0.1c-0.1,0-0.3,0-0.4-0.1v-0.4h3.5c0.5,0,1,0.1,1.4,0.2s0.9,0.4,1.2,0.6
		c0.5,0.3,0.9,0.8,1.1,1.3S170.1,26.1,170.1,26.8z M168.7,26.8c0-0.5-0.1-1-0.2-1.5c-0.1-0.4-0.4-0.8-0.6-1.1
		c-0.3-0.3-0.6-0.6-1-0.7s-0.8-0.3-1.3-0.3c-0.2,0-0.3,0-0.5,0s-0.3,0-0.4,0v6.2c0,0.3,0.1,0.6,0.3,0.7s0.5,0.2,0.9,0.2
		c0.5,0,0.9-0.1,1.3-0.3c0.4-0.2,0.7-0.4,0.9-0.7c0.2-0.3,0.4-0.7,0.5-1.1S168.7,27.3,168.7,26.8z"/>
	<path class="st0" d="M177.9,28.4l-0.2,2.4H171v-0.4c0.1,0,0.3,0,0.5,0s0.3-0.1,0.4-0.1c0.1-0.1,0.2-0.1,0.3-0.2
		c0-0.1,0.1-0.2,0.1-0.3v-5.9c0-0.1,0-0.2-0.1-0.3c0-0.1-0.1-0.2-0.3-0.2c-0.1,0-0.2-0.1-0.4-0.1s-0.3-0.1-0.4-0.1v-0.4h6.3v2H177
		c-0.1-0.3-0.2-0.6-0.5-0.9s-0.5-0.5-0.7-0.5c-0.1,0-0.3,0-0.4,0c-0.2,0-0.4,0-0.6,0h-1.3v3.2h0.9c0.3,0,0.5,0,0.6-0.1
		s0.3-0.1,0.4-0.3c0.1-0.1,0.2-0.3,0.2-0.4c0.1-0.2,0.1-0.4,0.1-0.5h0.4v3.2h-0.4c0-0.2-0.1-0.4-0.1-0.6c-0.1-0.2-0.1-0.4-0.2-0.4
		c-0.1-0.1-0.3-0.2-0.4-0.3c-0.1,0-0.3-0.1-0.6-0.1h-0.9v2.4c0,0.2,0,0.4,0.1,0.6s0.1,0.2,0.2,0.3c0.1,0.1,0.2,0.1,0.4,0.1
		s0.4,0,0.7,0c0.1,0,0.3,0,0.5,0s0.4,0,0.5,0s0.3,0,0.4-0.1s0.3-0.1,0.3-0.2c0.2-0.2,0.4-0.5,0.6-0.8c0.2-0.4,0.3-0.6,0.4-0.8h0.3
		V28.4z"/>
	<path class="st0" d="M183.8,27.1c0.2,0.2,0.3,0.4,0.4,0.6s0.1,0.5,0.1,0.8c0,0.7-0.3,1.3-0.8,1.8s-1.2,0.7-2,0.7
		c-0.4,0-0.7-0.1-1.1-0.2c-0.4-0.1-0.7-0.2-0.9-0.4l-0.2,0.4h-0.5l-0.1-2.8h0.5c0.1,0.3,0.2,0.7,0.3,0.9c0.1,0.3,0.3,0.5,0.5,0.8
		c0.2,0.2,0.4,0.4,0.7,0.5s0.6,0.2,0.9,0.2c0.3,0,0.5,0,0.7-0.1s0.4-0.2,0.5-0.3c0.1-0.1,0.2-0.3,0.3-0.4c0.1-0.2,0.1-0.4,0.1-0.6
		c0-0.3-0.1-0.6-0.3-0.9s-0.5-0.5-0.8-0.6c-0.2-0.1-0.5-0.2-0.9-0.3c-0.3-0.1-0.6-0.2-0.8-0.3c-0.5-0.2-0.8-0.5-1.1-0.8
		s-0.4-0.8-0.4-1.3c0-0.3,0.1-0.6,0.2-0.9s0.3-0.5,0.5-0.7s0.5-0.4,0.8-0.5s0.6-0.2,0.9-0.2c0.4,0,0.7,0.1,1,0.2s0.6,0.2,0.8,0.4
		l0.2-0.4h0.5v2.7h-0.5c-0.1-0.3-0.2-0.6-0.3-0.9s-0.2-0.5-0.4-0.8c-0.2-0.2-0.4-0.4-0.6-0.5c-0.2-0.1-0.5-0.2-0.9-0.2
		s-0.7,0.1-0.9,0.3c-0.3,0.2-0.4,0.5-0.4,0.9s0.1,0.6,0.2,0.9c0.2,0.2,0.4,0.4,0.7,0.6c0.3,0.1,0.6,0.2,0.8,0.3
		c0.3,0.1,0.5,0.2,0.8,0.3c0.2,0.1,0.4,0.2,0.7,0.3C183.5,26.8,183.6,26.9,183.8,27.1z"/>
	<path class="st0" d="M188.9,30.8h-3.6v-0.4c0.1,0,0.3,0,0.4,0c0.2,0,0.3,0,0.4-0.1c0.1,0,0.2-0.1,0.3-0.2s0.1-0.2,0.1-0.4v-5.9
		c0-0.1,0-0.2-0.1-0.3c0-0.1-0.1-0.2-0.3-0.2c-0.1,0-0.3-0.1-0.4-0.1c-0.2,0-0.3-0.1-0.4-0.1v-0.4h3.7v0.4c-0.1,0-0.3,0-0.4,0
		c-0.2,0-0.3,0.1-0.4,0.1c-0.1,0-0.2,0.1-0.3,0.2c0,0.1-0.1,0.2-0.1,0.3v5.9c0,0.1,0,0.2,0.1,0.3c0.1,0.1,0.2,0.2,0.3,0.2
		s0.2,0.1,0.4,0.1s0.3,0.1,0.5,0.1v0.5H188.9z"/>
	<path class="st0" d="M197.7,27.6c-0.1,0-0.2,0-0.4,0.1c-0.2,0-0.3,0.1-0.4,0.1c-0.1,0.1-0.2,0.1-0.2,0.2s-0.1,0.2-0.1,0.4V29
		c0,0.5,0,0.8,0,0.9s0,0.3,0,0.4c-0.5,0.2-1,0.4-1.5,0.5s-1,0.2-1.5,0.2s-1-0.1-1.5-0.3c-0.5-0.2-0.9-0.5-1.3-0.8
		c-0.4-0.4-0.6-0.8-0.9-1.3c-0.2-0.5-0.3-1.1-0.3-1.7s0.1-1.2,0.3-1.7s0.5-1,0.9-1.4s0.8-0.7,1.3-0.9c0.5-0.2,1-0.3,1.6-0.3
		c0.5,0,0.9,0.1,1.2,0.2s0.6,0.2,0.9,0.4l0.2-0.4h0.5l0.1,2.8h-0.5c-0.1-0.3-0.2-0.6-0.3-0.9s-0.3-0.6-0.5-0.8
		c-0.2-0.2-0.4-0.4-0.7-0.6c-0.3-0.1-0.6-0.2-1-0.2s-0.8,0.1-1.1,0.2c-0.3,0.2-0.6,0.4-0.8,0.7c-0.2,0.3-0.4,0.7-0.5,1.2
		s-0.2,1-0.2,1.6c0,0.5,0.1,1,0.2,1.5c0.1,0.5,0.3,0.9,0.5,1.2c0.2,0.3,0.5,0.6,0.9,0.8c0.4,0.2,0.8,0.3,1.2,0.3
		c0.3,0,0.6-0.1,0.9-0.2c0.3-0.1,0.5-0.2,0.6-0.3c0-0.2,0-0.4,0-0.6s0-0.4,0-0.5v-0.4c0-0.2,0-0.3-0.1-0.4c0-0.1-0.1-0.2-0.3-0.3
		c-0.1-0.1-0.3-0.1-0.5-0.1s-0.4,0-0.5-0.1v-0.4h3.6v0.3H197.7z"/>
	<path class="st0" d="M206.7,23.1c-0.1,0-0.3,0-0.5,0.1s-0.4,0.1-0.5,0.2s-0.2,0.3-0.3,0.5c0,0.3-0.1,0.6-0.1,1v5.9h-0.5l-4.9-6.6
		v4.2c0,0.5,0,0.8,0.1,1.1c0.1,0.3,0.1,0.4,0.3,0.5c0.1,0.1,0.3,0.2,0.5,0.2s0.5,0.1,0.5,0.1v0.5H198v-0.4c0.1,0,0.3,0,0.5-0.1
		s0.4-0.1,0.5-0.2s0.2-0.3,0.3-0.5s0.1-0.6,0.1-1.1v-4c0-0.2,0-0.3-0.1-0.5s-0.1-0.3-0.2-0.4c-0.1-0.1-0.3-0.2-0.6-0.3
		c-0.2-0.1-0.4-0.1-0.6-0.1v-0.4h2.3l4.6,6.2v-3.9c0-0.5,0-0.8-0.1-1.1c-0.1-0.3-0.1-0.4-0.3-0.5c-0.1-0.1-0.3-0.1-0.5-0.2
		s-0.4-0.1-0.6-0.1v-0.4h3.3v0.3H206.7z"/>
</g>
<g class="st1">
	<path class="st0" d="M88.6,39.5h-0.7c-0.1-0.5-0.4-1-0.8-1.6S86.3,37,85.9,37c-0.2,0-0.4,0-0.7-0.1c-0.3,0-0.6,0-0.9,0h-2.2v5.3
		h1.5c0.5,0,0.8,0,1.1-0.1c0.3-0.1,0.5-0.2,0.7-0.4c0.1-0.1,0.2-0.3,0.3-0.6c0.1-0.3,0.2-0.6,0.2-0.9h0.7v5.2h-0.7
		c0-0.3-0.1-0.6-0.2-0.9c-0.1-0.3-0.2-0.6-0.3-0.8c-0.2-0.2-0.4-0.4-0.7-0.5c-0.3-0.1-0.6-0.1-1-0.1h-1.5v4.5c0,0.2,0,0.4,0.1,0.5
		c0.1,0.2,0.2,0.3,0.4,0.4c0.1,0,0.3,0.1,0.6,0.2c0.3,0.1,0.5,0.1,0.7,0.1v0.6h-5.7v-0.7c0.2,0,0.4,0,0.7-0.1c0.3,0,0.5-0.1,0.6-0.1
		c0.2-0.1,0.3-0.2,0.4-0.4s0.1-0.3,0.1-0.6V38c0-0.2,0-0.4-0.1-0.5c-0.1-0.2-0.2-0.3-0.4-0.4c-0.2-0.1-0.4-0.2-0.7-0.2
		c-0.3-0.1-0.5-0.1-0.7-0.1v-0.7h10.3L88.6,39.5L88.6,39.5z"/>
	<path class="st0" d="M100.4,37.8c0.6,0.6,1,1.3,1.4,2.2c0.3,0.9,0.5,1.8,0.5,2.8s-0.2,2-0.5,2.8s-0.8,1.6-1.4,2.2
		c-0.6,0.6-1.2,1.1-2,1.4s-1.6,0.5-2.4,0.5c-0.9,0-1.8-0.2-2.5-0.5c-0.8-0.3-1.4-0.8-2-1.4c-0.6-0.6-1-1.3-1.3-2.2s-0.5-1.8-0.5-2.8
		c0-1.1,0.2-2,0.5-2.9c0.3-0.8,0.8-1.6,1.4-2.2c0.6-0.6,1.3-1.1,2-1.4c0.8-0.3,1.6-0.5,2.4-0.5c0.9,0,1.7,0.2,2.5,0.5
		C99.2,36.7,99.9,37.2,100.4,37.8z M99,47.1c0.3-0.6,0.6-1.2,0.8-1.9c0.2-0.7,0.2-1.5,0.2-2.4s-0.1-1.7-0.3-2.5
		c-0.2-0.8-0.4-1.4-0.8-1.9c-0.3-0.5-0.8-0.9-1.3-1.2s-1.1-0.4-1.8-0.4c-0.7,0-1.4,0.2-1.9,0.5s-0.9,0.8-1.3,1.4
		c-0.3,0.5-0.5,1.2-0.7,1.9s-0.2,1.5-0.2,2.3c0,0.9,0.1,1.7,0.2,2.4c0.2,0.7,0.4,1.4,0.8,1.9c0.3,0.5,0.8,1,1.3,1.3s1.1,0.5,1.8,0.5
		c0.7,0,1.3-0.2,1.8-0.5C98.3,48.1,98.7,47.7,99,47.1z"/>
	<path class="st0" d="M117.2,36.9c-0.2,0-0.4,0-0.8,0.1s-0.6,0.2-0.8,0.3c-0.2,0.1-0.4,0.4-0.4,0.9s-0.1,1-0.1,1.6v5.7
		c0,0.7-0.2,1.4-0.5,1.9s-0.7,1-1.2,1.3s-1,0.6-1.5,0.7c-0.5,0.1-1.1,0.2-1.6,0.2c-0.8,0-1.5-0.1-2.1-0.3s-1.1-0.5-1.6-0.8
		c-0.4-0.4-0.7-0.8-0.9-1.2c-0.2-0.5-0.3-0.9-0.3-1.4v-7.8c0-0.2,0-0.4-0.1-0.5s-0.2-0.3-0.4-0.4c-0.2-0.1-0.4-0.2-0.6-0.2
		c-0.2-0.1-0.4-0.1-0.6-0.1v-0.7h5.5v0.7c-0.2,0-0.4,0-0.7,0.1c-0.3,0-0.5,0.1-0.6,0.1c-0.2,0.1-0.4,0.2-0.4,0.4
		c-0.1,0.2-0.1,0.4-0.1,0.6v7.3c0,0.4,0,0.7,0.1,1.1c0.1,0.4,0.2,0.7,0.5,1.1c0.2,0.3,0.6,0.6,1,0.8s1,0.3,1.7,0.3s1.3-0.1,1.7-0.3
		c0.5-0.2,0.8-0.5,1.1-0.9c0.3-0.3,0.4-0.7,0.5-1c0.1-0.4,0.2-0.7,0.2-1.1V40c0-0.7,0-1.2-0.1-1.7c-0.1-0.4-0.2-0.7-0.4-0.9
		c-0.2-0.2-0.5-0.3-0.9-0.4c-0.4-0.1-0.7-0.1-0.9-0.1v-0.7h5.4L117.2,36.9L117.2,36.9z"/>
	<path class="st0" d="M131.8,36.9c-0.2,0-0.4,0.1-0.8,0.1c-0.4,0.1-0.6,0.2-0.8,0.3c-0.2,0.2-0.4,0.5-0.4,0.9
		c-0.1,0.4-0.1,1-0.1,1.7v9.6h-0.8l-8-10.8v6.8c0,0.8,0,1.3,0.1,1.8c0.1,0.4,0.2,0.7,0.4,0.9c0.1,0.1,0.4,0.3,0.9,0.4
		c0.4,0.1,0.7,0.2,0.9,0.2v0.6h-5.4v-0.7c0.2,0,0.4-0.1,0.8-0.2c0.4-0.1,0.6-0.2,0.7-0.3c0.2-0.2,0.4-0.4,0.4-0.8s0.1-1,0.1-1.8
		v-6.5c0-0.3,0-0.6-0.1-0.9c-0.1-0.3-0.2-0.5-0.4-0.7c-0.2-0.2-0.5-0.4-0.9-0.5s-0.7-0.2-0.9-0.2v-0.7h3.8l7.4,10v-6.3
		c0-0.8,0-1.4-0.1-1.8c-0.1-0.4-0.2-0.7-0.4-0.8s-0.5-0.2-0.8-0.3s-0.7-0.2-0.9-0.2V36h5.4L131.8,36.9L131.8,36.9z"/>
	<path class="st0" d="M145.5,42.9c0,1.1-0.2,2.1-0.6,2.9c-0.4,0.8-1,1.5-1.6,2c-0.7,0.5-1.4,0.9-2.3,1.2s-1.7,0.4-2.6,0.4h-5.5v-0.7
		c0.2,0,0.4,0,0.7-0.1c0.3,0,0.5-0.1,0.6-0.1c0.2-0.1,0.3-0.2,0.4-0.4c0.1-0.2,0.1-0.3,0.1-0.6V38c0-0.2,0-0.4-0.1-0.6
		c-0.1-0.2-0.2-0.3-0.4-0.4c-0.2-0.1-0.4-0.2-0.6-0.2c-0.2,0-0.4-0.1-0.6-0.1V36h5.8c0.8,0,1.6,0.1,2.3,0.4c0.8,0.2,1.4,0.6,2,1
		c0.8,0.6,1.4,1.3,1.8,2.2C145.3,40.6,145.5,41.7,145.5,42.9z M143.2,42.9c0-0.9-0.1-1.7-0.4-2.4c-0.2-0.7-0.6-1.3-1-1.9
		c-0.4-0.5-0.9-0.9-1.6-1.2c-0.6-0.3-1.3-0.4-2.1-0.4c-0.3,0-0.5,0-0.9,0c-0.3,0-0.6,0-0.7,0v10.1c0,0.6,0.2,1,0.5,1.2
		s0.8,0.3,1.5,0.3c0.8,0,1.5-0.1,2.1-0.4c0.6-0.3,1.1-0.7,1.4-1.2c0.4-0.5,0.7-1.1,0.8-1.8S143.2,43.8,143.2,42.9z"/>
	<path class="st0" d="M159.4,49.4h-5.5v-0.7c0.5,0,0.9-0.1,1.2-0.2c0.3-0.1,0.5-0.2,0.5-0.3s0-0.1,0-0.2c0-0.1,0-0.2-0.1-0.2
		l-1.1-2.9h-4.6c-0.2,0.4-0.3,0.8-0.4,1.1c-0.1,0.3-0.2,0.6-0.3,0.9c-0.1,0.3-0.1,0.5-0.2,0.7c0,0.2,0,0.3,0,0.4
		c0,0.2,0.2,0.4,0.6,0.6c0.4,0.1,0.8,0.2,1.3,0.2v0.6h-5v-0.7c0.2,0,0.4,0,0.6-0.1c0.2-0.1,0.4-0.1,0.6-0.2c0.2-0.2,0.4-0.3,0.6-0.5
		c0.1-0.2,0.3-0.4,0.4-0.8c0.7-1.7,1.4-3.5,2.2-5.6s1.5-3.9,2.1-5.5h0.7l4.4,11.4c0.1,0.2,0.2,0.4,0.3,0.6s0.3,0.3,0.5,0.4
		c0.1,0.1,0.3,0.2,0.6,0.2s0.4,0.1,0.6,0.1L159.4,49.4L159.4,49.4z M154.1,44l-2-5.1l-2,5.1H154.1z"/>
	<path class="st0" d="M170.6,39.8H170c-0.1-0.2-0.2-0.5-0.3-0.8s-0.3-0.6-0.5-0.9c-0.2-0.3-0.4-0.5-0.6-0.7
		c-0.2-0.2-0.4-0.3-0.6-0.4c-0.2,0-0.4,0-0.7-0.1c-0.3,0-0.6,0-0.8,0H166v10.5c0,0.2,0,0.4,0.1,0.6c0.1,0.2,0.2,0.3,0.5,0.4
		c0.1,0,0.3,0.1,0.7,0.2s0.6,0.1,0.8,0.1v0.7h-6.2v-0.7c0.2,0,0.4,0,0.8-0.1s0.6-0.1,0.7-0.1c0.2-0.1,0.4-0.2,0.5-0.3
		s0.1-0.4,0.1-0.6V37h-0.5c-0.2,0-0.4,0-0.7,0s-0.6,0-0.8,0.1c-0.2,0-0.4,0.1-0.6,0.4c-0.2,0.2-0.4,0.5-0.6,0.7
		c-0.2,0.3-0.3,0.6-0.5,0.9s-0.2,0.6-0.3,0.8h-0.6v-3.6h11.5v3.5H170.6z"/>
	<path class="st0" d="M177.4,49.4h-5.9v-0.7c0.2,0,0.4,0,0.7-0.1c0.3,0,0.5-0.1,0.7-0.1c0.2-0.1,0.4-0.2,0.4-0.3
		c0.1-0.1,0.1-0.3,0.1-0.6v-9.5c0-0.2,0-0.4-0.1-0.5s-0.2-0.3-0.5-0.4c-0.2-0.1-0.4-0.1-0.7-0.2c-0.3-0.1-0.5-0.1-0.7-0.1v-0.7h5.9
		v0.7c-0.2,0-0.4,0-0.7,0.1c-0.3,0-0.5,0.1-0.7,0.2c-0.2,0.1-0.4,0.2-0.5,0.4s-0.1,0.4-0.1,0.6v9.5c0,0.2,0,0.4,0.1,0.5
		c0.1,0.2,0.2,0.3,0.5,0.4c0.1,0,0.3,0.1,0.6,0.2s0.5,0.1,0.7,0.1v0.5H177.4z"/>
	<path class="st0" d="M189.6,37.8c0.6,0.6,1,1.3,1.4,2.2c0.3,0.9,0.5,1.8,0.5,2.8s-0.2,2-0.5,2.8s-0.8,1.6-1.4,2.2
		c-0.6,0.6-1.2,1.1-2,1.4s-1.6,0.5-2.4,0.5c-0.9,0-1.8-0.2-2.5-0.5c-0.8-0.3-1.4-0.8-2-1.4c-0.6-0.6-1-1.3-1.3-2.2s-0.5-1.8-0.5-2.8
		c0-1.1,0.2-2,0.5-2.9c0.3-0.8,0.8-1.6,1.4-2.2c0.6-0.6,1.3-1.1,2-1.4c0.8-0.3,1.6-0.5,2.4-0.5c0.9,0,1.7,0.2,2.5,0.5
		S189.1,37.2,189.6,37.8z M188.3,47.1c0.3-0.6,0.6-1.2,0.8-1.9s0.2-1.5,0.2-2.4s-0.1-1.7-0.3-2.5s-0.4-1.4-0.8-1.9
		c-0.3-0.5-0.8-0.9-1.3-1.2s-1.1-0.4-1.8-0.4s-1.4,0.2-1.9,0.5s-0.9,0.8-1.3,1.4c-0.3,0.5-0.5,1.2-0.7,1.9s-0.2,1.5-0.2,2.3
		c0,0.9,0.1,1.7,0.2,2.4c0.2,0.7,0.4,1.4,0.8,1.9c0.3,0.5,0.8,1,1.3,1.3s1.1,0.5,1.8,0.5s1.3-0.2,1.8-0.5
		C187.5,48.1,187.9,47.7,188.3,47.1z"/>
	<path class="st0" d="M206.7,36.9c-0.2,0-0.4,0.1-0.8,0.1c-0.4,0.1-0.6,0.2-0.8,0.3c-0.2,0.2-0.4,0.5-0.4,0.9
		c-0.1,0.4-0.1,1-0.1,1.7v9.6h-0.8l-8.1-10.7v6.8c0,0.8,0,1.3,0.1,1.8c0.1,0.4,0.2,0.7,0.4,0.9c0.1,0.1,0.4,0.3,0.9,0.4
		c0.4,0.1,0.7,0.2,0.9,0.2v0.5h-5.4v-0.7c0.2,0,0.4-0.1,0.8-0.2c0.4-0.1,0.6-0.2,0.7-0.3c0.2-0.2,0.4-0.4,0.4-0.8s0.1-1,0.1-1.8
		v-6.5c0-0.3,0-0.6-0.1-0.9c-0.1-0.3-0.2-0.5-0.4-0.7s-0.5-0.4-0.9-0.5s-0.7-0.2-0.9-0.2v-0.7h3.8l7.4,10v-6.3c0-0.8,0-1.4-0.1-1.8
		c-0.1-0.4-0.2-0.7-0.4-0.8s-0.5-0.2-0.8-0.3s-0.7-0.2-0.9-0.2V36h5.4V36.9z"/>
</g>
<text transform="matrix(1 0 0 1 19.8 59.5)" class="st0 st2 st3">Est. 2002</text>
<text transform="matrix(-1.920000e-02 -0.9998 0.9998 -1.920000e-02 6.9 34.6998)" class="st0 st2 st4">I</text>
<text transform="matrix(9.929580e-02 -0.9951 0.9951 9.929580e-02 6.9002 32.5992)" class="st0 st2 st5">N</text>
<text transform="matrix(0.2181 -0.9759 0.9759 0.2181 7.3 29.0998)" class="st0 st2 st4">T</text>
<text transform="matrix(0.3312 -0.9436 0.9436 0.3312 7.9606 26.1795)" class="st0 st2 st6">E</text>
<text transform="matrix(0.4392 -0.8984 0.8984 0.4392 8.9995 23.239)" class="st0 st2 st7">R</text>
<text transform="matrix(0.5432 -0.8396 0.8396 0.5432 10.5001 20.3007)" class="st0 st2 st4">A</text>
<text transform="matrix(0.6392 -0.769 0.769 0.6392 12.2194 17.6614)" class="st0 st2 st8">C</text>
<text transform="matrix(0.717 -0.6971 0.6971 0.717 14.2002 15.3106)" class="st0 st2 st9">T</text>
<text transform="matrix(0.7828 -0.6222 0.6222 0.7828 16.3897 13.2598)" class="st0 st2 st10">I</text>
<text transform="matrix(0.8406 -0.5417 0.5417 0.8406 18 11.9999)" class="st0 st2 st4">O</text>
<text transform="matrix(0.9041 -0.4274 0.4274 0.9041 20.8995 10.0994)" class="st0 st2 st11">N</text>
<text transform="matrix(0.9684 -0.2496 0.2496 0.9684 25.5195 8.1398)" class="st0 st2 st12">D</text>
<text transform="matrix(0.9914 -0.1305 0.1305 0.9914 28.9003 7.3004)" class="st0 st2 st13">E</text>
<text transform="matrix(0.9998 -2.000000e-02 2.000000e-02 0.9998 31.9907 6.9304)" class="st0 st2 st14">S</text>
<text transform="matrix(0.9979 6.450000e-02 -6.450000e-02 0.9979 34.7 6.8999)" class="st0 st2 st4">I</text>
<text transform="matrix(0.9857 0.1685 -0.1685 0.9857 36.8 7)" class="st0 st2 st15">G</text>
<text transform="matrix(0.9563 0.2924 -0.2924 0.9563 40.1999 7.6001)" class="st0 st2 st4">N</text>
<text transform="matrix(0.8886 0.4586 -0.4586 0.8886 44.8996 9.2993)" class="st0 st2 st16">F</text>
<text transform="matrix(0.829 0.5592 -0.5592 0.829 47.4996 10.5998)" class="st0 st2 st4">O</text>
<text transform="matrix(0.7507 0.6606 -0.6606 0.7507 50.3403 12.5693)" class="st0 st2 st17">U</text>
<text transform="matrix(0.6587 0.7524 -0.7524 0.6587 52.9998 14.9001)" class="st0 st2 st4">N</text>
<text transform="matrix(0.5592 0.829 -0.829 0.5592 55.3008 17.5999)" class="st0 st2 st4">D</text>
<text transform="matrix(0.4493 0.8934 -0.8934 0.4493 57.1994 20.4999)" class="st0 st2 st4">A</text>
<text transform="matrix(0.3401 0.9404 -0.9404 0.3401 58.5601 23.3598)" class="st0 st2 st18">T</text>
<text transform="matrix(0.2538 0.9673 -0.9673 0.2538 59.4999 26.2001)" class="st0 st2 st5">I</text>
<text transform="matrix(0.1513 0.9885 -0.9885 0.1513 60.0993 28.2001)" class="st0 st2 st4">O</text>
<text transform="matrix(2.270096e-02 0.9997 -0.9997 2.270096e-02 60.5999 31.6001)" class="st0 st2 st19">N</text>
</svg>
